<?xml version="1.0" standalone="no"?>
<!DOCTYPE svg PUBLIC "-//W3C//DTD SVG 1.1//EN" "http://www.w3.org/Graphics/SVG/1.1/DTD/svg11.dtd" >
<svg xmlns="http://www.w3.org/2000/svg" xmlns:xlink="http://www.w3.org/1999/xlink" version="1.1">
<metadata>
Created by FontForge 20150102 at Tue Feb  3 15:56:10 2015
 By uniteet7
Copyright (c) 2012 by Rene Bieder. All rights reserved.
</metadata>
<defs>
<font id="ReneBiederQuadonBlack" horiz-adv-x="500" >
  <font-face 
    font-family="ReneBiederQuadonBlack"
    font-weight="900"
    font-stretch="normal"
    units-per-em="1000"
    panose-1="0 0 10 0 0 0 0 0 0 0"
    ascent="800"
    descent="-200"
    x-height="541"
    cap-height="700"
    bbox="-149 -295 1435 946"
    underline-thickness="50"
    underline-position="-90"
    unicode-range="U+0020-2212"
  />
<missing-glyph horiz-adv-x="683" 
d="M8 0l-8 9l674 691l9 -8z" />
    <glyph glyph-name="f_f" unicode="ff" horiz-adv-x="864" 
d="M696 390v-230q44 -5 82 -15v-145h-343v145q17 5 53 11v234h-199v-230q44 -5 82 -15v-145h-343v145q17 5 53 11v234h-62v133q17 4 62 11v44q0 63 41.5 108t111.5 57q68 12 170 19l18 -142q-4 -1 -42 -8t-61 -14q-30 -9 -30 -40v-17h199v37q0 63 41.5 108t111.5 57
q68 12 170 19l18 -142q-4 -1 -42 -8t-61 -14q-30 -9 -30 -40v-17h148v-151h-148z" />
    <glyph glyph-name="f_f_i" unicode="ffi" horiz-adv-x="1169" 
d="M995 576q-48 0 -81.5 29t-33.5 75t33.5 75t81.5 29q49 0 82 -29t33 -75t-33 -75t-82 -29zM1099 541v-384q6 -1 17 -3.5t20 -4.5t17 -4v-145h-315v145q20 5 53 11v234h-195v-230q44 -5 82 -15v-145h-343v145q17 5 53 11v234h-199v-230q44 -5 82 -15v-145h-343v145
q17 5 53 11v234h-62v133q17 4 62 11v44q0 63 41.5 108t111.5 57q68 12 170 19l18 -142q-4 -1 -42 -8t-61 -14q-30 -9 -30 -40v-17h199v37q0 63 41.5 108t111.5 57q68 12 170 19l18 -142q-4 -1 -42 -8t-61 -14q-30 -9 -30 -40v-17h403z" />
    <glyph glyph-name="f_f_l" unicode="ffl" horiz-adv-x="1202" 
d="M696 541h148v-151h-148v-230q44 -5 82 -15v-145h-343v145q17 5 53 11v234h-199v-230q44 -5 82 -15v-145h-343v145q17 5 53 11v234h-62v133q17 4 62 11v44q0 63 41.5 108t111.5 57q68 12 170 19l18 -142q-4 -1 -42 -8t-61 -14q-30 -9 -30 -40v-17h199v37q0 63 41.5 108
t111.5 57q68 12 170 19l18 -142q-4 -1 -42 -8t-61 -14q-30 -9 -30 -40v-17zM1130 700v-544q36 -6 54 -11v-145h-315v145q16 5 53 11v387q-27 5 -52 12v145h260z" />
    <glyph glyph-name=".notdef" horiz-adv-x="683" 
d="M8 0l-8 9l674 691l9 -8z" />
    <glyph glyph-name=".null" horiz-adv-x="0" 
 />
    <glyph glyph-name="nonmarkingreturn" horiz-adv-x="333" 
 />
    <glyph glyph-name="space" unicode=" " horiz-adv-x="233" 
 />
    <glyph glyph-name="exclam" unicode="!" horiz-adv-x="268" 
d="M250 700v-144l-55 -302h-122l-54 302v144h231zM134 -7q-59 0 -87 25.5t-28 80.5q0 107 115 107t115 -107q0 -55 -28 -80.5t-87 -25.5z" />
    <glyph glyph-name="quotedbl" unicode="&#x22;" horiz-adv-x="440" 
d="M209 700v-104q0 -81 -91 -221h-103v325h194zM424 700v-104q0 -81 -91 -221h-103v325h194z" />
    <glyph glyph-name="numbersign" unicode="#" horiz-adv-x="713" 
d="M587 299h85v-176h-110l-18 -123h-176l18 123h-98l-18 -123h-177l18 123h-99v176h124l15 98h-109v176h134l19 127h176l-19 -127h98l19 127h177l-19 -127h74v-176h-99zM327 397l-14 -98h98l15 98h-99z" />
    <glyph glyph-name="dollar" unicode="$" horiz-adv-x="642" 
d="M356 445l122 -29q79 -20 110 -57t31 -113v-41q0 -97 -54 -147t-169 -58v-64h-158v64q-64 4 -206 41v189h181l23 -68q30 -6 61 -7v108l-146 36q-74 21 -101 59.5t-27 128.5v8q0 100 53.5 149.5t170.5 56.5v76h158v-77q80 -6 194 -30v-207h-172l-23 72q-20 8 -48 8v-98z
M297 459v84q-27 0 -37.5 -7.5t-10.5 -29.5v-6q0 -30 35 -38zM403 194v9q0 17 -9.5 26t-37.5 19v-93q27 2 36 10t11 29z" />
    <glyph glyph-name="percent" unicode="%" horiz-adv-x="1019" 
d="M535 347l-223 -366h-76l241 366l231 379h76zM195 714h73q93 -1 129.5 -40t36.5 -136v-95q-2 -95 -38.5 -133.5t-127.5 -38.5h-73q-94 0 -132 38.5t-40 132.5v96q0 97 38 136.5t134 39.5zM252 587h-47q-24 0 -32 -9.5t-8 -35.5v-101q0 -25 8 -33.5t32 -8.5h47q23 0 31 8.5
t9 33.5v101q0 26 -8.5 35.5t-31.5 9.5zM756 429h74q92 -1 128.5 -40t36.5 -136v-96q-2 -95 -38.5 -133t-126.5 -38h-74q-94 0 -131.5 38t-39.5 133v96q0 97 38 136.5t133 39.5zM814 301h-48q-23 0 -31 -9.5t-8 -35.5v-101q0 -24 8 -33t31 -9h48q22 0 30.5 9t9.5 33v101
q0 26 -8.5 35.5t-31.5 9.5z" />
    <glyph glyph-name="ampersand" unicode="&#x26;" horiz-adv-x="699" 
d="M658 439v-154q-48 -11 -80 -12q-7 -31 -19 -60l44 -47q39 -5 83 -12v-154h-191l-27 30q-23 -26 -52 -32.5t-109 -6.5h-28q-64 0 -104 4t-74 15t-51 33t-26.5 56t-9.5 86v45q0 142 116 173q-43 61 -43 100v25q0 99 56 142.5t172 43.5h30q75 0 203 -32v-182h-173l-14 46
q-9 5 -24 5h-10q-18 0 -25 -7t-7 -24v-4q0 -18 14 -36l114 -121q16 43 25 80h210zM209 251v-37q0 -31 11.5 -41.5t47.5 -10.5h29q23 0 35 12q-16 16 -33 34.5t-37.5 40t-32.5 34.5q-20 -5 -20 -32z" />
    <glyph glyph-name="quotesingle" unicode="'" horiz-adv-x="225" 
d="M209 700v-104q0 -81 -91 -221h-103v325h194z" />
    <glyph glyph-name="parenleft" unicode="(" horiz-adv-x="304" 
d="M196 525v-473q0 -35 11 -58t25 -34.5t49 -32.5q8 -5 13 -8l-45 -91q-39 14 -53 19t-47 18.5t-46.5 23.5t-35.5 27.5t-31.5 35.5t-17 43t-7.5 55v477q0 30 7.5 55t17.5 43.5t31 35.5t36 27.5t46 23.5t47.5 19t52.5 18l45 -91q-5 -3 -13 -8q-35 -21 -49 -32.5t-25 -34.5
t-11 -58z" />
    <glyph glyph-name="parenright" unicode=")" horiz-adv-x="316" 
d="M120 52v473q0 35 -11 58t-25 34.5t-49 32.5q-2 2 -4 3t-4.5 2.5t-4.5 2.5l45 91q36 -12 52.5 -18t47.5 -19t46 -23.5t36 -27.5t31 -35.5t17.5 -43.5t7.5 -55v-477q0 -30 -7.5 -55t-17 -43t-31.5 -35.5t-35.5 -27.5t-46.5 -23.5t-47 -18.5t-53 -19l-45 91q5 3 13 8
q35 21 49 32.5t25 34.5t11 58z" />
    <glyph glyph-name="asterisk" unicode="*" horiz-adv-x="433" 
d="M423 441l-58 -99l-56 35l-60 62l25 -83v-66h-115v66l25 84l-59 -63l-57 -35l-58 99l59 35l80 20l-80 18l-59 34l58 99l57 -34l58 -61l-24 81v67h115v-67l-24 -80l59 60l56 34l58 -99l-59 -34l-80 -18l80 -20z" />
    <glyph glyph-name="plus" unicode="+" horiz-adv-x="580" 
d="M25 263v169h177v175h177v-175h176v-169h-176v-176h-177v176h-177z" />
    <glyph glyph-name="comma" unicode="," horiz-adv-x="249" 
d="M15 23l26 116q14 62 78 52q63 -10 89 -29.5t26 -62.5q0 -69 -48.5 -138t-108.5 -118l-53 39q36 82 42 118z" />
    <glyph glyph-name="hyphen" unicode="-" horiz-adv-x="386" 
d="M362 397v-168h-338v168h338z" />
    <glyph glyph-name="period" unicode="." horiz-adv-x="260" 
d="M130 -7q-59 0 -87 25.5t-28 80.5q0 107 115 107t115 -107q0 -55 -28 -80.5t-87 -25.5z" />
    <glyph glyph-name="slash" unicode="/" horiz-adv-x="480" 
d="M490 782l-392 -852h-117l392 852h117z" />
    <glyph glyph-name="zero" unicode="0" horiz-adv-x="635" 
d="M347 -14h-49q-151 0 -213.5 60.5t-65.5 211.5v175q0 155 62.5 218t216.5 63h48q149 -1 210 -64t61 -217v-174q-4 -151 -64.5 -212t-205.5 -61zM311 164h12q42 0 59 17t18 60v216q0 45 -17 63t-60 18h-12q-42 0 -59 -18t-17 -63v-216q0 -43 17 -60t59 -17z" />
    <glyph glyph-name="one" unicode="1" horiz-adv-x="466" 
d="M360 709v-540q58 -7 87 -15v-154h-414v154q51 13 111 17v338l-125 -4v155l224 49h117z" />
    <glyph glyph-name="two" unicode="2" horiz-adv-x="586" 
d="M557 224v-224h-534v150q0 52 5.5 84t22.5 54.5t34 34.5t54 32q46 25 136 63q45 19 62 30.5t17 26.5v26q0 24 -10 32.5t-36 8.5q-60 0 -87 -5l-13 -49h-164v192q111 22 159.5 28t126.5 6q121 0 176.5 -52.5t55.5 -169.5v-27q0 -24 -2 -42.5t-9 -34.5t-11.5 -26.5
t-20 -22.5t-24 -18t-33 -17t-37 -16t-46.5 -18q-111 -44 -118 -48q-20 -11 -24.5 -22t-4.5 -41h165l16 65h144z" />
    <glyph glyph-name="three" unicode="3" horiz-adv-x="571" 
d="M553 527v-39q0 -70 -21 -103t-65 -43q45 -9 65.5 -39t20.5 -97v-33q0 -98 -58 -139.5t-191 -41.5q-136 0 -284 26v187h145l14 -50q42 -3 123 -3q29 0 38 8.5t9 32.5v22q0 41 -19.5 48.5t-112.5 7.5h-79v157h79q94 0 113 8t19 50v21q0 23 -10 32.5t-37 9.5q-47 0 -121 -4
l-14 -52h-146v188q158 29 283 29q136 0 192.5 -41.5t56.5 -141.5z" />
    <glyph glyph-name="four" unicode="4" horiz-adv-x="642" 
d="M7 352l308 348h217v-348h87v-138l-87 -16v-38q60 -8 87 -15v-145h-396v145q38 9 92 16v37h-308v154zM199 352h116v140z" />
    <glyph glyph-name="five" unicode="5" horiz-adv-x="584" 
d="M541 500h-144l-7 36h-172l-5 -126q44 45 117 45h45q93 0 141 -34.5t48 -125.5v-120q0 -96 -57 -142.5t-176 -46.5q-130 0 -312 32v182h145l14 -50q67 -3 132 -3q51 0 51 44v73q0 18 -10.5 28.5t-29.5 10.5h-48q-8 0 -15 -0.5t-14 -3.5t-10.5 -4t-11 -6.5t-8.5 -6.5
t-9.5 -8.5t-9.5 -8.5l-165 46l11 389h500v-200z" />
    <glyph glyph-name="six" unicode="6" horiz-adv-x="640" 
d="M383 447h49q104 0 149 -38t45 -127v-107q0 -98 -61 -141t-186 -43h-73q-142 0 -213.5 68t-73.5 211v162q0 282 298 282q68 0 119 -6.5t156 -24.5v-192h-181l-23 39q-40 6 -70 6q-83 0 -83 -85v-72q66 54 148 68zM235 270v-35q0 -36 20.5 -55t56.5 -18h64q46 1 46 45v45
q0 43 -45 43h-33q-65 0 -109 -25z" />
    <glyph glyph-name="seven" unicode="7" horiz-adv-x="585" 
d="M576 536l-209 -536h-257v33l260 501h-192l-25 -64h-143v230h566v-164z" />
    <glyph glyph-name="eight" unicode="8" horiz-adv-x="660" 
d="M615 535v-51q0 -56 -19.5 -88t-65.5 -46q61 -13 87 -49t26 -102v-17q0 -104 -57 -150t-187 -46h-125q-135 0 -195 46t-62 150v17q0 66 27 101.5t91 49.5q-48 14 -68.5 46t-20.5 88v51q2 92 56.5 133t177.5 41h112q118 0 170.5 -41t52.5 -133zM237 515v-45
q0 -22 11.5 -30.5t38.5 -8.5h89q26 0 36.5 8.5t10.5 30.5v45q0 24 -10 33t-36 10h-90q-27 0 -38.5 -9.5t-11.5 -33.5zM426 204v45q0 23 -10.5 32t-37.5 9h-93q-28 0 -39.5 -9.5t-11.5 -31.5v-45q0 -25 11.5 -35.5t39.5 -10.5h94q26 0 36.5 10.5t10.5 35.5z" />
    <glyph glyph-name="nine" unicode="9" horiz-adv-x="640" 
d="M257 254h-49q-104 0 -149 38t-45 126v107q0 90 60.5 139.5t169.5 49.5h108q140 0 203.5 -68.5t66.5 -215.5v-163q0 -145 -72 -213t-230 -68q-45 0 -91.5 4.5t-71.5 9t-109 18.5v193h199l5 -40q47 -7 67 -7q45 0 65.5 20t20.5 64v56q-63 -50 -148 -50zM405 421v45
q0 75 -77 74h-64q-47 -2 -47 -47v-45q0 -42 45 -42h34q82 0 109 15z" />
    <glyph glyph-name="colon" unicode=":" horiz-adv-x="260" 
d="M130 335q-59 0 -87 25.5t-28 80.5q0 107 115 107t115 -107q0 -55 -28 -80.5t-87 -25.5zM130 -7q-59 0 -87 25.5t-28 80.5q0 107 115 107t115 -107q0 -55 -28 -80.5t-87 -25.5z" />
    <glyph glyph-name="semicolon" unicode=";" horiz-adv-x="260" 
d="M130 335q-59 0 -87 25.5t-28 80.5q0 107 115 107t115 -107q0 -55 -28 -80.5t-87 -25.5zM15 23l26 116q14 62 78 52q63 -10 89 -29.5t26 -62.5q0 -69 -48.5 -138t-108.5 -118l-53 39q36 82 42 118z" />
    <glyph glyph-name="less" unicode="&#x3c;" horiz-adv-x="469" 
d="M451 469l-239 -127v-4l239 -124v-132h-82l-354 198v114l355 197h81v-122z" />
    <glyph glyph-name="equal" unicode="=" horiz-adv-x="549" 
d="M523 540v-170h-498v170h498zM523 309v-170h-498v170h498z" />
    <glyph glyph-name="greater" unicode="&#x3e;" horiz-adv-x="469" 
d="M99 591l355 -197v-114l-354 -198h-82v132l239 124v4l-239 127v122h81z" />
    <glyph glyph-name="question" unicode="?" horiz-adv-x="543" 
d="M12 497v183q112 22 159 28t126 6q232 0 232 -195v-17q0 -79 -23.5 -113t-73.5 -50q-27 -8 -76 -20.5t-56 -14.5v-66h-174l-19 173q122 30 161 42q53 17 53 40v17q0 24 -9.5 32.5t-36.5 8.5q-53 0 -86 -5l-14 -49h-163zM215 -7q-59 0 -87 25.5t-28 80.5q0 107 115 107
t115 -107q0 -55 -28 -80.5t-87 -25.5z" />
    <glyph glyph-name="at" unicode="@" horiz-adv-x="970" 
d="M738 504l-49 -300q-4 -42 4.5 -60t39.5 -18q58 0 92.5 55.5t34.5 160.5q0 302 -323 302q-108 0 -191.5 -32.5t-134 -90t-76.5 -130.5t-26 -159q0 -166 95.5 -249t270.5 -83q158 0 292 67l27 -58q-136 -78 -324 -78q-205 0 -321.5 101.5t-116.5 297.5q0 139 56.5 247
t173 172t277.5 64q191 0 295 -92.5t104 -267.5q0 -147 -73 -228.5t-212 -81.5q-29 0 -45.5 1.5t-39 6.5t-36.5 18.5t-21 35.5q-31 -33 -61.5 -48.5t-78.5 -15.5h-13q-64 0 -103.5 41.5t-27.5 131.5l17 139q11 72 55 110.5t102 38.5h14q58 0 131 -28l4 30h188zM510 204
l20 157q-29 9 -57 9h-8q-27 0 -37.5 -16.5t-17.5 -69.5l-3 -24q-6 -48 2 -63.5t37 -15.5h5q29 0 58 17z" />
    <glyph glyph-name="A" unicode="A" horiz-adv-x="807" 
d="M544 700l170 -532q43 -4 81 -14v-154h-383v154q29 8 61 12l-12 42h-166l-8 -41q13 -2 55 -13v-154h-330v154q26 7 76 15l110 365q-20 3 -58 12v154h404zM379 520h-2l-47 -152h96z" />
    <glyph glyph-name="B" unicode="B" horiz-adv-x="676" 
d="M647 488v-5q0 -89 -70 -128q81 -36 81 -132v-27q0 -118 -53.5 -156.5t-197.5 -39.5h-384v154q31 8 64 13v365q-26 4 -68 14v154h384q139 -1 191.5 -47t52.5 -165zM304 415h70q33 0 47 9t14 33v19q0 26 -12 37t-45 11h-74v-109zM437 226v20q-1 23 -15.5 32t-47.5 9h-70
v-111h70q63 0 63 50z" />
    <glyph glyph-name="C" unicode="C" horiz-adv-x="639" 
d="M621 225v-168q-136 -71 -255 -71h-73q-139 0 -203 68.5t-67 215.5v162q0 139 69 210.5t204 71.5h57q99 0 267 -32v-236h-181l-23 90q-48 5 -99 5q-77 0 -77 -86v-209q0 -37 21 -60.5t56 -22.5h38q58 0 86 62h180z" />
    <glyph glyph-name="D" unicode="D" horiz-adv-x="702" 
d="M19 700h395q143 -1 206.5 -66t63.5 -213v-150q-3 -144 -66 -207.5t-203 -63.5h-392v154q13 3 64 14v364q-24 3 -68 14v154zM468 252v193q0 38 -20.5 58.5t-57.5 20.5h-86v-348h86q36 0 56.5 20t21.5 56z" />
    <glyph glyph-name="E" unicode="E" horiz-adv-x="640" 
d="M616 700v-241h-135l-25 69h-153v-92h138v-176h-138v-88h155l25 69h134v-241h-594v154q11 2 64 13v366q-33 4 -68 13v154h597z" />
    <glyph glyph-name="F" unicode="F" horiz-adv-x="633" 
d="M617 700v-241h-134l-25 69h-155v-112h192v-176h-192v-73q80 -10 91 -13v-154h-371v154q24 6 64 13v366q-35 5 -68 13v154h598z" />
    <glyph glyph-name="G" unicode="G" horiz-adv-x="679" 
d="M661 385v-179q0 -53 -20.5 -94.5t-50 -64t-67.5 -37.5t-68 -19.5t-58 -4.5h-102q-140 0 -205 69t-67 215v156q0 139 71 213.5t205 74.5h64q94 0 278 -32v-241h-182l-23 87q-47 5 -114 5q-38 0 -60 -24.5t-22 -66.5v-197q0 -35 21 -55t58 -20h86q25 0 41 12t16 36v13
q-70 8 -134 19v135h333z" />
    <glyph glyph-name="H" unicode="H" horiz-adv-x="795" 
d="M777 700v-154q-32 -8 -69 -13v-366q61 -11 69 -13v-154h-335v154q20 5 50 10v100h-188v-100q31 -5 49 -10v-154h-334v154q1 0 68 13v366q-39 5 -68 13v154h334v-154q-18 -5 -49 -10v-104h188v104q-34 6 -50 10v154h335z" />
    <glyph glyph-name="I" unicode="I" horiz-adv-x="390" 
d="M371 700v-154q-30 -8 -68 -13v-366q38 -5 68 -13v-154h-348v154q24 6 64 13v366q-40 5 -68 13v154h352z" />
    <glyph glyph-name="J" unicode="J" horiz-adv-x="410" 
d="M392 700v-154q-29 -8 -68 -13v-417q0 -70 -22.5 -111t-90.5 -96q-22 -17 -38.5 -29t-24 -17t-23 -13.5t-24.5 -14.5l-91 85q5 6 13 15.5t16.5 20.5t19.5 26q29 39 38.5 66t9.5 70v415q-39 5 -68 13v154h353z" />
    <glyph glyph-name="K" unicode="K" horiz-adv-x="776" 
d="M371 700v-154q-30 -8 -68 -13v-103h97l74 106q-34 7 -46 10v154h325v-154q-31 -8 -50 -10l-126 -183l124 -186q42 -8 63 -13v-154h-336v154q4 1 15 2.5t15 2.5l-65 102h-90v-94q38 -5 68 -13v-154h-348v154q24 6 64 13v366q-40 5 -68 13v154h352z" />
    <glyph glyph-name="L" unicode="L" horiz-adv-x="628" 
d="M617 0h-594v154q31 8 64 13v366q-41 7 -68 13v154h383v-154q-41 -11 -99 -16v-358h146l25 88h143v-260z" />
    <glyph glyph-name="M" unicode="M" horiz-adv-x="970" 
d="M952 700v-154q-39 -9 -69 -15v-364q24 -3 64 -13v-154h-321v154q35 8 49 10v273l-146 -437h-133l-136 437v-270q38 -8 58 -13v-154h-295v154q31 8 64 13v363q-6 1 -68 16v154h336l119 -369h2l119 369h357z" />
    <glyph glyph-name="N" unicode="N" horiz-adv-x="800" 
d="M781 700v-154q-38 -10 -68 -14v-532h-221l-215 339v-175q18 -2 49 -10v-154h-303v154q30 8 64 13v364q-30 5 -68 15v154h267l237 -362v197q-16 3 -50 11v154h308z" />
    <glyph glyph-name="O" unicode="O" horiz-adv-x="696" 
d="M406 -14h-106q-146 0 -212.5 66.5t-68.5 211.5v163q0 149 66.5 218t214.5 69h105q143 -1 208 -70t65 -217v-162q-2 -145 -67 -212t-205 -67zM313 166h69q78 0 79 80v204q0 84 -79 84h-69q-78 0 -78 -84v-204q0 -80 78 -80z" />
    <glyph glyph-name="P" unicode="P" horiz-adv-x="669" 
d="M19 700h384q138 -1 194 -51t56 -172v-51q-2 -113 -58 -159.5t-191 -46.5h-100v-52q38 -4 77 -14v-154h-358v154q24 6 64 13v365q-26 4 -68 14v154zM450 438v27q0 33 -13.5 46t-49.5 13h-83v-141h83q34 0 47.5 12t15.5 43z" />
    <glyph glyph-name="Q" unicode="Q" horiz-adv-x="696" 
d="M300 714h105q143 -1 208 -70t65 -217v-162q-2 -145 -67 -212t-205 -67h-106q-146 0 -212.5 66.5t-68.5 211.5v163q0 149 66.5 218t214.5 69zM382 536h-69q-78 0 -78 -84v-208q0 -80 78 -80h69q78 0 79 80v208q0 84 -79 84zM256 -152v84q99 22 222 36q89 10 134.5 -7
t98.5 -79l-150 -114q-27 31 -60 48.5t-55.5 21.5t-63.5 7q-35 3 -126 3z" />
    <glyph glyph-name="R" unicode="R" horiz-adv-x="723" 
d="M19 700h402q140 0 197 -47t57 -167v-47q0 -121 -87 -174q33 -45 55 -98l60 -13v-154h-284v125q-14 82 -36 112h-79v-75q7 -2 19 -4.5t18 -3.5v-154h-318v154q46 10 64 13v365q-26 4 -68 14v154zM304 396h94q62 0 63 45v33q0 26 -14.5 38t-48.5 12h-94v-128z" />
    <glyph glyph-name="S" unicode="S" horiz-adv-x="642" 
d="M213 225l23 -70q36 -7 82 -7h18q40 0 52.5 8t14.5 32v9q0 21 -13.5 31t-58.5 23l-180 46q-74 22 -101 61.5t-27 133.5v8q0 112 64 163t206 51h39q120 0 267 -33v-214h-172l-23 74q-19 9 -64 9h-43q-27 0 -37.5 -8.5t-10.5 -30.5v-6q0 -31 35 -39l194 -48q79 -20 110 -59
t31 -117v-43q0 -110 -65 -161.5t-205 -51.5h-57q-68 0 -113.5 8t-146.5 35v196h181z" />
    <glyph glyph-name="T" unicode="T" horiz-adv-x="699" 
d="M690 455h-145l-22 78h-65v-366q43 -5 71 -13v-154h-354v154q12 3 67 13v366h-66l-21 -78h-145v245h680v-245z" />
    <glyph glyph-name="U" unicode="U" horiz-adv-x="741" 
d="M727 700v-154q-18 -5 -54 -11v-272q-1 -159 -59 -218t-210 -59h-44q-158 0 -217.5 59t-61.5 217v271q-46 8 -67 13v154h357v-154q-31 -8 -73 -13v-293q0 -36 20 -57t56 -21h24q35 0 55.5 21t21.5 57v296q-17 2 -51 10v154h303z" />
    <glyph glyph-name="V" unicode="V" horiz-adv-x="776" 
d="M765 700v-154q-29 -8 -66 -13l-158 -533h-308l-164 534q-32 5 -57 12v154h365v-154q-11 -3 -62 -12l86 -312h9l84 312q-35 5 -62 12v154h333z" />
    <glyph glyph-name="W" unicode="W" horiz-adv-x="1003" 
d="M1000 700v-154q-31 -9 -53 -11l-136 -535h-268l-50 296h-3l-59 -296h-248l-132 536q-32 6 -48 10v154h333v-154q-5 -1 -52 -10l53 -281h7l92 445h164l86 -439h6l62 275q-44 8 -51 10v154h297z" />
    <glyph glyph-name="X" unicode="X" horiz-adv-x="734" 
d="M524 347l154 -184q22 -3 45 -9v-154h-335v154q16 2 22 4l-64 89h-1l-49 -84q2 0 18 -3.5t25 -5.5v-154h-310v154q29 8 57 12l133 177l-166 194q-5 1 -13.5 2.5t-15.5 3t-13 3.5v154h357v-154l-32 -6l67 -91h2l56 87q-27 5 -48 10v154h310v-154q-26 -6 -60 -13z" />
    <glyph glyph-name="Y" unicode="Y" horiz-adv-x="718" 
d="M333 700v-154q-6 -1 -17.5 -3.5t-17.5 -3.5l67 -139h2l77 137q-22 3 -44 9v154h306v-154q-38 -10 -69 -14l-176 -296v-69q38 -5 68 -13v-154h-348v154q24 6 64 13v60l-177 307q-30 5 -56 12v154h321z" />
    <glyph glyph-name="Z" unicode="Z" horiz-adv-x="630" 
d="M606 700v-147l-301 -388h133l27 112h149v-277h-598v121q0 51 34 88l294 327h-152l-27 -95h-149v259h590z" />
    <glyph glyph-name="bracketleft" unicode="[" horiz-adv-x="306" 
d="M296 728v-136h-92v-608h92v-131h-277v875h277z" />
    <glyph glyph-name="backslash" unicode="\" horiz-adv-x="480" 
d="M499 -70h-117l-392 852h117z" />
    <glyph glyph-name="bracketright" unicode="]" horiz-adv-x="306" 
d="M287 728v-875h-277v131h92v608h-92v136h277z" />
    <glyph glyph-name="asciicircum" unicode="^" horiz-adv-x="438" 
d="M268 700l157 -192v-69h-118l-83 99h-4l-82 -99h-126v69l162 192h94z" />
    <glyph glyph-name="underscore" unicode="_" horiz-adv-x="595" 
d="M597 -54v-101h-599v101h599z" />
    <glyph glyph-name="grave" unicode="`" 
d="M382 632l-85 -53l-182 106v27l150 74z" />
    <glyph glyph-name="a" unicode="a" horiz-adv-x="634" 
d="M564 359v-201q24 -4 54 -12v-145h-261v65q-28 -23 -47 -36t-50.5 -25.5t-62.5 -12.5h-15q-32 0 -50.5 1.5t-40.5 10t-33.5 24t-19.5 45t-8 72.5v30q0 35 9 59.5t22 38t37 22.5t42.5 12t50.5 6q66 7 166 14v23q0 55 -59 55q-36 0 -61 -3l-8 -44h-155v174q127 22 254 22h51
q85 0 135 -53t50 -142zM279 141h13q28 0 65 25v82q-45 -7 -75 -14q-42 -8 -42 -40v-20q0 -33 39 -33z" />
    <glyph glyph-name="b" unicode="b" horiz-adv-x="648" 
d="M288 700v-187q5 2 22 9t22.5 9t19.5 7.5t22 7t20.5 4t25.5 3.5t27 1h15q69 0 115 -44t46 -129v-181q0 -208 -189 -208h-11q-91 0 -343 13v538q-22 4 -53 12v145h261zM415 247v37q0 68 -8.5 88.5t-40.5 20.5h-13q-34 0 -65 -13v-220q39 -4 63 -4h13q34 0 42.5 16t8.5 75z
" />
    <glyph glyph-name="c" unicode="c" horiz-adv-x="556" 
d="M532 191v-142q-106 -63 -224 -63h-42q-241 0 -241 222v141q0 100 60.5 152.5t173.5 52.5h60q78 0 208 -24v-218h-155l-18 89q-20 2 -61 2q-60 0 -60 -62v-149q0 -58 55 -58h16q45 0 55 39l5 18h168z" />
    <glyph glyph-name="d" unicode="d" horiz-adv-x="638" 
d="M568 700v-542q17 -3 54 -12v-145h-262v69q-29 -23 -49.5 -37t-54 -27.5t-64.5 -13.5h-15q-69 0 -110.5 51t-41.5 157v170q0 85 46.5 133t114.5 48h15q48 0 78.5 -10t80.5 -36v54q-37 10 -55 13v128h263zM283 168h13q29 0 64 19v182q-30 12 -64 12h-13q-32 0 -41 -14
t-9 -49v-59q0 -60 8 -75.5t42 -15.5z" />
    <glyph glyph-name="e" unicode="e" horiz-adv-x="591" 
d="M286 554h34q126 0 185.5 -53t59.5 -166v-123h-334v-32q0 -55 57 -55h35q45 0 56 36l5 27h166v-139q-98 -63 -223 -63h-38q-146 0 -205 56.5t-59 195.5v87q0 117 64 173t197 56zM377 320v49q0 24 -16 37.5t-41 13.5h-28q-28 0 -44.5 -14.5t-16.5 -39.5v-46h146z" />
    <glyph glyph-name="f" unicode="f" horiz-adv-x="457" 
d="M289 390v-230q44 -5 82 -15v-145h-343v145q17 5 53 11v234h-62v133q17 4 62 11v44q0 63 41.5 108t111.5 57q68 12 170 19l18 -142q-4 -1 -42 -8t-61 -14q-30 -9 -30 -40v-17h148v-151h-148z" />
    <glyph glyph-name="g" unicode="g" horiz-adv-x="624" 
d="M615 541v-124q-33 -10 -46 -13q2 -10 2 -28v-25q0 -89 -52.5 -127.5t-171.5 -38.5h-78q-26 0 -58 6q-7 -5 -7 -11v-8q0 -14 43 -14h201q161 0 161 -139v-18q0 -202 -262 -202h-100q-136 0 -182 19t-46 73v20q0 45 12.5 71.5t55.5 51.5q-33 30 -33 74v18q0 58 56 98
q-58 38 -58 133v22q0 98 56.5 136.5t195.5 38.5h16q83 0 135 -13h160zM368 351v40q0 23 -11 31t-39 8h-9q-30 0 -42 -8t-12 -31v-40q0 -23 12 -30.5t42 -7.5h6q29 0 41 7.5t12 30.5zM403 1h-144q-38 0 -49 1q-20 -13 -20 -27v-9q0 -15 8 -20t26 -5h147q36 0 48.5 6.5
t12.5 23.5v11q0 12 -6 15.5t-23 3.5z" />
    <glyph glyph-name="h" unicode="h" horiz-adv-x="696" 
d="M624 157l55 -12v-145h-262v290q0 60 -7 74t-41 14h-12q-28 0 -68 -21v-201q36 -6 54 -11v-145h-315v145q16 5 53 11v387q-27 5 -52 12v145h260v-226q107 80 181 80h13q65 0 103 -40t38 -109v-248z" />
    <glyph glyph-name="i" unicode="i" horiz-adv-x="359" 
d="M185 576q-48 0 -81.5 29t-33.5 75t33.5 75t81.5 29t81 -29t33 -75t-33 -75t-81 -29zM289 541v-385q36 -6 54 -11v-145h-315v145q16 5 53 11v228q-27 5 -52 12v145h260z" />
    <glyph glyph-name="j" unicode="j" horiz-adv-x="329" 
d="M184 784q49 0 81.5 -29t32.5 -75t-32.5 -75t-81.5 -29q-48 0 -81.5 29t-33.5 75t33.5 75t81.5 29zM294 541v-430q0 -67 -22.5 -106.5t-90.5 -94.5q-43 -34 -110 -75l-82 85q39 49 49 63q29 39 38.5 64t9.5 66v270q-33 5 -58 13v145h266z" />
    <glyph glyph-name="k" unicode="k" horiz-adv-x="694" 
d="M289 700v-351h72l24 40l-34 7v145h314v-145q-33 -8 -58 -12l-72 -104l83 -123q24 -4 55 -12v-145h-272v144l-39 63h-73v-51q36 -6 54 -11v-145h-315v145q16 5 53 11v387q-27 5 -52 12v145h260z" />
    <glyph glyph-name="l" unicode="l" horiz-adv-x="361" 
d="M289 700v-544q36 -6 54 -11v-145h-315v145q16 5 53 11v387q-27 5 -52 12v145h260z" />
    <glyph glyph-name="m" unicode="m" horiz-adv-x="1002" 
d="M930 405v-248q50 -11 55 -12v-145h-262v290q0 60 -7 74t-41 14h-12q-24 0 -58 -18v-202q21 -4 55 -13v-145h-263v290q0 60 -7 74t-40 14h-12q-19 0 -49 -15v-207q36 -6 54 -11v-145h-315v145q16 5 53 11v228q-27 5 -52 12v145h260v-54q91 67 162 67h13q97 0 128 -83
q108 83 184 83h13q65 0 103 -40t38 -109z" />
    <glyph glyph-name="n" unicode="n" horiz-adv-x="696" 
d="M624 405v-247q21 -4 55 -13v-145h-262v290q0 60 -7 74t-41 14h-12q-28 0 -68 -21v-201q36 -6 54 -11v-145h-315v145q16 5 53 11v228q-27 5 -52 12v145h260v-67q107 80 181 80h13q65 0 103 -40t38 -109z" />
    <glyph glyph-name="o" unicode="o" horiz-adv-x="626" 
d="M335 -14h-33q-159 0 -217 57t-60 213v19q0 161 58 220t219 59h32q155 -1 211 -60t56 -219v-19q-2 -155 -58 -212.5t-208 -57.5zM295 133h34q35 0 49.5 13.5t14.5 47.5v146q0 38 -14 52.5t-50 14.5h-34q-35 0 -48.5 -15t-13.5 -52v-146q0 -34 14 -47.5t48 -13.5z" />
    <glyph glyph-name="p" unicode="p" horiz-adv-x="649" 
d="M458 554h15q69 0 110 -50.5t41 -156.5v-182q0 -85 -45.5 -129t-115.5 -44h-14q-20 0 -37 1.5t-34.5 6.5t-27 7.5t-31.5 11t-30 11.5v-69q54 -9 63 -11v-146h-324v146q36 8 53 11v423q-27 5 -52 12v145h260v-61q33 24 51 35.5t52.5 25t65.5 13.5zM417 253v34q0 60 -8 75.5
t-42 15.5h-12q-31 0 -66 -19v-193q31 -13 65 -13h13q34 0 42 17t8 83z" />
    <glyph glyph-name="q" unicode="q" horiz-adv-x="637" 
d="M567 541v-580q8 -1 54 -11v-146h-322v146q14 2 33.5 6t26.5 5v69q-9 -3 -30 -11t-31 -11t-27 -8t-33.5 -6.5t-36.5 -1.5h-15q-69 0 -115 44t-46 129v182q0 207 189 207h11q90 0 342 -13zM282 153h13q33 0 64 13v217q-39 4 -62 4h-13q-34 0 -42.5 -16t-8.5 -75v-34
q0 -68 8.5 -88.5t40.5 -20.5z" />
    <glyph glyph-name="r" unicode="r" horiz-adv-x="495" 
d="M289 541v-93q2 3 15.5 22t19 25.5t19 20.5t23.5 20t25 11.5t31 5.5h61v-194q-110 -7 -131 -9q-37 -2 -63 -19v-175q36 -6 57 -11v-145h-318v145q16 5 53 11v228q-27 5 -52 12v145h260z" />
    <glyph glyph-name="s" unicode="s" horiz-adv-x="552" 
d="M21 369v20q0 85 56 125t172 40h19q147 0 244 -32v-156h-170l-14 48q-25 4 -59 4q-52 0 -52 -26v-5q0 -14 19 -21t91 -20q32 -5 51 -9q82 -15 117.5 -47.5t35.5 -82.5v-36q0 -96 -55.5 -140.5t-171.5 -44.5h-39q-164 0 -244 52v155h167l5 -34q6 -17 25 -26.5t40 -9.5h27
q41 0 41 35v6q0 20 -22.5 28t-126.5 27q-90 16 -123 51.5t-33 98.5z" />
    <glyph glyph-name="t" unicode="t" horiz-adv-x="467" 
d="M332 162h10q64 0 97 3v-122q-31 -23 -93.5 -40t-115.5 -17h-13q-64 0 -101.5 40t-37.5 109v255h-61v138h23q31 0 54 29.5t23 73.5v38q77 17 169 18v-146h148v-151h-148v-144q0 -57 7 -70.5t39 -13.5z" />
    <glyph glyph-name="u" unicode="u" horiz-adv-x="688" 
d="M616 541v-383q24 -4 54 -12v-145h-262v76q-110 -77 -180 -77h-14q-76 0 -108 34t-32 115v235q-13 2 -55 12v145h262v-277q0 -60 7 -74t41 -14h12q29 0 67 21v187l-54 12v145h262z" />
    <glyph glyph-name="v" unicode="v" horiz-adv-x="656" 
d="M649 541v-145q-38 -11 -70 -15l-149 -381h-220l-143 383q-32 5 -60 13v145h307v-145q-8 -1 -21 -3.5t-17 -3.5l64 -219h1l83 215q-16 3 -48 11v145h273z" />
    <glyph glyph-name="w" unicode="w" horiz-adv-x="902" 
d="M891 541v-145q-13 -4 -49 -11l-96 -385h-246l-69 211l-58 -211h-217l-96 385q-34 7 -49 11v145h270v-145q-6 -2 -18 -4t-18 -4l38 -200h2l87 353h157l101 -353h1l39 197q-11 2 -49 11v145h270z" />
    <glyph glyph-name="x" unicode="x" horiz-adv-x="646" 
d="M481 265l86 -106q30 -4 68 -14v-145h-319v145q4 1 13 2.5t13 2.5l-46 62h-1l-43 -60q4 -1 16 -3.5t19 -3.5v-145h-276v145q27 7 51 12l107 111l-92 114q-44 8 -66 14v145h319v-145q-22 -4 -27 -5l45 -62h1l46 59q-15 3 -36 8v145h276v-145q-17 -4 -52 -11z" />
    <glyph glyph-name="y" unicode="y" horiz-adv-x="681" 
d="M675 541v-145q-23 -6 -68 -15l-191 -424q16 0 48 -4v-146h-351v146q17 2 84 7l24 48l-164 377q-20 4 -50 11v145h336v-145q-21 -6 -61 -11l69 -195h2l92 195q-8 2 -48 11v145h278z" />
    <glyph glyph-name="z" unicode="z" horiz-adv-x="570" 
d="M549 541v-145l-263 -250h125l23 62h115v-208h-530v106q0 61 49 98l234 192h-135l-11 -54h-117v199h510z" />
    <glyph glyph-name="braceleft" unicode="{" horiz-adv-x="396" 
d="M276 525v-473q0 -35 11 -58t25 -34.5t49 -32.5q8 -5 13 -8l-45 -91q-39 14 -53 19t-47 18.5t-46.5 23.5t-35.5 27.5t-31.5 35.5t-17 43t-7.5 55v151l-78 21v150l78 21v134q0 30 7.5 55t17.5 43.5t31 35.5t36 27.5t46 23.5t47.5 19t52.5 18l45 -91q-5 -3 -13 -8
q-35 -21 -49 -32.5t-25 -34.5t-11 -58z" />
    <glyph glyph-name="bar" unicode="|" horiz-adv-x="265" 
d="M174 782v-925h-83v925h83z" />
    <glyph glyph-name="braceright" unicode="}" horiz-adv-x="396" 
d="M120 52v473q0 35 -11 58t-25 34.5t-49 32.5q-2 2 -4 3t-4.5 2.5t-4.5 2.5l45 91q36 -12 52.5 -18t47.5 -19t46 -23.5t36 -27.5t31 -35.5t17.5 -43.5t7.5 -55v-134l78 -21v-150l-78 -21v-151q0 -30 -7.5 -55t-17 -43t-31.5 -35.5t-35.5 -27.5t-46.5 -23.5t-47 -18.5
t-53 -19l-45 91q5 3 13 8q35 21 49 32.5t25 34.5t11 58z" />
    <glyph glyph-name="exclamdown" unicode="&#xa1;" horiz-adv-x="268" 
d="M134 630q59 0 87 -25.5t28 -80.5q0 -107 -115 -107t-115 107q0 55 28 80.5t87 25.5zM19 -77v144l54 302h122l55 -302v-144h-231z" />
    <glyph glyph-name="cent" unicode="&#xa2;" horiz-adv-x="556" 
d="M532 191v-142q-74 -44 -158 -58v-55h-158v53q-191 21 -191 219v141q0 92 51.5 144t148.5 60v54h158v-55q41 -4 144 -22v-218h-155l-18 89q-24 2 -34 2v-268q30 6 39 38l5 18h168zM233 341v-149q0 -53 44 -57v267q-44 -8 -44 -61z" />
    <glyph glyph-name="sterling" unicode="&#xa3;" horiz-adv-x="625" 
d="M608 0h-585v154l16.5 16.5t18 19.5t14 19t12 25.5t2.5 28.5l-1 14h-72v117h74l-3 56q-1 48 2 81t16 70.5t38 60t71 37.5t112 15h17q104 0 272 -32l-27 -209h-163l-14 65q-23 4 -72 4q-27 0 -35.5 -17.5t-4.5 -57.5l7 -73h142l-18 -117h-116l2 -18q0 -10 -3 -19.5t-6 -16
t-12 -15t-13 -12t-16.5 -13t-15.5 -11.5h193l24 88h144v-260z" />
    <glyph glyph-name="yen" unicode="&#xa5;" horiz-adv-x="718" 
d="M706 700v-154q-38 -10 -69 -14l-80 -135h78v-73h-122l-22 -37h144v-73h-174v-47q38 -5 68 -13v-154h-348v154q24 6 64 13v47h-162v73h127l-21 37h-106v73h64l-79 137q-30 5 -56 12v154h321v-154q-6 -1 -17.5 -3.5t-17.5 -3.5l67 -139h2l77 137q-22 3 -44 9v154h306z" />
    <glyph glyph-name="section" unicode="&#xa7;" horiz-adv-x="652" 
d="M291 519l201 -34q83 -14 112 -37.5t29 -91.5v-39q0 -66 -69 -90q14 -25 14 -70v-11q0 -92 -46 -126t-171 -34h-31q-107 0 -230 33v149h151l8 -33q23 -10 63 -10h35q23 0 31.5 5.5t8.5 20.5v8q0 11 -4.5 15t-22.5 7l-204 34q-83 14 -112 37.5t-29 91.5v39q0 60 80 90
q-23 25 -23 70v11q0 92 45 126t170 34h29q106 0 231 -32v-149h-146l-7 31q-4 4 -34 7.5t-51 3.5h-19q-23 0 -30 -5.5t-7 -19.5v-9q0 -11 5 -14.5t23 -7.5zM182 383v-19q0 -14 4.5 -18t22.5 -7l213 -36q4 -1 20 -4t20 -3q14 6 14 22v18q0 14 -4.5 18t-22.5 7l-230 40l-21 3
q-14 -6 -16 -21z" />
    <glyph glyph-name="dieresis" unicode="&#xa8;" 
d="M140 597q-40 0 -67.5 23t-27.5 60t27.5 61t67.5 24q39 0 65.5 -23.5t26.5 -61.5q0 -37 -26.5 -60t-65.5 -23zM359 597q-39 0 -65 23t-26 60q0 38 26.5 61.5t64.5 23.5q40 0 67.5 -23.5t27.5 -61.5q0 -37 -27 -60t-68 -23z" />
    <glyph glyph-name="copyright" unicode="&#xa9;" horiz-adv-x="758" 
d="M379 -15q-172 0 -268.5 96.5t-96.5 268.5t96.5 268.5t268.5 96.5t268.5 -96.5t96.5 -268.5t-96.5 -268.5t-268.5 -96.5zM379 41q143 0 222.5 82t79.5 227t-79.5 227t-222.5 82t-222.5 -82t-79.5 -227t79.5 -227t222.5 -82zM553 279v-104q-82 -42 -161 -42h-44
q-79 0 -124 44.5t-47 125.5v86q0 81 45 125t127 44h37q56 0 166 -20v-142h-114l-14 51q-25 5 -61 5q-49 0 -49 -53v-105q0 -48 49 -48h22q38 0 55 33h113z" />
    <glyph glyph-name="ordfeminine" unicode="&#xaa;" horiz-adv-x="464" 
d="M258 299v47q-25 -19 -36 -26.5t-35.5 -17.5t-47.5 -10h-11q-30 0 -45.5 2.5t-33.5 12t-25.5 33t-7.5 62.5v24q0 25 6.5 43t16 28.5t26.5 17.5t32 9.5t38 4.5q83 8 123 8v20q0 41 -44 41q-36 0 -48 -2l-4 -35h-114v129q93 17 187 17h38q63 0 99.5 -39t36.5 -105v-150
q13 -2 41 -8v-106h-192zM199 401h9q24 0 50 14v67q-47 -6 -59 -9q-31 -6 -31 -32v-14q0 -15 7 -20.5t24 -5.5z" />
    <glyph glyph-name="guillemotleft" unicode="&#xab;" horiz-adv-x="585" 
d="M214 259l76 -142v-63h-127l-141 205v12l141 205h127v-65l-76 -140v-12zM451 259l76 -142v-63h-127l-141 205v12l141 205h127v-65l-76 -140v-12z" />
    <glyph glyph-name="registered" unicode="&#xae;" horiz-adv-x="425" 
d="M212 715q95 0 148 -52.5t53 -147.5t-53 -148t-148 -53t-147.5 53t-52.5 148t53 147.5t147 52.5zM212 676q-77 0 -117 -41t-40 -120t40 -120t117 -41t117.5 41t40.5 120t-40.5 120t-117.5 41zM117 618h119q71 0 71 -61v-14q0 -41 -27 -52l13 -21q6 -1 22 -5v-45h-80v15
q-5 19 -18 50h-18v-18l12 -2v-45h-93v45l18 4v100q-12 2 -19 4v45zM199 567v-37h25q17 0 17 12v12q0 13 -17 13h-25z" />
    <glyph glyph-name="macron" unicode="&#xaf;" 
d="M408 718v-114h-316v114h316z" />
    <glyph glyph-name="degree" unicode="&#xb0;" horiz-adv-x="455" 
d="M265 322h-72q-166 0 -168 165v58q0 169 168 169h72q165 -2 165 -169v-58q-5 -165 -165 -165zM208 431h38q52 0 56 53v64q0 62 -56 62h-38q-57 0 -57 -62v-64q0 -53 57 -53z" />
    <glyph glyph-name="twosuperior" unicode="&#xb2;" horiz-adv-x="407" 
d="M379 432v-145h-355v97q0 93 60 127q26 14 100 32q53 12 60 21q4 5 4 12v5q0 11 -4.5 14.5t-20.5 3.5q-46 0 -69 -2l-10 -33h-106v125q73 14 104 17.5t90 3.5q82 0 116 -26t34 -97v-29q0 -79 -87 -104q-44 -11 -47 -12q-12 -3 -31.5 -7.5t-27.5 -6.5t-18 -7t-13.5 -12
t-3.5 -17h120l11 40h94z" />
    <glyph glyph-name="threesuperior" unicode="&#xb3;" horiz-adv-x="398" 
d="M373 593v-15q0 -79 -63 -98q34 -4 48.5 -19.5t14.5 -52.5v-10q0 -64 -38.5 -90t-130.5 -26q-86 0 -183 17v125h99l10 -32q28 -2 77 -2q18 0 24 5.5t6 19.5v9q0 15 -10 20.5t-35 5.5h-78v90h79q24 0 34 5.5t10 19.5v11q0 14 -6.5 19.5t-23.5 5.5q-31 0 -81 -2l-10 -32h-94
v125q99 18 182 18q95 0 132 -25.5t37 -91.5z" />
    <glyph glyph-name="acute" unicode="&#xb4;" 
d="M409 712v-27l-182 -106l-85 53l117 154z" />
    <glyph glyph-name="paragraph" unicode="&#xb6;" horiz-adv-x="642" 
d="M629 700v-154q-32 -9 -66 -17v-619h-145v650h-45v-650h-145v334h-5q-103 0 -156 48t-54 156v39q0 113 52.5 163t157.5 50h406z" />
    <glyph glyph-name="periodcentered" unicode="&#xb7;" horiz-adv-x="260" 
d="M130 163q-59 0 -87 25.5t-28 80.5q0 107 115 107t115 -107q0 -55 -28 -80.5t-87 -25.5z" />
    <glyph glyph-name="cedilla" unicode="&#xb8;" 
d="M242 -32h40q42 0 62 -15.5t20 -51.5v-18q0 -50 -22 -66t-81 -17q-68 0 -124 18v57h117q16 0 16 14v3q0 13 -15 13h-93l11 95h69v-32z" />
    <glyph glyph-name="onesuperior" unicode="&#xb9;" horiz-adv-x="337" 
d="M257 710v-315q31 -3 59 -9v-99h-283v99q34 8 74 11v194l-83 -4v89l148 34h85z" />
    <glyph glyph-name="ordmasculine" unicode="&#xba;" horiz-adv-x="446" 
d="M239 289h-25q-117 0 -159 41.5t-44 155.5v20q0 118 42.5 160.5t160.5 42.5h24q114 0 155.5 -43t41.5 -160v-20q-2 -114 -43 -155.5t-153 -41.5zM210 397h25q26 0 36.5 10t11.5 37v107q0 29 -10 40t-38 11h-25q-28 0 -38 -11t-10 -40v-107q0 -27 10 -37t38 -10z" />
    <glyph glyph-name="guillemotright" unicode="&#xbb;" horiz-adv-x="585" 
d="M62 411v65h127l141 -205v-12l-141 -205h-127v63l76 142v12zM299 411v65h127l141 -205v-12l-141 -205h-127v63l76 142v12z" />
    <glyph glyph-name="onequarter" unicode="&#xbc;" horiz-adv-x="844" 
d="M691 726l-249 -379l-223 -366h-76l241 366l231 379h76zM257 710v-315q33 -3 60 -9v-99h-285v99q34 8 75 11v194l-83 -4v89l148 34h85zM761 125v-22q31 -3 58 -9v-94h-270v94q21 4 62 10v21h-198v101l198 188h150v-188h58v-90zM611 318l-79 -92h79v92z" />
    <glyph glyph-name="onehalf" unicode="&#xbd;" horiz-adv-x="882" 
d="M447 347l-223 -366h-76l241 366l231 379h76zM257 710v-315q33 -3 60 -9v-99h-285v99q34 8 75 11v194l-83 -4v89l148 34h85zM854 0h-355v97q0 51 13 80.5t43 46.5q31 16 104 32q39 8 51.5 14t12.5 19v5q0 11 -4.5 14.5t-20.5 3.5q-46 0 -69 -2l-10 -33h-106v125
q73 14 104 17.5t90 3.5q82 0 116 -26t34 -97v-36q0 -72 -87 -97l-47 -12q-9 -2 -23 -5.5t-21 -5t-16.5 -4.5t-14 -6t-9 -7.5t-6.5 -10t-2 -13.5h118l11 42h94v-145z" />
    <glyph glyph-name="threequarters" unicode="&#xbe;" horiz-adv-x="873" 
d="M715 726l-249 -379l-223 -366h-76l241 366l231 379h76zM373 593v-15q0 -79 -63 -98q34 -4 48.5 -19.5t14.5 -52.5v-10q0 -64 -38.5 -90t-130.5 -26q-86 0 -183 17v125h99l10 -32q28 -2 77 -2q18 0 24 5.5t6 19.5v9q0 16 -10 21.5t-35 5.5h-78v89h79q24 0 34 5.5t10 19.5
v11q0 14 -6.5 19.5t-23.5 5.5q-31 0 -81 -2l-10 -32h-94v125q99 18 182 18q95 0 132 -25.5t37 -91.5zM790 125v-22q31 -3 58 -9v-94h-270v94q21 4 62 10v21h-198v101l198 188h150v-188h58v-90zM640 318l-79 -92h79v92z" />
    <glyph glyph-name="questiondown" unicode="&#xbf;" horiz-adv-x="543" 
d="M328 630q59 0 87 -25.5t28 -80.5q0 -107 -115 -107t-115 107q0 55 28 80.5t87 25.5zM531 126v-183q-112 -22 -159 -28t-126 -6q-232 0 -232 195v17q0 79 23.5 113t73.5 50q27 8 76 20.5t56 14.5v66h174l19 -173q-122 -30 -161 -42q-53 -17 -53 -40v-17q0 -24 9.5 -32.5
t36.5 -8.5q54 0 86 5l14 49h163z" />
    <glyph glyph-name="Agrave" unicode="&#xc0;" horiz-adv-x="807" 
d="M486 788l-85 -53l-182 106v27l150 74zM544 700l170 -532q43 -4 81 -14v-154h-383v154q29 8 61 12l-12 42h-166l-8 -41q13 -2 55 -13v-154h-330v154q26 7 76 15l110 365q-20 3 -58 12v154h404zM377 520l-47 -152h96l-47 152h-2z" />
    <glyph glyph-name="Aacute" unicode="&#xc1;" horiz-adv-x="807" 
d="M538 869v-28l-190 -111l-89 55l122 161zM544 700l170 -532q43 -4 81 -14v-154h-383v154q29 8 61 12l-12 42h-166l-8 -41q13 -2 55 -13v-154h-330v154q26 7 76 15l110 365q-20 3 -58 12v154h404zM377 520l-47 -152h96l-47 152h-2z" />
    <glyph glyph-name="Acircumflex" unicode="&#xc2;" horiz-adv-x="807" 
d="M507 734l-128 82l-128 -82l-63 55l124 139h134l124 -139zM544 700l170 -532q43 -4 81 -14v-154h-383v154q29 8 61 12l-12 42h-166l-8 -41q13 -2 55 -13v-154h-330v154q26 7 76 15l110 365q-20 3 -58 12v154h404zM377 520l-47 -152h96l-47 152h-2z" />
    <glyph glyph-name="Atilde" unicode="&#xc3;" horiz-adv-x="807" 
d="M589 854l-79 -88q-23 -26 -68 -26h-14t-12 2.5t-10.5 4t-13 7.5t-16 10.5t-23 16.5t-29.5 21l-92 -55l-62 55l66 76q37 41 80 41q12 0 20.5 -1.5t14.5 -2.5t16.5 -8t16 -10.5t23 -17t29.5 -22.5l91 52zM544 700l170 -532q43 -4 81 -14v-154h-383v154q29 8 61 12l-12 42
h-166l-8 -41q13 -2 55 -13v-154h-330v154q26 7 76 15l110 365q-20 3 -58 12v154h404zM377 520l-47 -152h96l-47 152h-2z" />
    <glyph glyph-name="Adieresis" unicode="&#xc4;" horiz-adv-x="807" 
d="M259 743q-44 0 -73.5 25.5t-29.5 66.5q0 42 29.5 68t73.5 26q43 0 72 -26t29 -68q0 -41 -29 -66.5t-72 -25.5zM500 743q-42 0 -71 26t-29 66q0 42 29 68t71 26q44 0 73.5 -26t29.5 -68q0 -41 -29.5 -66.5t-73.5 -25.5zM544 700l170 -532q43 -4 81 -14v-154h-383v154
q29 8 61 12l-12 42h-166l-8 -41q13 -2 55 -13v-154h-330v154q26 7 76 15l110 365q-20 3 -58 12v154h404zM377 520l-47 -152h96l-47 152h-2z" />
    <glyph glyph-name="Aring" unicode="&#xc5;" horiz-adv-x="807" 
d="M404 719h-49q-46 0 -71.5 24.5t-25.5 71.5v33q0 97 97 97h49q97 0 97 -97v-33q-1 -96 -97 -96zM363 792h32q23 0 27 26v28q0 29 -27 29h-32q-27 0 -27 -29v-28q0 -26 27 -26zM544 700l170 -532q43 -4 81 -14v-154h-383v154q29 8 61 12l-12 42h-166l-8 -41q13 -2 55 -13
v-154h-330v154q26 7 76 15l110 365q-20 3 -58 12v154h404zM377 520l-47 -152h96l-47 152h-2z" />
    <glyph glyph-name="AE" unicode="&#xc6;" horiz-adv-x="1041" 
d="M705 434h138v-172h-138v-90h154l25 69h135v-241h-594v154q15 3 63 13v62h-151l-33 -65q32 -6 47 -10v-154h-339v154q39 11 79 15l190 361q-27 3 -80 16v154h816v-241h-135l-24 69h-153v-94zM488 528h-9l-92 -191h101v191z" />
    <glyph glyph-name="Ccedilla" unicode="&#xc7;" horiz-adv-x="639" 
d="M320 -14l-1 -18h40q42 0 62 -15.5t20 -51.5v-18q0 -50 -22 -66t-81 -17q-68 0 -124 18v57h117q16 0 16 14v3q0 13 -15 13h-93l10 83q-116 10 -169.5 79t-56.5 203v162q0 139 69 210.5t204 71.5h57q99 0 267 -32v-236h-181l-23 90q-48 5 -99 5q-77 0 -77 -86v-209
q0 -37 21 -60.5t56 -22.5h38q58 0 86 62h180v-168q-136 -71 -255 -71h-46z" />
    <glyph glyph-name="Egrave" unicode="&#xc8;" horiz-adv-x="640" 
d="M427 788l-85 -53l-182 106v27l150 74zM616 459h-135l-25 69h-153v-92h138v-176h-138v-88h155l25 69h134v-241h-594v154q11 2 64 13v366q-33 4 -68 13v154h597v-241z" />
    <glyph glyph-name="Eacute" unicode="&#xc9;" horiz-adv-x="640" 
d="M479 869v-28l-190 -111l-89 55l122 161zM616 459h-135l-25 69h-153v-92h138v-176h-138v-88h155l25 69h134v-241h-594v154q11 2 64 13v366q-33 4 -68 13v154h597v-241z" />
    <glyph glyph-name="Ecircumflex" unicode="&#xca;" horiz-adv-x="640" 
d="M447 734l-128 82l-128 -82l-63 55l124 139h134l124 -139zM616 459h-135l-25 69h-153v-92h138v-176h-138v-88h155l25 69h134v-241h-594v154q11 2 64 13v366q-33 4 -68 13v154h597v-241z" />
    <glyph glyph-name="Edieresis" unicode="&#xcb;" horiz-adv-x="640" 
d="M199 743q-44 0 -73.5 25.5t-29.5 66.5q0 42 29.5 68t73.5 26q43 0 72 -26t29 -68q0 -41 -29 -66.5t-72 -25.5zM440 743q-42 0 -71 26t-29 66q0 42 29 68t71 26q44 0 73.5 -26t29.5 -68q0 -41 -29.5 -66.5t-73.5 -25.5zM616 459h-135l-25 69h-153v-92h138v-176h-138v-88
h155l25 69h134v-241h-594v154q11 2 64 13v366q-33 4 -68 13v154h597v-241z" />
    <glyph glyph-name="Igrave" unicode="&#xcc;" horiz-adv-x="390" 
d="M302 788l-85 -53l-182 106v27l150 74zM371 700v-154q-30 -8 -68 -13v-366q38 -5 68 -13v-154h-348v154q24 6 64 13v366q-40 5 -68 13v154h352z" />
    <glyph glyph-name="Iacute" unicode="&#xcd;" horiz-adv-x="390" 
d="M354 869v-28l-190 -111l-89 55l122 161zM371 700v-154q-30 -8 -68 -13v-366q38 -5 68 -13v-154h-348v154q24 6 64 13v366q-40 5 -68 13v154h352z" />
    <glyph glyph-name="Icircumflex" unicode="&#xce;" horiz-adv-x="390" 
d="M322 734l-128 82l-128 -82l-63 55l124 139h134l124 -139zM371 700v-154q-30 -8 -68 -13v-366q38 -5 68 -13v-154h-348v154q24 6 64 13v366q-40 5 -68 13v154h352z" />
    <glyph glyph-name="Idieresis" unicode="&#xcf;" horiz-adv-x="390" 
d="M74 743q-44 0 -73.5 25.5t-29.5 66.5q0 42 29.5 68t73.5 26q43 0 72 -26t29 -68q0 -41 -29 -66.5t-72 -25.5zM315 743q-42 0 -71 26t-29 66q0 42 29 68t71 26q44 0 73.5 -26t29.5 -68q0 -41 -29.5 -66.5t-73.5 -25.5zM371 700v-154q-30 -8 -68 -13v-366q38 -5 68 -13
v-154h-348v154q24 6 64 13v366q-40 5 -68 13v154h352z" />
    <glyph glyph-name="Eth" unicode="&#xd0;" horiz-adv-x="702" 
d="M19 700h395q143 -1 206.5 -66t63.5 -213v-150q-3 -144 -66 -207.5t-203 -63.5h-392v154q13 3 64 14v119h-66v120h66v125q-24 3 -68 14v154zM468 252v193q0 38 -20.5 58.5t-57.5 20.5h-86v-117h53v-120h-53v-111h86q36 0 56.5 20t21.5 56z" />
    <glyph glyph-name="Ntilde" unicode="&#xd1;" horiz-adv-x="800" 
d="M605 854l-79 -88q-23 -26 -68 -26h-14t-12 2.5t-10.5 4t-13 7.5t-16 10.5t-23 16.5t-29.5 21l-92 -55l-62 55l66 76q37 41 80 41q12 0 20.5 -1.5t14.5 -2.5t16.5 -8t16 -10.5t23 -17t29.5 -22.5l91 52zM781 700v-154q-38 -10 -68 -14v-532h-221l-215 339v-175
q18 -2 49 -10v-154h-303v154q30 8 64 13v364q-30 5 -68 15v154h267l237 -362v197q-16 3 -50 11v154h308z" />
    <glyph glyph-name="Ograve" unicode="&#xd2;" horiz-adv-x="696" 
d="M455 788l-85 -53l-182 106v27l150 74zM406 -14h-106q-146 0 -212.5 66.5t-68.5 211.5v163q0 149 66.5 218t214.5 69h105q143 -1 208 -70t65 -217v-162q-2 -145 -67 -212t-205 -67zM313 166h69q78 0 79 80v204q0 84 -79 84h-69q-78 0 -78 -84v-204q0 -80 78 -80z" />
    <glyph glyph-name="Oacute" unicode="&#xd3;" horiz-adv-x="696" 
d="M507 869v-28l-190 -111l-89 55l122 161zM406 -14h-106q-146 0 -212.5 66.5t-68.5 211.5v163q0 149 66.5 218t214.5 69h105q143 -1 208 -70t65 -217v-162q-2 -145 -67 -212t-205 -67zM313 166h69q78 0 79 80v204q0 84 -79 84h-69q-78 0 -78 -84v-204q0 -80 78 -80z" />
    <glyph glyph-name="Ocircumflex" unicode="&#xd4;" horiz-adv-x="696" 
d="M476 734l-128 82l-128 -82l-63 55l124 139h134l124 -139zM406 -14h-106q-146 0 -212.5 66.5t-68.5 211.5v163q0 149 66.5 218t214.5 69h105q143 -1 208 -70t65 -217v-162q-2 -145 -67 -212t-205 -67zM313 166h69q78 0 79 80v204q0 84 -79 84h-69q-78 0 -78 -84v-204
q0 -80 78 -80z" />
    <glyph glyph-name="Otilde" unicode="&#xd5;" horiz-adv-x="696" 
d="M558 854l-79 -88q-23 -26 -68 -26h-14t-12 2.5t-10.5 4t-13 7.5t-16 10.5t-23 16.5t-29.5 21l-92 -55l-62 55l66 76q37 41 80 41q12 0 20.5 -1.5t14.5 -2.5t16.5 -8t16 -10.5t23 -17t29.5 -22.5l91 52zM406 -14h-106q-146 0 -212.5 66.5t-68.5 211.5v163q0 149 66.5 218
t214.5 69h105q143 -1 208 -70t65 -217v-162q-2 -145 -67 -212t-205 -67zM313 166h69q78 0 79 80v204q0 84 -79 84h-69q-78 0 -78 -84v-204q0 -80 78 -80z" />
    <glyph glyph-name="Odieresis" unicode="&#xd6;" horiz-adv-x="696" 
d="M228 743q-44 0 -73.5 25.5t-29.5 66.5q0 42 29.5 68t73.5 26q43 0 72 -26t29 -68q0 -41 -29 -66.5t-72 -25.5zM469 743q-42 0 -71 26t-29 66q0 42 29 68t71 26q44 0 73.5 -26t29.5 -68q0 -41 -29.5 -66.5t-73.5 -25.5zM406 -14h-106q-146 0 -212.5 66.5t-68.5 211.5v163
q0 149 66.5 218t214.5 69h105q143 -1 208 -70t65 -217v-162q-2 -145 -67 -212t-205 -67zM313 166h69q78 0 79 80v204q0 84 -79 84h-69q-78 0 -78 -84v-204q0 -80 78 -80z" />
    <glyph glyph-name="multiply" unicode="&#xd7;" horiz-adv-x="570" 
d="M147 95l-110 110l140 136l-141 137l114 113l137 -140l137 140l109 -109l-140 -137l140 -137l-113 -113l-137 140z" />
    <glyph glyph-name="Oslash" unicode="&#xd8;" horiz-adv-x="696" 
d="M678 726l-64 -83q64 -68 64 -216v-162q-2 -145 -67 -212t-205 -67h-106q-101 0 -165 32l-34 -44h-72l60 78q-67 64 -70 212v163q0 149 66.5 218t214.5 69h105q100 0 164 -35l36 47h73zM235 246v-3l207 270q-20 21 -60 21h-69q-78 0 -78 -84v-204zM461 443l-201 -262
q18 -15 53 -15h69q78 0 79 80v197z" />
    <glyph glyph-name="Ugrave" unicode="&#xd9;" horiz-adv-x="741" 
d="M490 788l-85 -53l-182 106v27l150 74zM727 700v-154q-18 -5 -54 -11v-272q-1 -159 -59 -218t-210 -59h-44q-158 0 -217.5 59t-61.5 217v271q-46 8 -67 13v154h357v-154q-31 -8 -73 -13v-293q0 -36 20 -57t56 -21h24q35 0 55.5 21t21.5 57v296q-17 2 -51 10v154h303z" />
    <glyph glyph-name="Uacute" unicode="&#xda;" horiz-adv-x="741" 
d="M541 869v-28l-190 -111l-89 55l122 161zM727 700v-154q-18 -5 -54 -11v-272q-1 -159 -59 -218t-210 -59h-44q-158 0 -217.5 59t-61.5 217v271q-46 8 -67 13v154h357v-154q-31 -8 -73 -13v-293q0 -36 20 -57t56 -21h24q35 0 55.5 21t21.5 57v296q-17 2 -51 10v154h303z
" />
    <glyph glyph-name="Ucircumflex" unicode="&#xdb;" horiz-adv-x="741" 
d="M510 734l-128 82l-128 -82l-63 55l124 139h134l124 -139zM727 700v-154q-18 -5 -54 -11v-272q-1 -159 -59 -218t-210 -59h-44q-158 0 -217.5 59t-61.5 217v271q-46 8 -67 13v154h357v-154q-31 -8 -73 -13v-293q0 -36 20 -57t56 -21h24q35 0 55.5 21t21.5 57v296
q-17 2 -51 10v154h303z" />
    <glyph glyph-name="Udieresis" unicode="&#xdc;" horiz-adv-x="741" 
d="M262 743q-44 0 -73.5 25.5t-29.5 66.5q0 42 29.5 68t73.5 26q43 0 72 -26t29 -68q0 -41 -29 -66.5t-72 -25.5zM503 743q-42 0 -71 26t-29 66q0 42 29 68t71 26q44 0 73.5 -26t29.5 -68q0 -41 -29.5 -66.5t-73.5 -25.5zM727 700v-154q-18 -5 -54 -11v-272
q-1 -159 -59 -218t-210 -59h-44q-158 0 -217.5 59t-61.5 217v271q-46 8 -67 13v154h357v-154q-31 -8 -73 -13v-293q0 -36 20 -57t56 -21h24q35 0 55.5 21t21.5 57v296q-17 2 -51 10v154h303z" />
    <glyph glyph-name="Yacute" unicode="&#xdd;" horiz-adv-x="718" 
d="M523 869v-28l-190 -111l-89 55l122 161zM333 700v-154q-6 -1 -17.5 -3.5t-17.5 -3.5l67 -139h2l77 137q-22 3 -44 9v154h306v-154q-38 -10 -69 -14l-176 -296v-69q38 -5 68 -13v-154h-348v154q24 6 64 13v60l-177 307q-30 5 -56 12v154h321z" />
    <glyph glyph-name="Thorn" unicode="&#xde;" horiz-adv-x="666" 
d="M303 585h99q142 0 195 -39t53 -157v-100q-1 -109 -54 -144t-193 -35h-100v-110h-280v154q20 5 64 14v364q-30 4 -68 14v154h284v-115zM447 301v76q0 28 -9 37.5t-41 9.5h-94v-166h94q31 0 40 9t10 34z" />
    <glyph glyph-name="germandbls" unicode="&#xdf;" horiz-adv-x="701" 
d="M645 562v-31q0 -124 -94 -150q65 -5 98 -34t33 -101v-46q0 -116 -38.5 -162t-138.5 -46q-78 0 -188 41v135h124q19 0 26 8t7 28v65q0 43 -44 43h-59q-45 0 -45 37v90l82 18q45 9 45 52v21q0 27 -14.5 37.5t-51.5 10.5h-29q-38 0 -53.5 -17t-15.5 -57v-504h-261v145
q16 5 53 11v227l-52 13v145h52v18q0 95 69.5 135t238.5 40h56q107 0 153.5 -43.5t46.5 -128.5z" />
    <glyph glyph-name="agrave" unicode="&#xe0;" horiz-adv-x="634" 
d="M427 632l-85 -53l-182 106v27l150 74zM564 359v-201q24 -4 54 -12v-145h-261v65q-28 -23 -47 -36t-50.5 -25.5t-62.5 -12.5h-15q-32 0 -50.5 1.5t-40.5 10t-33.5 24t-19.5 45t-8 72.5v30q0 35 9 59.5t22 38t37 22.5t42.5 12t50.5 6q66 7 166 14v23q0 55 -59 55
q-36 0 -61 -3l-8 -44h-155v174q127 22 254 22h51q85 0 135 -53t50 -142zM279 141h13q28 0 65 25v82q-45 -7 -75 -14q-42 -8 -42 -40v-20q0 -33 39 -33z" />
    <glyph glyph-name="aacute" unicode="&#xe1;" horiz-adv-x="634" 
d="M468 712v-27l-182 -106l-85 53l117 154zM564 359v-201q24 -4 54 -12v-145h-261v65q-28 -23 -47 -36t-50.5 -25.5t-62.5 -12.5h-15q-32 0 -50.5 1.5t-40.5 10t-33.5 24t-19.5 45t-8 72.5v30q0 35 9 59.5t22 38t37 22.5t42.5 12t50.5 6q66 7 166 14v23q0 55 -59 55
q-36 0 -61 -3l-8 -44h-155v174q127 22 254 22h51q85 0 135 -53t50 -142zM279 141h13q28 0 65 25v82q-45 -7 -75 -14q-42 -8 -42 -40v-20q0 -33 39 -33z" />
    <glyph glyph-name="acircumflex" unicode="&#xe2;" horiz-adv-x="634" 
d="M439 583l-123 79l-123 -79l-59 53l119 131h126l119 -131zM564 359v-201q24 -4 54 -12v-145h-261v65q-28 -23 -47 -36t-50.5 -25.5t-62.5 -12.5h-15q-32 0 -50.5 1.5t-40.5 10t-33.5 24t-19.5 45t-8 72.5v30q0 35 9 59.5t22 38t37 22.5t42.5 12t50.5 6q66 7 166 14v23
q0 55 -59 55q-36 0 -61 -3l-8 -44h-155v174q127 22 254 22h51q85 0 135 -53t50 -142zM279 141h13q28 0 65 25v82q-45 -7 -75 -14q-42 -8 -42 -40v-20q0 -33 39 -33z" />
    <glyph glyph-name="atilde" unicode="&#xe3;" horiz-adv-x="634" 
d="M518 700l-75 -85q-25 -25 -66 -25q-17 0 -37 10t-31.5 18t-43.5 33l-89 -54l-59 52l73 84q25 28 67 28q11 0 22 -3t19 -6t20.5 -11t17 -11.5t19 -14.5t16.5 -13l88 50zM564 359v-201q24 -4 54 -12v-145h-261v65q-28 -23 -47 -36t-50.5 -25.5t-62.5 -12.5h-15
q-32 0 -50.5 1.5t-40.5 10t-33.5 24t-19.5 45t-8 72.5v30q0 35 9 59.5t22 38t37 22.5t42.5 12t50.5 6q66 7 166 14v23q0 55 -59 55q-36 0 -61 -3l-8 -44h-155v174q127 22 254 22h51q85 0 135 -53t50 -142zM279 141h13q28 0 65 25v82q-45 -7 -75 -14q-42 -8 -42 -40v-20
q0 -33 39 -33z" />
    <glyph glyph-name="adieresis" unicode="&#xe4;" horiz-adv-x="634" 
d="M208 597q-40 0 -67.5 23t-27.5 60t27.5 61t67.5 24q39 0 65.5 -23.5t26.5 -61.5q0 -37 -26.5 -60t-65.5 -23zM427 597q-39 0 -65 23t-26 60q0 38 26.5 61.5t64.5 23.5q40 0 67.5 -23.5t27.5 -61.5q0 -37 -27 -60t-68 -23zM564 359v-201q24 -4 54 -12v-145h-261v65
q-28 -23 -47 -36t-50.5 -25.5t-62.5 -12.5h-15q-32 0 -50.5 1.5t-40.5 10t-33.5 24t-19.5 45t-8 72.5v30q0 35 9 59.5t22 38t37 22.5t42.5 12t50.5 6q66 7 166 14v23q0 55 -59 55q-36 0 -61 -3l-8 -44h-155v174q127 22 254 22h51q85 0 135 -53t50 -142zM279 141h13
q28 0 65 25v82q-45 -7 -75 -14q-42 -8 -42 -40v-20q0 -33 39 -33z" />
    <glyph glyph-name="aring" unicode="&#xe5;" horiz-adv-x="634" 
d="M340 583h-47q-87 0 -87 87v30q0 88 87 88h47q87 0 87 -88v-30q0 -87 -87 -87zM301 649h29q22 0 25 24v25q0 27 -25 27h-29q-24 0 -24 -27v-25q0 -24 24 -24zM564 359v-201q24 -4 54 -12v-145h-261v65q-28 -23 -47 -36t-50.5 -25.5t-62.5 -12.5h-15q-32 0 -50.5 1.5
t-40.5 10t-33.5 24t-19.5 45t-8 72.5v30q0 35 9 59.5t22 38t37 22.5t42.5 12t50.5 6q66 7 166 14v23q0 55 -59 55q-36 0 -61 -3l-8 -44h-155v174q127 22 254 22h51q85 0 135 -53t50 -142zM279 141h13q28 0 65 25v82q-45 -7 -75 -14q-42 -8 -42 -40v-20q0 -33 39 -33z" />
    <glyph glyph-name="ae" unicode="&#xe6;" horiz-adv-x="922" 
d="M74 358v174q127 22 254 22h50q56 0 91 -26q57 26 149 26h33q135 0 190 -47.5t55 -165.5v-128h-340v-35q0 -55 56 -55h43q43 0 55 38l5 27h166v-139q-98 -63 -220 -63h-63q-90 0 -142.5 21.5t-76.5 71.5q-110 -87 -182 -87h-15q-27 0 -42 1t-36 5t-31.5 13.5t-22 25.5
t-16 42t-4.5 62v34q0 43 12 70.5t37.5 41t49 18.5t62.5 8q76 6 166 11v26q0 55 -59 55q-36 0 -61 -3l-8 -44h-155zM706 319v51q0 24 -14 38.5t-39 14.5h-36q-27 0 -44 -15.5t-17 -40.5v-48h150zM279 141h13q32 0 67 20q-2 15 -2 49v33q-66 -10 -82 -14q-21 -5 -29 -12
t-8 -24v-19q0 -18 9 -25.5t32 -7.5z" />
    <glyph glyph-name="ccedilla" unicode="&#xe7;" horiz-adv-x="556" 
d="M276 -14l-1 -18h40q42 0 62 -15.5t20 -51.5v-18q0 -50 -22 -66t-81 -17q-68 0 -124 18v57h117q16 0 16 14v3q0 13 -15 13h-93l10 85q-180 25 -180 218v141q0 100 60.5 152.5t173.5 52.5h60q78 0 208 -24v-218h-155l-18 89q-20 2 -61 2q-60 0 -60 -62v-149q0 -58 55 -58
h16q45 0 55 39l5 18h168v-142q-106 -63 -224 -63h-32z" />
    <glyph glyph-name="egrave" unicode="&#xe8;" horiz-adv-x="591" 
d="M408 632l-85 -53l-182 106v27l150 74zM286 554h34q126 0 185.5 -53t59.5 -166v-123h-334v-32q0 -55 57 -55h35q45 0 56 36l5 27h166v-139q-98 -63 -223 -63h-38q-146 0 -205 56.5t-59 195.5v87q0 117 64 173t197 56zM377 320v49q0 24 -16 37.5t-41 13.5h-28
q-28 0 -44.5 -14.5t-16.5 -39.5v-46h146z" />
    <glyph glyph-name="eacute" unicode="&#xe9;" horiz-adv-x="591" 
d="M454 712v-27l-182 -106l-85 53l117 154zM286 554h34q126 0 185.5 -53t59.5 -166v-123h-334v-32q0 -55 57 -55h35q45 0 56 36l5 27h166v-139q-98 -63 -223 -63h-38q-146 0 -205 56.5t-59 195.5v87q0 117 64 173t197 56zM377 320v49q0 24 -16 37.5t-41 13.5h-28
q-28 0 -44.5 -14.5t-16.5 -39.5v-46h146z" />
    <glyph glyph-name="ecircumflex" unicode="&#xea;" horiz-adv-x="591" 
d="M425 583l-123 79l-123 -79l-59 53l119 131h126l119 -131zM286 554h34q126 0 185.5 -53t59.5 -166v-123h-334v-32q0 -55 57 -55h35q45 0 56 36l5 27h166v-139q-98 -63 -223 -63h-38q-146 0 -205 56.5t-59 195.5v87q0 117 64 173t197 56zM377 320v49q0 24 -16 37.5
t-41 13.5h-28q-28 0 -44.5 -14.5t-16.5 -39.5v-46h146z" />
    <glyph glyph-name="edieresis" unicode="&#xeb;" horiz-adv-x="591" 
d="M194 597q-40 0 -67.5 23t-27.5 60t27.5 61t67.5 24q39 0 65.5 -23.5t26.5 -61.5q0 -37 -26.5 -60t-65.5 -23zM413 597q-39 0 -65 23t-26 60q0 38 26.5 61.5t64.5 23.5q40 0 67.5 -23.5t27.5 -61.5q0 -37 -27 -60t-68 -23zM286 554h34q126 0 185.5 -53t59.5 -166v-123
h-334v-32q0 -55 57 -55h35q45 0 56 36l5 27h166v-139q-98 -63 -223 -63h-38q-146 0 -205 56.5t-59 195.5v87q0 117 64 173t197 56zM377 320v49q0 24 -16 37.5t-41 13.5h-28q-28 0 -44.5 -14.5t-16.5 -39.5v-46h146z" />
    <glyph glyph-name="igrave" unicode="&#xec;" horiz-adv-x="359" 
d="M286 632l-85 -53l-182 106v27l150 74zM289 541v-385q36 -6 54 -11v-145h-315v145q16 5 53 11v228q-27 5 -52 12v145h260z" />
    <glyph glyph-name="iacute" unicode="&#xed;" horiz-adv-x="359" 
d="M331 712v-27l-182 -106l-85 53l117 154zM289 541v-385q36 -6 54 -11v-145h-315v145q16 5 53 11v228q-27 5 -52 12v145h260z" />
    <glyph glyph-name="icircumflex" unicode="&#xee;" horiz-adv-x="359" 
d="M303 583l-123 79l-123 -79l-59 53l119 131h126l119 -131zM289 541v-385q36 -6 54 -11v-145h-315v145q16 5 53 11v228q-27 5 -52 12v145h260z" />
    <glyph glyph-name="idieresis" unicode="&#xef;" horiz-adv-x="359" 
d="M71 597q-40 0 -67.5 23t-27.5 60t27.5 61t67.5 24q39 0 65.5 -23.5t26.5 -61.5q0 -37 -26.5 -60t-65.5 -23zM290 597q-39 0 -65 23t-26 60q0 38 26.5 61.5t64.5 23.5q40 0 67.5 -23.5t27.5 -61.5q0 -37 -27 -60t-68 -23zM289 541v-385q36 -6 54 -11v-145h-315v145
q16 5 53 11v228q-27 5 -52 12v145h260z" />
    <glyph glyph-name="eth" unicode="&#xf0;" horiz-adv-x="634" 
d="M576 708l33 -108q-11 -5 -61 -24q53 -92 53 -200v-119q-2 -161 -56 -216t-211 -55h-30q-158 0 -218.5 54.5t-60.5 175.5v101q0 87 46.5 131t119.5 44h15q84 0 187 -44v8q-2 47 -16 79q-21 -4 -75.5 -14t-85.5 -16l-33 109l139 30q-23 18 -62 32l42 65q107 -7 166 -59z
M393 197v119q-47 15 -92 15h-13q-30 0 -42.5 -15t-12.5 -51v-69q0 -36 13.5 -48.5t50.5 -12.5h32q36 0 49.5 12.5t14.5 49.5z" />
    <glyph glyph-name="ntilde" unicode="&#xf1;" horiz-adv-x="696" 
d="M549 700l-75 -85q-25 -25 -66 -25q-17 0 -37 10t-31.5 18t-43.5 33l-89 -54l-59 52l73 84q25 28 67 28q11 0 22 -3t19 -6t20.5 -11t17 -11.5t19 -14.5t16.5 -13l88 50zM624 405v-247q21 -4 55 -13v-145h-262v290q0 60 -7 74t-41 14h-12q-28 0 -68 -21v-201q36 -6 54 -11
v-145h-315v145q16 5 53 11v228q-27 5 -52 12v145h260v-67q107 80 181 80h13q65 0 103 -40t38 -109z" />
    <glyph glyph-name="ograve" unicode="&#xf2;" horiz-adv-x="626" 
d="M418 632l-85 -53l-182 106v27l150 74zM335 -14h-33q-159 0 -217 57t-60 213v19q0 161 58 220t219 59h32q155 -1 211 -60t56 -219v-19q-2 -155 -58 -212.5t-208 -57.5zM295 133h34q35 0 49.5 13.5t14.5 47.5v146q0 38 -14 52.5t-50 14.5h-34q-35 0 -48.5 -15t-13.5 -52
v-146q0 -34 14 -47.5t48 -13.5z" />
    <glyph glyph-name="oacute" unicode="&#xf3;" horiz-adv-x="626" 
d="M465 712v-27l-182 -106l-85 53l117 154zM335 -14h-33q-159 0 -217 57t-60 213v19q0 161 58 220t219 59h32q155 -1 211 -60t56 -219v-19q-2 -155 -58 -212.5t-208 -57.5zM295 133h34q35 0 49.5 13.5t14.5 47.5v146q0 38 -14 52.5t-50 14.5h-34q-35 0 -48.5 -15t-13.5 -52
v-146q0 -34 14 -47.5t48 -13.5z" />
    <glyph glyph-name="ocircumflex" unicode="&#xf4;" horiz-adv-x="626" 
d="M436 583l-123 79l-123 -79l-59 53l119 131h126l119 -131zM335 -14h-33q-159 0 -217 57t-60 213v19q0 161 58 220t219 59h32q155 -1 211 -60t56 -219v-19q-2 -155 -58 -212.5t-208 -57.5zM295 133h34q35 0 49.5 13.5t14.5 47.5v146q0 38 -14 52.5t-50 14.5h-34
q-35 0 -48.5 -15t-13.5 -52v-146q0 -34 14 -47.5t48 -13.5z" />
    <glyph glyph-name="otilde" unicode="&#xf5;" horiz-adv-x="626" 
d="M514 700l-75 -85q-25 -25 -66 -25q-17 0 -37 10t-31.5 18t-43.5 33l-89 -54l-59 52l73 84q25 28 67 28q11 0 22 -3t19 -6t20.5 -11t17 -11.5t19 -14.5t16.5 -13l88 50zM335 -14h-33q-159 0 -217 57t-60 213v19q0 161 58 220t219 59h32q155 -1 211 -60t56 -219v-19
q-2 -155 -58 -212.5t-208 -57.5zM295 133h34q35 0 49.5 13.5t14.5 47.5v146q0 38 -14 52.5t-50 14.5h-34q-35 0 -48.5 -15t-13.5 -52v-146q0 -34 14 -47.5t48 -13.5z" />
    <glyph glyph-name="odieresis" unicode="&#xf6;" horiz-adv-x="626" 
d="M204 597q-40 0 -67.5 23t-27.5 60t27.5 61t67.5 24q39 0 65.5 -23.5t26.5 -61.5q0 -37 -26.5 -60t-65.5 -23zM423 597q-39 0 -65 23t-26 60q0 38 26.5 61.5t64.5 23.5q40 0 67.5 -23.5t27.5 -61.5q0 -37 -27 -60t-68 -23zM335 -14h-33q-159 0 -217 57t-60 213v19
q0 161 58 220t219 59h32q155 -1 211 -60t56 -219v-19q-2 -155 -58 -212.5t-208 -57.5zM295 133h34q35 0 49.5 13.5t14.5 47.5v146q0 38 -14 52.5t-50 14.5h-34q-35 0 -48.5 -15t-13.5 -52v-146q0 -34 14 -47.5t48 -13.5z" />
    <glyph glyph-name="divide" unicode="&#xf7;" horiz-adv-x="580" 
d="M290 466q-105 0 -105 97q0 99 105 99q106 0 106 -99q0 -50 -26 -73.5t-80 -23.5zM25 424h530v-152h-530v152zM290 35q-105 0 -105 97q0 99 105 99q106 0 106 -99q0 -50 -26 -73.5t-80 -23.5z" />
    <glyph glyph-name="oslash" unicode="&#xf8;" horiz-adv-x="644" 
d="M619 567l-64 -73q55 -61 55 -219v-19q-2 -155 -58 -212.5t-208 -57.5h-33q-118 0 -176 29l-36 -41h-73l64 73q-54 57 -56 209v19q0 161 58 220t219 59h32q108 0 167 -28l36 41h73zM242 220l148 170q-13 17 -52 17h-34q-35 0 -48.5 -15t-13.5 -52v-120zM402 320l-149 -170
q14 -17 51 -17h34q35 0 49.5 13.5t14.5 47.5v126z" />
    <glyph glyph-name="ugrave" unicode="&#xf9;" horiz-adv-x="688" 
d="M430 632l-85 -53l-182 106v27l150 74zM616 541v-383q24 -4 54 -12v-145h-262v76q-110 -77 -180 -77h-14q-76 0 -108 34t-32 115v235q-13 2 -55 12v145h262v-277q0 -60 7 -74t41 -14h12q29 0 67 21v187l-54 12v145h262z" />
    <glyph glyph-name="uacute" unicode="&#xfa;" horiz-adv-x="688" 
d="M477 712v-27l-182 -106l-85 53l117 154zM616 541v-383q24 -4 54 -12v-145h-262v76q-110 -77 -180 -77h-14q-76 0 -108 34t-32 115v235q-13 2 -55 12v145h262v-277q0 -60 7 -74t41 -14h12q29 0 67 21v187l-54 12v145h262z" />
    <glyph glyph-name="ucircumflex" unicode="&#xfb;" horiz-adv-x="688" 
d="M448 583l-123 79l-123 -79l-59 53l119 131h126l119 -131zM616 541v-383q24 -4 54 -12v-145h-262v76q-110 -77 -180 -77h-14q-76 0 -108 34t-32 115v235q-13 2 -55 12v145h262v-277q0 -60 7 -74t41 -14h12q29 0 67 21v187l-54 12v145h262z" />
    <glyph glyph-name="udieresis" unicode="&#xfc;" horiz-adv-x="688" 
d="M217 597q-40 0 -67.5 23t-27.5 60t27.5 61t67.5 24q39 0 65.5 -23.5t26.5 -61.5q0 -37 -26.5 -60t-65.5 -23zM436 597q-39 0 -65 23t-26 60q0 38 26.5 61.5t64.5 23.5q40 0 67.5 -23.5t27.5 -61.5q0 -37 -27 -60t-68 -23zM616 541v-383q24 -4 54 -12v-145h-262v76
q-110 -77 -180 -77h-14q-76 0 -108 34t-32 115v235q-13 2 -55 12v145h262v-277q0 -60 7 -74t41 -14h12q29 0 67 21v187l-54 12v145h262z" />
    <glyph glyph-name="yacute" unicode="&#xfd;" horiz-adv-x="681" 
d="M492 712v-27l-182 -106l-85 53l117 154zM675 541v-145q-23 -6 -68 -15l-191 -424q16 0 48 -4v-146h-351v146q17 2 84 7l24 48l-164 377q-20 4 -50 11v145h336v-145q-21 -6 -61 -11l69 -195h2l92 195q-8 2 -48 11v145h278z" />
    <glyph glyph-name="thorn" unicode="&#xfe;" horiz-adv-x="649" 
d="M458 554h15q69 0 110 -50.5t41 -156.5v-182q0 -85 -45.5 -129t-115.5 -44h-14q-15 0 -27.5 1t-25.5 3.5t-21 4t-22 7t-19.5 7.5t-22.5 9t-22 9v-72q18 -3 54 -11v-146h-315v146q36 8 53 11v582q-27 5 -52 12v145h260v-223q99 77 169 77zM417 253v34q0 60 -8 75.5
t-42 15.5h-12q-31 0 -66 -19v-193q31 -13 65 -13h13q34 0 42 17t8 83z" />
    <glyph glyph-name="ydieresis" unicode="&#xff;" horiz-adv-x="681" 
d="M231 597q-40 0 -67.5 23t-27.5 60t27.5 61t67.5 24q39 0 65.5 -23.5t26.5 -61.5q0 -37 -26.5 -60t-65.5 -23zM450 597q-39 0 -65 23t-26 60q0 38 26.5 61.5t64.5 23.5q40 0 67.5 -23.5t27.5 -61.5q0 -37 -27 -60t-68 -23zM675 541v-145q-23 -6 -68 -15l-191 -424
q16 0 48 -4v-146h-351v146q17 2 84 7l24 48l-164 377q-20 4 -50 11v145h336v-145q-21 -6 -61 -11l69 -195h2l92 195q-8 2 -48 11v145h278z" />
    <glyph glyph-name="Amacron" unicode="&#x100;" horiz-adv-x="807" 
d="M548 877v-120h-336v120h336zM544 700l170 -532q43 -4 81 -14v-154h-383v154q29 8 61 12l-12 42h-166l-8 -41q13 -2 55 -13v-154h-330v154q26 7 76 15l110 365q-20 3 -58 12v154h404zM377 520l-47 -152h96l-47 152h-2z" />
    <glyph glyph-name="amacron" unicode="&#x101;" horiz-adv-x="634" 
d="M471 718v-114h-316v114h316zM564 359v-201q24 -4 54 -12v-145h-261v65q-28 -23 -47 -36t-50.5 -25.5t-62.5 -12.5h-15q-32 0 -50.5 1.5t-40.5 10t-33.5 24t-19.5 45t-8 72.5v30q0 35 9 59.5t22 38t37 22.5t42.5 12t50.5 6q66 7 166 14v23q0 55 -59 55q-36 0 -61 -3
l-8 -44h-155v174q127 22 254 22h51q85 0 135 -53t50 -142zM279 141h13q28 0 65 25v82q-45 -7 -75 -14q-42 -8 -42 -40v-20q0 -33 39 -33z" />
    <glyph glyph-name="Abreve" unicode="&#x102;" horiz-adv-x="807" 
d="M560 912v-30q0 -67 -48 -107.5t-132 -40.5t-132.5 40.5t-48.5 107.5v30h117v-4q0 -46 64 -46t64 46v4h116zM544 700l170 -532q43 -4 81 -14v-154h-383v154q29 8 61 12l-12 42h-166l-8 -41q13 -2 55 -13v-154h-330v154q26 7 76 15l110 365q-20 3 -58 12v154h404zM377 520
l-47 -152h96l-47 152h-2z" />
    <glyph glyph-name="abreve" unicode="&#x103;" horiz-adv-x="634" 
d="M489 753v-28q0 -65 -46 -104t-126 -39q-81 0 -127 39t-46 104v28h112v-5q0 -43 61 -43t61 43v5h111zM564 359v-201q24 -4 54 -12v-145h-261v65q-28 -23 -47 -36t-50.5 -25.5t-62.5 -12.5h-15q-32 0 -50.5 1.5t-40.5 10t-33.5 24t-19.5 45t-8 72.5v30q0 35 9 59.5t22 38
t37 22.5t42.5 12t50.5 6q66 7 166 14v23q0 55 -59 55q-36 0 -61 -3l-8 -44h-155v174q127 22 254 22h51q85 0 135 -53t50 -142zM279 141h13q28 0 65 25v82q-45 -7 -75 -14q-42 -8 -42 -40v-20q0 -33 39 -33z" />
    <glyph glyph-name="Aogonek" unicode="&#x104;" horiz-adv-x="807" 
d="M795 0h-104q-45 -48 -45 -60v-5q0 -14 17 -14q30 0 63 3l27 -57q-27 -20 -61.5 -34t-57.5 -14h-25q-85 0 -85 75v23q0 51 83 83h-195v154q29 8 61 12l-12 42h-166l-8 -41q13 -2 55 -13v-154h-330v154q26 7 76 15l110 365q-20 3 -58 12v154h404l170 -532q43 -4 81 -14
v-154zM426 368l-47 152h-2l-47 -152h96z" />
    <glyph glyph-name="aogonek" unicode="&#x105;" horiz-adv-x="634" 
d="M618 1h-82q-46 -50 -46 -61v-5q0 -14 17 -14q30 0 63 3l27 -57q-27 -20 -61.5 -34t-57.5 -14h-25q-85 0 -85 75v23q0 52 86 84h-97v65q-28 -23 -47 -36t-50.5 -25.5t-62.5 -12.5h-15q-32 0 -50.5 1.5t-40.5 10t-33.5 24t-19.5 45t-8 72.5v30q0 35 9 59.5t22 38t37 22.5
t42.5 12t50.5 6q66 7 166 14v23q0 55 -59 55q-36 0 -61 -3l-8 -44h-155v174q127 22 254 22h51q85 0 135 -53t50 -142v-201q24 -4 54 -12v-145zM357 166v82q-45 -7 -75 -14q-42 -8 -42 -40v-20q0 -33 39 -33h13q28 0 65 25z" />
    <glyph glyph-name="Cacute" unicode="&#x106;" horiz-adv-x="639" 
d="M496 869v-28l-190 -111l-89 55l122 161zM621 225v-168q-136 -71 -255 -71h-73q-139 0 -203 68.5t-67 215.5v162q0 139 69 210.5t204 71.5h57q99 0 267 -32v-236h-181l-23 90q-48 5 -99 5q-77 0 -77 -86v-209q0 -37 21 -60.5t56 -22.5h38q58 0 86 62h180z" />
    <glyph glyph-name="cacute" unicode="&#x107;" horiz-adv-x="556" 
d="M436 712v-27l-182 -106l-85 53l117 154zM532 191v-142q-106 -63 -224 -63h-42q-241 0 -241 222v141q0 100 60.5 152.5t173.5 52.5h60q78 0 208 -24v-218h-155l-18 89q-20 2 -61 2q-60 0 -60 -62v-149q0 -58 55 -58h16q45 0 55 39l5 18h168z" />
    <glyph glyph-name="Cdotaccent" unicode="&#x10a;" horiz-adv-x="639" 
d="M335 740q-44 0 -74 26.5t-30 68.5q0 43 30 70.5t74 27.5q46 0 76.5 -27t30.5 -71q0 -42 -30.5 -68.5t-76.5 -26.5zM621 225v-168q-136 -71 -255 -71h-73q-139 0 -203 68.5t-67 215.5v162q0 139 69 210.5t204 71.5h57q99 0 267 -32v-236h-181l-23 90q-48 5 -99 5
q-77 0 -77 -86v-209q0 -37 21 -60.5t56 -22.5h38q58 0 86 62h180z" />
    <glyph glyph-name="cdotaccent" unicode="&#x10b;" horiz-adv-x="556" 
d="M283 580q-40 0 -67.5 24.5t-27.5 64.5q0 39 27.5 63.5t67.5 24.5q42 0 70.5 -24.5t28.5 -63.5q0 -40 -28.5 -64.5t-70.5 -24.5zM532 191v-142q-106 -63 -224 -63h-42q-241 0 -241 222v141q0 100 60.5 152.5t173.5 52.5h60q78 0 208 -24v-218h-155l-18 89q-20 2 -61 2
q-60 0 -60 -62v-149q0 -58 55 -58h16q45 0 55 39l5 18h168z" />
    <glyph glyph-name="Ccaron" unicode="&#x10c;" horiz-adv-x="639" 
d="M400 739h-126l-119 131l59 53l123 -79l123 79l59 -53zM621 225v-168q-136 -71 -255 -71h-73q-139 0 -203 68.5t-67 215.5v162q0 139 69 210.5t204 71.5h57q99 0 267 -32v-236h-181l-23 90q-48 5 -99 5q-77 0 -77 -86v-209q0 -37 21 -60.5t56 -22.5h38q58 0 86 62h180z
" />
    <glyph glyph-name="ccaron" unicode="&#x10d;" horiz-adv-x="556" 
d="M348 583h-126l-119 131l59 53l123 -79l123 79l59 -53zM532 191v-142q-106 -63 -224 -63h-42q-241 0 -241 222v141q0 100 60.5 152.5t173.5 52.5h60q78 0 208 -24v-218h-155l-18 89q-20 2 -61 2q-60 0 -60 -62v-149q0 -58 55 -58h16q45 0 55 39l5 18h168z" />
    <glyph glyph-name="Dcaron" unicode="&#x10e;" horiz-adv-x="702" 
d="M407 739h-126l-119 131l59 53l123 -79l123 79l59 -53zM19 700h395q143 -1 206.5 -66t63.5 -213v-150q-3 -144 -66 -207.5t-203 -63.5h-392v154q13 3 64 14v364q-24 3 -68 14v154zM468 252v193q0 38 -20.5 58.5t-57.5 20.5h-86v-348h86q36 0 56.5 20t21.5 56z" />
    <glyph glyph-name="dcaron" unicode="&#x10f;" horiz-adv-x="638" 
d="M568 700v-542q17 -3 54 -12v-145h-262v69q-29 -23 -49.5 -37t-54 -27.5t-64.5 -13.5h-15q-69 0 -110.5 51t-41.5 157v170q0 85 46.5 133t114.5 48h15q48 0 78.5 -10t80.5 -36v54q-37 10 -55 13v128h263zM787 700v-29l-71 -180h-104l15 209h160zM283 168h13q29 0 64 19
v182q-30 12 -64 12h-13q-32 0 -41 -14t-9 -49v-59q0 -60 8 -75.5t42 -15.5z" />
    <glyph glyph-name="Dcroat" unicode="&#x110;" horiz-adv-x="702" 
d="M19 700h395q143 -1 206.5 -66t63.5 -213v-150q-3 -144 -66 -207.5t-203 -63.5h-392v154q13 3 64 14v119h-66v120h66v125q-24 3 -68 14v154zM468 252v193q0 38 -20.5 58.5t-57.5 20.5h-86v-117h53v-120h-53v-111h86q36 0 56.5 20t21.5 56z" />
    <glyph glyph-name="dcroat" unicode="&#x111;" horiz-adv-x="638" 
d="M568 560v-402q17 -3 54 -12v-145h-262v69q-29 -23 -49.5 -37t-54 -27.5t-64.5 -13.5h-15q-69 0 -110.5 51t-41.5 157v170q0 85 46.5 133t114.5 48h15q48 0 78.5 -10t80.5 -36v55h-111v114h111v53h208v-53h50v-114h-50zM360 187v182q-30 12 -64 12h-13q-32 0 -41 -14
t-9 -49v-59q0 -60 8 -75.5t42 -15.5h13q29 0 64 19z" />
    <glyph glyph-name="Emacron" unicode="&#x112;" horiz-adv-x="640" 
d="M488 877v-120h-336v120h336zM616 459h-135l-25 69h-153v-92h138v-176h-138v-88h155l25 69h134v-241h-594v154q11 2 64 13v366q-33 4 -68 13v154h597v-241z" />
    <glyph glyph-name="emacron" unicode="&#x113;" horiz-adv-x="591" 
d="M457 718v-114h-316v114h316zM286 554h34q126 0 185.5 -53t59.5 -166v-123h-334v-32q0 -55 57 -55h35q45 0 56 36l5 27h166v-139q-98 -63 -223 -63h-38q-146 0 -205 56.5t-59 195.5v87q0 117 64 173t197 56zM377 320v49q0 24 -16 37.5t-41 13.5h-28q-28 0 -44.5 -14.5
t-16.5 -39.5v-46h146z" />
    <glyph glyph-name="Edotaccent" unicode="&#x116;" horiz-adv-x="640" 
d="M318 740q-44 0 -74 26.5t-30 68.5q0 43 30 70.5t74 27.5q46 0 76.5 -27t30.5 -71q0 -42 -30.5 -68.5t-76.5 -26.5zM616 459h-135l-25 69h-153v-92h138v-176h-138v-88h155l25 69h134v-241h-594v154q11 2 64 13v366q-33 4 -68 13v154h597v-241z" />
    <glyph glyph-name="edotaccent" unicode="&#x117;" horiz-adv-x="591" 
d="M301 584q-44 0 -74 26.5t-30 69.5t30 70t74 27q46 0 76.5 -27t30.5 -70t-30.5 -69.5t-76.5 -26.5zM286 554h34q126 0 185.5 -53t59.5 -166v-123h-334v-32q0 -55 57 -55h35q45 0 56 36l5 27h166v-139q-98 -63 -223 -63h-38q-146 0 -205 56.5t-59 195.5v87q0 117 64 173
t197 56zM377 320v49q0 24 -16 37.5t-41 13.5h-28q-28 0 -44.5 -14.5t-16.5 -39.5v-46h146z" />
    <glyph glyph-name="Eogonek" unicode="&#x118;" horiz-adv-x="640" 
d="M617 0h-80q-45 -48 -45 -60v-5q0 -14 17 -14q30 0 63 3l27 -57q-27 -20 -61.5 -34t-57.5 -14h-25q-85 0 -85 75v23q0 51 83 83h-430v154q11 2 64 13v366q-33 4 -68 13v154h597v-241h-135l-25 69h-153v-92h138v-176h-138v-88h155l25 69h134v-241z" />
    <glyph glyph-name="eogonek" unicode="&#x119;" horiz-adv-x="591" 
d="M231 212v-32q0 -55 57 -55h35q45 0 56 36l5 27h166v-139q-51 -33 -110 -48q-46 -50 -46 -61v-5q0 -14 17 -14q30 0 63 3l27 -57q-27 -20 -61.5 -34t-57.5 -14h-25q-85 0 -85 75v23q0 41 52 69h-35q-146 0 -205 56.5t-59 195.5v87q0 117 64 173t197 56h34q126 0 185.5 -53
t59.5 -166v-123h-334zM231 320h146v49q0 24 -16 37.5t-41 13.5h-28q-28 0 -44.5 -14.5t-16.5 -39.5v-46z" />
    <glyph glyph-name="Ecaron" unicode="&#x11a;" horiz-adv-x="640" 
d="M383 739h-126l-119 131l59 53l123 -79l123 79l59 -53zM616 459h-135l-25 69h-153v-92h138v-176h-138v-88h155l25 69h134v-241h-594v154q11 2 64 13v366q-33 4 -68 13v154h597v-241z" />
    <glyph glyph-name="ecaron" unicode="&#x11b;" horiz-adv-x="591" 
d="M366 583h-126l-119 131l59 53l123 -79l123 79l59 -53zM286 554h34q126 0 185.5 -53t59.5 -166v-123h-334v-32q0 -55 57 -55h35q45 0 56 36l5 27h166v-139q-98 -63 -223 -63h-38q-146 0 -205 56.5t-59 195.5v87q0 117 64 173t197 56zM377 320v49q0 24 -16 37.5t-41 13.5
h-28q-28 0 -44.5 -14.5t-16.5 -39.5v-46h146z" />
    <glyph glyph-name="Gbreve" unicode="&#x11e;" horiz-adv-x="679" 
d="M520 912v-30q0 -67 -48 -107.5t-132 -40.5t-132.5 40.5t-48.5 107.5v30h117v-4q0 -46 64 -46t64 46v4h116zM661 385v-179q0 -53 -20.5 -94.5t-50 -64t-67.5 -37.5t-68 -19.5t-58 -4.5h-102q-140 0 -205 69t-67 215v156q0 139 71 213.5t205 74.5h64q94 0 278 -32v-241
h-182l-23 87q-47 5 -114 5q-38 0 -60 -24.5t-22 -66.5v-197q0 -35 21 -55t58 -20h86q25 0 41 12t16 36v13q-70 8 -134 19v135h333z" />
    <glyph glyph-name="gbreve" unicode="&#x11f;" horiz-adv-x="624" 
d="M484 753v-28q0 -65 -46 -104t-126 -39q-81 0 -127 39t-46 104v28h112v-5q0 -43 61 -43t61 43v5h111zM615 541v-124q-33 -10 -46 -13q2 -10 2 -28v-25q0 -89 -52.5 -127.5t-171.5 -38.5h-78q-26 0 -58 6q-7 -5 -7 -11v-8q0 -14 43 -14h201q161 0 161 -139v-18
q0 -202 -262 -202h-100q-136 0 -182 19t-46 73v20q0 45 12.5 71.5t55.5 51.5q-33 30 -33 74v18q0 58 56 98q-58 38 -58 133v22q0 98 56.5 136.5t195.5 38.5h16q83 0 135 -13h160zM368 351v40q0 23 -11 31t-39 8h-9q-30 0 -42 -8t-12 -31v-40q0 -23 12 -30.5t42 -7.5h6
q29 0 41 7.5t12 30.5zM403 1h-144q-38 0 -49 1q-20 -13 -20 -27v-9q0 -15 8 -20t26 -5h147q36 0 48.5 6.5t12.5 23.5v11q0 12 -6 15.5t-23 3.5z" />
    <glyph glyph-name="Gdotaccent" unicode="&#x120;" horiz-adv-x="679" 
d="M338 740q-44 0 -74 26.5t-30 68.5q0 43 30 70.5t74 27.5q46 0 76.5 -27t30.5 -71q0 -42 -30.5 -68.5t-76.5 -26.5zM661 385v-179q0 -53 -20.5 -94.5t-50 -64t-67.5 -37.5t-68 -19.5t-58 -4.5h-102q-140 0 -205 69t-67 215v156q0 139 71 213.5t205 74.5h64q94 0 278 -32
v-241h-182l-23 87q-47 5 -114 5q-38 0 -60 -24.5t-22 -66.5v-197q0 -35 21 -55t58 -20h86q25 0 41 12t16 36v13q-70 8 -134 19v135h333z" />
    <glyph glyph-name="gdotaccent" unicode="&#x121;" horiz-adv-x="624" 
d="M310 584q-44 0 -74 26.5t-30 69.5t30 70t74 27q46 0 76.5 -27t30.5 -70t-30.5 -69.5t-76.5 -26.5zM615 541v-124q-33 -10 -46 -13q2 -10 2 -28v-25q0 -89 -52.5 -127.5t-171.5 -38.5h-78q-26 0 -58 6q-7 -5 -7 -11v-8q0 -14 43 -14h201q161 0 161 -139v-18
q0 -202 -262 -202h-100q-136 0 -182 19t-46 73v20q0 45 12.5 71.5t55.5 51.5q-33 30 -33 74v18q0 58 56 98q-58 38 -58 133v22q0 98 56.5 136.5t195.5 38.5h16q83 0 135 -13h160zM368 351v40q0 23 -11 31t-39 8h-9q-30 0 -42 -8t-12 -31v-40q0 -23 12 -30.5t42 -7.5h6
q29 0 41 7.5t12 30.5zM403 1h-144q-38 0 -49 1q-20 -13 -20 -27v-9q0 -15 8 -20t26 -5h147q36 0 48.5 6.5t12.5 23.5v11q0 12 -6 15.5t-23 3.5z" />
    <glyph glyph-name="Gcommaaccent" unicode="&#x122;" horiz-adv-x="679" 
d="M661 385v-179q0 -53 -20.5 -94.5t-50 -64t-67.5 -37.5t-68 -19.5t-58 -4.5h-102q-140 0 -205 69t-67 215v156q0 139 71 213.5t205 74.5h64q94 0 278 -32v-241h-182l-23 87q-47 5 -114 5q-38 0 -60 -24.5t-22 -66.5v-197q0 -35 21 -55t58 -20h86q25 0 41 12t16 36v13
q-70 8 -134 19v135h333zM266 -155l14 66q9 44 54 36q44 -6 62.5 -19.5t18.5 -43.5q0 -34 -10.5 -59.5t-38.5 -57.5q-42 -47 -61 -62l-37 27q28 60 34 96z" />
    <glyph glyph-name="gcommaaccent" unicode="&#x123;" horiz-adv-x="624" 
d="M389 686l-13 -61q-9 -39 -50 -33q-40 6 -57 18.5t-17 39.5q0 31 10 54.5t35 52.5q39 44 56 57l34 -25q-27 -55 -31 -88zM615 541v-124q-33 -10 -46 -13q2 -10 2 -28v-25q0 -89 -52.5 -127.5t-171.5 -38.5h-78q-26 0 -58 6q-7 -5 -7 -11v-8q0 -14 43 -14h201
q161 0 161 -139v-18q0 -202 -262 -202h-100q-136 0 -182 19t-46 73v20q0 45 12.5 71.5t55.5 51.5q-33 30 -33 74v18q0 58 56 98q-58 38 -58 133v22q0 98 56.5 136.5t195.5 38.5h16q83 0 135 -13h160zM368 351v40q0 23 -11 31t-39 8h-9q-30 0 -42 -8t-12 -31v-40
q0 -23 12 -30.5t42 -7.5h6q29 0 41 7.5t12 30.5zM403 1h-144q-38 0 -49 1q-20 -13 -20 -27v-9q0 -15 8 -20t26 -5h147q36 0 48.5 6.5t12.5 23.5v11q0 12 -6 15.5t-23 3.5z" />
    <glyph glyph-name="Hbar" unicode="&#x126;" horiz-adv-x="795" 
d="M777 700v-154q-32 -8 -69 -13v-32h59v-41h-59v-293q61 -11 69 -13v-154h-335v154q20 5 50 10v100h-188v-100q31 -5 49 -10v-154h-334v154q1 0 68 13v293h-56v41h56v32q-39 5 -68 13v154h334v-154q-18 -5 -49 -10v-35h188v35q-34 6 -50 10v154h335zM492 460h-188v-28h188
v28z" />
    <glyph glyph-name="hbar" unicode="&#x127;" horiz-adv-x="696" 
d="M624 157l55 -12v-145h-262v290q0 60 -7 74t-41 14h-12q-28 0 -68 -21v-201q36 -6 54 -11v-145h-315v145q16 5 53 11v400h-56v114h56v57h208v-57h105v-114h-105v-82q107 80 181 80h13q65 0 103 -40t38 -109v-248z" />
    <glyph glyph-name="Imacron" unicode="&#x12a;" horiz-adv-x="390" 
d="M363 877v-120h-336v120h336zM371 700v-154q-30 -8 -68 -13v-366q38 -5 68 -13v-154h-348v154q24 6 64 13v366q-40 5 -68 13v154h352z" />
    <glyph glyph-name="imacron" unicode="&#x12b;" horiz-adv-x="359" 
d="M334 718v-114h-316v114h316zM289 541v-385q36 -6 54 -11v-145h-315v145q16 5 53 11v228q-27 5 -52 12v145h260z" />
    <glyph glyph-name="Iogonek" unicode="&#x12e;" horiz-adv-x="390" 
d="M371 700v-154q-30 -8 -68 -13v-366q38 -5 68 -13v-154h-85q-45 -48 -45 -60v-5q0 -14 17 -14q30 0 63 3l27 -57q-27 -20 -61.5 -34t-57.5 -14h-25q-85 0 -85 75v23q0 51 83 83h-179v154q24 6 64 13v366q-40 5 -68 13v154h352z" />
    <glyph glyph-name="iogonek" unicode="&#x12f;" horiz-adv-x="359" 
d="M179 584q-44 0 -74 26.5t-30 69.5t30 70t74 27q46 0 76.5 -27t30.5 -70t-30.5 -69.5t-76.5 -26.5zM322 -76l27 -57q-27 -20 -61.5 -34t-57.5 -14h-25q-85 0 -85 75v23q0 51 83 83h-175v145q16 5 53 11v228q-27 5 -52 12v145h260v-385q36 -6 54 -11v-145h-56
q-45 -48 -45 -60v-5q0 -14 17 -14q30 0 63 3z" />
    <glyph glyph-name="Idotaccent" unicode="&#x130;" horiz-adv-x="390" 
d="M193 740q-44 0 -74 26.5t-30 68.5q0 43 30 70.5t74 27.5q46 0 76.5 -27t30.5 -71q0 -42 -30.5 -68.5t-76.5 -26.5zM371 700v-154q-30 -8 -68 -13v-366q38 -5 68 -13v-154h-348v154q24 6 64 13v366q-40 5 -68 13v154h352z" />
    <glyph glyph-name="dotlessi" unicode="&#x131;" horiz-adv-x="359" 
d="M289 541v-385q36 -6 54 -11v-145h-315v145q16 5 53 11v228q-27 5 -52 12v145h260z" />
    <glyph glyph-name="IJ" unicode="&#x132;" horiz-adv-x="780" 
d="M371 700v-154q-30 -8 -68 -13v-366q38 -5 68 -13v-154h-348v154q24 6 64 13v366q-40 5 -68 13v154h352zM762 700v-154q-29 -8 -68 -13v-417q0 -70 -22.5 -111t-90.5 -96q-22 -17 -38.5 -29t-24 -17t-23 -13.5t-24.5 -14.5l-91 85q5 6 13 15.5t16.5 20.5t19.5 26
q29 39 38.5 66t9.5 70v415q-39 5 -68 13v154h353z" />
    <glyph glyph-name="ij" unicode="&#x133;" horiz-adv-x="683" 
d="M185 576q-48 0 -81.5 29t-33.5 75t33.5 75t81.5 29t81 -29t33 -75t-33 -75t-81 -29zM538 784q49 0 81.5 -29t32.5 -75t-32.5 -75t-81.5 -29q-48 0 -81.5 29t-33.5 75t33.5 75t81.5 29zM289 541v-385q36 -6 54 -11v-145h-315v145q16 5 53 11v228q-27 5 -52 12v145h260z
M648 541v-430q0 -67 -22.5 -106.5t-90.5 -94.5q-43 -34 -110 -75l-82 85q39 49 49 63q29 39 38.5 64t9.5 66v270q-33 5 -58 13v145h266z" />
    <glyph glyph-name="Kcommaaccent" unicode="&#x136;" horiz-adv-x="776" 
d="M371 700v-154q-30 -8 -68 -13v-103h97l74 106q-34 7 -46 10v154h325v-154q-31 -8 -50 -10l-126 -183l124 -186q42 -8 63 -13v-154h-336v154q4 1 15 2.5t15 2.5l-65 102h-90v-94q38 -5 68 -13v-154h-348v154q24 6 64 13v366q-40 5 -68 13v154h352zM313 -155l14 66
q9 44 54 36q44 -6 62.5 -19.5t18.5 -43.5q0 -34 -10.5 -59.5t-38.5 -57.5q-42 -47 -61 -62l-37 27q28 60 34 96z" />
    <glyph glyph-name="kcommaaccent" unicode="&#x137;" horiz-adv-x="694" 
d="M289 349h72l24 40l-34 7v145h314v-145q-33 -8 -58 -12l-72 -104l83 -123q24 -4 55 -12v-145h-272v144l-39 63h-73v-51q36 -6 54 -11v-145h-315v145q16 5 53 11v387q-27 5 -52 12v145h260v-351zM274 -155l14 66q9 44 54 36q44 -6 62.5 -19.5t18.5 -43.5q0 -34 -10.5 -59.5
t-38.5 -57.5q-42 -47 -61 -62l-37 27q28 60 34 96z" />
    <glyph glyph-name="Lacute" unicode="&#x139;" horiz-adv-x="628" 
d="M358 869v-28l-190 -111l-89 55l122 161zM23 0v154q31 8 64 13v366q-41 7 -68 13v154h383v-154q-41 -11 -99 -16v-358h146l25 88h143v-260h-594z" />
    <glyph glyph-name="lacute" unicode="&#x13a;" horiz-adv-x="361" 
d="M332 867v-27l-182 -106l-85 53l117 154zM289 700v-544q36 -6 54 -11v-145h-315v145q16 5 53 11v387q-27 5 -52 12v145h260z" />
    <glyph glyph-name="Lcommaaccent" unicode="&#x13b;" horiz-adv-x="628" 
d="M23 0v154q31 8 64 13v366q-41 7 -68 13v154h383v-154q-41 -11 -99 -16v-358h146l25 88h143v-260h-594zM240 -155l14 66q9 44 54 36q44 -6 62.5 -19.5t18.5 -43.5q0 -34 -10.5 -59.5t-38.5 -57.5q-42 -47 -61 -62l-37 27q28 60 34 96z" />
    <glyph glyph-name="lcommaaccent" unicode="&#x13c;" horiz-adv-x="361" 
d="M289 700v-544q36 -6 54 -11v-145h-315v145q16 5 53 11v387q-27 5 -52 12v145h260zM106 -155l14 66q9 44 54 36q44 -6 62.5 -19.5t18.5 -43.5q0 -34 -10.5 -59.5t-38.5 -57.5q-42 -47 -61 -62l-37 27q28 60 34 96z" />
    <glyph glyph-name="Lcaron" unicode="&#x13d;" horiz-adv-x="628" 
d="M23 0v154q31 8 64 13v366q-41 7 -68 13v154h383v-154q-41 -11 -99 -16v-358h146l25 88h143v-260h-594zM628 700v-29l-71 -180h-104l15 209h160z" />
    <glyph glyph-name="lcaron" unicode="&#x13e;" horiz-adv-x="361" 
d="M289 700v-544q36 -6 54 -11v-145h-315v145q16 5 53 11v387q-27 5 -52 12v145h260zM507 700v-29l-71 -180h-104l15 209h160z" />
    <glyph glyph-name="Ldot" unicode="&#x13f;" horiz-adv-x="628" 
d="M23 0v154q31 8 64 13v366q-41 7 -68 13v154h383v-154q-41 -11 -99 -16v-358h146l25 88h143v-260h-594zM513 331q-40 0 -67.5 24.5t-27.5 63.5t27.5 64t67.5 25q42 0 70 -25t28 -64t-28 -63.5t-70 -24.5z" />
    <glyph glyph-name="ldot" unicode="&#x140;" horiz-adv-x="361" 
d="M289 700v-544q36 -6 54 -11v-145h-315v145q16 5 53 11v387q-27 5 -52 12v145h260zM438 263q-59 0 -87 25.5t-28 80.5q0 107 115 107t115 -107q0 -55 -28 -80.5t-87 -25.5z" />
    <glyph glyph-name="Lslash" unicode="&#x141;" horiz-adv-x="629" 
d="M618 260v-260h-594v154q31 8 64 13v82l-66 -22v122l66 22v162q-41 7 -68 13v154h383v-154q-41 -11 -99 -16v-85l113 38v-123l-113 -38v-150h146l25 88h143z" />
    <glyph glyph-name="lslash" unicode="&#x142;" horiz-adv-x="361" 
d="M289 375v-219q36 -6 54 -11v-145h-315v145q16 5 53 11v143l-42 -15v123l42 15v121q-27 5 -52 12v145h260v-203l49 18v-122z" />
    <glyph glyph-name="Nacute" unicode="&#x143;" horiz-adv-x="800" 
d="M554 869v-28l-190 -111l-89 55l122 161zM781 700v-154q-38 -10 -68 -14v-532h-221l-215 339v-175q18 -2 49 -10v-154h-303v154q30 8 64 13v364q-30 5 -68 15v154h267l237 -362v197q-16 3 -50 11v154h308z" />
    <glyph glyph-name="nacute" unicode="&#x144;" horiz-adv-x="696" 
d="M499 712v-27l-182 -106l-85 53l117 154zM624 405v-247q21 -4 55 -13v-145h-262v290q0 60 -7 74t-41 14h-12q-28 0 -68 -21v-201q36 -6 54 -11v-145h-315v145q16 5 53 11v228q-27 5 -52 12v145h260v-67q107 80 181 80h13q65 0 103 -40t38 -109z" />
    <glyph glyph-name="Ncommaaccent" unicode="&#x145;" horiz-adv-x="800" 
d="M781 700v-154q-38 -10 -68 -14v-532h-221l-215 339v-175q18 -2 49 -10v-154h-303v154q30 8 64 13v364q-30 5 -68 15v154h267l237 -362v197q-16 3 -50 11v154h308zM326 -155l14 66q9 44 54 36q44 -6 62.5 -19.5t18.5 -43.5q0 -34 -10.5 -59.5t-38.5 -57.5q-42 -47 -61 -62
l-37 27q28 60 34 96z" />
    <glyph glyph-name="ncommaaccent" unicode="&#x146;" horiz-adv-x="696" 
d="M624 405v-247q21 -4 55 -13v-145h-262v290q0 60 -7 74t-41 14h-12q-28 0 -68 -21v-201q36 -6 54 -11v-145h-315v145q16 5 53 11v228q-27 5 -52 12v145h260v-67q107 80 181 80h13q65 0 103 -40t38 -109zM275 -155l14 66q9 44 54 36q44 -6 62.5 -19.5t18.5 -43.5
q0 -34 -10.5 -59.5t-38.5 -57.5q-42 -47 -61 -62l-37 27q28 60 34 96z" />
    <glyph glyph-name="Ncaron" unicode="&#x147;" horiz-adv-x="800" 
d="M458 739h-126l-119 131l59 53l123 -79l123 79l59 -53zM781 700v-154q-38 -10 -68 -14v-532h-221l-215 339v-175q18 -2 49 -10v-154h-303v154q30 8 64 13v364q-30 5 -68 15v154h267l237 -362v197q-16 3 -50 11v154h308z" />
    <glyph glyph-name="ncaron" unicode="&#x148;" horiz-adv-x="696" 
d="M412 583h-126l-119 131l59 53l123 -79l123 79l59 -53zM624 405v-247q21 -4 55 -13v-145h-262v290q0 60 -7 74t-41 14h-12q-28 0 -68 -21v-201q36 -6 54 -11v-145h-315v145q16 5 53 11v228q-27 5 -52 12v145h260v-67q107 80 181 80h13q65 0 103 -40t38 -109z" />
    <glyph glyph-name="Omacron" unicode="&#x14c;" horiz-adv-x="696" 
d="M517 877v-120h-336v120h336zM406 -14h-106q-146 0 -212.5 66.5t-68.5 211.5v163q0 149 66.5 218t214.5 69h105q143 -1 208 -70t65 -217v-162q-2 -145 -67 -212t-205 -67zM313 166h69q78 0 79 80v204q0 84 -79 84h-69q-78 0 -78 -84v-204q0 -80 78 -80z" />
    <glyph glyph-name="omacron" unicode="&#x14d;" horiz-adv-x="626" 
d="M467 718v-114h-316v114h316zM335 -14h-33q-159 0 -217 57t-60 213v19q0 161 58 220t219 59h32q155 -1 211 -60t56 -219v-19q-2 -155 -58 -212.5t-208 -57.5zM295 133h34q35 0 49.5 13.5t14.5 47.5v146q0 38 -14 52.5t-50 14.5h-34q-35 0 -48.5 -15t-13.5 -52v-146
q0 -34 14 -47.5t48 -13.5z" />
    <glyph glyph-name="Ohungarumlaut" unicode="&#x150;" horiz-adv-x="696" 
d="M407 889v-25l-155 -123l-76 52l115 153zM600 889v-25l-153 -123l-78 52l117 153zM406 -14h-106q-146 0 -212.5 66.5t-68.5 211.5v163q0 149 66.5 218t214.5 69h105q143 -1 208 -70t65 -217v-162q-2 -145 -67 -212t-205 -67zM313 166h69q78 0 79 80v204q0 84 -79 84h-69
q-78 0 -78 -84v-204q0 -80 78 -80z" />
    <glyph glyph-name="ohungarumlaut" unicode="&#x151;" horiz-adv-x="626" 
d="M380 732v-25l-148 -117l-72 50l109 146zM564 732v-25l-146 -117l-74 50l111 146zM335 -14h-33q-159 0 -217 57t-60 213v19q0 161 58 220t219 59h32q155 -1 211 -60t56 -219v-19q-2 -155 -58 -212.5t-208 -57.5zM295 133h34q35 0 49.5 13.5t14.5 47.5v146q0 38 -14 52.5
t-50 14.5h-34q-35 0 -48.5 -15t-13.5 -52v-146q0 -34 14 -47.5t48 -13.5z" />
    <glyph glyph-name="OE" unicode="&#x152;" horiz-adv-x="949" 
d="M612 436h138v-176h-138v-88h155l24 69h135v-241h-618q-152 0 -219.5 59t-69.5 198v177q0 144 67 205t222 61h617v-241h-135l-25 69h-153v-92zM396 524h-75q-86 0 -86 -79v-194q0 -75 86 -75h75v348z" />
    <glyph glyph-name="oe" unicode="&#x153;" horiz-adv-x="959" 
d="M601 212v-32q0 -55 57 -55h35q45 0 56 36l5 27h166v-139q-98 -63 -223 -63h-38q-102 0 -160 26q-58 -26 -164 -26h-33q-159 0 -217 57t-60 213v19q0 161 58 220t219 59h32q108 0 167 -28q59 28 155 28h34q126 0 185.5 -53t59.5 -166v-123h-334zM601 320h146v49
q0 24 -16 37.5t-41 13.5h-28q-28 0 -44.5 -14.5t-16.5 -39.5v-46zM393 194v146q0 38 -14 52.5t-50 14.5h-34q-35 0 -48.5 -15t-13.5 -52v-146q0 -34 14 -47.5t48 -13.5h34q35 0 49.5 13.5t14.5 47.5z" />
    <glyph glyph-name="Racute" unicode="&#x154;" horiz-adv-x="723" 
d="M519 869v-28l-190 -111l-89 55l122 161zM19 700h402q140 0 197 -47t57 -167v-47q0 -121 -87 -174q33 -45 55 -98l60 -13v-154h-284v125q-14 82 -36 112h-79v-75q7 -2 19 -4.5t18 -3.5v-154h-318v154q46 10 64 13v365q-26 4 -68 14v154zM304 396h94q62 0 63 45v33
q0 26 -14.5 38t-48.5 12h-94v-128z" />
    <glyph glyph-name="racute" unicode="&#x155;" horiz-adv-x="495" 
d="M354 712v-27l-182 -106l-85 53l117 154zM289 541v-93q2 3 15.5 22t19 25.5t19 20.5t23.5 20t25 11.5t31 5.5h61v-194q-110 -7 -131 -9q-37 -2 -63 -19v-175q36 -6 57 -11v-145h-318v145q16 5 53 11v228q-27 5 -52 12v145h260z" />
    <glyph glyph-name="Rcommaaccent" unicode="&#x156;" horiz-adv-x="723" 
d="M19 700h402q140 0 197 -47t57 -167v-47q0 -121 -87 -174q33 -45 55 -98l60 -13v-154h-284v125q-14 82 -36 112h-79v-75q7 -2 19 -4.5t18 -3.5v-154h-318v154q46 10 64 13v365q-26 4 -68 14v154zM304 396h94q62 0 63 45v33q0 26 -14.5 38t-48.5 12h-94v-128zM289 -155
l14 66q9 44 54 36q44 -6 62.5 -19.5t18.5 -43.5q0 -34 -10.5 -59.5t-38.5 -57.5q-42 -47 -61 -62l-37 27q28 60 34 96z" />
    <glyph glyph-name="rcommaaccent" unicode="&#x157;" horiz-adv-x="495" 
d="M289 541v-93q2 3 15.5 22t19 25.5t19 20.5t23.5 20t25 11.5t31 5.5h61v-194q-110 -7 -131 -9q-37 -2 -63 -19v-175q36 -6 57 -11v-145h-318v145q16 5 53 11v228q-27 5 -52 12v145h260zM104 -155l14 66q9 44 54 36q44 -6 62.5 -19.5t18.5 -43.5q0 -34 -10.5 -59.5
t-38.5 -57.5q-42 -47 -61 -62l-37 27q28 60 34 96z" />
    <glyph glyph-name="Rcaron" unicode="&#x158;" horiz-adv-x="723" 
d="M424 739h-126l-119 131l59 53l123 -79l123 79l59 -53zM19 700h402q140 0 197 -47t57 -167v-47q0 -121 -87 -174q33 -45 55 -98l60 -13v-154h-284v125q-14 82 -36 112h-79v-75q7 -2 19 -4.5t18 -3.5v-154h-318v154q46 10 64 13v365q-26 4 -68 14v154zM304 396h94
q62 0 63 45v33q0 26 -14.5 38t-48.5 12h-94v-128z" />
    <glyph glyph-name="rcaron" unicode="&#x159;" horiz-adv-x="495" 
d="M267 583h-126l-119 131l59 53l123 -79l123 79l59 -53zM289 541v-93q2 3 15.5 22t19 25.5t19 20.5t23.5 20t25 11.5t31 5.5h61v-194q-110 -7 -131 -9q-37 -2 -63 -19v-175q36 -6 57 -11v-145h-318v145q16 5 53 11v228q-27 5 -52 12v145h260z" />
    <glyph glyph-name="Sacute" unicode="&#x15a;" horiz-adv-x="642" 
d="M480 869v-28l-190 -111l-89 55l122 161zM213 225l23 -70q36 -7 82 -7h18q40 0 52.5 8t14.5 32v9q0 21 -13.5 31t-58.5 23l-180 46q-74 22 -101 61.5t-27 133.5v8q0 112 64 163t206 51h39q120 0 267 -33v-214h-172l-23 74q-19 9 -64 9h-43q-27 0 -37.5 -8.5t-10.5 -30.5
v-6q0 -31 35 -39l194 -48q79 -20 110 -59t31 -117v-43q0 -110 -65 -161.5t-205 -51.5h-57q-68 0 -113.5 8t-146.5 35v196h181z" />
    <glyph glyph-name="sacute" unicode="&#x15b;" horiz-adv-x="552" 
d="M427 712v-27l-182 -106l-85 53l117 154zM21 369v20q0 85 56 125t172 40h19q147 0 244 -32v-156h-170l-14 48q-25 4 -59 4q-52 0 -52 -26v-5q0 -14 19 -21t91 -20q32 -5 51 -9q82 -15 117.5 -47.5t35.5 -82.5v-36q0 -96 -55.5 -140.5t-171.5 -44.5h-39q-164 0 -244 52v155
h167l5 -34q6 -17 25 -26.5t40 -9.5h27q41 0 41 35v6q0 20 -22.5 28t-126.5 27q-90 16 -123 51.5t-33 98.5z" />
    <glyph glyph-name="Scedilla" unicode="&#x15e;" horiz-adv-x="642" 
d="M284 466l194 -48q79 -20 110 -59t31 -117v-43q0 -110 -65 -161.5t-205 -51.5h-34l-1 -18h40q42 0 62 -15.5t20 -51.5v-18q0 -50 -22 -66t-81 -17q-68 0 -124 18v57h117q16 0 16 14v3q0 13 -15 13h-93l10 82q-67 4 -212 42v196h181l23 -70q36 -7 82 -7h18q40 0 52.5 8
t14.5 32v9q0 21 -13.5 31t-58.5 23l-180 46q-74 22 -101 61.5t-27 133.5v8q0 112 64 163t206 51h39q120 0 267 -33v-214h-172l-23 74q-19 9 -64 9h-43q-27 0 -37.5 -8.5t-10.5 -30.5v-6q0 -31 35 -39z" />
    <glyph glyph-name="scedilla" unicode="&#x15f;" horiz-adv-x="552" 
d="M217 392v-5q0 -14 19 -21t91 -20q32 -5 51 -9q82 -15 117.5 -47.5t35.5 -82.5v-36q0 -96 -55.5 -140.5t-171.5 -44.5h-34l-1 -18h40q42 0 62 -15.5t20 -51.5v-18q0 -50 -22 -66t-81 -17q-68 0 -124 18v57h117q16 0 16 14v3q0 13 -15 13h-93l10 83q-116 9 -178 50v155h167
l5 -34q6 -17 25 -26.5t40 -9.5h27q41 0 41 35v6q0 20 -22.5 28t-126.5 27q-90 16 -123 51.5t-33 98.5v20q0 85 56 125t172 40h19q147 0 244 -32v-156h-170l-14 48q-25 4 -59 4q-52 0 -52 -26z" />
    <glyph glyph-name="Scaron" unicode="&#x160;" horiz-adv-x="642" 
d="M385 739h-126l-119 131l59 53l123 -79l123 79l59 -53zM213 225l23 -70q36 -7 82 -7h18q40 0 52.5 8t14.5 32v9q0 21 -13.5 31t-58.5 23l-180 46q-74 22 -101 61.5t-27 133.5v8q0 112 64 163t206 51h39q120 0 267 -33v-214h-172l-23 74q-19 9 -64 9h-43q-27 0 -37.5 -8.5
t-10.5 -30.5v-6q0 -31 35 -39l194 -48q79 -20 110 -59t31 -117v-43q0 -110 -65 -161.5t-205 -51.5h-57q-68 0 -113.5 8t-146.5 35v196h181z" />
    <glyph glyph-name="scaron" unicode="&#x161;" horiz-adv-x="552" 
d="M340 583h-126l-119 131l59 53l123 -79l123 79l59 -53zM21 369v20q0 85 56 125t172 40h19q147 0 244 -32v-156h-170l-14 48q-25 4 -59 4q-52 0 -52 -26v-5q0 -14 19 -21t91 -20q32 -5 51 -9q82 -15 117.5 -47.5t35.5 -82.5v-36q0 -96 -55.5 -140.5t-171.5 -44.5h-39
q-164 0 -244 52v155h167l5 -34q6 -17 25 -26.5t40 -9.5h27q41 0 41 35v6q0 20 -22.5 28t-126.5 27q-90 16 -123 51.5t-33 98.5z" />
    <glyph glyph-name="Tcaron" unicode="&#x164;" horiz-adv-x="699" 
d="M413 739h-126l-119 131l59 53l123 -79l123 79l59 -53zM545 455l-22 78h-65v-366q43 -5 71 -13v-154h-354v154q12 3 67 13v366h-66l-21 -78h-145v245h680v-245h-145z" />
    <glyph glyph-name="tcaron" unicode="&#x165;" horiz-adv-x="467" 
d="M509 789v-29l-71 -180h-104l15 209h160zM332 162h10q64 0 97 3v-122q-31 -23 -93.5 -40t-115.5 -17h-13q-64 0 -101.5 40t-37.5 109v255h-61v138h23q31 0 54 29.5t23 73.5v38q77 17 169 18v-146h148v-151h-148v-144q0 -57 7 -70.5t39 -13.5z" />
    <glyph glyph-name="Umacron" unicode="&#x16a;" horiz-adv-x="741" 
d="M551 877v-120h-336v120h336zM727 700v-154q-18 -5 -54 -11v-272q-1 -159 -59 -218t-210 -59h-44q-158 0 -217.5 59t-61.5 217v271q-46 8 -67 13v154h357v-154q-31 -8 -73 -13v-293q0 -36 20 -57t56 -21h24q35 0 55.5 21t21.5 57v296q-17 2 -51 10v154h303z" />
    <glyph glyph-name="umacron" unicode="&#x16b;" horiz-adv-x="688" 
d="M480 718v-114h-316v114h316zM616 541v-383q24 -4 54 -12v-145h-262v76q-110 -77 -180 -77h-14q-76 0 -108 34t-32 115v235q-13 2 -55 12v145h262v-277q0 -60 7 -74t41 -14h12q29 0 67 21v187l-54 12v145h262z" />
    <glyph glyph-name="Uring" unicode="&#x16e;" horiz-adv-x="741" 
d="M407 719h-49q-46 0 -71.5 24.5t-25.5 71.5v33q0 97 97 97h49q97 0 97 -97v-33q-2 -96 -97 -96zM366 792h32q23 0 27 26v28q0 29 -27 29h-32q-27 0 -27 -29v-28q0 -26 27 -26zM727 700v-154q-18 -5 -54 -11v-272q-1 -159 -59 -218t-210 -59h-44q-158 0 -217.5 59
t-61.5 217v271q-46 8 -67 13v154h357v-154q-31 -8 -73 -13v-293q0 -36 20 -57t56 -21h24q35 0 55.5 21t21.5 57v296q-17 2 -51 10v154h303z" />
    <glyph glyph-name="uring" unicode="&#x16f;" horiz-adv-x="688" 
d="M349 583h-47q-87 0 -87 87v30q0 88 87 88h47q87 0 87 -88v-30q0 -87 -87 -87zM310 649h29q22 0 25 24v25q0 27 -25 27h-29q-24 0 -24 -27v-25q0 -24 24 -24zM616 541v-383q24 -4 54 -12v-145h-262v76q-110 -77 -180 -77h-14q-76 0 -108 34t-32 115v235q-13 2 -55 12v145
h262v-277q0 -60 7 -74t41 -14h12q29 0 67 21v187l-54 12v145h262z" />
    <glyph glyph-name="Uhungarumlaut" unicode="&#x170;" horiz-adv-x="741" 
d="M442 889v-25l-155 -123l-76 52l115 153zM635 889v-25l-153 -123l-78 52l117 153zM727 700v-154q-18 -5 -54 -11v-272q-1 -159 -59 -218t-210 -59h-44q-158 0 -217.5 59t-61.5 217v271q-46 8 -67 13v154h357v-154q-31 -8 -73 -13v-293q0 -36 20 -57t56 -21h24
q35 0 55.5 21t21.5 57v296q-17 2 -51 10v154h303z" />
    <glyph glyph-name="uhungarumlaut" unicode="&#x171;" horiz-adv-x="688" 
d="M393 732v-25l-148 -117l-72 50l109 146zM577 732v-25l-146 -117l-74 50l111 146zM616 541v-383q24 -4 54 -12v-145h-262v76q-110 -77 -180 -77h-14q-76 0 -108 34t-32 115v235q-13 2 -55 12v145h262v-277q0 -60 7 -74t41 -14h12q29 0 67 21v187l-54 12v145h262z" />
    <glyph glyph-name="Uogonek" unicode="&#x172;" horiz-adv-x="741" 
d="M727 700v-154q-18 -5 -54 -11v-272q-2 -151 -53 -211t-184 -65q-33 -37 -33 -47v-5q0 -14 17 -14q30 0 63 3l27 -57q-27 -20 -61.5 -34t-57.5 -14h-25q-85 0 -85 75v23q0 41 53 69q-142 4 -196.5 64t-56.5 212v271q-46 8 -67 13v154h357v-154q-31 -8 -73 -13v-293
q0 -36 20 -57t56 -21h24q35 0 55.5 21t21.5 57v296q-17 2 -51 10v154h303z" />
    <glyph glyph-name="uogonek" unicode="&#x173;" horiz-adv-x="688" 
d="M670 1h-84q-46 -50 -46 -61v-5q0 -14 17 -14q30 0 63 3l27 -57q-27 -20 -61.5 -34t-57.5 -14h-25q-85 0 -85 75v23q0 52 86 84h-96v76q-110 -77 -180 -77h-14q-76 0 -108 34t-32 115v235q-13 2 -55 12v145h262v-277q0 -60 7 -74t41 -14h12q29 0 67 21v187l-54 12v145h262
v-383q24 -4 54 -12v-145z" />
    <glyph glyph-name="Wcircumflex" unicode="&#x174;" horiz-adv-x="1003" 
d="M646 734l-128 82l-128 -82l-63 55l124 139h134l124 -139zM1000 700v-154q-31 -9 -53 -11l-136 -535h-268l-50 296h-3l-59 -296h-248l-132 536q-32 6 -48 10v154h333v-154q-5 -1 -52 -10l53 -281h7l92 445h164l86 -439h6l62 275q-44 8 -51 10v154h297z" />
    <glyph glyph-name="wcircumflex" unicode="&#x175;" horiz-adv-x="902" 
d="M574 583l-123 79l-123 -79l-59 53l119 131h126l119 -131zM891 541v-145q-13 -4 -49 -11l-96 -385h-246l-69 211l-58 -211h-217l-96 385q-34 7 -49 11v145h270v-145q-6 -2 -18 -4t-18 -4l38 -200h2l87 353h157l101 -353h1l39 197q-11 2 -49 11v145h270z" />
    <glyph glyph-name="Ycircumflex" unicode="&#x176;" horiz-adv-x="718" 
d="M492 734l-128 82l-128 -82l-63 55l124 139h134l124 -139zM333 700v-154q-6 -1 -17.5 -3.5t-17.5 -3.5l67 -139h2l77 137q-22 3 -44 9v154h306v-154q-38 -10 -69 -14l-176 -296v-69q38 -5 68 -13v-154h-348v154q24 6 64 13v60l-177 307q-30 5 -56 12v154h321z" />
    <glyph glyph-name="ycircumflex" unicode="&#x177;" horiz-adv-x="681" 
d="M463 583l-123 79l-123 -79l-59 53l119 131h126l119 -131zM675 541v-145q-23 -6 -68 -15l-191 -424q16 0 48 -4v-146h-351v146q17 2 84 7l24 48l-164 377q-20 4 -50 11v145h336v-145q-21 -6 -61 -11l69 -195h2l92 195q-8 2 -48 11v145h278z" />
    <glyph glyph-name="Ydieresis" unicode="&#x178;" horiz-adv-x="718" 
d="M244 743q-44 0 -73.5 25.5t-29.5 66.5q0 42 29.5 68t73.5 26q43 0 72 -26t29 -68q0 -41 -29 -66.5t-72 -25.5zM485 743q-42 0 -71 26t-29 66q0 42 29 68t71 26q44 0 73.5 -26t29.5 -68q0 -41 -29.5 -66.5t-73.5 -25.5zM333 700v-154q-6 -1 -17.5 -3.5t-17.5 -3.5l67 -139
h2l77 137q-22 3 -44 9v154h306v-154q-38 -10 -69 -14l-176 -296v-69q38 -5 68 -13v-154h-348v154q24 6 64 13v60l-177 307q-30 5 -56 12v154h321z" />
    <glyph glyph-name="Zacute" unicode="&#x179;" horiz-adv-x="630" 
d="M474 869v-28l-190 -111l-89 55l122 161zM606 553l-301 -388h133l27 112h149v-277h-598v121q0 51 34 88l294 327h-152l-27 -95h-149v259h590v-147z" />
    <glyph glyph-name="zacute" unicode="&#x17a;" horiz-adv-x="570" 
d="M447 712v-27l-182 -106l-85 53l117 154zM549 396l-263 -250h125l23 62h115v-208h-530v106q0 61 49 98l234 192h-135l-11 -54h-117v199h510v-145z" />
    <glyph glyph-name="Zdotaccent" unicode="&#x17b;" horiz-adv-x="630" 
d="M313 740q-44 0 -74 26.5t-30 68.5q0 43 30 70.5t74 27.5q46 0 76.5 -27t30.5 -71q0 -42 -30.5 -68.5t-76.5 -26.5zM606 553l-301 -388h133l27 112h149v-277h-598v121q0 51 34 88l294 327h-152l-27 -95h-149v259h590v-147z" />
    <glyph glyph-name="zdotaccent" unicode="&#x17c;" horiz-adv-x="570" 
d="M293 584q-44 0 -74 26.5t-30 69.5t30 70t74 27q46 0 76.5 -27t30.5 -70t-30.5 -69.5t-76.5 -26.5zM549 396l-263 -250h125l23 62h115v-208h-530v106q0 61 49 98l234 192h-135l-11 -54h-117v199h510v-145z" />
    <glyph glyph-name="Zcaron" unicode="&#x17d;" horiz-adv-x="630" 
d="M378 739h-126l-119 131l59 53l123 -79l123 79l59 -53zM606 553l-301 -388h133l27 112h149v-277h-598v121q0 51 34 88l294 327h-152l-27 -95h-149v259h590v-147z" />
    <glyph glyph-name="zcaron" unicode="&#x17e;" horiz-adv-x="570" 
d="M358 583h-126l-119 131l59 53l123 -79l123 79l59 -53zM549 396l-263 -250h125l23 62h115v-208h-530v106q0 61 49 98l234 192h-135l-11 -54h-117v199h510v-145z" />
    <glyph glyph-name="florin" unicode="&#x192;" horiz-adv-x="526" 
d="M485 461v-160h-137l-25 -152q-13 -78 -47.5 -114.5t-105.5 -50.5q-36 -7 -138 -7l-24 112l37 11q35 11 43.5 17.5t13.5 22.5l27 161h-62v142q63 12 88 14l15 94q13 79 48 115.5t106 49.5q65 13 177 19l18 -142q-19 -5 -77 -22q-34 -10 -43.5 -17t-13.5 -23l-11 -70h111z
" />
    <glyph glyph-name="Scommaaccent" unicode="&#x218;" horiz-adv-x="642" 
d="M213 225l23 -70q36 -7 82 -7h18q40 0 52.5 8t14.5 32v9q0 21 -13.5 31t-58.5 23l-180 46q-74 22 -101 61.5t-27 133.5v8q0 112 64 163t206 51h39q120 0 267 -33v-214h-172l-23 74q-19 9 -64 9h-43q-27 0 -37.5 -8.5t-10.5 -30.5v-6q0 -31 35 -39l194 -48q79 -20 110 -59
t31 -117v-43q0 -110 -65 -161.5t-205 -51.5h-57q-68 0 -113.5 8t-146.5 35v196h181zM248 -155l14 66q9 44 54 36q44 -6 62.5 -19.5t18.5 -43.5q0 -34 -10.5 -59.5t-38.5 -57.5q-42 -47 -61 -62l-37 27q28 60 34 96z" />
    <glyph glyph-name="scommaaccent" unicode="&#x219;" horiz-adv-x="552" 
d="M21 369v20q0 85 56 125t172 40h19q147 0 244 -32v-156h-170l-14 48q-25 4 -59 4q-52 0 -52 -26v-5q0 -14 19 -21t91 -20q32 -5 51 -9q82 -15 117.5 -47.5t35.5 -82.5v-36q0 -96 -55.5 -140.5t-171.5 -44.5h-39q-164 0 -244 52v155h167l5 -34q6 -17 25 -26.5t40 -9.5h27
q41 0 41 35v6q0 20 -22.5 28t-126.5 27q-90 16 -123 51.5t-33 98.5zM203 -155l14 66q9 44 54 36q44 -6 62.5 -19.5t18.5 -43.5q0 -34 -10.5 -59.5t-38.5 -57.5q-42 -47 -61 -62l-37 27q28 60 34 96z" />
    <glyph glyph-name="uni021A" unicode="&#x21a;" horiz-adv-x="699" 
d="M545 455l-22 78h-65v-366q43 -5 71 -13v-154h-354v154q12 3 67 13v366h-66l-21 -78h-145v245h680v-245h-145zM276 -155l14 66q9 44 54 36q44 -6 62.5 -19.5t18.5 -43.5q0 -34 -10.5 -59.5t-38.5 -57.5q-42 -47 -61 -62l-37 27q28 60 34 96z" />
    <glyph glyph-name="uni021B" unicode="&#x21b;" horiz-adv-x="467" 
d="M332 162h10q64 0 97 3v-122q-31 -23 -93.5 -40t-115.5 -17h-13q-64 0 -101.5 40t-37.5 109v255h-61v138h23q31 0 54 29.5t23 73.5v38q77 17 169 18v-146h148v-151h-148v-144q0 -57 7 -70.5t39 -13.5zM158 -155l14 66q9 44 54 36q44 -6 62.5 -19.5t18.5 -43.5
q0 -34 -10.5 -59.5t-38.5 -57.5q-42 -47 -61 -62l-37 27q28 60 34 96z" />
    <glyph glyph-name="circumflex" unicode="&#x2c6;" 
d="M372 583l-123 79l-123 -79l-59 53l119 131h126l119 -131z" />
    <glyph glyph-name="caron" unicode="&#x2c7;" 
d="M313 583h-126l-119 131l59 53l123 -79l123 79l59 -53z" />
    <glyph glyph-name="breve" unicode="&#x2d8;" 
d="M422 753v-28q0 -65 -46 -104t-126 -39q-81 0 -127 39t-46 104v28h112v-5q0 -43 61 -43t61 43v5h111z" />
    <glyph glyph-name="dotaccent" unicode="&#x2d9;" 
d="M248 584q-44 0 -74 26.5t-30 69.5t30 70t74 27q46 0 76.5 -27t30.5 -70t-30.5 -69.5t-76.5 -26.5z" />
    <glyph glyph-name="ring" unicode="&#x2da;" 
d="M273 574h-47q-87 0 -87 87v30q0 88 87 88h47q87 0 87 -88v-30q0 -87 -87 -87zM234 640h29q22 0 25 24v25q0 27 -25 27h-29q-24 0 -24 -27v-25q0 -24 24 -24z" />
    <glyph glyph-name="ogonek" unicode="&#x2db;" 
d="M254 9h65q-54 -57 -54 -69v-5q0 -14 17 -14q30 0 63 3l27 -57q-27 -20 -61.5 -34t-57.5 -14h-25q-85 0 -85 75v23q0 61 111 92z" />
    <glyph glyph-name="tilde" unicode="&#x2dc;" 
d="M454 700l-75 -85q-25 -25 -66 -25q-17 0 -37 10t-31.5 18t-43.5 33l-89 -54l-59 52l73 84q25 28 67 28q11 0 22 -3t19 -6t20.5 -11t17 -11.5t19 -14.5t16.5 -13l88 50z" />
    <glyph glyph-name="hungarumlaut" unicode="&#x2dd;" 
d="M268 732v-25l-148 -117l-72 50l109 146zM452 732v-25l-146 -117l-74 50l111 146z" />
    <glyph glyph-name="commaaccentcomb" unicode="&#x326;" horiz-adv-x="0" 
d="M168 -155l14 66q9 44 54 36q44 -6 62.5 -19.5t18.5 -43.5q0 -34 -10.5 -59.5t-38.5 -57.5q-42 -47 -61 -62l-37 27q28 60 34 96z" />
    <glyph glyph-name="Wgrave" unicode="&#x1e80;" horiz-adv-x="1003" 
d="M626 788l-85 -53l-182 106v27l150 74zM1000 700v-154q-31 -9 -53 -11l-136 -535h-268l-50 296h-3l-59 -296h-248l-132 536q-32 6 -48 10v154h333v-154q-5 -1 -52 -10l53 -281h7l92 445h164l86 -439h6l62 275q-44 8 -51 10v154h297z" />
    <glyph glyph-name="wgrave" unicode="&#x1e81;" horiz-adv-x="902" 
d="M558 632l-85 -53l-182 106v27l150 74zM891 541v-145q-13 -4 -49 -11l-96 -385h-246l-69 211l-58 -211h-217l-96 385q-34 7 -49 11v145h270v-145q-6 -2 -18 -4t-18 -4l38 -200h2l87 353h157l101 -353h1l39 197q-11 2 -49 11v145h270z" />
    <glyph glyph-name="Wacute" unicode="&#x1e82;" horiz-adv-x="1003" 
d="M678 869v-28l-190 -111l-89 55l122 161zM1000 700v-154q-31 -9 -53 -11l-136 -535h-268l-50 296h-3l-59 -296h-248l-132 536q-32 6 -48 10v154h333v-154q-5 -1 -52 -10l53 -281h7l92 445h164l86 -439h6l62 275q-44 8 -51 10v154h297z" />
    <glyph glyph-name="wacute" unicode="&#x1e83;" horiz-adv-x="902" 
d="M603 712v-27l-182 -106l-85 53l117 154zM891 541v-145q-13 -4 -49 -11l-96 -385h-246l-69 211l-58 -211h-217l-96 385q-34 7 -49 11v145h270v-145q-6 -2 -18 -4t-18 -4l38 -200h2l87 353h157l101 -353h1l39 197q-11 2 -49 11v145h270z" />
    <glyph glyph-name="Wdieresis" unicode="&#x1e84;" horiz-adv-x="1003" 
d="M398 743q-44 0 -73.5 25.5t-29.5 66.5q0 42 29.5 68t73.5 26q43 0 72 -26t29 -68q0 -41 -29 -66.5t-72 -25.5zM639 743q-42 0 -71 26t-29 66q0 42 29 68t71 26q44 0 73.5 -26t29.5 -68q0 -41 -29.5 -66.5t-73.5 -25.5zM1000 700v-154q-31 -9 -53 -11l-136 -535h-268
l-50 296h-3l-59 -296h-248l-132 536q-32 6 -48 10v154h333v-154q-5 -1 -52 -10l53 -281h7l92 445h164l86 -439h6l62 275q-44 8 -51 10v154h297z" />
    <glyph glyph-name="wdieresis" unicode="&#x1e85;" horiz-adv-x="902" 
d="M342 597q-40 0 -67.5 23t-27.5 60t27.5 61t67.5 24q39 0 65.5 -23.5t26.5 -61.5q0 -37 -26.5 -60t-65.5 -23zM561 597q-39 0 -65 23t-26 60q0 38 26.5 61.5t64.5 23.5q40 0 67.5 -23.5t27.5 -61.5q0 -37 -27 -60t-68 -23zM891 541v-145q-13 -4 -49 -11l-96 -385h-246
l-69 211l-58 -211h-217l-96 385q-34 7 -49 11v145h270v-145q-6 -2 -18 -4t-18 -4l38 -200h2l87 353h157l101 -353h1l39 197q-11 2 -49 11v145h270z" />
    <glyph glyph-name="Ygrave" unicode="&#x1ef2;" horiz-adv-x="718" 
d="M471 788l-85 -53l-182 106v27l150 74zM333 700v-154q-6 -1 -17.5 -3.5t-17.5 -3.5l67 -139h2l77 137q-22 3 -44 9v154h306v-154q-38 -10 -69 -14l-176 -296v-69q38 -5 68 -13v-154h-348v154q24 6 64 13v60l-177 307q-30 5 -56 12v154h321z" />
    <glyph glyph-name="ygrave" unicode="&#x1ef3;" horiz-adv-x="681" 
d="M446 632l-85 -53l-182 106v27l150 74zM675 541v-145q-23 -6 -68 -15l-191 -424q16 0 48 -4v-146h-351v146q17 2 84 7l24 48l-164 377q-20 4 -50 11v145h336v-145q-21 -6 -61 -11l69 -195h2l92 195q-8 2 -48 11v145h278z" />
    <glyph glyph-name="uni2009" unicode="&#x2009;" horiz-adv-x="73" 
 />
    <glyph glyph-name="uni200A" unicode="&#x200a;" horiz-adv-x="542" 
 />
    <glyph glyph-name="endash" unicode="&#x2013;" horiz-adv-x="448" 
d="M424 393v-160h-400v160h400z" />
    <glyph glyph-name="emdash" unicode="&#x2014;" horiz-adv-x="613" 
d="M589 393v-160h-565v160h565z" />
    <glyph glyph-name="quoteleft" unicode="&#x2018;" horiz-adv-x="239" 
d="M223 536l-25 -111q-15 -60 -75 -50t-85 28.5t-25 59.5q0 66 46 132t104 113l51 -37q-34 -77 -40 -113z" />
    <glyph glyph-name="quoteright" unicode="&#x2019;" horiz-adv-x="239" 
d="M14 547l25 111q15 60 75 50t85 -28.5t25 -59.5q0 -66 -46 -132t-104 -113l-51 37q34 77 40 113z" />
    <glyph glyph-name="quotesinglbase" unicode="&#x201a;" horiz-adv-x="260" 
d="M15 23l26 116q14 62 78 52q63 -10 89 -29.5t26 -62.5q0 -69 -48.5 -138t-108.5 -118l-53 39q36 82 42 118z" />
    <glyph glyph-name="quotedblleft" unicode="&#x201c;" horiz-adv-x="463" 
d="M226 531l-26 -116q-14 -62 -78 -52q-63 10 -89 29.5t-26 62.5q0 69 48.5 138t108.5 118l53 -39q-36 -82 -42 -118zM448 531l-26 -116q-14 -62 -78 -52q-63 10 -89 29.5t-26 62.5q0 69 48.5 138t108.5 118l53 -39q-36 -82 -42 -118z" />
    <glyph glyph-name="quotedblright" unicode="&#x201d;" horiz-adv-x="463" 
d="M9 542l26 116q14 62 78 52q63 -10 89 -29.5t26 -62.5q0 -69 -48.5 -138t-108.5 -118l-53 39q36 82 42 118zM230 542l26 116q14 62 78 52q63 -10 89 -29.5t26 -62.5q0 -69 -48.5 -138t-108.5 -118l-53 39q36 82 42 118z" />
    <glyph glyph-name="quotedblbase" unicode="&#x201e;" horiz-adv-x="473" 
d="M15 23l26 116q14 62 78 52q63 -10 89 -29.5t26 -62.5q0 -69 -48.5 -138t-108.5 -118l-53 39q36 82 42 118zM239 23l26 116q14 62 78 52q63 -10 89 -29.5t26 -62.5q0 -69 -48.5 -138t-108.5 -118l-53 39q36 82 42 118z" />
    <glyph glyph-name="dagger" unicode="&#x2020;" horiz-adv-x="437" 
d="M423 420h-66l-112 48l48 -109v-47l-60 -345h-29l-61 345v47l49 110l-113 -49h-66v150h66l112 -48l-48 111v67h150v-67l-48 -111l112 48h66v-150z" />
    <glyph glyph-name="daggerdbl" unicode="&#x2021;" horiz-adv-x="437" 
d="M245 468l48 -109v-55l-48 -109l112 48h66v-150h-66l-112 48l48 -111v-67h-150v67l48 112l-112 -49h-66v150h66l113 -48l-49 109v55l49 110l-113 -49h-66v150h66l112 -48l-48 111v67h150v-67l-48 -111l112 48h66v-150h-66z" />
    <glyph glyph-name="bullet" unicode="&#x2022;" horiz-adv-x="320" 
d="M179 134q-93 0 -137 40.5t-44 126.5q0 87 44.5 128t136.5 41q93 0 137.5 -41t44.5 -128q0 -86 -44.5 -126.5t-137.5 -40.5z" />
    <glyph glyph-name="ellipsis" unicode="&#x2026;" horiz-adv-x="784" 
d="M130 206q115 0 115 -107q0 -55 -28 -80.5t-87 -25.5t-87 25.5t-28 80.5q0 107 115 107zM392 206q115 0 115 -107q0 -55 -28 -80.5t-87 -25.5t-87 25.5t-28 80.5q0 107 115 107zM654 206q115 0 115 -107q0 -55 -28 -80.5t-87 -25.5t-87 25.5t-28 80.5q0 107 115 107z" />
    <glyph glyph-name="perthousand" unicode="&#x2030;" horiz-adv-x="1459" 
d="M312 -19h-76l241 366l231 379h76l-249 -379zM195 714h73q93 -1 129.5 -40t36.5 -136v-95q-2 -95 -38.5 -133.5t-127.5 -38.5h-73q-94 0 -132 38.5t-40 132.5v96q0 97 38 136.5t134 39.5zM252 587h-47q-24 0 -32 -9.5t-8 -35.5v-101q0 -25 8 -33.5t32 -8.5h47q23 0 31 8.5
t9 33.5v101q0 26 -8.5 35.5t-31.5 9.5zM756 429h74q92 -1 128.5 -40t36.5 -136v-96q-2 -95 -38.5 -133t-126.5 -38h-74q-94 0 -131.5 38t-39.5 133v96q0 97 38 136.5t133 39.5zM1269 -14h-73q-94 0 -132 38t-40 133v96q0 97 38 136.5t134 39.5h73q93 -1 129.5 -40t36.5 -136
v-96q-2 -95 -38.5 -133t-127.5 -38zM814 301h-48q-23 0 -31 -9.5t-8 -35.5v-101q0 -24 8 -33t31 -9h48q22 0 30.5 9t9.5 33v101q0 26 -8.5 35.5t-31.5 9.5zM1205 113h48q22 0 30.5 9t9.5 33v101q0 26 -8.5 35.5t-31.5 9.5h-48q-23 0 -31 -9.5t-8 -35.5v-101q0 -24 8 -33
t31 -9z" />
    <glyph glyph-name="guilsinglleft" unicode="&#x2039;" horiz-adv-x="307" 
d="M211 259l76 -142v-63h-127l-141 205v12l141 205h127v-65l-76 -140v-12z" />
    <glyph glyph-name="guilsinglright" unicode="&#x203a;" horiz-adv-x="307" 
d="M95 271l-76 140v65h127l141 -205v-12l-141 -205h-127v63l76 142v12z" />
    <glyph glyph-name="fraction" unicode="&#x2044;" horiz-adv-x="241" 
d="M399 726l-249 -379l-223 -366h-76l241 366l231 379h76z" />
    <glyph glyph-name="zeroinferior" unicode="&#x2080;" horiz-adv-x="447" 
d="M257 -119h-78q-89 0 -125.5 35.5t-38.5 124.5v101q0 91 36.5 128t127.5 37h78q87 -1 122 -37.5t35 -127.5v-101q-2 -89 -37 -124.5t-120 -35.5zM203 -11h23q26 0 35.5 11t9.5 42v102q0 31 -9.5 42.5t-35.5 11.5h-23q-26 0 -35.5 -11.5t-9.5 -42.5v-102q0 -31 9.5 -42
t35.5 -11z" />
    <glyph glyph-name="oneinferior" unicode="&#x2081;" horiz-adv-x="338" 
d="M253 309v-315q33 -3 60 -9v-99h-285v99q34 8 75 11v194l-83 -4v89l148 34h85z" />
    <glyph glyph-name="twoinferior" unicode="&#x2082;" horiz-adv-x="407" 
d="M375 -114h-355v97q0 51 13 80.5t43 46.5q31 16 104 32q39 8 51.5 14t12.5 19v5q0 11 -4.5 14.5t-20.5 3.5q-46 0 -69 -2l-10 -33h-106v125q73 14 104 17.5t90 3.5q82 0 116 -26t34 -97v-36q0 -72 -87 -97l-47 -12q-9 -2 -23 -5.5t-21 -5t-16.5 -4.5t-14 -6t-9 -7.5
t-6.5 -10t-2 -13.5h118l11 42h94v-145z" />
    <glyph glyph-name="threeinferior" unicode="&#x2083;" horiz-adv-x="398" 
d="M369 192v-15q0 -79 -63 -98q34 -4 48.5 -19.5t14.5 -52.5v-10q0 -64 -38.5 -90t-130.5 -26q-86 0 -183 17v125h99l10 -32q28 -2 77 -2q18 0 24 5.5t6 19.5v9q0 16 -10 21.5t-35 5.5h-78v89h79q24 0 34 5.5t10 19.5v11q0 14 -6.5 19.5t-23.5 5.5q-31 0 -81 -2l-10 -32h-94
v125q99 18 182 18q95 0 132 -25.5t37 -91.5z" />
    <glyph glyph-name="fourinferior" unicode="&#x2084;" horiz-adv-x="437" 
d="M355 11v-22q31 -3 58 -9v-94h-270v94q21 4 62 10v21h-198v101l198 188h150v-188h58v-90zM126 112h79v92z" />
    <glyph glyph-name="fiveinferior" unicode="&#x2085;" horiz-adv-x="413" 
d="M370 168h-94l-6 25h-113l-3 -65q41 20 73 20h35q60 0 91.5 -24t31.5 -85v-37q0 -121 -149 -121h-22q-69 0 -194 20v123h95l5 -34q22 -2 60 -2h33q31 0 31 26v26q0 26 -26 26h-33q-24 0 -52 -24l-107 30l7 227h337v-131z" />
    <glyph glyph-name="sixinferior" unicode="&#x2086;" horiz-adv-x="440" 
d="M250 143h38q65 0 94.5 -28.5t29.5 -86.5v-26q0 -64 -39.5 -92.5t-120.5 -28.5h-50q-186 0 -186 179v72q0 86 46 133.5t128 47.5h25q67 0 178 -20v-125h-118l-15 27q-25 3 -47 3q-52 0 -52 -53v-19q49 17 89 17zM161 48v-20q0 -40 49 -37h36q30 0 30 28v19q0 26 -28 26
h-27q-24 0 -60 -16z" />
    <glyph glyph-name="seveninferior" unicode="&#x2087;" horiz-adv-x="379" 
d="M372 193l-134 -307h-175v21l166 286h-113l-16 -42h-93v148h365v-106z" />
    <glyph glyph-name="eightinferior" unicode="&#x2088;" horiz-adv-x="433" 
d="M392 197v-15q0 -69 -56 -85q74 -17 74 -86v-10q0 -66 -36 -93t-121 -27h-71q-88 0 -126.5 27t-39.5 93v10q0 68 77 86q-59 16 -59 85v15q1 59 36 85t115 26h63q77 0 110.5 -26t33.5 -85zM163 184v-19q0 -14 7 -19.5t24 -5.5h41q16 0 22.5 5.5t6.5 19.5v19q0 26 -30 26
h-40q-17 0 -24 -5.5t-7 -20.5zM266 12v19q0 26 -30 26h-44q-17 0 -24 -6t-7 -20v-19q0 -15 7 -21.5t25 -5.5h42q31 0 31 27z" />
    <glyph glyph-name="nineinferior" unicode="&#x2089;" horiz-adv-x="427" 
d="M173 37h-34q-66 0 -95 24.5t-29 81.5v50q0 57 39 88.5t109 31.5h66q90 0 131 -40.5t43 -131.5v-85q0 -175 -174 -175h-20q-54 0 -172 20v111h117l8 -26q13 -4 48 -4q52 0 52 54v28q-38 -27 -89 -27zM262 145v30q0 32 -49 30h-37q-29 0 -29 -28v-14q0 -28 28 -28h23
q47 0 64 10z" />
    <glyph glyph-name="Euro" unicode="&#x20ac;" horiz-adv-x="625" 
d="M452 491l-6 43q-24 8 -93 8q-37 0 -58.5 -18t-21.5 -53v-19h188l-19 -82h-169v-36h162l-18 -82h-144v-15q1 -37 21 -56.5t56 -18.5h19q60 0 84 54h151v-141q-121 -89 -225 -89h-53q-269 0 -269 247v19h-48v82h47v36h-47v82h47v7q0 132 69.5 193.5t204.5 61.5h36
q113 0 240 -32v-191h-154z" />
    <glyph glyph-name="uni2116" unicode="&#x2116;" horiz-adv-x="1362" 
d="M1036 704h29q124 -1 169.5 -48.5t45.5 -177.5v-20q-1 -127 -46.5 -173.5t-167.5 -46.5h-30q-127 0 -174 46.5t-48 172.5v21q0 131 47 178.5t175 47.5zM781 700v-154q-38 -10 -68 -14v-532h-221l-215 339v-175q18 -2 49 -10v-154h-303v154q30 8 64 13v364q-30 5 -68 15
v154h267l237 -362v197q-16 3 -50 11v154h308zM1061 580h-30q-28 0 -38.5 -12.5t-10.5 -44.5v-107q0 -30 10.5 -41t38.5 -11h30q29 0 40 11t11 41v107q0 33 -10.5 45t-40.5 12zM1268 0h-449v162h449v-162z" />
    <glyph glyph-name="trademark" unicode="&#x2122;" horiz-adv-x="697" 
d="M286 588h-57l-9 37h-25v-116q5 -1 15 -2.5t15 -2.5v-75h-149v75q7 2 25 4v117h-24l-8 -37h-57v112h274v-112zM685 700v-69q-4 -1 -13 -2t-14 -2v-119q18 -2 25 -4v-75h-138v75l20 3v106l-52 -184h-53l-53 184v-106l18 -3v-75h-127v75q5 1 14.5 2.5t13.5 2.5v117l-30 5v69
h146l44 -132h2l42 132h155z" />
    <glyph glyph-name="oneeighth" unicode="&#x215b;" horiz-adv-x="877" 
d="M688 726l-249 -379l-223 -366h-76l241 366l231 379h76zM257 710v-315q33 -3 60 -9v-99h-285v99q34 8 75 11v194l-83 -4v89l148 34h85zM840 311v-15q0 -69 -56 -85q74 -17 74 -86v-10q0 -66 -36 -93t-121 -27h-71q-88 0 -126.5 27t-39.5 93v10q0 68 77 86q-59 16 -59 85
v15q1 59 36 85t115 26h63q77 0 110.5 -26t33.5 -85zM611 298v-19q0 -14 7 -19.5t24 -5.5h41q16 0 22.5 5.5t6.5 19.5v19q0 26 -30 26h-40q-17 0 -24 -5.5t-7 -20.5zM714 126v19q0 26 -30 26h-44q-17 0 -24 -6t-7 -20v-19q0 -15 7 -21.5t25 -5.5h42q31 0 31 27z" />
    <glyph glyph-name="threeeighths" unicode="&#x215c;" horiz-adv-x="903" 
d="M715 726l-249 -379l-223 -366h-76l241 366l231 379h76zM373 593v-15q0 -79 -63 -98q34 -4 48.5 -19.5t14.5 -52.5v-10q0 -64 -38.5 -90t-130.5 -26q-86 0 -183 17v125h99l10 -32q28 -2 77 -2q18 0 24 5.5t6 19.5v9q0 16 -10 21.5t-35 5.5h-78v89h79q24 0 34 5.5t10 19.5
v11q0 14 -6.5 19.5t-23.5 5.5q-31 0 -81 -2l-10 -32h-94v125q99 18 182 18q95 0 132 -25.5t37 -91.5zM866 311v-15q0 -69 -56 -85q74 -17 74 -86v-10q0 -66 -36 -93t-121 -27h-71q-88 0 -126.5 27t-39.5 93v10q0 68 77 86q-59 16 -59 85v15q1 59 36 85t115 26h63
q77 0 110.5 -26t33.5 -85zM637 298v-19q0 -14 7 -19.5t24 -5.5h41q16 0 22.5 5.5t6.5 19.5v19q0 26 -30 26h-40q-17 0 -24 -5.5t-7 -20.5zM740 126v19q0 26 -30 26h-44q-17 0 -24 -6t-7 -20v-19q0 -15 7 -21.5t25 -5.5h42q31 0 31 27z" />
    <glyph glyph-name="fiveeighths" unicode="&#x215d;" horiz-adv-x="909" 
d="M722 726l-249 -379l-223 -366h-76l241 366l231 379h76zM374 700v-131h-94l-6 25h-113l-3 -65q41 20 73 20h35q60 0 91.5 -24t31.5 -85v-37q0 -121 -149 -121h-22q-69 0 -194 20v123h95l5 -34q22 -2 60 -2h33q31 0 31 26v26q0 26 -26 26h-33q-24 0 -52 -24l-107 30l7 227
h337zM872 311v-15q0 -69 -56 -85q74 -17 74 -86v-10q0 -66 -36 -93t-121 -27h-71q-88 0 -126.5 27t-39.5 93v10q0 68 77 86q-59 16 -59 85v15q1 59 36 85t115 26h63q77 0 110.5 -26t33.5 -85zM643 298v-19q0 -14 7 -19.5t24 -5.5h41q16 0 22.5 5.5t6.5 19.5v19q0 26 -30 26
h-40q-17 0 -24 -5.5t-7 -20.5zM746 126v19q0 26 -30 26h-44q-17 0 -24 -6t-7 -20v-19q0 -15 7 -21.5t25 -5.5h42q31 0 31 27z" />
    <glyph glyph-name="seveneighths" unicode="&#x215e;" horiz-adv-x="822" 
d="M633 726l-249 -379l-223 -366h-76l241 366l231 379h76zM372 594l-134 -307h-175v21l166 286h-113l-16 -42h-93v148h365v-106zM785 311v-15q0 -69 -56 -85q74 -17 74 -86v-10q0 -66 -36 -93t-121 -27h-71q-88 0 -126.5 27t-39.5 93v10q0 68 77 86q-59 16 -59 85v15
q1 59 36 85t115 26h63q77 0 110.5 -26t33.5 -85zM556 298v-19q0 -14 7 -19.5t24 -5.5h41q16 0 22.5 5.5t6.5 19.5v19q0 26 -30 26h-40q-17 0 -24 -5.5t-7 -20.5zM659 126v19q0 26 -30 26h-44q-17 0 -24 -6t-7 -20v-19q0 -15 7 -21.5t25 -5.5h42q31 0 31 27z" />
    <glyph glyph-name="arrowleft" unicode="&#x2190;" horiz-adv-x="741" 
d="M729 253h-415l169 -154l-123 -123l-345 345v52l345 345l123 -123l-164 -151h410v-191z" />
    <glyph glyph-name="arrowup" unicode="&#x2191;" horiz-adv-x="773" 
d="M762 370l-123 -124l-155 169v-415h-191v411l-151 -165l-123 124l346 344h52z" />
    <glyph glyph-name="arrowright" unicode="&#x2192;" horiz-adv-x="741" 
d="M423 444l-164 151l123 123l344 -345v-52l-344 -345l-123 123l168 154h-415v191h411z" />
    <glyph glyph-name="arrowdown" unicode="&#x2193;" horiz-adv-x="773" 
d="M413 -14h-52l-346 344l123 124l151 -165v411h191v-415l155 169l123 -124z" />
    <glyph glyph-name="arrowupleft" unicode="&#x2196;" horiz-adv-x="682" 
d="M334 470l317 -317l-135 -136l-320 321l10 -229h-174v488l37 37h488v-174z" />
    <glyph glyph-name="arrowupright" unicode="&#x2197;" horiz-adv-x="682" 
d="M125 441v174h488l37 -37v-488h-174l10 229l-320 -321l-135 136l317 317z" />
    <glyph glyph-name="arrowdownright" unicode="&#x2198;" horiz-adv-x="682" 
d="M348 164l-317 317l135 136l320 -321l-10 229h174v-488l-37 -37h-488v174z" />
    <glyph glyph-name="arrowdownleft" unicode="&#x2199;" horiz-adv-x="682" 
d="M557 174v-174h-488l-37 37v488h174l-10 -229l320 321l135 -136l-317 -317z" />
    <glyph glyph-name="minus" unicode="&#x2212;" horiz-adv-x="580" 
d="M25 432h530v-169h-530v169z" />
    <glyph glyph-name="J.ss01" horiz-adv-x="587" 
d="M570 700v-154q-29 -8 -68 -13v-291q0 -139 -52.5 -196.5t-170.5 -57.5h-33q-126 0 -235 60v168h169q10 -32 19.5 -43t30.5 -11h13q27 0 34.5 12t7.5 46v313q-90 11 -97 13v154h382z" />
    <glyph glyph-name="K.ss02" horiz-adv-x="776" 
d="M552 405l148 -239q46 -7 64 -12v-154h-330v137q9 1 27 5l-78 127l-80 -69v-33q38 -5 68 -13v-154h-348v154q24 6 64 13v366q-40 5 -68 13v154h352v-154q-30 -8 -68 -13v-138l169 142q-34 5 -51 9v154h332v-154q-8 -2 -24.5 -5.5t-18.5 -3.5z" />
    <glyph glyph-name="Kcommaaccent.ss02" horiz-adv-x="776" 
d="M552 405l148 -239q46 -7 64 -12v-154h-330v137q9 1 27 5l-78 127l-80 -69v-33q38 -5 68 -13v-154h-348v154q24 6 64 13v366q-40 5 -68 13v154h352v-154q-30 -8 -68 -13v-138l169 142q-34 5 -51 9v154h332v-154q-8 -2 -24.5 -5.5t-18.5 -3.5zM315 -155l14 66q9 44 54 36
q44 -6 62.5 -19.5t18.5 -43.5q0 -34 -10.5 -59.5t-38.5 -57.5q-42 -47 -61 -62l-37 27q28 60 34 96z" />
    <glyph glyph-name="Q.ss03" horiz-adv-x="696" 
d="M298 714h110q139 -1 204.5 -70t65.5 -215v-166q-3 -167 -86 -228q19 -32 80 -107l-91 -86q-141 89 -186 144h-23h-74q-143 0 -210.5 67t-68.5 209v167q0 147 67.5 216t211.5 69zM384 536h-73q-35 0 -55.5 -23t-20.5 -63v-204q0 -38 20.5 -60t55.5 -22h73q35 0 56 22.5
t21 59.5v204q0 40 -20.5 63t-56.5 23z" />
    <glyph glyph-name="R.ss04" horiz-adv-x="739" 
d="M19 700h407q139 0 195 -47t56 -167v-44q0 -167 -119 -179q30 -47 73 -97q5 -1 40 -5t48 -7v-154h-224q-100 133 -136 263h-18v135h61q33 0 44.5 9t13.5 33v34q0 26 -14.5 38t-48.5 12h-93v-361q24 -3 46 -9v-154h-327v154q17 4 64 13v365q-26 4 -68 14v154z" />
    <glyph glyph-name="Racute.ss04" horiz-adv-x="739" 
d="M530 869v-28l-190 -111l-89 55l122 161zM19 700h407q139 0 195 -47t56 -167v-44q0 -167 -119 -179q30 -47 73 -97q5 -1 40 -5t48 -7v-154h-224q-100 133 -136 263h-18v135h61q33 0 44.5 9t13.5 33v34q0 26 -14.5 38t-48.5 12h-93v-361q24 -3 46 -9v-154h-327v154
q17 4 64 13v365q-26 4 -68 14v154z" />
    <glyph glyph-name="Rcaron.ss04" horiz-adv-x="739" 
d="M434 739h-126l-119 131l59 53l123 -79l123 79l59 -53zM19 700h407q139 0 195 -47t56 -167v-44q0 -167 -119 -179q30 -47 73 -97q5 -1 40 -5t48 -7v-154h-224q-100 133 -136 263h-18v135h61q33 0 44.5 9t13.5 33v34q0 26 -14.5 38t-48.5 12h-93v-361q24 -3 46 -9v-154
h-327v154q17 4 64 13v365q-26 4 -68 14v154z" />
    <glyph glyph-name="Rcommaaccent.ss04" horiz-adv-x="739" 
d="M19 700h407q139 0 195 -47t56 -167v-44q0 -167 -119 -179q30 -47 73 -97q5 -1 40 -5t48 -7v-154h-224q-100 133 -136 263h-18v135h61q33 0 44.5 9t13.5 33v34q0 26 -14.5 38t-48.5 12h-93v-361q24 -3 46 -9v-154h-327v154q17 4 64 13v365q-26 4 -68 14v154zM297 -155
l14 66q9 44 54 36q44 -6 62.5 -19.5t18.5 -43.5q0 -34 -10.5 -59.5t-38.5 -57.5q-42 -47 -61 -62l-37 27q28 60 34 96z" />
    <glyph glyph-name="a.ss05" horiz-adv-x="631" 
d="M615 541v-145q-37 -9 -54 -12v-226q17 -3 54 -12v-146h-262v60q-30 -21 -48.5 -32.5t-50.5 -23.5t-62 -12h-15q-69 0 -110.5 51t-41.5 157v180q0 84 45.5 125.5t115.5 41.5h15q30 0 58.5 -7.5t45 -15.5t48.5 -25v42h262zM283 168h13q23 0 57 16v183q-27 12 -57 12h-13
q-30 0 -40 -16t-10 -71v-33q0 -60 8 -75.5t42 -15.5z" />
    <glyph glyph-name="aacute.ss05" horiz-adv-x="631" 
d="M464 712v-27l-182 -106l-85 53l117 154zM615 541v-145q-37 -9 -54 -12v-226q17 -3 54 -12v-146h-262v60q-30 -21 -48.5 -32.5t-50.5 -23.5t-62 -12h-15q-69 0 -110.5 51t-41.5 157v180q0 84 45.5 125.5t115.5 41.5h15q30 0 58.5 -7.5t45 -15.5t48.5 -25v42h262zM283 168
h13q23 0 57 16v183q-27 12 -57 12h-13q-30 0 -40 -16t-10 -71v-33q0 -60 8 -75.5t42 -15.5z" />
    <glyph glyph-name="abreve.ss05" horiz-adv-x="631" 
d="M486 753v-28q0 -65 -46 -104t-126 -39q-81 0 -127 39t-46 104v28h112v-5q0 -43 61 -43t61 43v5h111zM615 541v-145q-37 -9 -54 -12v-226q17 -3 54 -12v-146h-262v60q-30 -21 -48.5 -32.5t-50.5 -23.5t-62 -12h-15q-69 0 -110.5 51t-41.5 157v180q0 84 45.5 125.5
t115.5 41.5h15q30 0 58.5 -7.5t45 -15.5t48.5 -25v42h262zM283 168h13q23 0 57 16v183q-27 12 -57 12h-13q-30 0 -40 -16t-10 -71v-33q0 -60 8 -75.5t42 -15.5z" />
    <glyph glyph-name="acircumflex.ss05" horiz-adv-x="631" 
d="M436 583l-123 79l-123 -79l-59 53l119 131h126l119 -131zM615 541v-145q-37 -9 -54 -12v-226q17 -3 54 -12v-146h-262v60q-30 -21 -48.5 -32.5t-50.5 -23.5t-62 -12h-15q-69 0 -110.5 51t-41.5 157v180q0 84 45.5 125.5t115.5 41.5h15q30 0 58.5 -7.5t45 -15.5t48.5 -25
v42h262zM283 168h13q23 0 57 16v183q-27 12 -57 12h-13q-30 0 -40 -16t-10 -71v-33q0 -60 8 -75.5t42 -15.5z" />
    <glyph glyph-name="adieresis.ss05" horiz-adv-x="631" 
d="M204 597q-40 0 -67.5 23t-27.5 60t27.5 61t67.5 24q39 0 65.5 -23.5t26.5 -61.5q0 -37 -26.5 -60t-65.5 -23zM423 597q-39 0 -65 23t-26 60q0 38 26.5 61.5t64.5 23.5q40 0 67.5 -23.5t27.5 -61.5q0 -37 -27 -60t-68 -23zM615 541v-145q-37 -9 -54 -12v-226q17 -3 54 -12
v-146h-262v60q-30 -21 -48.5 -32.5t-50.5 -23.5t-62 -12h-15q-69 0 -110.5 51t-41.5 157v180q0 84 45.5 125.5t115.5 41.5h15q30 0 58.5 -7.5t45 -15.5t48.5 -25v42h262zM283 168h13q23 0 57 16v183q-27 12 -57 12h-13q-30 0 -40 -16t-10 -71v-33q0 -60 8 -75.5t42 -15.5z
" />
    <glyph glyph-name="agrave.ss05" horiz-adv-x="631" 
d="M424 632l-85 -53l-182 106v27l150 74zM615 541v-145q-37 -9 -54 -12v-226q17 -3 54 -12v-146h-262v60q-30 -21 -48.5 -32.5t-50.5 -23.5t-62 -12h-15q-69 0 -110.5 51t-41.5 157v180q0 84 45.5 125.5t115.5 41.5h15q30 0 58.5 -7.5t45 -15.5t48.5 -25v42h262zM283 168h13
q23 0 57 16v183q-27 12 -57 12h-13q-30 0 -40 -16t-10 -71v-33q0 -60 8 -75.5t42 -15.5z" />
    <glyph glyph-name="amacron.ss05" horiz-adv-x="631" 
d="M468 718v-114h-316v114h316zM615 541v-145q-37 -9 -54 -12v-226q17 -3 54 -12v-146h-262v60q-30 -21 -48.5 -32.5t-50.5 -23.5t-62 -12h-15q-69 0 -110.5 51t-41.5 157v180q0 84 45.5 125.5t115.5 41.5h15q30 0 58.5 -7.5t45 -15.5t48.5 -25v42h262zM283 168h13
q23 0 57 16v183q-27 12 -57 12h-13q-30 0 -40 -16t-10 -71v-33q0 -60 8 -75.5t42 -15.5z" />
    <glyph glyph-name="aogonek.ss05" horiz-adv-x="631" 
d="M615 541v-145q-37 -9 -54 -12v-226q17 -3 54 -12v-146h-83q-45 -48 -45 -60v-5q0 -14 17 -14q30 0 63 3l27 -57q-27 -20 -61.5 -34t-57.5 -14h-25q-85 0 -85 75v23q0 51 83 83h-95v60q-30 -21 -48.5 -32.5t-50.5 -23.5t-62 -12h-15q-69 0 -110.5 51t-41.5 157v180
q0 84 45.5 125.5t115.5 41.5h15q30 0 58.5 -7.5t45 -15.5t48.5 -25v42h262zM353 184v183q-27 12 -57 12h-13q-30 0 -40 -16t-10 -71v-33q0 -60 8 -75.5t42 -15.5h13q23 0 57 16z" />
    <glyph glyph-name="aring.ss05" horiz-adv-x="631" 
d="M337 583h-47q-87 0 -87 87v30q0 88 87 88h47q87 0 87 -88v-30q0 -87 -87 -87zM298 649h29q22 0 25 24v25q0 27 -25 27h-29q-24 0 -24 -27v-25q0 -24 24 -24zM615 541v-145q-37 -9 -54 -12v-226q17 -3 54 -12v-146h-262v60q-30 -21 -48.5 -32.5t-50.5 -23.5t-62 -12h-15
q-69 0 -110.5 51t-41.5 157v180q0 84 45.5 125.5t115.5 41.5h15q30 0 58.5 -7.5t45 -15.5t48.5 -25v42h262zM283 168h13q23 0 57 16v183q-27 12 -57 12h-13q-30 0 -40 -16t-10 -71v-33q0 -60 8 -75.5t42 -15.5z" />
    <glyph glyph-name="atilde.ss05" horiz-adv-x="631" 
d="M512 700l-75 -85q-25 -25 -66 -25q-17 0 -37 10t-31.5 18t-43.5 33l-89 -54l-59 52l73 84q25 28 67 28q11 0 22 -3t19 -6t20.5 -11t17 -11.5t19 -14.5t16.5 -13l88 50zM615 541v-145q-37 -9 -54 -12v-226q17 -3 54 -12v-146h-262v60q-30 -21 -48.5 -32.5t-50.5 -23.5
t-62 -12h-15q-69 0 -110.5 51t-41.5 157v180q0 84 45.5 125.5t115.5 41.5h15q30 0 58.5 -7.5t45 -15.5t48.5 -25v42h262zM283 168h13q23 0 57 16v183q-27 12 -57 12h-13q-30 0 -40 -16t-10 -71v-33q0 -60 8 -75.5t42 -15.5z" />
    <glyph glyph-name="g.ss06" horiz-adv-x="624" 
d="M612 541v-145q-11 -3 -44 -10v-366q0 -106 -62.5 -160.5t-182.5 -54.5h-53q-128 0 -225 64v126h169l5 -19q9 -22 55 -22h33q53 0 53 55v62q-82 -51 -177 -51h-15q-76 0 -109.5 35.5t-33.5 116.5v211q0 84 45 125.5t115 41.5h15q32 0 64 -9.5t46.5 -17t49.5 -26.5v44h252z
M282 196h13q32 0 65 17v153q-27 15 -65 15h-13q-30 0 -39.5 -16t-9.5 -70v-26q0 -46 8 -59.5t41 -13.5z" />
    <glyph glyph-name="gbreve.ss06" horiz-adv-x="624" 
d="M483 753v-28q0 -65 -46 -104t-126 -39q-81 0 -127 39t-46 104v28h112v-5q0 -43 61 -43t61 43v5h111zM612 541v-145q-11 -3 -44 -10v-366q0 -106 -62.5 -160.5t-182.5 -54.5h-53q-128 0 -225 64v126h169l5 -19q9 -22 55 -22h33q53 0 53 55v62q-82 -51 -177 -51h-15
q-76 0 -109.5 35.5t-33.5 116.5v211q0 84 45 125.5t115 41.5h15q32 0 64 -9.5t46.5 -17t49.5 -26.5v44h252zM282 196h13q32 0 65 17v153q-27 15 -65 15h-13q-30 0 -39.5 -16t-9.5 -70v-26q0 -46 8 -59.5t41 -13.5z" />
    <glyph glyph-name="gcommaaccent.ss06" horiz-adv-x="624" 
d="M375 687l-12 -61q-9 -39 -50 -33q-40 6 -57 18.5t-17 39.5q0 31 10 54.5t35 52.5q41 46 56 57l34 -24q-26 -53 -32 -88zM612 541v-145q-11 -3 -44 -10v-366q0 -106 -62.5 -160.5t-182.5 -54.5h-53q-128 0 -225 64v126h169l5 -19q9 -22 55 -22h33q53 0 53 55v62
q-82 -51 -177 -51h-15q-76 0 -109.5 35.5t-33.5 116.5v211q0 84 45 125.5t115 41.5h15q32 0 64 -9.5t46.5 -17t49.5 -26.5v44h252zM282 196h13q32 0 65 17v153q-27 15 -65 15h-13q-30 0 -39.5 -16t-9.5 -70v-26q0 -46 8 -59.5t41 -13.5z" />
    <glyph glyph-name="gdotaccent.ss06" horiz-adv-x="624" 
d="M309 584q-44 0 -74 26.5t-30 69.5t30 70t74 27q46 0 76.5 -27t30.5 -70t-30.5 -69.5t-76.5 -26.5zM612 541v-145q-11 -3 -44 -10v-366q0 -106 -62.5 -160.5t-182.5 -54.5h-53q-128 0 -225 64v126h169l5 -19q9 -22 55 -22h33q53 0 53 55v62q-82 -51 -177 -51h-15
q-76 0 -109.5 35.5t-33.5 116.5v211q0 84 45 125.5t115 41.5h15q32 0 64 -9.5t46.5 -17t49.5 -26.5v44h252zM282 196h13q32 0 65 17v153q-27 15 -65 15h-13q-30 0 -39.5 -16t-9.5 -70v-26q0 -46 8 -59.5t41 -13.5z" />
    <glyph glyph-name="k.ss07" horiz-adv-x="694" 
d="M289 700v-381l113 66q-38 7 -51 11v145h314v-145q-16 -5 -53 -11l-105 -69l111 -159q24 -4 55 -12v-145h-272v141l-55 78l-57 -37v-26q36 -6 54 -11v-145h-315v145q16 5 53 11v387q-27 5 -52 12v145h260z" />
    <glyph glyph-name="kcommaaccent.ss07" horiz-adv-x="694" 
d="M289 319l113 66q-38 7 -51 11v145h314v-145q-16 -5 -53 -11l-105 -69l111 -159q24 -4 55 -12v-145h-272v141l-55 78l-57 -37v-26q36 -6 54 -11v-145h-315v145q16 5 53 11v387q-27 5 -52 12v145h260v-381zM274 -155l14 66q9 44 54 36q44 -6 62.5 -19.5t18.5 -43.5
q0 -34 -10.5 -59.5t-38.5 -57.5q-42 -47 -61 -62l-37 27q28 60 34 96z" />
    <glyph glyph-name="y.ss08" horiz-adv-x="641" 
d="M616 541v-518q0 -108 -62 -163t-182 -55h-47q-133 0 -232 64v126h169l5 -19q9 -22 61 -22h28q52 0 52 58v53q-90 -45 -177 -45h-15q-76 0 -109 35.5t-33 116.5v212q-24 4 -55 12v145h262v-272q0 -46 8.5 -59.5t41.5 -13.5h13q31 0 64 17v171q-30 6 -54 12v145h262z" />
    <glyph glyph-name="yacute.ss08" horiz-adv-x="641" 
d="M474 712v-27l-182 -106l-85 53l117 154zM616 541v-518q0 -108 -62 -163t-182 -55h-47q-133 0 -232 64v126h169l5 -19q9 -22 61 -22h28q52 0 52 58v53q-90 -45 -177 -45h-15q-76 0 -109 35.5t-33 116.5v212q-24 4 -55 12v145h262v-272q0 -46 8.5 -59.5t41.5 -13.5h13
q31 0 64 17v171q-30 6 -54 12v145h262z" />
    <glyph glyph-name="ycircumflex.ss08" horiz-adv-x="641" 
d="M447 583l-123 79l-123 -79l-59 53l119 131h126l119 -131zM616 541v-518q0 -108 -62 -163t-182 -55h-47q-133 0 -232 64v126h169l5 -19q9 -22 61 -22h28q52 0 52 58v53q-90 -45 -177 -45h-15q-76 0 -109 35.5t-33 116.5v212q-24 4 -55 12v145h262v-272q0 -46 8.5 -59.5
t41.5 -13.5h13q31 0 64 17v171q-30 6 -54 12v145h262z" />
    <glyph glyph-name="ydieresis.ss08" horiz-adv-x="641" 
d="M215 597q-40 0 -67.5 23t-27.5 60t27.5 61t67.5 24q39 0 65.5 -23.5t26.5 -61.5q0 -37 -26.5 -60t-65.5 -23zM434 597q-39 0 -65 23t-26 60q0 38 26.5 61.5t64.5 23.5q40 0 67.5 -23.5t27.5 -61.5q0 -37 -27 -60t-68 -23zM616 541v-518q0 -108 -62 -163t-182 -55h-47
q-133 0 -232 64v126h169l5 -19q9 -22 61 -22h28q52 0 52 58v53q-90 -45 -177 -45h-15q-76 0 -109 35.5t-33 116.5v212q-24 4 -55 12v145h262v-272q0 -46 8.5 -59.5t41.5 -13.5h13q31 0 64 17v171q-30 6 -54 12v145h262z" />
    <glyph glyph-name="ygrave.ss08" horiz-adv-x="641" 
d="M430 632l-85 -53l-182 106v27l150 74zM616 541v-518q0 -108 -62 -163t-182 -55h-47q-133 0 -232 64v126h169l5 -19q9 -22 61 -22h28q52 0 52 58v53q-90 -45 -177 -45h-15q-76 0 -109 35.5t-33 116.5v212q-24 4 -55 12v145h262v-272q0 -46 8.5 -59.5t41.5 -13.5h13
q31 0 64 17v171q-30 6 -54 12v145h262z" />
    <glyph glyph-name="i.dot" horiz-adv-x="359" 
d="M179 584q-44 0 -74 26.5t-30 69.5t30 70t74 27q46 0 76.5 -27t30.5 -70t-30.5 -69.5t-76.5 -26.5zM289 541v-385q36 -6 54 -11v-145h-315v145q16 5 53 11v228q-27 5 -52 12v145h260z" />
    <glyph glyph-name="f_f_f" horiz-adv-x="1271" 
d="M1104 390v-230q44 -5 82 -15v-145h-343v145q17 5 53 11v234h-200v-230q44 -5 82 -15v-145h-343v145q17 5 53 11v234h-199v-230q44 -5 82 -15v-145h-343v145q17 5 53 11v234h-62v133q17 4 62 11v44q0 63 41.5 108t111.5 57q68 12 170 19l18 -142q-4 -1 -42 -8t-61 -14
q-30 -9 -30 -40v-17h199v37q0 63 41.5 108t111.5 57q68 12 170 19l18 -142q-4 -1 -42 -8t-61 -14q-30 -9 -30 -40v-17h200v37q0 63 41.5 108t111.5 57q68 12 170 19l18 -142q-4 -1 -42 -8t-61 -14q-30 -9 -30 -40v-17h148v-151h-148z" />
    <glyph glyph-name="f_f_j" horiz-adv-x="1134" 
d="M989 576q-48 0 -81.5 29t-33.5 75t33.5 75t81.5 29t81 -29t33 -75t-33 -75t-81 -29zM1099 541v-430q0 -67 -22.5 -107t-90.5 -95q-22 -17 -38.5 -29t-24 -17t-23 -13.5t-24.5 -14.5l-82 85q39 49 49 63q29 38 38.5 64t9.5 66v277h-195v-230q44 -5 82 -15v-145h-343v145
q17 5 53 11v234h-199v-230q44 -5 82 -15v-145h-343v145q17 5 53 11v234h-62v133q17 4 62 11v44q0 63 41.5 108t111.5 57q68 12 170 19l18 -142q-4 -1 -42 -8t-61 -14q-30 -9 -30 -40v-17h199v37q0 63 41.5 108t111.5 57q68 12 170 19l18 -142q-4 -1 -42 -8t-61 -14
q-30 -9 -30 -40v-17h403z" />
    <glyph glyph-name="f_f_t" horiz-adv-x="1250" 
d="M1115 162h10q64 0 97 3v-122q-31 -23 -93.5 -40t-115.5 -17h-13q-64 0 -101.5 40t-37.5 109v255h-165v-230q44 -5 82 -15v-145h-343v145q17 5 53 11v234h-199v-230q44 -5 82 -15v-145h-343v145q17 5 53 11v234h-62v133q17 4 62 11v44q0 63 41.5 108t111.5 57
q68 12 170 19l18 -142q-4 -1 -42 -8t-61 -14q-30 -9 -30 -40v-17h199v37q0 63 41.5 108t111.5 57q68 12 170 19l18 -142q-4 -1 -42 -8t-61 -14q-30 -9 -30 -40v-17h164q40 28 40 90v38q77 17 169 18v-146h148v-151h-148v-144q0 -57 7 -70.5t39 -13.5z" />
    <glyph glyph-name="f_i" horiz-adv-x="762" 
d="M588 576q-48 0 -81.5 29t-33.5 75t33.5 75t81.5 29t81 -29t33 -75t-33 -75t-81 -29zM692 541v-385q34 -6 53 -11v-145h-315v145l54 12v233h-195v-230q44 -5 82 -15v-145h-343v145q17 5 53 11v234h-62v133q17 4 62 11v44q0 63 41.5 108t111.5 57q68 12 170 19l18 -142
q-4 -1 -42 -8t-61 -14q-30 -9 -30 -40v-17h403z" />
    <glyph glyph-name="f_j" horiz-adv-x="727" 
d="M581 576q-48 0 -81 29t-33 75t33 75t81 29q49 0 82 -29t33 -75t-33 -75t-82 -29zM692 541v-430q0 -67 -22.5 -107t-90.5 -95q-32 -25 -110 -74l-83 85q29 34 50 63q29 38 38.5 64t9.5 66v277h-195v-230q44 -5 82 -15v-145h-343v145q17 5 53 11v234h-62v133q17 4 62 11v44
q0 63 41.5 108t111.5 57q68 12 170 19l18 -142q-4 -1 -42 -8t-61 -14q-30 -9 -30 -40v-17h403z" />
    <glyph glyph-name="f_l" horiz-adv-x="798" 
d="M289 390v-230q44 -5 82 -15v-145h-343v145q17 5 53 11v234h-62v133q17 4 62 11v44q0 63 41.5 108t111.5 57q68 12 170 19l18 -142q-4 -1 -42 -8t-61 -14q-30 -9 -30 -40v-17h148v-151h-148zM726 700v-544q36 -6 54 -11v-145h-315v145q16 5 53 11v387q-27 5 -52 12v145
h260z" />
    <glyph glyph-name="f_t" horiz-adv-x="843" 
d="M708 162h10q64 0 97 3v-122q-31 -23 -93.5 -40t-115.5 -17h-13q-64 0 -101.5 40t-37.5 109v255h-165v-230q44 -5 82 -15v-145h-343v145q17 5 53 11v234h-62v133q17 4 62 11v44q0 63 41.5 108t111.5 57q68 12 170 19l18 -142q-4 -1 -42 -8t-61 -14q-30 -9 -30 -40v-17h164
q40 28 40 90v38q77 17 169 18v-146h148v-151h-148v-144q0 -57 7 -70.5t39 -13.5z" />
    <glyph glyph-name="three.ss09" horiz-adv-x="549" 
d="M519 700v-174l-144 -123h21q80 0 107.5 -39t27.5 -138v-53q0 -93 -56 -137t-173 -44h-21q-117 0 -266 26v187h146l14 -50q17 -3 39 -3h66q28 0 37.5 8.5t9.5 32.5v25q0 39 -11 47.5t-58 8.5h-101l-46 94l179 152h-258v180h487z" />
    <glyph glyph-name="zero.tf" horiz-adv-x="641" 
d="M350 -14h-49q-151 0 -213.5 60.5t-66.5 211.5v175q0 155 62.5 218t217.5 63h48q149 -1 209.5 -63.5t60.5 -217.5v-174q-3 -151 -63.5 -212t-205.5 -61zM314 162h12q41 0 58.5 17t18.5 60v218q0 45 -17 63t-60 18h-12q-42 0 -59 -18t-17 -63v-218q0 -43 17 -60t59 -17z
" />
    <glyph glyph-name="one.tf" horiz-adv-x="641" 
d="M434 709v-537q96 -5 146 -18v-154h-514v154q51 13 152 18v337l-125 -4v155l224 49h117z" />
    <glyph glyph-name="two.tf" horiz-adv-x="641" 
d="M588 224v-224h-533v150q0 52 5.5 84t22.5 54.5t34 34.5t54 32q50 27 136 63q45 19 62 30.5t17 26.5v26q0 24 -10 32.5t-36 8.5q-60 0 -87 -5l-13 -49h-164v192q111 22 159.5 28t126.5 6q121 0 176.5 -52.5t55.5 -169.5v-27q0 -24 -2 -42.5t-9 -34.5t-11.5 -26.5
t-20 -22.5t-24 -18t-33 -17t-37 -16t-46.5 -18q-102 -40 -115 -48q-20 -11 -24.5 -22t-4.5 -41h162l15 65h144z" />
    <glyph glyph-name="three.tf" horiz-adv-x="641" 
d="M589 527v-39q0 -70 -21 -103t-65 -43q45 -8 65.5 -38.5t20.5 -97.5v-33q0 -98 -58 -139.5t-191 -41.5q-136 0 -284 26v187h146l13 -50q42 -3 123 -3q29 0 38.5 8.5t9.5 32.5v22q0 41 -19.5 48.5t-112.5 7.5h-79v157h79q94 0 113 8t19 50v21q0 23 -10.5 32.5t-37.5 9.5
q-47 0 -121 -4l-14 -52h-145v188q157 29 282 29q136 0 192.5 -41.5t56.5 -141.5z" />
    <glyph glyph-name="four.tf" horiz-adv-x="641" 
d="M7 352l308 348h217v-348h87v-138l-87 -16v-38q60 -8 87 -15v-145h-396v145q38 9 92 16v37h-308v154zM190 352h125v147z" />
    <glyph glyph-name="five.tf" horiz-adv-x="641" 
d="M541 500h-143l-7 36h-173l-5 -126q45 45 118 45h45q93 0 141 -34.5t48 -125.5v-120q0 -96 -57 -142.5t-176 -46.5q-130 0 -313 32v182h146l14 -50q67 -3 132 -3q50 0 50 44v73q0 18 -10.5 28.5t-28.5 10.5h-48q-8 0 -15 -1t-13.5 -3.5t-11 -4t-11 -6.5t-9 -6.5t-10 -8
t-9.5 -8.5l-164 46l11 389h499v-200z" />
    <glyph glyph-name="six.tf" horiz-adv-x="641" 
d="M381 447h49q104 0 149 -38t45 -127v-107q0 -98 -61 -141t-186 -43h-73q-142 0 -213.5 68t-73.5 211v162q0 282 299 282q67 0 118 -6.5t157 -24.5v-192h-182l-23 39q-40 6 -69 6q-84 0 -84 -85v-72q71 55 148 68zM233 270v-35q0 -36 20.5 -56t56.5 -19h64q47 2 47 47v45
q0 43 -45 43h-34q-65 0 -109 -25z" />
    <glyph glyph-name="seven.tf" horiz-adv-x="641" 
d="M601 536l-209 -536h-257v33l260 503h-192l-24 -66h-144v230h566v-164z" />
    <glyph glyph-name="eight.tf" horiz-adv-x="641" 
d="M592 535v-51q0 -56 -19.5 -88t-65.5 -46q62 -13 87.5 -48.5t25.5 -102.5v-17q0 -104 -57 -150t-186 -46h-100q-134 0 -194 46t-62 150v17q0 66 27 101.5t91 49.5q-48 14 -68.5 46t-20.5 88v51q2 92 56.5 133t177.5 41h85q118 0 170.5 -41t52.5 -133zM241 515v-45
q0 -22 11.5 -31t38.5 -9h62q26 0 36.5 9t10.5 31v45q0 24 -10 33t-36 10h-63q-27 0 -38.5 -9.5t-11.5 -33.5zM403 205v44q0 23 -10.5 32t-37.5 9h-66q-28 0 -39.5 -9.5t-11.5 -31.5v-44q0 -25 11.5 -35.5t39.5 -9.5h67q26 0 36.5 10.5t10.5 34.5z" />
    <glyph glyph-name="nine.tf" horiz-adv-x="641" 
d="M257 254h-48q-104 0 -149 38t-45 126v107q0 90 60 139.5t169 49.5h109q139 0 203 -69t66 -215v-163q0 -146 -72 -213.5t-229 -67.5q-45 0 -91.5 4.5t-71.5 9t-109 18.5v193h199l5 -40q47 -7 67 -7q45 0 65.5 20t20.5 64v56q-67 -50 -149 -50zM406 421v45q0 75 -78 74h-63
q-47 -2 -47 -47v-45q0 -42 45 -42h34q81 0 109 15z" />
    <glyph glyph-name="zero.dnom" horiz-adv-x="447" 
d="M266 -5h-78q-89 0 -125.5 35.5t-38.5 124.5v101q0 91 36.5 128t127.5 37h78q87 -1 122 -37.5t35 -127.5v-101q-2 -89 -37 -124.5t-120 -35.5zM212 103h23q26 0 35.5 11t9.5 42v102q0 31 -9.5 42.5t-35.5 11.5h-23q-26 0 -35.5 -11.5t-9.5 -42.5v-102q0 -31 9.5 -42
t35.5 -11z" />
    <glyph glyph-name="one.dnom" horiz-adv-x="338" 
d="M257 423v-315q33 -3 60 -9v-99h-285v99q34 8 75 11v194l-83 -4v89l148 34h85z" />
    <glyph glyph-name="two.dnom" horiz-adv-x="407" 
d="M379 145v-145h-355v97q0 51 13 80.5t43 46.5q31 16 104 32q39 8 51.5 14t12.5 19v5q0 11 -4.5 14.5t-20.5 3.5q-46 0 -69 -2l-10 -33h-106v125q73 14 104 17.5t90 3.5q82 0 116 -26t34 -97v-36q0 -72 -87 -97l-47 -12q-9 -2 -23 -5.5t-21 -5t-16.5 -4.5t-14 -6t-9 -7.5
t-6.5 -10t-2 -13.5h118l11 42h94z" />
    <glyph glyph-name="three.dnom" horiz-adv-x="398" 
d="M373 306v-15q0 -79 -63 -98q34 -4 48.5 -19.5t14.5 -52.5v-10q0 -64 -38.5 -90t-130.5 -26q-86 0 -183 17v125h99l10 -32q28 -2 77 -2q18 0 24 5.5t6 19.5v9q0 16 -10 21.5t-35 5.5h-78v89h79q24 0 34 5.5t10 19.5v11q0 14 -6.5 19.5t-23.5 5.5q-31 0 -81 -2l-10 -32h-94
v125q99 18 182 18q95 0 132 -25.5t37 -91.5z" />
    <glyph glyph-name="four.dnom" horiz-adv-x="437" 
d="M355 125v-22q31 -3 58 -9v-94h-270v94q21 4 62 10v21h-198v101l198 188h150v-188h58v-90zM205 318l-79 -92h79v92z" />
    <glyph glyph-name="five.dnom" horiz-adv-x="413" 
d="M374 413v-131h-94l-6 25h-113l-3 -65q41 20 73 20h35q60 0 91.5 -24t31.5 -85v-37q0 -121 -149 -121h-22q-69 0 -194 20v123h95l5 -34q22 -2 60 -2h33q31 0 31 26v26q0 26 -26 26h-33q-24 0 -52 -24l-107 30l7 227h337z" />
    <glyph glyph-name="six.dnom" horiz-adv-x="440" 
d="M254 257h38q65 0 94.5 -28.5t29.5 -86.5v-26q0 -64 -39.5 -92.5t-120.5 -28.5h-50q-186 0 -186 179v72q0 86 46 133.5t128 47.5h25q67 0 178 -20v-125h-118l-15 27q-25 3 -47 3q-52 0 -52 -53v-19q49 17 89 17zM165 162v-20q0 -40 49 -37h36q30 0 30 28v19q0 26 -28 26
h-27q-24 0 -60 -16z" />
    <glyph glyph-name="seven.dnom" horiz-adv-x="379" 
d="M372 307l-134 -307h-175v21l166 286h-113l-16 -42h-93v148h365v-106z" />
    <glyph glyph-name="eight.dnom" horiz-adv-x="433" 
d="M396 311v-15q0 -69 -56 -85q74 -17 74 -86v-10q0 -66 -36 -93t-121 -27h-71q-88 0 -126.5 27t-39.5 93v10q0 68 77 86q-59 16 -59 85v15q1 59 36 85t115 26h63q77 0 110.5 -26t33.5 -85zM167 298v-19q0 -14 7 -19.5t24 -5.5h41q16 0 22.5 5.5t6.5 19.5v19q0 26 -30 26
h-40q-17 0 -24 -5.5t-7 -20.5zM270 126v19q0 26 -30 26h-44q-17 0 -24 -6t-7 -20v-19q0 -15 7 -21.5t25 -5.5h42q31 0 31 27z" />
    <glyph glyph-name="nine.dnom" horiz-adv-x="427" 
d="M177 151h-34q-66 0 -95 24.5t-29 81.5v50q0 57 39 88.5t109 31.5h66q90 0 131 -40.5t43 -131.5v-85q0 -175 -174 -175h-20q-54 0 -172 20v111h117l8 -26q13 -4 48 -4q52 0 52 54v28q-38 -27 -89 -27zM266 259v30q0 32 -49 30h-37q-29 0 -29 -28v-14q0 -28 28 -28h23
q47 0 64 10z" />
    <glyph glyph-name="zero.numr" horiz-adv-x="447" 
d="M266 282h-78q-89 0 -125.5 35.5t-38.5 124.5v101q0 91 36.5 128t127.5 37h78q87 -1 122 -37.5t35 -127.5v-101q-2 -89 -37 -124.5t-120 -35.5zM212 390h23q26 0 35.5 11t9.5 42v102q0 31 -9.5 42.5t-35.5 11.5h-23q-26 0 -35.5 -11.5t-9.5 -42.5v-102q0 -31 9.5 -42
t35.5 -11z" />
    <glyph glyph-name="one.numr" horiz-adv-x="338" 
d="M257 710v-315q33 -3 60 -9v-99h-285v99q34 8 75 11v194l-83 -4v89l148 34h85z" />
    <glyph glyph-name="two.numr" horiz-adv-x="407" 
d="M379 432v-145h-355v97q0 51 13 80.5t43 46.5q31 16 104 32q39 8 51.5 14t12.5 19v5q0 11 -4.5 14.5t-20.5 3.5q-46 0 -69 -2l-10 -33h-106v125q73 14 104 17.5t90 3.5q82 0 116 -26t34 -97v-36q0 -72 -87 -97l-47 -12q-9 -2 -23 -5.5t-21 -5t-16.5 -4.5t-14 -6t-9 -7.5
t-6.5 -10t-2 -13.5h118l11 42h94z" />
    <glyph glyph-name="three.numr" horiz-adv-x="398" 
d="M373 593v-15q0 -79 -63 -98q34 -4 48.5 -19.5t14.5 -52.5v-10q0 -64 -38.5 -90t-130.5 -26q-86 0 -183 17v125h99l10 -32q28 -2 77 -2q18 0 24 5.5t6 19.5v9q0 16 -10 21.5t-35 5.5h-78v89h79q24 0 34 5.5t10 19.5v11q0 14 -6.5 19.5t-23.5 5.5q-31 0 -81 -2l-10 -32h-94
v125q99 18 182 18q95 0 132 -25.5t37 -91.5z" />
    <glyph glyph-name="four.numr" horiz-adv-x="437" 
d="M355 412v-22q31 -3 58 -9v-94h-270v94q21 4 62 10v21h-198v101l198 188h150v-188h58v-90zM205 605l-79 -92h79v92z" />
    <glyph glyph-name="five.numr" horiz-adv-x="413" 
d="M374 700v-131h-94l-6 25h-113l-3 -65q41 20 73 20h35q60 0 91.5 -24t31.5 -85v-37q0 -121 -149 -121h-22q-69 0 -194 20v123h95l5 -34q22 -2 60 -2h33q31 0 31 26v26q0 26 -26 26h-33q-24 0 -52 -24l-107 30l7 227h337z" />
    <glyph glyph-name="six.numr" horiz-adv-x="440" 
d="M254 544h38q65 0 94.5 -28.5t29.5 -86.5v-26q0 -64 -39.5 -92.5t-120.5 -28.5h-50q-186 0 -186 179v72q0 86 46 133.5t128 47.5h25q67 0 178 -20v-125h-118l-15 27q-26 3 -47 3q-52 0 -52 -53v-19q49 17 89 17zM165 449v-20q0 -40 49 -37h36q30 0 30 28v19q0 26 -28 26
h-27q-24 0 -60 -16z" />
    <glyph glyph-name="seven.numr" horiz-adv-x="379" 
d="M372 594l-134 -307h-175v21l166 286h-113l-16 -42h-93v148h365v-106z" />
    <glyph glyph-name="eight.numr" horiz-adv-x="433" 
d="M396 598v-15q0 -69 -56 -85q74 -17 74 -86v-10q0 -66 -36 -93t-121 -27h-71q-88 0 -126.5 27t-39.5 93v10q0 68 77 86q-59 16 -59 85v15q1 59 36 85t115 26h63q77 0 110.5 -26t33.5 -85zM167 585v-19q0 -14 7 -19.5t24 -5.5h41q16 0 22.5 5.5t6.5 19.5v19q0 26 -30 26
h-40q-17 0 -24 -5.5t-7 -20.5zM270 413v19q0 26 -30 26h-44q-17 0 -24 -6t-7 -20v-19q0 -15 7 -21.5t25 -5.5h42q31 0 31 27z" />
    <glyph glyph-name="nine.numr" horiz-adv-x="427" 
d="M177 438h-34q-66 0 -95 24.5t-29 81.5v50q0 57 39 88.5t109 31.5h66q90 0 131 -40.5t43 -131.5v-85q0 -175 -174 -175h-20q-54 0 -172 20v111h117l8 -26q13 -4 48 -4q52 0 52 54v28q-38 -27 -89 -27zM266 546v30q0 32 -49 30h-37q-29 0 -29 -28v-14q0 -28 28 -28h23
q47 0 64 10z" />
    <glyph glyph-name="backslash.case" horiz-adv-x="480" 
d="M107 773l392 -852h-117l-392 852h117z" />
    <glyph glyph-name="bullet.case" horiz-adv-x="320" 
d="M179 194q-93 0 -137 40.5t-44 126.5q0 87 44.5 128t136.5 41q93 0 137.5 -41t44.5 -128q0 -86 -44.5 -126.5t-137.5 -40.5z" />
    <glyph glyph-name="exclamdown.case" horiz-adv-x="261" 
d="M127 707q59 0 87 -25.5t28 -80.5q0 -107 -115 -107t-115 107q0 55 28 80.5t87 25.5zM12 0v144l54 302h122l55 -302v-144h-231z" />
    <glyph glyph-name="periodcentered.case" horiz-adv-x="260" 
d="M130 229q-59 0 -87 25.5t-28 80.5q0 107 115 107t115 -107q0 -55 -28 -80.5t-87 -25.5z" />
    <glyph glyph-name="questiondown.case" horiz-adv-x="543" 
d="M328 707q59 0 87 -25.5t28 -80.5q0 -107 -115 -107t-115 107q0 55 28 80.5t87 25.5zM531 203v-183q-112 -22 -159 -28t-126 -6q-232 0 -232 195v17q0 79 23.5 113t73.5 50q27 8 76 20.5t56 14.5v66h174l19 -173q-122 -30 -161 -42q-53 -17 -53 -40v-17q0 -24 9.5 -32.5
t36.5 -8.5q54 0 86 5l14 49h163z" />
    <glyph glyph-name="slash.case" horiz-adv-x="480" 
d="M98 -69h-117l392 852h117z" />
    <glyph glyph-name="numbersign.ss10" horiz-adv-x="546" 
d="M443 429h60v-135h-79l-13 -83h-135l12 83h-66l-12 -83h-136l12 83h-72v135h91l7 49h-77v136h96l13 86h136l-12 -86h65l13 86h135l-12 -86h53v-136h-72zM248 478l-7 -49h66l7 49h-66z" />
    <glyph glyph-name="braceleft.case" horiz-adv-x="396" 
d="M276 585v-473q0 -35 11 -58t25 -34.5t49 -32.5q8 -5 13 -8l-45 -91q-39 14 -53 19t-47 18.5t-46.5 23.5t-35.5 27.5t-31.5 35.5t-17 43t-7.5 55v151l-78 21v150l78 21v134q0 30 7.5 55t17.5 43.5t31 35.5t36 27.5t46 23.5t47.5 19t52.5 18l45 -91q-5 -3 -13 -8
q-35 -21 -49 -32.5t-25 -34.5t-11 -58z" />
    <glyph glyph-name="braceright.case" horiz-adv-x="396" 
d="M120 112v473q0 35 -11 58t-25 34.5t-49 32.5q-2 2 -4 3t-4.5 2.5t-4.5 2.5l45 91q36 -12 52.5 -18t47.5 -19t46 -23.5t36 -27.5t31 -35.5t17.5 -43.5t7.5 -55v-134l78 -21v-150l-78 -21v-151q0 -30 -7.5 -55t-17 -43t-31.5 -35.5t-35.5 -27.5t-46.5 -23.5t-47 -18.5
t-53 -19l-45 91q5 3 13 8q35 21 49 32.5t25 34.5t11 58z" />
    <glyph glyph-name="bracketleft.case" horiz-adv-x="306" 
d="M296 652h-92v-608h92v-131h-277v875h277v-136z" />
    <glyph glyph-name="bracketright.case" horiz-adv-x="306" 
d="M287 788v-875h-277v131h92v608h-92v136h277z" />
    <glyph glyph-name="parenleft.case" horiz-adv-x="304" 
d="M196 586v-473q0 -35 11 -58t25 -34.5t49 -32.5q8 -5 13 -8l-45 -91q-39 14 -53 19t-47 18.5t-46.5 23.5t-35.5 27.5t-31.5 35.5t-17 43t-7.5 55v477q0 30 7.5 55t17.5 43.5t31 35.5t36 27.5t46 23.5t47.5 19t52.5 18l45 -91q-5 -3 -13 -8q-35 -21 -49 -32.5t-25 -34.5
t-11 -58z" />
    <glyph glyph-name="parenright.case" horiz-adv-x="316" 
d="M120 113v473q0 35 -11 58t-25 34.5t-49 32.5q-2 2 -4 3t-4.5 2.5t-4.5 2.5l45 91q36 -12 52.5 -18t47.5 -19t46 -23.5t36 -27.5t31 -35.5t17.5 -43.5t7.5 -55v-477q0 -30 -7.5 -55t-17 -43t-31.5 -35.5t-35.5 -27.5t-46.5 -23.5t-47 -18.5t-53 -19l-45 91q5 3 13 8
q35 21 49 32.5t25 34.5t11 58z" />
    <glyph glyph-name="emdash.case" horiz-adv-x="613" 
d="M589 266h-565v160h565v-160z" />
    <glyph glyph-name="endash.case" horiz-adv-x="448" 
d="M424 266h-400v160h400v-160z" />
    <glyph glyph-name="hyphen.case" horiz-adv-x="379" 
d="M362 262h-338v168h338v-168z" />
    <glyph glyph-name="guillemotleft.case" horiz-adv-x="585" 
d="M290 177v-63h-127l-141 205v12l141 205h127v-65l-76 -140v-12zM527 177v-63h-127l-141 205v12l141 205h127v-65l-76 -140v-12z" />
    <glyph glyph-name="guillemotright.case" horiz-adv-x="585" 
d="M138 331l-76 140v65h127l141 -205v-12l-141 -205h-127v63l76 142v12zM375 331l-76 140v65h127l141 -205v-12l-141 -205h-127v63l76 142v12z" />
    <glyph glyph-name="guilsinglleft.case" horiz-adv-x="307" 
d="M287 203v-63h-127l-141 205v12l141 205h127v-65l-76 -140v-12z" />
    <glyph glyph-name="guilsinglright.case" horiz-adv-x="307" 
d="M95 357l-76 140v65h127l141 -205v-12l-141 -205h-127v63l76 142v12z" />
    <glyph glyph-name="florin.tf" horiz-adv-x="641" 
d="M534 461v-160h-138l-24 -152q-13 -78 -47.5 -114.5t-106.5 -50.5q-36 -7 -137 -7l-25 112l37 11q25 7 36 13t14.5 10.5t7.5 16.5l26 161h-62v142q66 12 88 14l16 94q13 79 47.5 115.5t105.5 49.5q65 13 177 19l18 -142q-26 -7 -76 -22q-34 -10 -44 -17t-13 -23l-12 -70
h112z" />
    <glyph glyph-name="cent.tf" horiz-adv-x="641" 
d="M566 191v-142q-74 -44 -158 -58v-55h-157v52q-192 22 -192 220v141q0 92 52 144t149 60v54h157v-55q41 -4 144 -22v-218h-155l-18 89q-22 2 -33 2v-267q29 6 38 37l5 18h168zM267 341v-149q0 -53 45 -58v268q-45 -6 -45 -61z" />
    <glyph glyph-name="dollar.tf" horiz-adv-x="641" 
d="M357 445l122 -29q79 -20 110 -57t31 -113v-41q0 -97 -54 -147t-168 -57v-65h-158v64q-63 4 -207 41v189h181l23 -68q30 -6 61 -7v108l-146 36q-74 21 -101 59.5t-27 128.5v8q0 100 53.5 149.5t171.5 56.5v76h158v-77q82 -6 193 -30v-207h-172l-23 72q-20 8 -48 8v-98z
M298 459v84q-27 0 -37.5 -7.5t-10.5 -29.5v-6q0 -30 35 -38zM404 194v9q0 17 -9.5 26t-37.5 19v-93q27 2 36 10t11 29z" />
    <glyph glyph-name="Euro.tf" horiz-adv-x="641" 
d="M459 491l-6 43q-23 8 -96 8q-77 0 -77 -65v-25h188l-18 -82h-170v-36h163l-19 -82h-144v-15q1 -37 21 -56.5t56 -18.5h19q60 0 84 54h151v-141q-64 -47 -116 -68t-108 -21h-54q-269 0 -269 247v19h-48v82h47v36h-47v82h47v13q0 132 67.5 190.5t203.5 58.5h39
q113 0 240 -32v-191h-154z" />
    <glyph glyph-name="sterling.tf" horiz-adv-x="641" 
d="M611 0h-586v154l16.5 16.5t19 19.5t14 19t11.5 26t2 28v14h-72v117h74l-3 56q-1 48 1.5 81t16 70.5t38.5 60t71 37.5t112 15h17q104 0 272 -32l-27 -209h-163l-14 65q-24 4 -72 4q-28 0 -36.5 -17.5t-3.5 -57.5l7 -73h142l-19 -117h-117l1 -18q0 -10 -2.5 -19.5
t-5.5 -15.5t-11.5 -15t-12.5 -12.5t-16 -13t-15 -11.5h192l25 88h144v-260z" />
    <glyph glyph-name="yen.tf" horiz-adv-x="641" 
d="M631 700v-154q-42 -10 -69 -14l-66 -135h96v-73h-131l-18 -37h149v-73h-174v-47q38 -5 68 -13v-154h-348v154q30 8 63 12v48h-161v73h133l-17 37h-116v73h82l-65 138q-26 3 -56 11v154h294v-154q-6 -1 -17.5 -3.5t-17.5 -3.5l59 -142h7l73 140q-21 3 -44 9v154h276z" />
    <glyph glyph-name="arrowdown.ss13" horiz-adv-x="775" 
d="M388 75q115 0 195.5 81t80.5 197q0 115 -80.5 196t-195.5 81t-196.5 -81t-81.5 -196t81 -196.5t197 -81.5zM400 186h-25l-152 152l56 55l64 -71v180h87v-182l66 73l56 -55z" />
    <glyph glyph-name="arrowdownleft.ss13" horiz-adv-x="775" 
d="M192 153q81 -81 195.5 -80.5t196.5 82.5q81 81 81.5 195t-81.5 196q-82 81 -196.5 81t-195.5 -81q-82 -82 -82 -196.5t82 -196.5zM279 224l-18 17v214h78l-4 -95l126 128l62 -62l-128 -128l98 4v-78h-214z" />
    <glyph glyph-name="arrowdownright.ss13" horiz-adv-x="776" 
d="M579 153q82 82 82 196.5t-82 196.5q-81 81 -195.5 81t-196.5 -81q-82 -82 -81.5 -196t81.5 -195q82 -82 196.5 -82.5t195.5 80.5zM278 302l98 -4l-128 128l62 62l126 -128l-4 96h78v-215l-18 -17h-214v78z" />
    <glyph glyph-name="arrowleft.ss13" horiz-adv-x="775" 
d="M110 351q0 -115 81 -195.5t197 -80.5q115 0 196 80.5t81 195.5t-81 196.5t-196 81.5q-116 0 -197 -81.5t-81 -196.5zM221 339v25l152 152l55 -56l-70 -64h179v-86h-181l72 -67l-55 -55z" />
    <glyph glyph-name="arrowright.ss13" horiz-adv-x="775" 
d="M665 351q0 115 -81.5 196.5t-196.5 81.5t-196 -81.5t-81 -196.5t81 -195.5t196 -80.5q116 0 197 80.5t81 195.5zM347 243l73 67h-182v86h180l-71 64l56 56l151 -152v-25l-151 -151z" />
    <glyph glyph-name="arrowup.ss13" horiz-adv-x="775" 
d="M388 630q-116 0 -197 -81t-81 -197q0 -115 81.5 -196t196.5 -81t195.5 81t80.5 196q0 116 -80.5 197t-195.5 81zM496 312l-66 73v-182h-87v180l-64 -71l-56 55l152 152h25l152 -152z" />
    <glyph glyph-name="arrowupleft.ss13" horiz-adv-x="776" 
d="M192 551q-82 -82 -82 -196.5t82 -196.5q81 -81 195.5 -81t196.5 81q82 82 81.5 196t-81.5 195q-82 82 -196.5 82.5t-195.5 -80.5zM493 402l-98 4l128 -128l-62 -62l-126 128l4 -96h-78v215l18 17h214v-78z" />
    <glyph glyph-name="arrowupright.ss13" horiz-adv-x="776" 
d="M579 551q-81 81 -195.5 80.5t-196.5 -82.5q-81 -81 -81.5 -195t81.5 -196q82 -81 196.5 -81t195.5 81q82 82 82 196.5t-82 196.5zM492 480l18 -17v-214h-78l4 95l-126 -128l-62 62l128 128l-98 -4v78h214z" />
    <glyph glyph-name="at.case" horiz-adv-x="970" 
d="M738 566l-49 -301q-4 -42 4.5 -60t39.5 -18q58 0 92.5 55.5t34.5 160.5q0 302 -323 302q-108 0 -191.5 -32.5t-134 -90t-76.5 -130.5t-26 -159q0 -166 95.5 -249t270.5 -83q158 0 292 67l27 -58q-136 -78 -324 -78q-205 0 -321.5 101t-116.5 298q0 139 56.5 247t173 172
t277.5 64q191 0 295 -92.5t104 -267.5q0 -147 -73 -228.5t-212 -81.5q-29 0 -45.5 1.5t-39 6.5t-36.5 19t-21 36q-31 -33 -61.5 -49t-78.5 -16h-13q-64 0 -103.5 42t-27.5 132l17 144q11 72 54.5 107.5t102.5 35.5h14q58 0 131 -28l4 31h188zM510 265l20 156q-27 10 -57 10
h-8q-27 0 -37.5 -15.5t-17.5 -67.5l-3 -27q-6 -48 2 -63.5t37 -15.5h5q26 0 58 17z" />
    <glyph glyph-name="ampersand.ss11" horiz-adv-x="767" 
d="M758 443v-149q-12 -1 -32 -4t-36.5 -5t-32.5 -3v-16q0 -140 -66 -207.5t-207 -67.5h-67q-168 0 -235.5 48.5t-67.5 171.5v18q0 126 99 151q-37 42 -37 136v12q0 99 53.5 142.5t167.5 43.5h21q58 0 183 -31v-182h-146l-12 46q-12 4 -37 4h-23q-35 0 -35 -32v-27
q0 -49 49 -49h65v-149h-100q-28 0 -40.5 -11t-12.5 -40v-29q0 -31 12 -41.5t49 -10.5h101q59 0 84 23.5t25 77.5v21q-54 7 -74 10v149h352z" />
    <glyph glyph-name="copyright.ss12" horiz-adv-x="427" 
d="M214 314q-95 0 -148 53t-53 148t53 147.5t148 52.5q94 0 147 -52.5t53 -147.5t-52.5 -148t-147.5 -53zM214 354q77 0 117 41t40 120t-40 120t-117 41t-117.5 -41t-40.5 -120t40.5 -120t117.5 -41zM302 487v-56q-42 -22 -80 -22h-21q-39 0 -61.5 22.5t-23.5 62.5v42
q0 40 22.5 62.5t62.5 22.5h17q24 0 84 -11v-77h-60l-7 26q-11 3 -24 3q-23 0 -23 -27v-41q0 -22 23 -22h5q21 0 26 15h60z" />
    <glyph glyph-name="acute.case" 
d="M415 869v-28l-190 -111l-89 55l122 161z" />
    <glyph glyph-name="breve.case" 
d="M430 912v-30q0 -67 -48 -107.5t-132 -40.5t-132.5 40.5t-48.5 107.5v30h117v-4q0 -46 64 -46t64 46v4h116z" />
    <glyph glyph-name="caron.case" 
d="M313 739h-126l-119 131l59 53l123 -79l123 79l59 -53z" />
    <glyph glyph-name="circumflex.case" 
d="M377 734l-128 82l-128 -82l-63 55l124 139h134l124 -139z" />
    <glyph glyph-name="dieresis.case" 
d="M129 743q-44 0 -73.5 25.5t-29.5 66.5q0 42 29.5 68t73.5 26q43 0 72 -26t29 -68q0 -41 -29 -66.5t-72 -25.5zM370 743q-42 0 -71 26t-29 66q0 42 29 68t71 26q44 0 73.5 -26t29.5 -68q0 -41 -29.5 -66.5t-73.5 -25.5z" />
    <glyph glyph-name="dotaccent.case" 
d="M248 740q-44 0 -74 26.5t-30 68.5q0 43 30 70.5t74 27.5q46 0 76.5 -27t30.5 -71q0 -42 -30.5 -68.5t-76.5 -26.5z" />
    <glyph glyph-name="grave.case" 
d="M382 788l-85 -53l-182 106v27l150 74z" />
    <glyph glyph-name="hungarumlaut.case" 
d="M269 889v-25l-155 -123l-76 52l115 153zM462 889v-25l-153 -123l-78 52l117 153z" />
    <glyph glyph-name="macron.case" 
d="M418 877v-120h-336v120h336z" />
    <glyph glyph-name="ring.case" 
d="M274 719h-49q-46 0 -71.5 24.5t-25.5 71.5v33q0 97 97 97h49q97 0 97 -97v-33q-1 -96 -97 -96zM233 792h32q23 0 27 26v28q0 29 -27 29h-32q-27 0 -27 -29v-28q0 -26 27 -26z" />
    <glyph glyph-name="tilde.case" 
d="M463 854l-79 -88q-23 -26 -68 -26h-14t-12 2.5t-10.5 4t-13 7.5t-16 10.5t-23 16.5t-29.5 21l-92 -55l-62 55l66 76q37 41 80 41q12 0 20.5 -1.5t14.5 -2.5t16.5 -8t16 -10.5t23 -17t29.5 -22.5l91 52z" />
    <glyph glyph-name="caron.alt" 
d="M351 789v-29l-71 -180h-104l15 209h160z" />
    </font>
</defs>
</svg>
