<?xml version="1.0" standalone="no"?>
<!DOCTYPE svg PUBLIC "-//W3C//DTD SVG 1.1//EN" "http://www.w3.org/Graphics/SVG/1.1/DTD/svg11.dtd" >
<svg xmlns="http://www.w3.org/2000/svg" xmlns:xlink="http://www.w3.org/1999/xlink" version="1.1">
<metadata>
Created by FontForge 20150102 at Tue Feb  3 15:57:33 2015
 By uniteet7
Copyright (c) 2012 by Rene Bieder. All rights reserved.
</metadata>
<defs>
<font id="ReneBiederQuadonBoldItalic" horiz-adv-x="612" >
  <font-face 
    font-family="ReneBiederQuadonBoldItalic"
    font-weight="700"
    font-style="italic"
    font-stretch="normal"
    units-per-em="1000"
    panose-1="0 0 8 0 0 0 0 0 0 0"
    ascent="800"
    descent="-200"
    x-height="525"
    cap-height="700"
    bbox="-201 -248 1304.12 927"
    underline-thickness="50"
    underline-position="-90"
    slope="-8"
    unicode-range="U+0020-2212"
  />
<missing-glyph horiz-adv-x="683" 
d="M8 0l-8 9l674 691l9 -8z" />
    <glyph glyph-name="f_f" unicode="ff" horiz-adv-x="772" 
d="M643 525h152l-13 -97h-153l-69 -436q-21 -81 -57 -110t-73 -29q-47 0 -102 8l14 95h27q30 0 42 7.5t17 29.5l69 435h-229l-69 -436q-21 -81 -57 -110t-73 -29q-47 0 -102 8l14 95h27q30 0 42 7.5t17 29.5l69 435h-71l9 86q15 2 41.5 4t30.5 2l11 58q25 126 135 144
q37 6 141 18l3 -92q-4 -1 -37.5 -8.5t-56.5 -14.5q-27 -8 -39.5 -24t-15.5 -45l-5 -31h226l10 53q25 126 135 144q37 6 141 18l3 -92q-4 -1 -37.5 -8.5t-56.5 -14.5q-27 -8 -39.5 -24t-15.5 -45z" />
    <glyph glyph-name="f_f_i" unicode="ffi" horiz-adv-x="1066" 
d="M1000 525l-55 -380q-3 -28 5.5 -40t35.5 -12h40l-11 -94q-47 -8 -102 -8q-50 0 -82 30t-22 97l47 310h-227l-69 -436q-21 -81 -57 -110t-73 -29q-47 0 -102 8l14 95h27q30 0 42 7.5t17 29.5l69 435h-229l-69 -436q-21 -81 -57 -110t-73 -29q-47 0 -102 8l14 95h27
q30 0 42 7.5t17 29.5l69 435h-71l9 86q15 2 41.5 4t30.5 2l11 58q25 126 135 144q37 6 141 18l3 -92q-4 -1 -37.5 -8.5t-56.5 -14.5q-27 -8 -39.5 -24t-15.5 -45l-5 -31h226l10 53q25 126 135 144q37 6 141 18l3 -92q-4 -1 -37.5 -8.5t-56.5 -14.5q-27 -8 -39.5 -24
t-15.5 -45l-5 -31h357zM956 735q34 0 54 -21.5t16 -55.5q-4 -28 -27 -45t-54 -17q-34 0 -54 21t-16 54q4 29 27.5 46.5t53.5 17.5z" />
    <glyph glyph-name="f_f_l" unicode="ffl" horiz-adv-x="1070" 
d="M794 740l3 -92q-4 -1 -37.5 -8.5t-56.5 -14.5q-27 -8 -39.5 -24t-15.5 -45l-5 -31h152l-13 -97h-153l-69 -436q-21 -81 -57 -110t-73 -29q-47 0 -102 8l14 95h27q30 0 42 7.5t17 29.5l69 435h-229l-69 -436q-21 -81 -57 -110t-73 -29q-47 0 -102 8l14 95h27q30 0 42 7.5
t17 29.5l69 435h-71l9 86q15 2 41.5 4t30.5 2l11 58q25 126 135 144q37 6 141 18l3 -92q-4 -1 -37.5 -8.5t-56.5 -14.5q-27 -8 -39.5 -24t-15.5 -45l-5 -31h226l10 53q25 126 135 144q37 6 141 18zM1019 93l-12 -83q-44 -19 -103 -19q-52 0 -83.5 30t-20.5 97l72 482
q-18 2 -62 8l11 92h194l-80 -555q-4 -27 5 -39.5t37 -12.5h42z" />
    <glyph glyph-name=".notdef" horiz-adv-x="683" 
d="M8 0l-8 9l674 691l9 -8z" />
    <glyph glyph-name=".null" horiz-adv-x="0" 
 />
    <glyph glyph-name="nonmarkingreturn" horiz-adv-x="333" 
 />
    <glyph glyph-name="space" unicode=" " horiz-adv-x="168" 
 />
    <glyph glyph-name="exclam" unicode="!" horiz-adv-x="241" 
d="M256 700l-15 -111l-87 -367h-77l17 367l15 111h147zM88 -5q-82 0 -71 77q9 66 82 66q82 0 71 -79q-10 -64 -82 -64z" />
    <glyph glyph-name="quotedbl" unicode="&#x22;" horiz-adv-x="358" 
d="M221 700l-10 -74q-13 -86 -91 -218l-65 4l40 288h126zM385 700l-10 -74q-11 -83 -91 -218l-65 4l40 288h126z" />
    <glyph glyph-name="numbersign" unicode="#" horiz-adv-x="683" 
d="M535 273h105l-16 -112h-121l-48 -161h-114l48 161h-169l-49 -161h-113l48 161h-101l16 112h117l50 159h-114l15 112h131l48 156h114l-48 -156h170l47 156h114l-48 -156h87l-16 -112h-103zM302 432l-50 -159h170l49 159h-169z" />
    <glyph glyph-name="dollar" unicode="$" horiz-adv-x="647" 
d="M499 484v97q-35 16 -107 18l-25 -179l110 -26q73 -18 99 -56t15 -113l-6 -42q-13 -97 -72 -140t-181 -46l-10 -66h-102l10 67q-79 4 -202 49l21 170h114v-94q45 -20 116 -22l29 206l-104 25q-80 23 -105.5 60t-14.5 116l2 11q14 95 71.5 138t177.5 47l10 73h101l-10 -75
q95 -6 195 -39l-23 -179h-109zM325 430l24 169q-58 0 -86 -18.5t-33 -60.5l-1 -10q-5 -30 5 -45t42 -23zM349 297l-27 -196q64 1 92 19.5t35 65.5l2 23q6 37 -8.5 52.5t-66.5 28.5z" />
    <glyph glyph-name="percent" unicode="%" horiz-adv-x="940" 
d="M808 715l-307 -365l-294 -361h-55l306 361l294 365h56zM252 712h66q84 -1 111.5 -41.5t14.5 -131.5l-11 -79q-13 -90 -49.5 -127t-119.5 -37h-66q-85 0 -114 40t-17 131l11 79q13 91 50.5 128.5t123.5 37.5zM301 628h-50q-39 0 -57 -21.5t-24 -67.5l-11 -78
q-6 -46 3.5 -63.5t48.5 -17.5h50q38 0 55.5 21t24.5 67l11 78q6 47 -3.5 64.5t-47.5 17.5zM704 404h66q83 -1 111 -41.5t16 -131.5l-11 -79q-14 -91 -50.5 -127.5t-119.5 -36.5h-66q-84 0 -113.5 40t-17.5 131l11 78q13 92 50.5 129.5t123.5 37.5zM753 320h-50
q-39 0 -56.5 -21t-24.5 -69l-10 -77q-7 -46 2.5 -63.5t48.5 -17.5h50q38 0 56 21t25 67l10 77q7 47 -2.5 65t-48.5 18z" />
    <glyph glyph-name="ampersand" unicode="&#x26;" horiz-adv-x="738" 
d="M701 422l-11 -99q-75 -9 -85 -11q-31 -92 -66 -148q42 -49 60.5 -60t49.5 -11h48l-13 -94q-49 -8 -108 -8t-107 63q-34 -40 -70 -50.5t-122 -10.5h-38q-136 0 -186.5 41t-33.5 159l5 37q10 72 50.5 112.5t110.5 61.5q-40 65 -33 118l3 17q12 93 65 132.5t156 39.5h23
q74 0 187 -35l-18 -146h-109v63q-27 13 -76 13h-10q-40 0 -60.5 -19t-26.5 -59l-1 -6q-3 -27 2.5 -44t24.5 -44l152 -170q41 65 68 161zM242 103h38q43 0 66.5 10t44.5 36q-66 76 -148 176q-84 -26 -94 -90l-3 -29q-9 -60 13 -81.5t83 -21.5z" />
    <glyph glyph-name="quotesingle" unicode="'" horiz-adv-x="193" 
d="M221 700l-10 -74q-13 -86 -91 -218l-65 4l40 288h126z" />
    <glyph glyph-name="parenleft" unicode="(" horiz-adv-x="288" 
d="M185 522l-67 -477q-8 -59 11 -86.5t80 -64.5l-33 -56q-48 20 -76.5 36t-57 41t-38 58.5t-3.5 77.5l67 479q7 45 25 77.5t52 57t66 39.5t86 35l26 -62q-72 -37 -101 -67t-37 -88z" />
    <glyph glyph-name="parenright" unicode=")" horiz-adv-x="295" 
d="M117 52l67 477q6 41 -3 67t-27.5 42.5t-60.5 41.5l33 56q48 -20 77 -36t57 -40.5t37.5 -58.5t3.5 -78l-67 -478q-5 -36 -19.5 -65t-32.5 -49t-50 -38.5t-57.5 -29.5t-69.5 -28l-26 62q72 37 101 67t37 88z" />
    <glyph glyph-name="asterisk" unicode="*" horiz-adv-x="403" 
d="M404 462l-45 -65l-41 27l-65 60l3 -93l-6 -51h-75l6 51l31 94l-78 -61l-49 -27l-31 65l49 27l92 31l-82 31l-43 26l46 65l41 -26l65 -59l-3 90l6 53h75l-6 -53l-30 -90l77 59l49 26l31 -65l-49 -26l-91 -31l81 -31z" />
    <glyph glyph-name="plus" unicode="+" horiz-adv-x="588" 
d="M48 295l16 108h193l27 198h114l-27 -198h193l-16 -108h-193l-27 -197h-114l27 197h-193z" />
    <glyph glyph-name="comma" unicode="," horiz-adv-x="214" 
d="M-2 15l26 79q13 38 57 32q43 -7 59.5 -21.5t12.5 -45.5q-11 -82 -141 -196l-33 30q44 64 57 109z" />
    <glyph glyph-name="hyphen" unicode="-" horiz-adv-x="378" 
d="M354 361l-15 -108h-302l15 108h302z" />
    <glyph glyph-name="period" unicode="." horiz-adv-x="220" 
d="M78 -5q-82 0 -71 77q9 66 82 66q81 0 70 -79q-9 -64 -81 -64z" />
    <glyph glyph-name="slash" unicode="/" horiz-adv-x="445" 
d="M529 782l-512 -852h-80l512 852h80z" />
    <glyph glyph-name="zero" unicode="0" horiz-adv-x="643" 
d="M312 -12h-47q-132 0 -184.5 60.5t-35.5 194.5l30 215q19 136 85.5 194.5t201.5 58.5h46q132 0 182.5 -62t31.5 -198l-30 -214q-21 -133 -86 -191t-194 -58zM285 105h24q127 0 145 133l32 232q10 68 -14 98t-88 30h-25q-127 0 -146 -135l-32 -232q-9 -66 15.5 -96
t88.5 -30z" />
    <glyph glyph-name="one" unicode="1" horiz-adv-x="417" 
d="M356 706l-87 -599q40 -1 91 -10l-11 -97h-342l12 99q46 7 112 10l69 468l-127 -18l14 99l193 48h76z" />
    <glyph glyph-name="two" unicode="2" horiz-adv-x="594" 
d="M532 197l-27 -197h-492l15 101q15 108 39.5 151.5t84.5 75.5q37 20 188 82q53 22 74.5 38t25.5 41l4 29q7 51 -8.5 67t-70.5 16q-78 0 -134 -24l-22 -64h-104l19 155q86 26 138.5 34.5t121.5 8.5q118 0 162.5 -47.5t29.5 -157.5l-5 -29q-10 -73 -44.5 -104.5
t-128.5 -65.5l-60 -22.5t-72 -27.5t-43 -20q-34 -20 -46.5 -44t-22.5 -90h261l24 94h93z" />
    <glyph glyph-name="three" unicode="3" horiz-adv-x="572" 
d="M561 525l-4 -34q-9 -71 -32.5 -102t-68.5 -41q78 -18 61 -141l-6 -39q-13 -98 -68.5 -136t-182.5 -38q-110 0 -255 31l19 155h93l-2 -70q76 -13 149 -13q64 0 88.5 19t32.5 71l4 33q8 57 -15.5 68.5t-115.5 11.5h-13h-86l14 101h81q103 0 134 15t40 81l3 22
q7 51 -10.5 68.5t-75.5 17.5q-61 0 -151 -18l-22 -75h-94l20 161q153 36 253 36q130 0 177 -42t33 -142z" />
    <glyph glyph-name="four" unicode="4" horiz-adv-x="620" 
d="M16 293l397 407h139l-57 -407h94l-13 -89l-96 -11l-14 -90q33 -3 93 -11l-10 -92h-331l11 93q38 6 103 10l13 90h-343zM160 293h197l37 257z" />
    <glyph glyph-name="five" unicode="5" horiz-adv-x="576" 
d="M557 533h-92l3 62h-245l-40 -197q71 35 153 35h59q169 0 147 -157l-14 -98q-14 -103 -71.5 -145.5t-184.5 -42.5q-109 0 -271 35l19 152h91v-71q79 -12 153 -12q70 0 99.5 22.5t37.5 77.5l9 71q12 70 -57 70h-61q-36 0 -62.5 -10.5t-66.5 -36.5l-105 33l68 379h454z" />
    <glyph glyph-name="six" unicode="6" horiz-adv-x="624" 
d="M385 432h41q103 0 142 -40.5t26 -135.5l-12 -79q-13 -98 -75 -141t-179 -43h-57q-259 0 -227 249l31 211q35 258 296 258q70 0 117.5 -7t130.5 -26l-19 -154h-113l-7 60q-56 14 -115 14q-65 0 -104 -36.5t-49 -105.5l-13 -79q50 30 90 43t96 12zM191 290l-12 -74
q-9 -59 17.5 -84.5t88.5 -25.5h53q105 2 119 97l6 43q7 49 -10.5 68t-67.5 19h-32q-78 0 -162 -43z" />
    <glyph glyph-name="seven" unicode="7" horiz-adv-x="572" 
d="M598 595l-343 -595h-162l2 25l370 563h-284l-28 -85h-93l27 197h525z" />
    <glyph glyph-name="eight" unicode="8" horiz-adv-x="662" 
d="M629 535l-7 -42q-8 -61 -36.5 -94t-87.5 -46q130 -23 112 -159l-3 -17q-14 -99 -74 -144t-182 -45h-105q-124 0 -175.5 48t-38.5 147l2 18q10 68 46.5 104.5t111.5 49.5q-105 27 -87 145l6 42q13 87 70.5 126.5t172.5 39.5h81q111 0 158 -42.5t36 -130.5zM230 523l-4 -38
q-7 -43 14 -59.5t77 -16.5h67q53 0 81 20t35 63l5 38q6 44 -14 61.5t-74 18.5h-67q-107 0 -120 -87zM471 193l6 37q6 44 -15.5 64t-76.5 20h-86q-112 0 -124 -90l-6 -38q-6 -48 15.5 -69t78.5 -21h86q109 0 122 97z" />
    <glyph glyph-name="nine" unicode="9" horiz-adv-x="624" 
d="M264 270h-42q-103 0 -142 40t-26 134l11 80q27 187 245 187h79q130 0 180.5 -61t33.5 -192l-29 -213q-19 -136 -91 -195.5t-216 -59.5q-41 0 -82 5t-63 10t-89 20l19 159h125l-7 -65q59 -15 103 -15q75 0 113.5 32t48.5 104l13 73q-36 -15 -57 -22.5t-55 -14t-72 -6.5z
M456 405l14 81q8 61 -16 87.5t-90 25.5h-53q-105 0 -120 -101l-6 -42q-7 -49 10.5 -68.5t67.5 -19.5h32q85 0 161 37z" />
    <glyph glyph-name="colon" unicode=":" horiz-adv-x="220" 
d="M133 387q-82 0 -71 78q5 34 24.5 49.5t56.5 15.5q83 0 71 -79q-9 -64 -81 -64zM78 -5q-82 0 -71 77q9 66 82 66q81 0 70 -79q-9 -64 -81 -64z" />
    <glyph glyph-name="semicolon" unicode=";" horiz-adv-x="220" 
d="M133 387q-82 0 -71 78q5 34 24.5 49.5t56.5 15.5q83 0 71 -79q-9 -64 -81 -64zM-2 15l26 79q14 40 57 32q42 -8 59 -22t13 -45q-11 -82 -141 -196l-33 30q44 64 57 109z" />
    <glyph glyph-name="less" unicode="&#x3c;" horiz-adv-x="522" 
d="M515 509l-337 -162l-1 -4l290 -161l-11 -84h-55l-361 209l9 72l422 210h54z" />
    <glyph glyph-name="equal" unicode="=" horiz-adv-x="551" 
d="M542 516l-14 -110h-464l15 110h463zM510 283l-16 -109h-463l16 109h463z" />
    <glyph glyph-name="greater" unicode="&#x3e;" horiz-adv-x="522" 
d="M141 589l363 -210l-9 -72l-418 -209h-57l10 84l337 161l1 4l-290 162l11 80h52z" />
    <glyph glyph-name="question" unicode="?" horiz-adv-x="517" 
d="M53 519l18 149q89 26 138.5 34.5t120.5 8.5q116 0 163 -44t33 -145l-4 -23q-9 -68 -35 -102.5t-72 -48.5q-18 -5 -47 -13t-53 -15t-46 -14l-16 -94h-107l6 165q109 31 163 54q37 14 54 29.5t21 39.5l3 23q7 51 -8.5 67t-72.5 16q-75 0 -133 -23l-21 -64h-105zM174 -5
q-82 0 -70 77q4 34 23.5 50t57.5 16q82 0 71 -79q-10 -64 -82 -64z" />
    <glyph glyph-name="at" unicode="@" horiz-adv-x="1016" 
d="M770 502l-89 -330q-11 -43 -1 -57.5t42 -14.5q72 0 126 67t70 184q22 149 -55 230.5t-241 81.5q-215 0 -352.5 -122.5t-164.5 -315.5q-23 -165 66 -254.5t268 -89.5q164 0 313 72l18 -46q-149 -76 -331 -76q-204 0 -309 107t-78 299q30 213 182.5 344.5t385.5 131.5
q189 0 283.5 -98t69.5 -271q-20 -141 -97.5 -221t-199.5 -80q-24 0 -40.5 1.5t-35.5 7.5t-29 19.5t-11 34.5q-42 -39 -78 -56t-92 -17h-16q-71 0 -105 47t-11 139l31 121q20 75 70 118.5t111 43.5h21q70 0 146 -39l12 39h121zM568 177l54 213q-45 26 -103 26h-18
q-80 0 -110 -121l-13 -56q-15 -65 -2 -89.5t60 -24.5h11q24 0 45 7t34 15t37 25z" />
    <glyph glyph-name="A" unicode="A" horiz-adv-x="799" 
d="M551 700l115 -593q38 -1 87 -10l-10 -97h-312l12 99q28 4 70 7l-18 100h-230l-44 -100q12 -2 27.5 -5t24.5 -4l-11 -97h-279l12 99q46 7 85 8l235 487l-73 9l12 97h297zM433 585h-2l-122 -262h174z" />
    <glyph glyph-name="B" unicode="B" horiz-adv-x="678" 
d="M652 504l-1 -10q-14 -104 -105 -137q44 -12 65 -51t12 -103l-3 -15q-15 -107 -71 -147t-181 -41h-371l12 99q20 2 48.5 5t30.5 3l73 486q-9 1 -35.5 4t-44.5 6l12 97h353q123 0 171.5 -47.5t34.5 -148.5zM270 408h130q54 0 81.5 18.5t33.5 62.5l2 14q7 48 -8 66t-70 18
h-143zM484 213l2 16q6 44 -16.5 59t-79.5 15h-135l-26 -190h130q63 0 90 22t35 78z" />
    <glyph glyph-name="C" unicode="C" horiz-adv-x="647" 
d="M594 185l-13 -108q-109 -89 -250 -89h-69q-126 0 -179 62.5t-36 191.5l30 211q36 258 290 258h42q124 0 246 -37l-25 -196h-115l2 109q-42 12 -152 12q-63 0 -101.5 -37t-48.5 -105l-33 -234q-16 -120 105 -120h48q95 0 144 86z" />
    <glyph glyph-name="D" unicode="D" horiz-adv-x="718" 
d="M93 700h388q129 -1 181 -62.5t34 -189.5l-29 -208q-19 -126 -85.5 -183t-192.5 -57h-392l12 99q35 4 79 9l73 485q-8 1 -34 4t-46 6zM530 237l32 231q16 119 -105 119h-161l-67 -474h156q60 0 98 32.5t47 91.5z" />
    <glyph glyph-name="E" unicode="E" horiz-adv-x="643" 
d="M649 700l-28 -203h-85l-5 93h-238l-25 -179h186l-17 -118h-185l-26 -183h243l30 93h87l-28 -203h-561l12 99q19 2 44.5 4.5t31.5 3.5l74 487q-9 1 -33.5 3.5t-44.5 5.5l12 97h556z" />
    <glyph glyph-name="F" unicode="F" horiz-adv-x="628" 
d="M656 700l-28 -203h-85l-5 93h-245l-28 -199h218l-17 -118h-218l-25 -167q11 -1 56.5 -4t59.5 -5l-11 -97h-331l12 99q54 6 76 8l74 486q-30 3 -78 10l12 97h563z" />
    <glyph glyph-name="G" unicode="G" horiz-adv-x="690" 
d="M656 363l-24 -173q-8 -55 -37 -96.5t-69.5 -63t-81.5 -32t-81 -10.5h-92q-260 0 -223 255l27 194q18 130 97 202t204 72h43q36 0 115 -10.5t144 -26.5l-26 -199h-114v102q-45 12 -158 12q-66 0 -112 -42.5t-56 -111.5l-29 -209q-16 -116 114 -116h83q49 0 86 27t44 71
l6 40q-98 6 -187 14l12 101h315z" />
    <glyph glyph-name="H" unicode="H" horiz-adv-x="793" 
d="M823 700l-12 -99q-50 -6 -79 -8l-74 -487q8 -1 23.5 -2.5t28 -3t23.5 -3.5l-10 -97h-280l12 99q10 1 21 2t24.5 2t20.5 2l28 189h-295l-28 -189q20 -2 62 -8l-11 -97h-280l12 99q56 6 79 8l73 486q-45 5 -80 10l12 97h282l-12 -99q-9 -1 -20 -2t-24 -2t-20 -2l-28 -186
h295l28 186q-18 2 -64 8l11 97h282z" />
    <glyph glyph-name="I" unicode="I" horiz-adv-x="355" 
d="M386 700l-12 -99q-52 -6 -78 -8l-73 -486q22 -2 76 -10l-11 -97h-291l12 99q54 6 76 8l74 486q-26 2 -78 10l12 97h293z" />
    <glyph glyph-name="J" unicode="J" horiz-adv-x="367" 
d="M401 700l-11 -99q-52 -6 -77 -8l-71 -482q-11 -76 -34 -113.5t-91 -92.5q-55 -44 -88 -63l-55 60l52 49q41 38 56 71.5t24 95.5l69 475q-22 2 -78 10l11 97h293z" />
    <glyph glyph-name="K" unicode="K" horiz-adv-x="762" 
d="M386 700l-12 -99q-52 -6 -78 -8l-28 -187h138l162 189q-17 2 -61 8l11 97h277l-11 -99q-14 -2 -38.5 -3.5t-30.5 -2.5l-205 -245l131 -244q6 -1 34 -4t44 -5l-11 -97h-296l11 99q10 1 34.5 2t28.5 1l-90 187h-145l-28 -182q22 -2 76 -10l-11 -97h-291l12 99q54 6 76 8
l74 486q-26 2 -78 10l12 97h293z" />
    <glyph glyph-name="L" unicode="L" horiz-adv-x="626" 
d="M558 0h-561l12 99q63 7 76 8l74 487q-70 8 -78 9l12 97h311l-11 -99q-47 -8 -97 -9l-70 -482h238l32 109h93z" />
    <glyph glyph-name="M" unicode="M" horiz-adv-x="958" 
d="M988 700l-11 -99q-66 -7 -82 -8l-73 -486q21 -2 77 -10l-11 -97h-275l12 99q4 1 64 6l63 427l-278 -532h-89l-104 532l-63 -426q6 -1 29.5 -4t37.5 -5l-11 -97h-277l12 99q62 7 79 8l73 485q-16 1 -80 11l12 97h258l108 -491h2l261 491h266z" />
    <glyph glyph-name="N" unicode="N" horiz-adv-x="792" 
d="M822 700l-12 -99q-43 -6 -80 -9l-85 -592h-143l-238 484l-54 -379q12 -1 62 -8l-11 -97h-264l12 99q56 6 79 8l73 486q-40 4 -80 10l12 97h209l250 -504l57 399q-14 1 -65 8l11 97h267z" />
    <glyph glyph-name="O" unicode="O" horiz-adv-x="707" 
d="M367 -12h-93q-128 0 -186 72t-41 199l26 183q18 130 93.5 199.5t204.5 69.5h93q126 0 182.5 -73t38.5 -203l-26 -182q-17 -127 -92 -196t-200 -69zM294 111h71q134 0 156 139l29 204q10 72 -17.5 103.5t-95.5 31.5h-71q-66 0 -105.5 -37t-49.5 -105l-28 -204
q-10 -70 16.5 -101t94.5 -31z" />
    <glyph glyph-name="P" unicode="P" horiz-adv-x="661" 
d="M93 700h366q118 -1 167 -52.5t34 -157.5l-8 -58q-14 -101 -74.5 -147t-177.5 -46h-153l-21 -132q34 -1 83 -10l-11 -97h-301l12 99q52 6 79 8l73 486q-9 1 -35.5 4t-44.5 6zM526 457l4 31q8 51 -14.5 75t-77.5 24h-142l-34 -234h138q62 0 90 23t36 81z" />
    <glyph glyph-name="Q" unicode="Q" horiz-adv-x="707" 
d="M371 711h93q126 0 182.5 -73t38.5 -203l-26 -182q-17 -127 -92 -196t-200 -69h-93q-128 0 -186 72t-41 199l26 183q18 130 93.5 199.5t204.5 69.5zM438 593h-71q-66 0 -106 -37t-49 -105l-30 -212q-10 -70 16.5 -101t94.5 -31h71q136 0 156 139l30 212q10 72 -17 103.5
t-95 31.5zM226 -127l3 56q111 24 221 34q141 11 162 -97l-104 -68q-18 51 -42.5 66t-75.5 18q-64 3 -164 -9z" />
    <glyph glyph-name="R" unicode="R" horiz-adv-x="704" 
d="M93 700h366q120 0 172.5 -49.5t38.5 -155.5l-8 -52q-9 -66 -43 -107t-94 -75q40 -77 59 -159q35 -2 75 -8l-11 -94h-223l16 109q-18 93 -39 138h-155l-22 -144q10 -1 30 -2.5t30 -2.5l-11 -98h-277l12 99q56 6 79 8l73 486q-9 1 -35.5 4t-44.5 6zM262 355h149
q53 0 85.5 25.5t37.5 68.5l5 44q12 94 -92 94h-151z" />
    <glyph glyph-name="S" unicode="S" horiz-adv-x="647" 
d="M162 214v-96q49 -22 138 -22h15q68 0 96.5 18.5t36.5 67.5l3 24q6 38 -8.5 53.5t-67.5 29.5l-171 42q-80 24 -105.5 61.5t-13.5 118.5l1 12q15 101 78.5 144.5t194.5 43.5h29q122 0 243 -42l-23 -183h-108v99q-39 19 -119 19h-30q-58 0 -86.5 -19t-34.5 -62l-1 -10
q-5 -31 5 -46t42 -24l201 -48q73 -19 99 -57.5t15 -114.5l-6 -43q-14 -103 -77 -147t-195 -44h-39q-71 0 -121 11t-126 41l21 173h114z" />
    <glyph glyph-name="T" unicode="T" horiz-adv-x="691" 
d="M697 487h-96l6 100h-146l-70 -480q41 -3 83 -10l-11 -97h-306l12 99q32 4 84 8l70 480h-147l-23 -100h-95l29 213h639z" />
    <glyph glyph-name="U" unicode="U" horiz-adv-x="757" 
d="M790 700l-12 -99q-10 -1 -33 -3.5t-34 -4.5l-52 -350q-19 -132 -86.5 -193.5t-194.5 -61.5h-56q-255 0 -219 262l51 344q-70 8 -76 9l12 97h296l-12 -99q-58 -6 -82 -8l-55 -367q-8 -59 18.5 -92t85.5 -33h44q59 0 98 36t47 96l53 362q-15 1 -68 8l11 97h264z" />
    <glyph glyph-name="V" unicode="V" horiz-adv-x="763" 
d="M807 700l-11 -99q-50 -6 -73 -8l-281 -593h-199l-109 594q-32 3 -67 9l11 97h301l-11 -99q-14 -1 -42 -3.5t-42 -3.5l72 -454h18l199 454q-46 4 -81 9l12 97h303z" />
    <glyph glyph-name="W" unicode="W" horiz-adv-x="1012" 
d="M1062 700l-12 -99q-17 -2 -64 -7l-242 -594h-168l-34 448h-3l-163 -448h-185l-69 595q-9 1 -61 8l12 97h288l-12 -99q-14 -2 -44 -3.5t-36 -2.5l36 -435h11l203 540h110l54 -537h10l169 432q-46 4 -78 8l12 97h266z" />
    <glyph glyph-name="X" unicode="X" horiz-adv-x="715" 
d="M470 350l143 -246q18 -1 61 -7l-11 -97h-283l11 98l54 3l-96 185h-1l-132 -182q22 -1 63 -7l-11 -97h-279l12 99q21 3 68 7l205 242l-150 248q-14 1 -60 7l12 97h296l-12 -99q-21 -2 -59 -4l98 -181h2l135 179q-8 1 -66 8l11 97h280l-12 -99q-48 -6 -70 -8z" />
    <glyph glyph-name="Y" unicode="Y" horiz-adv-x="712" 
d="M353 700l-12 -99q-21 -2 -59 -4l88 -250h4l162 249q-15 1 -63 7l12 97h271l-11 -99q-41 -6 -76 -9l-249 -347l-23 -138q24 -2 75 -10l-11 -97h-290l12 99q54 6 76 8l22 133l-146 354q-29 3 -68 9l11 97h275z" />
    <glyph glyph-name="Z" unicode="Z" horiz-adv-x="629" 
d="M652 700l-13 -95l-440 -498h260l32 118h97l-31 -225h-556l13 88q1 19 17 36l439 471h-272l-32 -108h-96l29 213h553z" />
    <glyph glyph-name="bracketleft" unicode="[" horiz-adv-x="319" 
d="M356 717l-12 -89h-127l-96 -682h127l-12 -86h-245l120 857h245z" />
    <glyph glyph-name="backslash" unicode="\" horiz-adv-x="445" 
d="M413 -70h-77l-272 852h77z" />
    <glyph glyph-name="bracketright" unicode="]" horiz-adv-x="319" 
d="M215 -140h-245l11 86h127l96 682h-127l13 89h245z" />
    <glyph glyph-name="asciicircum" unicode="^" horiz-adv-x="410" 
d="M297 701l127 -194l-6 -46h-74l-88 132h-4l-125 -132h-80l6 46l183 194h61z" />
    <glyph glyph-name="underscore" unicode="_" horiz-adv-x="576" 
d="M529 -86l-9 -67h-580l9 67h580z" />
    <glyph glyph-name="grave" unicode="`" horiz-adv-x="500" 
d="M398 616l-57 -34l-134 106l1 19l103 47z" />
    <glyph glyph-name="a" unicode="a" 
d="M557 525l-57 -380q-3 -28 5.5 -40t36.5 -12h40l-11 -81q-43 -21 -97 -21q-17 0 -32.5 3t-33.5 11.5t-28 27.5t-10 46q-98 -87 -204 -87h-17q-68 0 -101 47.5t-19 144.5l25 184q12 82 57.5 121t113.5 39h17q53 0 85 -11t88 -42l9 50h133zM224 104h15q52 0 132 50l35 239
q-37 19 -57.5 24t-59.5 5h-17q-42 0 -63.5 -26t-30.5 -90l-13 -91q-9 -65 3 -88t56 -23z" />
    <glyph glyph-name="b" unicode="b" horiz-adv-x="624" 
d="M291 700l-33 -217q60 31 98.5 42.5t94.5 11.5h17q68 0 104 -44t24 -127l-26 -188q-26 -186 -195 -186h-14q-93 0 -298 13l84 595q-20 2 -62 8l11 92h195zM442 209l14 104q10 69 -1 95t-53 26h-17q-61 0 -135 -40l-46 -297q48 -6 122 -6h15q44 0 68 27t33 91z" />
    <glyph glyph-name="c" unicode="c" horiz-adv-x="545" 
d="M491 156l-11 -98q-97 -70 -210 -70h-57q-108 0 -150.5 53.5t-26.5 164.5l17 125q15 101 78 153.5t163 52.5h46q87 0 192 -33l-21 -165h-99l2 87q-42 11 -107 11q-108 0 -123 -120l-19 -126q-8 -58 13 -78.5t71 -20.5h28q73 0 101 53l7 11h106z" />
    <glyph glyph-name="d" unicode="d" horiz-adv-x="616" 
d="M576 700l-80 -555q-3 -28 5.5 -40t36.5 -12h42l-11 -78q-45 -24 -101 -24q-40 0 -75 21t-34 71l1 5q-4 -3 -30.5 -22t-34 -24t-30 -18t-35.5 -17.5t-33 -9.5t-39 -5h-17q-68 0 -101 47.5t-19 144.5l25 182q12 83 58.5 126t113.5 43h17q57 0 89.5 -11t89.5 -45l20 130
q-50 8 -70 10l9 81h203zM216 104h15q31 0 60 13t75 42l38 235q-38 22 -61 27.5t-62 5.5h-17q-77 0 -91 -101l-16 -111q-9 -65 3 -88t56 -23z" />
    <glyph glyph-name="e" unicode="e" horiz-adv-x="575" 
d="M314 537h33q223 0 193 -215l-17 -119h-360l-3 -27q-14 -92 87 -92h40q74 0 101 48l8 16h105l-11 -90q-81 -70 -215 -70h-30q-127 0 -175 57.5t-31 184.5l13 88q16 113 80.5 166t181.5 53zM419 296l8 60q7 45 -18 67t-74 22h-30q-50 0 -82.5 -26.5t-39.5 -74.5l-6 -48h242
z" />
    <glyph glyph-name="f" unicode="f" horiz-adv-x="411" 
d="M65 428l9 86q15 2 41.5 4t30.5 2l11 58q25 126 135 144q37 6 141 18l3 -92q-4 -1 -37.5 -8.5t-56.5 -14.5q-27 -8 -39.5 -24t-15.5 -45l-5 -31h152l-13 -97h-153l-69 -436q-21 -81 -57 -110t-73 -29q-47 0 -102 8l14 95h27q30 0 42 7.5t17 29.5l69 435h-71z" />
    <glyph glyph-name="g" unicode="g" horiz-adv-x="605" 
d="M622 525l-11 -94q-22 -3 -59 -7l-60 -410q-26 -190 -236 -190h-52q-124 0 -191 75l9 77h107v-17q17 -40 86 -40h39q41 0 70.5 24.5t36.5 72.5l10 63q-98 -58 -203 -58h-17q-72 0 -101 39t-18 120l27 194q22 160 167 160h16q37 0 71 -9t54 -19t55 -31l10 50h190zM229 133
h17q65 0 136 42l34 218q-60 34 -128 34h-15q-40 0 -60.5 -26t-30.5 -89l-11 -79q-8 -57 4 -78.5t54 -21.5z" />
    <glyph glyph-name="h" unicode="h" horiz-adv-x="680" 
d="M630 93l-11 -81q-45 -21 -104 -21q-18 0 -34.5 4t-36 16t-29 39t-4.5 66l31 212q9 64 1 80.5t-51 16.5h-12q-56 0 -151 -60l-51 -365h-132l85 600q-18 2 -62 8l11 92h194l-38 -254q135 91 223 91h11q135 0 113 -145l-36 -247q-4 -27 5 -39.5t36 -12.5h42z" />
    <glyph glyph-name="i" unicode="i" horiz-adv-x="324" 
d="M218 735q34 0 53.5 -21.5t15.5 -55.5q-4 -28 -26.5 -45t-53.5 -17q-34 0 -54 21t-16 54q4 29 27 46.5t54 17.5zM260 525l-56 -380q-3 -28 5.5 -40t36.5 -12h40l-12 -82q-45 -20 -101 -20q-51 0 -83 30t-21 97l47 306q-11 1 -32 4t-29 4l10 93h195z" />
    <glyph glyph-name="j" unicode="j" horiz-adv-x="294" 
d="M224 735q35 0 55 -21.5t16 -55.5q-4 -28 -27 -45t-54 -17q-34 0 -54 21t-16 54q4 29 27 46.5t53 17.5zM270 525l-61 -437q-9 -63 -31 -94t-91 -88q-50 -40 -88 -63l-50 60q7 8 24 23.5t29 27.5q41 38 55 64.5t21 77.5l49 328q-25 2 -65 8l10 93h198z" />
    <glyph glyph-name="k" unicode="k" horiz-adv-x="657" 
d="M644 525l-11 -94q-32 -5 -65 -7l-133 -146l74 -147q15 -26 28 -32t43 -6h40l-13 -94q-47 -8 -100 -8q-36 0 -67.5 25t-61.5 100l-48 103h-121l-19 -119q6 0 65 -8l-10 -92h-265l11 93q33 5 67 7l75 500q-18 2 -62 8l11 92h194l-52 -371h119l83 98q-6 0 -24 1.5t-29 2.5
l11 94h260z" />
    <glyph glyph-name="l" unicode="l" horiz-adv-x="331" 
d="M276 700l-80 -555q-4 -27 5 -39.5t37 -12.5h42l-12 -83q-44 -19 -103 -19q-52 0 -83.5 30t-20.5 97l72 482q-18 2 -62 8l11 92h194z" />
    <glyph glyph-name="m" unicode="m" horiz-adv-x="1007" 
d="M967 93l-10 -85q-44 -17 -105 -17q-18 0 -34.5 4t-35.5 14.5t-28.5 34.5t-5.5 58l31 226q9 64 1 80.5t-51 16.5h-12q-51 0 -140 -59l-60 -366h-126l46 328q9 64 1 80.5t-51 16.5h-12q-50 0 -135 -58l-57 -367h-132l65 424q-11 1 -32 4t-29 4l10 93h195l-12 -71
q117 83 205 83h13q53 0 80 -23t28 -73q127 96 222 96h12q133 0 112 -145l-36 -247q-3 -28 5.5 -40t35.5 -12h42z" />
    <glyph glyph-name="n" unicode="n" horiz-adv-x="680" 
d="M260 525l-14 -79q135 91 223 91h11q135 0 113 -145l-36 -247q-4 -27 5 -39.5t36 -12.5h40l-11 -85q-50 -17 -102 -17q-18 0 -34.5 4t-35.5 14.5t-28.5 34.5t-5.5 58l31 226q9 64 1 80.5t-51 16.5h-12q-56 0 -151 -60l-56 -365h-132l65 424q-11 1 -32 4t-29 4l10 93h195z
" />
    <glyph glyph-name="o" unicode="o" horiz-adv-x="604" 
d="M291 -12h-44q-125 0 -175 59t-33 181l10 71q17 125 80.5 181.5t189.5 56.5h43q123 0 171 -60t31 -185l-10 -71q-17 -122 -79.5 -177.5t-183.5 -55.5zM251 87h45q51 0 83 26t39 74l21 155q15 97 -88 97h-45q-51 0 -82 -27t-38 -77l-22 -154q-15 -94 87 -94z" />
    <glyph glyph-name="p" unicode="p" horiz-adv-x="630" 
d="M466 537h16q68 0 99.5 -47.5t17.5 -144.5l-27 -188q-11 -83 -56.5 -124t-113.5 -41h-16q-15 0 -29 1t-24 2.5t-23.5 5.5t-20.5 5.5t-21.5 8t-19.5 8.5t-22.5 10t-22.5 11l-19 -125q4 0 40 -3t50 -5l-11 -93h-289l10 95l68 6l76 505q-11 1 -32 4t-29 4l10 93h195l-11 -62
q41 24 66 37t63.5 25t75.5 12zM449 218l14 96q8 66 -2 88.5t-53 22.5h-15q-60 0 -140 -51l-39 -242q35 -23 60.5 -30t63.5 -7h17q43 0 63.5 27.5t30.5 95.5z" />
    <glyph glyph-name="q" unicode="q" horiz-adv-x="611" 
d="M557 525l-85 -606q14 -1 65 -8l-11 -93h-281l11 94q24 1 88 7l17 118q-45 -19 -65 -26t-52 -13t-70 -6h-17q-67 0 -103 44.5t-24 127.5l26 188q26 185 194 185h16q75 0 291 -12zM224 95h16q35 0 60.5 8t69.5 32l46 289q-58 6 -118 6h-15q-45 0 -68 -26.5t-32 -90.5
l-14 -97q-9 -69 1.5 -95t53.5 -26z" />
    <glyph glyph-name="r" unicode="r" horiz-adv-x="460" 
d="M272 525l-14 -93q45 51 83.5 75.5t86.5 24.5h51l-15 -122q-58 -3 -89 -6q-68 -1 -127 -58l-53 -346h-132l65 424q-11 1 -32 4t-29 4l10 93h195z" />
    <glyph glyph-name="s" unicode="s" horiz-adv-x="542" 
d="M59 374l3 23q10 74 64 107t159 33h18q125 0 213 -37l-15 -129h-107v63q-37 15 -99 15q-107 0 -116 -59v-6q-4 -26 13 -35t83 -22q38 -7 61 -12q92 -17 126 -48t26 -89l-4 -28q-12 -86 -65.5 -124t-156.5 -38h-39q-129 0 -209 75l16 106h100v-61q30 -27 97 -27h32
q91 0 100 70l2 11q5 30 -20 41t-128 32q-98 17 -130.5 48.5t-23.5 90.5z" />
    <glyph glyph-name="t" unicode="t" horiz-adv-x="421" 
d="M255 100h9q61 0 96 2l-6 -75q-73 -39 -168 -39h-11q-125 0 -104 146l42 293h-65l13 98h47q30 0 33 29l18 111q54 8 118 11l-19 -151h151l-13 -98h-151l-34 -238q-8 -56 -0.5 -72.5t44.5 -16.5z" />
    <glyph glyph-name="u" unicode="u" horiz-adv-x="677" 
d="M611 525l-56 -380q-3 -28 5.5 -40t36.5 -12h43l-11 -85q-50 -17 -102 -17q-97 0 -104 87l1 9q-47 -28 -72.5 -41.5t-71 -29.5t-81.5 -16h-12q-73 0 -98.5 32.5t-14.5 112.5l42 279q-7 1 -70 8l10 93h203l-44 -316q-10 -63 -1.5 -80t51.5 -17h12q55 0 150 60l40 252
q-10 2 -69 8l10 93h203z" />
    <glyph glyph-name="v" unicode="v" horiz-adv-x="642" 
d="M666 525l-11 -94q-26 -5 -76 -9l-231 -422h-139l-105 424q-16 2 -65 8l10 93h262l-10 -94q-13 -1 -33 -2.5t-28 -1.5l59 -315h1l171 313q-10 1 -31 3.5t-30 3.5l10 93h246z" />
    <glyph glyph-name="w" unicode="w" horiz-adv-x="886" 
d="M908 525l-10 -94q-47 -6 -63 -7l-179 -424h-157l-49 316l-144 -316h-150l-57 425q-2 0 -23.5 3t-34.5 4l10 93h238l-11 -94q-9 0 -19 -1t-22 -2.5t-19 -2.5l31 -302h2l175 402h102l69 -402h1l124 302q-10 1 -31 3.5t-31 3.5l10 93h238z" />
    <glyph glyph-name="x" unicode="x" horiz-adv-x="626" 
d="M633 525l-10 -94q-40 -5 -69 -6l-151 -163l80 -131q15 -25 28.5 -31.5t43.5 -6.5h39l-13 -94q-47 -8 -99 -8q-33 0 -62 22.5t-71 96.5l-67 115h-1l-107 -128q10 -1 30 -2t31 -2l-10 -93h-247l11 93q14 3 57 8l159 161l-95 161l-69 9l10 93h267l-11 -94l-52 -3l67 -125h1
l104 124q-9 1 -26 2.5t-25 2.5l10 93h247z" />
    <glyph glyph-name="y" unicode="y" horiz-adv-x="665" 
d="M689 525l-10 -94q-17 -3 -45 -6.5t-31 -3.5l-292 -493q27 0 58 -3l-11 -93h-286l11 93q19 2 104 5l37 60l-126 435q-10 1 -30 3.5t-29 3.5l10 93h277l-11 -94q-39 -5 -82 -6l73 -303h3l178 303q-10 1 -30 3.5t-30 3.5l10 93h252z" />
    <glyph glyph-name="z" unicode="z" horiz-adv-x="559" 
d="M557 525l-12 -94l-371 -332h232l32 86h74l-28 -185h-489l11 85q5 24 27 41l353 303h-227l-21 -79h-76l26 175h469z" />
    <glyph glyph-name="braceleft" unicode="{" horiz-adv-x="372" 
d="M262 522l-67 -477q-8 -58 10.5 -86t79.5 -65l-33 -56q-48 21 -76.5 36.5t-56.5 40.5t-38 58.5t-4 77.5l26 183l-81 13l13 96l86 13l24 174q6 44 24.5 77t52.5 57.5t66 39.5t86 35l26 -62q-72 -37 -101 -67t-37 -88z" />
    <glyph glyph-name="bar" unicode="|" horiz-adv-x="246" 
d="M224 780l-128 -913h-58l129 913h57z" />
    <glyph glyph-name="braceright" unicode="}" horiz-adv-x="372" 
d="M117 52l67 477q6 41 -3 67t-27.5 42.5t-60.5 41.5l33 56q48 -20 77 -36t57 -40.5t37.5 -58.5t3.5 -78l-23 -167l81 -13l-13 -96l-85 -13l-27 -189q-5 -36 -19.5 -65t-32.5 -49t-50 -38.5t-57.5 -29.5t-69.5 -28l-26 62q72 37 101 67t37 88z" />
    <glyph glyph-name="exclamdown" unicode="&#xa1;" horiz-adv-x="241" 
d="M168 630q82 0 70 -78q-7 -65 -81 -65q-82 0 -70 79q9 64 81 64zM15 35l87 368h77l-17 -368l-15 -110h-147z" />
    <glyph glyph-name="cent" unicode="&#xa2;" horiz-adv-x="545" 
d="M412 339l2 87q-36 10 -89 11l-48 -345q73 0 101 53l7 11h106l-11 -98q-85 -62 -185 -69l-9 -58h-101l8 57q-97 5 -134.5 58.5t-22.5 159.5l17 125q14 96 72 148t150 57l8 63h101l-8 -63q64 -4 156 -32l-21 -165h-99zM184 317l-19 -126q-8 -57 11.5 -77.5t67.5 -21.5
l48 344q-94 -6 -108 -119z" />
    <glyph glyph-name="sterling" unicode="&#xa3;" horiz-adv-x="614" 
d="M551 0h-556l12 101q33 25 52.5 43.5t37.5 51t18 67.5v19h-88l11 77h88v105q3 57 16 99t39.5 77t74.5 53t116 18h34q110 0 232 -37l-39 -180h-103l4 91q-39 16 -129 16q-54 0 -82 -35t-27 -101l2 -106h192l-23 -77h-170v-24q-1 -46 -27.5 -79t-78.5 -72l299 3l33 109h93z
" />
    <glyph glyph-name="yen" unicode="&#xa5;" horiz-adv-x="712" 
d="M756 700l-11 -99q-41 -6 -76 -9l-177 -246h120l-7 -51h-149l-36 -50l-1 -9h178l-8 -51h-179l-13 -78q24 -2 75 -10l-11 -97h-290l12 99q54 6 76 8l13 78h-173l8 51h173l1 4l-23 55h-143l7 51h115l-103 248q-29 3 -67 9l11 97h275l-12 -99q-19 -2 -59 -4l88 -250h4
l162 249q-15 1 -63 7l12 97h271z" />
    <glyph glyph-name="section" unicode="&#xa7;" horiz-adv-x="669" 
d="M305 504l207 -36q78 -13 104 -37t18 -83l-5 -33q-10 -68 -83 -95q22 -25 13 -78l-1 -9q-11 -81 -61 -112.5t-173 -31.5h-24q-112 0 -219 42l17 132h96l-3 -61q41 -23 114 -23h25q104 0 112 64l1 7q3 22 -5.5 32.5t-35.5 14.5l-217 35q-77 13 -103.5 37t-18.5 83l5 33
q8 60 98 95q-31 23 -23 78l1 9q11 82 58 113t167 31h23q115 0 218 -41l-16 -132h-92l4 61q-31 22 -127 22h-16q-54 0 -76.5 -15.5t-27.5 -47.5l-1 -8q-3 -24 5.5 -32t41.5 -14zM170 378l-3 -19q-4 -24 6 -32.5t47 -15.5l222 -35q4 0 18 -2.5t17 -2.5q46 15 50 52l3 19
q3 23 -6.5 31.5t-46.5 15.5l-224 37q-5 1 -13.5 2.5t-12.5 2.5q-25 -9 -40 -23t-17 -30z" />
    <glyph glyph-name="dieresis" unicode="&#xa8;" horiz-adv-x="500" 
d="M205 608q-28 0 -46 18t-14 45q4 23 22.5 37.5t43.5 14.5q29 0 46 -18.5t13 -46.5q-3 -23 -21.5 -36.5t-43.5 -13.5zM401 608q-28 0 -45 18t-13 45q3 23 21 37.5t43 14.5q29 0 46.5 -18.5t13.5 -46.5q-3 -23 -21.5 -36.5t-44.5 -13.5z" />
    <glyph glyph-name="copyright" unicode="&#xa9;" horiz-adv-x="820" 
d="M376 -15q-174 0 -258.5 98.5t-59.5 273.5q24 169 132 263.5t278 94.5q173 0 257.5 -98.5t60.5 -273.5q-24 -169 -132.5 -263.5t-277.5 -94.5zM371 27q159 0 253.5 84.5t117.5 245.5q20 149 -51 232.5t-219 83.5q-158 0 -252.5 -84.5t-116.5 -245.5q-22 -149 49 -232.5
t219 -83.5zM576 263l-6 -70q-70 -55 -165 -55h-37q-77 0 -114.5 43.5t-27.5 121.5l12 88q22 164 185 164h34q60 0 149 -26l-13 -116h-75v59q-32 12 -89 12q-89 0 -102 -96l-13 -94q-12 -81 69 -81h22q35 0 55 11.5t42 41.5z" />
    <glyph glyph-name="ordfeminine" unicode="&#xaa;" horiz-adv-x="488" 
d="M313 292l7 48q-32 -19 -49 -28.5t-45 -18t-57 -8.5h-13q-62 0 -85.5 21t-13.5 89l1 15q9 59 39.5 83.5t89.5 30.5q118 10 160 11l3 27q6 44 -7.5 59t-52.5 15q-51 0 -93 -12l-13 -47h-73l12 109q86 22 178 22h32q67 0 95.5 -39t18.5 -108l-29 -194q2 0 52 -6l-8 -69h-149
zM204 358h12q50 0 111 39l14 91q-81 -6 -115 -12q-60 -6 -68 -58l-2 -13q-4 -31 4.5 -39t43.5 -8z" />
    <glyph glyph-name="guillemotleft" unicode="&#xab;" horiz-adv-x="533" 
d="M167 261l92 -158l-5 -41h-80l-131 199v8l187 199h81l-5 -42l-135 -157zM370 261l92 -158l-5 -41h-80l-131 199v8l187 199h81l-5 -42l-136 -157z" />
    <glyph glyph-name="registered" unicode="&#xae;" horiz-adv-x="422" 
d="M269 715q92 0 137 -52.5t32 -145.5q-13 -88 -68.5 -137t-144.5 -49q-92 0 -136.5 53t-31.5 146q13 88 68.5 136.5t143.5 48.5zM275 685q-86 0 -130.5 -40t-56.5 -128q-10 -73 24.5 -114t106.5 -41q86 0 131 40t58 128q10 73 -25.5 114t-107.5 41zM173 626h105
q32 0 48 -17t12 -46l-1 -10q-7 -42 -37 -54q9 -21 11 -35q2 0 7 -1t9.5 -1.5t8.5 -1.5l-2 -29h-66l3 17q-1 22 -16 49h-34l-5 -32l19 -2l-5 -32h-83l4 32l21 3l21 124q-13 3 -22 4zM233 589l-8 -58h39q22 0 27 26l2 8q5 24 -23 24h-37z" />
    <glyph glyph-name="macron" unicode="&#xaf;" horiz-adv-x="500" 
d="M442 683l-11 -77h-265l11 77h265z" />
    <glyph glyph-name="degree" unicode="&#xb0;" horiz-adv-x="423" 
d="M257 383h-53q-72 0 -102.5 36.5t-20.5 105.5l6 49q10 71 48 104.5t111 33.5h53q72 -1 102.5 -38t20.5 -107l-7 -48q-11 -69 -48.5 -102.5t-109.5 -33.5zM220 456h32q68 0 79 70l7 47q5 37 -6.5 53t-48.5 16h-32q-71 0 -81 -75l-7 -48q-5 -34 7.5 -48.5t49.5 -14.5z" />
    <glyph glyph-name="twosuperior" unicode="&#xb2;" horiz-adv-x="403" 
d="M384 421l-18 -129h-324l10 68q9 62 31.5 96t64.5 49q33 12 90 28q43 12 61.5 24t21.5 31l1 10q3 21 -8 29.5t-40 8.5q-61 0 -93 -11l-15 -42h-70l11 102q91 24 171 24t110 -25t22 -89l-2 -13q-6 -40 -27 -63.5t-76 -39.5q-16 -5 -33.5 -10t-32.5 -9t-18 -5
q-48 -17 -64.5 -33.5t-22.5 -59.5h173l15 59h62z" />
    <glyph glyph-name="threesuperior" unicode="&#xb3;" horiz-adv-x="382" 
d="M391 594l-2 -13q-5 -40 -21.5 -62.5t-49.5 -31.5q57 -9 47 -81l-2 -11q-9 -61 -45 -84t-120 -23q-75 0 -164 20l11 103h65l-2 -45q41 -7 92 -7q39 0 56 12t21 41l1 11q4 27 -7 34.5t-44 7.5h-91l9 65h88q60 0 68 50l1 11q4 25 -8.5 35.5t-45.5 10.5q-49 0 -96 -10
l-15 -43h-63l12 104q93 21 161 21q89 0 121 -25.5t23 -89.5z" />
    <glyph glyph-name="acute" unicode="&#xb4;" horiz-adv-x="500" 
d="M426 707l-1 -19l-163 -106l-50 34l123 138z" />
    <glyph glyph-name="paragraph" unicode="&#xb6;" horiz-adv-x="589" 
d="M627 700l-12 -99q-24 -4 -72 -11l-98 -680h-95l98 699h-59l-99 -699h-96l52 374h-7q-105 0 -151.5 43.5t-32.5 150.5l3 28q16 111 71.5 152.5t163.5 41.5h334z" />
    <glyph glyph-name="periodcentered" unicode="&#xb7;" horiz-adv-x="220" 
d="M108 209q-81 0 -71 78q9 65 81 65q81 0 71 -79q-9 -64 -81 -64z" />
    <glyph glyph-name="cedilla" unicode="&#xb8;" horiz-adv-x="500" 
d="M191 -35h37q78 0 69 -67l-2 -13q-6 -40 -26.5 -54t-65.5 -15q-51 0 -110 14l2 37h104q13 0 23 8.5t12 20.5v4q2 12 -2.5 16.5t-20.5 4.5h-84l26 79h46z" />
    <glyph glyph-name="onesuperior" unicode="&#xb9;" horiz-adv-x="329" 
d="M292 709l-51 -346q45 -4 71 -7l-7 -64h-255l7 66q44 5 88 6l39 265l-99 -17l9 59l142 38h56z" />
    <glyph glyph-name="ordmasculine" unicode="&#xba;" horiz-adv-x="459" 
d="M254 284h-34q-96 0 -134.5 42.5t-27.5 135.5l10 71q13 94 61 135t145 41h35q95 0 132.5 -43.5t23.5 -138.5l-10 -72q-13 -92 -60 -131.5t-141 -39.5zM222 357h35q85 0 97 84l17 116q6 43 -10 61.5t-60 18.5h-35q-84 0 -96 -86l-17 -117q-6 -42 10 -59.5t59 -17.5z" />
    <glyph glyph-name="guillemotright" unicode="&#xbb;" horiz-adv-x="533" 
d="M91 426l5 42h80l131 -199v-8l-187 -199h-81l5 41l135 158l3 8zM293 426l5 42h80l131 -199v-8l-187 -199h-81l5 41l135 158l3 8z" />
    <glyph glyph-name="onequarter" unicode="&#xbc;" horiz-adv-x="823" 
d="M761 715l-308 -365l-293 -361h-56l307 361l294 365h56zM304 709l-51 -346q49 -4 76 -7l-7 -64h-265l8 66q83 6 92 6l39 265l-99 -17l9 59l142 38h56zM708 117l-8 -49q17 -1 67 -7l-6 -61h-244l7 63l80 6l8 47h-219l9 67l249 229h98l-32 -229h71l-9 -60zM643 343
l-160 -160h136z" />
    <glyph glyph-name="onehalf" unicode="&#xbd;" horiz-adv-x="863" 
d="M751 715l-308 -365l-293 -361h-56l307 361l294 365h56zM295 709l-51 -346q49 -4 76 -7l-7 -64h-265l8 66q83 6 92 6l39 265l-99 -17l9 59l142 38h56zM807 129l-18 -129h-324l10 68q18 123 112 153q45 13 74 21q43 12 61.5 23.5t21.5 30.5l1 10q4 24 -5.5 31t-42.5 7
q-61 0 -93 -11l-15 -42h-70l11 102q91 24 171 24t110 -25t22 -89l-5 -29q-7 -59 -100 -90q-10 -4 -44.5 -13.5t-39.5 -11.5q-46 -15 -60.5 -30.5t-21.5 -59.5h167l16 60h62z" />
    <glyph glyph-name="threequarters" unicode="&#xbe;" horiz-adv-x="857" 
d="M801 715l-308 -365l-293 -361h-56l307 361l294 365h56zM414 594l-2 -13q-5 -38 -21 -57t-50 -29q58 -9 47 -89l-2 -11q-9 -61 -45 -84t-120 -23q-75 0 -164 20l11 103h65l-2 -45q41 -7 92 -7q39 0 56 12t21 41l1 11q4 27 -7.5 35.5t-43.5 8.5h-91l9 62h88q60 0 68 51
l1 11q4 29 -6.5 37.5t-47.5 8.5q-49 0 -96 -10l-15 -43h-63l12 104q93 21 161 21q89 0 121 -25.5t23 -89.5zM754 117l-8 -49q17 -1 67 -7l-6 -61h-244l7 63l80 6l8 47h-219l9 67l249 229h98l-32 -229h71l-9 -60zM689 343l-160 -160h136z" />
    <glyph glyph-name="questiondown" unicode="&#xbf;" horiz-adv-x="517" 
d="M357 630q81 0 71 -78q-9 -65 -82 -65q-80 0 -70 79q9 64 81 64zM479 106l-19 -150q-88 -26 -137.5 -34t-121.5 -8q-116 0 -162.5 44t-32.5 144l3 24q10 68 35.5 101.5t72.5 48.5q28 9 76.5 22.5t69.5 19.5l15 94h108l-6 -164q-87 -26 -164 -54q-37 -13 -53.5 -29
t-20.5 -40l-3 -24q-7 -51 8.5 -67t71.5 -16q71 0 133 23l22 65h105z" />
    <glyph glyph-name="Agrave" unicode="&#xc0;" horiz-adv-x="799" 
d="M531 777l-57 -34l-134 107l1 18l103 48zM551 700l115 -593q38 -1 87 -10l-10 -97h-312l12 99q28 4 70 7l-18 100h-230l-44 -100q12 -2 27.5 -5t24.5 -4l-11 -97h-279l12 99q46 7 85 8l235 487l-73 9l12 97h297zM431 585l-122 -262h174l-50 262h-2z" />
    <glyph glyph-name="Aacute" unicode="&#xc1;" horiz-adv-x="799" 
d="M594 869l-2 -19l-167 -109l-54 36l128 142zM551 700l115 -593q38 -1 87 -10l-10 -97h-312l12 99q28 4 70 7l-18 100h-230l-44 -100q12 -2 27.5 -5t24.5 -4l-11 -97h-279l12 99q46 7 85 8l235 487l-73 9l12 97h297zM431 585l-122 -262h174l-50 262h-2z" />
    <glyph glyph-name="Acircumflex" unicode="&#xc2;" horiz-adv-x="799" 
d="M573 745l-107 86l-131 -86l-38 36l135 125h85l101 -125zM551 700l115 -593q38 -1 87 -10l-10 -97h-312l12 99q28 4 70 7l-18 100h-230l-44 -100q12 -2 27.5 -5t24.5 -4l-11 -97h-279l12 99q46 7 85 8l235 487l-73 9l12 97h297zM431 585l-122 -262h174l-50 262h-2z" />
    <glyph glyph-name="Atilde" unicode="&#xc3;" horiz-adv-x="799" 
d="M654 855l-84 -82q-23 -22 -55 -22q-15 0 -26.5 7.5t-33 28t-41.5 36.5l-103 -68l-37 36l74 74q34 31 64 31q18 0 30.5 -7.5t33.5 -29t38 -35.5l102 66zM551 700l115 -593q38 -1 87 -10l-10 -97h-312l12 99q28 4 70 7l-18 100h-230l-44 -100q12 -2 27.5 -5t24.5 -4
l-11 -97h-279l12 99q46 7 85 8l235 487l-73 9l12 97h297zM431 585l-122 -262h174l-50 262h-2z" />
    <glyph glyph-name="Adieresis" unicode="&#xc4;" horiz-adv-x="799" 
d="M356 765q-31 0 -50 19t-15 49q4 26 24.5 41t48.5 15q31 0 49 -19.5t14 -49.5q-3 -25 -23.5 -40t-47.5 -15zM564 765q-30 0 -48.5 19t-14.5 49q4 25 24.5 40.5t47.5 15.5q31 0 49.5 -19.5t14.5 -49.5q-4 -25 -24.5 -40t-48.5 -15zM551 700l115 -593q38 -1 87 -10l-10 -97
h-312l12 99q28 4 70 7l-18 100h-230l-44 -100q12 -2 27.5 -5t24.5 -4l-11 -97h-279l12 99q46 7 85 8l235 487l-73 9l12 97h297zM431 585l-122 -262h174l-50 262h-2z" />
    <glyph glyph-name="Aring" unicode="&#xc5;" horiz-adv-x="799" 
d="M470 734h-34q-39 0 -59 23t-14 62l3 25q12 77 91 77h35q39 0 58.5 -23t13.5 -62l-3 -25q-12 -77 -91 -77zM442 783h29q33 0 37 34l4 26q4 32 -30 32h-20q-39 0 -43 -35l-4 -26q-2 -18 4.5 -24.5t22.5 -6.5zM551 700l115 -593q38 -1 87 -10l-10 -97h-312l12 99q28 4 70 7
l-18 100h-230l-44 -100q12 -2 27.5 -5t24.5 -4l-11 -97h-279l12 99q46 7 85 8l235 487l-73 9l12 97h297zM431 585l-122 -262h174l-50 262h-2z" />
    <glyph glyph-name="AE" unicode="&#xc6;" horiz-adv-x="1066" 
d="M691 407h185l-15 -110h-185l-27 -187h243l30 93h87l-28 -203h-561l12 99q19 2 44.5 4.5t31.5 3.5l19 118h-224l-85 -121q21 -1 61 -7l-11 -97h-285l12 99q48 7 85 8l345 485q-38 4 -86 11l12 97h721l-28 -203h-85l-5 93h-238zM578 590h-28l-175 -256h167z" />
    <glyph glyph-name="Ccedilla" unicode="&#xc7;" horiz-adv-x="647" 
d="M515 478l2 109q-42 12 -152 12q-63 0 -101.5 -37t-48.5 -105l-33 -234q-16 -120 105 -120h48q95 0 144 86l115 -4l-13 -108q-109 -89 -250 -89h-55l-5 -23h37q78 0 69 -67l-2 -13q-6 -40 -26.5 -54t-65.5 -15q-51 0 -110 14l2 37h104q13 0 23 8.5t12 20.5v4
q2 12 -2.5 16.5t-20.5 4.5h-84l22 68q-109 8 -153.5 70.5t-28.5 182.5l30 211q36 258 290 258h42q124 0 246 -37l-25 -196h-115z" />
    <glyph glyph-name="Egrave" unicode="&#xc8;" horiz-adv-x="643" 
d="M466 777l-57 -34l-134 107l1 18l103 48zM621 497h-85l-5 93h-238l-25 -179h186l-17 -118h-185l-26 -183h243l30 93h87l-28 -203h-561l12 99q19 2 44.5 4.5t31.5 3.5l74 487q-9 1 -33.5 3.5t-44.5 5.5l12 97h556z" />
    <glyph glyph-name="Eacute" unicode="&#xc9;" horiz-adv-x="643" 
d="M528 869l-2 -19l-167 -109l-54 36l128 142zM621 497h-85l-5 93h-238l-25 -179h186l-17 -118h-185l-26 -183h243l30 93h87l-28 -203h-561l12 99q19 2 44.5 4.5t31.5 3.5l74 487q-9 1 -33.5 3.5t-44.5 5.5l12 97h556z" />
    <glyph glyph-name="Ecircumflex" unicode="&#xca;" horiz-adv-x="643" 
d="M508 745l-107 86l-131 -86l-38 36l135 125h85l101 -125zM621 497h-85l-5 93h-238l-25 -179h186l-17 -118h-185l-26 -183h243l30 93h87l-28 -203h-561l12 99q19 2 44.5 4.5t31.5 3.5l74 487q-9 1 -33.5 3.5t-44.5 5.5l12 97h556z" />
    <glyph glyph-name="Edieresis" unicode="&#xcb;" horiz-adv-x="643" 
d="M291 765q-31 0 -50 19t-15 49q4 26 24.5 41t48.5 15q31 0 49 -19.5t14 -49.5q-3 -25 -23.5 -40t-47.5 -15zM499 765q-30 0 -48.5 19t-14.5 49q4 25 24.5 40.5t47.5 15.5q31 0 49.5 -19.5t14.5 -49.5q-4 -25 -24.5 -40t-48.5 -15zM621 497h-85l-5 93h-238l-25 -179h186
l-17 -118h-185l-26 -183h243l30 93h87l-28 -203h-561l12 99q19 2 44.5 4.5t31.5 3.5l74 487q-9 1 -33.5 3.5t-44.5 5.5l12 97h556z" />
    <glyph glyph-name="Igrave" unicode="&#xcc;" horiz-adv-x="355" 
d="M324 777l-57 -34l-134 107l1 18l103 48zM386 700l-12 -99q-52 -6 -78 -8l-73 -486q22 -2 76 -10l-11 -97h-291l12 99q54 6 76 8l74 486q-26 2 -78 10l12 97h293z" />
    <glyph glyph-name="Iacute" unicode="&#xcd;" horiz-adv-x="355" 
d="M386 869l-2 -19l-167 -109l-54 36l128 142zM386 700l-12 -99q-52 -6 -78 -8l-73 -486q22 -2 76 -10l-11 -97h-291l12 99q54 6 76 8l74 486q-26 2 -78 10l12 97h293z" />
    <glyph glyph-name="Icircumflex" unicode="&#xce;" horiz-adv-x="355" 
d="M366 745l-107 86l-131 -86l-38 36l135 125h85l101 -125zM386 700l-12 -99q-52 -6 -78 -8l-73 -486q22 -2 76 -10l-11 -97h-291l12 99q54 6 76 8l74 486q-26 2 -78 10l12 97h293z" />
    <glyph glyph-name="Idieresis" unicode="&#xcf;" horiz-adv-x="355" 
d="M149 765q-31 0 -50 19t-15 49q4 26 24.5 41t48.5 15q31 0 49 -19.5t14 -49.5q-3 -25 -23.5 -40t-47.5 -15zM357 765q-30 0 -48.5 19t-14.5 49q4 25 24.5 40.5t47.5 15.5q31 0 49.5 -19.5t14.5 -49.5q-4 -25 -24.5 -40t-48.5 -15zM386 700l-12 -99q-52 -6 -78 -8l-73 -486
q22 -2 76 -10l-11 -97h-291l12 99q54 6 76 8l74 486q-26 2 -78 10l12 97h293z" />
    <glyph glyph-name="Eth" unicode="&#xd0;" horiz-adv-x="718" 
d="M93 700h388q129 -1 181 -62.5t34 -189.5l-29 -208q-19 -126 -85.5 -183t-192.5 -57h-392l12 99q35 4 79 9l30 196h-72l11 79h72l32 210q-8 1 -34 4t-46 6zM530 237l32 231q16 119 -105 119h-161l-29 -204h79l-11 -79h-79l-27 -191h156q60 0 98 32.5t47 91.5z" />
    <glyph glyph-name="Ntilde" unicode="&#xd1;" horiz-adv-x="792" 
d="M662 855l-84 -82q-23 -22 -55 -22q-15 0 -26.5 7.5t-33 28t-41.5 36.5l-103 -68l-37 36l74 74q34 31 64 31q18 0 30.5 -7.5t33.5 -29t38 -35.5l102 66zM822 700l-12 -99q-43 -6 -80 -9l-85 -592h-143l-238 484l-54 -379q12 -1 62 -8l-11 -97h-264l12 99q56 6 79 8l73 486
q-40 4 -80 10l12 97h209l250 -504l57 399q-14 1 -65 8l11 97h267z" />
    <glyph glyph-name="Ograve" unicode="&#xd2;" horiz-adv-x="707" 
d="M500 777l-57 -34l-134 107l1 18l103 48zM367 -12h-93q-128 0 -186 72t-41 199l26 183q18 130 93.5 199.5t204.5 69.5h93q126 0 182.5 -73t38.5 -203l-26 -182q-17 -127 -92 -196t-200 -69zM294 111h71q134 0 156 139l29 204q10 72 -17.5 103.5t-95.5 31.5h-71
q-66 0 -105.5 -37t-49.5 -105l-28 -204q-10 -70 16.5 -101t94.5 -31z" />
    <glyph glyph-name="Oacute" unicode="&#xd3;" horiz-adv-x="707" 
d="M563 869l-2 -19l-167 -109l-54 36l128 142zM367 -12h-93q-128 0 -186 72t-41 199l26 183q18 130 93.5 199.5t204.5 69.5h93q126 0 182.5 -73t38.5 -203l-26 -182q-17 -127 -92 -196t-200 -69zM294 111h71q134 0 156 139l29 204q10 72 -17.5 103.5t-95.5 31.5h-71
q-66 0 -105.5 -37t-49.5 -105l-28 -204q-10 -70 16.5 -101t94.5 -31z" />
    <glyph glyph-name="Ocircumflex" unicode="&#xd4;" horiz-adv-x="707" 
d="M542 745l-107 86l-131 -86l-38 36l135 125h85l101 -125zM367 -12h-93q-128 0 -186 72t-41 199l26 183q18 130 93.5 199.5t204.5 69.5h93q126 0 182.5 -73t38.5 -203l-26 -182q-17 -127 -92 -196t-200 -69zM294 111h71q134 0 156 139l29 204q10 72 -17.5 103.5t-95.5 31.5
h-71q-66 0 -105.5 -37t-49.5 -105l-28 -204q-10 -70 16.5 -101t94.5 -31z" />
    <glyph glyph-name="Otilde" unicode="&#xd5;" horiz-adv-x="707" 
d="M623 855l-84 -82q-23 -22 -55 -22q-15 0 -26.5 7.5t-33 28t-41.5 36.5l-103 -68l-37 36l74 74q34 31 64 31q18 0 30.5 -7.5t33.5 -29t38 -35.5l102 66zM367 -12h-93q-128 0 -186 72t-41 199l26 183q18 130 93.5 199.5t204.5 69.5h93q126 0 182.5 -73t38.5 -203l-26 -182
q-17 -127 -92 -196t-200 -69zM294 111h71q134 0 156 139l29 204q10 72 -17.5 103.5t-95.5 31.5h-71q-66 0 -105.5 -37t-49.5 -105l-28 -204q-10 -70 16.5 -101t94.5 -31z" />
    <glyph glyph-name="Odieresis" unicode="&#xd6;" horiz-adv-x="707" 
d="M325 765q-31 0 -50 19t-15 49q4 26 24.5 41t48.5 15q31 0 49 -19.5t14 -49.5q-3 -25 -23.5 -40t-47.5 -15zM533 765q-30 0 -48.5 19t-14.5 49q4 25 24.5 40.5t47.5 15.5q31 0 49.5 -19.5t14.5 -49.5q-4 -25 -24.5 -40t-48.5 -15zM367 -12h-93q-128 0 -186 72t-41 199
l26 183q18 130 93.5 199.5t204.5 69.5h93q126 0 182.5 -73t38.5 -203l-26 -182q-17 -127 -92 -196t-200 -69zM294 111h71q134 0 156 139l29 204q10 72 -17.5 103.5t-95.5 31.5h-71q-66 0 -105.5 -37t-49.5 -105l-28 -204q-10 -70 16.5 -101t94.5 -31z" />
    <glyph glyph-name="multiply" unicode="&#xd7;" horiz-adv-x="578" 
d="M110 116l-62 71l183 159l-139 158l82 74l137 -161l181 162l63 -72l-184 -159l139 -159l-82 -73l-136 161z" />
    <glyph glyph-name="Oslash" unicode="&#xd8;" horiz-adv-x="707" 
d="M735 728l-85 -97q50 -71 33 -196l-26 -182q-17 -127 -92 -196t-200 -69h-93q-96 0 -152 41l-51 -58h-53l74 84q-62 71 -45 204l26 183q18 130 93.5 199.5t204.5 69.5h93q104 0 160 -50l59 67h54zM209 447l-28 -204q-8 -51 4 -80l346 394q-28 32 -96 32h-71
q-66 0 -105.5 -37t-49.5 -105zM519 250l29 204q5 36 0 62l-338 -385q26 -20 82 -20h71q134 0 156 139z" />
    <glyph glyph-name="Ugrave" unicode="&#xd9;" horiz-adv-x="757" 
d="M532 777l-57 -34l-134 107l1 18l103 48zM790 700l-12 -99q-10 -1 -33 -3.5t-34 -4.5l-52 -350q-19 -132 -86.5 -193.5t-194.5 -61.5h-56q-255 0 -219 262l51 344q-70 8 -76 9l12 97h296l-12 -99q-58 -6 -82 -8l-55 -367q-8 -59 18.5 -92t85.5 -33h44q59 0 98 36t47 96
l53 362q-15 1 -68 8l11 97h264z" />
    <glyph glyph-name="Uacute" unicode="&#xda;" horiz-adv-x="757" 
d="M595 869l-2 -19l-167 -109l-54 36l128 142zM790 700l-12 -99q-10 -1 -33 -3.5t-34 -4.5l-52 -350q-19 -132 -86.5 -193.5t-194.5 -61.5h-56q-255 0 -219 262l51 344q-70 8 -76 9l12 97h296l-12 -99q-58 -6 -82 -8l-55 -367q-8 -59 18.5 -92t85.5 -33h44q59 0 98 36t47 96
l53 362q-15 1 -68 8l11 97h264z" />
    <glyph glyph-name="Ucircumflex" unicode="&#xdb;" horiz-adv-x="757" 
d="M574 745l-107 86l-131 -86l-38 36l135 125h85l101 -125zM790 700l-12 -99q-10 -1 -33 -3.5t-34 -4.5l-52 -350q-19 -132 -86.5 -193.5t-194.5 -61.5h-56q-255 0 -219 262l51 344q-70 8 -76 9l12 97h296l-12 -99q-58 -6 -82 -8l-55 -367q-8 -59 18.5 -92t85.5 -33h44
q59 0 98 36t47 96l53 362q-15 1 -68 8l11 97h264z" />
    <glyph glyph-name="Udieresis" unicode="&#xdc;" horiz-adv-x="757" 
d="M357 765q-31 0 -50 19t-15 49q4 26 24.5 41t48.5 15q31 0 49 -19.5t14 -49.5q-3 -25 -23.5 -40t-47.5 -15zM565 765q-30 0 -48.5 19t-14.5 49q4 25 24.5 40.5t47.5 15.5q31 0 49.5 -19.5t14.5 -49.5q-4 -25 -24.5 -40t-48.5 -15zM790 700l-12 -99q-10 -1 -33 -3.5
t-34 -4.5l-52 -350q-19 -132 -86.5 -193.5t-194.5 -61.5h-56q-255 0 -219 262l51 344q-70 8 -76 9l12 97h296l-12 -99q-58 -6 -82 -8l-55 -367q-8 -59 18.5 -92t85.5 -33h44q59 0 98 36t47 96l53 362q-15 1 -68 8l11 97h264z" />
    <glyph glyph-name="Yacute" unicode="&#xdd;" horiz-adv-x="712" 
d="M568 869l-2 -19l-167 -109l-54 36l128 142zM353 700l-12 -99q-21 -2 -59 -4l88 -250h4l162 249q-15 1 -63 7l12 97h271l-11 -99q-41 -6 -76 -9l-249 -347l-23 -138q24 -2 75 -10l-11 -97h-290l12 99q54 6 76 8l22 133l-146 354q-29 3 -68 9l11 97h275z" />
    <glyph glyph-name="Thorn" unicode="&#xde;" horiz-adv-x="647" 
d="M290 569h143q120 0 166 -44.5t31 -150.5l-10 -71q-16 -100 -70.5 -138.5t-173.5 -38.5h-147l-18 -126h-214l12 99q23 3 76 8l74 486q-62 7 -78 10l12 97h216zM494 327l7 46q6 48 -10 67t-68 19h-148l-32 -222h143q52 0 76.5 21.5t31.5 68.5z" />
    <glyph glyph-name="germandbls" unicode="&#xdf;" horiz-adv-x="687" 
d="M140 525l3 20q14 96 81.5 141.5t204.5 45.5h51q192 0 168 -172l-4 -34q-10 -68 -37.5 -101.5t-73.5 -44.5q120 -12 102 -142l-8 -60q-13 -100 -57.5 -142t-135.5 -42q-77 0 -179 27l10 85h139q81 0 93 82l9 63q6 45 -11.5 61.5t-60.5 16.5h-65q-22 0 -34.5 12t-10.5 30
l9 58l90 7q46 3 69.5 26.5t30.5 69.5l2 16q6 45 -14.5 64.5t-73.5 19.5h-35q-56 0 -90.5 -33t-42.5 -94l-71 -510q-9 -43 -25.5 -73t-36.5 -43t-36 -18t-33 -5q-55 0 -102 8l15 94h14q62 0 68 37l64 428l-62 8l13 94h63z" />
    <glyph glyph-name="agrave" unicode="&#xe0;" 
d="M444 616l-57 -34l-134 106l1 19l103 47zM557 525l-57 -380q-3 -28 5.5 -40t36.5 -12h40l-11 -81q-43 -21 -97 -21q-17 0 -32.5 3t-33.5 11.5t-28 27.5t-10 46q-98 -87 -204 -87h-17q-68 0 -101 47.5t-19 144.5l25 184q12 82 57.5 121t113.5 39h17q53 0 85 -11t88 -42
l9 50h133zM224 104h15q52 0 132 50l35 239q-37 19 -57.5 24t-59.5 5h-17q-42 0 -63.5 -26t-30.5 -90l-13 -91q-9 -65 3 -88t56 -23z" />
    <glyph glyph-name="aacute" unicode="&#xe1;" 
d="M480 707l-1 -19l-163 -106l-50 34l123 138zM557 525l-57 -380q-3 -28 5.5 -40t36.5 -12h40l-11 -81q-43 -21 -97 -21q-17 0 -32.5 3t-33.5 11.5t-28 27.5t-10 46q-98 -87 -204 -87h-17q-68 0 -101 47.5t-19 144.5l25 184q12 82 57.5 121t113.5 39h17q53 0 85 -11t88 -42
l9 50h133zM224 104h15q52 0 132 50l35 239q-37 19 -57.5 24t-59.5 5h-17q-42 0 -63.5 -26t-30.5 -90l-13 -91q-9 -65 3 -88t56 -23z" />
    <glyph glyph-name="acircumflex" unicode="&#xe2;" 
d="M470 586l-105 84l-127 -84l-36 34l131 122h80l99 -122zM557 525l-57 -380q-3 -28 5.5 -40t36.5 -12h40l-11 -81q-43 -21 -97 -21q-17 0 -32.5 3t-33.5 11.5t-28 27.5t-10 46q-98 -87 -204 -87h-17q-68 0 -101 47.5t-19 144.5l25 184q12 82 57.5 121t113.5 39h17
q53 0 85 -11t88 -42l9 50h133zM224 104h15q52 0 132 50l35 239q-37 19 -57.5 24t-59.5 5h-17q-42 0 -63.5 -26t-30.5 -90l-13 -91q-9 -65 3 -88t56 -23z" />
    <glyph glyph-name="atilde" unicode="&#xe3;" 
d="M548 702l-80 -80q-25 -21 -53 -21q-15 0 -30 10t-36.5 31.5t-33.5 30.5l-100 -68l-35 34l80 79q24 24 54 24q17 0 33.5 -11t37.5 -32t29 -28l99 65zM557 525l-57 -380q-3 -28 5.5 -40t36.5 -12h40l-11 -81q-43 -21 -97 -21q-17 0 -32.5 3t-33.5 11.5t-28 27.5t-10 46
q-98 -87 -204 -87h-17q-68 0 -101 47.5t-19 144.5l25 184q12 82 57.5 121t113.5 39h17q53 0 85 -11t88 -42l9 50h133zM224 104h15q52 0 132 50l35 239q-37 19 -57.5 24t-59.5 5h-17q-42 0 -63.5 -26t-30.5 -90l-13 -91q-9 -65 3 -88t56 -23z" />
    <glyph glyph-name="adieresis" unicode="&#xe4;" 
d="M262 608q-28 0 -46 18t-14 45q4 23 22.5 37.5t43.5 14.5q29 0 46 -18.5t13 -46.5q-3 -23 -21.5 -36.5t-43.5 -13.5zM458 608q-28 0 -45 18t-13 45q3 23 21 37.5t43 14.5q29 0 46.5 -18.5t13.5 -46.5q-3 -23 -21.5 -36.5t-44.5 -13.5zM557 525l-57 -380q-3 -28 5.5 -40
t36.5 -12h40l-11 -81q-43 -21 -97 -21q-17 0 -32.5 3t-33.5 11.5t-28 27.5t-10 46q-98 -87 -204 -87h-17q-68 0 -101 47.5t-19 144.5l25 184q12 82 57.5 121t113.5 39h17q53 0 85 -11t88 -42l9 50h133zM224 104h15q52 0 132 50l35 239q-37 19 -57.5 24t-59.5 5h-17
q-42 0 -63.5 -26t-30.5 -90l-13 -91q-9 -65 3 -88t56 -23z" />
    <glyph glyph-name="aring" unicode="&#xe5;" 
d="M370 585h-31q-36 0 -54 21t-13 58l3 22q10 72 84 72h31q36 0 54 -21.5t13 -57.5l-4 -22q-9 -72 -83 -72zM344 630h27q29 0 35 31l3 24q4 30 -28 30h-19q-35 0 -39 -32l-4 -24q-4 -29 25 -29zM557 525l-57 -380q-3 -28 5.5 -40t36.5 -12h40l-11 -81q-43 -21 -97 -21
q-17 0 -32.5 3t-33.5 11.5t-28 27.5t-10 46q-98 -87 -204 -87h-17q-68 0 -101 47.5t-19 144.5l25 184q12 82 57.5 121t113.5 39h17q53 0 85 -11t88 -42l9 50h133zM224 104h15q52 0 132 50l35 239q-37 19 -57.5 24t-59.5 5h-17q-42 0 -63.5 -26t-30.5 -90l-13 -91
q-9 -65 3 -88t56 -23z" />
    <glyph glyph-name="ae" unicode="&#xe6;" horiz-adv-x="927" 
d="M100 370l18 141q110 26 231 26h37q87 0 109 -58q58 58 171 58h32q118 0 164 -47.5t32 -151.5l-18 -127h-360l-6 -41q-12 -89 88 -89h41q73 0 101 51l8 16h105l-12 -90q-80 -70 -206 -70h-57q-162 0 -188 98q-63 -47 -111.5 -70.5t-103.5 -23.5h-17q-26 0 -44 1.5t-36 7
t-27 15t-17.5 25t-7 38.5t3.5 54l4 24q11 80 51.5 108.5t114.5 34.5q82 7 202 10l5 38q7 54 -10.5 73.5t-67.5 19.5q-65 0 -113 -14l-18 -57h-98zM767 299l8 60q14 93 -82 93h-31q-50 0 -85 -28.5t-42 -76.5l-7 -48h239zM225 88h15q63 0 143 58q0 18 5 48l6 43
q-117 -8 -154 -17q-39 -6 -54 -16.5t-20 -44.5l-1 -11q-5 -37 6.5 -48.5t53.5 -11.5z" />
    <glyph glyph-name="ccedilla" unicode="&#xe7;" horiz-adv-x="545" 
d="M412 339l2 87q-42 11 -107 11q-108 0 -123 -120l-19 -126q-8 -58 13 -78.5t71 -20.5h28q73 0 101 53l7 11h106l-11 -98q-97 -70 -210 -70h-46l-5 -23h37q78 0 69 -67l-2 -13q-6 -40 -26.5 -54t-65.5 -15q-51 0 -110 14l2 37h104q13 0 23 8.5t12 20.5v4q2 12 -2.5 16.5
t-20.5 4.5h-84l23 69q-88 8 -122 61t-20 155l17 125q15 101 78 153.5t163 52.5h46q87 0 192 -33l-21 -165h-99z" />
    <glyph glyph-name="egrave" unicode="&#xe8;" horiz-adv-x="575" 
d="M411 616l-57 -34l-134 106l1 19l103 47zM314 537h33q223 0 193 -215l-17 -119h-360l-3 -27q-14 -92 87 -92h40q74 0 101 48l8 16h105l-11 -90q-81 -70 -215 -70h-30q-127 0 -175 57.5t-31 184.5l13 88q16 113 80.5 166t181.5 53zM419 296l8 60q7 45 -18 67t-74 22h-30
q-50 0 -82.5 -26.5t-39.5 -74.5l-6 -48h242z" />
    <glyph glyph-name="eacute" unicode="&#xe9;" horiz-adv-x="575" 
d="M456 707l-1 -19l-163 -106l-50 34l123 138zM314 537h33q223 0 193 -215l-17 -119h-360l-3 -27q-14 -92 87 -92h40q74 0 101 48l8 16h105l-11 -90q-81 -70 -215 -70h-30q-127 0 -175 57.5t-31 184.5l13 88q16 113 80.5 166t181.5 53zM419 296l8 60q7 45 -18 67t-74 22h-30
q-50 0 -82.5 -26.5t-39.5 -74.5l-6 -48h242z" />
    <glyph glyph-name="ecircumflex" unicode="&#xea;" horiz-adv-x="575" 
d="M458 586l-105 84l-127 -84l-36 34l131 122h80l99 -122zM314 537h33q223 0 193 -215l-17 -119h-360l-3 -27q-14 -92 87 -92h40q74 0 101 48l8 16h105l-11 -90q-81 -70 -215 -70h-30q-127 0 -175 57.5t-31 184.5l13 88q16 113 80.5 166t181.5 53zM419 296l8 60q7 45 -18 67
t-74 22h-30q-50 0 -82.5 -26.5t-39.5 -74.5l-6 -48h242z" />
    <glyph glyph-name="edieresis" unicode="&#xeb;" horiz-adv-x="575" 
d="M250 608q-28 0 -46 18t-14 45q4 23 22.5 37.5t43.5 14.5q29 0 46 -18.5t13 -46.5q-3 -23 -21.5 -36.5t-43.5 -13.5zM446 608q-28 0 -45 18t-13 45q3 23 21 37.5t43 14.5q29 0 46.5 -18.5t13.5 -46.5q-3 -23 -21.5 -36.5t-44.5 -13.5zM314 537h33q223 0 193 -215l-17 -119
h-360l-3 -27q-14 -92 87 -92h40q74 0 101 48l8 16h105l-11 -90q-81 -70 -215 -70h-30q-127 0 -175 57.5t-31 184.5l13 88q16 113 80.5 166t181.5 53zM419 296l8 60q7 45 -18 67t-74 22h-30q-50 0 -82.5 -26.5t-39.5 -74.5l-6 -48h242z" />
    <glyph glyph-name="igrave" unicode="&#xec;" horiz-adv-x="324" 
d="M247 616l-57 -34l-134 106l1 19l103 47zM252 525l-56 -380q-3 -28 5.5 -40t36.5 -12h40l-11 -94q-47 -8 -102 -8q-52 0 -83.5 30t-20.5 97l47 306q-11 1 -32 4t-29 4l10 93h195z" />
    <glyph glyph-name="iacute" unicode="&#xed;" horiz-adv-x="324" 
d="M338 707l-1 -19l-163 -106l-50 34l123 138zM252 525l-56 -380q-3 -28 5.5 -40t36.5 -12h40l-11 -94q-47 -8 -102 -8q-52 0 -83.5 30t-20.5 97l47 306q-11 1 -32 4t-29 4l10 93h195z" />
    <glyph glyph-name="icircumflex" unicode="&#xee;" horiz-adv-x="324" 
d="M328 586l-105 84l-127 -84l-36 34l131 122h80l99 -122zM252 525l-56 -380q-3 -28 5.5 -40t36.5 -12h40l-11 -94q-47 -8 -102 -8q-52 0 -83.5 30t-20.5 97l47 306q-11 1 -32 4t-29 4l10 93h195z" />
    <glyph glyph-name="idieresis" unicode="&#xef;" horiz-adv-x="324" 
d="M120 608q-28 0 -46 18t-14 45q4 23 22.5 37.5t43.5 14.5q29 0 46 -18.5t13 -46.5q-3 -23 -21.5 -36.5t-43.5 -13.5zM316 608q-28 0 -45 18t-13 45q3 23 21 37.5t43 14.5q29 0 46.5 -18.5t13.5 -46.5q-3 -23 -21.5 -36.5t-44.5 -13.5zM252 525l-56 -380q-3 -28 5.5 -40
t36.5 -12h40l-11 -94q-47 -8 -102 -8q-52 0 -83.5 30t-20.5 97l47 306q-11 1 -32 4t-29 4l10 93h195z" />
    <glyph glyph-name="eth" unicode="&#xf0;" horiz-adv-x="614" 
d="M609 695l17 -73l-69 -23q38 -90 23 -191l-25 -179q-21 -141 -73 -190t-184 -49h-41q-136 0 -186 53.5t-35 165.5l16 112q12 92 60.5 133t134.5 41h16q55 0 94 -13t96 -43l3 23q4 36 1 58.5t-16 51.5q-68 -19 -145 -37l-12 44l125 44q-27 18 -85 38l30 66q106 -28 156 -67
zM419 200l24 157q-72 35 -132 35h-16q-54 0 -81 -25t-36 -84l-12 -92q-8 -57 14 -77.5t82 -20.5h34q56 0 85 23.5t38 83.5z" />
    <glyph glyph-name="ntilde" unicode="&#xf1;" horiz-adv-x="680" 
d="M585 702l-80 -80q-25 -21 -53 -21q-15 0 -30 10t-36.5 31.5t-33.5 30.5l-100 -68l-35 34l80 79q24 24 54 24q17 0 33.5 -11t37.5 -32t29 -28l99 65zM260 525l-14 -79q135 91 223 91h11q135 0 113 -145l-36 -247q-4 -27 5 -39.5t36 -12.5h40l-11 -85q-50 -17 -102 -17
q-18 0 -34.5 4t-35.5 14.5t-28.5 34.5t-5.5 58l31 226q9 64 1 80.5t-51 16.5h-12q-56 0 -151 -60l-56 -365h-132l65 424q-11 1 -32 4t-29 4l10 93h195z" />
    <glyph glyph-name="ograve" unicode="&#xf2;" horiz-adv-x="604" 
d="M405 616l-57 -34l-134 106l1 19l103 47zM291 -12h-44q-125 0 -175 59t-33 181l10 71q17 125 80.5 181.5t189.5 56.5h43q123 0 171 -60t31 -185l-10 -71q-17 -122 -79.5 -177.5t-183.5 -55.5zM251 87h45q51 0 83 26t39 74l21 155q15 97 -88 97h-45q-51 0 -82 -27t-38 -77
l-22 -154q-15 -94 87 -94z" />
    <glyph glyph-name="oacute" unicode="&#xf3;" horiz-adv-x="604" 
d="M481 707l-1 -19l-163 -106l-50 34l123 138zM291 -12h-44q-125 0 -175 59t-33 181l10 71q17 125 80.5 181.5t189.5 56.5h43q123 0 171 -60t31 -185l-10 -71q-17 -122 -79.5 -177.5t-183.5 -55.5zM251 87h45q51 0 83 26t39 74l21 155q15 97 -88 97h-45q-51 0 -82 -27
t-38 -77l-22 -154q-15 -94 87 -94z" />
    <glyph glyph-name="ocircumflex" unicode="&#xf4;" horiz-adv-x="604" 
d="M466 586l-105 84l-127 -84l-36 34l131 122h80l99 -122zM291 -12h-44q-125 0 -175 59t-33 181l10 71q17 125 80.5 181.5t189.5 56.5h43q123 0 171 -60t31 -185l-10 -71q-17 -122 -79.5 -177.5t-183.5 -55.5zM251 87h45q51 0 83 26t39 74l21 155q15 97 -88 97h-45
q-51 0 -82 -27t-38 -77l-22 -154q-15 -94 87 -94z" />
    <glyph glyph-name="otilde" unicode="&#xf5;" horiz-adv-x="604" 
d="M543 702l-80 -80q-25 -21 -53 -21q-15 0 -30 10t-36.5 31.5t-33.5 30.5l-100 -68l-35 34l80 79q24 24 54 24q17 0 33.5 -11t37.5 -32t29 -28l99 65zM291 -12h-44q-125 0 -175 59t-33 181l10 71q17 125 80.5 181.5t189.5 56.5h43q123 0 171 -60t31 -185l-10 -71
q-17 -122 -79.5 -177.5t-183.5 -55.5zM251 87h45q51 0 83 26t39 74l21 155q15 97 -88 97h-45q-51 0 -82 -27t-38 -77l-22 -154q-15 -94 87 -94z" />
    <glyph glyph-name="odieresis" unicode="&#xf6;" horiz-adv-x="604" 
d="M258 608q-28 0 -46 18t-14 45q4 23 22.5 37.5t43.5 14.5q29 0 46 -18.5t13 -46.5q-3 -23 -21.5 -36.5t-43.5 -13.5zM454 608q-28 0 -45 18t-13 45q3 23 21 37.5t43 14.5q29 0 46.5 -18.5t13.5 -46.5q-3 -23 -21.5 -36.5t-44.5 -13.5zM291 -12h-44q-125 0 -175 59t-33 181
l10 71q17 125 80.5 181.5t189.5 56.5h43q123 0 171 -60t31 -185l-10 -71q-17 -122 -79.5 -177.5t-183.5 -55.5zM251 87h45q51 0 83 26t39 74l21 155q15 97 -88 97h-45q-51 0 -82 -27t-38 -77l-22 -154q-15 -94 87 -94z" />
    <glyph glyph-name="divide" unicode="&#xf7;" horiz-adv-x="588" 
d="M334 495q-78 0 -67 74q7 61 76 61q77 0 67 -75q-9 -60 -76 -60zM63 399h500l-14 -98h-500zM275 75q-79 0 -68 74q5 32 23 46.5t54 14.5q76 0 67 -75q-9 -60 -76 -60z" />
    <glyph glyph-name="oslash" unicode="&#xf8;" horiz-adv-x="614" 
d="M613 555l-74 -78q49 -60 31 -185l-10 -71q-17 -122 -79.5 -177.5t-183.5 -55.5h-44q-93 0 -146 33l-47 -50h-54l72 76q-51 59 -33 181l10 71q17 125 80.5 181.5t189.5 56.5h43q93 0 143 -34l49 52h53zM192 335l-22 -154q-3 -24 -1 -38l260 274q-22 22 -72 22h-45
q-51 0 -82 -27t-38 -77zM424 187l21 155q3 19 1 37l-258 -273q22 -19 69 -19h45q51 0 83 26t39 74z" />
    <glyph glyph-name="ugrave" unicode="&#xf9;" horiz-adv-x="677" 
d="M435 616l-57 -34l-134 106l1 19l103 47zM611 525l-56 -380q-3 -28 5.5 -40t36.5 -12h43l-11 -85q-50 -17 -102 -17q-97 0 -104 87l1 9q-47 -28 -72.5 -41.5t-71 -29.5t-81.5 -16h-12q-73 0 -98.5 32.5t-14.5 112.5l42 279q-7 1 -70 8l10 93h203l-44 -316
q-10 -63 -1.5 -80t51.5 -17h12q55 0 150 60l40 252q-10 2 -69 8l10 93h203z" />
    <glyph glyph-name="uacute" unicode="&#xfa;" horiz-adv-x="677" 
d="M504 707l-1 -19l-163 -106l-50 34l123 138zM611 525l-56 -380q-3 -28 5.5 -40t36.5 -12h43l-11 -85q-50 -17 -102 -17q-97 0 -104 87l1 9q-47 -28 -72.5 -41.5t-71 -29.5t-81.5 -16h-12q-73 0 -98.5 32.5t-14.5 112.5l42 279q-7 1 -70 8l10 93h203l-44 -316
q-10 -63 -1.5 -80t51.5 -17h12q55 0 150 60l40 252q-10 2 -69 8l10 93h203z" />
    <glyph glyph-name="ucircumflex" unicode="&#xfb;" horiz-adv-x="677" 
d="M495 586l-105 84l-127 -84l-36 34l131 122h80l99 -122zM611 525l-56 -380q-3 -28 5.5 -40t36.5 -12h43l-11 -85q-50 -17 -102 -17q-97 0 -104 87l1 9q-47 -28 -72.5 -41.5t-71 -29.5t-81.5 -16h-12q-73 0 -98.5 32.5t-14.5 112.5l42 279q-7 1 -70 8l10 93h203l-44 -316
q-10 -63 -1.5 -80t51.5 -17h12q55 0 150 60l40 252q-10 2 -69 8l10 93h203z" />
    <glyph glyph-name="udieresis" unicode="&#xfc;" horiz-adv-x="677" 
d="M287 608q-28 0 -46 18t-14 45q4 23 22.5 37.5t43.5 14.5q29 0 46 -18.5t13 -46.5q-3 -23 -21.5 -36.5t-43.5 -13.5zM483 608q-28 0 -45 18t-13 45q3 23 21 37.5t43 14.5q29 0 46.5 -18.5t13.5 -46.5q-3 -23 -21.5 -36.5t-44.5 -13.5zM611 525l-56 -380q-3 -28 5.5 -40
t36.5 -12h43l-11 -85q-50 -17 -102 -17q-97 0 -104 87l1 9q-47 -28 -72.5 -41.5t-71 -29.5t-81.5 -16h-12q-73 0 -98.5 32.5t-14.5 112.5l42 279q-7 1 -70 8l10 93h203l-44 -316q-10 -63 -1.5 -80t51.5 -17h12q55 0 150 60l40 252q-10 2 -69 8l10 93h203z" />
    <glyph glyph-name="yacute" unicode="&#xfd;" horiz-adv-x="665" 
d="M495 707l-1 -19l-163 -106l-50 34l123 138zM689 525l-10 -94q-17 -3 -45 -6.5t-31 -3.5l-292 -493q27 0 58 -3l-11 -93h-286l11 93q19 2 104 5l37 60l-126 435q-10 1 -30 3.5t-29 3.5l10 93h277l-11 -94q-39 -5 -82 -6l73 -303h3l178 303q-10 1 -30 3.5t-30 3.5l10 93
h252z" />
    <glyph glyph-name="thorn" unicode="&#xfe;" horiz-adv-x="630" 
d="M466 537h16q68 0 99.5 -47.5t17.5 -144.5l-27 -188q-11 -83 -56.5 -124t-113.5 -41h-16q-56 0 -92.5 12.5t-90.5 44.5l-19 -130q8 -1 66 -8l-11 -93h-265l10 95l68 6l101 681q-18 2 -62 8l11 92h194l-35 -244q57 40 104.5 60.5t100.5 20.5zM449 218l14 96q8 66 -2 88.5
t-53 22.5h-15q-60 0 -142 -51l-36 -242q34 -23 59.5 -30t63.5 -7h17q43 0 63.5 27.5t30.5 95.5z" />
    <glyph glyph-name="ydieresis" unicode="&#xff;" horiz-adv-x="665" 
d="M288 608q-28 0 -46 18t-14 45q4 23 22.5 37.5t43.5 14.5q29 0 46 -18.5t13 -46.5q-3 -23 -21.5 -36.5t-43.5 -13.5zM484 608q-28 0 -45 18t-13 45q3 23 21 37.5t43 14.5q29 0 46.5 -18.5t13.5 -46.5q-3 -23 -21.5 -36.5t-44.5 -13.5zM689 525l-10 -94q-17 -3 -45 -6.5
t-31 -3.5l-292 -493q27 0 58 -3l-11 -93h-286l11 93q19 2 104 5l37 60l-126 435q-10 1 -30 3.5t-29 3.5l10 93h277l-11 -94q-39 -5 -82 -6l73 -303h3l178 303q-10 1 -30 3.5t-30 3.5l10 93h252z" />
    <glyph glyph-name="Amacron" unicode="&#x100;" horiz-adv-x="799" 
d="M611 845l-11 -79h-289l11 79h289zM551 700l115 -593q38 -1 87 -10l-10 -97h-312l12 99q28 4 70 7l-18 100h-230l-44 -100q12 -2 27.5 -5t24.5 -4l-11 -97h-279l12 99q46 7 85 8l235 487l-73 9l12 97h297zM431 585l-122 -262h174l-50 262h-2z" />
    <glyph glyph-name="amacron" unicode="&#x101;" 
d="M496 683l-11 -77h-265l11 77h265zM557 525l-57 -380q-3 -28 5.5 -40t36.5 -12h40l-11 -81q-43 -21 -97 -21q-17 0 -32.5 3t-33.5 11.5t-28 27.5t-10 46q-98 -87 -204 -87h-17q-68 0 -101 47.5t-19 144.5l25 184q12 82 57.5 121t113.5 39h17q53 0 85 -11t88 -42l9 50h133z
M224 104h15q52 0 132 50l35 239q-37 19 -57.5 24t-59.5 5h-17q-42 0 -63.5 -26t-30.5 -90l-13 -91q-9 -65 3 -88t56 -23z" />
    <glyph glyph-name="Abreve" unicode="&#x102;" horiz-adv-x="799" 
d="M622 892l-4 -25q-8 -59 -50 -92t-110 -33q-72 0 -108 36t-28 96l2 18h77l-1 -10q-4 -30 12 -43.5t48 -13.5q34 0 57.5 16.5t27.5 47.5v3h77zM551 700l115 -593q38 -1 87 -10l-10 -97h-312l12 99q28 4 70 7l-18 100h-230l-44 -100q12 -2 27.5 -5t24.5 -4l-11 -97h-279
l12 99q46 7 85 8l235 487l-73 9l12 97h297zM431 585l-122 -262h174l-50 262h-2z" />
    <glyph glyph-name="abreve" unicode="&#x103;" 
d="M516 728l-4 -24q-8 -57 -48 -88.5t-107 -31.5q-70 0 -104.5 34.5t-26.5 92.5l2 17h74l-1 -9q-5 -31 10 -43.5t47 -12.5q35 0 57.5 16t26.5 47l1 2h73zM557 525l-57 -380q-3 -28 5.5 -40t36.5 -12h40l-11 -81q-43 -21 -97 -21q-17 0 -32.5 3t-33.5 11.5t-28 27.5t-10 46
q-98 -87 -204 -87h-17q-68 0 -101 47.5t-19 144.5l25 184q12 82 57.5 121t113.5 39h17q53 0 85 -11t88 -42l9 50h133zM224 104h15q52 0 132 50l35 239q-37 19 -57.5 24t-59.5 5h-17q-42 0 -63.5 -26t-30.5 -90l-13 -91q-9 -65 3 -88t56 -23z" />
    <glyph glyph-name="Aogonek" unicode="&#x104;" horiz-adv-x="799" 
d="M530 -72v-5q-2 -14 4.5 -19t24.5 -5q39 0 73 13l19 -41q-59 -39 -112 -39h-17q-39 0 -58.5 19.5t-15.5 53.5l1 6q8 57 90 89h-108l12 99q28 4 70 7l-18 100h-230l-44 -100q12 -2 27.5 -5t24.5 -4l-11 -97h-279l12 99q46 7 85 8l235 487l-73 9l12 97h297l115 -593
q38 -1 87 -10l-10 -97h-136q-59 -42 -70 -56q-6 -8 -7 -16zM483 323l-50 262h-2l-122 -262h174z" />
    <glyph glyph-name="aogonek" unicode="&#x105;" 
d="M366 -72v-5q-2 -14 4.5 -19t24.5 -5q39 0 73 13l19 -41q-59 -39 -112 -39h-17q-39 0 -58.5 19.5t-15.5 53.5l1 6q9 65 114 97h5q-34 20 -34 71q-98 -87 -204 -87h-17q-68 0 -101 47.5t-19 144.5l25 184q12 82 57.5 121t113.5 39h17q53 0 85 -11t88 -42l9 50h133l-57 -380
q-3 -28 5.5 -40t36.5 -12h40l-11 -81q-43 -21 -97 -21q-19 0 -38 4q-55 -39 -65 -54q-4 -6 -5 -13zM371 154l35 239q-37 19 -57.5 24t-59.5 5h-17q-42 0 -63.5 -26t-30.5 -90l-13 -91q-9 -65 3 -88t56 -23h15q52 0 132 50z" />
    <glyph glyph-name="Cacute" unicode="&#x106;" horiz-adv-x="647" 
d="M544 869l-2 -19l-167 -109l-54 36l128 142zM594 185l-13 -108q-109 -89 -250 -89h-69q-126 0 -179 62.5t-36 191.5l30 211q36 258 290 258h42q124 0 246 -37l-25 -196h-115l2 109q-42 12 -152 12q-63 0 -101.5 -37t-48.5 -105l-33 -234q-16 -120 105 -120h48q95 0 144 86
z" />
    <glyph glyph-name="cacute" unicode="&#x107;" horiz-adv-x="545" 
d="M451 707l-1 -19l-163 -106l-50 34l123 138zM491 156l-11 -98q-97 -70 -210 -70h-57q-108 0 -150.5 53.5t-26.5 164.5l17 125q15 101 78 153.5t163 52.5h46q87 0 192 -33l-21 -165h-99l2 87q-42 11 -107 11q-108 0 -123 -120l-19 -126q-8 -58 13 -78.5t71 -20.5h28
q73 0 101 53l7 11h106z" />
    <glyph glyph-name="Cdotaccent" unicode="&#x10a;" horiz-adv-x="647" 
d="M410 762q-32 0 -51 20t-15 51q4 27 25 43t49 16q32 0 50.5 -20.5t14.5 -51.5q-4 -26 -24.5 -42t-48.5 -16zM594 185l-13 -108q-109 -89 -250 -89h-69q-126 0 -179 62.5t-36 191.5l30 211q36 258 290 258h42q124 0 246 -37l-25 -196h-115l2 109q-42 12 -152 12
q-63 0 -101.5 -37t-48.5 -105l-33 -234q-16 -120 105 -120h48q95 0 144 86z" />
    <glyph glyph-name="cdotaccent" unicode="&#x10b;" horiz-adv-x="545" 
d="M329 597q-30 0 -47.5 19t-13.5 48q4 26 23.5 41.5t46.5 15.5q30 0 48 -20t14 -50q-3 -24 -23 -39t-48 -15zM491 156l-11 -98q-97 -70 -210 -70h-57q-108 0 -150.5 53.5t-26.5 164.5l17 125q15 101 78 153.5t163 52.5h46q87 0 192 -33l-21 -165h-99l2 87q-42 11 -107 11
q-108 0 -123 -120l-19 -126q-8 -58 13 -78.5t71 -20.5h28q73 0 101 53l7 11h106z" />
    <glyph glyph-name="Ccaron" unicode="&#x10c;" horiz-adv-x="647" 
d="M444 748h-80l-99 121l43 35l104 -84l128 84l35 -35zM594 185l-13 -108q-109 -89 -250 -89h-69q-126 0 -179 62.5t-36 191.5l30 211q36 258 290 258h42q124 0 246 -37l-25 -196h-115l2 109q-42 12 -152 12q-63 0 -101.5 -37t-48.5 -105l-33 -234q-16 -120 105 -120h48
q95 0 144 86z" />
    <glyph glyph-name="ccaron" unicode="&#x10d;" horiz-adv-x="545" 
d="M366 586h-80l-100 121l43 35l104 -84l128 84l35 -35zM491 156l-11 -98q-97 -70 -210 -70h-57q-108 0 -150.5 53.5t-26.5 164.5l17 125q15 101 78 153.5t163 52.5h46q87 0 192 -33l-21 -165h-99l2 87q-42 11 -107 11q-108 0 -123 -120l-19 -126q-8 -58 13 -78.5t71 -20.5
h28q73 0 101 53l7 11h106z" />
    <glyph glyph-name="Dcaron" unicode="&#x10e;" horiz-adv-x="718" 
d="M459 748h-80l-99 121l43 35l104 -84l128 84l35 -35zM93 700h388q129 -1 181 -62.5t34 -189.5l-29 -208q-19 -126 -85.5 -183t-192.5 -57h-392l12 99q35 4 79 9l73 485q-8 1 -34 4t-46 6zM530 237l32 231q16 119 -105 119h-161l-67 -474h156q60 0 98 32.5t47 91.5z" />
    <glyph glyph-name="dcaron" unicode="&#x10f;" horiz-adv-x="616" 
d="M568 700l-80 -555q-3 -28 5.5 -40t36.5 -12h42l-11 -78q-45 -24 -101 -24q-40 0 -75 21t-34 71l1 5q-4 -3 -30.5 -22t-34 -24t-30 -18t-35.5 -17.5t-33 -9.5t-39 -5h-17q-68 0 -101 47.5t-19 144.5l25 182q12 83 58.5 126t113.5 43h17q57 0 89.5 -11t89.5 -45l20 130
q-50 8 -70 10l9 81h203zM727 700l-2 -23l-77 -159h-68l44 182h103zM208 104h15q31 0 60 13t75 42l38 235q-38 22 -61 27.5t-62 5.5h-17q-77 0 -91 -101l-16 -111q-9 -65 3 -88t56 -23z" />
    <glyph glyph-name="Dcroat" unicode="&#x110;" horiz-adv-x="718" 
d="M93 700h388q129 -1 181 -62.5t34 -189.5l-29 -208q-19 -126 -85.5 -183t-192.5 -57h-392l12 99q35 4 79 9l30 201h-77l11 79h78l31 205q-8 1 -34 4t-46 6zM530 237l32 231q16 119 -105 119h-161l-28 -199h73l-11 -79h-73l-28 -196h156q60 0 98 32.5t47 91.5z" />
    <glyph glyph-name="dcroat" unicode="&#x111;" horiz-adv-x="616" 
d="M570 572l-68 -472q7 0 16.5 -1t24 -3t24.5 -3l-10 -92h-199l12 73q-57 -41 -102 -61.5t-98 -20.5h-17q-68 0 -101 47.5t-19 144.5l25 182q12 83 58.5 126t113.5 43h17q56 0 87.5 -11t88.5 -45l14 93h-116l11 76h117l10 68h132l-10 -68h59l-10 -76h-60zM377 156l39 238
q-38 22 -61 27.5t-62 5.5h-17q-77 0 -91 -101l-16 -111q-9 -65 3 -88t56 -23h15q56 0 134 52z" />
    <glyph glyph-name="Emacron" unicode="&#x112;" horiz-adv-x="643" 
d="M546 845l-11 -79h-289l11 79h289zM621 497h-85l-5 93h-238l-25 -179h186l-17 -118h-185l-26 -183h243l30 93h87l-28 -203h-561l12 99q19 2 44.5 4.5t31.5 3.5l74 487q-9 1 -33.5 3.5t-44.5 5.5l12 97h556z" />
    <glyph glyph-name="emacron" unicode="&#x113;" horiz-adv-x="575" 
d="M483 683l-11 -77h-265l11 77h265zM314 537h33q223 0 193 -215l-17 -119h-360l-3 -27q-14 -92 87 -92h40q74 0 101 48l8 16h105l-11 -90q-81 -70 -215 -70h-30q-127 0 -175 57.5t-31 184.5l13 88q16 113 80.5 166t181.5 53zM419 296l8 60q7 45 -18 67t-74 22h-30
q-50 0 -82.5 -26.5t-39.5 -74.5l-6 -48h242z" />
    <glyph glyph-name="Edotaccent" unicode="&#x116;" horiz-adv-x="643" 
d="M395 762q-32 0 -51 20t-15 51q4 27 25 43t49 16q32 0 50.5 -20.5t14.5 -51.5q-4 -26 -24.5 -42t-48.5 -16zM621 497h-85l-5 93h-238l-25 -179h186l-17 -118h-185l-26 -183h243l30 93h87l-28 -203h-561l12 99q19 2 44.5 4.5t31.5 3.5l74 487q-9 1 -33.5 3.5t-44.5 5.5
l12 97h556z" />
    <glyph glyph-name="edotaccent" unicode="&#x117;" horiz-adv-x="575" 
d="M346 601q-31 0 -49.5 20t-14.5 50q4 27 24.5 43.5t48.5 16.5q33 0 51.5 -20.5t14.5 -52.5q-4 -26 -25 -41.5t-50 -15.5zM314 537h33q223 0 193 -215l-17 -119h-360l-3 -27q-14 -92 87 -92h40q74 0 101 48l8 16h105l-11 -90q-81 -70 -215 -70h-30q-127 0 -175 57.5
t-31 184.5l13 88q16 113 80.5 166t181.5 53zM419 296l8 60q7 45 -18 67t-74 22h-30q-50 0 -82.5 -26.5t-39.5 -74.5l-6 -48h242z" />
    <glyph glyph-name="Eogonek" unicode="&#x118;" horiz-adv-x="643" 
d="M293 590l-25 -179h186l-17 -118h-185l-26 -183h243l30 93h87l-28 -203h-73q-59 -42 -70 -56q-6 -9 -7 -16v-5q-2 -14 4.5 -19t24.5 -5q39 0 73 13l19 -41q-59 -39 -112 -39h-17q-39 0 -58.5 19.5t-15.5 53.5l1 6q8 57 90 89h-420l12 99q19 2 44.5 4.5t31.5 3.5l74 487
q-9 1 -33.5 3.5t-44.5 5.5l12 97h556l-28 -203h-85l-5 93h-238z" />
    <glyph glyph-name="eogonek" unicode="&#x119;" horiz-adv-x="575" 
d="M314 537h33q223 0 193 -215l-17 -119h-360l-3 -27q-14 -92 87 -92h40q74 0 101 48l8 16h105l-11 -90q-55 -48 -140 -63q-26 -18 -36 -26t-21.5 -20t-12.5 -21v-5q-2 -14 4.5 -19t24.5 -5q39 0 73 13l19 -41q-59 -39 -112 -39h-17q-39 0 -58.5 19.5t-15.5 53.5l1 6
q7 49 63 77h-17q-127 0 -175 57.5t-31 184.5l13 88q16 113 80.5 166t181.5 53zM419 296l8 60q7 45 -18 67t-74 22h-30q-50 0 -82.5 -26.5t-39.5 -74.5l-6 -48h242z" />
    <glyph glyph-name="Ecaron" unicode="&#x11a;" horiz-adv-x="643" 
d="M429 748h-80l-99 121l43 35l104 -84l128 84l35 -35zM621 497h-85l-5 93h-238l-25 -179h186l-17 -118h-185l-26 -183h243l30 93h87l-28 -203h-561l12 99q19 2 44.5 4.5t31.5 3.5l74 487q-9 1 -33.5 3.5t-44.5 5.5l12 97h556z" />
    <glyph glyph-name="ecaron" unicode="&#x11b;" horiz-adv-x="575" 
d="M382 586h-80l-100 121l43 35l104 -84l128 84l35 -35zM314 537h33q223 0 193 -215l-17 -119h-360l-3 -27q-14 -92 87 -92h40q74 0 101 48l8 16h105l-11 -90q-81 -70 -215 -70h-30q-127 0 -175 57.5t-31 184.5l13 88q16 113 80.5 166t181.5 53zM419 296l8 60q7 45 -18 67
t-74 22h-30q-50 0 -82.5 -26.5t-39.5 -74.5l-6 -48h242z" />
    <glyph glyph-name="Gbreve" unicode="&#x11e;" horiz-adv-x="690" 
d="M583 892l-4 -25q-8 -59 -50 -92t-110 -33q-72 0 -108 36t-28 96l2 18h77l-1 -10q-4 -30 12 -43.5t48 -13.5q34 0 57.5 16.5t27.5 47.5v3h77zM656 363l-24 -173q-8 -55 -37 -96.5t-69.5 -63t-81.5 -32t-81 -10.5h-92q-260 0 -223 255l27 194q18 130 97 202t204 72h43
q36 0 115 -10.5t144 -26.5l-26 -199h-114v102q-45 12 -158 12q-66 0 -112 -42.5t-56 -111.5l-29 -209q-16 -116 114 -116h83q49 0 86 27t44 71l6 40q-98 6 -187 14l12 101h315z" />
    <glyph glyph-name="gbreve" unicode="&#x11f;" horiz-adv-x="605" 
d="M514 728l-4 -24q-8 -57 -48 -88.5t-107 -31.5q-70 0 -104.5 34.5t-26.5 92.5l2 17h74l-1 -9q-5 -31 10 -43.5t47 -12.5q35 0 57.5 16t26.5 47l1 2h73zM622 525l-11 -94q-22 -3 -59 -7l-60 -410q-26 -190 -236 -190h-52q-124 0 -191 75l9 77h107v-17q17 -40 86 -40h39
q41 0 70.5 24.5t36.5 72.5l10 63q-98 -58 -203 -58h-17q-72 0 -101 39t-18 120l27 194q22 160 167 160h16q37 0 71 -9t54 -19t55 -31l10 50h190zM229 133h17q65 0 136 42l34 218q-60 34 -128 34h-15q-40 0 -60.5 -26t-30.5 -89l-11 -79q-8 -57 4 -78.5t54 -21.5z" />
    <glyph glyph-name="Gdotaccent" unicode="&#x120;" horiz-adv-x="690" 
d="M421 762q-32 0 -51 20t-15 51q4 27 25 43t49 16q32 0 50.5 -20.5t14.5 -51.5q-4 -26 -24.5 -42t-48.5 -16zM656 363l-24 -173q-8 -55 -37 -96.5t-69.5 -63t-81.5 -32t-81 -10.5h-92q-260 0 -223 255l27 194q18 130 97 202t204 72h43q36 0 115 -10.5t144 -26.5l-26 -199
h-114v102q-45 12 -158 12q-66 0 -112 -42.5t-56 -111.5l-29 -209q-16 -116 114 -116h83q49 0 86 27t44 71l6 40q-98 6 -187 14l12 101h315z" />
    <glyph glyph-name="gdotaccent" unicode="&#x121;" horiz-adv-x="605" 
d="M356 601q-31 0 -49.5 20t-14.5 50q4 27 24.5 43.5t48.5 16.5q33 0 51.5 -20.5t14.5 -52.5q-4 -26 -25 -41.5t-50 -15.5zM622 525l-11 -94q-22 -3 -59 -7l-60 -410q-26 -190 -236 -190h-52q-124 0 -191 75l9 77h107v-17q17 -40 86 -40h39q41 0 70.5 24.5t36.5 72.5l10 63
q-98 -58 -203 -58h-17q-72 0 -101 39t-18 120l27 194q22 160 167 160h16q37 0 71 -9t54 -19t55 -31l10 50h190zM229 133h17q65 0 136 42l34 218q-60 34 -128 34h-15q-40 0 -60.5 -26t-30.5 -89l-11 -79q-8 -57 4 -78.5t54 -21.5z" />
    <glyph glyph-name="Gcommaaccent" unicode="&#x122;" horiz-adv-x="690" 
d="M656 363l-24 -173q-8 -55 -37 -96.5t-69.5 -63t-81.5 -32t-81 -10.5h-92q-260 0 -223 255l27 194q18 130 97 202t204 72h43q36 0 115 -10.5t144 -26.5l-26 -199h-114v102q-45 12 -158 12q-66 0 -112 -42.5t-56 -111.5l-29 -209q-16 -116 114 -116h83q49 0 86 27t44 71
l6 40q-98 6 -187 14l12 101h315zM241 -128l14 50q10 28 41 22q33 -8 45 -17.5t9 -33.5q-7 -45 -43 -86q-20 -23 -61 -55l-26 24q40 47 50 87z" />
    <glyph glyph-name="gcommaaccent" unicode="&#x123;" horiz-adv-x="605" 
d="M454 668l-13 -48q-10 -27 -39 -21q-32 8 -43 17t-8 32q5 41 41 81q20 23 57 53l25 -23q-39 -47 -47 -83zM622 525l-11 -94q-22 -3 -59 -7l-60 -410q-26 -190 -236 -190h-52q-124 0 -191 75l9 77h107v-17q17 -40 86 -40h39q41 0 70.5 24.5t36.5 72.5l10 63
q-98 -58 -203 -58h-17q-72 0 -101 39t-18 120l27 194q22 160 167 160h16q37 0 71 -9t54 -19t55 -31l10 50h190zM229 133h17q65 0 136 42l34 218q-60 34 -128 34h-15q-40 0 -60.5 -26t-30.5 -89l-11 -79q-8 -57 4 -78.5t54 -21.5z" />
    <glyph glyph-name="Hbar" unicode="&#x126;" horiz-adv-x="793" 
d="M821 700l-12 -99q-50 -6 -79 -8l-14 -90h66l-4 -32h-67l-55 -365q8 -1 23.5 -2.5t28 -3t23.5 -3.5l-10 -97h-280l12 99q10 1 21 2t24.5 2t20.5 2l28 189h-295l-28 -189q20 -2 62 -8l-11 -97h-280l12 99q56 6 79 8l55 364h-66l4 32h66l14 90q-45 5 -80 10l12 97h282
l-12 -99q-9 -1 -20 -2t-24 -2t-20 -2l-14 -92h295l14 92q-18 2 -64 8l11 97h282zM573 471h-295l-9 -62h295z" />
    <glyph glyph-name="hbar" unicode="&#x127;" horiz-adv-x="680" 
d="M605 392l-43 -292q4 0 26.5 -3t43.5 -5l-10 -92h-203l45 328q10 64 1.5 80.5t-51.5 16.5h-12q-56 0 -151 -60l-41 -265q6 0 65 -8l-10 -92h-265l11 93q33 5 67 7l67 461h-68l11 77h68l11 78h132l-12 -78h110l-11 -77h-111l-17 -115q135 91 223 91h11q134 0 113 -145z" />
    <glyph glyph-name="Imacron" unicode="&#x12a;" horiz-adv-x="355" 
d="M404 845l-11 -79h-289l11 79h289zM386 700l-12 -99q-52 -6 -78 -8l-73 -486q22 -2 76 -10l-11 -97h-291l12 99q54 6 76 8l74 486q-26 2 -78 10l12 97h293z" />
    <glyph glyph-name="imacron" unicode="&#x12b;" horiz-adv-x="324" 
d="M354 683l-11 -77h-265l11 77h265zM252 525l-56 -380q-3 -28 5.5 -40t36.5 -12h40l-11 -94q-47 -8 -102 -8q-52 0 -83.5 30t-20.5 97l47 306q-11 1 -32 4t-29 4l10 93h195z" />
    <glyph glyph-name="Iogonek" unicode="&#x12e;" horiz-adv-x="355" 
d="M386 700l-12 -99q-52 -6 -78 -8l-73 -486q22 -2 76 -10l-11 -97h-74q-59 -42 -70 -56q-6 -8 -7 -16v-5q-2 -14 4.5 -19t24.5 -5q39 0 73 13l19 -41q-59 -39 -112 -39h-17q-39 0 -58.5 19.5t-15.5 53.5l1 6q8 57 90 89h-149l12 99q54 6 76 8l74 486q-26 2 -78 10l12 97
h293z" />
    <glyph glyph-name="iogonek" unicode="&#x12f;" horiz-adv-x="324" 
d="M225 731q33 0 51.5 -20.5t14.5 -52.5q-4 -26 -25 -41.5t-50 -15.5q-31 0 -49.5 20t-14.5 50q4 27 24.5 43.5t48.5 16.5zM252 525l-56 -380q-3 -28 5.5 -40t36.5 -12h40l-11 -94q-35 -6 -74 -8q-53 -38 -61 -52q-3 -6 -4 -11v-5q-2 -14 4.5 -19t24.5 -5q39 0 73 13l19 -41
q-59 -39 -112 -39h-17q-39 0 -58.5 19.5t-15.5 53.5l1 6q8 55 79 85q-81 21 -65 122l47 306q-11 1 -32 4t-29 4l10 93h195z" />
    <glyph glyph-name="Idotaccent" unicode="&#x130;" horiz-adv-x="355" 
d="M253 762q-32 0 -51 20t-15 51q4 27 25 43t49 16q32 0 50.5 -20.5t14.5 -51.5q-4 -26 -24.5 -42t-48.5 -16zM386 700l-12 -99q-52 -6 -78 -8l-73 -486q22 -2 76 -10l-11 -97h-291l12 99q54 6 76 8l74 486q-26 2 -78 10l12 97h293z" />
    <glyph glyph-name="dotlessi" unicode="&#x131;" horiz-adv-x="324" 
d="M252 525l-56 -380q-3 -28 5.5 -40t36.5 -12h40l-11 -94q-47 -8 -102 -8q-52 0 -83.5 30t-20.5 97l47 306q-11 1 -32 4t-29 4l10 93h195z" />
    <glyph glyph-name="IJ" unicode="&#x132;" horiz-adv-x="702" 
d="M386 700l-12 -99q-52 -6 -78 -8l-73 -486q22 -2 76 -10l-11 -97h-291l12 99q54 6 76 8l74 486q-26 2 -78 10l12 97h293zM736 700l-11 -99q-52 -6 -77 -8l-71 -482q-11 -76 -34 -113.5t-91 -92.5q-55 -44 -88 -63l-55 60l52 49q41 38 56 71.5t24 95.5l69 475q-22 2 -78 10
l11 97h293z" />
    <glyph glyph-name="ij" unicode="&#x133;" horiz-adv-x="615" 
d="M218 735q34 0 53.5 -21.5t15.5 -55.5q-4 -28 -26.5 -45t-53.5 -17q-34 0 -54 21t-16 54q4 29 27 46.5t54 17.5zM545 735q35 0 55 -21.5t16 -55.5q-4 -28 -27 -45t-54 -17q-34 0 -54 21t-16 54q4 29 27 46.5t53 17.5zM260 525l-56 -380q-3 -28 5.5 -40t36.5 -12h40
l-12 -82q-45 -20 -101 -20q-51 0 -83 30t-21 97l47 306q-11 1 -32 4t-29 4l10 93h195zM591 525l-61 -437q-9 -63 -31 -94t-91 -88q-50 -40 -88 -63l-50 60q7 8 24 23.5t29 27.5q41 38 55 64.5t21 77.5l49 328q-25 2 -65 8l10 93h198z" />
    <glyph glyph-name="Kcommaaccent" unicode="&#x136;" horiz-adv-x="762" 
d="M386 700l-12 -99q-52 -6 -78 -8l-28 -187h138l162 189q-17 2 -61 8l11 97h277l-11 -99q-14 -2 -38.5 -3.5t-30.5 -2.5l-205 -245l131 -244q6 -1 34 -4t44 -5l-11 -97h-296l11 99q10 1 34.5 2t28.5 1l-90 187h-145l-28 -182q22 -2 76 -10l-11 -97h-291l12 99q54 6 76 8
l74 486q-26 2 -78 10l12 97h293zM271 -128l14 50q10 28 41 22q33 -8 45 -17.5t9 -33.5q-7 -45 -43 -86q-20 -23 -61 -55l-26 24q40 47 50 87z" />
    <glyph glyph-name="kcommaaccent" unicode="&#x137;" horiz-adv-x="657" 
d="M644 525l-11 -94q-32 -5 -65 -7l-133 -146l74 -147q15 -26 28 -32t43 -6h40l-13 -94q-47 -8 -100 -8q-36 0 -67.5 25t-61.5 100l-48 103h-121l-19 -119q6 0 65 -8l-10 -92h-265l11 93q33 5 67 7l75 500q-18 2 -62 8l11 92h194l-52 -371h119l83 98q-6 0 -24 1.5t-29 2.5
l11 94h260zM227 -128l14 50q10 28 41 22q33 -8 45 -17.5t9 -33.5q-7 -45 -43 -86q-20 -23 -61 -55l-26 24q40 47 50 87z" />
    <glyph glyph-name="Lacute" unicode="&#x139;" horiz-adv-x="626" 
d="M390 869l-2 -19l-167 -109l-54 36l128 142zM-3 0l12 99q63 7 76 8l74 487q-70 8 -78 9l12 97h311l-11 -99q-47 -8 -97 -9l-70 -482h238l32 109h93l-31 -219h-561z" />
    <glyph glyph-name="lacute" unicode="&#x13a;" horiz-adv-x="331" 
d="M365 880l-1 -19l-163 -106l-50 34l123 138zM276 700l-80 -555q-4 -27 5 -39.5t37 -12.5h42l-12 -83q-44 -19 -103 -19q-52 0 -83.5 30t-20.5 97l72 482q-18 2 -62 8l11 92h194z" />
    <glyph glyph-name="Lcommaaccent" unicode="&#x13b;" horiz-adv-x="626" 
d="M-3 0l12 99q63 7 76 8l74 487q-70 8 -78 9l12 97h311l-11 -99q-47 -8 -97 -9l-70 -482h238l32 109h93l-31 -219h-561zM203 -128l14 50q10 28 41 22q33 -8 45 -17.5t9 -33.5q-7 -45 -43 -86q-20 -23 -61 -55l-26 24q40 47 50 87z" />
    <glyph glyph-name="lcommaaccent" unicode="&#x13c;" horiz-adv-x="331" 
d="M276 700l-80 -555q-4 -27 5 -39.5t37 -12.5h42l-12 -83q-44 -19 -103 -19q-52 0 -83.5 30t-20.5 97l72 482q-18 2 -62 8l11 92h194zM59 -128l14 50q10 28 41 22q33 -8 45 -17.5t9 -33.5q-7 -45 -43 -86q-20 -23 -61 -55l-26 24q40 47 50 87z" />
    <glyph glyph-name="Lcaron" unicode="&#x13d;" horiz-adv-x="626" 
d="M-3 0l12 99q63 7 76 8l74 487q-70 8 -78 9l12 97h311l-11 -99q-47 -8 -97 -9l-70 -482h238l32 109h93l-31 -219h-561zM551 700l-2 -23l-77 -159h-68l44 182h103z" />
    <glyph glyph-name="lcaron" unicode="&#x13e;" horiz-adv-x="331" 
d="M457 701l-2 -23l-77 -159h-68l44 182h103zM276 700l-80 -555q-4 -27 5 -39.5t37 -12.5h42l-12 -83q-44 -19 -103 -19q-52 0 -83.5 30t-20.5 97l72 482q-18 2 -62 8l11 92h194z" />
    <glyph glyph-name="Ldot" unicode="&#x13f;" horiz-adv-x="626" 
d="M-3 0l12 99q63 7 76 8l74 487q-70 8 -78 9l12 97h311l-11 -99q-47 -8 -97 -9l-70 -482h238l32 109h93l-31 -219h-561zM440 332q-30 0 -47.5 19t-13.5 48q4 26 23.5 41.5t46.5 15.5q30 0 48 -19.5t14 -49.5q-3 -25 -23 -40t-48 -15z" />
    <glyph glyph-name="ldot" unicode="&#x140;" horiz-adv-x="331" 
d="M276 700l-80 -555q-4 -27 5 -39.5t37 -12.5h42l-12 -83q-44 -19 -103 -19q-52 0 -83.5 30t-20.5 97l72 482q-18 2 -62 8l11 92h194zM353 298q-81 0 -71 78q9 65 81 65q81 0 71 -79q-9 -64 -81 -64z" />
    <glyph glyph-name="Lslash" unicode="&#x141;" horiz-adv-x="629" 
d="M590 219l-31 -219h-561l12 99q63 7 76 8l24 161l-86 -30l11 82l88 31l37 243q-70 8 -78 9l12 97h311l-11 -99q-47 -8 -97 -9l-28 -191l117 41l-11 -82l-118 -41l-30 -209h238l32 109h93z" />
    <glyph glyph-name="lslash" unicode="&#x142;" horiz-adv-x="331" 
d="M225 361l-31 -216q-4 -27 5 -39.5t37 -12.5h42l-12 -83q-44 -19 -103 -19q-52 0 -83.5 30t-20.5 97l29 193l-39 -14l11 81l40 14l31 208q-18 2 -62 8l11 92h194l-37 -258l91 33l-11 -80z" />
    <glyph glyph-name="Nacute" unicode="&#x143;" horiz-adv-x="792" 
d="M602 869l-2 -19l-167 -109l-54 36l128 142zM822 700l-12 -99q-43 -6 -80 -9l-85 -592h-143l-238 484l-54 -379q12 -1 62 -8l-11 -97h-264l12 99q56 6 79 8l73 486q-40 4 -80 10l12 97h209l250 -504l57 399q-14 1 -65 8l11 97h267z" />
    <glyph glyph-name="nacute" unicode="&#x144;" horiz-adv-x="680" 
d="M517 707l-1 -19l-163 -106l-50 34l123 138zM260 525l-14 -79q135 91 223 91h11q135 0 113 -145l-36 -247q-4 -27 5 -39.5t36 -12.5h40l-11 -85q-50 -17 -102 -17q-18 0 -34.5 4t-35.5 14.5t-28.5 34.5t-5.5 58l31 226q9 64 1 80.5t-51 16.5h-12q-56 0 -151 -60l-56 -365
h-132l65 424q-11 1 -32 4t-29 4l10 93h195z" />
    <glyph glyph-name="Ncommaaccent" unicode="&#x145;" horiz-adv-x="792" 
d="M822 700l-12 -99q-43 -6 -80 -9l-85 -592h-143l-238 484l-54 -379q12 -1 62 -8l-11 -97h-264l12 99q56 6 79 8l73 486q-40 4 -80 10l12 97h209l250 -504l57 399q-14 1 -65 8l11 97h267zM291 -128l14 50q10 28 41 22q33 -8 45 -17.5t9 -33.5q-7 -45 -43 -86
q-20 -23 -61 -55l-26 24q40 47 50 87z" />
    <glyph glyph-name="ncommaaccent" unicode="&#x146;" horiz-adv-x="680" 
d="M260 525l-14 -79q135 91 223 91h11q135 0 113 -145l-36 -247q-4 -27 5 -39.5t36 -12.5h40l-11 -85q-50 -17 -102 -17q-18 0 -34.5 4t-35.5 14.5t-28.5 34.5t-5.5 58l31 226q9 64 1 80.5t-51 16.5h-12q-56 0 -151 -60l-56 -365h-132l65 424q-11 1 -32 4t-29 4l10 93h195z
M239 -128l14 50q10 28 41 22q33 -8 45 -17.5t9 -33.5q-7 -45 -43 -86q-20 -23 -61 -55l-26 24q40 47 50 87z" />
    <glyph glyph-name="Ncaron" unicode="&#x147;" horiz-adv-x="792" 
d="M502 748h-80l-99 121l43 35l104 -84l128 84l35 -35zM822 700l-12 -99q-43 -6 -80 -9l-85 -592h-143l-238 484l-54 -379q12 -1 62 -8l-11 -97h-264l12 99q56 6 79 8l73 486q-40 4 -80 10l12 97h209l250 -504l57 399q-14 1 -65 8l11 97h267z" />
    <glyph glyph-name="ncaron" unicode="&#x148;" horiz-adv-x="680" 
d="M431 586h-80l-100 121l43 35l104 -84l128 84l35 -35zM260 525l-14 -79q135 91 223 91h11q135 0 113 -145l-36 -247q-4 -27 5 -39.5t36 -12.5h40l-11 -85q-50 -17 -102 -17q-18 0 -34.5 4t-35.5 14.5t-28.5 34.5t-5.5 58l31 226q9 64 1 80.5t-51 16.5h-12q-56 0 -151 -60
l-56 -365h-132l65 424q-11 1 -32 4t-29 4l10 93h195z" />
    <glyph glyph-name="Omacron" unicode="&#x14c;" horiz-adv-x="707" 
d="M580 845l-11 -79h-289l11 79h289zM367 -12h-93q-128 0 -186 72t-41 199l26 183q18 130 93.5 199.5t204.5 69.5h93q126 0 182.5 -73t38.5 -203l-26 -182q-17 -127 -92 -196t-200 -69zM294 111h71q134 0 156 139l29 204q10 72 -17.5 103.5t-95.5 31.5h-71q-66 0 -105.5 -37
t-49.5 -105l-28 -204q-10 -70 16.5 -101t94.5 -31z" />
    <glyph glyph-name="omacron" unicode="&#x14d;" horiz-adv-x="604" 
d="M491 683l-11 -77h-265l11 77h265zM291 -12h-44q-125 0 -175 59t-33 181l10 71q17 125 80.5 181.5t189.5 56.5h43q123 0 171 -60t31 -185l-10 -71q-17 -122 -79.5 -177.5t-183.5 -55.5zM251 87h45q51 0 83 26t39 74l21 155q15 97 -88 97h-45q-51 0 -82 -27t-38 -77
l-22 -154q-15 -94 87 -94z" />
    <glyph glyph-name="Ohungarumlaut" unicode="&#x150;" horiz-adv-x="707" 
d="M495 881l-1 -17l-148 -117l-45 34l122 138zM646 881l-1 -17l-146 -117l-47 34l124 138zM367 -12h-93q-128 0 -186 72t-41 199l26 183q18 130 93.5 199.5t204.5 69.5h93q126 0 182.5 -73t38.5 -203l-26 -182q-17 -127 -92 -196t-200 -69zM294 111h71q134 0 156 139l29 204
q10 72 -17.5 103.5t-95.5 31.5h-71q-66 0 -105.5 -37t-49.5 -105l-28 -204q-10 -70 16.5 -101t94.5 -31z" />
    <glyph glyph-name="ohungarumlaut" unicode="&#x151;" horiz-adv-x="604" 
d="M425 719l-2 -17l-143 -114l-42 33l117 133zM571 719l-2 -17l-141 -114l-44 33l118 133zM291 -12h-44q-125 0 -175 59t-33 181l10 71q17 125 80.5 181.5t189.5 56.5h43q123 0 171 -60t31 -185l-10 -71q-17 -122 -79.5 -177.5t-183.5 -55.5zM251 87h45q51 0 83 26t39 74
l21 155q15 97 -88 97h-45q-51 0 -82 -27t-38 -77l-22 -154q-15 -94 87 -94z" />
    <glyph glyph-name="OE" unicode="&#x152;" horiz-adv-x="981" 
d="M607 411h186l-17 -118h-185l-26 -183h243l29 93h88l-28 -203h-606q-140 0 -201 60.5t-46 178.5l31 224q17 119 92 178t217 59h604l-28 -203h-86l-4 93h-238zM494 588h-113q-77 0 -121.5 -32.5t-52.5 -93.5l-33 -233q-8 -60 25 -88.5t111 -28.5h118z" />
    <glyph glyph-name="oe" unicode="&#x153;" horiz-adv-x="960" 
d="M702 537h33q224 0 193 -215l-16 -119h-360l-4 -27q-12 -92 88 -92h40q75 0 100 48l8 16h105l-11 -90q-81 -70 -214 -70h-30q-118 0 -168 49q-62 -49 -175 -49h-44q-125 0 -175 59t-33 181l10 71q17 125 80.5 181.5t189.5 56.5h43q113 0 162 -50q65 50 178 50zM807 296
l8 60q7 45 -17.5 67t-74.5 22h-29q-50 0 -83 -27t-39 -74l-7 -48h242zM251 86h45q51 0 82.5 26.5t39.5 74.5l21 155q15 97 -88 97h-45q-51 0 -82 -27t-38 -77l-22 -155q-13 -94 87 -94z" />
    <glyph glyph-name="Racute" unicode="&#x154;" horiz-adv-x="704" 
d="M557 869l-2 -19l-167 -109l-54 36l128 142zM93 700h366q120 0 172.5 -49.5t38.5 -155.5l-8 -52q-9 -66 -43 -107t-94 -75q40 -77 59 -159q35 -2 75 -8l-11 -94h-223l16 109q-18 93 -39 138h-155l-22 -144q10 -1 30 -2.5t30 -2.5l-11 -98h-277l12 99q56 6 79 8l73 486
q-9 1 -35.5 4t-44.5 6zM262 355h149q53 0 85.5 25.5t37.5 68.5l5 44q12 94 -92 94h-151z" />
    <glyph glyph-name="racute" unicode="&#x155;" horiz-adv-x="460" 
d="M380 707l-1 -19l-163 -106l-50 34l123 138zM272 525l-14 -93q45 51 83.5 75.5t86.5 24.5h51l-15 -122q-58 -3 -89 -6q-68 -1 -127 -58l-53 -346h-132l65 424q-11 1 -32 4t-29 4l10 93h195z" />
    <glyph glyph-name="Rcommaaccent" unicode="&#x156;" horiz-adv-x="704" 
d="M93 700h366q120 0 172.5 -49.5t38.5 -155.5l-8 -52q-9 -66 -43 -107t-94 -75q40 -77 59 -159q35 -2 75 -8l-11 -94h-223l16 109q-18 93 -39 138h-155l-22 -144q10 -1 30 -2.5t30 -2.5l-11 -98h-277l12 99q56 6 79 8l73 486q-9 1 -35.5 4t-44.5 6zM262 355h149
q53 0 85.5 25.5t37.5 68.5l5 44q12 94 -92 94h-151zM254 -128l14 50q10 28 41 22q33 -8 45 -17.5t9 -33.5q-7 -45 -43 -86q-20 -23 -61 -55l-26 24q40 47 50 87z" />
    <glyph glyph-name="rcommaaccent" unicode="&#x157;" horiz-adv-x="460" 
d="M272 525l-14 -93q45 51 83.5 75.5t86.5 24.5h51l-15 -122q-58 -3 -89 -6q-68 -1 -127 -58l-53 -346h-132l65 424q-11 1 -32 4t-29 4l10 93h195zM55 -128l14 50q10 28 41 22q33 -8 45 -17.5t9 -33.5q-7 -45 -43 -86q-20 -23 -61 -55l-26 24q40 47 50 87z" />
    <glyph glyph-name="Rcaron" unicode="&#x158;" horiz-adv-x="704" 
d="M458 748h-80l-99 121l43 35l104 -84l128 84l35 -35zM93 700h366q120 0 172.5 -49.5t38.5 -155.5l-8 -52q-9 -66 -43 -107t-94 -75q40 -77 59 -159q35 -2 75 -8l-11 -94h-223l16 109q-18 93 -39 138h-155l-22 -144q10 -1 30 -2.5t30 -2.5l-11 -98h-277l12 99q56 6 79 8
l73 486q-9 1 -35.5 4t-44.5 6zM262 355h149q53 0 85.5 25.5t37.5 68.5l5 44q12 94 -92 94h-151z" />
    <glyph glyph-name="rcaron" unicode="&#x159;" horiz-adv-x="460" 
d="M294 586h-80l-100 121l43 35l104 -84l128 84l35 -35zM272 525l-14 -93q45 51 83.5 75.5t86.5 24.5h51l-15 -122q-58 -3 -89 -6q-68 -1 -127 -58l-53 -346h-132l65 424q-11 1 -32 4t-29 4l10 93h195z" />
    <glyph glyph-name="Sacute" unicode="&#x15a;" horiz-adv-x="647" 
d="M532 869l-2 -19l-167 -109l-54 36l128 142zM162 214v-96q49 -22 138 -22h15q68 0 96.5 18.5t36.5 67.5l3 24q6 38 -8.5 53.5t-67.5 29.5l-171 42q-80 24 -105.5 61.5t-13.5 118.5l1 12q15 101 78.5 144.5t194.5 43.5h29q122 0 243 -42l-23 -183h-108v99q-39 19 -119 19
h-30q-58 0 -86.5 -19t-34.5 -62l-1 -10q-5 -31 5 -46t42 -24l201 -48q73 -19 99 -57.5t15 -114.5l-6 -43q-14 -103 -77 -147t-195 -44h-39q-71 0 -121 11t-126 41l21 173h114z" />
    <glyph glyph-name="sacute" unicode="&#x15b;" horiz-adv-x="542" 
d="M413 707l-1 -19l-163 -106l-50 34l123 138zM59 374l3 23q10 74 64 107t159 33h18q125 0 213 -37l-15 -129h-107v63q-37 15 -99 15q-107 0 -116 -59v-6q-4 -26 13 -35t83 -22q38 -7 61 -12q92 -17 126 -48t26 -89l-4 -28q-12 -86 -65.5 -124t-156.5 -38h-39
q-129 0 -209 75l16 106h100v-61q30 -27 97 -27h32q91 0 100 70l2 11q5 30 -20 41t-128 32q-98 17 -130.5 48.5t-23.5 90.5z" />
    <glyph glyph-name="Scedilla" unicode="&#x15e;" horiz-adv-x="647" 
d="M500 486v99q-39 19 -119 19h-30q-58 0 -86.5 -19t-34.5 -62l-1 -10q-5 -31 5 -46t42 -24l201 -48q73 -19 99 -57.5t15 -114.5l-6 -43q-14 -103 -77 -147t-195 -44h-39h-3l-5 -24h37q78 0 69 -67l-2 -13q-6 -40 -26.5 -54t-65.5 -15q-50 0 -110 14l2 37h104q13 0 23 8.5
t12 20.5v4q2 12 -2.5 16.5t-20.5 4.5h-84l23 69q-80 6 -198 51l21 173h114v-96q49 -22 138 -22h15q68 0 96.5 18.5t36.5 67.5l3 24q6 38 -8.5 53.5t-67.5 29.5l-171 42q-80 24 -105.5 61.5t-13.5 118.5l1 12q15 101 78.5 144.5t194.5 43.5h29q122 0 243 -42l-23 -183h-108z
" />
    <glyph glyph-name="scedilla" unicode="&#x15f;" horiz-adv-x="542" 
d="M394 371v63q-37 15 -99 15q-107 0 -116 -59v-6q-4 -26 13 -35t83 -22q38 -7 61 -12q92 -17 126 -48t26 -89l-4 -28q-12 -86 -65.5 -124t-156.5 -38h-39h-5l-5 -23h37q78 0 69 -67l-2 -13q-6 -40 -26.5 -54t-65.5 -15q-50 0 -110 14l2 37h104q13 0 23 8.5t12 20.5v4
q2 12 -2.5 16.5t-20.5 4.5h-84l23 70q-96 13 -158 72l16 106h100v-61q30 -27 97 -27h32q91 0 100 70l2 11q5 30 -20 41t-128 32q-98 17 -130.5 48.5t-23.5 90.5l3 23q10 74 64 107t159 33h18q125 0 213 -37l-15 -129h-107z" />
    <glyph glyph-name="Scaron" unicode="&#x160;" horiz-adv-x="647" 
d="M433 748h-80l-99 121l43 35l104 -84l128 84l35 -35zM162 214v-96q49 -22 138 -22h15q68 0 96.5 18.5t36.5 67.5l3 24q6 38 -8.5 53.5t-67.5 29.5l-171 42q-80 24 -105.5 61.5t-13.5 118.5l1 12q15 101 78.5 144.5t194.5 43.5h29q122 0 243 -42l-23 -183h-108v99
q-39 19 -119 19h-30q-58 0 -86.5 -19t-34.5 -62l-1 -10q-5 -31 5 -46t42 -24l201 -48q73 -19 99 -57.5t15 -114.5l-6 -43q-14 -103 -77 -147t-195 -44h-39q-71 0 -121 11t-126 41l21 173h114z" />
    <glyph glyph-name="scaron" unicode="&#x161;" horiz-adv-x="542" 
d="M359 586h-80l-100 121l43 35l104 -84l128 84l35 -35zM59 374l3 23q10 74 64 107t159 33h18q125 0 213 -37l-15 -129h-107v63q-37 15 -99 15q-107 0 -116 -59v-6q-4 -26 13 -35t83 -22q38 -7 61 -12q92 -17 126 -48t26 -89l-4 -28q-12 -86 -65.5 -124t-156.5 -38h-39
q-129 0 -209 75l16 106h100v-61q30 -27 97 -27h32q91 0 100 70l2 11q5 30 -20 41t-128 32q-98 17 -130.5 48.5t-23.5 90.5z" />
    <glyph glyph-name="Tcaron" unicode="&#x164;" horiz-adv-x="691" 
d="M454 748h-80l-99 121l43 35l104 -84l128 84l35 -35zM601 487l6 100h-146l-70 -480q41 -3 83 -10l-11 -97h-306l12 99q32 4 84 8l70 480h-147l-23 -100h-95l29 213h639l-29 -213h-96z" />
    <glyph glyph-name="tcaron" unicode="&#x165;" horiz-adv-x="421" 
d="M446 754l-2 -23l-77 -159h-68l44 182h103zM255 100h9q61 0 96 2l-6 -75q-73 -39 -168 -39h-11q-125 0 -104 146l42 293h-65l13 98h47q30 0 33 29l18 111q54 8 118 11l-19 -151h151l-13 -98h-151l-34 -238q-8 -56 -0.5 -72.5t44.5 -16.5z" />
    <glyph glyph-name="Umacron" unicode="&#x16a;" horiz-adv-x="757" 
d="M612 845l-11 -79h-289l11 79h289zM790 700l-12 -99q-10 -1 -33 -3.5t-34 -4.5l-52 -350q-19 -132 -86.5 -193.5t-194.5 -61.5h-56q-255 0 -219 262l51 344q-70 8 -76 9l12 97h296l-12 -99q-58 -6 -82 -8l-55 -367q-8 -59 18.5 -92t85.5 -33h44q59 0 98 36t47 96l53 362
q-15 1 -68 8l11 97h264z" />
    <glyph glyph-name="umacron" unicode="&#x16b;" horiz-adv-x="677" 
d="M520 683l-11 -77h-265l11 77h265zM611 525l-56 -380q-3 -28 5.5 -40t36.5 -12h43l-11 -85q-50 -17 -102 -17q-97 0 -104 87l1 9q-47 -28 -72.5 -41.5t-71 -29.5t-81.5 -16h-12q-73 0 -98.5 32.5t-14.5 112.5l42 279q-7 1 -70 8l10 93h203l-44 -316q-10 -63 -1.5 -80
t51.5 -17h12q55 0 150 60l40 252q-10 2 -69 8l10 93h203z" />
    <glyph glyph-name="Uring" unicode="&#x16e;" horiz-adv-x="757" 
d="M471 734h-34q-39 0 -59 23t-14 62l3 25q12 77 91 77h35q39 0 58.5 -23t13.5 -62l-3 -25q-12 -77 -91 -77zM443 783h29q33 0 37 34l4 26q4 32 -30 32h-20q-39 0 -43 -35l-4 -26q-2 -18 4.5 -24.5t22.5 -6.5zM790 700l-12 -99q-10 -1 -33 -3.5t-34 -4.5l-52 -350
q-19 -132 -86.5 -193.5t-194.5 -61.5h-56q-255 0 -219 262l51 344q-70 8 -76 9l12 97h296l-12 -99q-58 -6 -82 -8l-55 -367q-8 -59 18.5 -92t85.5 -33h44q59 0 98 36t47 96l53 362q-15 1 -68 8l11 97h264z" />
    <glyph glyph-name="uring" unicode="&#x16f;" horiz-adv-x="677" 
d="M394 585h-31q-36 0 -54 21t-13 58l3 22q10 72 84 72h31q36 0 54 -21.5t13 -57.5l-4 -22q-9 -72 -83 -72zM368 630h27q29 0 35 31l3 24q4 30 -28 30h-19q-35 0 -39 -32l-4 -24q-4 -29 25 -29zM611 525l-56 -380q-3 -28 5.5 -40t36.5 -12h43l-11 -85q-50 -17 -102 -17
q-97 0 -104 87l1 9q-47 -28 -72.5 -41.5t-71 -29.5t-81.5 -16h-12q-73 0 -98.5 32.5t-14.5 112.5l42 279q-7 1 -70 8l10 93h203l-44 -316q-10 -63 -1.5 -80t51.5 -17h12q55 0 150 60l40 252q-10 2 -69 8l10 93h203z" />
    <glyph glyph-name="Uhungarumlaut" unicode="&#x170;" horiz-adv-x="757" 
d="M527 881l-1 -17l-148 -117l-45 34l122 138zM678 881l-1 -17l-146 -117l-47 34l124 138zM790 700l-12 -99q-10 -1 -33 -3.5t-34 -4.5l-52 -350q-19 -132 -86.5 -193.5t-194.5 -61.5h-56q-255 0 -219 262l51 344q-70 8 -76 9l12 97h296l-12 -99q-58 -6 -82 -8l-55 -367
q-8 -59 18.5 -92t85.5 -33h44q59 0 98 36t47 96l53 362q-15 1 -68 8l11 97h264z" />
    <glyph glyph-name="uhungarumlaut" unicode="&#x171;" horiz-adv-x="677" 
d="M434 719l-2 -17l-143 -114l-42 33l117 133zM580 719l-2 -17l-141 -114l-44 33l118 133zM611 525l-56 -380q-3 -28 5.5 -40t36.5 -12h43l-11 -85q-50 -17 -102 -17q-97 0 -104 87l1 9q-47 -28 -72.5 -41.5t-71 -29.5t-81.5 -16h-12q-73 0 -98.5 32.5t-14.5 112.5l42 279
q-7 1 -70 8l10 93h203l-44 -316q-10 -63 -1.5 -80t51.5 -17h12q55 0 150 60l40 252q-10 2 -69 8l10 93h203z" />
    <glyph glyph-name="Uogonek" unicode="&#x172;" horiz-adv-x="757" 
d="M790 700l-12 -99q-10 -1 -33 -3.5t-34 -4.5l-52 -350q-19 -132 -86.5 -193.5t-194.5 -61.5h-27q-58 -40 -60 -60v-5q-2 -14 4.5 -19t24.5 -5q39 0 73 13l19 -41q-59 -39 -112 -39h-17q-39 0 -58.5 19.5t-15.5 53.5l1 6q7 51 67 79q-207 22 -174 260l51 344q-70 8 -76 9
l12 97h296l-12 -99q-58 -6 -82 -8l-55 -367q-8 -59 18.5 -92t85.5 -33h44q59 0 98 36t47 96l53 362q-15 1 -68 8l11 97h264z" />
    <glyph glyph-name="uogonek" unicode="&#x173;" horiz-adv-x="677" 
d="M460 -72v-5q-2 -14 4.5 -19t24.5 -5q39 0 73 13l19 -41q-59 -39 -112 -39h-17q-39 0 -58.5 19.5t-15.5 53.5l1 6q8 59 93 90q-45 21 -49 77l1 9q-47 -28 -72.5 -41.5t-71 -29.5t-81.5 -16h-12q-73 0 -98.5 32.5t-14.5 112.5l42 279q-7 1 -70 8l10 93h203l-44 -316
q-10 -63 -1.5 -80t51.5 -17h12q55 0 150 60l40 252q-10 2 -69 8l10 93h203l-56 -380q-3 -28 5.5 -40t36.5 -12h43l-11 -85q-50 -17 -102 -17h-3q-19 -14 -25 -18.5t-17.5 -14.5t-16 -16.5t-5.5 -13.5z" />
    <glyph glyph-name="Wcircumflex" unicode="&#x174;" horiz-adv-x="1012" 
d="M705 745l-107 86l-131 -86l-38 36l135 125h85l101 -125zM1062 700l-12 -99q-17 -2 -64 -7l-242 -594h-168l-34 448h-3l-163 -448h-185l-69 595q-9 1 -61 8l12 97h288l-12 -99q-14 -2 -44 -3.5t-36 -2.5l36 -435h11l203 540h110l54 -537h10l169 432q-46 4 -78 8l12 97h266
z" />
    <glyph glyph-name="wcircumflex" unicode="&#x175;" horiz-adv-x="886" 
d="M607 586l-105 84l-127 -84l-36 34l131 122h80l99 -122zM908 525l-10 -94q-47 -6 -63 -7l-179 -424h-157l-49 316l-144 -316h-150l-57 425q-2 0 -23.5 3t-34.5 4l10 93h238l-11 -94q-9 0 -19 -1t-22 -2.5t-19 -2.5l31 -302h2l175 402h102l69 -402h1l124 302q-10 1 -31 3.5
t-31 3.5l10 93h238z" />
    <glyph glyph-name="Ycircumflex" unicode="&#x176;" horiz-adv-x="712" 
d="M547 745l-107 86l-131 -86l-38 36l135 125h85l101 -125zM353 700l-12 -99q-21 -2 -59 -4l88 -250h4l162 249q-15 1 -63 7l12 97h271l-11 -99q-41 -6 -76 -9l-249 -347l-23 -138q24 -2 75 -10l-11 -97h-290l12 99q54 6 76 8l22 133l-146 354q-29 3 -68 9l11 97h275z" />
    <glyph glyph-name="ycircumflex" unicode="&#x177;" horiz-adv-x="665" 
d="M496 586l-105 84l-127 -84l-36 34l131 122h80l99 -122zM689 525l-10 -94q-17 -3 -45 -6.5t-31 -3.5l-292 -493q27 0 58 -3l-11 -93h-286l11 93q19 2 104 5l37 60l-126 435q-10 1 -30 3.5t-29 3.5l10 93h277l-11 -94q-39 -5 -82 -6l73 -303h3l178 303q-10 1 -30 3.5
t-30 3.5l10 93h252z" />
    <glyph glyph-name="Ydieresis" unicode="&#x178;" horiz-adv-x="712" 
d="M330 765q-31 0 -50 19t-15 49q4 26 24.5 41t48.5 15q31 0 49 -19.5t14 -49.5q-3 -25 -23.5 -40t-47.5 -15zM538 765q-30 0 -48.5 19t-14.5 49q4 25 24.5 40.5t47.5 15.5q31 0 49.5 -19.5t14.5 -49.5q-4 -25 -24.5 -40t-48.5 -15zM353 700l-12 -99q-21 -2 -59 -4l88 -250
h4l162 249q-15 1 -63 7l12 97h271l-11 -99q-41 -6 -76 -9l-249 -347l-23 -138q24 -2 75 -10l-11 -97h-290l12 99q54 6 76 8l22 133l-146 354q-29 3 -68 9l11 97h275z" />
    <glyph glyph-name="Zacute" unicode="&#x179;" horiz-adv-x="629" 
d="M525 869l-2 -19l-167 -109l-54 36l128 142zM639 605l-440 -498h260l32 118h97l-31 -225h-556l13 88q1 19 17 36l439 471h-272l-32 -108h-96l29 213h553z" />
    <glyph glyph-name="zacute" unicode="&#x17a;" horiz-adv-x="559" 
d="M432 707l-1 -19l-163 -106l-50 34l123 138zM545 431l-371 -332h232l32 86h74l-28 -185h-489l11 85q5 24 27 41l353 303h-227l-21 -79h-76l26 175h469z" />
    <glyph glyph-name="Zdotaccent" unicode="&#x17b;" horiz-adv-x="629" 
d="M392 762q-32 0 -51 20t-15 51q4 27 25 43t49 16q32 0 50.5 -20.5t14.5 -51.5q-4 -26 -24.5 -42t-48.5 -16zM639 605l-440 -498h260l32 118h97l-31 -225h-556l13 88q1 19 17 36l439 471h-272l-32 -108h-96l29 213h553z" />
    <glyph glyph-name="zdotaccent" unicode="&#x17c;" horiz-adv-x="559" 
d="M339 601q-31 0 -49.5 20t-14.5 50q4 27 24.5 43.5t48.5 16.5q33 0 51.5 -20.5t14.5 -52.5q-4 -26 -25 -41.5t-50 -15.5zM545 431l-371 -332h232l32 86h74l-28 -185h-489l11 85q5 24 27 41l353 303h-227l-21 -79h-76l26 175h469z" />
    <glyph glyph-name="Zcaron" unicode="&#x17d;" horiz-adv-x="629" 
d="M426 748h-80l-99 121l43 35l104 -84l128 84l35 -35zM639 605l-440 -498h260l32 118h97l-31 -225h-556l13 88q1 19 17 36l439 471h-272l-32 -108h-96l29 213h553z" />
    <glyph glyph-name="zcaron" unicode="&#x17e;" horiz-adv-x="559" 
d="M375 586h-80l-100 121l43 35l104 -84l128 84l35 -35zM545 431l-371 -332h232l32 86h74l-28 -185h-489l11 85q5 24 27 41l353 303h-227l-21 -79h-76l26 175h469z" />
    <glyph glyph-name="florin" unicode="&#x192;" horiz-adv-x="494" 
d="M475 445l-14 -103h-143l-63 -218q-21 -69 -51.5 -101.5t-90.5 -42.5q-29 -5 -68.5 -7t-50.5 -3l-11 73q12 3 55 14q37 10 51 25t25 46l65 214h-74l10 92q70 7 92 8l36 120q21 68 51.5 100t89.5 44q36 6 144 17l4 -91q-8 -2 -79 -23q-38 -11 -52 -25t-23 -44l-29 -95h126z
" />
    <glyph glyph-name="Scommaaccent" unicode="&#x218;" horiz-adv-x="647" 
d="M162 214v-96q49 -22 138 -22h15q68 0 96.5 18.5t36.5 67.5l3 24q6 38 -8.5 53.5t-67.5 29.5l-171 42q-80 24 -105.5 61.5t-13.5 118.5l1 12q15 101 78.5 144.5t194.5 43.5h29q122 0 243 -42l-23 -183h-108v99q-39 19 -119 19h-30q-58 0 -86.5 -19t-34.5 -62l-1 -10
q-5 -31 5 -46t42 -24l201 -48q73 -19 99 -57.5t15 -114.5l-6 -43q-14 -103 -77 -147t-195 -44h-39q-71 0 -121 11t-126 41l21 173h114zM220 -128l14 50q10 28 41 22q33 -8 45 -17.5t9 -33.5q-7 -45 -43 -86q-20 -23 -61 -55l-26 24q40 47 50 87z" />
    <glyph glyph-name="scommaaccent" unicode="&#x219;" horiz-adv-x="542" 
d="M59 374l3 23q10 74 64 107t159 33h18q125 0 213 -37l-15 -129h-107v63q-37 15 -99 15q-107 0 -116 -59v-6q-4 -26 13 -35t83 -22q38 -7 61 -12q92 -17 126 -48t26 -89l-4 -28q-12 -86 -65.5 -124t-156.5 -38h-39q-129 0 -209 75l16 106h100v-61q30 -27 97 -27h32
q91 0 100 70l2 11q5 30 -20 41t-128 32q-98 17 -130.5 48.5t-23.5 90.5zM167 -128l14 50q10 28 41 22q33 -8 45 -17.5t9 -33.5q-7 -45 -43 -86q-20 -23 -61 -55l-26 24q40 47 50 87z" />
    <glyph glyph-name="uni021A" unicode="&#x21a;" horiz-adv-x="691" 
d="M601 487l6 100h-146l-70 -480q41 -3 83 -10l-11 -97h-306l12 99q32 4 84 8l70 480h-147l-23 -100h-95l29 213h639l-29 -213h-96zM241 -128l14 50q10 28 41 22q33 -8 45 -17.5t9 -33.5q-7 -45 -43 -86q-20 -23 -61 -55l-26 24q40 47 50 87z" />
    <glyph glyph-name="uni021B" unicode="&#x21b;" horiz-adv-x="421" 
d="M255 100h9q61 0 96 2l-6 -75q-73 -39 -168 -39h-11q-125 0 -104 146l42 293h-65l13 98h47q30 0 33 29l18 111q54 8 118 11l-19 -151h151l-13 -98h-151l-34 -238q-8 -56 -0.5 -72.5t44.5 -16.5zM101 -128l14 50q10 28 41 22q33 -8 45 -17.5t9 -33.5q-7 -45 -43 -86
q-20 -23 -61 -55l-26 24q40 47 50 87z" />
    <glyph glyph-name="circumflex" unicode="&#x2c6;" horiz-adv-x="500" 
d="M413 586l-105 84l-127 -84l-36 34l131 122h80l99 -122z" />
    <glyph glyph-name="caron" unicode="&#x2c7;" horiz-adv-x="500" 
d="M337 586h-80l-100 121l43 35l104 -84l128 84l35 -35z" />
    <glyph glyph-name="breve" unicode="&#x2d8;" horiz-adv-x="500" 
d="M459 728l-4 -24q-8 -57 -48 -88.5t-107 -31.5q-70 0 -104.5 34.5t-26.5 92.5l2 17h74l-1 -9q-5 -31 10 -43.5t47 -12.5q35 0 57.5 16t26.5 47l1 2h73z" />
    <glyph glyph-name="dotaccent" unicode="&#x2d9;" horiz-adv-x="500" 
d="M301 601q-31 0 -49.5 20t-14.5 50q4 27 24.5 43.5t48.5 16.5q33 0 51.5 -20.5t14.5 -52.5q-4 -26 -25 -41.5t-50 -15.5z" />
    <glyph glyph-name="ring" unicode="&#x2da;" horiz-adv-x="500" 
d="M312 579h-31q-36 0 -54 21t-13 58l3 22q10 72 84 72h31q36 0 54 -21.5t13 -57.5l-4 -22q-9 -72 -83 -72zM286 624h27q29 0 35 31l3 24q4 30 -28 30h-19q-35 0 -39 -32l-4 -24q-4 -29 25 -29z" />
    <glyph glyph-name="ogonek" unicode="&#x2db;" horiz-adv-x="500" 
d="M219 8l51 -3l-24.5 -17.5t-24 -17.5t-16.5 -13.5t-14 -15t-5 -13.5v-5q-2 -14 4.5 -19t24.5 -5q39 0 73 13l19 -41q-59 -39 -112 -39h-17q-39 0 -58.5 19.5t-15.5 53.5l1 6q9 65 114 97z" />
    <glyph glyph-name="tilde" unicode="&#x2dc;" horiz-adv-x="500" 
d="M493 702l-80 -80q-25 -21 -53 -21q-15 0 -30 10t-36.5 31.5t-33.5 30.5l-100 -68l-35 34l80 79q24 24 54 24q17 0 33.5 -11t37.5 -32t29 -28l99 65z" />
    <glyph glyph-name="hungarumlaut" unicode="&#x2dd;" horiz-adv-x="500" 
d="M328 719l-2 -17l-143 -114l-42 33l117 133zM474 719l-2 -17l-141 -114l-44 33l118 133z" />
    <glyph glyph-name="commaaccentcomb" unicode="&#x326;" horiz-adv-x="0" 
d="M138 -128l14 50q10 28 41 22q33 -8 45 -17.5t9 -33.5q-7 -45 -43 -86q-20 -23 -61 -55l-26 24q40 47 50 87z" />
    <glyph glyph-name="Wgrave" unicode="&#x1e80;" horiz-adv-x="1012" 
d="M663 777l-57 -34l-134 107l1 18l103 48zM1062 700l-12 -99q-17 -2 -64 -7l-242 -594h-168l-34 448h-3l-163 -448h-185l-69 595q-9 1 -61 8l12 97h288l-12 -99q-14 -2 -44 -3.5t-36 -2.5l36 -435h11l203 540h110l54 -537h10l169 432q-46 4 -78 8l12 97h266z" />
    <glyph glyph-name="wgrave" unicode="&#x1e81;" horiz-adv-x="886" 
d="M525 616l-57 -34l-134 106l1 19l103 47zM908 525l-10 -94q-47 -6 -63 -7l-179 -424h-157l-49 316l-144 -316h-150l-57 425q-2 0 -23.5 3t-34.5 4l10 93h238l-11 -94q-9 0 -19 -1t-22 -2.5t-19 -2.5l31 -302h2l175 402h102l69 -402h1l124 302q-10 1 -31 3.5t-31 3.5l10 93
h238z" />
    <glyph glyph-name="Wacute" unicode="&#x1e82;" horiz-adv-x="1012" 
d="M726 869l-2 -19l-167 -109l-54 36l128 142zM1062 700l-12 -99q-17 -2 -64 -7l-242 -594h-168l-34 448h-3l-163 -448h-185l-69 595q-9 1 -61 8l12 97h288l-12 -99q-14 -2 -44 -3.5t-36 -2.5l36 -435h11l203 540h110l54 -537h10l169 432q-46 4 -78 8l12 97h266z" />
    <glyph glyph-name="wacute" unicode="&#x1e83;" horiz-adv-x="886" 
d="M585 707l-1 -19l-163 -106l-50 34l123 138zM908 525l-10 -94q-47 -6 -63 -7l-179 -424h-157l-49 316l-144 -316h-150l-57 425q-2 0 -23.5 3t-34.5 4l10 93h238l-11 -94q-9 0 -19 -1t-22 -2.5t-19 -2.5l31 -302h2l175 402h102l69 -402h1l124 302q-10 1 -31 3.5t-31 3.5
l10 93h238z" />
    <glyph glyph-name="Wdieresis" unicode="&#x1e84;" horiz-adv-x="1012" 
d="M488 765q-31 0 -50 19t-15 49q4 26 24.5 41t48.5 15q31 0 49 -19.5t14 -49.5q-3 -25 -23.5 -40t-47.5 -15zM696 765q-30 0 -48.5 19t-14.5 49q4 25 24.5 40.5t47.5 15.5q31 0 49.5 -19.5t14.5 -49.5q-4 -25 -24.5 -40t-48.5 -15zM1062 700l-12 -99q-17 -2 -64 -7
l-242 -594h-168l-34 448h-3l-163 -448h-185l-69 595q-9 1 -61 8l12 97h288l-12 -99q-14 -2 -44 -3.5t-36 -2.5l36 -435h11l203 540h110l54 -537h10l169 432q-46 4 -78 8l12 97h266z" />
    <glyph glyph-name="wdieresis" unicode="&#x1e85;" horiz-adv-x="886" 
d="M399 608q-28 0 -46 18t-14 45q4 23 22.5 37.5t43.5 14.5q29 0 46 -18.5t13 -46.5q-3 -23 -21.5 -36.5t-43.5 -13.5zM595 608q-28 0 -45 18t-13 45q3 23 21 37.5t43 14.5q29 0 46.5 -18.5t13.5 -46.5q-3 -23 -21.5 -36.5t-44.5 -13.5zM908 525l-10 -94q-47 -6 -63 -7
l-179 -424h-157l-49 316l-144 -316h-150l-57 425q-2 0 -23.5 3t-34.5 4l10 93h238l-11 -94q-9 0 -19 -1t-22 -2.5t-19 -2.5l31 -302h2l175 402h102l69 -402h1l124 302q-10 1 -31 3.5t-31 3.5l10 93h238z" />
    <glyph glyph-name="Ygrave" unicode="&#x1ef2;" horiz-adv-x="712" 
d="M505 777l-57 -34l-134 107l1 18l103 48zM353 700l-12 -99q-21 -2 -59 -4l88 -250h4l162 249q-15 1 -63 7l12 97h271l-11 -99q-41 -6 -76 -9l-249 -347l-23 -138q24 -2 75 -10l-11 -97h-290l12 99q54 6 76 8l22 133l-146 354q-29 3 -68 9l11 97h275z" />
    <glyph glyph-name="ygrave" unicode="&#x1ef3;" horiz-adv-x="665" 
d="M428 616l-57 -34l-134 106l1 19l103 47zM689 525l-10 -94q-17 -3 -45 -6.5t-31 -3.5l-292 -493q27 0 58 -3l-11 -93h-286l11 93q19 2 104 5l37 60l-126 435q-10 1 -30 3.5t-29 3.5l10 93h277l-11 -94q-39 -5 -82 -6l73 -303h3l178 303q-10 1 -30 3.5t-30 3.5l10 93h252z
" />
    <glyph glyph-name="uni2009" unicode="&#x2009;" horiz-adv-x="84" 
 />
    <glyph glyph-name="uni200A" unicode="&#x200a;" horiz-adv-x="348" 
 />
    <glyph glyph-name="endash" unicode="&#x2013;" horiz-adv-x="476" 
d="M452 358l-15 -103h-400l15 103h400z" />
    <glyph glyph-name="emdash" unicode="&#x2014;" horiz-adv-x="718" 
d="M693 358l-15 -103h-641l15 103h641z" />
    <glyph glyph-name="quoteleft" unicode="&#x2018;" horiz-adv-x="207" 
d="M209 562l-26 -78q-13 -39 -55 -30q-41 8 -57 21.5t-12 43.5q11 82 136 190l32 -30q-40 -59 -54 -105z" />
    <glyph glyph-name="quoteright" unicode="&#x2019;" horiz-adv-x="207" 
d="M79 598l26 77q12 36 55 30q41 -5 57 -19t12 -45q-10 -79 -136 -191l-32 30q43 64 54 106z" />
    <glyph glyph-name="quotesinglbase" unicode="&#x201a;" horiz-adv-x="220" 
d="M-2 15l26 79q13 38 57 32q43 -7 59.5 -21.5t12.5 -45.5q-11 -82 -141 -196l-33 30q44 64 57 109z" />
    <glyph glyph-name="quotedblleft" unicode="&#x201c;" horiz-adv-x="377" 
d="M211 558l-27 -78q-13 -41 -56 -33q-43 9 -59.5 23t-12.5 45q13 85 141 195l34 -30q-47 -69 -57 -109zM380 558l-27 -78q-13 -41 -56 -33q-43 9 -59.5 23t-12.5 45q11 84 141 195l33 -30q-44 -65 -57 -109z" />
    <glyph glyph-name="quotedblright" unicode="&#x201d;" horiz-adv-x="377" 
d="M75 594l27 79q13 42 56 32q43 -8 59.5 -22t12.5 -45q-11 -82 -141 -196l-32 31q43 65 56 109zM244 594l27 79q13 41 56 32q43 -8 59.5 -22t12.5 -45q-13 -84 -141 -196l-33 31q46 69 56 109z" />
    <glyph glyph-name="quotedblbase" unicode="&#x201e;" horiz-adv-x="384" 
d="M-2 15l26 79q13 38 57 32q43 -7 59.5 -21.5t12.5 -45.5q-11 -82 -141 -196l-33 30q44 64 57 109zM168 15l26 79q13 38 57 32q43 -7 59.5 -21.5t12.5 -45.5q-11 -82 -141 -196l-33 30q44 64 57 109z" />
    <glyph glyph-name="dagger" unicode="&#x2020;" horiz-adv-x="408" 
d="M414 472h-53l-106 31l16 -98l-5 -40l-78 -288h-18v288l5 40l46 99l-116 -32h-52l14 96h52l107 -30l-15 109l6 53h96l-6 -53l-47 -109l115 30h53z" />
    <glyph glyph-name="daggerdbl" unicode="&#x2021;" horiz-adv-x="408" 
d="M255 503l16 -98l-5 -49l-44 -97l114 30h52l-13 -96h-53l-107 31l15 -110l-7 -52h-96l7 52l46 111l-114 -32h-51l13 96h52l108 -30l-18 97l5 49l46 99l-116 -32h-52l14 96h52l107 -30l-15 109l6 53h96l-6 -53l-47 -109l115 30h53l-14 -96h-53z" />
    <glyph glyph-name="bullet" unicode="&#x2022;" horiz-adv-x="321" 
d="M188 160q-200 0 -175 185q13 91 66 134t150 43q198 0 173 -190q-13 -88 -65.5 -130t-148.5 -42z" />
    <glyph glyph-name="ellipsis" unicode="&#x2026;" horiz-adv-x="622" 
d="M89 138q81 0 70 -79q-9 -64 -81 -64q-82 0 -71 77q9 66 82 66zM289 138q81 0 70 -79q-9 -64 -81 -64q-82 0 -71 77q9 66 82 66zM490 138q82 0 71 -79q-10 -64 -82 -64q-82 0 -70 77q4 34 23.5 50t57.5 16z" />
    <glyph glyph-name="perthousand" unicode="&#x2030;" horiz-adv-x="1343" 
d="M808 715l-307 -365l-294 -361h-55l306 361l294 365h56zM252 712h66q84 -1 111.5 -41.5t14.5 -131.5l-11 -79q-13 -90 -49.5 -127t-119.5 -37h-66q-85 0 -114 40t-17 131l11 79q13 91 50.5 128.5t123.5 37.5zM301 628h-50q-39 0 -57 -21.5t-24 -67.5l-11 -78
q-6 -46 3.5 -63.5t48.5 -17.5h50q38 0 55.5 21t24.5 67l11 78q6 47 -3.5 64.5t-47.5 17.5zM704 404h66q83 -1 111 -41.5t16 -131.5l-11 -79q-14 -91 -50.5 -127.5t-119.5 -36.5h-66q-84 0 -113.5 40t-17.5 131l11 78q13 92 50.5 129.5t123.5 37.5zM1120 -12h-66
q-85 0 -114.5 40t-17.5 131l11 78q13 92 50.5 129.5t123.5 37.5h66q84 -1 112 -41.5t15 -131.5l-11 -79q-14 -91 -50 -127.5t-119 -36.5zM753 320h-50q-39 0 -56.5 -21t-24.5 -69l-10 -77q-7 -46 2.5 -63.5t48.5 -17.5h50q38 0 56 21t25 67l10 77q7 47 -2.5 65t-48.5 18z
M1066 72h51q38 0 55.5 20.5t24.5 67.5l11 77q6 47 -3.5 65t-47.5 18h-51q-38 0 -56.5 -21.5t-24.5 -68.5l-11 -77q-6 -46 4 -63.5t48 -17.5z" />
    <glyph glyph-name="guilsinglleft" unicode="&#x2039;" horiz-adv-x="307" 
d="M156 261l92 -158l-5 -41h-80l-131 199v8l187 199h81l-5 -42l-136 -157z" />
    <glyph glyph-name="guilsinglright" unicode="&#x203a;" horiz-adv-x="307" 
d="M55 426l5 42h79l131 -199v-8l-186 -199h-81l5 41l135 158l3 8z" />
    <glyph glyph-name="fraction" unicode="&#x2044;" horiz-adv-x="225" 
d="M456 715l-308 -365l-293 -361h-56l307 361l294 365h56z" />
    <glyph glyph-name="zeroinferior" unicode="&#x2080;" horiz-adv-x="428" 
d="M189 -132h-58q-80 0 -110 36t-19 117l16 118q12 82 49 115.5t118 33.5h58q78 -1 107 -37.5t18 -118.5l-16 -118q-13 -81 -49 -113.5t-114 -32.5zM150 -60h26q37 0 57 20t26 62l17 118q5 41 -7.5 58t-48.5 17h-26q-37 0 -57 -20t-26 -62l-17 -118q-6 -40 7 -57.5t49 -17.5
z" />
    <glyph glyph-name="oneinferior" unicode="&#x2081;" horiz-adv-x="333" 
d="M232 289l-51 -346q49 -4 76 -7l-7 -64h-265l8 66q83 6 92 6l39 265l-99 -17l9 59l142 38h56z" />
    <glyph glyph-name="twoinferior" unicode="&#x2082;" horiz-adv-x="403" 
d="M306 -128h-324l10 68q18 123 112 153q45 13 74 21q43 12 61.5 23.5t21.5 30.5l1 10q4 24 -5.5 31t-42.5 7q-61 0 -93 -11l-15 -42h-70l11 102q91 24 171 24t110 -25t22 -89l-5 -29q-7 -59 -100 -90q-10 -4 -44.5 -13.5t-39.5 -11.5q-46 -15 -60.5 -30.5t-21.5 -59.5h167
l16 60h62z" />
    <glyph glyph-name="threeinferior" unicode="&#x2083;" horiz-adv-x="382" 
d="M333 174l-2 -13q-5 -38 -21 -57t-50 -29q58 -9 47 -89l-2 -11q-9 -61 -45 -84t-120 -23q-75 0 -164 20l11 103h65l-2 -45q41 -7 92 -7q39 0 56 12t21 41l1 11q4 27 -7.5 35.5t-43.5 8.5h-91l9 62h88q60 0 68 51l1 11q4 29 -6.5 37.5t-47.5 8.5q-49 0 -96 -10l-15 -43h-63
l12 104q93 21 161 21q89 0 121 -25.5t23 -89.5z" />
    <glyph glyph-name="fourinferior" unicode="&#x2084;" horiz-adv-x="435" 
d="M291 -11l-8 -49q17 -1 67 -7l-6 -61h-244l7 63l80 6l8 47h-219l9 67l249 229h98l-32 -229h71l-9 -60zM66 55h136l24 160z" />
    <glyph glyph-name="fiveinferior" unicode="&#x2085;" horiz-adv-x="412" 
d="M363 280l-16 -115h-61v44h-157l-22 -106q49 19 101 19h31q59 0 83.5 -25.5t15.5 -87.5l-3 -26q-8 -59 -46.5 -86.5t-111.5 -28.5h-17q-62 0 -170 21l12 108h61v-50q42 -8 82 -8h22q69 1 78 58l3 19q4 29 -4 39.5t-35 10.5h-29q-48 0 -91 -30l-70 22l39 222h305z" />
    <glyph glyph-name="sixinferior" unicode="&#x2086;" horiz-adv-x="431" 
d="M215 119h37q122 0 105 -118l-2 -12q-9 -64 -48 -92.5t-116 -28.5h-38q-83 0 -121.5 40t-28.5 118l16 106q11 78 56.5 118.5t120.5 40.5h18q63 0 158 -21l-13 -105h-74l-3 44q-34 7 -76 7q-79 0 -93 -85l-5 -29q54 17 107 17zM101 42l-7 -41q-4 -33 13 -47t56 -13h30
q65 0 74 59l2 11q4 28 -5.5 39t-37.5 11h-22q-49 0 -103 -19z" />
    <glyph glyph-name="seveninferior" unicode="&#x2087;" horiz-adv-x="360" 
d="M344 209l-210 -337h-112l2 16l225 321h-169l-18 -53h-62l17 124h336z" />
    <glyph glyph-name="eightinferior" unicode="&#x2088;" horiz-adv-x="435" 
d="M371 179l-3 -15q-5 -36 -21.5 -55t-51.5 -28q77 -15 66 -94l-2 -10q-8 -60 -44.5 -84.5t-117.5 -24.5h-58q-82 0 -115.5 27.5t-25.5 88.5l1 10q6 39 27.5 60t67.5 30q-63 15 -52 87l2 15q8 55 43.5 78.5t110.5 23.5h48q73 0 103 -26.5t22 -82.5zM126 171l-2 -17
q-3 -24 8.5 -32.5t44.5 -8.5h38q62 0 69 48l2 17q6 45 -54 45h-33q-65 0 -73 -52zM268 -10l2 16q4 27 -8 37.5t-45 10.5h-49q-67 0 -74 -55l-2 -16q-4 -23 11 -35t48 -11h39q71 0 78 53z" />
    <glyph glyph-name="nineinferior" unicode="&#x2089;" horiz-adv-x="419" 
d="M155 28h-35q-63 0 -87.5 27.5t-16.5 88.5l5 32q16 115 155 115h49q82 0 117 -37.5t25 -115.5l-16 -114q-22 -156 -177 -156h-15q-58 0 -155 21l11 96h76l-3 -43q26 -7 76 -7q83 0 96 85l6 39q-49 -32 -111 -31zM273 118l6 46q4 29 -13.5 42.5t-55.5 12.5h-31
q-65 0 -73 -59l-2 -11q-4 -32 5 -43.5t37 -11.5h29q58 0 98 24z" />
    <glyph glyph-name="Euro" unicode="&#x20ac;" horiz-adv-x="621" 
d="M509 505l7 78q-35 18 -134 18q-61 0 -105 -40t-53 -105l-3 -25h247l-21 -56h-234l-7 -52h216l-21 -57h-204l-6 -48q-8 -61 18 -89t87 -28h29q95 0 143 82l96 -3l-11 -92q-104 -100 -232 -100h-50q-250 0 -216 232l5 46h-54l8 57h54l7 52h-54l8 56h54l4 26
q18 125 92.5 189.5t197.5 64.5h23q127 0 228 -37l-21 -169h-98z" />
    <glyph glyph-name="uni2116" unicode="&#x2116;" horiz-adv-x="1333" 
d="M1055 704h50q103 0 144.5 -51.5t25.5 -162.5l-11 -84q-16 -108 -69 -155.5t-156 -47.5h-50q-105 0 -148.5 51t-27.5 159l12 84q16 110 70 158.5t160 48.5zM822 700l-12 -99q-43 -6 -80 -9l-85 -592h-143l-238 474l-54 -369q12 -1 62 -8l-11 -97h-264l12 99q56 6 79 8
l73 486q-40 4 -80 10l12 97h209l250 -487l57 382q-14 1 -65 8l11 97h267zM1092 608h-48q-88 0 -103 -101l-16 -114q-7 -49 9.5 -68.5t63.5 -19.5h48q47 0 71.5 22.5t31.5 72.5l16 113q7 51 -9.5 73t-63.5 22zM1200 0h-441l14 104h441z" />
    <glyph glyph-name="trademark" unicode="&#x2122;" horiz-adv-x="697" 
d="M331 606h-40v43h-54l-26 -167q13 0 41 -4l-5 -49h-143l4 51q28 2 40 2l26 167h-54l-11 -43h-41l13 94h263zM739 700l-5 -47q-33 -3 -34 -3l-29 -168q11 0 33 -4l-4 -49h-124l7 50l29 3l22 157l-105 -210h-40l-47 210l-23 -157l28 -3l-7 -50h-118l4 51q26 2 37 2l28 168
q-11 0 -37 4l5 46h115l46 -178h2l95 178h122z" />
    <glyph glyph-name="oneeighth" unicode="&#x215b;" horiz-adv-x="868" 
d="M757 715l-308 -365l-293 -361h-56l307 361l294 365h56zM306 709l-51 -346q49 -4 76 -7l-7 -64h-265l8 66q83 6 92 6l39 265l-99 -17l9 59l142 38h56zM837 307l-3 -15q-5 -36 -21.5 -55t-51.5 -28q77 -15 66 -94l-2 -10q-8 -60 -44.5 -84.5t-117.5 -24.5h-58
q-82 0 -115.5 27.5t-25.5 88.5l1 10q6 39 27.5 60t67.5 30q-63 15 -52 87l2 15q8 55 43.5 78.5t110.5 23.5h48q73 0 103 -26.5t22 -82.5zM592 299l-2 -17q-3 -24 8.5 -32.5t44.5 -8.5h38q62 0 69 48l2 17q6 45 -54 45h-33q-65 0 -73 -52zM734 118l2 16q4 27 -8 37.5
t-45 10.5h-49q-67 0 -74 -55l-2 -16q-4 -23 11 -35t48 -11h39q71 0 78 53z" />
    <glyph glyph-name="threeeighths" unicode="&#x215c;" horiz-adv-x="898" 
d="M792 715l-308 -365l-293 -361h-56l307 361l294 365h56zM414 594l-2 -13q-5 -38 -21 -57t-50 -29q58 -9 47 -89l-2 -11q-9 -61 -45 -84t-120 -23q-75 0 -164 20l11 103h65l-2 -45q41 -7 92 -7q39 0 56 12t21 41l1 11q4 27 -7.5 35.5t-43.5 8.5h-91l9 62h88q60 0 68 51
l1 11q4 29 -6.5 37.5t-47.5 8.5q-49 0 -96 -10l-15 -43h-63l12 104q93 21 161 21q89 0 121 -25.5t23 -89.5zM876 307l-3 -15q-5 -36 -21.5 -55t-51.5 -28q77 -15 66 -94l-2 -10q-8 -60 -44.5 -84.5t-117.5 -24.5h-58q-82 0 -115.5 27.5t-25.5 88.5l1 10q6 39 27.5 60
t67.5 30q-63 15 -52 87l2 15q8 55 43.5 78.5t110.5 23.5h48q73 0 103 -26.5t22 -82.5zM631 299l-2 -17q-3 -24 8.5 -32.5t44.5 -8.5h38q62 0 69 48l2 17q6 45 -54 45h-33q-65 0 -73 -52zM773 118l2 16q4 27 -8 37.5t-45 10.5h-49q-67 0 -74 -55l-2 -16q-4 -23 11 -35t48 -11
h39q71 0 78 53z" />
    <glyph glyph-name="fiveeighths" unicode="&#x215d;" horiz-adv-x="909" 
d="M797 715l-308 -365l-293 -361h-56l307 361l294 365h56zM436 700l-16 -115h-61v44h-157l-22 -106q49 19 101 19h31q59 0 83.5 -25.5t15.5 -87.5l-3 -26q-8 -59 -46.5 -86.5t-111.5 -28.5h-17q-62 0 -170 21l12 108h61v-50q42 -8 82 -8h22q69 1 78 58l3 19q4 29 -4 39.5
t-35 10.5h-29q-48 0 -91 -30l-70 22l39 222h305zM879 307l-3 -15q-5 -36 -21.5 -55t-51.5 -28q77 -15 66 -94l-2 -10q-8 -60 -44.5 -84.5t-117.5 -24.5h-58q-82 0 -115.5 27.5t-25.5 88.5l1 10q6 39 27.5 60t67.5 30q-63 15 -52 87l2 15q8 55 43.5 78.5t110.5 23.5h48
q73 0 103 -26.5t22 -82.5zM634 299l-2 -17q-3 -24 8.5 -32.5t44.5 -8.5h38q62 0 69 48l2 17q6 45 -54 45h-33q-65 0 -73 -52zM776 118l2 16q4 27 -8 37.5t-45 10.5h-49q-67 0 -74 -55l-2 -16q-4 -23 11 -35t48 -11h39q71 0 78 53z" />
    <glyph glyph-name="seveneighths" unicode="&#x215e;" horiz-adv-x="814" 
d="M704 715l-308 -365l-293 -361h-56l307 361l294 365h56zM423 629l-210 -337h-112l2 16l225 321h-169l-18 -53h-62l17 124h336zM791 307l-3 -15q-5 -36 -21.5 -55t-51.5 -28q77 -15 66 -94l-2 -10q-8 -60 -44.5 -84.5t-117.5 -24.5h-58q-82 0 -115.5 27.5t-25.5 88.5l1 10
q6 39 27.5 60t67.5 30q-63 15 -52 87l2 15q8 55 43.5 78.5t110.5 23.5h48q73 0 103 -26.5t22 -82.5zM546 299l-2 -17q-3 -24 8.5 -32.5t44.5 -8.5h38q62 0 69 48l2 17q6 45 -54 45h-33q-65 0 -73 -52zM688 118l2 16q4 27 -8 37.5t-45 10.5h-49q-67 0 -74 -55l-2 -16
q-4 -23 11 -35t48 -11h39q71 0 78 53z" />
    <glyph glyph-name="arrowleft" unicode="&#x2190;" horiz-adv-x="763" 
d="M743 293h-519l227 -219l-79 -79l-338 339v39l338 339l79 -80l-224 -216h516v-123z" />
    <glyph glyph-name="arrowup" unicode="&#x2191;" horiz-adv-x="783" 
d="M689 292l-219 228v-520h-123v517l-216 -225l-79 80l339 338h39l338 -338z" />
    <glyph glyph-name="arrowright" unicode="&#x2192;" horiz-adv-x="763" 
d="M536 416l-225 216l79 80l339 -339v-39l-339 -339l-79 79l227 219h-518v123h516z" />
    <glyph glyph-name="arrowdown" unicode="&#x2193;" horiz-adv-x="783" 
d="M411 -10h-39l-338 338l79 80l216 -225v517h122v-520l219 228l80 -80z" />
    <glyph glyph-name="arrowupleft" unicode="&#x2196;" horiz-adv-x="650" 
d="M616 92l-87 -86l-384 383l7 -315h-112v478l27 28h479v-112l-312 5z" />
    <glyph glyph-name="arrowupright" unicode="&#x2197;" horiz-adv-x="650" 
d="M104 456v113h479l27 -28v-479h-112l7 316l-384 -384l-87 87l382 381z" />
    <glyph glyph-name="arrowdownright" unicode="&#x2198;" horiz-adv-x="650" 
d="M34 487l87 87l384 -383l-7 315h112v-479l-27 -27h-479v112l312 -5z" />
    <glyph glyph-name="arrowdownleft" unicode="&#x2199;" horiz-adv-x="650" 
d="M546 112v-112h-479l-27 27v479h112l-7 -315l384 383l87 -87l-382 -380z" />
    <glyph glyph-name="minus" unicode="&#x2212;" horiz-adv-x="588" 
d="M64 403h500l-16 -108h-500z" />
    <glyph glyph-name="J.ss01" horiz-adv-x="573" 
d="M611 700l-12 -99q-52 -6 -78 -8l-50 -340q-20 -147 -78.5 -205t-171.5 -58h-25q-136 0 -206 87l13 103l118 -4q5 -44 24 -59.5t65 -15.5h12q51 0 74.5 32t33.5 101l53 359q-72 5 -103 10l12 97h319z" />
    <glyph glyph-name="K.ss02" horiz-adv-x="762" 
d="M476 403l153 -297q69 -6 90 -9l-11 -97h-280l10 97l49 3l-114 226l-131 -111l-19 -108q44 -5 76 -10l-11 -97h-291l12 99q54 6 76 8l74 486q-26 2 -78 10l12 97h293l-12 -99q-52 -6 -78 -8l-39 -257l307 261q-52 3 -73 6l11 97h293l-11 -99q-23 -3 -67 -5z" />
    <glyph glyph-name="Kcommaaccent.ss02" horiz-adv-x="762" 
d="M476 403l153 -297q69 -6 90 -9l-11 -97h-280l10 97l49 3l-114 226l-131 -111l-19 -108q44 -5 76 -10l-11 -97h-291l12 99q54 6 76 8l74 486q-26 2 -78 10l12 97h293l-12 -99q-52 -6 -78 -8l-39 -257l307 261q-52 3 -73 6l11 97h293l-11 -99q-23 -3 -67 -5zM280 -128
l14 50q10 28 41 22q33 -8 45 -17.5t9 -33.5q-7 -45 -43 -86q-20 -23 -61 -55l-26 24q40 47 50 87z" />
    <glyph glyph-name="Q.ss03" horiz-adv-x="706" 
d="M346 711h127q111 0 170 -76t42 -195l-28 -193q-25 -177 -138 -231q10 -22 74 -109l-63 -52q-102 80 -141 137q-16 -4 -35 -4h-89q-114 0 -175 74.5t-44 191.5l28 193q18 121 89 192.5t183 71.5zM447 594h-88q-57 0 -97.5 -40.5t-49.5 -100.5l-30 -215q-9 -59 17.5 -96
t84.5 -37h88q59 0 99 39.5t48 100.5l31 215q9 59 -18 96.5t-85 37.5z" />
    <glyph glyph-name="R.ss04" horiz-adv-x="710" 
d="M93 700h384q119 0 167.5 -49.5t34.5 -155.5l-7 -48q-25 -164 -180 -176q23 -70 77 -168q34 2 96 -6l-11 -97l-181 3q-71 132 -101 269h-59l13 96h99q54 0 78.5 21t32.5 65l5 39q13 94 -93 94h-152l-71 -483q24 -1 65 -7l-11 -97h-282l12 99q50 6 79 8l73 486
q-9 1 -35.5 4t-44.5 6z" />
    <glyph glyph-name="Racute.ss04" horiz-adv-x="710" 
d="M570 869l-2 -19l-167 -109l-54 36l128 142zM93 700h384q119 0 167.5 -49.5t34.5 -155.5l-7 -48q-25 -164 -180 -176q23 -70 77 -168q34 2 96 -6l-11 -97l-181 3q-71 132 -101 269h-59l13 96h99q54 0 78.5 21t32.5 65l5 39q13 94 -93 94h-152l-71 -483q24 -1 65 -7
l-11 -97h-282l12 99q50 6 79 8l73 486q-9 1 -35.5 4t-44.5 6z" />
    <glyph glyph-name="Rcaron.ss04" horiz-adv-x="710" 
d="M470 748h-80l-99 121l43 35l104 -84l128 84l35 -35zM93 700h384q119 0 167.5 -49.5t34.5 -155.5l-7 -48q-25 -164 -180 -176q23 -70 77 -168q34 2 96 -6l-11 -97l-181 3q-71 132 -101 269h-59l13 96h99q54 0 78.5 21t32.5 65l5 39q13 94 -93 94h-152l-71 -483
q24 -1 65 -7l-11 -97h-282l12 99q50 6 79 8l73 486q-9 1 -35.5 4t-44.5 6z" />
    <glyph glyph-name="Rcommaaccent.ss04" horiz-adv-x="710" 
d="M93 700h384q119 0 167.5 -49.5t34.5 -155.5l-7 -48q-25 -164 -180 -176q23 -70 77 -168q34 2 96 -6l-11 -97l-181 3q-71 132 -101 269h-59l13 96h99q54 0 78.5 21t32.5 65l5 39q13 94 -93 94h-152l-71 -483q24 -1 65 -7l-11 -97h-282l12 99q50 6 79 8l73 486
q-9 1 -35.5 4t-44.5 6zM257 -128l14 50q10 28 41 22q33 -8 45 -17.5t9 -33.5q-7 -45 -43 -86q-20 -23 -61 -55l-26 24q40 47 50 87z" />
    <glyph glyph-name="a.ss05" horiz-adv-x="615" 
d="M78 370l18 141q110 26 231 26h41q86 0 123.5 -50t25.5 -139l-30 -203q-4 -27 5 -39.5t36 -12.5h40l-13 -85q-50 -17 -94 -17q-17 0 -33 3t-33.5 11.5t-28 27.5t-9.5 46q-58 -47 -103 -67t-101 -20h-17q-78 0 -108.5 30t-18.5 119l3 16q6 42 19.5 69.5t38 42.5t47.5 21.5
t61 11.5q42 5 103.5 11t97.5 10l6 25q8 54 -10 73.5t-68 19.5q-65 0 -113 -14l-18 -57h-98zM203 88h15q61 0 138 68l18 95q-55 -6 -137 -18q-43 -6 -63 -21.5t-25 -48.5l-1 -15q-6 -35 5.5 -47.5t49.5 -12.5z" />
    <glyph glyph-name="aacute.ss05" horiz-adv-x="615" 
d="M469 707l-1 -19l-163 -106l-50 34l123 138zM78 370l18 141q110 26 231 26h41q86 0 123.5 -50t25.5 -139l-30 -203q-4 -27 5 -39.5t36 -12.5h40l-13 -85q-50 -17 -94 -17q-17 0 -33 3t-33.5 11.5t-28 27.5t-9.5 46q-58 -47 -103 -67t-101 -20h-17q-78 0 -108.5 30
t-18.5 119l3 16q6 42 19.5 69.5t38 42.5t47.5 21.5t61 11.5q42 5 103.5 11t97.5 10l6 25q8 54 -10 73.5t-68 19.5q-65 0 -113 -14l-18 -57h-98zM203 88h15q61 0 138 68l18 95q-55 -6 -137 -18q-43 -6 -63 -21.5t-25 -48.5l-1 -15q-6 -35 5.5 -47.5t49.5 -12.5z" />
    <glyph glyph-name="abreve.ss05" horiz-adv-x="615" 
d="M491 728l-4 -24q-8 -57 -48 -88.5t-107 -31.5q-70 0 -104.5 34.5t-26.5 92.5l2 17h74l-1 -9q-5 -31 10 -43.5t47 -12.5q35 0 57.5 16t26.5 47l1 2h73zM78 370l18 141q110 26 231 26h41q86 0 123.5 -50t25.5 -139l-30 -203q-4 -27 5 -39.5t36 -12.5h40l-13 -85
q-50 -17 -94 -17q-17 0 -33 3t-33.5 11.5t-28 27.5t-9.5 46q-58 -47 -103 -67t-101 -20h-17q-78 0 -108.5 30t-18.5 119l3 16q6 42 19.5 69.5t38 42.5t47.5 21.5t61 11.5q42 5 103.5 11t97.5 10l6 25q8 54 -10 73.5t-68 19.5q-65 0 -113 -14l-18 -57h-98zM203 88h15
q61 0 138 68l18 95q-55 -6 -137 -18q-43 -6 -63 -21.5t-25 -48.5l-1 -15q-6 -35 5.5 -47.5t49.5 -12.5z" />
    <glyph glyph-name="acircumflex.ss05" horiz-adv-x="615" 
d="M445 586l-105 84l-127 -84l-36 34l131 122h80l99 -122zM78 370l18 141q110 26 231 26h41q86 0 123.5 -50t25.5 -139l-30 -203q-4 -27 5 -39.5t36 -12.5h40l-13 -85q-50 -17 -94 -17q-17 0 -33 3t-33.5 11.5t-28 27.5t-9.5 46q-58 -47 -103 -67t-101 -20h-17
q-78 0 -108.5 30t-18.5 119l3 16q6 42 19.5 69.5t38 42.5t47.5 21.5t61 11.5q42 5 103.5 11t97.5 10l6 25q8 54 -10 73.5t-68 19.5q-65 0 -113 -14l-18 -57h-98zM203 88h15q61 0 138 68l18 95q-55 -6 -137 -18q-43 -6 -63 -21.5t-25 -48.5l-1 -15q-6 -35 5.5 -47.5
t49.5 -12.5z" />
    <glyph glyph-name="adieresis.ss05" horiz-adv-x="615" 
d="M237 608q-28 0 -46 18t-14 45q4 23 22.5 37.5t43.5 14.5q29 0 46 -18.5t13 -46.5q-3 -23 -21.5 -36.5t-43.5 -13.5zM433 608q-28 0 -45 18t-13 45q3 23 21 37.5t43 14.5q29 0 46.5 -18.5t13.5 -46.5q-3 -23 -21.5 -36.5t-44.5 -13.5zM78 370l18 141q110 26 231 26h41
q86 0 123.5 -50t25.5 -139l-30 -203q-4 -27 5 -39.5t36 -12.5h40l-13 -85q-50 -17 -94 -17q-17 0 -33 3t-33.5 11.5t-28 27.5t-9.5 46q-58 -47 -103 -67t-101 -20h-17q-78 0 -108.5 30t-18.5 119l3 16q6 42 19.5 69.5t38 42.5t47.5 21.5t61 11.5q42 5 103.5 11t97.5 10l6 25
q8 54 -10 73.5t-68 19.5q-65 0 -113 -14l-18 -57h-98zM203 88h15q61 0 138 68l18 95q-55 -6 -137 -18q-43 -6 -63 -21.5t-25 -48.5l-1 -15q-6 -35 5.5 -47.5t49.5 -12.5z" />
    <glyph glyph-name="agrave.ss05" horiz-adv-x="615" 
d="M443 616l-57 -34l-134 106l1 19l103 47zM78 370l18 141q110 26 231 26h41q86 0 123.5 -50t25.5 -139l-30 -203q-4 -27 5 -39.5t36 -12.5h40l-13 -85q-50 -17 -94 -17q-17 0 -33 3t-33.5 11.5t-28 27.5t-9.5 46q-58 -47 -103 -67t-101 -20h-17q-78 0 -108.5 30t-18.5 119
l3 16q6 42 19.5 69.5t38 42.5t47.5 21.5t61 11.5q42 5 103.5 11t97.5 10l6 25q8 54 -10 73.5t-68 19.5q-65 0 -113 -14l-18 -57h-98zM203 88h15q61 0 138 68l18 95q-55 -6 -137 -18q-43 -6 -63 -21.5t-25 -48.5l-1 -15q-6 -35 5.5 -47.5t49.5 -12.5z" />
    <glyph glyph-name="amacron.ss05" horiz-adv-x="615" 
d="M471 683l-11 -77h-265l11 77h265zM78 370l18 141q110 26 231 26h41q86 0 123.5 -50t25.5 -139l-30 -203q-4 -27 5 -39.5t36 -12.5h40l-13 -85q-50 -17 -94 -17q-17 0 -33 3t-33.5 11.5t-28 27.5t-9.5 46q-58 -47 -103 -67t-101 -20h-17q-78 0 -108.5 30t-18.5 119l3 16
q6 42 19.5 69.5t38 42.5t47.5 21.5t61 11.5q42 5 103.5 11t97.5 10l6 25q8 54 -10 73.5t-68 19.5q-65 0 -113 -14l-18 -57h-98zM203 88h15q61 0 138 68l18 95q-55 -6 -137 -18q-43 -6 -63 -21.5t-25 -48.5l-1 -15q-6 -35 5.5 -47.5t49.5 -12.5z" />
    <glyph glyph-name="aogonek.ss05" horiz-adv-x="615" 
d="M392 -72v-5q-2 -14 4.5 -19t24.5 -5q39 0 73 13l19 -41q-59 -39 -112 -39h-17q-39 0 -58.5 19.5t-15.5 53.5l1 6q8 59 93 90q-48 20 -47 78q-58 -47 -103 -67t-101 -20h-17q-78 0 -108.5 30t-18.5 119l3 16q6 42 19.5 69.5t38 42.5t47.5 21.5t61 11.5q42 5 103.5 11
t97.5 10l6 25q8 54 -10 73.5t-68 19.5q-65 0 -113 -14l-18 -57h-98l18 141q110 26 231 26h41q86 0 123.5 -50t25.5 -139l-30 -203q-4 -27 5 -39.5t36 -12.5h40l-13 -85q-50 -17 -94 -17h-5q-51 -38 -59 -51q-4 -6 -5 -12zM356 156l18 95q-55 -6 -137 -18q-43 -6 -63 -21.5
t-25 -48.5l-1 -15q-6 -35 5.5 -47.5t49.5 -12.5h15q61 0 138 68z" />
    <glyph glyph-name="aring.ss05" horiz-adv-x="615" 
d="M345 585h-31q-36 0 -54 21t-13 58l3 22q10 72 84 72h31q36 0 54 -21.5t13 -57.5l-4 -22q-9 -72 -83 -72zM319 630h27q29 0 35 31l3 24q4 30 -28 30h-19q-35 0 -39 -32l-4 -24q-4 -29 25 -29zM78 370l18 141q110 26 231 26h41q86 0 123.5 -50t25.5 -139l-30 -203
q-4 -27 5 -39.5t36 -12.5h40l-13 -85q-50 -17 -94 -17q-17 0 -33 3t-33.5 11.5t-28 27.5t-9.5 46q-58 -47 -103 -67t-101 -20h-17q-78 0 -108.5 30t-18.5 119l3 16q6 42 19.5 69.5t38 42.5t47.5 21.5t61 11.5q42 5 103.5 11t97.5 10l6 25q8 54 -10 73.5t-68 19.5
q-65 0 -113 -14l-18 -57h-98zM203 88h15q61 0 138 68l18 95q-55 -6 -137 -18q-43 -6 -63 -21.5t-25 -48.5l-1 -15q-6 -35 5.5 -47.5t49.5 -12.5z" />
    <glyph glyph-name="atilde.ss05" horiz-adv-x="615" 
d="M543 702l-80 -80q-25 -21 -53 -21q-15 0 -30 10t-36.5 31.5t-33.5 30.5l-100 -68l-35 34l80 79q24 24 54 24q17 0 33.5 -11t37.5 -32t29 -28l99 65zM78 370l18 141q110 26 231 26h41q86 0 123.5 -50t25.5 -139l-30 -203q-4 -27 5 -39.5t36 -12.5h40l-13 -85
q-50 -17 -94 -17q-17 0 -33 3t-33.5 11.5t-28 27.5t-9.5 46q-58 -47 -103 -67t-101 -20h-17q-78 0 -108.5 30t-18.5 119l3 16q6 42 19.5 69.5t38 42.5t47.5 21.5t61 11.5q42 5 103.5 11t97.5 10l6 25q8 54 -10 73.5t-68 19.5q-65 0 -113 -14l-18 -57h-98zM203 88h15
q61 0 138 68l18 95q-55 -6 -137 -18q-43 -6 -63 -21.5t-25 -48.5l-1 -15q-6 -35 5.5 -47.5t49.5 -12.5z" />
    <glyph glyph-name="g.ss06" horiz-adv-x="625" 
d="M636 525l-9 -82q-49 -9 -69 -13q7 -23 2 -55l-6 -38q-11 -82 -62.5 -115t-159.5 -33h-58q-57 0 -91 17q-14 -7 -18.5 -10t-9.5 -9t-6 -15l-2 -8q-2 -16 11.5 -20.5t54.5 -4.5h204q78 0 109 -31t22 -100l-4 -22q-12 -90 -78.5 -128t-181.5 -38h-108q-121 0 -160 22.5
t-31 80.5l3 20q6 38 25 66t63 54q-38 19 -31 69l3 18q4 31 21.5 51t53.5 42q-44 36 -32 116l4 25q12 87 67 120t177 33h22q71 0 117 -12h158zM434 352l5 39q6 40 -12.5 52.5t-68.5 12.5h-18q-54 0 -82.5 -16t-34.5 -56l-6 -39q-6 -39 16 -50t78 -11h11q51 0 78.5 14t33.5 54
zM380 39h-169q-31 0 -53 -2q-50 -28 -55 -62l-2 -14q-4 -31 9 -40.5t61 -9.5h136q114 0 122 65l2 15q5 31 -4.5 39.5t-46.5 8.5z" />
    <glyph glyph-name="gbreve.ss06" horiz-adv-x="625" 
d="M514 728l-4 -24q-8 -57 -48 -88.5t-107 -31.5q-70 0 -104.5 34.5t-26.5 92.5l2 17h74l-1 -9q-5 -31 10 -43.5t47 -12.5q35 0 57.5 16t26.5 47l1 2h73zM636 525l-9 -82q-49 -9 -69 -13q7 -23 2 -55l-6 -38q-11 -82 -62.5 -115t-159.5 -33h-58q-57 0 -91 17
q-14 -7 -18.5 -10t-9.5 -9t-6 -15l-2 -8q-2 -16 11.5 -20.5t54.5 -4.5h204q78 0 109 -31t22 -100l-4 -22q-12 -90 -78.5 -128t-181.5 -38h-108q-121 0 -160 22.5t-31 80.5l3 20q6 38 25 66t63 54q-38 19 -31 69l3 18q4 31 21.5 51t53.5 42q-44 36 -32 116l4 25q12 87 67 120
t177 33h22q71 0 117 -12h158zM434 352l5 39q6 40 -12.5 52.5t-68.5 12.5h-18q-54 0 -82.5 -16t-34.5 -56l-6 -39q-6 -39 16 -50t78 -11h11q51 0 78.5 14t33.5 54zM380 39h-169q-31 0 -53 -2q-50 -28 -55 -62l-2 -14q-4 -31 9 -40.5t61 -9.5h136q114 0 122 65l2 15
q5 31 -4.5 39.5t-46.5 8.5z" />
    <glyph glyph-name="gcommaaccent.ss06" horiz-adv-x="625" 
d="M434 673l-13 -48q-9 -26 -39 -21q-32 8 -43 17.5t-8 31.5q7 43 41 82q22 24 58 52l24 -23q-37 -44 -47 -83zM636 525l-9 -82q-49 -9 -69 -13q7 -23 2 -55l-6 -38q-11 -82 -62.5 -115t-159.5 -33h-58q-57 0 -91 17q-14 -7 -18.5 -10t-9.5 -9t-6 -15l-2 -8
q-2 -16 11.5 -20.5t54.5 -4.5h204q78 0 109 -31t22 -100l-4 -22q-12 -90 -78.5 -128t-181.5 -38h-108q-121 0 -160 22.5t-31 80.5l3 20q6 38 25 66t63 54q-38 19 -31 69l3 18q4 31 21.5 51t53.5 42q-44 36 -32 116l4 25q12 87 67 120t177 33h22q71 0 117 -12h158zM434 352
l5 39q6 40 -12.5 52.5t-68.5 12.5h-18q-54 0 -82.5 -16t-34.5 -56l-6 -39q-6 -39 16 -50t78 -11h11q51 0 78.5 14t33.5 54zM380 39h-169q-31 0 -53 -2q-50 -28 -55 -62l-2 -14q-4 -31 9 -40.5t61 -9.5h136q114 0 122 65l2 15q5 31 -4.5 39.5t-46.5 8.5z" />
    <glyph glyph-name="gdotaccent.ss06" horiz-adv-x="625" 
d="M356 601q-31 0 -49.5 20t-14.5 50q4 27 24.5 43.5t48.5 16.5q33 0 51.5 -20.5t14.5 -52.5q-4 -26 -25 -41.5t-50 -15.5zM636 525l-9 -82q-49 -9 -69 -13q7 -23 2 -55l-6 -38q-11 -82 -62.5 -115t-159.5 -33h-58q-57 0 -91 17q-14 -7 -18.5 -10t-9.5 -9t-6 -15l-2 -8
q-2 -16 11.5 -20.5t54.5 -4.5h204q78 0 109 -31t22 -100l-4 -22q-12 -90 -78.5 -128t-181.5 -38h-108q-121 0 -160 22.5t-31 80.5l3 20q6 38 25 66t63 54q-38 19 -31 69l3 18q4 31 21.5 51t53.5 42q-44 36 -32 116l4 25q12 87 67 120t177 33h22q71 0 117 -12h158zM434 352
l5 39q6 40 -12.5 52.5t-68.5 12.5h-18q-54 0 -82.5 -16t-34.5 -56l-6 -39q-6 -39 16 -50t78 -11h11q51 0 78.5 14t33.5 54zM380 39h-169q-31 0 -53 -2q-50 -28 -55 -62l-2 -14q-4 -31 9 -40.5t61 -9.5h136q114 0 122 65l2 15q5 31 -4.5 39.5t-46.5 8.5z" />
    <glyph glyph-name="k.ss07" horiz-adv-x="676" 
d="M664 525l-11 -94q-35 -5 -64 -6l-173 -118l103 -164q17 -27 35.5 -38.5t46.5 -11.5h37l-11 -84q-38 -16 -80 -16q-40 0 -76.5 24t-79.5 99l-79 133l-86 -59l-16 -90q6 0 65 -8l-10 -92h-265l11 93q33 5 67 7l75 500q-18 2 -62 8l11 92h194l-59 -419l217 144
q-10 1 -30 3.5t-30 3.5l10 93h260z" />
    <glyph glyph-name="kcommaaccent.ss07" horiz-adv-x="676" 
d="M664 525l-11 -94q-35 -5 -64 -6l-173 -118l103 -164q17 -27 35.5 -38.5t46.5 -11.5h37l-11 -84q-38 -16 -80 -16q-40 0 -76.5 24t-79.5 99l-79 133l-86 -59l-16 -90q6 0 65 -8l-10 -92h-265l11 93q33 5 67 7l75 500q-18 2 -62 8l11 92h194l-59 -419l217 144
q-10 1 -30 3.5t-30 3.5l10 93h260zM227 -128l14 50q10 28 41 22q33 -8 45 -17.5t9 -33.5q-7 -45 -43 -86q-20 -23 -61 -55l-26 24q40 47 50 87z" />
    <glyph glyph-name="y.ss08" horiz-adv-x="630" 
d="M623 525l-71 -503q-27 -198 -237 -198h-36q-140 0 -207 75l9 77h107v-17q10 -22 33 -31t69 -9h23q42 0 71 26t36 79l9 43q-112 -46 -202 -46h-17q-72 0 -101 39t-18 120l37 244q-53 6 -70 8l10 93h203l-41 -292q-8 -57 4 -78.5t54 -21.5h17q63 0 134 42l40 249
q-40 5 -69 8l10 93h203z" />
    <glyph glyph-name="yacute.ss08" horiz-adv-x="630" 
d="M493 707l-1 -19l-163 -106l-50 34l123 138zM623 525l-71 -503q-27 -198 -237 -198h-36q-140 0 -207 75l9 77h107v-17q10 -22 33 -31t69 -9h23q42 0 71 26t36 79l9 43q-112 -46 -202 -46h-17q-72 0 -101 39t-18 120l37 244q-53 6 -70 8l10 93h203l-41 -292q-8 -57 4 -78.5
t54 -21.5h17q63 0 134 42l40 249q-40 5 -69 8l10 93h203z" />
    <glyph glyph-name="ycircumflex.ss08" horiz-adv-x="630" 
d="M494 586l-105 84l-127 -84l-36 34l131 122h80l99 -122zM623 525l-71 -503q-27 -198 -237 -198h-36q-140 0 -207 75l9 77h107v-17q10 -22 33 -31t69 -9h23q42 0 71 26t36 79l9 43q-112 -46 -202 -46h-17q-72 0 -101 39t-18 120l37 244q-53 6 -70 8l10 93h203l-41 -292
q-8 -57 4 -78.5t54 -21.5h17q63 0 134 42l40 249q-40 5 -69 8l10 93h203z" />
    <glyph glyph-name="ydieresis.ss08" horiz-adv-x="630" 
d="M286 608q-28 0 -46 18t-14 45q4 23 22.5 37.5t43.5 14.5q29 0 46 -18.5t13 -46.5q-3 -23 -21.5 -36.5t-43.5 -13.5zM482 608q-28 0 -45 18t-13 45q3 23 21 37.5t43 14.5q29 0 46.5 -18.5t13.5 -46.5q-3 -23 -21.5 -36.5t-44.5 -13.5zM623 525l-71 -503
q-27 -198 -237 -198h-36q-140 0 -207 75l9 77h107v-17q10 -22 33 -31t69 -9h23q42 0 71 26t36 79l9 43q-112 -46 -202 -46h-17q-72 0 -101 39t-18 120l37 244q-53 6 -70 8l10 93h203l-41 -292q-8 -57 4 -78.5t54 -21.5h17q63 0 134 42l40 249q-40 5 -69 8l10 93h203z" />
    <glyph glyph-name="ygrave.ss08" horiz-adv-x="630" 
d="M430 616l-57 -34l-134 106l1 19l103 47zM623 525l-71 -503q-27 -198 -237 -198h-36q-140 0 -207 75l9 77h107v-17q10 -22 33 -31t69 -9h23q42 0 71 26t36 79l9 43q-112 -46 -202 -46h-17q-72 0 -101 39t-18 120l37 244q-53 6 -70 8l10 93h203l-41 -292q-8 -57 4 -78.5
t54 -21.5h17q63 0 134 42l40 249q-40 5 -69 8l10 93h203z" />
    <glyph glyph-name="f.ss14" horiz-adv-x="406" 
d="M51 428l9 86q15 2 41.5 4t30.5 2l11 58q25 126 135 144q37 6 141 18l3 -92q-4 -1 -37.5 -8.5t-56.5 -14.5q-27 -8 -39.5 -24t-15.5 -45l-5 -31h152l-13 -97h-153l-64 -428h-132l64 428h-71z" />
    <glyph glyph-name="i.dot" horiz-adv-x="324" 
d="M216 601q-31 0 -49.5 20t-14.5 50q4 27 24.5 43.5t48.5 16.5q33 0 51.5 -20.5t14.5 -52.5q-4 -26 -25 -41.5t-50 -15.5zM252 525l-56 -380q-3 -28 5.5 -40t36.5 -12h40l-11 -94q-47 -8 -102 -8q-52 0 -83.5 30t-20.5 97l47 306q-11 1 -32 4t-29 4l10 93h195z" />
    <glyph glyph-name="f_f_f" horiz-adv-x="1134" 
d="M1005 525h152l-13 -97h-153l-69 -436q-21 -81 -57 -110t-73 -29q-47 0 -102 8l14 95h27q30 0 42 7.5t17 29.5l69 435h-230l-69 -436q-21 -81 -57 -110t-73 -29q-47 0 -102 8l14 95h27q30 0 42 7.5t17 29.5l69 435h-229l-69 -436q-21 -81 -57 -110t-73 -29q-47 0 -102 8
l14 95h27q30 0 42 7.5t17 29.5l69 435h-71l9 86q15 2 41.5 4t30.5 2l11 58q25 126 135 144q37 6 141 18l3 -92q-4 -1 -37.5 -8.5t-56.5 -14.5q-27 -8 -39.5 -24t-15.5 -45l-5 -31h226l10 53q25 126 135 144q37 6 141 18l3 -92q-4 -1 -37.5 -8.5t-56.5 -14.5
q-27 -8 -39.5 -24t-15.5 -45l-5 -31h227l10 53q25 126 135 144q37 6 141 18l3 -92q-4 -1 -37.5 -8.5t-56.5 -14.5q-27 -8 -39.5 -24t-15.5 -45z" />
    <glyph glyph-name="f_f_j" horiz-adv-x="1037" 
d="M1014 525l-14 -97l-47 -340q-9 -64 -32.5 -101.5t-91.5 -90.5q-29 -20 -56 -35.5t-30 -17.5l-50 60q25 25 45 51q42 38 59.5 67.5t23.5 74.5l47 332h-239l-69 -436q-21 -81 -57 -110t-73 -29q-47 0 -102 8l14 95h27q30 0 42 7.5t17 29.5l69 435h-229l-69 -436
q-21 -81 -57 -110t-73 -29q-47 0 -102 8l14 95h27q30 0 42 7.5t17 29.5l69 435h-71l9 86q15 2 41.5 4t30.5 2l11 58q25 126 135 144q37 6 141 18l3 -92q-4 -1 -37.5 -8.5t-56.5 -14.5q-27 -8 -39.5 -24t-15.5 -45l-5 -31h226l10 53q25 126 135 144q37 6 141 18l3 -92
q-4 -1 -37.5 -8.5t-56.5 -14.5q-27 -8 -39.5 -24t-15.5 -45l-5 -31h371zM968 735q34 0 54 -21.5t16 -55.5q-4 -28 -26.5 -45t-53.5 -17q-34 0 -54.5 21t-16.5 54q4 29 27.5 46.5t53.5 17.5z" />
    <glyph glyph-name="f_f_t" horiz-adv-x="1122" 
d="M946 427l-34 -238q-8 -56 -0.5 -72.5t44.5 -16.5h9q61 0 96 2l-6 -75q-73 -39 -168 -39h-11q-125 0 -104 146l42 292h-185l-69 -434q-21 -81 -57 -110t-73 -29q-47 0 -102 8l14 95h27q30 0 42 7.5t17 29.5l69 435h-229l-69 -436q-21 -81 -57 -110t-73 -29q-47 0 -102 8
l14 95h27q30 0 42 7.5t17 29.5l69 435h-71l9 86q15 2 41.5 4t30.5 2l11 58q25 126 135 144q37 6 141 18l3 -92q-4 -1 -37.5 -8.5t-56.5 -14.5q-27 -8 -39.5 -24t-15.5 -45l-5 -31h226l10 53q25 126 135 144q37 6 141 18l3 -92q-4 -1 -37.5 -8.5t-56.5 -14.5
q-27 -8 -39.5 -24t-15.5 -45l-5 -31h166q30 0 33 29l18 111q54 8 118 11l-19 -151h151l-13 -98h-151z" />
    <glyph glyph-name="f_i" horiz-adv-x="705" 
d="M665 93l-11 -94q-47 -8 -102 -8q-50 0 -82 30t-22 97l48 310h-228l-69 -436q-21 -81 -57 -110t-73 -29q-47 0 -102 8l14 95h27q30 0 42 7.5t17 29.5l69 435h-71l9 86q15 2 41.5 4t30.5 2l11 58q25 126 135 144q37 6 141 18l3 -92q-4 -1 -37.5 -8.5t-56.5 -14.5
q-27 -8 -39.5 -24t-15.5 -45l-5 -31h357l-55 -380q-4 -27 5 -39.5t36 -12.5h40zM584 596q-34 0 -54.5 21t-16.5 54q4 29 27.5 46.5t53.5 17.5q34 0 54 -21.5t16 -55.5q-4 -28 -26.5 -45t-53.5 -17z" />
    <glyph glyph-name="f_j" horiz-adv-x="675" 
d="M652 525l-5 -39l-5 -34l-3 -24l-48 -340q-9 -67 -32.5 -104.5t-91.5 -85.5q-24 -17 -86 -55l-50 60q7 8 25 23.5t30 26.5q39 36 53.5 65.5t20.5 77.5l47 332h-239l-69 -436q-21 -81 -57 -110t-73 -29q-47 0 -102 8l14 95h27q30 0 42 7.5t17 29.5l69 435h-71l9 86
q15 2 41.5 4t30.5 2l11 58q25 126 135 144q37 6 141 18l3 -92q-4 -1 -37.5 -8.5t-56.5 -14.5q-27 -8 -39.5 -24t-15.5 -45l-5 -31h370zM606 735q34 0 54 -21.5t16 -55.5q-4 -28 -26.5 -45t-53.5 -17q-34 0 -54 21t-16 54q4 29 27 46.5t53 17.5z" />
    <glyph glyph-name="f_l" horiz-adv-x="724" 
d="M65 428l9 86q15 2 41.5 4t30.5 2l11 58q25 126 135 144q37 6 141 18l3 -92q-4 -1 -37.5 -8.5t-56.5 -14.5q-27 -8 -39.5 -24t-15.5 -45l-5 -31h152l-13 -97h-153l-69 -436q-21 -81 -57 -110t-73 -29q-47 0 -102 8l14 95h27q30 0 42 7.5t17 29.5l69 435h-71zM669 700
l-80 -555q-4 -27 5 -39.5t37 -12.5h42l-12 -83q-44 -19 -103 -19q-52 0 -83.5 30t-20.5 97l72 482q-18 2 -62 8l11 92h194z" />
    <glyph glyph-name="f_t" horiz-adv-x="761" 
d="M585 427l-34 -238q-8 -56 -0.5 -72.5t44.5 -16.5h9q61 0 96 2l-6 -75q-73 -39 -168 -39h-11q-125 0 -104 146l42 292h-185l-69 -434q-21 -81 -57 -110t-73 -29q-47 0 -102 8l14 95h27q30 0 42 7.5t17 29.5l69 435h-71l9 86q15 2 41.5 4t30.5 2l11 58q25 126 135 144
q37 6 141 18l3 -92q-4 -1 -37.5 -8.5t-56.5 -14.5q-27 -8 -39.5 -24t-15.5 -45l-5 -31h166q30 0 33 29l18 111q54 8 118 11l-19 -151h151l-13 -98h-151z" />
    <glyph glyph-name="three.ss09" horiz-adv-x="559" 
d="M561 700l-15 -112l-208 -194h38q92 0 118 -36t13 -131l-8 -59q-14 -96 -68.5 -135t-171.5 -39h-15q-97 0 -241 31l19 155h91v-70q58 -13 101 -13h42q60 0 84 19t32 71l6 42q7 55 -7 67.5t-84 12.5h-94l-24 64l230 212h-302l16 115h448z" />
    <glyph glyph-name="zero.tf" 
d="M297 -12h-48q-132 0 -184.5 60.5t-35.5 194.5l30 215q19 136 85.5 194.5t201.5 58.5h47q132 0 183 -62t31 -198l-30 -214q-21 -133 -86 -191t-194 -58zM268 101h25q125 0 146 133l33 236q9 68 -15.5 98t-88.5 30h-25q-127 0 -145 -135l-33 -236q-10 -66 15 -96t88 -30z
" />
    <glyph glyph-name="one.tf" 
d="M444 706l-87 -596q100 -5 146 -13l-11 -97h-442l12 99q47 7 157 11l69 467l-128 -18l14 99l194 48h76z" />
    <glyph glyph-name="two.tf" 
d="M544 197l-28 -197h-491l14 101q15 109 40 152.5t85 74.5q21 11 188 82q54 23 75.5 39t24.5 40l4 29q7 51 -9 67t-71 16q-78 0 -134 -24l-21 -64h-105l19 155q86 26 138.5 34.5t121.5 8.5q119 0 163.5 -47.5t28.5 -157.5l-4 -29q-11 -72 -44.5 -101.5t-129.5 -68.5
q-21 -9 -58.5 -23.5t-65.5 -26t-43 -20.5q-34 -22 -47 -46t-22 -88h254l24 94h93z" />
    <glyph glyph-name="three.tf" 
d="M589 525l-5 -34q-9 -71 -32.5 -102t-68.5 -41q79 -18 61 -141l-5 -39q-13 -98 -69 -136t-183 -38q-111 0 -255 31l19 155h93l-2 -70q76 -13 149 -13q64 0 88.5 19t32.5 71l5 33q8 57 -16 68.5t-116 11.5h-12h-88l14 101h83q101 0 132.5 15t40.5 81l3 22q7 51 -10.5 68.5
t-75.5 17.5q-61 0 -151 -18l-23 -75h-93l20 161q153 36 252 36q130 0 178 -42t34 -142z" />
    <glyph glyph-name="four.tf" 
d="M16 293l397 407h139l-57 -407h94l-13 -89l-95 -11l-14 -90q30 -3 92 -11l-10 -92h-331l11 93q40 6 100 10l14 90h-341zM136 293h221l39 273z" />
    <glyph glyph-name="five.tf" 
d="M560 533h-92l3 62h-245l-40 -197q71 35 153 35h59q169 0 147 -157l-14 -98q-14 -103 -71 -145.5t-185 -42.5q-109 0 -271 35l19 152h91v-71q79 -12 153 -12q70 0 99.5 22.5t37.5 77.5l9 71q12 70 -56 70h-61q-37 0 -63 -10.5t-67 -36.5l-105 33l68 379h454z" />
    <glyph glyph-name="six.tf" 
d="M370 432h41q107 -1 144.5 -41t23.5 -135l-11 -79q-14 -98 -76 -141t-178 -43h-58q-259 0 -226 249l30 211q34 258 296 258q70 0 117.5 -7t130.5 -26l-19 -154h-113l-7 60q-56 14 -115 14q-133 0 -152 -142l-14 -79q93 55 186 55zM177 290l-13 -74q-8 -60 18.5 -88
t86.5 -27h53q105 2 120 102l6 43q7 49 -10.5 68t-67.5 19h-31q-78 0 -162 -43z" />
    <glyph glyph-name="seven.tf" 
d="M617 595l-342 -595h-164l3 25l371 570h-284l-28 -92h-94l27 197h525z" />
    <glyph glyph-name="eight.tf" 
d="M596 535l-6 -42q-9 -61 -37.5 -94t-86.5 -46q129 -23 111 -159l-2 -17q-14 -99 -74.5 -144t-181.5 -45h-89q-124 0 -176 48t-39 147l2 18q10 68 46.5 104.5t111.5 49.5q-103 27 -87 145l6 42q14 87 71.5 126.5t172.5 39.5h64q112 0 159 -42.5t35 -130.5zM214 523l-5 -38
q-6 -43 15 -61.5t75 -18.5h51q105 0 117 87l6 38q5 44 -15 61.5t-73 18.5h-52q-107 0 -119 -87zM440 197l4 33q6 45 -15 64.5t-77 19.5h-69q-113 0 -125 -90l-5 -34q-6 -48 16 -69t79 -21h69q109 0 123 97z" />
    <glyph glyph-name="nine.tf" 
d="M265 270h-41q-103 0 -142 40t-25 134l11 80q13 93 75 140t169 47h80q130 0 180.5 -61t33.5 -192l-30 -213q-19 -136 -90.5 -195.5t-215.5 -59.5q-16 0 -32 1t-27 1.5t-29 3t-25 3.5t-29 5.5t-26.5 5.5t-33.5 7.5t-34 7.5l20 159h126l-7 -65q56 -15 102 -15q75 0 114 32
t49 104l13 75q-37 -16 -57 -23.5t-55.5 -14.5t-73.5 -7zM459 405l13 81q9 61 -15 87.5t-90 25.5h-53q-105 0 -120 -101l-6 -42q-7 -49 10.5 -68.5t67.5 -19.5h32q84 0 161 37z" />
    <glyph glyph-name="zero.dnom" horiz-adv-x="428" 
d="M212 -4h-58q-80 0 -110 36t-19 117l16 118q12 82 49 115.5t118 33.5h58q78 -1 107 -37.5t18 -118.5l-16 -118q-13 -81 -49 -113.5t-114 -32.5zM173 68h26q37 0 57 20t26 62l17 118q5 41 -7.5 58t-48.5 17h-26q-37 0 -57 -20t-26 -62l-17 -118q-6 -40 7 -57.5t49 -17.5z
" />
    <glyph glyph-name="one.dnom" horiz-adv-x="333" 
d="M252 417l-51 -346q49 -4 76 -7l-7 -64h-265l8 66q83 6 92 6l39 265l-99 -17l9 59l142 38h56z" />
    <glyph glyph-name="two.dnom" horiz-adv-x="403" 
d="M344 129l-18 -129h-324l10 68q18 123 112 153q45 13 74 21q43 12 61.5 23.5t21.5 30.5l1 10q4 24 -5.5 31t-42.5 7q-61 0 -93 -11l-15 -42h-70l11 102q91 24 171 24t110 -25t22 -89l-5 -29q-7 -59 -100 -90q-10 -4 -44.5 -13.5t-39.5 -11.5q-46 -15 -60.5 -30.5
t-21.5 -59.5h167l16 60h62z" />
    <glyph glyph-name="three.dnom" horiz-adv-x="382" 
d="M353 302l-2 -13q-5 -38 -21 -57t-50 -29q58 -9 47 -89l-2 -11q-9 -61 -45 -84t-120 -23q-75 0 -164 20l11 103h65l-2 -45q41 -7 92 -7q39 0 56 12t21 41l1 11q4 27 -7.5 35.5t-43.5 8.5h-91l9 62h88q60 0 68 51l1 11q4 29 -6.5 37.5t-47.5 8.5q-49 0 -96 -10l-15 -43h-63
l12 104q93 21 161 21q89 0 121 -25.5t23 -89.5z" />
    <glyph glyph-name="four.dnom" horiz-adv-x="435" 
d="M309 117l-8 -49q17 -1 67 -7l-6 -61h-244l7 63l80 6l8 47h-219l9 67l249 229h98l-32 -229h71l-9 -60zM244 343l-160 -160h136z" />
    <glyph glyph-name="five.dnom" horiz-adv-x="412" 
d="M383 408l-16 -115h-61v44h-157l-22 -106q49 19 101 19h31q59 0 83.5 -25.5t15.5 -87.5l-3 -26q-8 -59 -46.5 -86.5t-111.5 -28.5h-17q-62 0 -170 21l12 108h61v-50q42 -8 82 -8h22q69 1 78 58l3 19q4 29 -4 39.5t-35 10.5h-29q-48 0 -91 -30l-70 22l39 222h305z" />
    <glyph glyph-name="six.dnom" horiz-adv-x="431" 
d="M233 247h37q122 0 105 -118l-2 -12q-9 -64 -48 -92.5t-116 -28.5h-38q-83 0 -121.5 40t-28.5 118l16 106q11 78 56.5 118.5t120.5 40.5h18q63 0 158 -21l-13 -105h-74l-3 44q-34 7 -76 7q-79 0 -93 -85l-5 -29q54 17 107 17zM119 170l-7 -41q-4 -33 13 -47t56 -13h30
q65 0 74 59l2 11q4 28 -5.5 39t-37.5 11h-22q-49 0 -103 -19z" />
    <glyph glyph-name="seven.dnom" horiz-adv-x="360" 
d="M362 337l-210 -337h-112l2 16l225 321h-169l-18 -53h-62l17 124h336z" />
    <glyph glyph-name="eight.dnom" horiz-adv-x="435" 
d="M390 307l-3 -15q-5 -36 -21.5 -55t-51.5 -28q77 -15 66 -94l-2 -10q-8 -60 -44.5 -84.5t-117.5 -24.5h-58q-82 0 -115.5 27.5t-25.5 88.5l1 10q6 39 27.5 60t67.5 30q-63 15 -52 87l2 15q8 55 43.5 78.5t110.5 23.5h48q73 0 103 -26.5t22 -82.5zM145 299l-2 -17
q-3 -24 8.5 -32.5t44.5 -8.5h38q62 0 69 48l2 17q6 45 -54 45h-33q-65 0 -73 -52zM287 118l2 16q4 27 -8 37.5t-45 10.5h-49q-67 0 -74 -55l-2 -16q-4 -23 11 -35t48 -11h39q71 0 78 53z" />
    <glyph glyph-name="nine.dnom" horiz-adv-x="419" 
d="M175 156h-35q-63 0 -87.5 27.5t-16.5 88.5l5 32q16 115 155 115h49q82 0 117 -37.5t25 -115.5l-16 -114q-22 -156 -177 -156h-15q-58 0 -155 21l11 96h76l-3 -43q26 -7 76 -7q83 0 96 85l6 39q-49 -32 -111 -31zM293 246l6 46q4 29 -13.5 42.5t-55.5 12.5h-31
q-65 0 -73 -59l-2 -11q-4 -32 5 -43.5t37 -11.5h29q58 0 98 24z" />
    <glyph glyph-name="zero.numr" horiz-adv-x="428" 
d="M251 288h-58q-80 0 -110 36t-19 117l16 118q12 82 49 115.5t118 33.5h58q78 -1 107 -37.5t18 -118.5l-16 -118q-13 -81 -49 -113.5t-114 -32.5zM212 360h26q37 0 57 20t26 62l17 118q5 41 -7.5 58t-48.5 17h-26q-37 0 -57 -20t-26 -62l-17 -118q-6 -40 7 -57.5t49 -17.5z
" />
    <glyph glyph-name="one.numr" horiz-adv-x="333" 
d="M292 709l-51 -346q49 -4 76 -7l-7 -64h-265l8 66q83 6 92 6l39 265l-99 -17l9 59l142 38h56z" />
    <glyph glyph-name="two.numr" horiz-adv-x="403" 
d="M384 421l-18 -129h-324l10 68q18 123 112 153q45 13 74 21q43 12 61.5 23.5t21.5 30.5l1 10q4 24 -5.5 31t-42.5 7q-61 0 -93 -11l-15 -42h-70l11 102q91 24 171 24t110 -25t22 -89l-5 -29q-7 -59 -100 -90q-10 -4 -44.5 -13.5t-39.5 -11.5q-46 -15 -60.5 -30.5
t-21.5 -59.5h167l16 60h62z" />
    <glyph glyph-name="three.numr" horiz-adv-x="382" 
d="M391 594l-2 -13q-5 -38 -21 -57t-50 -29q58 -9 47 -89l-2 -11q-9 -61 -45 -84t-120 -23q-75 0 -164 20l11 103h65l-2 -45q41 -7 92 -7q39 0 56 12t21 41l1 11q4 27 -7.5 35.5t-43.5 8.5h-91l9 62h88q60 0 68 51l1 11q4 29 -6.5 37.5t-47.5 8.5q-49 0 -96 -10l-15 -43h-63
l12 104q93 21 161 21q89 0 121 -25.5t23 -89.5z" />
    <glyph glyph-name="four.numr" horiz-adv-x="435" 
d="M347 409l-8 -49q17 -1 67 -7l-6 -61h-244l7 63l80 6l8 47h-219l9 67l249 229h98l-32 -229h71l-9 -60zM282 635l-160 -160h136z" />
    <glyph glyph-name="five.numr" horiz-adv-x="412" 
d="M421 700l-16 -115h-61v44h-157l-22 -106q49 19 101 19h31q59 0 83.5 -25.5t15.5 -87.5l-3 -26q-8 -59 -46.5 -86.5t-111.5 -28.5h-17q-62 0 -170 21l12 108h61v-50q42 -8 82 -8h22q69 1 78 58l3 19q4 29 -4 39.5t-35 10.5h-29q-48 0 -91 -30l-70 22l39 222h305z" />
    <glyph glyph-name="six.numr" horiz-adv-x="431" 
d="M273 539h37q122 0 105 -118l-2 -12q-9 -64 -48 -92.5t-116 -28.5h-38q-83 0 -121.5 40t-28.5 118l16 106q11 78 56.5 118.5t120.5 40.5h18q63 0 158 -21l-13 -105h-74l-3 44q-34 7 -76 7q-79 0 -93 -85l-5 -29q54 17 107 17zM159 462l-7 -41q-4 -33 13 -47t56 -13h30
q65 0 74 59l2 11q4 28 -5.5 39t-37.5 11h-22q-49 0 -103 -19z" />
    <glyph glyph-name="seven.numr" horiz-adv-x="360" 
d="M400 629l-210 -337h-112l2 16l225 321h-169l-18 -53h-62l17 124h336z" />
    <glyph glyph-name="eight.numr" horiz-adv-x="435" 
d="M429 599l-3 -15q-5 -36 -21.5 -55t-51.5 -28q77 -15 66 -94l-2 -10q-8 -60 -44.5 -84.5t-117.5 -24.5h-58q-82 0 -115.5 27.5t-25.5 88.5l1 10q6 39 27.5 60t67.5 30q-63 15 -52 87l2 15q8 55 43.5 78.5t110.5 23.5h48q73 0 103 -26.5t22 -82.5zM184 591l-2 -17
q-3 -24 8.5 -32.5t44.5 -8.5h38q62 0 69 48l2 17q6 45 -54 45h-33q-65 0 -73 -52zM326 410l2 16q4 27 -8 37.5t-45 10.5h-49q-67 0 -74 -55l-2 -16q-4 -23 11 -35t48 -11h39q71 0 78 53z" />
    <glyph glyph-name="nine.numr" horiz-adv-x="419" 
d="M213 448h-35q-63 0 -87.5 27.5t-16.5 88.5l5 32q16 115 155 115h49q82 0 117 -37.5t25 -115.5l-16 -114q-22 -156 -177 -156h-15q-58 0 -155 21l11 96h76l-3 -43q26 -7 76 -7q83 0 96 85l6 39q-49 -32 -111 -31zM331 538l6 46q4 29 -13.5 42.5t-55.5 12.5h-31
q-65 0 -73 -59l-2 -11q-4 -32 5 -43.5t37 -11.5h29q58 0 98 24z" />
    <glyph glyph-name="backslash.case" horiz-adv-x="445" 
d="M411 -87h-77l-272 852h77z" />
    <glyph glyph-name="bullet.case" horiz-adv-x="321" 
d="M196 220q-200 0 -175 185q13 91 66 134t150 43q198 0 173 -190q-13 -88 -65.5 -130t-148.5 -42z" />
    <glyph glyph-name="exclamdown.case" horiz-adv-x="237" 
d="M175 705q82 0 70 -77q-9 -66 -81 -66q-82 0 -71 79q10 64 82 64zM22 111l87 367h77l-17 -367l-15 -111h-147z" />
    <glyph glyph-name="periodcentered.case" horiz-adv-x="220" 
d="M117 273q-81 0 -71 78q9 65 82 65q80 0 70 -79q-9 -64 -81 -64z" />
    <glyph glyph-name="questiondown.case" horiz-adv-x="517" 
d="M368 705q82 0 71 -77q-10 -66 -82 -66q-82 0 -71 79q10 64 82 64zM489 181l-19 -149q-89 -26 -138 -34.5t-120 -8.5q-116 0 -163 44t-33 145l4 23q9 68 35 102t73 49q19 6 68 19.5t77 22.5l16 94h107l-6 -165q-79 -23 -163 -54q-37 -13 -54 -29t-20 -40l-4 -23
q-7 -51 8.5 -67t72.5 -16q73 0 133 23l21 64h105z" />
    <glyph glyph-name="slash.case" horiz-adv-x="445" 
d="M529 786l-512 -852h-80l512 852h80z" />
    <glyph glyph-name="numbersign.ss10" horiz-adv-x="527" 
d="M424 429h80l-13 -87h-92l-29 -96h-90l29 96h-103l-29 -96h-89l28 96h-77l13 87h89l27 89h-83l12 88h96l28 94h90l-28 -94h103l28 94h89l-27 -94h65l-12 -88h-79zM258 518l-27 -89h103l27 89h-103z" />
    <glyph glyph-name="braceleft.case" horiz-adv-x="372" 
d="M270 580l-67 -476q-8 -59 10.5 -87t79.5 -65l-32 -55q-48 20 -77 35.5t-57 40.5t-38 58.5t-4 78.5l26 183l-81 13l14 96l85 13l24 174q6 44 24.5 77t52.5 57.5t66 39.5t86 35l26 -62q-72 -37 -101 -67t-37 -89z" />
    <glyph glyph-name="braceright.case" horiz-adv-x="372" 
d="M126 111l66 476q6 41 -2.5 67.5t-27 43t-60.5 41.5l32 56q48 -20 77.5 -36t57 -40.5t37.5 -58.5t3 -78l-23 -167l82 -13l-14 -96l-85 -13l-27 -190q-5 -36 -19.5 -65t-32.5 -49t-49.5 -38.5t-57.5 -30t-70 -27.5l-25 63q72 36 101 66t37 89z" />
    <glyph glyph-name="bracketleft.case" horiz-adv-x="319" 
d="M365 777l-12 -89h-127l-97 -682h127l-12 -86h-245l121 857h245z" />
    <glyph glyph-name="bracketright.case" horiz-adv-x="319" 
d="M223 -80h-245l12 86h126l97 682h-127l12 89h245z" />
    <glyph glyph-name="parenleft.case" horiz-adv-x="288" 
d="M194 586l-67 -476q-6 -41 3 -67.5t27.5 -43t60.5 -41.5l-33 -56q-48 20 -76.5 36t-57 41t-38 58.5t-3.5 78.5l67 479q6 44 24.5 77t52.5 57.5t66 39.5t86 35l26 -63q-72 -36 -101 -66t-37 -89z" />
    <glyph glyph-name="parenright.case" horiz-adv-x="295" 
d="M126 117l67 476q5 41 -3.5 67.5t-27 43t-60.5 41.5l34 55q48 -20 76.5 -35.5t56.5 -40.5t37.5 -58.5t3.5 -77.5l-67 -479q-7 -45 -25 -78t-52.5 -57t-65.5 -39t-86 -36l-26 62q72 37 101 67t37 89z" />
    <glyph glyph-name="emdash.case" horiz-adv-x="718" 
d="M699 402l-14 -103h-641l14 103h641z" />
    <glyph glyph-name="endash.case" horiz-adv-x="476" 
d="M457 402l-14 -103h-399l14 103h399z" />
    <glyph glyph-name="hyphen.case" horiz-adv-x="350" 
d="M360 405l-15 -108h-301l14 108h302z" />
    <glyph glyph-name="guillemotleft.case" horiz-adv-x="533" 
d="M176 321l91 -158l-5 -41h-80l-130 199v8l186 199h81l-5 -42l-135 -157zM379 321l91 -158l-5 -41h-80l-130 199l-1 8l187 199h81l-5 -42l-135 -157z" />
    <glyph glyph-name="guillemotright.case" horiz-adv-x="533" 
d="M99 486l5 42h80l131 -199v-8l-187 -199h-81l5 41l136 158l2 8zM301 486l5 42h80l131 -199v-8l-187 -199h-81l5 41l136 158l2 8z" />
    <glyph glyph-name="guilsinglleft.case" horiz-adv-x="307" 
d="M168 348l92 -158l-5 -41h-80l-131 199v9l187 199h81l-5 -42l-136 -157z" />
    <glyph glyph-name="guilsinglright.case" horiz-adv-x="307" 
d="M67 514l5 42h80l131 -199l-1 -9l-186 -199h-81l5 41l135 158l3 9z" />
    <glyph glyph-name="florin.tf" 
d="M525 445l-14 -103h-143l-64 -218q-21 -69 -51 -101.5t-89 -42.5q-30 -5 -69 -7t-50 -3l-12 73q9 2 25.5 6t29.5 7q37 10 51 25t25 47l64 214h-73l10 92q73 7 91 8l36 120q22 68 52.5 100t89.5 44q20 4 144 17l3 -91q-13 -3 -36.5 -8.5t-43.5 -10.5q-37 -10 -51 -25.5
t-23 -47.5l-28 -95h126z" />
    <glyph glyph-name="cent.tf" 
d="M441 339l2 87q-35 10 -89 11l-48 -345q72 0 101 53l7 11h106l-11 -98q-85 -62 -185 -69l-9 -58h-101l8 57q-97 5 -134.5 58.5t-23.5 159.5l18 125q13 96 71.5 148.5t150.5 57.5l8 62h101l-8 -63q68 -5 155 -32l-20 -165h-99zM212 317l-18 -126q-8 -57 11.5 -77.5
t67.5 -21.5l48 344q-94 -6 -109 -119z" />
    <glyph glyph-name="dollar.tf" 
d="M483 484v97q-36 16 -104 18l-26 -179l108 -26q73 -18 99 -56t15 -113l-6 -42q-13 -97 -71 -140t-179 -46l-10 -66h-102l10 67q-85 5 -205 49l21 170h114v-94q42 -20 119 -22l28 205l-106 26q-80 23 -105.5 60t-14.5 116l2 11q13 96 71.5 139t179.5 46l10 73h102l-10 -75
q92 -5 191 -39l-22 -179h-109zM312 429l24 170h-2q-58 0 -86.5 -18.5t-33.5 -60.5l-2 -10q-5 -30 5 -45t42 -23zM336 296l-27 -195q62 1 89 19.5t34 65.5l3 23q5 37 -9.5 52.5t-65.5 28.5z" />
    <glyph glyph-name="Euro.tf" 
d="M514 505l7 78q-35 18 -142 18q-129 0 -147 -129l-6 -41h247l-20 -56h-235l-7 -52h216l-21 -57h-203l-7 -48q-8 -61 18.5 -89t87.5 -28h28q96 0 143 82l97 -3l-12 -92q-104 -100 -232 -100h-50q-250 0 -216 232l6 46h-55l9 57h53l7 52h-53l7 56h54l6 42q18 124 87 181
t193 57h31q127 0 229 -37l-22 -169h-98z" />
    <glyph glyph-name="sterling.tf" 
d="M546 0h-556l12 101q33 25 52.5 43.5t37.5 51t18 67.5v19h-88l11 77h88v105q3 57 15.5 99t39.5 77t75 53t116 18h34q110 0 232 -37l-39 -180h-104l5 91q-40 16 -129 16q-54 0 -82.5 -35t-27.5 -101l3 -106h192l-24 -77h-175v-24q1 -46 -24.5 -79.5t-75.5 -71.5l299 3
l32 109h94z" />
    <glyph glyph-name="yen.tf" 
d="M663 700l-11 -99q-69 -8 -76 -8l-149 -247h131l-7 -51h-154l-31 -51l-1 -8h178l-8 -51h-179l-13 -78q24 -2 75 -10l-11 -97h-290l12 99q27 3 76 7l13 79h-173l8 51h173l1 4l-17 55h-149l7 51h127l-75 248q-34 3 -68 9l12 97h258l-12 -99q-21 -2 -59 -4l66 -249l150 248
q-18 1 -63 7l11 97h248z" />
    <glyph glyph-name="arrowdown.ss13" horiz-adv-x="791" 
d="M396 75q115 0 195.5 81t80.5 197q0 115 -80.5 196t-195.5 81t-196.5 -81t-81.5 -196t81 -196.5t197 -81.5zM408 193h-24l-144 144l39 39l86 -89v215h60v-217l87 91l39 -39z" />
    <glyph glyph-name="arrowdownleft.ss13" horiz-adv-x="791" 
d="M198 151q81 -81 195.5 -80.5t196.5 82.5q81 81 81.5 195t-81.5 196q-82 81 -196.5 81t-195.5 -81q-82 -82 -82 -196.5t82 -196.5zM290 227l-17 16v203h55l-2 -123l152 152l43 -43l-153 -153l125 3v-55h-203z" />
    <glyph glyph-name="arrowdownright.ss13" horiz-adv-x="792" 
d="M581 151q82 82 82 196.5t-82 196.5q-81 81 -195.5 81t-196.5 -81q-81 -82 -80.5 -196t81.5 -195q82 -82 196 -82.5t195 80.5zM287 282l125 -3l-153 153l43 43l150 -152v123h54v-203l-16 -16h-203v55z" />
    <glyph glyph-name="arrowleft.ss13" horiz-adv-x="791" 
d="M118 351q0 -115 81 -195.5t197 -80.5q115 0 196 80.5t81 195.5t-81 196.5t-196 81.5q-116 0 -197 -81.5t-81 -196.5zM236 340v23l144 144l39 -39l-89 -86h215v-60h-217l91 -87l-39 -39z" />
    <glyph glyph-name="arrowright.ss13" horiz-adv-x="791" 
d="M673 351q0 115 -81.5 196.5t-196.5 81.5t-196 -81.5t-81 -196.5t81 -195.5t196 -80.5q116 0 197 80.5t81 195.5zM372 235l91 87h-217v60h215l-89 86l39 39l144 -144v-23l-144 -144z" />
    <glyph glyph-name="arrowup.ss13" horiz-adv-x="791" 
d="M396 630q-116 0 -197 -81t-81 -197q0 -115 81.5 -196t196.5 -81t195.5 81t80.5 196q0 116 -80.5 197t-195.5 81zM512 329l-87 91v-217h-60v215l-86 -89l-39 39l144 144h24l143 -144z" />
    <glyph glyph-name="arrowupleft.ss13" horiz-adv-x="792" 
d="M198 553q-82 -82 -82 -196.5t82 -196.5q81 -81 195.5 -81t196.5 81q82 82 81.5 196t-81.5 195q-82 82 -196.5 82.5t-195.5 -80.5zM493 423l-125 2l153 -153l-43 -43l-152 152l2 -123h-55v204l17 15h203v-54z" />
    <glyph glyph-name="arrowupright.ss13" horiz-adv-x="792" 
d="M581 553q-81 81 -195 80.5t-196 -82.5q-81 -81 -81.5 -195t80.5 -196q82 -81 196.5 -81t195.5 81q82 82 82 196.5t-82 196.5zM490 477l17 -15v-204h-54v123l-151 -152l-43 43l153 153l-125 -2v54h203z" />
    <glyph glyph-name="at.case" horiz-adv-x="1016" 
d="M779 568l-89 -331q-11 -44 -0.5 -58t42.5 -14q72 0 125.5 67t70.5 184q21 149 -56 230.5t-241 81.5q-216 0 -353 -122.5t-164 -316.5q-23 -165 66.5 -254.5t267.5 -89.5q160 0 313 72l18 -45q-147 -77 -331 -77q-204 0 -309 107t-78 300q30 212 182.5 343.5t385.5 131.5
q189 0 283.5 -97.5t69.5 -270.5q-20 -141 -97.5 -221.5t-198.5 -80.5q-34 0 -55.5 3t-41 18t-20.5 43q-42 -39 -77.5 -56t-91.5 -17h-16q-72 0 -106 47t-11 139l34 136q19 74 67 110t111 36h21q73 0 146 -39l12 41h121zM577 242l54 212q-42 26 -103 26h-18q-82 0 -109 -112
l-14 -65q-15 -65 -2 -89.5t60 -24.5h11q24 0 45.5 7t34.5 15t37 25z" />
    <glyph glyph-name="ampersand.ss11" horiz-adv-x="754" 
d="M755 418l-11 -95q-81 -7 -99 -8l-10 -54q-20 -141 -90 -204.5t-210 -63.5h-66q-149 0 -206.5 48.5t-41.5 167.5l2 17q20 135 151 157q-48 47 -36 138l2 18q13 93 67.5 132.5t157.5 39.5h18q62 0 167 -31l-17 -145h-94l2 62q-27 9 -76 9h-18q-85 0 -97 -79l-4 -27
q-5 -37 13.5 -59.5t56.5 -22.5h87l-13 -96h-125q-46 0 -78 -24t-39 -73l-2 -19q-9 -60 14.5 -81.5t90.5 -21.5h87q87 0 130 39t55 125l9 49q-22 1 -81 7l11 95h293z" />
    <glyph glyph-name="copyright.ss12" horiz-adv-x="430" 
d="M230 331q-92 0 -137 53t-31 146q12 88 67.5 136.5t144.5 48.5q92 0 136.5 -52.5t31.5 -145.5q-12 -88 -68 -137t-144 -49zM225 362q162 0 187 168q10 76 -24 115.5t-108 39.5q-164 0 -188 -168q-11 -76 23.5 -115.5t109.5 -39.5zM328 489l-2 -42q-34 -26 -79 -26h-17
q-81 0 -72 84l6 42q12 79 90 79h14q28 0 76 -14l-7 -64h-41l2 33q-14 5 -36 5q-43 0 -49 -48l-6 -39q-6 -35 31 -35h12q26 0 38 25h40z" />
    <glyph glyph-name="acute.case" horiz-adv-x="500" 
d="M453 869l-2 -19l-167 -109l-54 36l128 142z" />
    <glyph glyph-name="breve.case" horiz-adv-x="500" 
d="M487 892l-4 -25q-8 -59 -50 -92t-110 -33q-72 0 -108 36t-28 96l2 18h77l-1 -10q-4 -30 12 -43.5t48 -13.5q34 0 57.5 16.5t27.5 47.5v3h77z" />
    <glyph glyph-name="caron.case" horiz-adv-x="500" 
d="M359 748h-80l-99 121l43 35l104 -84l128 84l35 -35z" />
    <glyph glyph-name="circumflex.case" horiz-adv-x="500" 
d="M438 745l-107 86l-131 -86l-38 36l135 125h85l101 -125z" />
    <glyph glyph-name="dieresis.case" horiz-adv-x="500" 
d="M221 765q-31 0 -50 19t-15 49q4 26 24.5 41t48.5 15q31 0 49 -19.5t14 -49.5q-3 -25 -23.5 -40t-47.5 -15zM429 765q-30 0 -48.5 19t-14.5 49q4 25 24.5 40.5t47.5 15.5q31 0 49.5 -19.5t14.5 -49.5q-4 -25 -24.5 -40t-48.5 -15z" />
    <glyph glyph-name="dotaccent.case" horiz-adv-x="500" 
d="M325 762q-32 0 -51 20t-15 51q4 27 25 43t49 16q32 0 50.5 -20.5t14.5 -51.5q-4 -26 -24.5 -42t-48.5 -16z" />
    <glyph glyph-name="grave.case" horiz-adv-x="500" 
d="M421 777l-57 -34l-134 107l1 18l103 48z" />
    <glyph glyph-name="hungarumlaut.case" horiz-adv-x="500" 
d="M351 881l-1 -17l-148 -117l-45 34l122 138zM502 881l-1 -17l-146 -117l-47 34l124 138z" />
    <glyph glyph-name="macron.case" horiz-adv-x="500" 
d="M476 845l-11 -79h-289l11 79h289z" />
    <glyph glyph-name="ring.case" horiz-adv-x="500" 
d="M335 734h-34q-39 0 -59 23t-14 62l3 25q12 77 91 77h35q39 0 58.5 -23t13.5 -62l-3 -25q-12 -77 -91 -77zM307 783h29q33 0 37 34l4 26q4 32 -30 32h-20q-39 0 -43 -35l-4 -26q-2 -18 4.5 -24.5t22.5 -6.5z" />
    <glyph glyph-name="tilde.case" horiz-adv-x="500" 
d="M521 855l-84 -82q-23 -22 -55 -22q-15 0 -26.5 7.5t-33 28t-41.5 36.5l-103 -68l-37 36l74 74q34 31 64 31q18 0 30.5 -7.5t33.5 -29t38 -35.5l102 66z" />
    <glyph glyph-name="caron.alt" horiz-adv-x="500" 
d="M388 754l-2 -23l-77 -159h-68l44 182h103z" />
    </font>
</defs>
</svg>
