<?xml version="1.0" standalone="no"?>
<!DOCTYPE svg PUBLIC "-//W3C//DTD SVG 1.1//EN" "http://www.w3.org/Graphics/SVG/1.1/DTD/svg11.dtd" >
<svg xmlns="http://www.w3.org/2000/svg" xmlns:xlink="http://www.w3.org/1999/xlink" version="1.1">
<metadata>
Created by FontForge 20150102 at Tue Feb  3 15:57:49 2015
 By uniteet7
Copyright (c) 2012 by Rene Bieder. All rights reserved.
</metadata>
<defs>
<font id="ReneBiederQuadonExtraBold" horiz-adv-x="500" >
  <font-face 
    font-family="ReneBiederQuadonExtraBold"
    font-weight="800"
    font-stretch="normal"
    units-per-em="1000"
    panose-1="0 0 9 0 0 0 0 0 0 0"
    ascent="800"
    descent="-200"
    x-height="537"
    cap-height="700"
    bbox="-152 -282 1401 939"
    underline-thickness="50"
    underline-position="-90"
    unicode-range="U+0020-2212"
  />
<missing-glyph horiz-adv-x="683" 
d="M8 0l-8 9l674 691l9 -8z" />
    <glyph glyph-name="f_f" unicode="ff" horiz-adv-x="841" 
d="M671 400v-255q29 -3 83 -13v-132h-328v132q10 2 29 5t28 5v258h-208v-255q29 -3 83 -13v-132h-328v132q10 2 29 5t28 5v258h-65v121q7 1 30 4.5t35 4.5v47q0 62 38.5 105t105.5 55q50 9 161 19l16 -129q-1 0 -39 -7.5t-61 -14.5q-33 -9 -33 -47v-21h208v40q0 62 38.5 105
t105.5 55q50 9 161 19l16 -129q-1 0 -39 -7.5t-61 -14.5q-33 -9 -33 -47v-21h149v-137h-149z" />
    <glyph glyph-name="f_f_i" unicode="ffi" horiz-adv-x="1133" 
d="M963 581q-44 0 -74 26.5t-30 68.5t30 68.5t74 26.5q45 0 75 -26t30 -69q0 -42 -30 -68.5t-75 -26.5zM1058 537v-394q38 -6 57 -11v-132h-302v132q19 5 57 11v257h-199v-255q29 -3 83 -13v-132h-328v132q10 2 29 5t28 5v258h-208v-255q29 -3 83 -13v-132h-328v132
q10 2 29 5t28 5v258h-65v121q7 1 30 4.5t35 4.5v47q0 62 38.5 105t105.5 55q50 9 161 19l16 -129q-1 0 -39 -7.5t-61 -14.5q-33 -9 -33 -47v-21h208v40q0 62 38.5 105t105.5 55q50 9 161 19l16 -129q-1 0 -39 -7.5t-61 -14.5q-33 -9 -33 -47v-21h387z" />
    <glyph glyph-name="f_f_l" unicode="ffl" horiz-adv-x="1168" 
d="M671 537h149v-137h-149v-255q29 -3 83 -13v-132h-328v132q10 2 29 5t28 5v258h-208v-255q29 -3 83 -13v-132h-328v132q10 2 29 5t28 5v258h-65v121q7 1 30 4.5t35 4.5v47q0 62 38.5 105t105.5 55q50 9 161 19l16 -129q-1 0 -39 -7.5t-61 -14.5q-33 -9 -33 -47v-21h208v40
q0 62 38.5 105t105.5 55q50 9 161 19l16 -129q-1 0 -39 -7.5t-61 -14.5q-33 -9 -33 -47v-21zM1090 700v-558q33 -5 57 -10v-132h-302v132q24 5 57 10v415q-13 2 -55 11v132h243z" />
    <glyph glyph-name=".notdef" horiz-adv-x="683" 
d="M8 0l-8 9l674 691l9 -8z" />
    <glyph glyph-name=".null" horiz-adv-x="0" 
 />
    <glyph glyph-name="nonmarkingreturn" horiz-adv-x="333" 
 />
    <glyph glyph-name="space" unicode=" " horiz-adv-x="236" 
 />
    <glyph glyph-name="exclam" unicode="!" horiz-adv-x="261" 
d="M235 700v-135l-49 -319h-111l-49 319v135h209zM131 -6q-105 0 -105 96q0 98 105 98t105 -98q0 -96 -105 -96z" />
    <glyph glyph-name="quotedbl" unicode="&#x22;" horiz-adv-x="418" 
d="M196 700v-95q0 -82 -83 -221h-93v316h176zM398 700v-95q0 -82 -83 -221h-93v316h176z" />
    <glyph glyph-name="numbersign" unicode="#" horiz-adv-x="705" 
d="M574 293h89v-160h-112l-20 -133h-161l20 133h-116l-20 -133h-160l20 133h-100v160h123l17 113h-110v160h133l21 134h160l-21 -134h117l20 134h161l-21 -134h78v-160h-101zM314 406l-17 -113h116l18 113h-117z" />
    <glyph glyph-name="dollar" unicode="$" horiz-adv-x="643" 
d="M353 439l120 -29q79 -19 109.5 -56t30.5 -112v-42q0 -97 -53.5 -145t-170.5 -55v-65h-143v65q-72 4 -208 42v184h164l21 -73q33 -10 75 -11v132l-131 32q-80 23 -108.5 60.5t-28.5 125.5v9q0 98 53.5 146t170.5 54v76h143v-77q84 -5 196 -32v-199h-155l-22 77
q-22 10 -63 12v-119zM298 452v106q-35 0 -49.5 -10.5t-14.5 -37.5v-7q0 -19 9.5 -29.5t32.5 -16.5zM417 191v13q0 23 -12 34t-52 22v-118q38 1 50.5 11.5t13.5 37.5z" />
    <glyph glyph-name="percent" unicode="%" horiz-adv-x="999" 
d="M520 348l-226 -365h-70l247 365l232 375h70zM194 714h71q90 -1 125.5 -40t35.5 -135v-91q-1 -94 -36.5 -132t-124.5 -38h-71q-92 0 -128.5 38t-38.5 132v91q0 96 36.5 135.5t130.5 39.5zM251 598h-48q-28 0 -37.5 -12t-9.5 -44v-95q0 -30 9.5 -41.5t37.5 -11.5h48
q26 0 35.5 11.5t10.5 41.5v95q0 32 -9.5 44t-36.5 12zM738 422h72q90 -1 125.5 -40t35.5 -134v-91q-2 -94 -37.5 -132.5t-123.5 -38.5h-72q-91 0 -128 38.5t-38 131.5v92q0 96 36.5 135t129.5 39zM795 306h-48q-27 0 -36.5 -12t-9.5 -44v-94q0 -31 9.5 -42.5t36.5 -11.5h48
q27 0 36.5 11.5t10.5 42.5v94q0 31 -10 43.5t-37 12.5z" />
    <glyph glyph-name="ampersand" unicode="&#x26;" horiz-adv-x="706" 
d="M663 434v-139q-58 -10 -80 -11q-12 -51 -26 -83l48 -51q14 -1 85 -10v-140h-182l-34 36q-24 -29 -55 -37t-111 -8h-30q-77 0 -122 6.5t-78.5 27.5t-46.5 59t-13 102v43q0 141 121 173q-45 61 -45 105v23q0 97 54.5 140t166.5 43h28q78 0 200 -32v-173h-156l-13 50
q-19 8 -38 8h-10q-24 0 -33.5 -10t-9.5 -33v-5q0 -23 21 -49l129 -135q22 50 31 100h199zM194 248v-35q0 -38 15.5 -52t57.5 -14h32q37 0 52 19q-2 2 -121 127q-36 -8 -36 -45z" />
    <glyph glyph-name="quotesingle" unicode="'" horiz-adv-x="217" 
d="M196 700v-95q0 -82 -83 -221h-93v316h176z" />
    <glyph glyph-name="parenleft" unicode="(" horiz-adv-x="300" 
d="M184 525v-474q0 -29 5 -48.5t21.5 -36t29 -25t46.5 -28.5l-41 -83q-36 13 -52 19t-45.5 19.5t-44 23.5t-34.5 27t-29.5 35t-16.5 42.5t-7 53.5v477q0 40 13.5 72t31 51.5t53 39.5t60 29.5t71.5 26.5l41 -83q-34 -20 -46.5 -28.5t-29 -25t-21.5 -36t-5 -48.5z" />
    <glyph glyph-name="parenright" unicode=")" horiz-adv-x="311" 
d="M127 51v474q0 29 -5 48.5t-21.5 36t-29 25t-46.5 28.5l41 83q47 -17 71.5 -26.5t60 -29.5t53 -39.5t31 -51.5t13.5 -72v-477q0 -29 -7 -53.5t-16.5 -42.5t-29.5 -35t-34.5 -27t-44 -23.5t-45.5 -19.5t-52 -19l-41 83q34 20 46.5 28.5t29 25t21.5 36t5 48.5z" />
    <glyph glyph-name="asterisk" unicode="*" horiz-adv-x="425" 
d="M411 446l-53 -89l-53 32l-63 61l23 -85v-62h-105v62l23 86l-62 -62l-54 -32l-53 89l56 33l82 23l-82 21l-56 32l53 91l54 -32l61 -61l-22 84v63h105v-63l-22 -83l62 60l53 32l53 -91l-56 -32l-81 -21l81 -23z" />
    <glyph glyph-name="plus" unicode="+" horiz-adv-x="582" 
d="M30 271v154h181v180h160v-180h181v-154h-181v-181h-160v181h-181z" />
    <glyph glyph-name="comma" unicode="," horiz-adv-x="240" 
d="M20 21l23 105q13 58 72 49q58 -9 82 -27.5t24 -57.5q0 -63 -44.5 -127.5t-102.5 -113.5l-48 35q35 74 42 115z" />
    <glyph glyph-name="hyphen" unicode="-" horiz-adv-x="384" 
d="M356 388v-153h-328v153h328z" />
    <glyph glyph-name="period" unicode="." horiz-adv-x="250" 
d="M125 -6q-105 0 -105 96q0 98 105 98t105 -98q0 -96 -105 -96z" />
    <glyph glyph-name="slash" unicode="/" horiz-adv-x="471" 
d="M481 782l-392 -852h-107l392 852h107z" />
    <glyph glyph-name="zero" unicode="0" horiz-adv-x="637" 
d="M348 -14h-49q-146 0 -208 60.5t-65 206.5v186q0 150 62 212t211 62h48q144 0 204 -62.5t60 -211.5v-185q-3 -146 -62.5 -207t-200.5 -61zM311 149h15q47 0 67.5 21t21.5 70v219q0 51 -20.5 73t-68.5 22h-15q-48 0 -68.5 -22t-20.5 -73v-219q0 -49 20.5 -70t68.5 -21z" />
    <glyph glyph-name="one" unicode="1" horiz-adv-x="453" 
d="M343 708v-555q51 -5 88 -13v-140h-395v140q47 10 111 15v372l-125 -8v140l215 49h106z" />
    <glyph glyph-name="two" unicode="2" horiz-adv-x="588" 
d="M553 217v-217h-523v137q0 69 12.5 108.5t32.5 58t66 43.5q40 23 147 68q45 19 62.5 32t17.5 31v27q0 31 -12 41.5t-47 10.5q-63 0 -98 -9l-12 -53h-148v182q101 22 151 29t127 7q120 0 174 -51t54 -165v-28q0 -26 -3.5 -46t-8.5 -35t-18 -28.5t-22.5 -21.5t-33.5 -19.5
t-39.5 -18t-50.5 -20.5q-131 -52 -132 -53q-22 -13 -27.5 -28t-5.5 -55h192l14 73h131z" />
    <glyph glyph-name="three" unicode="3" horiz-adv-x="572" 
d="M545 528v-38q0 -70 -20 -103.5t-64 -43.5q44 -9 64 -39t20 -97v-35q0 -97 -56.5 -138.5t-187.5 -41.5q-126 0 -277 28v178h132l13 -55q72 -6 131 -6q37 0 49 11t12 43v25q0 46 -21.5 54.5t-117.5 8.5h-80v142h80q97 0 118 9t21 58v21q0 31 -13 42.5t-48 11.5
q-62 0 -128 -7l-13 -58h-132v181q154 30 274 30q134 0 189 -41t55 -140z" />
    <glyph glyph-name="four" unicode="4" horiz-adv-x="636" 
d="M8 337l317 363h196v-363h89v-125l-89 -15v-52q38 -4 89 -13v-132h-379v132q68 12 94 14v51h-317v140zM193 337h132v167z" />
    <glyph glyph-name="five" unicode="5" horiz-adv-x="582" 
d="M535 509h-130l-7 42h-191l-6 -141q52 39 125 39h49q90 0 136.5 -34.5t46.5 -123.5v-114q0 -98 -55.5 -144t-177.5 -46q-125 0 -303 33v174h132l13 -55q64 -5 138 -5q38 0 53.5 13t15.5 44v73q0 22 -13 34.5t-35 12.5h-51q-20 0 -37.5 -6.5t-25 -11.5t-27.5 -21l-150 41
l12 387h488v-191z" />
    <glyph glyph-name="six" unicode="6" horiz-adv-x="636" 
d="M378 443h47q104 0 148.5 -38.5t44.5 -128.5v-100q0 -98 -60 -141t-183 -43h-69q-139 0 -208.5 65.5t-71.5 204.5v175q0 276 290 276q68 0 118.5 -6.5t150.5 -24.5v-182h-164l-21 43q-47 9 -83 9q-95 0 -95 -99v-72q70 49 156 62zM222 276v-45q0 -84 89 -82h61q31 1 46 14
t15 42v45q0 55 -57 55h-33q-68 0 -121 -29z" />
    <glyph glyph-name="seven" unicode="7" horiz-adv-x="582" 
d="M570 551l-223 -551h-232v31l268 516h-216l-23 -68h-130v221h556v-149z" />
    <glyph glyph-name="eight" unicode="8" horiz-adv-x="661" 
d="M608 536v-49q0 -57 -20.5 -89.5t-69.5 -46.5q64 -13 91.5 -49.5t27.5 -103.5v-16q0 -103 -57 -149.5t-184 -46.5h-120q-132 0 -191 46.5t-61 149.5v16q0 67 28.5 103.5t94.5 49.5q-51 14 -73 46.5t-22 89.5v49q2 91 56.5 131.5t175.5 40.5h103q117 0 169 -40.5t52 -131.5
zM226 518v-43q0 -27 14.5 -38t49.5 -11h83q34 0 48 11t14 38v43q0 29 -14 41t-47 13h-84q-35 0 -49.5 -12.5t-14.5 -41.5zM441 199v44q0 29 -15 41t-49 12h-91q-35 0 -50.5 -12.5t-15.5 -40.5v-44q0 -31 15.5 -44.5t50.5 -13.5h92q33 0 48 14t15 44z" />
    <glyph glyph-name="nine" unicode="9" horiz-adv-x="636" 
d="M258 258h-47q-104 0 -148.5 38t-44.5 128v100q0 91 59.5 140t167.5 49h101q137 0 199 -66t65 -209v-176q0 -143 -70 -209t-225 -66q-44 0 -87 4.5t-72.5 9.5t-103.5 19v184h180l5 -46q50 -10 77 -10q52 0 76 23t24 74v58q-74 -45 -156 -45zM414 416v54q0 86 -90 85h-61
q-61 0 -61 -60v-44q0 -55 57 -55h34q81 0 121 20z" />
    <glyph glyph-name="colon" unicode=":" horiz-adv-x="250" 
d="M125 349q-105 0 -105 96q0 98 105 98t105 -98q0 -96 -105 -96zM125 -6q-105 0 -105 96q0 98 105 98t105 -98q0 -96 -105 -96z" />
    <glyph glyph-name="semicolon" unicode=";" horiz-adv-x="250" 
d="M125 349q-105 0 -105 96q0 98 105 98t105 -98q0 -96 -105 -96zM20 21l23 105q13 58 72 49q58 -9 82 -27.5t24 -57.5q0 -63 -44.5 -127.5t-102.5 -113.5l-48 35q35 74 42 115z" />
    <glyph glyph-name="less" unicode="&#x3c;" horiz-adv-x="482" 
d="M459 479l-259 -136v-4l259 -133v-120h-76l-363 201v103l364 201h75v-112z" />
    <glyph glyph-name="equal" unicode="=" horiz-adv-x="549" 
d="M519 534v-155h-489v155h489zM519 303v-155h-489v155h489z" />
    <glyph glyph-name="greater" unicode="&#x3e;" horiz-adv-x="482" 
d="M98 591l364 -201v-103l-363 -201h-76v120l259 133v4l-259 136v112h75z" />
    <glyph glyph-name="question" unicode="?" horiz-adv-x="537" 
d="M13 503v174q104 23 152 29.5t125 6.5q114 0 171.5 -46.5t57.5 -145.5v-19q0 -76 -24 -110t-73 -51q-26 -8 -70.5 -19.5t-61.5 -16.5v-73h-157l-18 170q114 29 161 45q54 18 54 47v18q0 32 -12.5 43t-46.5 11q-54 0 -97 -10l-13 -53h-148zM213 -6q-105 0 -105 96
q0 98 105 98t105 -98q0 -96 -105 -96z" />
    <glyph glyph-name="at" unicode="@" horiz-adv-x="982" 
d="M737 504l-47 -308q-4 -42 6 -59t42 -17q60 0 97 57.5t37 164.5q0 151 -83 229t-246 78q-108 0 -192 -32.5t-136 -90t-78.5 -132t-26.5 -162.5q0 -167 97 -252t274 -85q158 0 294 68l25 -54q-135 -78 -323 -78q-205 0 -322 102.5t-117 296.5q0 214 134 348.5t373 134.5
q191 0 295 -93.5t104 -266.5q0 -146 -71.5 -228t-206.5 -82q-22 0 -35 0.5t-32 4t-31 9.5t-23 18t-16 30q-33 -34 -64 -50t-81 -16h-14q-66 0 -105.5 42.5t-27.5 133.5l16 131q11 73 55 114.5t103 41.5h16q40 0 67 -6.5t69 -23.5l4 32h170zM528 197l20 171q-34 14 -69 14
h-11q-30 0 -44 -20.5t-20 -75.5l-3 -31q-7 -52 3.5 -70t44.5 -18h7q33 0 71 23z" />
    <glyph glyph-name="A" unicode="A" horiz-adv-x="805" 
d="M530 700l178 -547q33 -3 83 -13v-140h-365v140q43 8 63 10l-17 56h-181l-11 -55q11 -2 26 -5.5t25 -5.5v-140h-317v140q52 10 79 13l123 397q-6 1 -62 10v140h376zM381 537h-2l-54 -179h112z" />
    <glyph glyph-name="B" unicode="B" horiz-adv-x="677" 
d="M640 493v-6q0 -92 -74 -131q85 -31 85 -141v-20q0 -115 -53.5 -154.5t-191.5 -40.5h-380v140q37 7 68 12v396q-24 3 -72 12v140h375q134 0 188.5 -46.5t54.5 -160.5zM290 416h86q39 0 55.5 10.5t16.5 38.5v17q0 32 -12.5 45t-50.5 13h-95v-124zM451 222v17
q0 28 -17.5 38.5t-57.5 10.5h-86v-128h86q75 0 75 62z" />
    <glyph glyph-name="C" unicode="C" horiz-adv-x="641" 
d="M617 215v-152q-127 -77 -250 -77h-73q-136 0 -199 67t-65 209v175q0 136 68 206t202 70h52q105 0 263 -33v-226h-164l-22 95q-46 7 -113 7q-90 0 -90 -100v-215q1 -43 24.5 -68.5t65.5 -24.5h40q68 0 98 67h163z" />
    <glyph glyph-name="D" unicode="D" horiz-adv-x="706" 
d="M22 700h394q140 -1 202 -65t62 -206v-165q-2 -139 -64 -201.5t-199 -62.5h-391v140q37 7 68 12v395l-72 13v140zM485 247v203q0 44 -23.5 67t-66.5 23h-105v-380h105q42 0 65.5 22.5t24.5 64.5z" />
    <glyph glyph-name="E" unicode="E" horiz-adv-x="641" 
d="M608 700v-231h-122l-22 75h-175v-114h150v-162h-150v-112h178l22 75h122v-231h-585v140l67 11v398q-39 5 -71 11v140h586z" />
    <glyph glyph-name="F" unicode="F" horiz-adv-x="632" 
d="M611 700v-231h-122l-22 75h-178v-134h198v-162h-198v-97q5 -1 48 -4.5t56 -6.5v-140h-367v140q44 8 67 11v398q-24 2 -71 11v140h589z" />
    <glyph glyph-name="G" unicode="G" horiz-adv-x="682" 
d="M656 379v-176q0 -51 -19 -91t-47.5 -63t-65.5 -38t-67.5 -20t-59.5 -5h-99q-138 0 -202 67.5t-66 208.5v163q0 136 72 212t203 76h57q93 0 274 -33v-230h-164l-21 90q-51 6 -126 6q-45 0 -72 -30t-27 -79v-195q1 -41 25 -63.5t68 -22.5h85q32 0 52 15.5t20 44.5v15
l-149 18v130h329z" />
    <glyph glyph-name="H" unicode="H" horiz-adv-x="795" 
d="M773 700v-140q-41 -8 -71 -11v-398q42 -6 71 -11v-140h-321v140l53 9v121h-215v-121l53 -9v-140h-321v140q37 6 72 11v398q-34 3 -72 11v140h321v-140l-53 -9v-124h215v124l-53 9v140h321z" />
    <glyph glyph-name="I" unicode="I" horiz-adv-x="381" 
d="M359 700v-140q-35 -8 -70 -12v-397q31 -3 70 -11v-140h-333v140q44 8 67 11v397q-37 5 -71 12v140h337z" />
    <glyph glyph-name="J" unicode="J" horiz-adv-x="399" 
d="M378 700v-140q-32 -7 -70 -12v-432q0 -72 -21.5 -113.5t-87.5 -95.5q-43 -34 -102 -70l-83 78q17 19 47 58q31 40 41 68.5t10 75.5v431q-37 5 -71 12v140h337z" />
    <glyph glyph-name="K" unicode="K" horiz-adv-x="772" 
d="M359 700v-140q-35 -8 -70 -12v-124h107l90 127l-51 9v140h313v-140q-52 -9 -55 -9l-137 -197l136 -203q26 -4 67 -11v-140h-329v140q5 1 13 1.5t17 1.5t12 1l-76 122h-107v-115q31 -3 70 -11v-140h-333v140q44 8 67 11v397q-37 5 -71 12v140h337z" />
    <glyph glyph-name="L" unicode="L" horiz-adv-x="628" 
d="M611 0h-585v140q48 9 67 11v398q-31 4 -71 11v140h365v-140q-37 -9 -98 -14v-390h170l22 93h130v-249z" />
    <glyph glyph-name="M" unicode="M" horiz-adv-x="967" 
d="M945 700v-140q-11 -2 -35.5 -6.5t-35.5 -6.5v-396q8 -1 67 -11v-140h-309v140q3 0 23 4t30 5v313l-161 -462h-121l-143 462v-311q3 0 61 -11v-140h-295v140q38 8 68 12v394q-8 1 -18.5 3t-26.5 5.5t-27 5.5v140h318l131 -401h2l139 401h333z" />
    <glyph glyph-name="N" unicode="N" horiz-adv-x="798" 
d="M776 700v-140q-25 -5 -71 -13v-547h-201l-238 374v-225q10 -1 30 -5t23 -4v-140h-293v140q38 8 68 11v395q-9 2 -33 6.5t-39 7.5v140h252l258 -395v246q-10 1 -29 4.5t-25 4.5v140h298z" />
    <glyph glyph-name="O" unicode="O" horiz-adv-x="699" 
d="M405 -14h-103q-140 0 -207 69t-69 210v162q0 145 67 215.5t209 70.5h103q138 0 203 -71t65 -215v-161q-1 -141 -66.5 -210.5t-201.5 -69.5zM314 154h70q48 0 70 22t23 73v198q0 53 -22 76t-71 23h-70q-92 0 -92 -99v-198q0 -51 22 -73t70 -22z" />
    <glyph glyph-name="P" unicode="P" horiz-adv-x="667" 
d="M22 700h380q133 -1 189 -51t56 -168v-53q-2 -110 -58 -157t-186 -47h-113v-71q31 -3 79 -13v-140h-343v140q44 8 68 11v397q-24 3 -72 12v140zM463 444v26q0 38 -17.5 54t-57.5 16h-98v-163h98q39 0 56.5 15.5t18.5 51.5z" />
    <glyph glyph-name="Q" unicode="Q" horiz-adv-x="699" 
d="M302 713h103q138 0 203 -71t65 -215v-161q-1 -141 -66.5 -210.5t-201.5 -69.5h-103q-140 0 -207 69t-69 210v162q0 145 67 215.5t209 70.5zM384 549h-70q-92 0 -92 -99v-204q0 -51 22 -73t70 -22h70q48 0 70 22t23 73v204q0 53 -22 76t-71 23zM262 -146v77q111 24 221 36
q84 9 130.5 -11t85.5 -76l-135 -105q-24 33 -54 50.5t-52 21.5t-61 7q-51 4 -135 0z" />
    <glyph glyph-name="R" unicode="R" horiz-adv-x="718" 
d="M22 700h392q135 0 193 -47.5t58 -163.5v-49q0 -67 -23.5 -107.5t-68.5 -70.5q37 -50 61 -111l64 -11v-140h-270v126q-18 81 -37 108h-101v-88l43 -6v-140h-307v140q58 10 68 11v397q-24 3 -72 12v140zM290 388h110q74 0 75 57v33q0 62 -75 62h-110v-152z" />
    <glyph glyph-name="S" unicode="S" horiz-adv-x="643" 
d="M202 222l21 -76q37 -11 97 -11h17q48 0 63.5 10t16.5 41v13q0 25 -14.5 36.5t-61.5 24.5l-174 44q-80 24 -108.5 62.5t-28.5 129.5v9q0 109 62.5 158.5t201.5 49.5h37q125 0 262 -35v-206h-155l-22 80q-25 12 -78 12h-40q-36 0 -50 -10.5t-14 -38.5v-7q0 -37 42 -48
l197 -48q78 -19 109 -57.5t31 -116.5v-43q0 -109 -63 -158.5t-201 -49.5h-52q-69 0 -116 9t-143 36v190h164z" />
    <glyph glyph-name="T" unicode="T" horiz-adv-x="697" 
d="M683 462h-132l-17 83h-87v-394q41 -3 76 -11v-140h-345v140q29 5 73 11v394h-88l-16 -83h-133v238h669v-238z" />
    <glyph glyph-name="U" unicode="U" horiz-adv-x="745" 
d="M728 700v-140q-20 -4 -58 -10v-288q-1 -151 -60.5 -213.5t-203.5 -62.5h-46q-148 0 -209.5 62t-63.5 213v288q-27 3 -69 11v140h341v-140q-37 -8 -76 -12v-309q0 -43 23.5 -68t65.5 -25h29q42 0 65.5 25.5t23.5 67.5v312q-3 0 -55 9v140h293z" />
    <glyph glyph-name="V" unicode="V" horiz-adv-x="773" 
d="M760 700v-140q-39 -8 -67 -11l-169 -549h-280l-171 550q-24 2 -60 10v140h349v-140q-31 -5 -68 -10l96 -350h14l93 350q-27 3 -68 10v140h331z" />
    <glyph glyph-name="W" unicode="W" horiz-adv-x="1005" 
d="M1000 700v-140q-39 -8 -56 -10l-141 -550h-240l-61 336h-3l-67 -336h-237l-138 551l-52 9v140h323v-140l-61 -9l64 -321h10l100 470h150l98 -465h9l71 316q-10 2 -31.5 5t-28.5 4v140h291z" />
    <glyph glyph-name="X" unicode="X" horiz-adv-x="729" 
d="M507 348l161 -200q13 -2 49 -8v-140h-322v140l30 3l-80 114h-1l-59 -109q8 -2 24 -4t24 -4v-140h-305v140q44 8 60 10l142 194l-171 208l-47 8v140h341v-140q-6 -1 -19 -2.5t-19 -2.5l81 -115h2l67 111l-53 9v140h305v-140q-53 -10 -62 -11z" />
    <glyph glyph-name="Y" unicode="Y" horiz-adv-x="716" 
d="M322 700v-140l-41 -6l82 -169h3l87 167q-11 1 -48 8v140h298v-140q-24 -5 -70 -13l-182 -309v-87q31 -3 70 -11v-140h-333v140q44 8 67 11v79l-183 320q-19 2 -59 10v140h309z" />
    <glyph glyph-name="Z" unicode="Z" horiz-adv-x="629" 
d="M602 700v-133l-319 -417h166l24 113h136v-263h-587v113q0 40 26 70l317 368h-184l-24 -98h-135v247h580z" />
    <glyph glyph-name="bracketleft" unicode="[" horiz-adv-x="309" 
d="M295 725v-124h-101v-627h101v-119h-269v870h269z" />
    <glyph glyph-name="backslash" unicode="\" horiz-adv-x="471" 
d="M489 -70h-107l-392 852h107z" />
    <glyph glyph-name="bracketright" unicode="]" horiz-adv-x="309" 
d="M283 725v-870h-269v119h101v627h-101v124h269z" />
    <glyph glyph-name="asciicircum" unicode="^" horiz-adv-x="430" 
d="M260 701l156 -194v-62h-107l-89 108h-4l-88 -108h-114v62l160 194h86z" />
    <glyph glyph-name="underscore" unicode="_" horiz-adv-x="590" 
d="M592 -62v-93h-594v93h594z" />
    <glyph glyph-name="grave" unicode="`" 
d="M374 628l-77 -48l-173 106v25l136 67z" />
    <glyph glyph-name="a" unicode="a" horiz-adv-x="629" 
d="M555 143l56 -10v-132h-244v64q-88 -73 -167 -73h-15q-39 0 -62 4t-45.5 18.5t-32.5 46.5t-10 83v22q0 43 11.5 71t36.5 42.5t48 20t62 10.5q9 1 174 18v21q0 65 -68 65q-49 0 -74 -6l-8 -47h-140v165q120 23 247 23h48q86 0 134.5 -51.5t48.5 -140.5v-214zM272 128h13
q40 0 82 38v80q-7 -1 -25 -3.5t-34 -5.5t-31 -6q-50 -8 -50 -46v-17q0 -22 10 -31t35 -9z" />
    <glyph glyph-name="b" unicode="b" horiz-adv-x="642" 
d="M273 700v-195q40 18 56 24.5t46 13t64 6.5h15q69 0 113.5 -43.5t44.5 -127.5v-183q0 -203 -184 -203h-12q-92 0 -331 13v552q-18 3 -56 11v132h244zM424 235v56q0 68 -10 90.5t-46 22.5h-14q-40 0 -81 -20v-242q43 -5 79 -5h13q37 0 48 19t11 79z" />
    <glyph glyph-name="c" unicode="c" horiz-adv-x="553" 
d="M526 184v-132q-107 -66 -219 -66h-49q-118 0 -173 55t-55 169v129q0 102 60 156t168 54h57q83 0 205 -25v-205h-141l-16 89q-36 3 -74 3q-36 0 -53.5 -18.5t-17.5 -61.5v-135q0 -41 17 -56t50 -15h18q52 0 66 41l4 18h153z" />
    <glyph glyph-name="d" unicode="d" horiz-adv-x="632" 
d="M557 143l57 -10v-132h-245v70q-30 -24 -52 -38.5t-55.5 -27.5t-66.5 -13h-15q-69 0 -109.5 49.5t-40.5 153.5v173q0 84 45 131.5t113 47.5h15q51 0 82.5 -10t83.5 -38v73q-49 11 -59 12v116h247v-557zM275 152h13q39 0 81 26v197q-38 18 -81 18h-13q-35 0 -46 -16.5
t-11 -55.5v-73q0 -61 10.5 -78.5t46.5 -17.5z" />
    <glyph glyph-name="e" unicode="e" horiz-adv-x="587" 
d="M284 549h34q123 0 180.5 -53.5t57.5 -166.5v-125h-341v-23q0 -65 70 -65h36q54 0 65 37l5 25h150v-126q-92 -66 -220 -66h-33q-142 0 -200 57.5t-58 196.5v79q0 118 62.5 174t191.5 56zM387 314v50q0 29 -19.5 45t-51.5 16h-29q-33 0 -52.5 -17t-19.5 -47v-47h172z" />
    <glyph glyph-name="f" unicode="f" horiz-adv-x="445" 
d="M275 400v-255q29 -3 83 -13v-132h-328v132q10 2 29 5t28 5v258h-65v121q7 1 30 4.5t35 4.5v47q0 62 38.5 105t105.5 55q50 9 161 19l16 -129q-1 0 -39 -7.5t-61 -14.5q-33 -9 -33 -47v-21h149v-137h-149z" />
    <glyph glyph-name="g" unicode="g" horiz-adv-x="625" 
d="M611 537v-113q-10 -2 -25.5 -6t-24.5 -6q3 -12 3 -36v-31q0 -87 -51.5 -124.5t-167.5 -37.5h-73q-40 0 -68 10q-11 -6 -11 -15v-7q0 -18 50 -18h202q80 0 119 -33t39 -103v-19q0 -194 -257 -194h-102q-132 0 -176.5 20t-44.5 74v20q0 43 13.5 70.5t55.5 51.5
q-36 28 -36 73v18q0 57 58 97q-55 36 -55 128v24q0 95 55 132t190 37h17q86 0 131 -12h159zM383 349v41q0 27 -13.5 36.5t-46.5 9.5h-12q-37 0 -53 -9.5t-16 -36.5v-41q0 -27 15.5 -35t53.5 -8h6q36 0 51 8t15 35zM405 11h-151q-39 0 -51 1q-25 -18 -25 -36v-11
q0 -19 10 -25.5t36 -6.5h144q42 0 58 8.5t16 29.5v12q0 17 -7.5 22.5t-29.5 5.5z" />
    <glyph glyph-name="h" unicode="h" horiz-adv-x="692" 
d="M615 403v-260q9 -2 59 -11v-132h-247v299q0 60 -8.5 75.5t-44.5 15.5h-12q-36 0 -87 -30v-218q33 -5 57 -10v-132h-302v132q24 5 57 10v415q-13 2 -55 11v132h243v-234q111 83 188 83h13q66 0 102.5 -38t36.5 -108z" />
    <glyph glyph-name="i" unicode="i" horiz-adv-x="350" 
d="M180 581q-44 0 -74 26.5t-30 68.5t30 68.5t74 26.5q45 0 75 -26t30 -69q0 -42 -30.5 -68.5t-74.5 -26.5zM275 537v-395q33 -5 57 -10v-132h-302v132q24 5 57 10v252q-13 2 -55 11v132h243z" />
    <glyph glyph-name="j" unicode="j" horiz-adv-x="320" 
d="M178 771q45 0 75 -26t30 -69q0 -42 -30 -68.5t-75 -26.5q-44 0 -74 26.5t-30 68.5t30 68.5t74 26.5zM278 537v-431q0 -67 -21 -104.5t-88 -92.5q-45 -36 -102 -72l-75 78q4 5 18.5 22.5t28.5 36.5q31 41 41 66t10 68v285q-28 5 -60 12v132h248z" />
    <glyph glyph-name="k" unicode="k" horiz-adv-x="685" 
d="M275 700v-355h88l31 54l-21 3t-18 3v132h300v-132q-18 -5 -59 -11l-83 -114l93 -138l56 -10v-132h-253v130l-46 77h-88v-65q33 -5 57 -10v-132h-302v132q24 5 57 10v415q-13 2 -55 11v132h243z" />
    <glyph glyph-name="l" unicode="l" horiz-adv-x="353" 
d="M275 700v-558q33 -5 57 -10v-132h-302v132q24 5 57 10v415q-13 2 -55 11v132h243z" />
    <glyph glyph-name="m" unicode="m" horiz-adv-x="1003" 
d="M926 403v-260q3 -1 59 -11v-132h-247v299q0 60 -8.5 75.5t-43.5 15.5h-12q-32 0 -78 -28v-219q2 0 59 -11v-132h-247v299q0 61 -8 76t-44 15h-12q-28 0 -69 -26v-222q33 -5 57 -10v-132h-302v132q24 5 57 10v252q-13 2 -55 11v132h243v-59q94 71 170 71h13q99 0 127 -85
q111 85 190 85h13q65 0 101.5 -38t36.5 -108z" />
    <glyph glyph-name="n" unicode="n" horiz-adv-x="692" 
d="M615 403v-260q14 -3 59 -11v-132h-247v299q0 60 -8.5 75.5t-44.5 15.5h-12q-36 0 -87 -30v-218q33 -5 57 -10v-132h-302v132q24 5 57 10v252q-13 2 -55 11v132h243v-71q111 83 188 83h13q66 0 102.5 -38t36.5 -108z" />
    <glyph glyph-name="o" unicode="o" horiz-adv-x="620" 
d="M333 -14h-36q-148 0 -207 59t-60 204v30q0 150 58.5 210t208.5 60h35q145 0 201.5 -60t56.5 -210v-29q-1 -146 -57.5 -205t-199.5 -59zM291 121h37q38 0 56 16.5t18 53.5v149q0 39 -17.5 56.5t-56.5 17.5h-37q-38 0 -55.5 -17.5t-17.5 -56.5v-149q0 -37 17.5 -53.5
t55.5 -16.5z" />
    <glyph glyph-name="p" unicode="p" horiz-adv-x="644" 
d="M451 549h15q69 0 109 -49t40 -153v-183q0 -84 -44.5 -128t-113.5 -44h-16q-21 0 -38 1.5t-35.5 6.5t-28 8t-32.5 11.5t-32 11.5v-81q7 -1 35.5 -4.5t39.5 -5.5v-132h-320v132q24 5 57 10v444q-13 2 -55 11v132h243v-60q38 25 54.5 35t53 23.5t68.5 13.5zM427 243v50
q0 61 -9.5 79t-46.5 18h-13q-39 0 -83 -26v-206q39 -20 81 -20h15q36 0 46 19.5t10 85.5z" />
    <glyph glyph-name="q" unicode="q" horiz-adv-x="631" 
d="M555 537v-587q38 -6 58 -10v-132h-315v132q36 4 69 10v81q-9 -3 -31.5 -11.5t-32 -11.5t-27.5 -8t-35 -6.5t-38 -1.5h-15q-69 0 -113.5 44t-44.5 128v183q0 202 184 202h12q77 0 329 -12zM274 138h14q40 0 79 20v236q-45 4 -77 4h-13q-37 0 -48 -18.5t-11 -78.5v-50
q0 -68 10 -90.5t46 -22.5z" />
    <glyph glyph-name="r" unicode="r" horiz-adv-x="486" 
d="M275 537v-94q1 2 15 20t17.5 22t16 18.5t19.5 19t19.5 12.5t25 10.5t26.5 2.5h58v-176q-59 -3 -120 -8q-46 -2 -77 -29v-193l63 -10v-132h-308v132q24 5 57 10v252q-13 2 -55 11v132h243z" />
    <glyph glyph-name="s" unicode="s" horiz-adv-x="550" 
d="M27 368v22q0 82 54.5 120.5t167.5 38.5h18q142 0 238 -32v-150h-154l-13 52q-26 7 -70 7q-67 0 -67 -33v-6q0 -17 16.5 -23.5t83.5 -18.5q40 -7 65 -12q85 -16 121 -48t36 -85v-34q0 -93 -54 -136.5t-167 -43.5h-39q-159 0 -236 54v147h150l5 -38q9 -17 31 -26.5t44 -9.5
h29q55 0 55 42v8q0 21 -25 30.5t-130 28.5q-91 16 -125 50.5t-34 95.5z" />
    <glyph glyph-name="t" unicode="t" horiz-adv-x="455" 
d="M318 146h11q63 0 96 2v-108q-31 -22 -89 -38t-108 -16h-13q-63 0 -98.5 39t-35.5 109v265h-62v130h33q26 0 41.5 19.5t15.5 52.5v67q80 15 160 16v-147h149v-138h-149v-168q0 -56 8 -70.5t41 -14.5z" />
    <glyph glyph-name="u" unicode="u" horiz-adv-x="685" 
d="M608 143l58 -10v-132h-246v76q-39 -25 -58 -36t-58 -26t-71 -15h-14q-75 0 -106.5 33t-31.5 114v247l-59 11v132h247v-287q0 -60 8 -75t44 -15h12q36 0 87 30v204q-3 1 -59 11v132h247v-394z" />
    <glyph glyph-name="v" unicode="v" horiz-adv-x="652" 
d="M644 537v-132q-47 -11 -71 -13l-155 -392h-199l-149 393q-27 4 -62 12v132h297v-132q-7 -1 -21.5 -3t-22.5 -3l73 -244h1l93 240q-45 8 -52 10v132h268z" />
    <glyph glyph-name="w" unicode="w" horiz-adv-x="898" 
d="M886 537v-132q-19 -4 -53 -10l-101 -395h-223l-73 238l-68 -238h-203l-101 395q-41 8 -52 10v132h262v-132l-42 -7l47 -227h2l96 366h143l107 -366h1l49 224q-34 6 -53 10v132h262z" />
    <glyph glyph-name="x" unicode="x" horiz-adv-x="637" 
d="M461 264l95 -120q23 -2 69 -12v-132h-305v132q10 2 32 4l-58 79h-1l-53 -77l42 -6v-132h-270v132q7 2 52 10l114 124l-99 127q-32 4 -67 12v132h305v-132q-26 -4 -33 -5l56 -79h1l54 77q-33 5 -40 7v132h270v-132q-15 -3 -57 -10z" />
    <glyph glyph-name="y" unicode="y" horiz-adv-x="677" 
d="M669 537v-132q-34 -8 -70 -13l-198 -442q13 -1 51 -5v-131h-334v131q47 5 92 7l24 49l-173 394q-39 7 -53 10v132h321v-132q-31 -6 -68 -10l82 -223h2l102 223q-41 8 -52 10v132h274z" />
    <glyph glyph-name="z" unicode="z" horiz-adv-x="567" 
d="M542 537v-132l-281 -270h155l22 68h104v-203h-520v103q0 48 40 78l256 223h-159l-11 -60h-106v193h500z" />
    <glyph glyph-name="braceleft" unicode="{" horiz-adv-x="390" 
d="M263 525v-474q0 -29 5 -48.5t21.5 -36t29 -25t46.5 -28.5l-41 -83q-36 13 -52 19t-45.5 19.5t-44 23.5t-34.5 27t-29.5 35t-16.5 42.5t-7 53.5v160l-79 19v136l79 19v143q0 40 13.5 72t31 51.5t53 39.5t60 29.5t71.5 26.5l41 -83q-34 -20 -46.5 -28.5t-29 -25t-21.5 -36
t-5 -48.5z" />
    <glyph glyph-name="bar" unicode="|" horiz-adv-x="260" 
d="M168 781v-922h-76v922h76z" />
    <glyph glyph-name="braceright" unicode="}" horiz-adv-x="390" 
d="M127 51v474q0 29 -5 48.5t-21.5 36t-29 25t-46.5 28.5l41 83q47 -17 71.5 -26.5t60 -29.5t53 -39.5t31 -51.5t13.5 -72v-143l79 -19v-136l-79 -19v-160q0 -29 -7 -53.5t-16.5 -42.5t-29.5 -35t-34.5 -27t-44 -23.5t-45.5 -19.5t-52 -19l-41 83q34 20 46.5 28.5t29 25
t21.5 36t5 48.5z" />
    <glyph glyph-name="exclamdown" unicode="&#xa1;" horiz-adv-x="261" 
d="M131 630q105 0 105 -96q0 -98 -105 -98t-105 98q0 96 105 96zM26 -76v135l49 319h111l49 -319v-135h-209z" />
    <glyph glyph-name="cent" unicode="&#xa2;" horiz-adv-x="553" 
d="M526 184v-132q-75 -47 -163 -62v-55h-143v53q-98 8 -144 63t-46 159v129q0 95 52 148t146 61v57h143v-58q57 -4 149 -23v-205h-141l-16 89q-9 0 -24 1t-24 2v-285q41 3 54 40l4 18h153zM218 331v-135q0 -68 57 -71v285q-57 -6 -57 -79z" />
    <glyph glyph-name="sterling" unicode="&#xa3;" horiz-adv-x="622" 
d="M603 0h-578v140q2 2 10.5 10t11.5 11t10.5 11t10.5 12.5t8.5 12.5t8 14.5t5 15t3.5 17t0 18.5l-1 16h-76v107h78l-6 68q-2 47 1 81t16 69.5t38 58t69.5 37t107.5 14.5h21q105 0 263 -33l-24 -202h-147l-13 72q-29 7 -89 7q-33 0 -45 -22t-6 -68l10 -82h154l-16 -107h-129
l2 -19q1 -9 -1 -17.5t-3.5 -14.5t-7.5 -14.5t-9 -12t-12 -12t-11.5 -10.5t-14.5 -11.5t-13 -10.5h221l22 93h131v-249z" />
    <glyph glyph-name="yen" unicode="&#xa5;" horiz-adv-x="716" 
d="M703 700v-140q-24 -5 -70 -13l-96 -163h89v-67h-128l-26 -43h154v-67h-175v-56q31 -3 70 -11v-140h-333v140q44 8 67 11v56h-165v67h140l-25 43h-115v67h77l-95 166q-19 2 -59 10v140h309v-140l-41 -6l82 -169h3l87 167q-11 1 -48 8v140h298z" />
    <glyph glyph-name="section" unicode="&#xa7;" horiz-adv-x="657" 
d="M286 515l204 -34q82 -14 111 -37t29 -89v-38q0 -66 -69 -91q16 -25 16 -72v-10q0 -89 -45.5 -123t-171.5 -34h-28q-109 0 -229 35v145h137l8 -40q31 -14 77 -14h33q31 0 43 8t12 27v8q0 15 -6 20t-27 9l-209 34q-81 14 -110.5 37.5t-29.5 88.5v38q0 60 82 91
q-26 24 -26 72v10q0 90 44.5 123.5t168.5 33.5h27q112 0 229 -34v-145h-131l-7 38q-8 6 -39.5 10.5t-57.5 4.5h-19q-31 0 -41 -8t-10 -26v-9q0 -14 6.5 -19t28.5 -10zM175 382v-18q0 -17 6.5 -22.5t29.5 -9.5l216 -36q22 -2 40 -7q20 8 20 29v19q0 16 -6.5 21.5t-29.5 9.5
l-230 39q-6 1 -23 5q-23 -11 -23 -30z" />
    <glyph glyph-name="dieresis" unicode="&#xa8;" 
d="M143 600q-36 0 -61.5 21t-25.5 55t25.5 56t61.5 22t60 -21.5t24 -56.5q0 -34 -24 -55t-60 -21zM356 600q-35 0 -59 21t-24 55q0 35 24 56.5t59 21.5q37 0 62 -21.5t25 -56.5q0 -34 -25 -55t-62 -21z" />
    <glyph glyph-name="copyright" unicode="&#xa9;" horiz-adv-x="774" 
d="M387 -15q-172 0 -268.5 96.5t-96.5 268.5t96.5 268.5t268.5 96.5t268.5 -96.5t96.5 -268.5t-96.5 -268.5t-268.5 -96.5zM387 37q145 0 225.5 83.5t80.5 229.5t-80.5 229.5t-225.5 83.5t-225.5 -83.5t-80.5 -229.5t80.5 -229.5t225.5 -83.5zM559 275v-95q-78 -46 -159 -46
h-43q-79 0 -123 44t-46 124v87q0 81 44.5 124.5t125.5 43.5h36q59 0 163 -21v-135h-104l-13 52q-24 7 -69 7q-58 0 -58 -63v-102q0 -58 58 -58h22q43 0 63 38h103z" />
    <glyph glyph-name="ordfeminine" unicode="&#xaa;" horiz-adv-x="470" 
d="M271 297v46q-27 -19 -38.5 -26.5t-37 -17t-50.5 -9.5h-11q-30 0 -46.5 2.5t-34 12.5t-24.5 33t-7 61v19q0 59 29.5 81.5t88.5 28.5q77 7 131 9v20q0 51 -52 51q-39 0 -59 -5l-4 -38h-103v124q100 19 184 19h36q64 0 99.5 -39t35.5 -105v-163q14 -1 44 -7v-97h-181z
M197 390h10q29 0 64 20v72q-51 -5 -74 -10q-37 -6 -37 -37v-13q0 -19 7.5 -25.5t29.5 -6.5z" />
    <glyph glyph-name="guillemotleft" unicode="&#xab;" horiz-adv-x="571" 
d="M202 259l86 -146v-57h-115l-146 203v12l146 203h115v-59l-86 -144v-12zM431 259l86 -146v-57h-115l-146 203v12l146 203h115v-59l-86 -144v-12z" />
    <glyph glyph-name="registered" unicode="&#xae;" horiz-adv-x="424" 
d="M212 715q94 0 146 -52t52 -146t-52 -146t-146 -52t-146 52t-52 146t52 146t146 52zM212 678q-77 0 -117.5 -41t-40.5 -120t40.5 -120t117.5 -41t117.5 41t40.5 120t-40.5 120t-117.5 41zM118 620h116q70 0 70 -61v-13q0 -43 -28 -52l15 -25q1 0 9.5 -1.5t13.5 -2.5v-42
h-77v14q-6 22 -19 50h-22v-20l14 -2v-42h-91v42l19 3v107q-10 0 -20 3v42zM196 573v-42h28q19 0 19 15v11q0 16 -20 16h-27z" />
    <glyph glyph-name="macron" unicode="&#xaf;" 
d="M400 709v-105h-300v105h300z" />
    <glyph glyph-name="degree" unicode="&#xb0;" horiz-adv-x="447" 
d="M258 338h-67q-159 0 -161 158v56q0 162 161 162h67q159 -2 159 -162v-56q-5 -158 -159 -158zM205 438h36q55 0 59 56v60q0 64 -59 64h-36q-60 0 -60 -64v-60q0 -29 14 -42.5t46 -13.5z" />
    <glyph glyph-name="twosuperior" unicode="&#xb2;" horiz-adv-x="406" 
d="M374 429v-141h-346v89q0 98 67 132q22 11 94 32q41 10 53.5 16t12.5 21v7q0 14 -6.5 18.5t-27.5 4.5q-50 0 -74 -4l-9 -35h-97v119q69 14 100 17.5t88 3.5q81 0 114.5 -25t33.5 -94v-22q0 -37 -17 -65t-71 -44q-48 -12 -61 -16q-9 -3 -25.5 -7t-22 -5.5t-15 -6t-12.5 -9
t-6 -12t-3 -17.5h135l10 43h85z" />
    <glyph glyph-name="threesuperior" unicode="&#xb3;" horiz-adv-x="394" 
d="M366 594v-14q0 -79 -62 -98q33 -4 47.5 -20.5t14.5 -52.5v-11q0 -63 -38 -88.5t-128 -25.5q-82 0 -178 17v120h90l9 -36q32 -3 82 -3q22 0 30.5 7t8.5 24v10q0 18 -11 24t-38 6h-81v85h82q26 0 37 6.5t11 23.5v11q0 18 -8 24.5t-31 6.5q-49 0 -84 -4l-9 -34h-86v119
q93 18 176 18q94 0 130 -24.5t36 -90.5z" />
    <glyph glyph-name="acute" unicode="&#xb4;" 
d="M397 711v-25l-173 -106l-77 48l114 150z" />
    <glyph glyph-name="paragraph" unicode="&#xb6;" horiz-adv-x="629" 
d="M613 700v-140q-14 -4 -68 -15v-635h-132v663h-49v-663h-132v344h-6q-104 0 -156.5 46.5t-53.5 154.5v36q0 113 52 161t158 48h387z" />
    <glyph glyph-name="periodcentered" unicode="&#xb7;" horiz-adv-x="250" 
d="M125 176q-105 0 -105 96q0 98 105 98t105 -98q0 -96 -105 -96z" />
    <glyph glyph-name="cedilla" unicode="&#xb8;" 
d="M240 -33h40q41 0 60.5 -15.5t19.5 -50.5v-17q0 -47 -21.5 -63t-77.5 -17q-62 0 -120 17v52h114q19 0 19 17v3q0 16 -19 16h-90l12 91h63v-33z" />
    <glyph glyph-name="onesuperior" unicode="&#xb9;" horiz-adv-x="335" 
d="M250 709v-322q27 -2 62 -8v-91h-276v91q45 8 78 9v213l-87 -7v81l146 34h77z" />
    <glyph glyph-name="ordmasculine" unicode="&#xba;" horiz-adv-x="449" 
d="M241 288h-27q-110 0 -153 42t-45 149v33q0 111 43 154t155 43h27q108 0 150 -43t42 -154v-33q-2 -107 -44 -149t-148 -42zM210 387h28q31 0 43.5 12.5t13.5 43.5v108q0 33 -13 46.5t-44 13.5h-28q-31 0 -44 -13.5t-13 -46.5v-108q0 -31 13 -43.5t44 -12.5z" />
    <glyph glyph-name="guillemotright" unicode="&#xbb;" horiz-adv-x="571" 
d="M63 415v59h115l146 -203v-12l-146 -203h-115v57l86 146v12zM291 415v59h115l146 -203v-12l-146 -203h-115v57l86 146v12z" />
    <glyph glyph-name="onequarter" unicode="&#xbc;" horiz-adv-x="839" 
d="M690 723l-253 -375l-226 -365h-70l247 365l232 375h70zM250 709v-322q30 -3 64 -8v-91h-280v91q47 8 80 9v213l-87 -7v81l146 34h77zM748 123v-29q29 -1 61 -8v-86h-263v86q32 6 66 9v28h-203v92l203 199h136v-199h62v-82zM612 325l-94 -110h94v110z" />
    <glyph glyph-name="onehalf" unicode="&#xbd;" horiz-adv-x="877" 
d="M439 348l-226 -365h-70l247 365l232 375h70zM250 709v-322q30 -3 64 -8v-91h-280v91q47 8 80 9v213l-87 -7v81l146 34h77zM845 0h-346v89q0 54 13.5 85t46.5 47q30 15 101 31q40 10 53 16.5t13 21.5v7q0 14 -6.5 18.5t-27.5 4.5q-50 0 -74 -4l-9 -35h-97v119
q69 14 100 17.5t88 3.5q81 0 114.5 -25t33.5 -94v-34q0 -71 -88 -97q-31 -8 -61 -17q-6 -2 -19.5 -5.5t-17.5 -4.5t-13 -4.5t-11.5 -5.5t-8 -6t-6.5 -8.5t-2.5 -10.5t-1.5 -14h131l10 46h85v-141z" />
    <glyph glyph-name="threequarters" unicode="&#xbe;" horiz-adv-x="869" 
d="M714 723l-253 -375l-226 -365h-70l247 365l232 375h70zM366 594v-14q0 -79 -62 -98q33 -4 47.5 -20.5t14.5 -52.5v-11q0 -63 -38 -88.5t-128 -25.5q-82 0 -178 17v120h90l9 -36q32 -3 82 -3q22 0 30.5 7t8.5 24v10q0 18 -11 25t-38 7h-81v83h82q26 0 37 6.5t11 23.5v11
q0 18 -8 24.5t-31 6.5q-49 0 -84 -4l-9 -34h-86v119q93 18 176 18q94 0 130 -24.5t36 -90.5zM779 123v-29q29 -1 61 -8v-86h-263v86q31 6 66 9v28h-203v92l203 199h136v-199h62v-82zM643 325l-94 -110h94v110z" />
    <glyph glyph-name="questiondown" unicode="&#xbf;" horiz-adv-x="537" 
d="M324 630q105 0 105 -96q0 -98 -105 -98t-105 98q0 96 105 96zM524 121v-174q-104 -23 -152 -29.5t-125 -6.5q-114 0 -171.5 46.5t-57.5 145.5v19q0 76 24 110t73 51q26 8 70.5 19.5t61.5 16.5v73h157l18 -170q-114 -29 -161 -45q-54 -18 -54 -47v-18q0 -32 12.5 -43
t46.5 -11q54 0 97 10l13 53h148z" />
    <glyph glyph-name="Agrave" unicode="&#xc0;" horiz-adv-x="805" 
d="M480 785l-77 -48l-173 106v25l136 67zM530 700l178 -547q33 -3 83 -13v-140h-365v140q43 8 63 10l-17 56h-181l-11 -55q11 -2 26 -5.5t25 -5.5v-140h-317v140q52 10 79 13l123 397q-6 1 -62 10v140h376zM379 537l-54 -179h112l-56 179h-2z" />
    <glyph glyph-name="Aacute" unicode="&#xc1;" horiz-adv-x="805" 
d="M531 869v-26l-180 -110l-81 50l118 156zM530 700l178 -547q33 -3 83 -13v-140h-365v140q43 8 63 10l-17 56h-181l-11 -55q11 -2 26 -5.5t25 -5.5v-140h-317v140q52 10 79 13l123 397q-6 1 -62 10v140h376zM379 537l-54 -179h112l-56 179h-2z" />
    <glyph glyph-name="Acircumflex" unicode="&#xc2;" horiz-adv-x="805" 
d="M506 737l-126 83l-126 -83l-57 50l123 135h121l122 -135zM530 700l178 -547q33 -3 83 -13v-140h-365v140q43 8 63 10l-17 56h-181l-11 -55q11 -2 26 -5.5t25 -5.5v-140h-317v140q52 10 79 13l123 397q-6 1 -62 10v140h376zM379 537l-54 -179h112l-56 179h-2z" />
    <glyph glyph-name="Atilde" unicode="&#xc3;" horiz-adv-x="805" 
d="M585 855l-78 -87q-24 -25 -65 -25q-11 0 -18 1t-17 6.5t-17 10t-27 19.5t-37 27l-91 -58l-57 50l66 75q35 39 75 39q16 0 29 -4.5t19.5 -8t31 -22.5t38.5 -29l91 55zM530 700l178 -547q33 -3 83 -13v-140h-365v140q43 8 63 10l-17 56h-181l-11 -55q11 -2 26 -5.5t25 -5.5
v-140h-317v140q52 10 79 13l123 397q-6 1 -62 10v140h376zM379 537l-54 -179h112l-56 179h-2z" />
    <glyph glyph-name="Adieresis" unicode="&#xc4;" horiz-adv-x="805" 
d="M264 749q-40 0 -67 23.5t-27 60.5q0 38 27 62t67 24t66.5 -24t26.5 -62t-26.5 -61t-66.5 -23zM497 749q-39 0 -65.5 23.5t-26.5 60.5q0 38 26.5 62t65.5 24q40 0 67 -24t27 -62t-27 -61t-67 -23zM530 700l178 -547q33 -3 83 -13v-140h-365v140q43 8 63 10l-17 56h-181
l-11 -55q11 -2 26 -5.5t25 -5.5v-140h-317v140q52 10 79 13l123 397q-6 1 -62 10v140h376zM379 537l-54 -179h112l-56 179h-2z" />
    <glyph glyph-name="Aring" unicode="&#xc5;" horiz-adv-x="805" 
d="M403 723h-45q-44 0 -68.5 23.5t-24.5 68.5v31q0 92 93 92h45q93 0 93 -92v-31q-2 -92 -93 -92zM365 790h30q25 0 28 27v27q0 31 -28 31h-30q-28 0 -28 -31v-27q0 -27 28 -27zM530 700l178 -547q33 -3 83 -13v-140h-365v140q43 8 63 10l-17 56h-181l-11 -55q11 -2 26 -5.5
t25 -5.5v-140h-317v140q52 10 79 13l123 397q-6 1 -62 10v140h376zM379 537l-54 -179h112l-56 179h-2z" />
    <glyph glyph-name="AE" unicode="&#xc6;" horiz-adv-x="1048" 
d="M696 427h150v-156h-150v-115h178l22 75h122v-231h-585v140l67 11v77h-170l-41 -80q16 -2 50 -8v-140h-325v140q38 8 81 13l211 392q-32 5 -82 15v140h791v-231h-122l-22 75h-175v-117zM500 544h-15l-109 -217h124v217z" />
    <glyph glyph-name="Ccedilla" unicode="&#xc7;" horiz-adv-x="641" 
d="M319 -14l-1 -19h40q41 0 60.5 -15.5t19.5 -50.5v-17q0 -47 -21.5 -63t-77.5 -17q-62 0 -120 17v52h114q19 0 19 17v3q0 16 -19 16h-90l10 79q-114 9 -167.5 76t-55.5 198v175q0 136 68 206t202 70h52q105 0 263 -33v-226h-164l-22 95q-46 7 -113 7q-90 0 -90 -100v-215
q1 -43 24.5 -68.5t65.5 -24.5h40q68 0 98 67h163v-152q-127 -77 -250 -77h-48z" />
    <glyph glyph-name="Egrave" unicode="&#xc8;" horiz-adv-x="641" 
d="M419 785l-77 -48l-173 106v25l136 67zM608 469h-122l-22 75h-175v-114h150v-162h-150v-112h178l22 75h122v-231h-585v140l67 11v398q-39 5 -71 11v140h586v-231z" />
    <glyph glyph-name="Eacute" unicode="&#xc9;" horiz-adv-x="641" 
d="M470 869v-26l-180 -110l-81 50l118 156zM608 469h-122l-22 75h-175v-114h150v-162h-150v-112h178l22 75h122v-231h-585v140l67 11v398q-39 5 -71 11v140h586v-231z" />
    <glyph glyph-name="Ecircumflex" unicode="&#xca;" horiz-adv-x="641" 
d="M445 737l-126 83l-126 -83l-57 50l123 135h121l122 -135zM608 469h-122l-22 75h-175v-114h150v-162h-150v-112h178l22 75h122v-231h-585v140l67 11v398q-39 5 -71 11v140h586v-231z" />
    <glyph glyph-name="Edieresis" unicode="&#xcb;" horiz-adv-x="641" 
d="M203 749q-40 0 -67 23.5t-27 60.5q0 38 27 62t67 24t66.5 -24t26.5 -62t-26.5 -61t-66.5 -23zM436 749q-39 0 -65.5 23.5t-26.5 60.5q0 38 26.5 62t65.5 24q40 0 67 -24t27 -62t-27 -61t-67 -23zM608 469h-122l-22 75h-175v-114h150v-162h-150v-112h178l22 75h122v-231
h-585v140l67 11v398q-39 5 -71 11v140h586v-231z" />
    <glyph glyph-name="Igrave" unicode="&#xcc;" horiz-adv-x="381" 
d="M289 785l-77 -48l-173 106v25l136 67zM359 700v-140q-35 -8 -70 -12v-397q31 -3 70 -11v-140h-333v140q44 8 67 11v397q-37 5 -71 12v140h337z" />
    <glyph glyph-name="Iacute" unicode="&#xcd;" horiz-adv-x="381" 
d="M340 869v-26l-180 -110l-81 50l118 156zM359 700v-140q-35 -8 -70 -12v-397q31 -3 70 -11v-140h-333v140q44 8 67 11v397q-37 5 -71 12v140h337z" />
    <glyph glyph-name="Icircumflex" unicode="&#xce;" horiz-adv-x="381" 
d="M316 737l-126 83l-126 -83l-57 50l123 135h121l122 -135zM359 700v-140q-35 -8 -70 -12v-397q31 -3 70 -11v-140h-333v140q44 8 67 11v397q-37 5 -71 12v140h337z" />
    <glyph glyph-name="Idieresis" unicode="&#xcf;" horiz-adv-x="381" 
d="M74 749q-40 0 -67 23.5t-27 60.5q0 38 27 62t67 24t66.5 -24t26.5 -62t-26.5 -61t-66.5 -23zM307 749q-39 0 -65.5 23.5t-26.5 60.5q0 38 26.5 62t65.5 24q40 0 67 -24t27 -62t-27 -61t-67 -23zM359 700v-140q-35 -8 -70 -12v-397q31 -3 70 -11v-140h-333v140q44 8 67 11
v397q-37 5 -71 12v140h337z" />
    <glyph glyph-name="Eth" unicode="&#xd0;" horiz-adv-x="706" 
d="M22 700h394q140 -1 202 -65t62 -206v-165q-2 -139 -64 -201.5t-199 -62.5h-391v140q37 7 68 12v139h-70v110h70v146l-72 13v140zM485 247v203q0 44 -23.5 67t-66.5 23h-105v-139h58v-110h-58v-131h105q42 0 65.5 22.5t24.5 64.5z" />
    <glyph glyph-name="Ntilde" unicode="&#xd1;" horiz-adv-x="798" 
d="M599 855l-78 -87q-24 -25 -65 -25q-11 0 -18 1t-17 6.5t-17 10t-27 19.5t-37 27l-91 -58l-57 50l66 75q35 39 75 39q16 0 29 -4.5t19.5 -8t31 -22.5t38.5 -29l91 55zM776 700v-140q-25 -5 -71 -13v-547h-201l-238 374v-225q10 -1 30 -5t23 -4v-140h-293v140q38 8 68 11
v395q-9 2 -33 6.5t-39 7.5v140h252l258 -395v246q-10 1 -29 4.5t-25 4.5v140h298z" />
    <glyph glyph-name="Ograve" unicode="&#xd2;" horiz-adv-x="699" 
d="M449 785l-77 -48l-173 106v25l136 67zM405 -14h-103q-140 0 -207 69t-69 210v162q0 145 67 215.5t209 70.5h103q138 0 203 -71t65 -215v-161q-1 -141 -66.5 -210.5t-201.5 -69.5zM314 154h70q48 0 70 22t23 73v198q0 53 -22 76t-71 23h-70q-92 0 -92 -99v-198
q0 -51 22 -73t70 -22z" />
    <glyph glyph-name="Oacute" unicode="&#xd3;" horiz-adv-x="699" 
d="M500 869v-26l-180 -110l-81 50l118 156zM405 -14h-103q-140 0 -207 69t-69 210v162q0 145 67 215.5t209 70.5h103q138 0 203 -71t65 -215v-161q-1 -141 -66.5 -210.5t-201.5 -69.5zM314 154h70q48 0 70 22t23 73v198q0 53 -22 76t-71 23h-70q-92 0 -92 -99v-198
q0 -51 22 -73t70 -22z" />
    <glyph glyph-name="Ocircumflex" unicode="&#xd4;" horiz-adv-x="699" 
d="M475 737l-126 83l-126 -83l-57 50l123 135h121l122 -135zM405 -14h-103q-140 0 -207 69t-69 210v162q0 145 67 215.5t209 70.5h103q138 0 203 -71t65 -215v-161q-1 -141 -66.5 -210.5t-201.5 -69.5zM314 154h70q48 0 70 22t23 73v198q0 53 -22 76t-71 23h-70
q-92 0 -92 -99v-198q0 -51 22 -73t70 -22z" />
    <glyph glyph-name="Otilde" unicode="&#xd5;" horiz-adv-x="699" 
d="M554 855l-78 -87q-24 -25 -65 -25q-11 0 -18 1t-17 6.5t-17 10t-27 19.5t-37 27l-91 -58l-57 50l66 75q35 39 75 39q16 0 29 -4.5t19.5 -8t31 -22.5t38.5 -29l91 55zM405 -14h-103q-140 0 -207 69t-69 210v162q0 145 67 215.5t209 70.5h103q138 0 203 -71t65 -215v-161
q-1 -141 -66.5 -210.5t-201.5 -69.5zM314 154h70q48 0 70 22t23 73v198q0 53 -22 76t-71 23h-70q-92 0 -92 -99v-198q0 -51 22 -73t70 -22z" />
    <glyph glyph-name="Odieresis" unicode="&#xd6;" horiz-adv-x="699" 
d="M233 749q-40 0 -67 23.5t-27 60.5q0 38 27 62t67 24t66.5 -24t26.5 -62t-26.5 -61t-66.5 -23zM466 749q-39 0 -65.5 23.5t-26.5 60.5q0 38 26.5 62t65.5 24q40 0 67 -24t27 -62t-27 -61t-67 -23zM405 -14h-103q-140 0 -207 69t-69 210v162q0 145 67 215.5t209 70.5h103
q138 0 203 -71t65 -215v-161q-1 -141 -66.5 -210.5t-201.5 -69.5zM314 154h70q48 0 70 22t23 73v198q0 53 -22 76t-71 23h-70q-92 0 -92 -99v-198q0 -51 22 -73t70 -22z" />
    <glyph glyph-name="multiply" unicode="&#xd7;" horiz-adv-x="572" 
d="M142 100l-99 100l145 142l-146 142l103 104l143 -146l142 146l100 -100l-146 -142l146 -143l-103 -103l-143 146z" />
    <glyph glyph-name="Oslash" unicode="&#xd8;" horiz-adv-x="699" 
d="M676 726l-66 -86q63 -70 63 -213v-161q-1 -141 -66.5 -210.5t-201.5 -69.5h-103q-100 0 -162 35l-37 -48h-67l61 80q-68 68 -71 212v162q0 145 67 215.5t209 70.5h103q101 0 164 -39l39 52h68zM222 447v-198q0 -12 2 -28l230 302q-22 23 -70 23h-70q-92 0 -92 -99z
M477 447l-1 17l-224 -295q22 -15 62 -15h70q48 0 70 22t23 73v198z" />
    <glyph glyph-name="Ugrave" unicode="&#xd9;" horiz-adv-x="745" 
d="M482 785l-77 -48l-173 106v25l136 67zM728 700v-140q-20 -4 -58 -10v-288q-1 -151 -60.5 -213.5t-203.5 -62.5h-46q-148 0 -209.5 62t-63.5 213v288q-27 3 -69 11v140h341v-140q-37 -8 -76 -12v-309q0 -43 23.5 -68t65.5 -25h29q42 0 65.5 25.5t23.5 67.5v312q-3 0 -55 9
v140h293z" />
    <glyph glyph-name="Uacute" unicode="&#xda;" horiz-adv-x="745" 
d="M533 869v-26l-180 -110l-81 50l118 156zM728 700v-140q-20 -4 -58 -10v-288q-1 -151 -60.5 -213.5t-203.5 -62.5h-46q-148 0 -209.5 62t-63.5 213v288q-27 3 -69 11v140h341v-140q-37 -8 -76 -12v-309q0 -43 23.5 -68t65.5 -25h29q42 0 65.5 25.5t23.5 67.5v312
q-3 0 -55 9v140h293z" />
    <glyph glyph-name="Ucircumflex" unicode="&#xdb;" horiz-adv-x="745" 
d="M509 737l-126 83l-126 -83l-57 50l123 135h121l122 -135zM728 700v-140q-20 -4 -58 -10v-288q-1 -151 -60.5 -213.5t-203.5 -62.5h-46q-148 0 -209.5 62t-63.5 213v288q-27 3 -69 11v140h341v-140q-37 -8 -76 -12v-309q0 -43 23.5 -68t65.5 -25h29q42 0 65.5 25.5
t23.5 67.5v312q-3 0 -55 9v140h293z" />
    <glyph glyph-name="Udieresis" unicode="&#xdc;" horiz-adv-x="745" 
d="M267 749q-40 0 -67 23.5t-27 60.5q0 38 27 62t67 24t66.5 -24t26.5 -62t-26.5 -61t-66.5 -23zM500 749q-39 0 -65.5 23.5t-26.5 60.5q0 38 26.5 62t65.5 24q40 0 67 -24t27 -62t-27 -61t-67 -23zM728 700v-140q-20 -4 -58 -10v-288q-1 -151 -60.5 -213.5t-203.5 -62.5
h-46q-148 0 -209.5 62t-63.5 213v288q-27 3 -69 11v140h341v-140q-37 -8 -76 -12v-309q0 -43 23.5 -68t65.5 -25h29q42 0 65.5 25.5t23.5 67.5v312q-3 0 -55 9v140h293z" />
    <glyph glyph-name="Yacute" unicode="&#xdd;" horiz-adv-x="716" 
d="M513 869v-26l-180 -110l-81 50l118 156zM322 560l-41 -6l82 -169h3l87 167q-11 1 -48 8v140h298v-140q-24 -5 -70 -13l-182 -309v-87q31 -3 70 -11v-140h-333v140q44 8 67 11v79l-183 320q-19 2 -59 10v140h309v-140z" />
    <glyph glyph-name="Thorn" unicode="&#xde;" horiz-adv-x="661" 
d="M289 581h112q136 0 188 -40t52 -155v-92q-1 -107 -53 -143.5t-187 -36.5h-112v-114h-263v140q37 8 67 12v396q-32 4 -71 12v140h267v-119zM457 309v66q0 33 -11 44.5t-48 11.5h-109v-175h109q36 0 47 11t12 42z" />
    <glyph glyph-name="germandbls" unicode="&#xdf;" horiz-adv-x="697" 
d="M635 562v-31q0 -124 -93 -150q63 -5 96 -34.5t33 -101.5v-50q0 -112 -39 -157t-137 -45q-79 0 -186 37v122h129q24 0 34.5 11t10.5 36v63q0 53 -55 53h-57q-50 0 -50 41v83l85 15q30 4 42.5 19.5t12.5 43.5v17q0 32 -17 45t-58 13h-31q-42 0 -61 -21t-19 -66v-505h-245
v132q24 5 57 10v251l-55 12v132h55v17q0 96 68 137.5t228 41.5h54q105 0 151.5 -43t46.5 -128z" />
    <glyph glyph-name="agrave" unicode="&#xe0;" horiz-adv-x="629" 
d="M420 628l-77 -48l-173 106v25l136 67zM611 133v-132h-244v64q-88 -73 -167 -73h-15q-39 0 -62 4t-45.5 18.5t-32.5 46.5t-10 83v22q0 43 11.5 71t36.5 42.5t48 20t62 10.5q9 1 174 18v21q0 65 -68 65q-49 0 -74 -6l-8 -47h-140v165q120 23 247 23h48q86 0 134.5 -51.5
t48.5 -140.5v-214zM272 128h13q40 0 82 38v80q-7 -1 -25 -3.5t-34 -5.5t-31 -6q-50 -8 -50 -46v-17q0 -22 10 -31t35 -9z" />
    <glyph glyph-name="aacute" unicode="&#xe1;" horiz-adv-x="629" 
d="M455 711v-25l-173 -106l-77 48l114 150zM611 133v-132h-244v64q-88 -73 -167 -73h-15q-39 0 -62 4t-45.5 18.5t-32.5 46.5t-10 83v22q0 43 11.5 71t36.5 42.5t48 20t62 10.5q9 1 174 18v21q0 65 -68 65q-49 0 -74 -6l-8 -47h-140v165q120 23 247 23h48q86 0 134.5 -51.5
t48.5 -140.5v-214zM272 128h13q40 0 82 38v80q-7 -1 -25 -3.5t-34 -5.5t-31 -6q-50 -8 -50 -46v-17q0 -22 10 -31t35 -9z" />
    <glyph glyph-name="acircumflex" unicode="&#xe2;" horiz-adv-x="629" 
d="M435 584l-121 80l-121 -80l-54 48l118 129h114l118 -129zM611 133v-132h-244v64q-88 -73 -167 -73h-15q-39 0 -62 4t-45.5 18.5t-32.5 46.5t-10 83v22q0 43 11.5 71t36.5 42.5t48 20t62 10.5q9 1 174 18v21q0 65 -68 65q-49 0 -74 -6l-8 -47h-140v165q120 23 247 23h48
q86 0 134.5 -51.5t48.5 -140.5v-214zM272 128h13q40 0 82 38v80q-7 -1 -25 -3.5t-34 -5.5t-31 -6q-50 -8 -50 -46v-17q0 -22 10 -31t35 -9z" />
    <glyph glyph-name="atilde" unicode="&#xe3;" horiz-adv-x="629" 
d="M510 700l-74 -83q-24 -24 -63 -24q-8 0 -17.5 2.5t-16 5.5t-18.5 11t-17.5 12t-20.5 16t-21 16l-88 -57l-54 48l72 81q25 28 64 28q12 0 24 -3.5t24.5 -11.5t20.5 -13.5t23 -17.5l20 -16l88 54zM611 133v-132h-244v64q-88 -73 -167 -73h-15q-39 0 -62 4t-45.5 18.5
t-32.5 46.5t-10 83v22q0 43 11.5 71t36.5 42.5t48 20t62 10.5q9 1 174 18v21q0 65 -68 65q-49 0 -74 -6l-8 -47h-140v165q120 23 247 23h48q86 0 134.5 -51.5t48.5 -140.5v-214zM272 128h13q40 0 82 38v80q-7 -1 -25 -3.5t-34 -5.5t-31 -6q-50 -8 -50 -46v-17q0 -22 10 -31
t35 -9z" />
    <glyph glyph-name="adieresis" unicode="&#xe4;" horiz-adv-x="629" 
d="M208 600q-36 0 -61.5 21t-25.5 55t25.5 56t61.5 22t60 -21.5t24 -56.5q0 -34 -24 -55t-60 -21zM421 600q-35 0 -59 21t-24 55q0 35 24 56.5t59 21.5q37 0 62 -21.5t25 -56.5q0 -34 -25 -55t-62 -21zM611 133v-132h-244v64q-88 -73 -167 -73h-15q-39 0 -62 4t-45.5 18.5
t-32.5 46.5t-10 83v22q0 43 11.5 71t36.5 42.5t48 20t62 10.5q9 1 174 18v21q0 65 -68 65q-49 0 -74 -6l-8 -47h-140v165q120 23 247 23h48q86 0 134.5 -51.5t48.5 -140.5v-214zM272 128h13q40 0 82 38v80q-7 -1 -25 -3.5t-34 -5.5t-31 -6q-50 -8 -50 -46v-17q0 -22 10 -31
t35 -9z" />
    <glyph glyph-name="aring" unicode="&#xe5;" horiz-adv-x="629" 
d="M336 583h-43q-84 0 -84 84v28q0 85 84 85h43q84 0 84 -85v-28q0 -84 -84 -84zM300 644h27q24 0 27 26v24q0 28 -27 28h-27q-26 0 -26 -28v-24q0 -26 26 -26zM611 133v-132h-244v64q-88 -73 -167 -73h-15q-39 0 -62 4t-45.5 18.5t-32.5 46.5t-10 83v22q0 43 11.5 71
t36.5 42.5t48 20t62 10.5q9 1 174 18v21q0 65 -68 65q-49 0 -74 -6l-8 -47h-140v165q120 23 247 23h48q86 0 134.5 -51.5t48.5 -140.5v-214zM272 128h13q40 0 82 38v80q-7 -1 -25 -3.5t-34 -5.5t-31 -6q-50 -8 -50 -46v-17q0 -22 10 -31t35 -9z" />
    <glyph glyph-name="ae" unicode="&#xe6;" horiz-adv-x="923" 
d="M77 361v165q120 23 247 23h46q64 0 99 -33q53 33 152 33h33q131 0 185 -47t54 -161v-135h-345v-29q0 -64 69 -64h41q51 0 65 40l5 25h150v-126q-92 -66 -215 -66h-61q-88 0 -139.5 22.5t-74.5 72.5q-33 -26 -57 -42.5t-61 -31.5t-70 -15h-15q-33 0 -51 1.5t-40 9.5
t-33 23t-18.5 43t-7.5 69v28q0 43 11.5 71.5t36 43t49 20.5t61.5 9q74 6 174 11v28q0 65 -68 65q-49 0 -74 -6l-8 -47h-140zM721 313v53q0 30 -17 47t-48 17h-34q-33 0 -53.5 -18t-20.5 -49v-50h173zM272 128h13q41 0 84 28q-2 15 -2 49v32q-76 -9 -103 -15
q-24 -6 -32.5 -13t-8.5 -27v-14q0 -23 10.5 -31.5t38.5 -8.5z" />
    <glyph glyph-name="ccedilla" unicode="&#xe7;" horiz-adv-x="553" 
d="M272 -14l-1 -19h40q41 0 60.5 -15.5t19.5 -50.5v-17q0 -47 -21.5 -63t-77.5 -17q-62 0 -120 17v52h114q19 0 19 17v3q0 16 -19 16h-90l11 80q-91 11 -134 65.5t-43 155.5v129q0 102 60 156t168 54h57q83 0 205 -25v-205h-141l-16 89q-36 3 -74 3q-36 0 -53.5 -18.5
t-17.5 -61.5v-135q0 -41 17 -56t50 -15h18q52 0 66 41l4 18h153v-132q-107 -66 -219 -66h-35z" />
    <glyph glyph-name="egrave" unicode="&#xe8;" horiz-adv-x="587" 
d="M396 628l-77 -48l-173 106v25l136 67zM284 549h34q123 0 180.5 -53.5t57.5 -166.5v-125h-341v-23q0 -65 70 -65h36q54 0 65 37l5 25h150v-126q-92 -66 -220 -66h-33q-142 0 -200 57.5t-58 196.5v79q0 118 62.5 174t191.5 56zM387 314v50q0 29 -19.5 45t-51.5 16h-29
q-33 0 -52.5 -17t-19.5 -47v-47h172z" />
    <glyph glyph-name="eacute" unicode="&#xe9;" horiz-adv-x="587" 
d="M441 711v-25l-173 -106l-77 48l114 150zM284 549h34q123 0 180.5 -53.5t57.5 -166.5v-125h-341v-23q0 -65 70 -65h36q54 0 65 37l5 25h150v-126q-92 -66 -220 -66h-33q-142 0 -200 57.5t-58 196.5v79q0 118 62.5 174t191.5 56zM387 314v50q0 29 -19.5 45t-51.5 16h-29
q-33 0 -52.5 -17t-19.5 -47v-47h172z" />
    <glyph glyph-name="ecircumflex" unicode="&#xea;" horiz-adv-x="587" 
d="M421 584l-121 80l-121 -80l-54 48l118 129h114l118 -129zM284 549h34q123 0 180.5 -53.5t57.5 -166.5v-125h-341v-23q0 -65 70 -65h36q54 0 65 37l5 25h150v-126q-92 -66 -220 -66h-33q-142 0 -200 57.5t-58 196.5v79q0 118 62.5 174t191.5 56zM387 314v50q0 29 -19.5 45
t-51.5 16h-29q-33 0 -52.5 -17t-19.5 -47v-47h172z" />
    <glyph glyph-name="edieresis" unicode="&#xeb;" horiz-adv-x="587" 
d="M194 600q-36 0 -61.5 21t-25.5 55t25.5 56t61.5 22t60 -21.5t24 -56.5q0 -34 -24 -55t-60 -21zM407 600q-35 0 -59 21t-24 55q0 35 24 56.5t59 21.5q37 0 62 -21.5t25 -56.5q0 -34 -25 -55t-62 -21zM284 549h34q123 0 180.5 -53.5t57.5 -166.5v-125h-341v-23
q0 -65 70 -65h36q54 0 65 37l5 25h150v-126q-92 -66 -220 -66h-33q-142 0 -200 57.5t-58 196.5v79q0 118 62.5 174t191.5 56zM387 314v50q0 29 -19.5 45t-51.5 16h-29q-33 0 -52.5 -17t-19.5 -47v-47h172z" />
    <glyph glyph-name="igrave" unicode="&#xec;" horiz-adv-x="350" 
d="M274 628l-77 -48l-173 106v25l136 67zM275 537v-395q33 -5 57 -10v-132h-302v132q24 5 57 10v252q-13 2 -55 11v132h243z" />
    <glyph glyph-name="iacute" unicode="&#xed;" horiz-adv-x="350" 
d="M316 711v-25l-173 -106l-77 48l114 150zM275 537v-395q33 -5 57 -10v-132h-302v132q24 5 57 10v252q-13 2 -55 11v132h243z" />
    <glyph glyph-name="icircumflex" unicode="&#xee;" horiz-adv-x="350" 
d="M297 584l-121 80l-121 -80l-54 48l118 129h114l118 -129zM275 537v-395q33 -5 57 -10v-132h-302v132q24 5 57 10v252q-13 2 -55 11v132h243z" />
    <glyph glyph-name="idieresis" unicode="&#xef;" horiz-adv-x="350" 
d="M70 600q-36 0 -61.5 21t-25.5 55t25.5 56t61.5 22t60 -21.5t24 -56.5q0 -34 -24 -55t-60 -21zM283 600q-35 0 -59 21t-24 55q0 35 24 56.5t59 21.5q37 0 62 -21.5t25 -56.5q0 -34 -25 -55t-62 -21zM275 537v-395q33 -5 57 -10v-132h-302v132q24 5 57 10v252q-13 2 -55 11
v132h243z" />
    <glyph glyph-name="eth" unicode="&#xf0;" horiz-adv-x="629" 
d="M569 705l30 -99q-2 -1 -63 -23q54 -86 54 -198v-135q-1 -155 -54.5 -209t-203.5 -54h-31q-152 0 -211.5 54t-59.5 172v104q0 88 46 132t122 44h15q52 0 92.5 -11t96.5 -36v11q-2 61 -15 88l-169 -35l-30 98l143 34q-26 21 -70 35l38 60q106 -9 164 -60zM402 197v129
q-58 21 -104 21h-14q-36 0 -51 -17.5t-15 -58.5v-75q0 -42 17 -56t60 -14h32q42 0 58 14t17 57z" />
    <glyph glyph-name="ntilde" unicode="&#xf1;" horiz-adv-x="692" 
d="M542 700l-74 -83q-24 -24 -63 -24q-8 0 -17.5 2.5t-16 5.5t-18.5 11t-17.5 12t-20.5 16t-21 16l-88 -57l-54 48l72 81q25 28 64 28q12 0 24 -3.5t24.5 -11.5t20.5 -13.5t23 -17.5l20 -16l88 54zM615 403v-260q14 -3 59 -11v-132h-247v299q0 60 -8.5 75.5t-44.5 15.5h-12
q-36 0 -87 -30v-218q33 -5 57 -10v-132h-302v132q24 5 57 10v252q-13 2 -55 11v132h243v-71q111 83 188 83h13q66 0 102.5 -38t36.5 -108z" />
    <glyph glyph-name="ograve" unicode="&#xf2;" horiz-adv-x="620" 
d="M406 628l-77 -48l-173 106v25l136 67zM333 -14h-36q-148 0 -207 59t-60 204v30q0 150 58.5 210t208.5 60h35q145 0 201.5 -60t56.5 -210v-29q-1 -146 -57.5 -205t-199.5 -59zM291 121h37q38 0 56 16.5t18 53.5v149q0 39 -17.5 56.5t-56.5 17.5h-37q-38 0 -55.5 -17.5
t-17.5 -56.5v-149q0 -37 17.5 -53.5t55.5 -16.5z" />
    <glyph glyph-name="oacute" unicode="&#xf3;" horiz-adv-x="620" 
d="M453 711v-25l-173 -106l-77 48l114 150zM333 -14h-36q-148 0 -207 59t-60 204v30q0 150 58.5 210t208.5 60h35q145 0 201.5 -60t56.5 -210v-29q-1 -146 -57.5 -205t-199.5 -59zM291 121h37q38 0 56 16.5t18 53.5v149q0 39 -17.5 56.5t-56.5 17.5h-37q-38 0 -55.5 -17.5
t-17.5 -56.5v-149q0 -37 17.5 -53.5t55.5 -16.5z" />
    <glyph glyph-name="ocircumflex" unicode="&#xf4;" horiz-adv-x="620" 
d="M431 584l-121 80l-121 -80l-54 48l118 129h114l118 -129zM333 -14h-36q-148 0 -207 59t-60 204v30q0 150 58.5 210t208.5 60h35q145 0 201.5 -60t56.5 -210v-29q-1 -146 -57.5 -205t-199.5 -59zM291 121h37q38 0 56 16.5t18 53.5v149q0 39 -17.5 56.5t-56.5 17.5h-37
q-38 0 -55.5 -17.5t-17.5 -56.5v-149q0 -37 17.5 -53.5t55.5 -16.5z" />
    <glyph glyph-name="otilde" unicode="&#xf5;" horiz-adv-x="620" 
d="M505 700l-74 -83q-24 -24 -63 -24q-8 0 -17.5 2.5t-16 5.5t-18.5 11t-17.5 12t-20.5 16t-21 16l-88 -57l-54 48l72 81q25 28 64 28q12 0 24 -3.5t24.5 -11.5t20.5 -13.5t23 -17.5l20 -16l88 54zM333 -14h-36q-148 0 -207 59t-60 204v30q0 150 58.5 210t208.5 60h35
q145 0 201.5 -60t56.5 -210v-29q-1 -146 -57.5 -205t-199.5 -59zM291 121h37q38 0 56 16.5t18 53.5v149q0 39 -17.5 56.5t-56.5 17.5h-37q-38 0 -55.5 -17.5t-17.5 -56.5v-149q0 -37 17.5 -53.5t55.5 -16.5z" />
    <glyph glyph-name="odieresis" unicode="&#xf6;" horiz-adv-x="620" 
d="M204 600q-36 0 -61.5 21t-25.5 55t25.5 56t61.5 22t60 -21.5t24 -56.5q0 -34 -24 -55t-60 -21zM417 600q-35 0 -59 21t-24 55q0 35 24 56.5t59 21.5q37 0 62 -21.5t25 -56.5q0 -34 -25 -55t-62 -21zM333 -14h-36q-148 0 -207 59t-60 204v30q0 150 58.5 210t208.5 60h35
q145 0 201.5 -60t56.5 -210v-29q-1 -146 -57.5 -205t-199.5 -59zM291 121h37q38 0 56 16.5t18 53.5v149q0 39 -17.5 56.5t-56.5 17.5h-37q-38 0 -55.5 -17.5t-17.5 -56.5v-149q0 -37 17.5 -53.5t55.5 -16.5z" />
    <glyph glyph-name="divide" unicode="&#xf7;" horiz-adv-x="582" 
d="M292 474q-97 0 -97 89q0 91 97 91t97 -91q0 -89 -97 -89zM30 417h522v-138h-522v138zM292 46q-97 0 -97 89q0 91 97 91t97 -91q0 -89 -97 -89z" />
    <glyph glyph-name="oslash" unicode="&#xf8;" horiz-adv-x="636" 
d="M607 564l-65 -76q56 -60 56 -209v-29q-1 -146 -57.5 -205t-199.5 -59h-36q-109 0 -168 30l-37 -43h-68l64 74q-58 59 -58 202v30q0 150 58.5 210t208.5 60h35q105 0 161 -30l39 45h67zM226 199l168 196q-18 19 -58 19h-37q-38 0 -55.5 -17.5t-17.5 -56.5v-141zM410 334
l-168 -195q18 -18 57 -18h37q38 0 56 16.5t18 53.5v143z" />
    <glyph glyph-name="ugrave" unicode="&#xf9;" horiz-adv-x="685" 
d="M421 628l-77 -48l-173 106v25l136 67zM666 133v-132h-246v76q-39 -25 -58 -36t-58 -26t-71 -15h-14q-75 0 -106.5 33t-31.5 114v247l-59 11v132h247v-287q0 -60 8 -75t44 -15h12q36 0 87 30v204q-3 1 -59 11v132h247v-394z" />
    <glyph glyph-name="uacute" unicode="&#xfa;" horiz-adv-x="685" 
d="M467 711v-25l-173 -106l-77 48l114 150zM666 133v-132h-246v76q-39 -25 -58 -36t-58 -26t-71 -15h-14q-75 0 -106.5 33t-31.5 114v247l-59 11v132h247v-287q0 -60 8 -75t44 -15h12q36 0 87 30v204q-3 1 -59 11v132h247v-394z" />
    <glyph glyph-name="ucircumflex" unicode="&#xfb;" horiz-adv-x="685" 
d="M448 584l-121 80l-121 -80l-54 48l118 129h114l118 -129zM666 133v-132h-246v76q-39 -25 -58 -36t-58 -26t-71 -15h-14q-75 0 -106.5 33t-31.5 114v247l-59 11v132h247v-287q0 -60 8 -75t44 -15h12q36 0 87 30v204q-3 1 -59 11v132h247v-394z" />
    <glyph glyph-name="udieresis" unicode="&#xfc;" horiz-adv-x="685" 
d="M221 600q-36 0 -61.5 21t-25.5 55t25.5 56t61.5 22t60 -21.5t24 -56.5q0 -34 -24 -55t-60 -21zM434 600q-35 0 -59 21t-24 55q0 35 24 56.5t59 21.5q37 0 62 -21.5t25 -56.5q0 -34 -25 -55t-62 -21zM666 133v-132h-246v76q-39 -25 -58 -36t-58 -26t-71 -15h-14
q-75 0 -106.5 33t-31.5 114v247l-59 11v132h247v-287q0 -60 8 -75t44 -15h12q36 0 87 30v204q-3 1 -59 11v132h247v-394z" />
    <glyph glyph-name="yacute" unicode="&#xfd;" horiz-adv-x="677" 
d="M480 711v-25l-173 -106l-77 48l114 150zM669 537v-132q-34 -8 -70 -13l-198 -442q13 -1 51 -5v-131h-334v131q47 5 92 7l24 49l-173 394q-39 7 -53 10v132h321v-132q-31 -6 -68 -10l82 -223h2l102 223q-41 8 -52 10v132h274z" />
    <glyph glyph-name="thorn" unicode="&#xfe;" horiz-adv-x="644" 
d="M451 549h15q69 0 109 -49t40 -153v-183q0 -84 -44.5 -128t-113.5 -44h-16q-34 0 -65 7t-44.5 12.5t-56.5 25.5v-87q33 -5 57 -10v-132h-302v132q24 5 57 10v607q-13 2 -55 11v132h243v-229q47 37 88 57.5t88 20.5zM427 243v50q0 61 -9.5 79t-46.5 18h-13q-39 0 -83 -26
v-206q39 -20 81 -20h15q36 0 46 19.5t10 85.5z" />
    <glyph glyph-name="ydieresis" unicode="&#xff;" horiz-adv-x="677" 
d="M232 600q-36 0 -61.5 21t-25.5 55t25.5 56t61.5 22t60 -21.5t24 -56.5q0 -34 -24 -55t-60 -21zM445 600q-35 0 -59 21t-24 55q0 35 24 56.5t59 21.5q37 0 62 -21.5t25 -56.5q0 -34 -25 -55t-62 -21zM669 537v-132q-34 -8 -70 -13l-198 -442q13 -1 51 -5v-131h-334v131
q47 5 92 7l24 49l-173 394q-39 7 -53 10v132h321v-132q-31 -6 -68 -10l82 -223h2l102 223q-41 8 -52 10v132h274z" />
    <glyph glyph-name="Amacron" unicode="&#x100;" horiz-adv-x="805" 
d="M543 869v-110h-324v110h324zM530 700l178 -547q33 -3 83 -13v-140h-365v140q43 8 63 10l-17 56h-181l-11 -55q11 -2 26 -5.5t25 -5.5v-140h-317v140q52 10 79 13l123 397q-6 1 -62 10v140h376zM379 537l-54 -179h112l-56 179h-2z" />
    <glyph glyph-name="amacron" unicode="&#x101;" horiz-adv-x="629" 
d="M461 709v-105h-300v105h300zM611 133v-132h-244v64q-88 -73 -167 -73h-15q-39 0 -62 4t-45.5 18.5t-32.5 46.5t-10 83v22q0 43 11.5 71t36.5 42.5t48 20t62 10.5q9 1 174 18v21q0 65 -68 65q-49 0 -74 -6l-8 -47h-140v165q120 23 247 23h48q86 0 134.5 -51.5t48.5 -140.5
v-214zM272 128h13q40 0 82 38v80q-7 -1 -25 -3.5t-34 -5.5t-31 -6q-50 -8 -50 -46v-17q0 -22 10 -31t35 -9z" />
    <glyph glyph-name="Abreve" unicode="&#x102;" horiz-adv-x="805" 
d="M553 907v-28q0 -65 -46 -104t-126 -39q-81 0 -127 39t-46 104v28h107v-5q0 -49 66 -49t66 49v5h106zM530 700l178 -547q33 -3 83 -13v-140h-365v140q43 8 63 10l-17 56h-181l-11 -55q11 -2 26 -5.5t25 -5.5v-140h-317v140q52 10 79 13l123 397q-6 1 -62 10v140h376z
M379 537l-54 -179h112l-56 179h-2z" />
    <glyph glyph-name="abreve" unicode="&#x103;" horiz-adv-x="629" 
d="M480 746v-26q0 -62 -44.5 -100t-120.5 -38q-77 0 -121.5 38t-44.5 100v26h103v-4q0 -48 63 -48t63 48v4h102zM611 133v-132h-244v64q-88 -73 -167 -73h-15q-39 0 -62 4t-45.5 18.5t-32.5 46.5t-10 83v22q0 43 11.5 71t36.5 42.5t48 20t62 10.5q9 1 174 18v21q0 65 -68 65
q-49 0 -74 -6l-8 -47h-140v165q120 23 247 23h48q86 0 134.5 -51.5t48.5 -140.5v-214zM272 128h13q40 0 82 38v80q-7 -1 -25 -3.5t-34 -5.5t-31 -6q-50 -8 -50 -46v-17q0 -22 10 -31t35 -9z" />
    <glyph glyph-name="Aogonek" unicode="&#x104;" horiz-adv-x="805" 
d="M791 0h-106q-44 -46 -48 -56q-1 -3 -1 -6v-5q0 -18 22 -18q30 0 65 6l25 -52q-27 -20 -60 -33.5t-56 -13.5h-23q-84 0 -84 74v21q0 50 83 83h-182v140q43 8 63 10l-17 56h-181l-11 -55q11 -2 26 -5.5t25 -5.5v-140h-317v140q52 10 79 13l123 397q-6 1 -62 10v140h376
l178 -547q33 -3 83 -13v-140zM437 358l-56 179h-2l-54 -179h112z" />
    <glyph glyph-name="aogonek" unicode="&#x105;" horiz-adv-x="629" 
d="M611 1h-84q-45 -47 -49 -57q-1 -3 -1 -6v-5q0 -18 22 -18q31 0 65 6l25 -52q-27 -20 -60 -33.5t-56 -13.5h-23q-84 0 -84 74v21q0 51 85 84h-84v64q-88 -73 -167 -73h-15q-39 0 -62 4t-45.5 18.5t-32.5 46.5t-10 83v22q0 43 11.5 71t36.5 42.5t48 20t62 10.5q9 1 174 18
v21q0 65 -68 65q-49 0 -74 -6l-8 -47h-140v165q120 23 247 23h48q86 0 134.5 -51.5t48.5 -140.5v-214l56 -10v-132zM367 166v80q-7 -1 -25 -3.5t-34 -5.5t-31 -6q-50 -8 -50 -46v-17q0 -22 10 -31t35 -9h13q40 0 82 38z" />
    <glyph glyph-name="Cacute" unicode="&#x106;" horiz-adv-x="641" 
d="M487 869v-26l-180 -110l-81 50l118 156zM617 215v-152q-127 -77 -250 -77h-73q-136 0 -199 67t-65 209v175q0 136 68 206t202 70h52q105 0 263 -33v-226h-164l-22 95q-46 7 -113 7q-90 0 -90 -100v-215q1 -43 24.5 -68.5t65.5 -24.5h40q68 0 98 67h163z" />
    <glyph glyph-name="cacute" unicode="&#x107;" horiz-adv-x="553" 
d="M423 711v-25l-173 -106l-77 48l114 150zM526 184v-132q-107 -66 -219 -66h-49q-118 0 -173 55t-55 169v129q0 102 60 156t168 54h57q83 0 205 -25v-205h-141l-16 89q-36 3 -74 3q-36 0 -53.5 -18.5t-17.5 -61.5v-135q0 -41 17 -56t50 -15h18q52 0 66 41l4 18h153z" />
    <glyph glyph-name="Cdotaccent" unicode="&#x10a;" horiz-adv-x="641" 
d="M336 746q-41 0 -68.5 24t-27.5 63t28 64t68 25q41 0 69 -25t28 -64t-28 -63t-69 -24zM617 215v-152q-127 -77 -250 -77h-73q-136 0 -199 67t-65 209v175q0 136 68 206t202 70h52q105 0 263 -33v-226h-164l-22 95q-46 7 -113 7q-90 0 -90 -100v-215q1 -43 24.5 -68.5
t65.5 -24.5h40q68 0 98 67h163z" />
    <glyph glyph-name="cdotaccent" unicode="&#x10b;" horiz-adv-x="553" 
d="M282 585q-38 0 -63 22.5t-25 58.5t25.5 59t62.5 23q38 0 64 -23t26 -59t-26 -58.5t-64 -22.5zM526 184v-132q-107 -66 -219 -66h-49q-118 0 -173 55t-55 169v129q0 102 60 156t168 54h57q83 0 205 -25v-205h-141l-16 89q-36 3 -74 3q-36 0 -53.5 -18.5t-17.5 -61.5v-135
q0 -41 17 -56t50 -15h18q52 0 66 41l4 18h153z" />
    <glyph glyph-name="Ccaron" unicode="&#x10c;" horiz-adv-x="641" 
d="M394 741h-114l-118 129l54 48l121 -80l121 80l54 -48zM617 215v-152q-127 -77 -250 -77h-73q-136 0 -199 67t-65 209v175q0 136 68 206t202 70h52q105 0 263 -33v-226h-164l-22 95q-46 7 -113 7q-90 0 -90 -100v-215q1 -43 24.5 -68.5t65.5 -24.5h40q68 0 98 67h163z" />
    <glyph glyph-name="ccaron" unicode="&#x10d;" horiz-adv-x="553" 
d="M340 583h-114l-118 129l54 48l121 -80l121 80l54 -48zM526 184v-132q-107 -66 -219 -66h-49q-118 0 -173 55t-55 169v129q0 102 60 156t168 54h57q83 0 205 -25v-205h-141l-16 89q-36 3 -74 3q-36 0 -53.5 -18.5t-17.5 -61.5v-135q0 -41 17 -56t50 -15h18q52 0 66 41
l4 18h153z" />
    <glyph glyph-name="Dcaron" unicode="&#x10e;" horiz-adv-x="706" 
d="M403 741h-114l-118 129l54 48l121 -80l121 80l54 -48zM22 700h394q140 -1 202 -65t62 -206v-165q-2 -139 -64 -201.5t-199 -62.5h-391v140q37 7 68 12v395l-72 13v140zM485 247v203q0 44 -23.5 67t-66.5 23h-105v-380h105q42 0 65.5 22.5t24.5 64.5z" />
    <glyph glyph-name="dcaron" unicode="&#x10f;" horiz-adv-x="632" 
d="M614 133v-132h-245v70q-30 -24 -52 -38.5t-55.5 -27.5t-66.5 -13h-15q-69 0 -109.5 49.5t-40.5 153.5v173q0 84 45 131.5t113 47.5h15q51 0 82.5 -10t83.5 -38v73q-49 11 -59 12v116h247v-557zM764 700v-27l-67 -175h-94l16 202h145zM275 152h13q39 0 81 26v197
q-38 18 -81 18h-13q-35 0 -46 -16.5t-11 -55.5v-73q0 -61 10.5 -78.5t46.5 -17.5z" />
    <glyph glyph-name="Dcroat" unicode="&#x110;" horiz-adv-x="706" 
d="M22 700h394q140 -1 202 -65t62 -206v-165q-2 -139 -64 -201.5t-199 -62.5h-391v140q37 7 68 12v139h-70v110h70v146l-72 13v140zM485 247v203q0 44 -23.5 67t-66.5 23h-105v-139h58v-110h-58v-131h105q42 0 65.5 22.5t24.5 64.5z" />
    <glyph glyph-name="dcroat" unicode="&#x111;" horiz-adv-x="632" 
d="M557 143l57 -10v-132h-245v70q-30 -24 -52 -38.5t-55.5 -27.5t-66.5 -13h-15q-69 0 -109.5 49.5t-40.5 153.5v173q0 84 45 131.5t113 47.5h15q51 0 82.5 -10t83.5 -38v64h-113v105h113v56h188v-56h53v-105h-53v-420zM369 178v197q-38 18 -81 18h-13q-35 0 -46 -16.5
t-11 -55.5v-73q0 -61 10.5 -78.5t46.5 -17.5h13q39 0 81 26z" />
    <glyph glyph-name="Emacron" unicode="&#x112;" horiz-adv-x="641" 
d="M482 869v-110h-324v110h324zM608 469h-122l-22 75h-175v-114h150v-162h-150v-112h178l22 75h122v-231h-585v140l67 11v398q-39 5 -71 11v140h586v-231z" />
    <glyph glyph-name="emacron" unicode="&#x113;" horiz-adv-x="587" 
d="M447 709v-105h-300v105h300zM284 549h34q123 0 180.5 -53.5t57.5 -166.5v-125h-341v-23q0 -65 70 -65h36q54 0 65 37l5 25h150v-126q-92 -66 -220 -66h-33q-142 0 -200 57.5t-58 196.5v79q0 118 62.5 174t191.5 56zM387 314v50q0 29 -19.5 45t-51.5 16h-29
q-33 0 -52.5 -17t-19.5 -47v-47h172z" />
    <glyph glyph-name="Edotaccent" unicode="&#x116;" horiz-adv-x="641" 
d="M319 746q-41 0 -68.5 24t-27.5 63t28 64t68 25q41 0 69 -25t28 -64t-28 -63t-69 -24zM608 469h-122l-22 75h-175v-114h150v-162h-150v-112h178l22 75h122v-231h-585v140l67 11v398q-39 5 -71 11v140h586v-231z" />
    <glyph glyph-name="edotaccent" unicode="&#x117;" horiz-adv-x="587" 
d="M300 589q-41 0 -68.5 24t-27.5 63t28 64t68 25q41 0 69 -25t28 -64t-28 -63t-69 -24zM284 549h34q123 0 180.5 -53.5t57.5 -166.5v-125h-341v-23q0 -65 70 -65h36q54 0 65 37l5 25h150v-126q-92 -66 -220 -66h-33q-142 0 -200 57.5t-58 196.5v79q0 118 62.5 174t191.5 56
zM387 314v50q0 29 -19.5 45t-51.5 16h-29q-33 0 -52.5 -17t-19.5 -47v-47h172z" />
    <glyph glyph-name="Eogonek" unicode="&#x118;" horiz-adv-x="641" 
d="M611 0h-79q-44 -46 -48 -56q-1 -3 -1 -6v-5q0 -18 22 -18q31 0 65 6l25 -52q-27 -20 -60 -33.5t-56 -13.5h-23q-84 0 -84 74v21q0 50 83 83h-429v140l67 11v398q-39 5 -71 11v140h586v-231h-122l-22 75h-175v-114h150v-162h-150v-112h178l22 75h122v-231z" />
    <glyph glyph-name="eogonek" unicode="&#x119;" horiz-adv-x="587" 
d="M215 204v-23q0 -65 70 -65h36q54 0 65 37l5 25h150v-126q-50 -36 -116 -53q-48 -48 -48 -61v-5q0 -18 22 -18q31 0 65 6l25 -52q-27 -20 -60 -33.5t-56 -13.5h-23q-84 0 -84 74v21q0 40 53 69h-31q-142 0 -200 57.5t-58 196.5v79q0 118 62.5 174t191.5 56h34
q123 0 180.5 -53.5t57.5 -166.5v-125h-341zM215 314h172v50q0 29 -19.5 45t-51.5 16h-29q-33 0 -52.5 -17t-19.5 -47v-47z" />
    <glyph glyph-name="Ecaron" unicode="&#x11a;" horiz-adv-x="641" 
d="M377 741h-114l-118 129l54 48l121 -80l121 80l54 -48zM608 469h-122l-22 75h-175v-114h150v-162h-150v-112h178l22 75h122v-231h-585v140l67 11v398q-39 5 -71 11v140h586v-231z" />
    <glyph glyph-name="ecaron" unicode="&#x11b;" horiz-adv-x="587" 
d="M358 583h-114l-118 129l54 48l121 -80l121 80l54 -48zM284 549h34q123 0 180.5 -53.5t57.5 -166.5v-125h-341v-23q0 -65 70 -65h36q54 0 65 37l5 25h150v-126q-92 -66 -220 -66h-33q-142 0 -200 57.5t-58 196.5v79q0 118 62.5 174t191.5 56zM387 314v50q0 29 -19.5 45
t-51.5 16h-29q-33 0 -52.5 -17t-19.5 -47v-47h172z" />
    <glyph glyph-name="Gbreve" unicode="&#x11e;" horiz-adv-x="682" 
d="M513 907v-28q0 -65 -46 -104t-126 -39q-81 0 -127 39t-46 104v28h107v-5q0 -49 66 -49t66 49v5h106zM656 379v-176q0 -51 -19 -91t-47.5 -63t-65.5 -38t-67.5 -20t-59.5 -5h-99q-138 0 -202 67.5t-66 208.5v163q0 136 72 212t203 76h57q93 0 274 -33v-230h-164l-21 90
q-51 6 -126 6q-45 0 -72 -30t-27 -79v-195q1 -41 25 -63.5t68 -22.5h85q32 0 52 15.5t20 44.5v15l-149 18v130h329z" />
    <glyph glyph-name="gbreve" unicode="&#x11f;" horiz-adv-x="625" 
d="M477 746v-26q0 -62 -44.5 -100t-120.5 -38q-77 0 -121.5 38t-44.5 100v26h103v-4q0 -48 63 -48t63 48v4h102zM611 537v-113q-10 -2 -25.5 -6t-24.5 -6q3 -12 3 -36v-31q0 -87 -51.5 -124.5t-167.5 -37.5h-73q-40 0 -68 10q-11 -6 -11 -15v-7q0 -18 50 -18h202
q80 0 119 -33t39 -103v-19q0 -194 -257 -194h-102q-132 0 -176.5 20t-44.5 74v20q0 43 13.5 70.5t55.5 51.5q-36 28 -36 73v18q0 57 58 97q-55 36 -55 128v24q0 95 55 132t190 37h17q86 0 131 -12h159zM383 349v41q0 27 -13.5 36.5t-46.5 9.5h-12q-37 0 -53 -9.5t-16 -36.5
v-41q0 -27 15.5 -35t53.5 -8h6q36 0 51 8t15 35zM405 11h-151q-39 0 -51 1q-25 -18 -25 -36v-11q0 -19 10 -25.5t36 -6.5h144q42 0 58 8.5t16 29.5v12q0 17 -7.5 22.5t-29.5 5.5z" />
    <glyph glyph-name="Gdotaccent" unicode="&#x120;" horiz-adv-x="682" 
d="M340 746q-41 0 -68.5 24t-27.5 63t28 64t68 25q41 0 69 -25t28 -64t-28 -63t-69 -24zM656 379v-176q0 -51 -19 -91t-47.5 -63t-65.5 -38t-67.5 -20t-59.5 -5h-99q-138 0 -202 67.5t-66 208.5v163q0 136 72 212t203 76h57q93 0 274 -33v-230h-164l-21 90q-51 6 -126 6
q-45 0 -72 -30t-27 -79v-195q1 -41 25 -63.5t68 -22.5h85q32 0 52 15.5t20 44.5v15l-149 18v130h329z" />
    <glyph glyph-name="gdotaccent" unicode="&#x121;" horiz-adv-x="625" 
d="M311 589q-41 0 -68.5 24t-27.5 63t28 64t68 25q41 0 69 -25t28 -64t-28 -63t-69 -24zM611 537v-113q-10 -2 -25.5 -6t-24.5 -6q3 -12 3 -36v-31q0 -87 -51.5 -124.5t-167.5 -37.5h-73q-40 0 -68 10q-11 -6 -11 -15v-7q0 -18 50 -18h202q80 0 119 -33t39 -103v-19
q0 -194 -257 -194h-102q-132 0 -176.5 20t-44.5 74v20q0 43 13.5 70.5t55.5 51.5q-36 28 -36 73v18q0 57 58 97q-55 36 -55 128v24q0 95 55 132t190 37h17q86 0 131 -12h159zM383 349v41q0 27 -13.5 36.5t-46.5 9.5h-12q-37 0 -53 -9.5t-16 -36.5v-41q0 -27 15.5 -35
t53.5 -8h6q36 0 51 8t15 35zM405 11h-151q-39 0 -51 1q-25 -18 -25 -36v-11q0 -19 10 -25.5t36 -6.5h144q42 0 58 8.5t16 29.5v12q0 17 -7.5 22.5t-29.5 5.5z" />
    <glyph glyph-name="Gcommaaccent" unicode="&#x122;" horiz-adv-x="682" 
d="M656 379v-176q0 -51 -19 -91t-47.5 -63t-65.5 -38t-67.5 -20t-59.5 -5h-99q-138 0 -202 67.5t-66 208.5v163q0 136 72 212t203 76h57q93 0 274 -33v-230h-164l-21 90q-51 6 -126 6q-45 0 -72 -30t-27 -79v-195q1 -41 25 -63.5t68 -22.5h85q32 0 52 15.5t20 44.5v15
l-149 18v130h329zM275 -148l12 61q9 41 51 34q40 -6 57 -18.5t17 -40.5q0 -56 -45 -109q-40 -46 -59 -61l-33 25q27 53 34 93z" />
    <glyph glyph-name="gcommaaccent" unicode="&#x123;" horiz-adv-x="625" 
d="M381 681l-11 -56q-8 -38 -47 -32q-37 6 -52.5 18t-15.5 37q0 52 41 101q36 43 55 56l30 -23q-24 -48 -31 -86zM611 537v-113q-10 -2 -25.5 -6t-24.5 -6q3 -12 3 -36v-31q0 -87 -51.5 -124.5t-167.5 -37.5h-73q-40 0 -68 10q-11 -6 -11 -15v-7q0 -18 50 -18h202
q80 0 119 -33t39 -103v-19q0 -194 -257 -194h-102q-132 0 -176.5 20t-44.5 74v20q0 43 13.5 70.5t55.5 51.5q-36 28 -36 73v18q0 57 58 97q-55 36 -55 128v24q0 95 55 132t190 37h17q86 0 131 -12h159zM383 349v41q0 27 -13.5 36.5t-46.5 9.5h-12q-37 0 -53 -9.5t-16 -36.5
v-41q0 -27 15.5 -35t53.5 -8h6q36 0 51 8t15 35zM405 11h-151q-39 0 -51 1q-25 -18 -25 -36v-11q0 -19 10 -25.5t36 -6.5h144q42 0 58 8.5t16 29.5v12q0 17 -7.5 22.5t-29.5 5.5z" />
    <glyph glyph-name="Hbar" unicode="&#x126;" horiz-adv-x="795" 
d="M773 700v-140q-41 -8 -71 -11v-48h60v-38h-60v-312q42 -6 71 -11v-140h-321v140l53 9v121h-215v-121l53 -9v-140h-321v140q37 6 72 11v312h-59v38h59v48q-34 3 -72 11v140h321v-140l-53 -9v-50h215v50l-53 9v140h321zM505 463h-215v-36h215v36z" />
    <glyph glyph-name="hbar" unicode="&#x127;" horiz-adv-x="692" 
d="M615 403v-260q9 -2 59 -11v-132h-247v299q0 60 -8.5 75.5t-44.5 15.5h-12q-36 0 -87 -30v-218q33 -5 57 -10v-132h-302v132q24 5 57 10v415h-60v105h60v62h188v-62h106v-105h-106v-91q111 83 188 83h13q66 0 102.5 -38t36.5 -108z" />
    <glyph glyph-name="Imacron" unicode="&#x12a;" horiz-adv-x="381" 
d="M353 869v-110h-324v110h324zM359 700v-140q-35 -8 -70 -12v-397q31 -3 70 -11v-140h-333v140q44 8 67 11v397q-37 5 -71 12v140h337z" />
    <glyph glyph-name="imacron" unicode="&#x12b;" horiz-adv-x="350" 
d="M323 709v-105h-300v105h300zM275 537v-395q33 -5 57 -10v-132h-302v132q24 5 57 10v252q-13 2 -55 11v132h243z" />
    <glyph glyph-name="Iogonek" unicode="&#x12e;" horiz-adv-x="381" 
d="M359 700v-140q-35 -8 -70 -12v-397q31 -3 70 -11v-140h-83q-44 -46 -48 -56q-1 -3 -1 -6v-5q0 -18 22 -18q31 0 65 6l25 -52q-27 -20 -60 -33.5t-56 -13.5h-23q-84 0 -84 74v21q0 50 83 83h-173v140q44 8 67 11v397q-37 5 -71 12v140h337z" />
    <glyph glyph-name="iogonek" unicode="&#x12f;" horiz-adv-x="350" 
d="M176 589q-41 0 -68.5 24t-27.5 63t28 64t68 25q41 0 69 -25t28 -64t-28 -63t-69 -24zM312 -79l25 -52q-27 -20 -60 -33.5t-56 -13.5h-23q-84 0 -84 74v21q0 50 83 83h-167v132q24 5 57 10v252q-13 2 -55 11v132h243v-395q33 -5 57 -10v-132h-58q-44 -46 -48 -56
q-1 -3 -1 -6v-5q0 -18 22 -18q31 0 65 6z" />
    <glyph glyph-name="Idotaccent" unicode="&#x130;" horiz-adv-x="381" 
d="M190 746q-41 0 -68.5 24t-27.5 63t28 64t68 25q41 0 69 -25t28 -64t-28 -63t-69 -24zM359 700v-140q-35 -8 -70 -12v-397q31 -3 70 -11v-140h-333v140q44 8 67 11v397q-37 5 -71 12v140h337z" />
    <glyph glyph-name="dotlessi" unicode="&#x131;" horiz-adv-x="350" 
d="M275 537v-395q33 -5 57 -10v-132h-302v132q24 5 57 10v252q-13 2 -55 11v132h243z" />
    <glyph glyph-name="IJ" unicode="&#x132;" horiz-adv-x="760" 
d="M359 700v-140q-35 -8 -70 -12v-397q31 -3 70 -11v-140h-333v140q44 8 67 11v397q-37 5 -71 12v140h337zM739 700v-140q-32 -7 -70 -12v-432q0 -72 -21.5 -113.5t-87.5 -95.5q-43 -34 -102 -70l-83 78q17 19 47 58q31 40 41 68.5t10 75.5v431q-37 5 -71 12v140h337z" />
    <glyph glyph-name="ij" unicode="&#x133;" horiz-adv-x="665" 
d="M180 581q-44 0 -74 26.5t-30 68.5t30 68.5t74 26.5q45 0 75 -26t30 -69q0 -42 -30.5 -68.5t-74.5 -26.5zM523 771q45 0 75 -26t30 -69q0 -42 -30 -68.5t-75 -26.5q-44 0 -74 26.5t-30 68.5t30 68.5t74 26.5zM275 537v-395q33 -5 57 -10v-132h-302v132q24 5 57 10v252
q-13 2 -55 11v132h243zM623 537v-431q0 -67 -21 -104.5t-88 -92.5q-45 -36 -102 -72l-75 78q4 5 18.5 22.5t28.5 36.5q31 41 41 66t10 68v285q-29 5 -60 12v132h248z" />
    <glyph glyph-name="Kcommaaccent" unicode="&#x136;" horiz-adv-x="772" 
d="M359 700v-140q-35 -8 -70 -12v-124h107l90 127l-51 9v140h313v-140q-52 -9 -55 -9l-137 -197l136 -203q26 -4 67 -11v-140h-329v140q5 1 13 1.5t17 1.5t12 1l-76 122h-107v-115q31 -3 70 -11v-140h-333v140q44 8 67 11v397q-37 5 -71 12v140h337zM317 -148l12 61
q9 41 51 34q40 -6 57 -18.5t17 -40.5q0 -56 -45 -109q-40 -46 -59 -61l-33 25q27 53 34 93z" />
    <glyph glyph-name="kcommaaccent" unicode="&#x137;" horiz-adv-x="685" 
d="M275 345h88l31 54l-21 3t-18 3v132h300v-132q-18 -5 -59 -11l-83 -114l93 -138l56 -10v-132h-253v130l-46 77h-88v-65q33 -5 57 -10v-132h-302v132q24 5 57 10v415q-13 2 -55 11v132h243v-355zM277 -148l12 61q9 41 51 34q40 -6 57 -18.5t17 -40.5q0 -56 -45 -109
q-40 -46 -59 -61l-33 25q27 53 34 93z" />
    <glyph glyph-name="Lacute" unicode="&#x139;" horiz-adv-x="628" 
d="M345 869v-26l-180 -110l-81 50l118 156zM26 0v140q48 9 67 11v398q-31 4 -71 11v140h365v-140q-37 -9 -98 -14v-390h170l22 93h130v-249h-585z" />
    <glyph glyph-name="lacute" unicode="&#x13a;" horiz-adv-x="353" 
d="M317 871v-25l-173 -106l-77 48l114 150zM275 700v-558q33 -5 57 -10v-132h-302v132q24 5 57 10v415q-13 2 -55 11v132h243z" />
    <glyph glyph-name="Lcommaaccent" unicode="&#x13b;" horiz-adv-x="628" 
d="M26 0v140q48 9 67 11v398q-31 4 -71 11v140h365v-140q-37 -9 -98 -14v-390h170l22 93h130v-249h-585zM245 -148l12 61q9 41 51 34q40 -6 57 -18.5t17 -40.5q0 -56 -45 -109q-40 -46 -59 -61l-33 25q27 53 34 93z" />
    <glyph glyph-name="lcommaaccent" unicode="&#x13c;" horiz-adv-x="353" 
d="M275 700v-558q33 -5 57 -10v-132h-302v132q24 5 57 10v415q-13 2 -55 11v132h243zM109 -148l12 61q9 41 51 34q40 -6 57 -18.5t17 -40.5q0 -56 -45 -109q-40 -46 -59 -61l-33 25q27 53 34 93z" />
    <glyph glyph-name="Lcaron" unicode="&#x13d;" horiz-adv-x="628" 
d="M26 0v140q48 9 67 11v398q-31 4 -71 11v140h365v-140q-37 -9 -98 -14v-390h170l22 93h130v-249h-585zM602 700v-27l-67 -175h-94l16 202h145z" />
    <glyph glyph-name="lcaron" unicode="&#x13e;" horiz-adv-x="353" 
d="M275 700v-558q33 -5 57 -10v-132h-302v132q24 5 57 10v415q-13 2 -55 11v132h243zM479 700v-27l-67 -175h-94l16 202h145z" />
    <glyph glyph-name="Ldot" unicode="&#x13f;" horiz-adv-x="628" 
d="M26 0v140q48 9 67 11v398q-31 4 -71 11v140h365v-140q-37 -9 -98 -14v-390h170l22 93h130v-249h-585zM500 332q-38 0 -63 22t-25 59q0 36 25.5 59t62.5 23q38 0 64 -23t26 -59q0 -37 -25.5 -59t-64.5 -22z" />
    <glyph glyph-name="ldot" unicode="&#x140;" horiz-adv-x="353" 
d="M275 700v-558q33 -5 57 -10v-132h-302v132q24 5 57 10v415q-13 2 -55 11v132h243zM418 273q-105 0 -105 96q0 98 105 98t105 -98q0 -96 -105 -96z" />
    <glyph glyph-name="Lslash" unicode="&#x141;" horiz-adv-x="629" 
d="M613 249v-249h-585v140q48 9 67 11v104l-72 -25v112l72 25v182q-31 4 -71 11v140h365v-140q-37 -9 -98 -14v-111l122 42v-112l-122 -42v-167h170l22 93h130z" />
    <glyph glyph-name="lslash" unicode="&#x142;" horiz-adv-x="353" 
d="M275 373v-231q33 -5 57 -10v-132h-302v132q24 5 57 10v162l-47 -17v112l47 17v141q-13 2 -55 11v132h243v-215l53 20v-112z" />
    <glyph glyph-name="Nacute" unicode="&#x143;" horiz-adv-x="798" 
d="M545 869v-26l-180 -110l-81 50l118 156zM776 700v-140q-25 -5 -71 -13v-547h-201l-238 374v-225q10 -1 30 -5t23 -4v-140h-293v140q38 8 68 11v395q-9 2 -33 6.5t-39 7.5v140h252l258 -395v246q-10 1 -29 4.5t-25 4.5v140h298z" />
    <glyph glyph-name="nacute" unicode="&#x144;" horiz-adv-x="692" 
d="M487 711v-25l-173 -106l-77 48l114 150zM615 403v-260q14 -3 59 -11v-132h-247v299q0 60 -8.5 75.5t-44.5 15.5h-12q-36 0 -87 -30v-218q33 -5 57 -10v-132h-302v132q24 5 57 10v252q-13 2 -55 11v132h243v-71q111 83 188 83h13q66 0 102.5 -38t36.5 -108z" />
    <glyph glyph-name="Ncommaaccent" unicode="&#x145;" horiz-adv-x="798" 
d="M776 700v-140q-25 -5 -71 -13v-547h-201l-238 374v-225q10 -1 30 -5t23 -4v-140h-293v140q38 8 68 11v395q-9 2 -33 6.5t-39 7.5v140h252l258 -395v246q-10 1 -29 4.5t-25 4.5v140h298zM332 -148l12 61q9 41 51 34q40 -6 57 -18.5t17 -40.5q0 -56 -45 -109
q-40 -46 -59 -61l-33 25q27 53 34 93z" />
    <glyph glyph-name="ncommaaccent" unicode="&#x146;" horiz-adv-x="692" 
d="M615 403v-260q14 -3 59 -11v-132h-247v299q0 60 -8.5 75.5t-44.5 15.5h-12q-36 0 -87 -30v-218q33 -5 57 -10v-132h-302v132q24 5 57 10v252q-13 2 -55 11v132h243v-71q111 83 188 83h13q66 0 102.5 -38t36.5 -108zM280 -148l12 61q9 41 51 34q40 -6 57 -18.5t17 -40.5
q0 -56 -45 -109q-40 -46 -59 -61l-33 25q27 53 34 93z" />
    <glyph glyph-name="Ncaron" unicode="&#x147;" horiz-adv-x="798" 
d="M452 741h-114l-118 129l54 48l121 -80l121 80l54 -48zM776 700v-140q-25 -5 -71 -13v-547h-201l-238 374v-225q10 -1 30 -5t23 -4v-140h-293v140q38 8 68 11v395q-9 2 -33 6.5t-39 7.5v140h252l258 -395v246q-10 1 -29 4.5t-25 4.5v140h298z" />
    <glyph glyph-name="ncaron" unicode="&#x148;" horiz-adv-x="692" 
d="M404 583h-114l-118 129l54 48l121 -80l121 80l54 -48zM615 403v-260q14 -3 59 -11v-132h-247v299q0 60 -8.5 75.5t-44.5 15.5h-12q-36 0 -87 -30v-218q33 -5 57 -10v-132h-302v132q24 5 57 10v252q-13 2 -55 11v132h243v-71q111 83 188 83h13q66 0 102.5 -38t36.5 -108z
" />
    <glyph glyph-name="Omacron" unicode="&#x14c;" horiz-adv-x="699" 
d="M512 869v-110h-324v110h324zM405 -14h-103q-140 0 -207 69t-69 210v162q0 145 67 215.5t209 70.5h103q138 0 203 -71t65 -215v-161q-1 -141 -66.5 -210.5t-201.5 -69.5zM314 154h70q48 0 70 22t23 73v198q0 53 -22 76t-71 23h-70q-92 0 -92 -99v-198q0 -51 22 -73t70 -22
z" />
    <glyph glyph-name="omacron" unicode="&#x14d;" horiz-adv-x="620" 
d="M457 709v-105h-300v105h300zM333 -14h-36q-148 0 -207 59t-60 204v30q0 150 58.5 210t208.5 60h35q145 0 201.5 -60t56.5 -210v-29q-1 -146 -57.5 -205t-199.5 -59zM291 121h37q38 0 56 16.5t18 53.5v149q0 39 -17.5 56.5t-56.5 17.5h-37q-38 0 -55.5 -17.5t-17.5 -56.5
v-149q0 -37 17.5 -53.5t55.5 -16.5z" />
    <glyph glyph-name="Ohungarumlaut" unicode="&#x150;" horiz-adv-x="699" 
d="M408 887v-23l-149 -121l-69 47l112 149zM590 887v-23l-147 -121l-71 47l114 149zM405 -14h-103q-140 0 -207 69t-69 210v162q0 145 67 215.5t209 70.5h103q138 0 203 -71t65 -215v-161q-1 -141 -66.5 -210.5t-201.5 -69.5zM314 154h70q48 0 70 22t23 73v198q0 53 -22 76
t-71 23h-70q-92 0 -92 -99v-198q0 -51 22 -73t70 -22z" />
    <glyph glyph-name="ohungarumlaut" unicode="&#x151;" horiz-adv-x="620" 
d="M375 729v-23l-143 -117l-65 46l107 143zM549 729v-23l-141 -117l-67 46l109 143zM333 -14h-36q-148 0 -207 59t-60 204v30q0 150 58.5 210t208.5 60h35q145 0 201.5 -60t56.5 -210v-29q-1 -146 -57.5 -205t-199.5 -59zM291 121h37q38 0 56 16.5t18 53.5v149
q0 39 -17.5 56.5t-56.5 17.5h-37q-38 0 -55.5 -17.5t-17.5 -56.5v-149q0 -37 17.5 -53.5t55.5 -16.5z" />
    <glyph glyph-name="OE" unicode="&#x152;" horiz-adv-x="957" 
d="M606 430h150v-162h-150v-112h177l23 75h122v-231h-611q-151 0 -220 59.5t-71 191.5v190q0 136 69 197.5t222 61.5h608v-231h-122l-23 75h-174v-114zM409 540h-80q-107 0 -107 -90v-204q0 -86 107 -86h80v380z" />
    <glyph glyph-name="oe" unicode="&#x153;" horiz-adv-x="960" 
d="M590 204v-23q0 -65 70 -65h36q54 0 65 37l5 25h150v-126q-92 -66 -220 -66h-33q-108 0 -166 32q-57 -32 -164 -32h-36q-148 0 -207 59t-60 204v30q0 150 58.5 210t208.5 60h35q110 0 167 -33q60 33 160 33h34q123 0 180.5 -53.5t57.5 -166.5v-125h-341zM590 314h172v50
q0 29 -19.5 45t-51.5 16h-29q-33 0 -52.5 -17t-19.5 -47v-47zM402 191v149q0 39 -17.5 56.5t-56.5 17.5h-37q-38 0 -55.5 -17.5t-17.5 -56.5v-149q0 -37 17.5 -53.5t55.5 -16.5h37q38 0 56 16.5t18 53.5z" />
    <glyph glyph-name="Racute" unicode="&#x154;" horiz-adv-x="718" 
d="M507 869v-26l-180 -110l-81 50l118 156zM22 700h392q135 0 193 -47.5t58 -163.5v-49q0 -67 -23.5 -107.5t-68.5 -70.5q37 -50 61 -111l64 -11v-140h-270v126q-18 81 -37 108h-101v-88l43 -6v-140h-307v140q58 10 68 11v397q-24 3 -72 12v140zM290 388h110q74 0 75 57v33
q0 62 -75 62h-110v-152z" />
    <glyph glyph-name="racute" unicode="&#x155;" horiz-adv-x="486" 
d="M344 711v-25l-173 -106l-77 48l114 150zM275 537v-94q1 2 15 20t17.5 22t16 18.5t19.5 19t19.5 12.5t25 10.5t26.5 2.5h58v-176q-59 -3 -120 -8q-46 -2 -77 -29v-193l63 -10v-132h-308v132q24 5 57 10v252q-13 2 -55 11v132h243z" />
    <glyph glyph-name="Rcommaaccent" unicode="&#x156;" horiz-adv-x="718" 
d="M22 700h392q135 0 193 -47.5t58 -163.5v-49q0 -67 -23.5 -107.5t-68.5 -70.5q37 -50 61 -111l64 -11v-140h-270v126q-18 81 -37 108h-101v-88l43 -6v-140h-307v140q58 10 68 11v397q-24 3 -72 12v140zM290 388h110q74 0 75 57v33q0 62 -75 62h-110v-152zM295 -148l12 61
q9 41 51 34q40 -6 57 -18.5t17 -40.5q0 -56 -45 -109q-40 -46 -59 -61l-33 25q27 53 34 93z" />
    <glyph glyph-name="rcommaaccent" unicode="&#x157;" horiz-adv-x="486" 
d="M275 537v-94q1 2 15 20t17.5 22t16 18.5t19.5 19t19.5 12.5t25 10.5t26.5 2.5h58v-176q-59 -3 -120 -8q-46 -2 -77 -29v-193l63 -10v-132h-308v132q24 5 57 10v252q-13 2 -55 11v132h243zM106 -148l12 61q9 41 51 34q40 -6 57 -18.5t17 -40.5q0 -56 -45 -109
q-40 -46 -59 -61l-33 25q27 53 34 93z" />
    <glyph glyph-name="Rcaron" unicode="&#x158;" horiz-adv-x="718" 
d="M415 741h-114l-118 129l54 48l121 -80l121 80l54 -48zM22 700h392q135 0 193 -47.5t58 -163.5v-49q0 -67 -23.5 -107.5t-68.5 -70.5q37 -50 61 -111l64 -11v-140h-270v126q-18 81 -37 108h-101v-88l43 -6v-140h-307v140q58 10 68 11v397q-24 3 -72 12v140zM290 388h110
q74 0 75 57v33q0 62 -75 62h-110v-152z" />
    <glyph glyph-name="rcaron" unicode="&#x159;" horiz-adv-x="486" 
d="M261 583h-114l-118 129l54 48l121 -80l121 80l54 -48zM275 537v-94q1 2 15 20t17.5 22t16 18.5t19.5 19t19.5 12.5t25 10.5t26.5 2.5h58v-176q-59 -3 -120 -8q-46 -2 -77 -29v-193l63 -10v-132h-308v132q24 5 57 10v252q-13 2 -55 11v132h243z" />
    <glyph glyph-name="Sacute" unicode="&#x15a;" horiz-adv-x="643" 
d="M472 869v-26l-180 -110l-81 50l118 156zM202 222l21 -76q37 -11 97 -11h17q48 0 63.5 10t16.5 41v13q0 25 -14.5 36.5t-61.5 24.5l-174 44q-80 24 -108.5 62.5t-28.5 129.5v9q0 109 62.5 158.5t201.5 49.5h37q125 0 262 -35v-206h-155l-22 80q-25 12 -78 12h-40
q-36 0 -50 -10.5t-14 -38.5v-7q0 -37 42 -48l197 -48q78 -19 109 -57.5t31 -116.5v-43q0 -109 -63 -158.5t-201 -49.5h-52q-69 0 -116 9t-143 36v190h164z" />
    <glyph glyph-name="sacute" unicode="&#x15b;" horiz-adv-x="550" 
d="M414 711v-25l-173 -106l-77 48l114 150zM27 368v22q0 82 54.5 120.5t167.5 38.5h18q142 0 238 -32v-150h-154l-13 52q-26 7 -70 7q-67 0 -67 -33v-6q0 -17 16.5 -23.5t83.5 -18.5q40 -7 65 -12q85 -16 121 -48t36 -85v-34q0 -93 -54 -136.5t-167 -43.5h-39
q-159 0 -236 54v147h150l5 -38q9 -17 31 -26.5t44 -9.5h29q55 0 55 42v8q0 21 -25 30.5t-130 28.5q-91 16 -125 50.5t-34 95.5z" />
    <glyph glyph-name="Scedilla" unicode="&#x15e;" horiz-adv-x="643" 
d="M276 460l197 -48q78 -19 109 -57.5t31 -116.5v-43q0 -109 -63 -158.5t-201 -49.5h-36v-20h40q41 0 60.5 -15.5t19.5 -50.5v-17q0 -47 -21.5 -63t-77.5 -17q-62 0 -120 17v52h114q19 0 19 17v3q0 16 -19 16h-90l10 79q-70 4 -210 44v190h164l21 -76q37 -11 97 -11h17
q48 0 63.5 10t16.5 41v13q0 25 -14.5 36.5t-61.5 24.5l-174 44q-80 24 -108.5 62.5t-28.5 129.5v9q0 109 62.5 158.5t201.5 49.5h37q125 0 262 -35v-206h-155l-22 80q-25 12 -78 12h-40q-36 0 -50 -10.5t-14 -38.5v-7q0 -37 42 -48z" />
    <glyph glyph-name="scedilla" unicode="&#x15f;" horiz-adv-x="550" 
d="M201 393v-6q0 -17 16.5 -23.5t83.5 -18.5q40 -7 65 -12q85 -16 121 -48t36 -85v-34q0 -93 -54 -136.5t-167 -43.5h-36l-1 -19h40q41 0 60.5 -15.5t19.5 -50.5v-17q0 -47 -21.5 -63t-77.5 -17q-62 0 -120 17v52h114q19 0 19 17v3q0 16 -19 16h-90l10 79q-112 9 -173 52
v147h150l5 -38q9 -17 31 -26.5t44 -9.5h29q55 0 55 42v8q0 21 -25 30.5t-130 28.5q-91 16 -125 50.5t-34 95.5v22q0 82 54.5 120.5t167.5 38.5h18q142 0 238 -32v-150h-154l-13 52q-26 7 -70 7q-67 0 -67 -33z" />
    <glyph glyph-name="Scaron" unicode="&#x160;" horiz-adv-x="643" 
d="M379 741h-114l-118 129l54 48l121 -80l121 80l54 -48zM202 222l21 -76q37 -11 97 -11h17q48 0 63.5 10t16.5 41v13q0 25 -14.5 36.5t-61.5 24.5l-174 44q-80 24 -108.5 62.5t-28.5 129.5v9q0 109 62.5 158.5t201.5 49.5h37q125 0 262 -35v-206h-155l-22 80q-25 12 -78 12
h-40q-36 0 -50 -10.5t-14 -38.5v-7q0 -37 42 -48l197 -48q78 -19 109 -57.5t31 -116.5v-43q0 -109 -63 -158.5t-201 -49.5h-52q-69 0 -116 9t-143 36v190h164z" />
    <glyph glyph-name="scaron" unicode="&#x161;" horiz-adv-x="550" 
d="M332 583h-114l-118 129l54 48l121 -80l121 80l54 -48zM27 368v22q0 82 54.5 120.5t167.5 38.5h18q142 0 238 -32v-150h-154l-13 52q-26 7 -70 7q-67 0 -67 -33v-6q0 -17 16.5 -23.5t83.5 -18.5q40 -7 65 -12q85 -16 121 -48t36 -85v-34q0 -93 -54 -136.5t-167 -43.5h-39
q-159 0 -236 54v147h150l5 -38q9 -17 31 -26.5t44 -9.5h29q55 0 55 42v8q0 21 -25 30.5t-130 28.5q-91 16 -125 50.5t-34 95.5z" />
    <glyph glyph-name="Tcaron" unicode="&#x164;" horiz-adv-x="697" 
d="M406 741h-114l-118 129l54 48l121 -80l121 80l54 -48zM551 462l-17 83h-87v-394q41 -3 76 -11v-140h-345v140q29 5 73 11v394h-88l-16 -83h-133v238h669v-238h-132z" />
    <glyph glyph-name="tcaron" unicode="&#x165;" horiz-adv-x="455" 
d="M485 780v-27l-67 -175h-94l16 202h145zM318 146h11q63 0 96 2v-108q-31 -22 -89 -38t-108 -16h-13q-63 0 -98.5 39t-35.5 109v265h-62v130h33q26 0 41.5 19.5t15.5 52.5v67q80 15 160 16v-147h149v-138h-149v-168q0 -56 8 -70.5t41 -14.5z" />
    <glyph glyph-name="Umacron" unicode="&#x16a;" horiz-adv-x="745" 
d="M546 869v-110h-324v110h324zM728 700v-140q-20 -4 -58 -10v-288q-1 -151 -60.5 -213.5t-203.5 -62.5h-46q-148 0 -209.5 62t-63.5 213v288q-27 3 -69 11v140h341v-140q-37 -8 -76 -12v-309q0 -43 23.5 -68t65.5 -25h29q42 0 65.5 25.5t23.5 67.5v312q-3 0 -55 9v140h293z
" />
    <glyph glyph-name="umacron" unicode="&#x16b;" horiz-adv-x="685" 
d="M474 709v-105h-300v105h300zM666 133v-132h-246v76q-39 -25 -58 -36t-58 -26t-71 -15h-14q-75 0 -106.5 33t-31.5 114v247l-59 11v132h247v-287q0 -60 8 -75t44 -15h12q36 0 87 30v204q-3 1 -59 11v132h247v-394z" />
    <glyph glyph-name="Uring" unicode="&#x16e;" horiz-adv-x="745" 
d="M406 723h-45q-44 0 -68.5 23.5t-24.5 68.5v31q0 92 93 92h45q93 0 93 -92v-31q-2 -92 -93 -92zM368 790h30q25 0 28 27v27q0 31 -28 31h-30q-28 0 -28 -31v-27q0 -27 28 -27zM728 700v-140q-20 -4 -58 -10v-288q-1 -151 -60.5 -213.5t-203.5 -62.5h-46q-148 0 -209.5 62
t-63.5 213v288q-27 3 -69 11v140h341v-140q-37 -8 -76 -12v-309q0 -43 23.5 -68t65.5 -25h29q42 0 65.5 25.5t23.5 67.5v312q-3 0 -55 9v140h293z" />
    <glyph glyph-name="uring" unicode="&#x16f;" horiz-adv-x="685" 
d="M349 583h-43q-84 0 -84 84v28q0 85 84 85h43q84 0 84 -85v-28q0 -84 -84 -84zM313 644h27q24 0 27 26v24q0 28 -27 28h-27q-26 0 -26 -28v-24q0 -26 26 -26zM666 133v-132h-246v76q-39 -25 -58 -36t-58 -26t-71 -15h-14q-75 0 -106.5 33t-31.5 114v247l-59 11v132h247
v-287q0 -60 8 -75t44 -15h12q36 0 87 30v204q-3 1 -59 11v132h247v-394z" />
    <glyph glyph-name="Uhungarumlaut" unicode="&#x170;" horiz-adv-x="745" 
d="M441 887v-23l-149 -121l-69 47l112 149zM623 887v-23l-147 -121l-71 47l114 149zM728 700v-140q-20 -4 -58 -10v-288q-1 -151 -60.5 -213.5t-203.5 -62.5h-46q-148 0 -209.5 62t-63.5 213v288q-27 3 -69 11v140h341v-140q-37 -8 -76 -12v-309q0 -43 23.5 -68t65.5 -25h29
q42 0 65.5 25.5t23.5 67.5v312q-3 0 -55 9v140h293z" />
    <glyph glyph-name="uhungarumlaut" unicode="&#x171;" horiz-adv-x="685" 
d="M392 729v-23l-143 -117l-65 46l107 143zM566 729v-23l-141 -117l-67 46l109 143zM666 133v-132h-246v76q-39 -25 -58 -36t-58 -26t-71 -15h-14q-75 0 -106.5 33t-31.5 114v247l-59 11v132h247v-287q0 -60 8 -75t44 -15h12q36 0 87 30v204q-3 1 -59 11v132h247v-394z" />
    <glyph glyph-name="Uogonek" unicode="&#x172;" horiz-adv-x="745" 
d="M728 700v-140q-20 -4 -58 -10v-288q-1 -145 -55 -208t-183 -68q-36 -36 -36 -48v-5q0 -18 22 -18q30 0 65 6l25 -52q-27 -20 -60 -33.5t-56 -13.5h-23q-84 0 -84 74v21q0 40 53 69q-135 4 -192 67t-59 208v288q-27 3 -69 11v140h341v-140q-37 -8 -76 -12v-309
q0 -43 23.5 -68t65.5 -25h29q42 0 65.5 25.5t23.5 67.5v312q-3 0 -55 9v140h293z" />
    <glyph glyph-name="uogonek" unicode="&#x173;" horiz-adv-x="685" 
d="M666 1h-85q-45 -47 -49 -57q-1 -3 -1 -6v-5q0 -18 22 -18q31 0 65 6l25 -52q-27 -20 -60 -33.5t-56 -13.5h-23q-84 0 -84 74v21q0 51 85 84h-85v76q-39 -25 -58 -36t-58 -26t-71 -15h-14q-75 0 -106.5 33t-31.5 114v247l-59 11v132h247v-287q0 -60 8 -75t44 -15h12
q36 0 87 30v204q-3 1 -59 11v132h247v-394l58 -10v-132z" />
    <glyph glyph-name="Wcircumflex" unicode="&#x174;" horiz-adv-x="1005" 
d="M644 737l-126 83l-126 -83l-57 50l123 135h121l122 -135zM1000 700v-140q-39 -8 -56 -10l-141 -550h-240l-61 336h-3l-67 -336h-237l-138 551l-52 9v140h323v-140l-61 -9l64 -321h10l100 470h150l98 -465h9l71 316q-10 2 -31.5 5t-28.5 4v140h291z" />
    <glyph glyph-name="wcircumflex" unicode="&#x175;" horiz-adv-x="898" 
d="M570 584l-121 80l-121 -80l-54 48l118 129h114l118 -129zM886 537v-132q-19 -4 -53 -10l-101 -395h-223l-73 238l-68 -238h-203l-101 395q-41 8 -52 10v132h262v-132l-42 -7l47 -227h2l96 366h143l107 -366h1l49 224q-34 6 -53 10v132h262z" />
    <glyph glyph-name="Ycircumflex" unicode="&#x176;" horiz-adv-x="716" 
d="M488 737l-126 83l-126 -83l-57 50l123 135h121l122 -135zM322 560l-41 -6l82 -169h3l87 167q-11 1 -48 8v140h298v-140q-24 -5 -70 -13l-182 -309v-87q31 -3 70 -11v-140h-333v140q44 8 67 11v79l-183 320q-19 2 -59 10v140h309v-140z" />
    <glyph glyph-name="ycircumflex" unicode="&#x177;" horiz-adv-x="677" 
d="M458 584l-121 80l-121 -80l-54 48l118 129h114l118 -129zM669 537v-132q-34 -8 -70 -13l-198 -442q13 -1 51 -5v-131h-334v131q47 5 92 7l24 49l-173 394q-39 7 -53 10v132h321v-132q-31 -6 -68 -10l82 -223h2l102 223q-41 8 -52 10v132h274z" />
    <glyph glyph-name="Ydieresis" unicode="&#x178;" horiz-adv-x="716" 
d="M246 749q-40 0 -67 23.5t-27 60.5q0 38 27 62t67 24t66.5 -24t26.5 -62t-26.5 -61t-66.5 -23zM479 749q-39 0 -65.5 23.5t-26.5 60.5q0 38 26.5 62t65.5 24q40 0 67 -24t27 -62t-27 -61t-67 -23zM322 560l-41 -6l82 -169h3l87 167q-11 1 -48 8v140h298v-140
q-24 -5 -70 -13l-182 -309v-87q31 -3 70 -11v-140h-333v140q44 8 67 11v79l-183 320q-19 2 -59 10v140h309v-140z" />
    <glyph glyph-name="Zacute" unicode="&#x179;" horiz-adv-x="629" 
d="M466 869v-26l-180 -110l-81 50l118 156zM602 567l-319 -417h166l24 113h136v-263h-587v113q0 40 26 70l317 368h-184l-24 -98h-135v247h580v-133z" />
    <glyph glyph-name="zacute" unicode="&#x17a;" horiz-adv-x="567" 
d="M435 711v-25l-173 -106l-77 48l114 150zM542 405l-281 -270h155l22 68h104v-203h-520v103q0 48 40 78l256 223h-159l-11 -60h-106v193h500v-132z" />
    <glyph glyph-name="Zdotaccent" unicode="&#x17b;" horiz-adv-x="629" 
d="M315 746q-41 0 -68.5 24t-27.5 63t28 64t68 25q41 0 69 -25t28 -64t-28 -63t-69 -24zM602 567l-319 -417h166l24 113h136v-263h-587v113q0 40 26 70l317 368h-184l-24 -98h-135v247h580v-133z" />
    <glyph glyph-name="zdotaccent" unicode="&#x17c;" horiz-adv-x="567" 
d="M292 589q-41 0 -68.5 24t-27.5 63t28 64t68 25q41 0 69 -25t28 -64t-28 -63t-69 -24zM542 405l-281 -270h155l22 68h104v-203h-520v103q0 48 40 78l256 223h-159l-11 -60h-106v193h500v-132z" />
    <glyph glyph-name="Zcaron" unicode="&#x17d;" horiz-adv-x="629" 
d="M373 741h-114l-118 129l54 48l121 -80l121 80l54 -48zM602 567l-319 -417h166l24 113h136v-263h-587v113q0 40 26 70l317 368h-184l-24 -98h-135v247h580v-133z" />
    <glyph glyph-name="zcaron" unicode="&#x17e;" horiz-adv-x="567" 
d="M350 583h-114l-118 129l54 48l121 -80l121 80l54 -48zM542 405l-281 -270h155l22 68h104v-203h-520v103q0 48 40 78l256 223h-159l-11 -60h-106v193h500v-132z" />
    <glyph glyph-name="florin" unicode="&#x192;" horiz-adv-x="518" 
d="M476 457v-145h-139l-27 -169q-13 -75 -45.5 -110.5t-100.5 -48.5q-24 -5 -46 -7t-53.5 -2h-32.5l-22 102q15 3 42 12q35 11 44 19t14 28l29 176h-65v129q68 10 88 12l16 100q14 76 46 111.5t100 48.5q45 9 168 19l16 -129q-16 -4 -77 -22q-34 -10 -44 -18.5t-14 -28.5
l-12 -77h115z" />
    <glyph glyph-name="Scommaaccent" unicode="&#x218;" horiz-adv-x="643" 
d="M202 222l21 -76q37 -11 97 -11h17q48 0 63.5 10t16.5 41v13q0 25 -14.5 36.5t-61.5 24.5l-174 44q-80 24 -108.5 62.5t-28.5 129.5v9q0 109 62.5 158.5t201.5 49.5h37q125 0 262 -35v-206h-155l-22 80q-25 12 -78 12h-40q-36 0 -50 -10.5t-14 -38.5v-7q0 -37 42 -48
l197 -48q78 -19 109 -57.5t31 -116.5v-43q0 -109 -63 -158.5t-201 -49.5h-52q-69 0 -116 9t-143 36v190h164zM255 -148l12 61q9 41 51 34q40 -6 57 -18.5t17 -40.5q0 -56 -45 -109q-40 -46 -59 -61l-33 25q27 53 34 93z" />
    <glyph glyph-name="scommaaccent" unicode="&#x219;" horiz-adv-x="550" 
d="M27 368v22q0 82 54.5 120.5t167.5 38.5h18q142 0 238 -32v-150h-154l-13 52q-26 7 -70 7q-67 0 -67 -33v-6q0 -17 16.5 -23.5t83.5 -18.5q40 -7 65 -12q85 -16 121 -48t36 -85v-34q0 -93 -54 -136.5t-167 -43.5h-39q-159 0 -236 54v147h150l5 -38q9 -17 31 -26.5t44 -9.5
h29q55 0 55 42v8q0 21 -25 30.5t-130 28.5q-91 16 -125 50.5t-34 95.5zM208 -148l12 61q9 41 51 34q40 -6 57 -18.5t17 -40.5q0 -56 -45 -109q-40 -46 -59 -61l-33 25q27 53 34 93z" />
    <glyph glyph-name="uni021A" unicode="&#x21a;" horiz-adv-x="697" 
d="M551 462l-17 83h-87v-394q41 -3 76 -11v-140h-345v140q29 5 73 11v394h-88l-16 -83h-133v238h669v-238h-132zM282 -148l12 61q9 41 51 34q40 -6 57 -18.5t17 -40.5q0 -56 -45 -109q-40 -46 -59 -61l-33 25q27 53 34 93z" />
    <glyph glyph-name="uni021B" unicode="&#x21b;" horiz-adv-x="455" 
d="M318 146h11q63 0 96 2v-108q-31 -22 -89 -38t-108 -16h-13q-63 0 -98.5 39t-35.5 109v265h-62v130h33q26 0 41.5 19.5t15.5 52.5v67q80 15 160 16v-147h149v-138h-149v-168q0 -56 8 -70.5t41 -14.5zM158 -148l12 61q9 41 51 34q40 -6 57 -18.5t17 -40.5q0 -56 -45 -109
q-40 -46 -59 -61l-33 25q27 53 34 93z" />
    <glyph glyph-name="circumflex" unicode="&#x2c6;" 
d="M370 584l-121 80l-121 -80l-54 48l118 129h114l118 -129z" />
    <glyph glyph-name="caron" unicode="&#x2c7;" 
d="M307 583h-114l-118 129l54 48l121 -80l121 80l54 -48z" />
    <glyph glyph-name="breve" unicode="&#x2d8;" 
d="M415 746v-26q0 -62 -44.5 -100t-120.5 -38q-77 0 -121.5 38t-44.5 100v26h103v-4q0 -48 63 -48t63 48v4h102z" />
    <glyph glyph-name="dotaccent" unicode="&#x2d9;" 
d="M249 589q-41 0 -68.5 24t-27.5 63t28 64t68 25q41 0 69 -25t28 -64t-28 -63t-69 -24z" />
    <glyph glyph-name="ring" unicode="&#x2da;" 
d="M271 575h-43q-84 0 -84 84v28q0 85 84 85h43q84 0 84 -85v-28q0 -84 -84 -84zM235 636h27q24 0 27 26v24q0 28 -27 28h-27q-26 0 -26 -28v-24q0 -26 26 -26z" />
    <glyph glyph-name="ogonek" unicode="&#x2db;" 
d="M255 9h60q-5 -5 -11.5 -12t-10.5 -11t-9.5 -9t-8 -8.5t-6 -7.5t-5.5 -7l-4 -6t-2.5 -5.5t-0.5 -4.5v-5q0 -18 22 -18q31 0 65 6l25 -52q-27 -20 -60 -33.5t-56 -13.5h-23q-84 0 -84 74v21q0 59 109 92z" />
    <glyph glyph-name="tilde" unicode="&#x2dc;" 
d="M448 700l-74 -83q-24 -24 -63 -24q-8 0 -17.5 2.5t-16 5.5t-18.5 11t-17.5 12t-20.5 16t-21 16l-88 -57l-54 48l72 81q25 28 64 28q12 0 24 -3.5t24.5 -11.5t20.5 -13.5t23 -17.5l20 -16l88 54z" />
    <glyph glyph-name="hungarumlaut" unicode="&#x2dd;" 
d="M267 729v-23l-143 -117l-65 46l107 143zM441 729v-23l-141 -117l-67 46l109 143z" />
    <glyph glyph-name="commaaccentcomb" unicode="&#x326;" horiz-adv-x="0" 
d="M175 -148l12 61q9 41 51 34q40 -6 57 -18.5t17 -40.5q0 -56 -45 -109q-40 -46 -59 -61l-33 25q27 53 34 93z" />
    <glyph glyph-name="Wgrave" unicode="&#x1e80;" horiz-adv-x="1005" 
d="M617 785l-77 -48l-173 106v25l136 67zM1000 700v-140q-39 -8 -56 -10l-141 -550h-240l-61 336h-3l-67 -336h-237l-138 551l-52 9v140h323v-140l-61 -9l64 -321h10l100 470h150l98 -465h9l71 316q-10 2 -31.5 5t-28.5 4v140h291z" />
    <glyph glyph-name="wgrave" unicode="&#x1e81;" horiz-adv-x="898" 
d="M547 628l-77 -48l-173 106v25l136 67zM886 537v-132q-19 -4 -53 -10l-101 -395h-223l-73 238l-68 -238h-203l-101 395q-41 8 -52 10v132h262v-132l-42 -7l47 -227h2l96 366h143l107 -366h1l49 224q-34 6 -53 10v132h262z" />
    <glyph glyph-name="Wacute" unicode="&#x1e82;" horiz-adv-x="1005" 
d="M668 869v-26l-180 -110l-81 50l118 156zM1000 700v-140q-39 -8 -56 -10l-141 -550h-240l-61 336h-3l-67 -336h-237l-138 551l-52 9v140h323v-140l-61 -9l64 -321h10l100 470h150l98 -465h9l71 316q-10 2 -31.5 5t-28.5 4v140h291z" />
    <glyph glyph-name="wacute" unicode="&#x1e83;" horiz-adv-x="898" 
d="M592 711v-25l-173 -106l-77 48l114 150zM886 537v-132q-19 -4 -53 -10l-101 -395h-223l-73 238l-68 -238h-203l-101 395q-41 8 -52 10v132h262v-132l-42 -7l47 -227h2l96 366h143l107 -366h1l49 224q-34 6 -53 10v132h262z" />
    <glyph glyph-name="Wdieresis" unicode="&#x1e84;" horiz-adv-x="1005" 
d="M402 749q-40 0 -67 23.5t-27 60.5q0 38 27 62t67 24t66.5 -24t26.5 -62t-26.5 -61t-66.5 -23zM635 749q-39 0 -65.5 23.5t-26.5 60.5q0 38 26.5 62t65.5 24q40 0 67 -24t27 -62t-27 -61t-67 -23zM1000 700v-140q-39 -8 -56 -10l-141 -550h-240l-61 336h-3l-67 -336h-237
l-138 551l-52 9v140h323v-140l-61 -9l64 -321h10l100 470h150l98 -465h9l71 316q-10 2 -31.5 5t-28.5 4v140h291z" />
    <glyph glyph-name="wdieresis" unicode="&#x1e85;" horiz-adv-x="898" 
d="M343 600q-36 0 -61.5 21t-25.5 55t25.5 56t61.5 22t60 -21.5t24 -56.5q0 -34 -24 -55t-60 -21zM556 600q-35 0 -59 21t-24 55q0 35 24 56.5t59 21.5q37 0 62 -21.5t25 -56.5q0 -34 -25 -55t-62 -21zM886 537v-132q-19 -4 -53 -10l-101 -395h-223l-73 238l-68 -238h-203
l-101 395q-41 8 -52 10v132h262v-132l-42 -7l47 -227h2l96 366h143l107 -366h1l49 224q-34 6 -53 10v132h262z" />
    <glyph glyph-name="Ygrave" unicode="&#x1ef2;" horiz-adv-x="716" 
d="M462 785l-77 -48l-173 106v25l136 67zM322 560l-41 -6l82 -169h3l87 167q-11 1 -48 8v140h298v-140q-24 -5 -70 -13l-182 -309v-87q31 -3 70 -11v-140h-333v140q44 8 67 11v79l-183 320q-19 2 -59 10v140h309v-140z" />
    <glyph glyph-name="ygrave" unicode="&#x1ef3;" horiz-adv-x="677" 
d="M435 628l-77 -48l-173 106v25l136 67zM669 537v-132q-34 -8 -70 -13l-198 -442q13 -1 51 -5v-131h-334v131q47 5 92 7l24 49l-173 394q-39 7 -53 10v132h321v-132q-31 -6 -68 -10l82 -223h2l102 223q-41 8 -52 10v132h274z" />
    <glyph glyph-name="uni2009" unicode="&#x2009;" horiz-adv-x="76" 
 />
    <glyph glyph-name="uni200A" unicode="&#x200a;" horiz-adv-x="492" 
 />
    <glyph glyph-name="endash" unicode="&#x2013;" horiz-adv-x="456" 
d="M428 384v-145h-400v145h400z" />
    <glyph glyph-name="emdash" unicode="&#x2014;" horiz-adv-x="640" 
d="M612 384v-145h-584v145h584z" />
    <glyph glyph-name="quoteleft" unicode="&#x2018;" horiz-adv-x="231" 
d="M208 543l-22 -101q-12 -56 -70 -47q-55 9 -78.5 26t-23.5 55q0 61 43 122.5t99 109.5l46 -33q-34 -73 -40 -111z" />
    <glyph glyph-name="quoteright" unicode="&#x2019;" horiz-adv-x="231" 
d="M19 560l22 101q12 56 70 47q55 -9 78.5 -26t23.5 -55q0 -61 -43 -122.5t-99 -109.5l-46 33q34 73 40 111z" />
    <glyph glyph-name="quotesinglbase" unicode="&#x201a;" horiz-adv-x="250" 
d="M20 21l23 105q13 58 72 49q58 -9 82 -27.5t24 -57.5q0 -63 -44.5 -127.5t-102.5 -113.5l-48 35q35 74 42 115z" />
    <glyph glyph-name="quotedblleft" unicode="&#x201c;" horiz-adv-x="441" 
d="M211 538l-23 -105q-13 -58 -72 -49q-58 9 -82 27.5t-24 57.5q0 63 44.5 127.5t102.5 113.5l48 -35q-35 -74 -42 -115zM419 538l-23 -105q-13 -58 -72 -49q-58 9 -82 27.5t-24 57.5q0 63 44.5 127.5t102.5 113.5l48 -35q-35 -74 -42 -115z" />
    <glyph glyph-name="quotedblright" unicode="&#x201d;" horiz-adv-x="441" 
d="M14 556l23 105q13 58 72 49q58 -9 82 -27.5t24 -57.5q0 -63 -44.5 -127.5t-102.5 -113.5l-48 35q35 74 42 115zM222 556l23 105q13 58 72 49q58 -9 82 -27.5t24 -57.5q0 -63 -44.5 -127.5t-102.5 -113.5l-48 35q35 74 42 115z" />
    <glyph glyph-name="quotedblbase" unicode="&#x201e;" horiz-adv-x="450" 
d="M20 21l23 105q13 58 72 49q58 -9 82 -27.5t24 -57.5q0 -63 -44.5 -127.5t-102.5 -113.5l-48 35q35 74 42 115zM230 21l23 105q13 58 72 49q58 -9 82 -27.5t24 -57.5q0 -63 -44.5 -127.5t-102.5 -113.5l-48 35q35 74 42 115z" />
    <glyph glyph-name="dagger" unicode="&#x2020;" horiz-adv-x="429" 
d="M413 434h-63l-111 43l43 -106v-46l-54 -330h-26l-56 330v46l45 107l-113 -44h-62v136h62l112 -44l-44 111v63h136v-63l-43 -111l111 44h63v-136z" />
    <glyph glyph-name="daggerdbl" unicode="&#x2021;" horiz-adv-x="429" 
d="M239 477l43 -106v-53l-43 -107l111 44h63v-136h-63l-111 43l43 -110v-63h-136v63l44 111l-112 -44h-62v136h62l113 -44l-45 107v53l45 107l-113 -44h-62v136h62l112 -44l-44 111v63h136v-63l-43 -111l111 44h63v-136h-63z" />
    <glyph glyph-name="bullet" unicode="&#x2022;" horiz-adv-x="321" 
d="M192 140q-103 0 -152.5 45t-49.5 140q0 96 50 142t152 46t151.5 -46t49.5 -142q0 -95 -49.5 -140t-151.5 -45z" />
    <glyph glyph-name="ellipsis" unicode="&#x2026;" horiz-adv-x="742" 
d="M125 188q105 0 105 -98q0 -96 -105 -96t-105 96q0 98 105 98zM371 188q105 0 105 -98q0 -96 -105 -96t-105 96q0 98 105 98zM617 188q105 0 105 -98q0 -96 -105 -96t-105 96q0 98 105 98z" />
    <glyph glyph-name="perthousand" unicode="&#x2030;" horiz-adv-x="1429" 
d="M294 -17h-70l247 365l232 375h70l-253 -375zM194 714h71q90 -1 125.5 -40t35.5 -135v-91q-1 -94 -36.5 -132t-124.5 -38h-71q-92 0 -128.5 38t-38.5 132v91q0 96 36.5 135.5t130.5 39.5zM251 598h-48q-28 0 -37.5 -12t-9.5 -44v-95q0 -30 9.5 -41.5t37.5 -11.5h48
q26 0 35.5 11.5t10.5 41.5v95q0 32 -9.5 44t-36.5 12zM738 422h72q90 -1 125.5 -40t35.5 -134v-91q-2 -94 -37.5 -132.5t-123.5 -38.5h-72q-91 0 -128 38.5t-38 131.5v92q0 96 36.5 135t129.5 39zM1240 -14h-72q-91 0 -128 38.5t-39 131.5v92q0 96 36.5 135t130.5 39h72
q90 -1 125.5 -40t35.5 -134v-91q-2 -94 -37.5 -132.5t-123.5 -38.5zM795 306h-48q-27 0 -36.5 -12t-9.5 -44v-94q0 -31 9.5 -42.5t36.5 -11.5h48q27 0 36.5 11.5t10.5 42.5v94q0 31 -10 43.5t-37 12.5zM1177 102h49q26 0 35.5 12t10.5 42v94q0 31 -9.5 43.5t-36.5 12.5h-49
q-27 0 -37 -12.5t-10 -43.5v-94q0 -31 10 -42.5t37 -11.5z" />
    <glyph glyph-name="guilsinglleft" unicode="&#x2039;" horiz-adv-x="307" 
d="M197 259l86 -146v-57h-115l-146 203v12l146 203h115v-59l-86 -144v-12z" />
    <glyph glyph-name="guilsinglright" unicode="&#x203a;" horiz-adv-x="307" 
d="M108 271l-86 144v59h115l146 -203v-12l-146 -203h-115v57l86 146v12z" />
    <glyph glyph-name="fraction" unicode="&#x2044;" horiz-adv-x="237" 
d="M397 723l-253 -375l-226 -365h-70l247 365l232 375h70z" />
    <glyph glyph-name="zeroinferior" unicode="&#x2080;" horiz-adv-x="442" 
d="M253 -122h-74q-86 0 -121.5 35.5t-37.5 121.5v105q0 89 35.5 125.5t123.5 36.5h74q85 -1 119 -37t34 -125v-105q-2 -86 -36 -121.5t-117 -35.5zM201 -24h24q29 0 40 13t11 47v106q0 34 -11 47t-40 13h-24q-29 0 -40 -13t-11 -47v-106q0 -34 11 -47t40 -13z" />
    <glyph glyph-name="oneinferior" unicode="&#x2081;" horiz-adv-x="337" 
d="M246 303v-322q30 -3 64 -8v-91h-280v91q47 8 80 9v213l-87 -7v81l146 34h77z" />
    <glyph glyph-name="twoinferior" unicode="&#x2082;" horiz-adv-x="406" 
d="M370 -118h-346v89q0 54 13.5 85t46.5 47q30 15 101 31q40 10 53 16.5t13 21.5v7q0 14 -6.5 18.5t-27.5 4.5q-50 0 -74 -4l-9 -35h-97v119q69 14 100 17.5t88 3.5q81 0 114.5 -25t33.5 -94v-34q0 -71 -88 -97q-31 -8 -61 -17q-6 -2 -19.5 -5.5t-17.5 -4.5t-13 -4.5
t-11.5 -5.5t-8 -6t-6.5 -8.5t-2.5 -10.5t-1.5 -14h131l10 46h85v-141z" />
    <glyph glyph-name="threeinferior" unicode="&#x2083;" horiz-adv-x="394" 
d="M362 188v-14q0 -79 -62 -98q33 -4 47.5 -20.5t14.5 -52.5v-11q0 -63 -38 -88.5t-128 -25.5q-82 0 -178 17v120h90l9 -36q32 -3 82 -3q22 0 30.5 7t8.5 24v10q0 18 -11 25t-38 7h-81v83h82q26 0 37 6.5t11 23.5v11q0 18 -8 24.5t-31 6.5q-49 0 -84 -4l-9 -34h-86v119
q93 18 176 18q94 0 130 -24.5t36 -90.5z" />
    <glyph glyph-name="fourinferior" unicode="&#x2084;" horiz-adv-x="437" 
d="M347 5v-29q29 -1 61 -8v-86h-263v86q31 6 66 9v28h-203v92l203 199h136v-199h62v-82zM117 97h94v110z" />
    <glyph glyph-name="fiveinferior" unicode="&#x2085;" horiz-adv-x="412" 
d="M366 167h-85l-6 30h-125l-3 -75q43 19 79 19h34q60 0 90.5 -24t30.5 -85v-34q0 -120 -148 -120h-21q-75 0 -188 20v119h86l5 -38q35 -4 67 -4h30q41 2 41 34v24q0 33 -32 33h-32q-31 0 -61 -25l-98 27l8 226h328v-127z" />
    <glyph glyph-name="sixinferior" unicode="&#x2086;" horiz-adv-x="438" 
d="M245 137h38q64 0 93.5 -28.5t29.5 -86.5v-21q0 -64 -39 -93.5t-118 -29.5h-48q-181 0 -181 172v81q0 84 44.5 130t124.5 46h24q69 0 173 -20v-120h-106l-14 31q-25 4 -55 4q-59 0 -59 -60v-22q43 17 93 17zM152 45v-23q0 -47 57 -44h34q39 0 39 35v18q0 33 -34 33h-29
q-27 0 -67 -19z" />
    <glyph glyph-name="seveninferior" unicode="&#x2087;" horiz-adv-x="374" 
d="M366 197l-142 -315h-158v20l169 295h-127l-15 -45h-85v142h358v-97z" />
    <glyph glyph-name="eightinferior" unicode="&#x2088;" horiz-adv-x="434" 
d="M388 193v-15q0 -69 -57 -85q75 -16 75 -88v-10q0 -64 -35.5 -90.5t-119.5 -26.5h-68q-86 0 -124 26.5t-39 90.5v10q0 72 78 88q-60 17 -60 85v15q1 58 36 83.5t113 25.5h59q76 0 109 -25.5t33 -83.5zM155 181v-18q0 -16 9 -23t30 -7h40q20 0 28.5 7t8.5 23v18
q0 32 -38 32h-38q-22 0 -31 -7t-9 -25zM275 5v19q0 32 -38 32h-45q-22 0 -31 -7.5t-9 -24.5v-19q0 -18 9.5 -25.5t32.5 -6.5h40q23 0 32 7t9 25z" />
    <glyph glyph-name="nineinferior" unicode="&#x2089;" horiz-adv-x="425" 
d="M175 34h-34q-66 0 -94.5 25t-28.5 83v45q0 58 38 89t109 31h61q88 0 128.5 -39t42.5 -127v-92q0 -171 -170 -171h-18q-57 0 -169 20v107h107l7 -30q22 -6 56 -6q59 0 59 62v32q-42 -29 -94 -29zM269 138v33q0 40 -57 38h-35q-38 0 -38 -36v-13q0 -36 34 -36h25
q48 0 71 14z" />
    <glyph glyph-name="Euro" unicode="&#x20ac;" horiz-adv-x="624" 
d="M458 495l-6 51q-26 11 -104 11q-42 0 -68.5 -24.5t-26.5 -67.5v-18h203l-17 -76h-186v-40h176l-17 -75h-159v-23q2 -89 89 -87h22q69 0 96 61h136v-128q-113 -93 -223 -93h-52q-263 0 -263 243v27h-50v75h49v40h-49v76h49v7q0 130 69.5 194.5t201.5 64.5h31
q121 0 238 -33v-185h-139z" />
    <glyph glyph-name="uni2116" unicode="&#x2116;" horiz-adv-x="1355" 
d="M1025 704h35q117 0 164 -50t47 -174v-33q-1 -121 -48 -169.5t-162 -48.5h-36q-119 0 -167.5 48t-49.5 169v34q0 125 48 174.5t169 49.5zM776 700v-140q-25 -5 -71 -13v-547h-201l-238 374v-225q10 -1 30 -5t23 -4v-140h-293v140q38 8 68 11v395q-9 2 -33 6.5t-39 7.5v140
h252l258 -395v246q-10 1 -29 4.5t-25 4.5v140h298zM1056 584h-34q-32 0 -45 -15.5t-13 -52.5v-101q0 -35 12.5 -48t45.5 -13h34q34 0 46.5 13t12.5 48v101q0 37 -13 52.5t-46 15.5zM1260 0h-447v147h447v-147z" />
    <glyph glyph-name="trademark" unicode="&#x2122;" horiz-adv-x="697" 
d="M285 593h-53l-8 38h-32v-129q13 -1 32 -5v-68h-147v68q11 2 29 4v130h-32l-7 -38h-53v107h271v-107zM683 700v-63q-5 -1 -14.5 -2t-14.5 -2v-131q4 -1 13 -2.5t14 -2.5v-68h-134v68l22 4v118l-58 -190h-50l-59 190v-118l21 -4v-68h-125v68q20 4 30 5v130q-8 1 -31 5v63
h138l51 -144h1l50 144h146z" />
    <glyph glyph-name="oneeighth" unicode="&#x215b;" horiz-adv-x="875" 
d="M686 723l-253 -375l-226 -365h-70l247 365l232 375h70zM250 709v-322q30 -3 64 -8v-91h-280v91q47 8 80 9v213l-87 -7v81l146 34h77zM833 311v-15q0 -69 -57 -85q75 -16 75 -88v-10q0 -64 -35.5 -90.5t-119.5 -26.5h-68q-86 0 -124 26.5t-39 90.5v10q0 72 78 88
q-60 17 -60 85v15q1 58 36 83.5t113 25.5h59q76 0 109 -25.5t33 -83.5zM600 299v-18q0 -16 9 -23t30 -7h40q20 0 28.5 7t8.5 23v18q0 32 -38 32h-38q-22 0 -31 -7t-9 -25zM720 123v19q0 32 -38 32h-45q-22 0 -31 -7.5t-9 -24.5v-19q0 -18 9.5 -25.5t32.5 -6.5h40q23 0 32 7
t9 25z" />
    <glyph glyph-name="threeeighths" unicode="&#x215c;" horiz-adv-x="902" 
d="M713 723l-253 -375l-226 -365h-70l247 365l232 375h70zM366 594v-14q0 -79 -62 -98q33 -4 47.5 -20.5t14.5 -52.5v-11q0 -63 -38 -88.5t-128 -25.5q-82 0 -178 17v120h90l9 -36q32 -3 82 -3q22 0 30.5 7t8.5 24v10q0 18 -11 25t-38 7h-81v83h82q26 0 37 6.5t11 23.5v11
q0 18 -8 24.5t-31 6.5q-49 0 -84 -4l-9 -34h-86v119q93 18 176 18q94 0 130 -24.5t36 -90.5zM860 311v-15q0 -69 -57 -85q75 -16 75 -88v-10q0 -64 -35.5 -90.5t-119.5 -26.5h-68q-86 0 -124 26.5t-39 90.5v10q0 72 78 88q-60 17 -60 85v15q1 58 36 83.5t113 25.5h59
q76 0 109 -25.5t33 -83.5zM627 299v-18q0 -16 9 -23t30 -7h40q20 0 28.5 7t8.5 23v18q0 32 -38 32h-38q-22 0 -31 -7t-9 -25zM747 123v19q0 32 -38 32h-45q-22 0 -31 -7.5t-9 -24.5v-19q0 -18 9.5 -25.5t32.5 -6.5h40q23 0 32 7t9 25z" />
    <glyph glyph-name="fiveeighths" unicode="&#x215d;" horiz-adv-x="909" 
d="M721 723l-253 -375l-226 -365h-70l247 365l232 375h70zM370 700v-127h-85l-6 30h-125l-3 -75q43 19 79 19h34q60 0 90.5 -24t30.5 -85v-34q0 -120 -148 -120h-21q-75 0 -188 20v119h86l5 -38q35 -4 67 -4h30q41 2 41 34v24q0 33 -32 33h-32q-31 0 -61 -25l-98 27l8 226
h328zM867 311v-15q0 -69 -57 -85q75 -16 75 -88v-10q0 -64 -35.5 -90.5t-119.5 -26.5h-68q-86 0 -124 26.5t-39 90.5v10q0 72 78 88q-60 17 -60 85v15q1 58 36 83.5t113 25.5h59q76 0 109 -25.5t33 -83.5zM634 299v-18q0 -16 9 -23t30 -7h40q20 0 28.5 7t8.5 23v18
q0 32 -38 32h-38q-22 0 -31 -7t-9 -25zM754 123v19q0 32 -38 32h-45q-22 0 -31 -7.5t-9 -24.5v-19q0 -18 9.5 -25.5t32.5 -6.5h40q23 0 32 7t9 25z" />
    <glyph glyph-name="seveneighths" unicode="&#x215e;" horiz-adv-x="820" 
d="M629 723l-253 -375l-226 -365h-70l247 365l232 375h70zM366 603l-142 -315h-158v20l169 295h-127l-15 -45h-85v142h358v-97zM778 311v-15q0 -69 -57 -85q75 -16 75 -88v-10q0 -64 -35.5 -90.5t-119.5 -26.5h-68q-86 0 -124 26.5t-39 90.5v10q0 72 78 88q-60 17 -60 85v15
q1 58 36 83.5t113 25.5h59q76 0 109 -25.5t33 -83.5zM545 299v-18q0 -16 9 -23t30 -7h40q20 0 28.5 7t8.5 23v18q0 32 -38 32h-38q-22 0 -31 -7t-9 -25zM665 123v19q0 32 -38 32h-45q-22 0 -31 -7.5t-9 -24.5v-19q0 -18 9.5 -25.5t32.5 -6.5h40q23 0 32 7t9 25z" />
    <glyph glyph-name="arrowleft" unicode="&#x2190;" horiz-adv-x="747" 
d="M733 265h-442l184 -171l-112 -112l-343 344v49l343 343l112 -112l-180 -168h438v-173z" />
    <glyph glyph-name="arrowup" unicode="&#x2191;" horiz-adv-x="775" 
d="M764 370l-112 -112l-171 184v-442h-174v439l-167 -181l-112 112l344 343h48z" />
    <glyph glyph-name="arrowright" unicode="&#x2192;" horiz-adv-x="747" 
d="M452 438l-180 168l112 112l343 -343v-49l-343 -344l-112 112l184 171h-442v173h438z" />
    <glyph glyph-name="arrowdown" unicode="&#x2193;" horiz-adv-x="775" 
d="M412 -13h-48l-344 343l112 112l167 -181v439h174v-442l171 184l112 -112z" />
    <glyph glyph-name="arrowupleft" unicode="&#x2196;" horiz-adv-x="674" 
d="M308 471l334 -334l-123 -123l-336 337l9 -251h-158v485l35 35h485v-158z" />
    <glyph glyph-name="arrowupright" unicode="&#x2197;" horiz-adv-x="674" 
d="M120 445v158h485l35 -35v-485h-158l9 251l-336 -337l-123 123l334 334z" />
    <glyph glyph-name="arrowdownright" unicode="&#x2198;" horiz-adv-x="674" 
d="M366 149l-334 334l123 123l336 -337l-9 251h158v-485l-35 -35h-485v158z" />
    <glyph glyph-name="arrowdownleft" unicode="&#x2199;" horiz-adv-x="674" 
d="M554 158v-158h-485l-35 35v485h158l-9 -251l336 337l123 -123l-334 -334z" />
    <glyph glyph-name="minus" unicode="&#x2212;" horiz-adv-x="582" 
d="M30 425h522v-154h-522v154z" />
    <glyph glyph-name="J.ss01" horiz-adv-x="583" 
d="M565 700v-140q-37 -8 -71 -12v-294q0 -147 -51.5 -206t-169.5 -59h-31q-129 0 -230 66v152h159q11 -36 23.5 -48.5t40.5 -12.5h12q33 0 42 17t9 63v322q-97 12 -99 12v140h366z" />
    <glyph glyph-name="K.ss02" horiz-adv-x="772" 
d="M524 404l160 -254q45 -4 75 -10v-140h-317v124q11 1 33 5l-97 156l-89 -80v-54q31 -3 70 -11v-140h-333v140q44 8 67 11v397q-37 5 -71 12v140h337v-140q-35 -8 -70 -12v-168l194 172q-52 6 -60 8v140h325v-140q-8 -1 -24 -3.5t-25 -4.5z" />
    <glyph glyph-name="Kcommaaccent.ss02" horiz-adv-x="772" 
d="M524 404l160 -254q45 -4 75 -10v-140h-317v124q11 1 33 5l-97 156l-89 -80v-54q31 -3 70 -11v-140h-333v140q44 8 67 11v397q-37 5 -71 12v140h337v-140q-35 -8 -70 -12v-168l194 172q-52 6 -60 8v140h325v-140q-8 -1 -24 -3.5t-25 -4.5zM321 -148l12 61q9 41 51 34
q40 -6 57 -18.5t17 -40.5q0 -56 -45 -109q-40 -46 -59 -61l-33 25q27 53 34 93z" />
    <glyph glyph-name="Q.ss03" horiz-adv-x="699" 
d="M299 713h110q264 0 264 -282v-169q0 -171 -91 -231q18 -30 83 -108l-83 -78q-131 85 -180 142q-4 0 -12 -0.5t-13 -0.5h-78q-270 0 -273 275v170q0 282 273 282zM388 549h-77q-41 0 -65 -28t-24 -74v-198q0 -45 24 -71.5t65 -26.5h77q40 0 64.5 26.5t24.5 71.5v198
q0 46 -24 74t-65 28z" />
    <glyph glyph-name="R.ss04" horiz-adv-x="732" 
d="M22 700h402q134 0 189.5 -47t55.5 -164v-45q0 -167 -129 -178q31 -54 82 -116q5 -1 24.5 -2.5t37 -3.5t28.5 -4v-140h-214q-95 131 -134 266h-31v126h75q38 0 50.5 11t14.5 40v35q0 62 -75 62h-108v-392q17 -2 51 -8v-140h-315v140q41 8 68 11v397q-24 3 -72 12v140z" />
    <glyph glyph-name="Racute.ss04" horiz-adv-x="732" 
d="M518 869v-26l-180 -110l-81 50l118 156zM22 700h402q134 0 189.5 -47t55.5 -164v-45q0 -167 -129 -178q31 -54 82 -116q5 -1 24.5 -2.5t37 -3.5t28.5 -4v-140h-214q-95 131 -134 266h-31v126h75q38 0 50.5 11t14.5 40v35q0 62 -75 62h-108v-392q17 -2 51 -8v-140h-315
v140q41 8 68 11v397q-24 3 -72 12v140z" />
    <glyph glyph-name="Rcaron.ss04" horiz-adv-x="732" 
d="M426 741h-114l-118 129l54 48l121 -80l121 80l54 -48zM22 700h402q134 0 189.5 -47t55.5 -164v-45q0 -167 -129 -178q31 -54 82 -116q5 -1 24.5 -2.5t37 -3.5t28.5 -4v-140h-214q-95 131 -134 266h-31v126h75q38 0 50.5 11t14.5 40v35q0 62 -75 62h-108v-392q17 -2 51 -8
v-140h-315v140q41 8 68 11v397q-24 3 -72 12v140z" />
    <glyph glyph-name="Rcommaaccent.ss04" horiz-adv-x="732" 
d="M22 700h402q134 0 189.5 -47t55.5 -164v-45q0 -167 -129 -178q31 -54 82 -116q5 -1 24.5 -2.5t37 -3.5t28.5 -4v-140h-214q-95 131 -134 266h-31v126h75q38 0 50.5 11t14.5 40v35q0 62 -75 62h-108v-392q17 -2 51 -8v-140h-315v140q41 8 68 11v397q-24 3 -72 12v140z
M302 -148l12 61q9 41 51 34q40 -6 57 -18.5t17 -40.5q0 -56 -45 -109q-40 -46 -59 -61l-33 25q27 53 34 93z" />
    <glyph glyph-name="a.ss05" horiz-adv-x="626" 
d="M608 537v-132q-8 -2 -57 -11v-251l57 -10v-133h-245v60q-37 -24 -52.5 -33.5t-50 -22t-65.5 -12.5h-15q-69 0 -109.5 49.5t-40.5 153.5v181q0 84 44 125t114 41h15q32 0 61 -7t47 -15.5t52 -26.5v44h245zM275 152h13q33 0 75 24v197q-35 17 -75 17h-13q-33 0 -45 -18
t-12 -75v-49q0 -61 10.5 -78.5t46.5 -17.5z" />
    <glyph glyph-name="aacute.ss05" horiz-adv-x="626" 
d="M449 711v-25l-173 -106l-77 48l114 150zM608 537v-132q-8 -2 -57 -11v-251l57 -10v-133h-245v60q-37 -24 -52.5 -33.5t-50 -22t-65.5 -12.5h-15q-69 0 -109.5 49.5t-40.5 153.5v181q0 84 44 125t114 41h15q32 0 61 -7t47 -15.5t52 -26.5v44h245zM275 152h13q33 0 75 24
v197q-35 17 -75 17h-13q-33 0 -45 -18t-12 -75v-49q0 -61 10.5 -78.5t46.5 -17.5z" />
    <glyph glyph-name="abreve.ss05" horiz-adv-x="626" 
d="M477 746v-26q0 -62 -44.5 -100t-120.5 -38q-77 0 -121.5 38t-44.5 100v26h103v-4q0 -48 63 -48t63 48v4h102zM608 537v-132q-8 -2 -57 -11v-251l57 -10v-133h-245v60q-37 -24 -52.5 -33.5t-50 -22t-65.5 -12.5h-15q-69 0 -109.5 49.5t-40.5 153.5v181q0 84 44 125t114 41
h15q32 0 61 -7t47 -15.5t52 -26.5v44h245zM275 152h13q33 0 75 24v197q-35 17 -75 17h-13q-33 0 -45 -18t-12 -75v-49q0 -61 10.5 -78.5t46.5 -17.5z" />
    <glyph glyph-name="acircumflex.ss05" horiz-adv-x="626" 
d="M431 584l-121 80l-121 -80l-54 48l118 129h114l118 -129zM608 537v-132q-8 -2 -57 -11v-251l57 -10v-133h-245v60q-37 -24 -52.5 -33.5t-50 -22t-65.5 -12.5h-15q-69 0 -109.5 49.5t-40.5 153.5v181q0 84 44 125t114 41h15q32 0 61 -7t47 -15.5t52 -26.5v44h245zM275 152
h13q33 0 75 24v197q-35 17 -75 17h-13q-33 0 -45 -18t-12 -75v-49q0 -61 10.5 -78.5t46.5 -17.5z" />
    <glyph glyph-name="adieresis.ss05" horiz-adv-x="626" 
d="M205 600q-36 0 -61.5 21t-25.5 55t25.5 56t61.5 22t60 -21.5t24 -56.5q0 -34 -24 -55t-60 -21zM418 600q-35 0 -59 21t-24 55q0 35 24 56.5t59 21.5q37 0 62 -21.5t25 -56.5q0 -34 -25 -55t-62 -21zM608 537v-132q-8 -2 -57 -11v-251l57 -10v-133h-245v60
q-37 -24 -52.5 -33.5t-50 -22t-65.5 -12.5h-15q-69 0 -109.5 49.5t-40.5 153.5v181q0 84 44 125t114 41h15q32 0 61 -7t47 -15.5t52 -26.5v44h245zM275 152h13q33 0 75 24v197q-35 17 -75 17h-13q-33 0 -45 -18t-12 -75v-49q0 -61 10.5 -78.5t46.5 -17.5z" />
    <glyph glyph-name="agrave.ss05" horiz-adv-x="626" 
d="M416 628l-77 -48l-173 106v25l136 67zM608 537v-132q-8 -2 -57 -11v-251l57 -10v-133h-245v60q-37 -24 -52.5 -33.5t-50 -22t-65.5 -12.5h-15q-69 0 -109.5 49.5t-40.5 153.5v181q0 84 44 125t114 41h15q32 0 61 -7t47 -15.5t52 -26.5v44h245zM275 152h13q33 0 75 24v197
q-35 17 -75 17h-13q-33 0 -45 -18t-12 -75v-49q0 -61 10.5 -78.5t46.5 -17.5z" />
    <glyph glyph-name="amacron.ss05" horiz-adv-x="626" 
d="M457 709v-105h-300v105h300zM608 537v-132q-8 -2 -57 -11v-251l57 -10v-133h-245v60q-37 -24 -52.5 -33.5t-50 -22t-65.5 -12.5h-15q-69 0 -109.5 49.5t-40.5 153.5v181q0 84 44 125t114 41h15q32 0 61 -7t47 -15.5t52 -26.5v44h245zM275 152h13q33 0 75 24v197
q-35 17 -75 17h-13q-33 0 -45 -18t-12 -75v-49q0 -61 10.5 -78.5t46.5 -17.5z" />
    <glyph glyph-name="aogonek.ss05" horiz-adv-x="626" 
d="M608 537v-132q-8 -2 -57 -11v-251l57 -10v-133h-84q-44 -46 -48 -56q-1 -3 -1 -6v-5q0 -18 22 -18q31 0 65 6l25 -52q-27 -20 -60 -33.5t-56 -13.5h-23q-84 0 -84 74v21q0 50 83 83h-84v60q-37 -24 -52.5 -33.5t-50 -22t-65.5 -12.5h-15q-69 0 -109.5 49.5t-40.5 153.5
v181q0 84 44 125t114 41h15q32 0 61 -7t47 -15.5t52 -26.5v44h245zM363 176v197q-35 17 -75 17h-13q-33 0 -45 -18t-12 -75v-49q0 -61 10.5 -78.5t46.5 -17.5h13q33 0 75 24z" />
    <glyph glyph-name="aring.ss05" horiz-adv-x="626" 
d="M332 583h-43q-84 0 -84 84v28q0 85 84 85h43q84 0 84 -85v-28q0 -84 -84 -84zM296 644h27q24 0 27 26v24q0 28 -27 28h-27q-26 0 -26 -28v-24q0 -26 26 -26zM608 537v-132q-8 -2 -57 -11v-251l57 -10v-133h-245v60q-37 -24 -52.5 -33.5t-50 -22t-65.5 -12.5h-15
q-69 0 -109.5 49.5t-40.5 153.5v181q0 84 44 125t114 41h15q32 0 61 -7t47 -15.5t52 -26.5v44h245zM275 152h13q33 0 75 24v197q-35 17 -75 17h-13q-33 0 -45 -18t-12 -75v-49q0 -61 10.5 -78.5t46.5 -17.5z" />
    <glyph glyph-name="atilde.ss05" horiz-adv-x="626" 
d="M502 700l-74 -83q-24 -24 -63 -24q-8 0 -17.5 2.5t-16 5.5t-18.5 11t-17.5 12t-20.5 16t-21 16l-88 -57l-54 48l72 81q25 28 64 28q12 0 24 -3.5t24.5 -11.5t20.5 -13.5t23 -17.5l20 -16l88 54zM608 537v-132q-8 -2 -57 -11v-251l57 -10v-133h-245v60
q-37 -24 -52.5 -33.5t-50 -22t-65.5 -12.5h-15q-69 0 -109.5 49.5t-40.5 153.5v181q0 84 44 125t114 41h15q32 0 61 -7t47 -15.5t52 -26.5v44h245zM275 152h13q33 0 75 24v197q-35 17 -75 17h-13q-33 0 -45 -18t-12 -75v-49q0 -61 10.5 -78.5t46.5 -17.5z" />
    <glyph glyph-name="g.ss06" horiz-adv-x="619" 
d="M605 537v-132q-9 -2 -26.5 -5t-21.5 -4v-377q0 -103 -60 -156t-176 -53h-53q-126 0 -218 66v114h152l5 -18q13 -27 65 -27h35q62 0 62 65v63q-85 -52 -182 -52h-15q-75 0 -108.5 35.5t-33.5 116.5v207q0 84 43.5 125t112.5 41h16q33 0 65.5 -9.5t49 -17.5t52.5 -27v45
h236zM274 180h14q43 0 81 23v170q-38 20 -82 20h-14q-33 0 -44 -18t-11 -75v-39q0 -49 10 -65t46 -16z" />
    <glyph glyph-name="gbreve.ss06" horiz-adv-x="619" 
d="M472 746v-26q0 -62 -44.5 -100t-120.5 -38q-77 0 -121.5 38t-44.5 100v26h103v-4q0 -48 63 -48t63 48v4h102zM605 537v-132q-9 -2 -26.5 -5t-21.5 -4v-377q0 -103 -60 -156t-176 -53h-53q-126 0 -218 66v114h152l5 -18q13 -27 65 -27h35q62 0 62 65v63q-85 -52 -182 -52
h-15q-75 0 -108.5 35.5t-33.5 116.5v207q0 84 43.5 125t112.5 41h16q33 0 65.5 -9.5t49 -17.5t52.5 -27v45h236zM274 180h14q43 0 81 23v170q-38 20 -82 20h-14q-33 0 -44 -18t-11 -75v-39q0 -49 10 -65t46 -16z" />
    <glyph glyph-name="gcommaaccent.ss06" horiz-adv-x="619" 
d="M365 683l-11 -56q-8 -38 -47 -32q-38 6 -53.5 18t-15.5 37q0 51 42 101q36 43 55 56l30 -23q-27 -53 -31 -86zM605 537v-132q-9 -2 -26.5 -5t-21.5 -4v-377q0 -103 -60 -156t-176 -53h-53q-126 0 -218 66v114h152l5 -18q13 -27 65 -27h35q62 0 62 65v63q-85 -52 -182 -52
h-15q-75 0 -108.5 35.5t-33.5 116.5v207q0 84 43.5 125t112.5 41h16q33 0 65.5 -9.5t49 -17.5t52.5 -27v45h236zM274 180h14q43 0 81 23v170q-38 20 -82 20h-14q-33 0 -44 -18t-11 -75v-39q0 -49 10 -65t46 -16z" />
    <glyph glyph-name="gdotaccent.ss06" horiz-adv-x="619" 
d="M306 589q-41 0 -68.5 24t-27.5 63t28 64t68 25q41 0 69 -25t28 -64t-28 -63t-69 -24zM605 537v-132q-9 -2 -26.5 -5t-21.5 -4v-377q0 -103 -60 -156t-176 -53h-53q-126 0 -218 66v114h152l5 -18q13 -27 65 -27h35q62 0 62 65v63q-85 -52 -182 -52h-15q-75 0 -108.5 35.5
t-33.5 116.5v207q0 84 43.5 125t112.5 41h16q33 0 65.5 -9.5t49 -17.5t52.5 -27v45h236zM274 180h14q43 0 81 23v170q-38 20 -82 20h-14q-33 0 -44 -18t-11 -75v-39q0 -49 10 -65t46 -16z" />
    <glyph glyph-name="k.ss07" horiz-adv-x="685" 
d="M275 700v-391l134 86q-40 7 -54 10v132h300v-132q-15 -3 -56 -10l-117 -80l124 -173l56 -10v-132h-253v128l-72 99l-62 -43v-42q33 -5 57 -10v-132h-302v132q24 5 57 10v415q-13 2 -55 11v132h243z" />
    <glyph glyph-name="kcommaaccent.ss07" horiz-adv-x="685" 
d="M275 309l134 86q-40 7 -54 10v132h300v-132q-15 -3 -56 -10l-117 -80l124 -173l56 -10v-132h-253v128l-72 99l-62 -43v-42q33 -5 57 -10v-132h-302v132q24 5 57 10v415q-13 2 -55 11v132h243v-391zM277 -148l12 61q9 41 51 34q40 -6 57 -18.5t17 -40.5q0 -56 -45 -109
q-40 -46 -59 -61l-33 25q27 53 34 93z" />
    <glyph glyph-name="y.ss08" horiz-adv-x="638" 
d="M608 537v-512q0 -215 -236 -215h-41q-138 0 -230 66v114h152l5 -18q14 -27 77 -27h23q62 0 62 71v47q-99 -42 -182 -42h-15q-75 0 -108.5 35.5t-33.5 116.5v221q-5 1 -16 3l-22 4t-21 4v132h247v-276q0 -49 10 -65t46 -16h14q43 0 81 23v191q-5 1 -16 3l-22 4t-21 4v132
h247z" />
    <glyph glyph-name="yacute.ss08" horiz-adv-x="638" 
d="M465 711v-25l-173 -106l-77 48l114 150zM608 537v-512q0 -215 -236 -215h-41q-138 0 -230 66v114h152l5 -18q14 -27 77 -27h23q62 0 62 71v47q-99 -42 -182 -42h-15q-75 0 -108.5 35.5t-33.5 116.5v221q-5 1 -16 3l-22 4t-21 4v132h247v-276q0 -49 10 -65t46 -16h14
q43 0 81 23v191q-5 1 -16 3l-22 4t-21 4v132h247z" />
    <glyph glyph-name="ycircumflex.ss08" horiz-adv-x="638" 
d="M447 584l-121 80l-121 -80l-54 48l118 129h114l118 -129zM608 537v-512q0 -215 -236 -215h-41q-138 0 -230 66v114h152l5 -18q14 -27 77 -27h23q62 0 62 71v47q-99 -42 -182 -42h-15q-75 0 -108.5 35.5t-33.5 116.5v221q-5 1 -16 3l-22 4t-21 4v132h247v-276
q0 -49 10 -65t46 -16h14q43 0 81 23v191q-5 1 -16 3l-22 4t-21 4v132h247z" />
    <glyph glyph-name="ydieresis.ss08" horiz-adv-x="638" 
d="M220 600q-36 0 -61.5 21t-25.5 55t25.5 56t61.5 22t60 -21.5t24 -56.5q0 -34 -24 -55t-60 -21zM433 600q-35 0 -59 21t-24 55q0 35 24 56.5t59 21.5q37 0 62 -21.5t25 -56.5q0 -34 -25 -55t-62 -21zM608 537v-512q0 -215 -236 -215h-41q-138 0 -230 66v114h152l5 -18
q14 -27 77 -27h23q62 0 62 71v47q-99 -42 -182 -42h-15q-75 0 -108.5 35.5t-33.5 116.5v221q-5 1 -16 3l-22 4t-21 4v132h247v-276q0 -49 10 -65t46 -16h14q43 0 81 23v191q-5 1 -16 3l-22 4t-21 4v132h247z" />
    <glyph glyph-name="ygrave.ss08" horiz-adv-x="638" 
d="M422 628l-77 -48l-173 106v25l136 67zM608 537v-512q0 -215 -236 -215h-41q-138 0 -230 66v114h152l5 -18q14 -27 77 -27h23q62 0 62 71v47q-99 -42 -182 -42h-15q-75 0 -108.5 35.5t-33.5 116.5v221q-5 1 -16 3l-22 4t-21 4v132h247v-276q0 -49 10 -65t46 -16h14
q43 0 81 23v191q-5 1 -16 3l-22 4t-21 4v132h247z" />
    <glyph glyph-name="i.dot" horiz-adv-x="350" 
d="M176 589q-41 0 -68.5 24t-27.5 63t28 64t68 25q41 0 69 -25t28 -64t-28 -63t-69 -24zM275 537v-395q33 -5 57 -10v-132h-302v132q24 5 57 10v252q-13 2 -55 11v132h243z" />
    <glyph glyph-name="f_f_f" horiz-adv-x="1236" 
d="M1066 400v-255q29 -3 83 -13v-132h-328v132q10 2 29 5t28 5v258h-207v-255q29 -3 83 -13v-132h-328v132q10 2 29 5t28 5v258h-208v-255q29 -3 83 -13v-132h-328v132q10 2 29 5t28 5v258h-65v121q7 1 30 4.5t35 4.5v47q0 62 38.5 105t105.5 55q50 9 161 19l16 -129
q-1 0 -39 -7.5t-61 -14.5q-33 -9 -33 -47v-21h208v40q0 62 38.5 105t105.5 55q50 9 161 19l16 -129q-1 0 -39 -7.5t-61 -14.5q-33 -9 -33 -47v-21h207v40q0 62 38.5 105t105.5 55q50 9 161 19l16 -129q-1 0 -39 -7.5t-61 -14.5q-33 -9 -33 -47v-21h149v-137h-149z" />
    <glyph glyph-name="f_f_j" horiz-adv-x="1100" 
d="M958 581q-44 0 -74.5 26.5t-30.5 68.5q0 43 30 69t75 26q44 0 74 -26t30 -69q0 -42 -30 -68.5t-74 -26.5zM1058 537v-431q0 -66 -21.5 -105.5t-87.5 -93.5q-26 -20 -41.5 -31t-34.5 -22.5t-27 -16.5l-74 78l16 20q16 20 30 39q30 39 41 66t11 68v292h-199v-255
q29 -3 83 -13v-132h-328v132q10 2 29 5t28 5v258h-208v-255q29 -3 83 -13v-132h-328v132q10 2 29 5t28 5v258h-65v121q7 1 30 4.5t35 4.5v47q0 62 38.5 105t105.5 55q50 9 161 19l16 -129q-1 0 -39 -7.5t-61 -14.5q-33 -9 -33 -47v-21h208v40q0 62 38.5 105t105.5 55
q50 9 161 19l16 -129q-1 0 -39 -7.5t-61 -14.5q-33 -9 -33 -47v-21h387z" />
    <glyph glyph-name="f_f_t" horiz-adv-x="1217" 
d="M1080 146h11q63 0 96 2v-108q-31 -22 -89 -38t-108 -16h-13q-63 0 -98.5 39t-35.5 109v265h-148v1h-24v-255q29 -3 83 -13v-132h-328v132q10 2 29 5t28 5v258h-208v-255q29 -3 83 -13v-132h-328v132q10 2 29 5t28 5v258h-65v121q7 1 30 4.5t35 4.5v47q0 62 38.5 105
t105.5 55q50 9 161 19l16 -129q-1 0 -39 -7.5t-61 -14.5q-33 -9 -33 -47v-21h208v40q0 62 38.5 105t105.5 55q50 9 161 19l16 -129q-1 0 -39 -7.5t-61 -14.5q-33 -9 -33 -47v-21h172q28 18 28 64v67q80 15 160 16v-147h149v-138h-149v-168q0 -56 8 -70.5t41 -14.5z" />
    <glyph glyph-name="f_i" horiz-adv-x="737" 
d="M568 581q-44 0 -74.5 26.5t-30.5 68.5q0 43 30 69t75 26q44 0 74 -26t30 -69q0 -42 -30 -68.5t-74 -26.5zM663 537v-394q15 -2 56 -11v-132h-302v132q17 5 58 11v257h-200v-255q29 -3 83 -13v-132h-328v132q10 2 29 5t28 5v258h-65v121q7 1 30 4.5t35 4.5v47
q0 62 38.5 105t105.5 55q50 9 161 19l16 -129q-1 0 -39 -7.5t-61 -14.5q-33 -9 -33 -47v-21h388z" />
    <glyph glyph-name="f_j" horiz-adv-x="704" 
d="M562 581q-44 0 -74 26.5t-30 68.5t30 68.5t74 26.5q45 0 75 -26t30 -69q0 -42 -30.5 -68.5t-74.5 -26.5zM663 537v-431q0 -66 -22 -105.5t-88 -93.5q-29 -24 -102 -70l-75 78q29 35 47 59q30 39 41 66t11 68v292h-200v-255q29 -3 83 -13v-132h-328v132q10 2 29 5t28 5
v258h-65v121q7 1 30 4.5t35 4.5v47q0 62 38.5 105t105.5 55q50 9 161 19l16 -129q-1 0 -39 -7.5t-61 -14.5q-33 -9 -33 -47v-21h388z" />
    <glyph glyph-name="f_l" horiz-adv-x="778" 
d="M275 400v-255q29 -3 83 -13v-132h-328v132q10 2 29 5t28 5v258h-65v121q7 1 30 4.5t35 4.5v47q0 62 38.5 105t105.5 55q50 9 161 19l16 -129q-1 0 -39 -7.5t-61 -14.5q-33 -9 -33 -47v-21h149v-137h-149zM700 700v-558q33 -5 57 -10v-132h-302v132q24 5 57 10v415
q-13 2 -55 11v132h243z" />
    <glyph glyph-name="f_t" horiz-adv-x="822" 
d="M685 146h11q63 0 96 2v-108q-31 -22 -89 -38t-108 -16h-13q-63 0 -98.5 39t-35.5 109v265h-173v-254q29 -3 83 -13v-132h-328v132q10 2 29 5t28 5v258h-65v121q7 1 30 4.5t35 4.5v47q0 62 38.5 105t105.5 55q50 9 161 19l16 -129q-1 0 -39 -7.5t-61 -14.5q-33 -9 -33 -47
v-21h173q28 18 28 64v67q80 15 160 16v-147h149v-138h-149v-168q0 -56 8 -70.5t41 -14.5z" />
    <glyph glyph-name="three.ss09" horiz-adv-x="551" 
d="M514 700v-158l-154 -141h27q83 0 111 -38t28 -136v-55q0 -94 -54.5 -137t-171.5 -43h-19q-110 0 -261 28v178h132l13 -55q39 -6 56 -6h60q36 0 48.5 11t12.5 43v29q0 44 -13 53.5t-66 9.5h-98l-43 86l184 168h-269v163h477z" />
    <glyph glyph-name="zero.tf" horiz-adv-x="634" 
d="M345 -14h-48q-146 0 -208 60.5t-65 206.5v186q0 150 62 212t211 62h47q145 0 205 -62t60 -212v-185q-3 -146 -63 -207t-201 -61zM309 146h15q47 0 67.5 21t21.5 70v222q0 51 -20.5 73t-68.5 22h-15q-48 0 -68.5 -22t-20.5 -73v-222q0 -49 20.5 -70t68.5 -21z" />
    <glyph glyph-name="one.tf" horiz-adv-x="634" 
d="M421 708v-552q98 -5 146 -16v-140h-496v140q58 13 153 16v371l-125 -8v140l215 49h107z" />
    <glyph glyph-name="two.tf" horiz-adv-x="634" 
d="M579 217v-217h-522v137q0 69 12.5 108.5t32.5 58t66 43.5q43 24 146 68q45 19 63 32t18 31v27q0 30 -12.5 41t-46.5 11q-63 0 -98 -9l-13 -53h-148v182q102 22 152 29t126 7q120 0 174 -51t54 -165v-28q0 -26 -3.5 -46t-8.5 -35t-18 -28.5t-22.5 -21.5t-33.5 -19.5
t-39 -18t-50 -20.5q-113 -45 -127 -53q-22 -13 -27 -28t-5 -55h185l14 73h131z" />
    <glyph glyph-name="three.tf" horiz-adv-x="634" 
d="M580 528v-38q0 -70 -20.5 -103.5t-64.5 -43.5q44 -9 64.5 -39t20.5 -97v-35q0 -97 -56.5 -138.5t-188.5 -41.5q-126 0 -277 28v178h132l12 -55q74 -6 131 -6q37 0 49.5 11t12.5 43v25q0 46 -21.5 54.5t-116.5 8.5h-81v142h81q96 0 117 9t21 58v21q0 31 -13.5 42.5
t-48.5 11.5q-60 0 -128 -7l-12 -58h-132v181q154 30 274 30q134 0 189.5 -41t55.5 -140z" />
    <glyph glyph-name="four.tf" horiz-adv-x="634" 
d="M8 337l317 363h196v-363h89v-125l-89 -15v-52q38 -4 89 -13v-132h-379v132q68 12 94 14v51h-317v140zM175 337h150v179z" />
    <glyph glyph-name="five.tf" horiz-adv-x="634" 
d="M536 509h-130l-6 42h-192l-6 -141q52 39 125 39h49q91 0 137 -34.5t46 -123.5v-114q0 -98 -55.5 -144t-177.5 -46q-125 0 -303 33v174h132l13 -55q64 -5 139 -5q37 0 52.5 13t15.5 44v73q0 22 -12.5 34.5t-34.5 12.5h-52q-20 0 -37 -6.5t-24.5 -11.5t-28.5 -21l-149 41
l11 387h488v-191z" />
    <glyph glyph-name="six.tf" horiz-adv-x="634" 
d="M373 443h47q104 0 148 -38t44 -129v-100q0 -98 -60 -141t-183 -43h-68q-139 0 -208.5 65.5t-71.5 204.5v175q0 276 290 276q99 0 269 -31v-182h-164l-22 43q-45 9 -82 9q-95 0 -95 -99v-72q82 51 156 62zM217 276v-45q0 -43 23.5 -65t65.5 -21h61q61 2 61 60v45
q0 55 -57 55h-33q-68 0 -121 -29z" />
    <glyph glyph-name="seven.tf" horiz-adv-x="634" 
d="M593 551l-222 -551h-233v31l269 520h-217l-22 -72h-131v221h556v-149z" />
    <glyph glyph-name="eight.tf" horiz-adv-x="634" 
d="M583 536v-49q0 -57 -21 -89.5t-69 -46.5q64 -12 91 -48.5t27 -104.5v-16q0 -103 -56.5 -149.5t-183.5 -46.5h-97q-131 0 -190.5 46.5t-61.5 149.5v16q0 67 28.5 103.5t94.5 49.5q-50 14 -72 46.5t-22 89.5v49q2 91 56 131.5t175 40.5h80q117 0 169 -40.5t52 -131.5z
M225 518v-43q0 -28 15 -40t49 -12h59q33 0 47 12t14 40v43q0 29 -13.5 41t-46.5 13h-60q-35 0 -49.5 -12.5t-14.5 -41.5zM415 202v41q0 28 -14.5 40.5t-48.5 12.5h-67q-36 0 -51 -12t-15 -41v-41q0 -31 15 -44.5t51 -13.5h67q33 0 48 14t15 44z" />
    <glyph glyph-name="nine.tf" horiz-adv-x="634" 
d="M258 258h-46q-104 0 -148.5 38t-44.5 128v100q0 91 59.5 140t167.5 49h101q137 0 199.5 -66t64.5 -209v-176q0 -143 -70 -209t-225 -66q-44 0 -87 4.5t-72.5 9.5t-103.5 19v184h180l5 -46q50 -10 77 -10q52 0 76 23t24 74v59q-79 -46 -157 -46zM415 416v54q0 44 -21.5 65
t-68.5 20h-61q-61 0 -61 -60v-44q0 -55 58 -55h33q81 0 121 20z" />
    <glyph glyph-name="zero.dnom" horiz-adv-x="442" 
d="M261 -4h-74q-86 0 -121.5 35.5t-37.5 121.5v105q0 89 35.5 125.5t123.5 36.5h74q85 -1 119 -37t34 -125v-105q-2 -86 -36 -121.5t-117 -35.5zM209 94h24q29 0 40 13t11 47v106q0 34 -11 47t-40 13h-24q-29 0 -40 -13t-11 -47v-106q0 -34 11 -47t40 -13z" />
    <glyph glyph-name="one.dnom" horiz-adv-x="337" 
d="M250 421v-322q30 -3 64 -8v-91h-280v91q47 8 80 9v213l-87 -7v81l146 34h77z" />
    <glyph glyph-name="two.dnom" horiz-adv-x="406" 
d="M374 141v-141h-346v89q0 54 13.5 85t46.5 47q30 15 101 31q40 10 53 16.5t13 21.5v7q0 14 -6.5 18.5t-27.5 4.5q-50 0 -74 -4l-9 -35h-97v119q69 14 100 17.5t88 3.5q81 0 114.5 -25t33.5 -94v-34q0 -71 -88 -97q-31 -8 -61 -17q-6 -2 -19.5 -5.5t-17.5 -4.5t-13 -4.5
t-11.5 -5.5t-8 -6t-6.5 -8.5t-2.5 -10.5t-1.5 -14h131l10 46h85z" />
    <glyph glyph-name="three.dnom" horiz-adv-x="394" 
d="M366 306v-14q0 -79 -62 -98q33 -4 47.5 -20.5t14.5 -52.5v-11q0 -63 -38 -88.5t-128 -25.5q-82 0 -178 17v120h90l9 -36q32 -3 82 -3q22 0 30.5 7t8.5 24v10q0 18 -11 25t-38 7h-81v83h82q26 0 37 6.5t11 23.5v11q0 18 -8 24.5t-31 6.5q-49 0 -84 -4l-9 -34h-86v119
q93 18 176 18q94 0 130 -24.5t36 -90.5z" />
    <glyph glyph-name="four.dnom" horiz-adv-x="437" 
d="M347 123v-29q29 -1 61 -8v-86h-263v86q31 6 66 9v28h-203v92l203 199h136v-199h62v-82zM211 325l-94 -110h94v110z" />
    <glyph glyph-name="five.dnom" horiz-adv-x="412" 
d="M370 412v-127h-85l-6 30h-125l-3 -75q43 19 79 19h34q60 0 90.5 -24t30.5 -85v-34q0 -120 -148 -120h-21q-75 0 -188 20v119h86l5 -38q35 -4 67 -4h30q41 2 41 34v24q0 33 -32 33h-32q-31 0 -61 -25l-98 27l8 226h328z" />
    <glyph glyph-name="six.dnom" horiz-adv-x="438" 
d="M249 255h38q64 0 93.5 -28.5t29.5 -86.5v-21q0 -64 -39 -93.5t-118 -29.5h-48q-181 0 -181 172v81q0 84 44.5 130t124.5 46h24q69 0 173 -20v-120h-106l-14 31q-25 4 -55 4q-59 0 -59 -60v-22q42 17 93 17zM156 163v-23q0 -47 57 -44h34q39 0 39 35v18q0 33 -34 33h-29
q-27 0 -67 -19z" />
    <glyph glyph-name="seven.dnom" horiz-adv-x="374" 
d="M366 315l-142 -315h-158v20l169 295h-127l-15 -45h-85v142h358v-97z" />
    <glyph glyph-name="eight.dnom" horiz-adv-x="434" 
d="M392 311v-15q0 -69 -57 -85q75 -16 75 -88v-10q0 -64 -35.5 -90.5t-119.5 -26.5h-68q-86 0 -124 26.5t-39 90.5v10q0 72 78 88q-60 17 -60 85v15q1 58 36 83.5t113 25.5h59q76 0 109 -25.5t33 -83.5zM159 299v-18q0 -16 9 -23t30 -7h40q20 0 28.5 7t8.5 23v18
q0 32 -38 32h-38q-22 0 -31 -7t-9 -25zM279 123v19q0 32 -38 32h-45q-22 0 -31 -7.5t-9 -24.5v-19q0 -18 9.5 -25.5t32.5 -6.5h40q23 0 32 7t9 25z" />
    <glyph glyph-name="nine.dnom" horiz-adv-x="425" 
d="M179 152h-34q-66 0 -94.5 25t-28.5 83v45q0 58 38 89t109 31h61q88 0 128.5 -39t42.5 -127v-92q0 -171 -170 -171h-18q-57 0 -169 20v107h107l7 -30q22 -6 56 -6q59 0 59 62v32q-42 -29 -94 -29zM273 256v33q0 40 -57 38h-35q-38 0 -38 -36v-13q0 -36 34 -36h25
q48 0 71 14z" />
    <glyph glyph-name="zero.numr" horiz-adv-x="442" 
d="M261 284h-74q-86 0 -121.5 35.5t-37.5 121.5v105q0 89 35.5 125.5t123.5 36.5h74q85 -1 119 -37t34 -125v-105q-2 -86 -36 -121.5t-117 -35.5zM209 382h24q29 0 40 13t11 47v106q0 34 -11 47t-40 13h-24q-29 0 -40 -13t-11 -47v-106q0 -34 11 -47t40 -13z" />
    <glyph glyph-name="one.numr" horiz-adv-x="337" 
d="M250 709v-322q30 -3 64 -8v-91h-280v91q47 8 80 9v213l-87 -7v81l146 34h77z" />
    <glyph glyph-name="two.numr" horiz-adv-x="406" 
d="M374 429v-141h-346v89q0 54 13.5 85t46.5 47q30 15 101 31q40 10 53 16.5t13 21.5v7q0 14 -6.5 18.5t-27.5 4.5q-50 0 -74 -4l-9 -35h-97v119q69 14 100 17.5t88 3.5q81 0 114.5 -25t33.5 -94v-34q0 -71 -88 -97q-31 -8 -61 -17q-6 -2 -19.5 -5.5t-17.5 -4.5t-13 -4.5
t-11.5 -5.5t-8 -6t-6.5 -8.5t-2.5 -10.5t-1.5 -14h131l10 46h85z" />
    <glyph glyph-name="three.numr" horiz-adv-x="394" 
d="M366 594v-14q0 -79 -62 -98q33 -4 47.5 -20.5t14.5 -52.5v-11q0 -63 -38 -88.5t-128 -25.5q-82 0 -178 17v120h90l9 -36q32 -3 82 -3q22 0 30.5 7t8.5 24v10q0 18 -11 25t-38 7h-81v83h82q26 0 37 6.5t11 23.5v11q0 18 -8 24.5t-31 6.5q-49 0 -84 -4l-9 -34h-86v119
q93 18 176 18q94 0 130 -24.5t36 -90.5z" />
    <glyph glyph-name="four.numr" horiz-adv-x="437" 
d="M347 411v-29q29 -1 61 -8v-86h-263v86q31 6 66 9v28h-203v92l203 199h136v-199h62v-82zM211 613l-94 -110h94v110z" />
    <glyph glyph-name="five.numr" horiz-adv-x="412" 
d="M370 700v-127h-85l-6 30h-125l-3 -75q43 19 79 19h34q60 0 90.5 -24t30.5 -85v-34q0 -120 -148 -120h-21q-75 0 -188 20v119h86l5 -38q35 -4 67 -4h30q41 2 41 34v24q0 33 -32 33h-32q-31 0 -61 -25l-98 27l8 226h328z" />
    <glyph glyph-name="six.numr" horiz-adv-x="438" 
d="M249 543h38q64 0 93.5 -28.5t29.5 -86.5v-21q0 -64 -39 -93.5t-118 -29.5h-48q-181 0 -181 172v81q0 84 44.5 130t124.5 46h24q69 0 173 -20v-120h-106l-14 31q-25 4 -55 4q-59 0 -59 -60v-22q42 17 93 17zM156 451v-23q0 -47 57 -44h34q39 0 39 35v18q0 33 -34 33h-29
q-27 0 -67 -19z" />
    <glyph glyph-name="seven.numr" horiz-adv-x="374" 
d="M366 603l-142 -315h-158v20l169 295h-127l-15 -45h-85v142h358v-97z" />
    <glyph glyph-name="eight.numr" horiz-adv-x="434" 
d="M392 599v-15q0 -69 -57 -85q75 -16 75 -88v-10q0 -64 -35.5 -90.5t-119.5 -26.5h-68q-86 0 -124 26.5t-39 90.5v10q0 72 78 88q-60 17 -60 85v15q1 58 36 83.5t113 25.5h59q76 0 109 -25.5t33 -83.5zM159 587v-18q0 -16 9 -23t30 -7h40q20 0 28.5 7t8.5 23v18
q0 32 -38 32h-38q-22 0 -31 -7t-9 -25zM279 411v19q0 32 -38 32h-45q-22 0 -31 -7.5t-9 -24.5v-19q0 -18 9.5 -25.5t32.5 -6.5h40q23 0 32 7t9 25z" />
    <glyph glyph-name="nine.numr" horiz-adv-x="425" 
d="M179 440h-34q-66 0 -94.5 25t-28.5 83v45q0 58 38 89t109 31h61q88 0 128.5 -39t42.5 -127v-92q0 -171 -170 -171h-18q-57 0 -169 20v107h107l7 -30q22 -6 56 -6q59 0 59 62v32q-42 -29 -94 -29zM273 544v33q0 40 -57 38h-35q-38 0 -38 -36v-13q0 -36 34 -36h25
q48 0 71 14z" />
    <glyph glyph-name="backslash.case" horiz-adv-x="471" 
d="M97 771l392 -852h-107l-392 852h107z" />
    <glyph glyph-name="bullet.case" horiz-adv-x="321" 
d="M192 200q-103 0 -152.5 45t-49.5 140q0 96 50 142t152 46t151.5 -46t49.5 -142q0 -95 -49.5 -140t-151.5 -45z" />
    <glyph glyph-name="exclamdown.case" horiz-adv-x="255" 
d="M125 706q105 0 105 -96q0 -98 -105 -98t-105 98q0 96 105 96zM20 0v135l49 319h111l49 -319v-135h-209z" />
    <glyph glyph-name="periodcentered.case" horiz-adv-x="250" 
d="M125 241q-105 0 -105 96q0 98 105 98t105 -98q0 -96 -105 -96z" />
    <glyph glyph-name="questiondown.case" horiz-adv-x="537" 
d="M324 706q105 0 105 -96q0 -98 -105 -98t-105 98q0 96 105 96zM524 197v-174q-104 -23 -152 -29.5t-125 -6.5q-114 0 -171.5 46.5t-57.5 145.5v19q0 76 24 110t73 51q26 8 70.5 19.5t61.5 16.5v73h157l18 -170q-114 -29 -161 -45q-54 -18 -54 -47v-18q0 -32 12.5 -43
t46.5 -11q54 0 97 10l13 53h148z" />
    <glyph glyph-name="slash.case" horiz-adv-x="471" 
d="M89 -68h-107l392 852h107z" />
    <glyph glyph-name="numbersign.ss10" horiz-adv-x="541" 
d="M432 429h65v-123h-83l-13 -86h-123l12 86h-75l-13 -86h-124l13 86h-73v123h90l9 59h-78v124h96l13 88h124l-13 -88h75l14 88h123l-13 -88h57v-124h-74zM242 488l-10 -59h76l9 59h-75z" />
    <glyph glyph-name="braceleft.case" horiz-adv-x="390" 
d="M263 584v-474q0 -29 5 -48.5t21.5 -36t29 -25t46.5 -28.5l-41 -83q-36 13 -52 19t-45.5 19.5t-44 23.5t-34.5 27t-29.5 35t-16.5 42.5t-7 53.5v160l-79 19v136l79 19v143q0 40 13.5 72t31 51.5t53 39.5t60 29.5t71.5 26.5l41 -83q-34 -20 -46.5 -28.5t-29 -25t-21.5 -36
t-5 -48.5z" />
    <glyph glyph-name="braceright.case" horiz-adv-x="390" 
d="M127 110v474q0 29 -5 48.5t-21.5 36t-29 25t-46.5 28.5l41 83q47 -17 71.5 -26.5t60 -29.5t53 -39.5t31 -51.5t13.5 -72v-143l79 -19v-136l-79 -19v-160q0 -29 -7 -53.5t-16.5 -42.5t-29.5 -35t-34.5 -27t-44 -23.5t-45.5 -19.5t-52 -19l-41 83q34 20 46.5 28.5t29 25
t21.5 36t5 48.5z" />
    <glyph glyph-name="bracketleft.case" horiz-adv-x="309" 
d="M295 661h-101v-627h101v-119h-269v870h269v-124z" />
    <glyph glyph-name="bracketright.case" horiz-adv-x="309" 
d="M283 785v-870h-269v119h101v627h-101v124h269z" />
    <glyph glyph-name="parenleft.case" horiz-adv-x="300" 
d="M184 587v-474q0 -29 5 -48.5t21.5 -36t29 -25t46.5 -28.5l-41 -83q-36 13 -52 19t-45.5 19.5t-44 23.5t-34.5 27t-29.5 35t-16.5 42.5t-7 53.5v477q0 40 13.5 72t31 51.5t53 39.5t60 29.5t71.5 26.5l41 -83q-34 -20 -46.5 -28.5t-29 -25t-21.5 -36t-5 -48.5z" />
    <glyph glyph-name="parenright.case" horiz-adv-x="311" 
d="M127 113v474q0 29 -5 48.5t-21.5 36t-29 25t-46.5 28.5l41 83q47 -17 71.5 -26.5t60 -29.5t53 -39.5t31 -51.5t13.5 -72v-477q0 -29 -7 -53.5t-16.5 -42.5t-29.5 -35t-34.5 -27t-44 -23.5t-45.5 -19.5t-52 -19l-41 83q34 20 46.5 28.5t29 25t21.5 36t5 48.5z" />
    <glyph glyph-name="emdash.case" horiz-adv-x="640" 
d="M612 275h-584v145h584v-145z" />
    <glyph glyph-name="endash.case" horiz-adv-x="456" 
d="M428 275h-400v145h400v-145z" />
    <glyph glyph-name="hyphen.case" horiz-adv-x="372" 
d="M356 271h-328v153h328v-153z" />
    <glyph glyph-name="guillemotleft.case" horiz-adv-x="571" 
d="M288 173v-57h-115l-146 203v12l146 203h115v-59l-86 -144v-12zM517 173v-57h-115l-146 203v12l146 203h115v-59l-86 -144v-12z" />
    <glyph glyph-name="guillemotright.case" horiz-adv-x="571" 
d="M149 331l-86 144v59h115l146 -203v-12l-146 -203h-115v57l86 146v12zM377 331l-86 144v59h115l146 -203v-12l-146 -203h-115v57l86 146v12z" />
    <glyph glyph-name="guilsinglleft.case" horiz-adv-x="307" 
d="M283 200v-57h-115l-146 203v12l146 203h115v-59l-86 -144v-12z" />
    <glyph glyph-name="guilsinglright.case" horiz-adv-x="307" 
d="M108 358l-86 144v59h115l146 -203v-12l-146 -203h-115v57l86 146v12z" />
    <glyph glyph-name="florin.tf" horiz-adv-x="634" 
d="M525 457v-145h-139l-27 -169q-13 -75 -45.5 -110.5t-100.5 -48.5q-25 -5 -46 -7t-53 -2h-33l-22 102q8 2 42 12t43 18.5t15 28.5l28 176h-64v129q68 10 88 12l16 100q13 76 45.5 111.5t100.5 48.5q41 8 167 19l17 -129q-24 -6 -77 -22q-34 -10 -44.5 -18.5t-13.5 -28.5
l-13 -77h116z" />
    <glyph glyph-name="cent.tf" horiz-adv-x="634" 
d="M559 184v-132q-75 -47 -163 -62v-55h-143v53q-98 8 -144 63t-46 159v129q0 95 52 148t146 61v57h143v-58q57 -4 149 -23v-205h-141l-16 89q-9 0 -24.5 1t-23.5 2v-285q41 3 54 40l4 18h153zM251 331v-135q0 -68 57 -71v285q-57 -6 -57 -79z" />
    <glyph glyph-name="dollar.tf" horiz-adv-x="634" 
d="M351 438l119 -28q79 -19 109.5 -56t30.5 -112v-42q0 -97 -53.5 -145t-169.5 -55v-65h-143v65q-73 4 -209 42v184h164l21 -73q34 -10 76 -11v131l-132 33q-80 23 -108.5 60.5t-28.5 125.5v9q0 98 53.5 146t170.5 54v76h144v-77q83 -5 195 -32v-199h-155l-22 77
q-21 10 -62 12v-120zM296 452v106h-1q-35 0 -49.5 -10.5t-14.5 -37.5v-7q0 -19 9.5 -29.5t32.5 -16.5zM414 191v13q0 23 -12 34t-51 22v-118q37 1 49.5 11.5t13.5 37.5z" />
    <glyph glyph-name="Euro.tf" horiz-adv-x="634" 
d="M464 495l-6 51q-26 11 -109 11q-89 0 -89 -80v-30h203l-17 -76h-186v-40h176l-17 -75h-159v-23q2 -89 89 -87h22q69 0 96 61h136v-128q-113 -93 -223 -93h-52q-263 0 -263 243v27h-50v75h49v40h-49v76h49v19q0 130 66 188.5t199 58.5h37q121 0 238 -33v-185h-140z" />
    <glyph glyph-name="sterling.tf" horiz-adv-x="634" 
d="M603 0h-577v140l13.5 13.5l14.5 14.5t12.5 14t12.5 17.5t8.5 18t6 21.5t0.5 23l-1 16h-76v107h78l-6 68q-2 47 1 81t16 69.5t37.5 58t69.5 37t108 14.5h21q105 0 263 -33l-24 -202h-148l-13 72q-29 7 -88 7q-34 0 -45.5 -21.5t-6.5 -68.5l10 -82h155l-17 -107h-132l1 -19
q2 -17 -2 -31t-17.5 -28.5t-20 -20.5t-27.5 -23h220l23 93h130v-249z" />
    <glyph glyph-name="yen.tf" horiz-adv-x="634" 
d="M624 700v-140q-52 -10 -71 -12l-78 -164h105v-67h-137l-21 -43h158v-67h-175v-56q31 -3 70 -11v-140h-333v140q40 8 67 10v57h-165v67h145l-20 43h-125v67h94l-77 166q-20 2 -60 10v140h285v-140l-41 -6l71 -170h5l83 168q-7 1 -50 8v140h270z" />
    <glyph glyph-name="arrowdown.ss13" horiz-adv-x="779" 
d="M390 75q115 0 195.5 81t80.5 197q0 115 -80.5 196t-195.5 81t-196.5 -81t-81.5 -196t81 -196.5t197 -81.5zM402 188h-25l-149 149l51 51l70 -75v189h80v-191l71 77l51 -51z" />
    <glyph glyph-name="arrowdownleft.ss13" horiz-adv-x="779" 
d="M193 152q81 -81 195.5 -80.5t196.5 82.5q81 81 81.5 195t-81.5 196q-82 81 -196.5 81t-195.5 -81q-82 -82 -82 -196.5t82 -196.5zM281 224l-17 17v211h72l-3 -102l132 134l57 -57l-135 -135l105 4v-72h-211z" />
    <glyph glyph-name="arrowdownright.ss13" horiz-adv-x="780" 
d="M578 152q82 82 82 196.5t-82 196.5q-81 81 -195.5 81t-196.5 -81q-82 -82 -81.5 -196t81.5 -195q82 -82 196.5 -82.5t195.5 80.5zM279 296l105 -4l-135 135l57 57l132 -134l-3 103h72v-212l-17 -17h-211v72z" />
    <glyph glyph-name="arrowleft.ss13" horiz-adv-x="779" 
d="M112 351q0 -115 81 -195.5t197 -80.5q115 0 196 80.5t81 195.5t-81 196.5t-196 81.5q-116 0 -197 -81.5t-81 -196.5zM225 339v25l150 150l51 -52l-76 -70h189v-79h-191l78 -72l-51 -51z" />
    <glyph glyph-name="arrowright.ss13" horiz-adv-x="779" 
d="M667 351q0 115 -81.5 196.5t-196.5 81.5t-196 -81.5t-81 -196.5t81 -195.5t196 -80.5q116 0 197 80.5t81 195.5zM354 241l77 72h-191v79h189l-75 70l51 52l150 -150v-25l-150 -149z" />
    <glyph glyph-name="arrowup.ss13" horiz-adv-x="779" 
d="M390 630q-116 0 -197 -81t-81 -197q0 -115 81.5 -196t196.5 -81t195.5 81t80.5 196q0 116 -80.5 197t-195.5 81zM500 317l-71 77v-191h-80v189l-70 -75l-51 51l149 149h25l149 -149z" />
    <glyph glyph-name="arrowupleft.ss13" horiz-adv-x="780" 
d="M193 552q-82 -82 -82 -196.5t82 -196.5q81 -81 195.5 -81t196.5 81q82 82 81.5 196t-81.5 195q-82 82 -196.5 82.5t-195.5 -80.5zM492 408l-105 4l135 -135l-57 -57l-132 134l3 -103h-72v212l17 17h211v-72z" />
    <glyph glyph-name="arrowupright.ss13" horiz-adv-x="780" 
d="M578 552q-81 81 -195.5 80.5t-196.5 -82.5q-81 -81 -81.5 -195t81.5 -196q82 -81 196.5 -81t195.5 81q82 82 82 196.5t-82 196.5zM490 480l17 -17v-211h-72l3 102l-132 -134l-57 57l135 135l-105 -4v72h211z" />
    <glyph glyph-name="at.case" horiz-adv-x="982" 
d="M737 566l-47 -308q-4 -42 6 -59.5t42 -17.5q60 0 97 58.5t37 165.5q0 150 -83 228t-246 78q-143 0 -242.5 -57t-145 -149.5t-45.5 -210.5q0 -167 97 -252t274 -85q158 0 294 68l25 -54q-135 -78 -323 -78q-205 0 -322 102t-117 297q0 214 134 348.5t373 134.5
q191 0 295 -93.5t104 -266.5q0 -146 -71.5 -228t-206.5 -82q-28 0 -44 1.5t-38 6.5t-35.5 19t-19.5 36q-33 -34 -64 -50.5t-81 -16.5h-14q-66 0 -106 42.5t-27 133.5l16 142q11 72 54.5 108.5t103.5 36.5h16q62 0 136 -31l4 33h170zM528 259l21 170q-35 15 -70 15h-11
q-30 0 -43.5 -18t-20.5 -72l-3 -37q-7 -52 3.5 -70t44.5 -18h7q35 0 71 23z" />
    <glyph glyph-name="ampersand.ss11" horiz-adv-x="764" 
d="M752 436v-134q-92 -10 -101 -11v-26q0 -140 -65 -207t-206 -67h-66q-163 0 -229.5 48.5t-66.5 170.5v17q0 130 106 153q-42 45 -42 136v14q0 98 53 140.5t164 42.5h20q61 0 180 -30v-173h-132l-11 50q-27 6 -48 6h-22q-47 0 -47 -44v-27q0 -27 15 -43t43 -16h70v-134
h-107q-66 0 -66 -63v-26q0 -38 16 -52t62 -14h97q66 0 94 27t28 89v29q-54 7 -76 10v134h337z" />
    <glyph glyph-name="copyright.ss12" horiz-adv-x="428" 
d="M214 319q-94 0 -146 52t-52 146t52 146t146 52t146 -52t52 -146t-52 -146t-146 -52zM214 356q77 0 117.5 41t40.5 120t-40.5 120t-117.5 41t-117.5 -41t-40.5 -120t40.5 -120t117.5 -41zM301 486v-50q-41 -24 -79 -24h-20q-38 0 -60.5 22t-23.5 62v42q0 40 22 62t62 22
h17q24 0 82 -11v-74h-55l-7 27q-11 4 -28 4q-27 0 -27 -31v-41q0 -26 28 -26h4q24 0 30 16h55z" />
    <glyph glyph-name="acute.case" 
d="M403 869v-26l-180 -110l-81 50l118 156z" />
    <glyph glyph-name="breve.case" 
d="M422 907v-28q0 -65 -46 -104t-126 -39q-81 0 -127 39t-46 104v28h107v-5q0 -49 66 -49t66 49v5h106z" />
    <glyph glyph-name="caron.case" 
d="M307 741h-114l-118 129l54 48l121 -80l121 80l54 -48z" />
    <glyph glyph-name="circumflex.case" 
d="M375 737l-126 83l-126 -83l-57 50l123 135h121l122 -135z" />
    <glyph glyph-name="dieresis.case" 
d="M133 749q-40 0 -67 23.5t-27 60.5q0 38 27 62t67 24t66.5 -24t26.5 -62t-26.5 -61t-66.5 -23zM366 749q-39 0 -65.5 23.5t-26.5 60.5q0 38 26.5 62t65.5 24q40 0 67 -24t27 -62t-27 -61t-67 -23z" />
    <glyph glyph-name="dotaccent.case" 
d="M249 746q-41 0 -68.5 24t-27.5 63t28 64t68 25q41 0 69 -25t28 -64t-28 -63t-69 -24z" />
    <glyph glyph-name="grave.case" 
d="M374 785l-77 -48l-173 106v25l136 67z" />
    <glyph glyph-name="hungarumlaut.case" 
d="M268 887v-23l-149 -121l-69 47l112 149zM450 887v-23l-147 -121l-71 47l114 149z" />
    <glyph glyph-name="macron.case" 
d="M412 869v-110h-324v110h324z" />
    <glyph glyph-name="ring.case" 
d="M272 723h-45q-44 0 -68.5 23.5t-24.5 68.5v31q0 92 93 92h45q93 0 93 -92v-31q-2 -92 -93 -92zM234 790h30q25 0 28 27v27q0 31 -28 31h-30q-28 0 -28 -31v-27q0 -27 28 -27z" />
    <glyph glyph-name="tilde.case" 
d="M457 855l-78 -87q-24 -25 -65 -25q-11 0 -18 1t-17 6.5t-17 10t-27 19.5t-37 27l-91 -58l-57 50l66 75q35 39 75 39q16 0 29 -4.5t19.5 -8t31 -22.5t38.5 -29l91 55z" />
    <glyph glyph-name="caron.alt" 
d="M343 780v-27l-67 -175h-94l16 202h145z" />
    </font>
</defs>
</svg>
