<?xml version="1.0" standalone="no"?>
<!DOCTYPE svg PUBLIC "-//W3C//DTD SVG 1.1//EN" "http://www.w3.org/Graphics/SVG/1.1/DTD/svg11.dtd" >
<svg xmlns="http://www.w3.org/2000/svg" xmlns:xlink="http://www.w3.org/1999/xlink" version="1.1">
<metadata>
Created by FontForge 20150102 at Tue Feb  3 15:59:17 2015
 By uniteet7
Copyright (c) 2012 by Rene Bieder. All rights reserved.
</metadata>
<defs>
<font id="ReneBiederQuadonLightItalic" horiz-adv-x="500" >
  <font-face 
    font-family="ReneBiederQuadonLightItalic"
    font-weight="300"
    font-style="italic"
    font-stretch="normal"
    units-per-em="1000"
    panose-1="0 0 4 0 0 0 0 0 0 0"
    ascent="800"
    descent="-200"
    x-height="506"
    cap-height="700"
    bbox="-211 -191 1244.28 913"
    underline-thickness="50"
    underline-position="-90"
    slope="-8"
    unicode-range="U+0020-2212"
  />
<missing-glyph horiz-adv-x="683" 
d="M8 0l-8 9l674 691l9 -8z" />
    <glyph glyph-name="f_f" unicode="ff" horiz-adv-x="672" 
d="M531 506h158l-5 -36h-157l-73 -500q-24 -105 -106 -105q-40 0 -63 2l6 36h41q62 0 74 67l73 500h-263l-73 -500q-24 -105 -106 -105q-40 0 -63 2l6 36h41q62 0 74 67l73 500h-82l4 32l82 3l10 68q8 53 30 82.5t70 40.5q10 2 100 18l2 -33q-30 -6 -87 -22
q-34 -9 -48 -31.5t-21 -67.5l-8 -54h263l10 67q8 53 30 82.5t70 40.5q10 2 100 18l2 -33q-30 -6 -87 -22q-34 -9 -48 -31.5t-21 -67.5z" />
    <glyph glyph-name="f_f_i" unicode="ffi" horiz-adv-x="924" 
d="M873 30l-4 -36q-46 -2 -63 -2q-95 0 -80 101l54 377h-253l-73 -500q-24 -105 -106 -105q-40 0 -63 2l6 36h41q62 0 74 67l73 500h-263l-73 -500q-24 -105 -106 -105q-40 0 -63 2l6 36h41q62 0 74 67l73 500h-82l4 32l82 3l10 68q8 53 30 82.5t70 40.5q10 2 100 18l2 -33
q-30 -6 -87 -22q-34 -9 -48 -31.5t-21 -67.5l-8 -54h263l10 67q8 53 30 82.5t70 40.5q10 2 100 18l2 -33q-30 -6 -87 -22q-34 -9 -48 -31.5t-21 -67.5l-8 -54h301l-59 -417q-8 -59 52 -59h48zM822 619q-15 0 -23 9t-6 24q3 27 35 27q15 0 23.5 -9.5t6.5 -24.5
q-1 -12 -11.5 -19t-24.5 -7z" />
    <glyph glyph-name="f_f_l" unicode="ffl" horiz-adv-x="923" 
d="M693 714l2 -33q-30 -6 -87 -22q-34 -9 -48 -31.5t-21 -67.5l-8 -54h158l-5 -36h-157l-73 -500q-24 -105 -106 -105q-40 0 -63 2l6 36h41q62 0 74 67l73 500h-263l-73 -500q-24 -105 -106 -105q-40 0 -63 2l6 36h41q62 0 74 67l73 500h-82l4 32l82 3l10 68q8 53 30 82.5
t70 40.5q10 2 100 18l2 -33q-30 -6 -87 -22q-34 -9 -48 -31.5t-21 -67.5l-8 -54h263l10 67q8 53 30 82.5t70 40.5q10 2 100 18zM859 30l-4 -33q-30 -5 -64 -5q-94 0 -80 101l81 568q-12 1 -37 2.5t-37 2.5l4 34h123l-86 -611q-8 -59 51 -59h49z" />
    <glyph glyph-name=".notdef" horiz-adv-x="683" 
d="M8 0l-8 9l674 691l9 -8z" />
    <glyph glyph-name=".null" horiz-adv-x="0" 
 />
    <glyph glyph-name="nonmarkingreturn" horiz-adv-x="333" 
 />
    <glyph glyph-name="space" unicode=" " horiz-adv-x="192" 
 />
    <glyph glyph-name="exclam" unicode="!" horiz-adv-x="212" 
d="M195 700l-10 -74l-75 -441h-27l49 441l10 74h53zM71 -4q-36 0 -31 36q4 29 38 29q36 0 31 -36q-5 -29 -38 -29z" />
    <glyph glyph-name="quotedbl" unicode="&#x22;" horiz-adv-x="266" 
d="M167 700l-5 -35q-12 -91 -57 -213h-24l35 248h51zM276 700l-5 -35q-14 -97 -57 -213h-24l35 248h51z" />
    <glyph glyph-name="numbersign" unicode="#" horiz-adv-x="650" 
d="M474 244h126l-6 -42h-133l-65 -202h-44l65 202h-249l-64 -202h-45l65 202h-104l6 42h111l73 225h-122l6 42h128l60 189h44l-60 -189h248l61 189h44l-60 -189h100l-5 -42h-107zM254 469l-73 -225h248l74 225h-249z" />
    <glyph glyph-name="dollar" unicode="$" horiz-adv-x="652" 
d="M550 507l9 122q-68 35 -169 37l-38 -271l106 -24q71 -18 94.5 -53.5t13.5 -108.5l-6 -44q-13 -94 -68.5 -132t-178.5 -38h-11l-10 -68h-40l10 69q-113 4 -208 59l20 146h39l-8 -121q75 -41 171 -44l45 318l-104 24q-66 18 -86.5 50.5t-11.5 98.5l2 15q12 88 68 125.5
t174 38.5l10 72h40l-10 -72q111 -4 205 -50l-20 -149h-38zM328 400l37 266h-2q-93 0 -137 -29.5t-54 -96.5l-2 -14q-7 -47 8.5 -70.5t62.5 -35.5zM346 349l-45 -314h3h12q98 0 140.5 30t53.5 106l6 34q7 58 -12.5 84.5t-78.5 41.5z" />
    <glyph glyph-name="percent" unicode="%" horiz-adv-x="851" 
d="M250 710h57q75 0 97.5 -39.5t11.5 -125.5l-9 -59q-12 -86 -45 -123.5t-108 -37.5h-57q-75 0 -98 39.5t-11 124.5l8 59q13 86 46 124t108 38zM762 704l-311 -349l-315 -358h-31l321 358l306 349h30zM301 675h-53q-56 0 -79.5 -31.5t-34.5 -102.5l-7 -51q-10 -70 4.5 -100
t70.5 -30h53q56 0 80 31.5t34 101.5l7 51q10 70 -4.5 100.5t-70.5 30.5zM625 376h57q75 0 98 -39.5t11 -125.5l-9 -59q-12 -85 -44.5 -123t-107.5 -38h-57q-76 0 -99 39.5t-10 124.5l8 60q12 85 45 123t108 38zM677 341h-53q-56 0 -80.5 -32t-33.5 -101l-8 -52
q-10 -70 5 -100t71 -30h53q55 0 79 31.5t34 101.5l8 52q10 70 -4.5 100t-70.5 30z" />
    <glyph glyph-name="ampersand" unicode="&#x26;" horiz-adv-x="755" 
d="M724 402l-6 -36q-80 -3 -88 -5q-42 -148 -105 -244q8 -8 21 -23t18 -20.5t14.5 -15t15 -12.5t13.5 -7.5t15.5 -6t16.5 -1.5h72l-5 -37q-62 -2 -87 -2q-7 0 -13.5 1t-12 2t-11.5 4l-10 5t-10.5 8t-10 8.5t-11.5 11t-11.5 12.5t-14 15.5t-15.5 16.5q-38 -49 -83.5 -65
t-134.5 -16h-50q-115 0 -162.5 44t-31.5 158l3 29q11 73 58.5 111.5t126.5 62.5q-46 61 -36 138l1 9q13 87 56.5 124t131.5 37h16q81 0 175 -38l-14 -106h-39l4 79q-58 25 -133 25h-11q-64 0 -96 -29.5t-41 -96.5l-1 -7q-7 -45 4 -70.5t47 -73.5l209 -239q62 96 103 250h123
zM234 37h51q75 0 113 14.5t72 58.5q-33 38 -70 81t-82 95.5t-70 81.5q-71 -21 -111 -51.5t-50 -95.5l-3 -19q-12 -92 25.5 -128.5t124.5 -36.5z" />
    <glyph glyph-name="quotesingle" unicode="'" horiz-adv-x="158" 
d="M167 700l-5 -35q-12 -91 -57 -213h-24l35 248h51z" />
    <glyph glyph-name="parenleft" unicode="(" horiz-adv-x="270" 
d="M135 524l-68 -480q-9 -65 13 -100.5t91 -74.5l-12 -22q-81 38 -113.5 82t-22.5 118l68 481q10 73 54 116t136 81l9 -24q-80 -39 -113 -75.5t-42 -101.5z" />
    <glyph glyph-name="parenright" unicode=")" horiz-adv-x="272" 
d="M146 47l68 480q9 65 -13 100.5t-91 74.5l12 22q81 -38 113.5 -82t22.5 -117l-68 -482q-10 -73 -54 -116t-136 -81l-9 24q80 39 113 75.5t42 101.5z" />
    <glyph glyph-name="asterisk" unicode="*" horiz-adv-x="368" 
d="M357 485l-20 -27l-29 19l-77 58l-6 -103l-5 -37h-32l5 37l23 103l-93 -58l-33 -19l-14 27l35 18l99 45l-86 44l-30 18l20 28l29 -19l77 -58l6 103l5 36h32l-5 -36l-22 -102l92 57l33 19l13 -28l-34 -18l-99 -44l86 -45z" />
    <glyph glyph-name="plus" unicode="+" horiz-adv-x="595" 
d="M74 331l6 41h213l31 221h43l-31 -221h213l-6 -41h-213l-31 -222h-43l31 222h-213z" />
    <glyph glyph-name="comma" unicode="," horiz-adv-x="173" 
d="M19 5l9 33q6 24 32 18q18 -3 25 -9.5t5 -22.5q-8 -51 -87 -135l-14 12q48 61 54 98z" />
    <glyph glyph-name="hyphen" unicode="-" horiz-adv-x="371" 
d="M325 320l-6 -42h-261l6 42h261z" />
    <glyph glyph-name="period" unicode="." horiz-adv-x="177" 
d="M53 -4q-36 0 -31 36q4 29 38 29q36 0 32 -36q-6 -29 -39 -29z" />
    <glyph glyph-name="slash" unicode="/" horiz-adv-x="406" 
d="M491 782l-512 -852h-36l512 852h36z" />
    <glyph glyph-name="zero" unicode="0" horiz-adv-x="651" 
d="M313 -9h-45q-225 0 -193 230l36 259q33 228 256 228h45q224 0 191 -231l-36 -259q-33 -227 -254 -227zM274 35h40q87 0 138.5 48t65.5 141l36 255q25 187 -150 187h-39q-88 0 -139.5 -48.5t-64.5 -141.5l-36 -255q-27 -186 149 -186z" />
    <glyph glyph-name="one" unicode="1" horiz-adv-x="363" 
d="M282 701l-93 -661q15 0 47 -1.5t50 -2.5l-4 -36h-261l4 36q78 4 114 4l86 613l-128 -33l5 37l150 44h30z" />
    <glyph glyph-name="two" unicode="2" horiz-adv-x="605" 
d="M512 167l-24 -167h-443l5 39q17 122 39 171.5t74 80.5q19 12 46.5 25t51 22.5t67.5 27.5t71 30q53 22 76.5 44.5t28.5 59.5l4 32q11 81 -15.5 107.5t-116.5 26.5q-105 0 -183 -43l-18 -82h-38l15 113q113 54 230 54q113 0 151 -39.5t23 -140.5l-4 -33q-8 -53 -38 -81.5
t-104 -60.5q-18 -8 -69.5 -28t-89.5 -36.5t-60 -29.5q-44 -27 -61.5 -69t-32.5 -151h356l24 128h35z" />
    <glyph glyph-name="three" unicode="3" horiz-adv-x="574" 
d="M533 527l-4 -26q-10 -72 -33 -106.5t-64 -45.5q74 -20 56 -134l-5 -46q-14 -100 -64.5 -137t-172.5 -37q-78 0 -222 37l16 120h34l-7 -92q118 -25 182 -25q101 0 137.5 28t48.5 112l7 44q2 17 2.5 30.5t-2.5 24.5t-5.5 19t-11.5 14t-14 10t-20 7t-23 4.5t-28 2t-30.5 0.5
h-36.5h-92l5 39h91q48 0 72 1.5t51.5 8t40.5 21t24 39.5t16 64l3 23q12 82 -17.5 111t-125.5 29q-73 0 -179 -32l-21 -102h-34l17 130q128 44 219 44q121 0 162.5 -40t27.5 -140z" />
    <glyph glyph-name="four" unicode="4" horiz-adv-x="594" 
d="M14 226l443 474h50l-66 -474h102l-4 -32l-104 -6l-21 -150q31 0 103 -4l-4 -34h-259l4 35q5 0 45 1.5t61 1.5l21 150h-376zM69 226h322l57 411z" />
    <glyph glyph-name="five" unicode="5" horiz-adv-x="567" 
d="M540 571h-35l8 89h-324l-58 -302q50 30 90.5 40t95.5 10h75q143 0 122 -146l-11 -76q-15 -111 -69 -151t-193 -40q-82 0 -226 37l16 120h35l-8 -92q118 -25 184 -25q115 0 158.5 33t55.5 124l10 69q15 109 -86 109h-75q-54 0 -91.5 -10t-89.5 -42l-40 13l69 369h405z" />
    <glyph glyph-name="six" unicode="6" horiz-adv-x="605" 
d="M364 415h33q103 0 139 -41t22 -140l-7 -49q-14 -98 -73.5 -144.5t-165.5 -46.5h-43q-113 0 -162 51t-34 161l37 265q33 237 259 237q116 0 219 -34l-14 -112h-40l3 80q-78 23 -171 23q-88 0 -140.5 -50.5t-65.5 -148.5l-17 -117q64 35 110.5 50.5t110.5 15.5zM139 315
l-16 -113q-12 -88 25.5 -126.5t126.5 -38.5h41q166 0 188 156l5 39q11 81 -16.5 113t-107.5 32h-30q-61 0 -106.5 -14.5t-109.5 -47.5z" />
    <glyph glyph-name="seven" unicode="7" horiz-adv-x="557" 
d="M579 660l-406 -660h-58l3 16l414 643h-388l-24 -118h-35l22 159h477z" />
    <glyph glyph-name="eight" unicode="8" horiz-adv-x="663" 
d="M603 540l-4 -30q-10 -67 -45 -103.5t-103 -49.5q154 -18 133 -163l-2 -19q-26 -184 -244 -184h-82q-113 0 -161 47.5t-35 140.5l2 18q21 142 180 161q-123 24 -105 155l4 30q23 163 232 163h45q105 0 151 -41.5t34 -124.5zM187 537l-5 -29q-9 -68 26.5 -99t119.5 -31h42
q85 0 129 32.5t54 100.5l4 29q9 67 -26 97.5t-119 30.5h-43q-84 0 -128.5 -32t-53.5 -99zM533 181l2 24q10 67 -27 101t-125 34h-76q-174 0 -194 -139l-3 -23q-10 -72 27 -109t125 -37h76q173 0 195 149z" />
    <glyph glyph-name="nine" unicode="9" horiz-adv-x="605" 
d="M268 287h-32q-103 0 -139 41t-22 140l7 48q26 192 236 192h48q119 0 164 -50.5t30 -163.5l-38 -269q-18 -126 -82 -178t-196 -52q-84 0 -195 37l17 121h42l-8 -90q76 -26 147 -26q106 0 158.5 43t66.5 146l18 124q-65 -33 -112 -48t-110 -15zM494 386l16 116
q13 88 -22.5 126t-129.5 38h-41q-166 0 -188 -158l-6 -39q-11 -81 16.5 -112.5t108.5 -31.5h31q61 0 106.5 14t108.5 47z" />
    <glyph glyph-name="colon" unicode=":" horiz-adv-x="177" 
d="M116 445q-36 0 -31 35q5 30 39 30q35 0 30 -36q-3 -29 -38 -29zM53 -4q-36 0 -31 36q4 29 38 29q36 0 32 -36q-6 -29 -39 -29z" />
    <glyph glyph-name="semicolon" unicode=";" horiz-adv-x="177" 
d="M116 445q-36 0 -31 35q5 30 39 30q35 0 30 -36q-3 -29 -38 -29zM19 5l9 33q6 24 32 18q18 -4 25 -10.5t5 -21.5q-8 -51 -87 -135l-14 12q48 61 54 98z" />
    <glyph glyph-name="less" unicode="&#x3c;" horiz-adv-x="580" 
d="M552 554l-424 -202l-1 -4l368 -201l-4 -32h-27l-398 222l3 25l465 225h23z" />
    <glyph glyph-name="equal" unicode="=" horiz-adv-x="553" 
d="M523 489l-6 -42h-426l5 42h427zM490 255l-6 -43h-427l6 43h427z" />
    <glyph glyph-name="greater" unicode="&#x3e;" horiz-adv-x="580" 
d="M140 587l402 -225l-3 -25l-461 -222h-27l5 32l424 201l1 4l-368 202l4 33h23z" />
    <glyph glyph-name="question" unicode="?" horiz-adv-x="489" 
d="M64 542l15 112q67 32 115 43t112 11q116 0 153.5 -37t23.5 -139l-4 -32q-8 -53 -29 -82t-67 -47q-93 -37 -157 -61l-19 -127h-35l11 153q28 11 82.5 32t81.5 31q41 17 59.5 41t23.5 62l4 31q11 82 -15 108.5t-119 26.5q-56 0 -94 -9t-86 -33l-19 -84h-37zM164 -4
q-35 0 -32 36q4 29 39 29t31 -36q-5 -29 -38 -29z" />
    <glyph glyph-name="at" unicode="@" horiz-adv-x="1069" 
d="M770 501l-86 -358q-4 -18 -5 -31t3.5 -20.5t8.5 -12t15 -6t16.5 -2t19.5 -0.5q84 0 147.5 76.5t81.5 202.5q21 153 -66 244t-256 91q-217 0 -364.5 -126t-176.5 -331q-24 -168 74 -268.5t284 -100.5q77 0 164 20.5t157 53.5l9 -24q-68 -35 -158 -56.5t-174 -21.5
q-200 0 -305.5 109.5t-79.5 293.5q30 215 186 347t386 132q182 0 277 -100t72 -267q-19 -138 -92.5 -220.5t-178.5 -82.5q-22 0 -35 1.5t-29 7t-23 19t-6 35.5q-47 -43 -87.5 -62t-105.5 -19h-19q-80 0 -112 49t-10 145l28 123q16 77 67 118.5t119 41.5h27q90 0 170 -50
l11 49h46zM642 148l63 271q-66 47 -156 47h-29q-54 0 -94.5 -36.5t-55.5 -104.5l-23 -104q-16 -83 6 -121t90 -38h17q57 0 92.5 17.5t87.5 59.5z" />
    <glyph glyph-name="A" unicode="A" horiz-adv-x="789" 
d="M492 700l139 -660q16 0 49 -1.5t51 -2.5l-5 -36h-231l4 36q42 3 80 3l-37 177h-312l-88 -177q15 0 43 -1.5t35 -1.5l-4 -36h-224l4 36q34 2 96 4l308 620q-8 0 -19.5 0.5t-33 1.5t-38.5 2l4 36h179zM450 658h-5l-198 -400h288z" />
    <glyph glyph-name="B" unicode="B" horiz-adv-x="679" 
d="M624 528l-2 -17q-18 -122 -124 -148q114 -26 96 -154l-4 -26q-13 -94 -69 -138.5t-159 -44.5h-351l4 36q45 3 94 3l89 622q-25 0 -94 3l4 36h336q106 0 149.5 -41.5t30.5 -130.5zM208 382h201q77 0 116 31.5t49 100.5l2 13q9 69 -22.5 100t-112.5 31h-194zM542 194l3 21
q10 67 -25.5 97.5t-114.5 30.5h-202l-42 -301h201q159 0 180 152z" />
    <glyph glyph-name="C" unicode="C" horiz-adv-x="657" 
d="M571 141l-5 -37q-37 -55 -98 -84t-135 -29h-66q-112 0 -160.5 52t-33.5 163l38 265q32 237 257 237h40q142 0 226 -42l-21 -153h-39l9 123q-30 15 -68.5 21.5t-64.5 7.5t-84 1q-87 0 -140 -51t-66 -148l-36 -263q-13 -89 25 -129.5t126 -40.5h58q133 0 198 107h40z" />
    <glyph glyph-name="D" unicode="D" horiz-adv-x="734" 
d="M108 700h386q223 0 194 -216l-39 -272q-30 -212 -252 -212h-386l4 36q15 1 94 5l89 620q-25 0 -94 3zM600 214l38 274q13 84 -26 127t-126 43h-239l-86 -616h238q87 0 138.5 44.5t62.5 127.5z" />
    <glyph glyph-name="E" unicode="E" horiz-adv-x="646" 
d="M620 700l-22 -161h-34l10 120h-331l-39 -280h238l-6 -44h-239l-42 -294h344l25 120h34l-23 -161h-524l4 36l90 4l88 621q-17 0 -89 3l4 36h512z" />
    <glyph glyph-name="F" unicode="F" horiz-adv-x="624" 
d="M633 700l-22 -161h-34l10 120h-344l-42 -300h246l-6 -44h-247l-39 -276q6 0 96 -3l-4 -36h-236l4 36q32 2 90 4l88 621q-17 0 -89 3l4 36h525z" />
    <glyph glyph-name="G" unicode="G" horiz-adv-x="701" 
d="M634 338l-23 -162q-12 -86 -82 -135.5t-163 -49.5h-82q-241 0 -210 218l36 258q16 117 87.5 179t188.5 62h32q151 0 240 -42l-20 -154h-40l9 122q-63 29 -222 29q-94 0 -153 -52.5t-72 -149.5l-37 -258q-12 -84 31.5 -125.5t138.5 -41.5h79q76 0 130.5 40.5t64.5 105.5
l17 114q-72 1 -251 6l4 36h297z" />
    <glyph glyph-name="H" unicode="H" horiz-adv-x="791" 
d="M808 700l-4 -36q-48 -3 -92 -3l-88 -622q16 0 50 -1.5t40 -1.5l-5 -36h-223l4 36q4 0 35.5 1.5t47.5 1.5l43 296h-414l-43 -296q15 0 44.5 -1.5t34.5 -1.5l-4 -36h-223l4 36q32 2 94 4l89 621q-13 0 -28.5 0.5t-34.5 1.5t-31 1l4 36h224l-4 -36q-4 0 -34.5 -1.5
t-45.5 -1.5l-41 -283h414l41 283q-15 0 -45.5 1.5t-37.5 1.5l5 36h224z" />
    <glyph glyph-name="I" unicode="I" horiz-adv-x="318" 
d="M335 700l-4 -36q-45 -3 -87 -3l-89 -622q12 0 26 -0.5t31.5 -1.5t28.5 -1l-4 -36h-226l4 36q32 2 90 4l88 621q-17 0 -49.5 1.5t-39.5 1.5l4 36h227z" />
    <glyph glyph-name="J" unicode="J" horiz-adv-x="320" 
d="M346 700l-5 -36q-43 -3 -87 -3l-78 -552q-12 -88 -33 -128t-81 -91q-6 -5 -50 -38l-21 26q5 4 10.5 9t12.5 11t12 10q48 42 68.5 83.5t31.5 121.5l78 548q-17 0 -50.5 1.5t-39.5 1.5l5 36h227z" />
    <glyph glyph-name="K" unicode="K" horiz-adv-x="745" 
d="M335 700l-4 -36q-45 -3 -87 -3l-41 -282h180l243 282q-15 0 -44.5 1.5t-34.5 1.5l5 36h223l-5 -36q-3 0 -38 -1.5t-52 -1.5l-258 -302l173 -320q18 0 54 -1.5t42 -1.5l-4 -36h-228l5 36q48 2 75 2l-159 298h-183l-42 -297q12 0 26 -0.5t31.5 -1.5t28.5 -1l-4 -36h-226
l4 36q32 2 90 4l88 621q-17 0 -49.5 1.5t-39.5 1.5l4 36h227z" />
    <glyph glyph-name="L" unicode="L" horiz-adv-x="623" 
d="M535 0h-524l4 36q28 2 57 3t33 1l88 621q-17 0 -49.5 1.5t-39.5 1.5l4 36h232l-5 -36q-31 -2 -91 -4l-89 -619h343l26 131h35z" />
    <glyph glyph-name="M" unicode="M" horiz-adv-x="945" 
d="M962 700l-5 -36q-27 -2 -59 -3t-35 -1l-89 -621q18 0 52.5 -1.5t40.5 -1.5l-4 -36h-222l4 36q4 0 34.5 1.5t45.5 1.5l85 598l-356 -637h-40l-172 637l-85 -598q15 0 45 -1.5t36 -1.5l-4 -36h-223l4 36q49 3 94 3l89 621l-94 4l4 36h161l174 -628h2l354 628h163z" />
    <glyph glyph-name="N" unicode="N" horiz-adv-x="783" 
d="M800 700l-4 -36q-31 -2 -91 -4l-94 -660h-58l-314 626l-84 -587q15 0 44.5 -1.5t34.5 -1.5l-4 -36h-219l4 36q49 3 94 3l89 621l-94 4l4 36h146l321 -631l83 592q-15 0 -45.5 1.5t-37.5 1.5l5 36h220z" />
    <glyph glyph-name="O" unicode="O" horiz-adv-x="720" 
d="M364 -9h-79q-111 0 -167.5 64t-41.5 170l34 251q16 107 89.5 169.5t184.5 62.5h79q111 0 167.5 -64.5t40.5 -170.5l-34 -251q-16 -106 -89 -168.5t-184 -62.5zM292 36h73q88 0 148.5 52t73.5 139l35 248q12 87 -33 137.5t-134 50.5h-73q-88 0 -148.5 -52.5t-73.5 -138.5
l-35 -248q-12 -87 33 -137.5t134 -50.5z" />
    <glyph glyph-name="P" unicode="P" horiz-adv-x="653" 
d="M108 700h350q98 0 144 -50.5t33 -140.5l-8 -58q-13 -89 -72 -136.5t-156 -47.5h-207l-33 -227q16 0 46.5 -2t45.5 -2l-4 -36h-236l4 36q30 2 94 4l89 621q-25 0 -94 3zM582 461l6 47q11 71 -24.5 110.5t-111.5 39.5h-205l-49 -349h203q78 0 124 39.5t57 112.5z" />
    <glyph glyph-name="Q" unicode="Q" horiz-adv-x="720" 
d="M384 708h79q111 0 167.5 -64.5t40.5 -170.5l-34 -251q-16 -106 -89 -168.5t-184 -62.5h-79q-111 0 -167.5 64t-41.5 170l34 251q16 107 89.5 169.5t184.5 62.5zM455 664h-73q-88 0 -148.5 -52.5t-73.5 -138.5l-35 -250q-12 -87 33 -137.5t134 -50.5h73q88 0 148.5 52
t73.5 139l35 250q12 87 -33 137.5t-134 50.5zM254 -98l2 23q157 31 218 32q58 1 75.5 -25.5t15.5 -87.5l-40 -18q-3 57 -14.5 76.5t-53.5 19.5q-54 1 -203 -20z" />
    <glyph glyph-name="R" unicode="R" horiz-adv-x="685" 
d="M108 700h343q97 0 144.5 -50t34.5 -139l-6 -46q-10 -68 -55 -113t-116 -59q50 -111 89 -255q26 0 91 -3l-4 -35h-143l5 40q-45 165 -86 248h-210l-36 -250q26 0 86 -2l-4 -36h-230l4 36q47 3 94 3l89 622q-25 0 -94 3zM200 328h199q75 0 122.5 39t56.5 103l5 40
q10 70 -25.5 109t-111.5 39h-199z" />
    <glyph glyph-name="S" unicode="S" horiz-adv-x="652" 
d="M113 200l-9 -121q77 -45 200 -45h12q98 0 141 30t53 106l6 34q7 59 -12.5 85.5t-78.5 40.5l-208 48q-66 18 -86.5 51t-11.5 99l2 14q12 90 68.5 128t176.5 38h17q123 0 226 -50l-21 -150h-38l9 122q-73 37 -180 37h-16q-93 0 -137 -29.5t-54 -96.5l-2 -14
q-7 -47 8.5 -70.5t62.5 -35.5l217 -50q71 -18 94.5 -54t13.5 -109l-6 -44q-14 -95 -69 -133t-178 -38h-20q-134 0 -239 60l20 147h39z" />
    <glyph glyph-name="T" unicode="T" horiz-adv-x="681" 
d="M677 537h-35l11 120h-229l-88 -618q12 0 27 -0.5t33 -1.5t28 -1l-4 -36h-230l4 36q32 2 92 4l88 617h-232l-22 -120h-36l23 163h593z" />
    <glyph glyph-name="U" unicode="U" horiz-adv-x="774" 
d="M792 700l-4 -36q-42 -3 -82 -3l-64 -456q-31 -214 -253 -214h-69q-225 0 -195 217l64 453q-12 0 -26 0.5t-31.5 1.5t-28.5 1l4 36h228l-4 -36q-48 -3 -92 -3l-64 -457q-24 -170 151 -170h67q86 0 138 44.5t64 128.5l64 454q-17 0 -51.5 1.5t-39.5 1.5l5 36h219z" />
    <glyph glyph-name="V" unicode="V" horiz-adv-x="748" 
d="M788 700l-5 -36q-42 -3 -80 -3l-325 -661h-80l-137 661q-15 0 -45.5 1.5t-34.5 1.5l5 36h229l-5 -36q-50 -3 -96 -3l127 -613h8l301 613q-14 0 -30 0.5t-35.5 1.5t-30.5 1l4 36h230z" />
    <glyph glyph-name="W" unicode="W" horiz-adv-x="1023" 
d="M1063 700l-4 -36q-40 -3 -78 -3l-271 -661h-70l-76 617h-2l-247 -617h-74l-84 661q-11 0 -23.5 0.5t-28 1.5t-25.5 1l4 36h226l-4 -36q-51 -3 -96 -3l75 -608h3l262 647h50l81 -646h4l251 607q-18 0 -55 1.5t-42 1.5l4 36h220z" />
    <glyph glyph-name="X" unicode="X" horiz-adv-x="692" 
d="M563 39l79 -3l-4 -36h-224l4 36q60 2 86 2l-149 291h-2l-227 -290l88 -3l-4 -36h-224l4 36q43 3 83 3l251 314l-166 308l-81 3l4 36h228l-4 -36l-87 -3l150 -283h2l228 283q-17 0 -50.5 1.5t-39.5 1.5l5 36h223l-4 -36q-28 -2 -82 -4l-251 -306z" />
    <glyph glyph-name="Y" unicode="Y" horiz-adv-x="705" 
d="M308 700l-4 -36q-60 -2 -86 -2l141 -363h2l244 362l-86 3l4 36h222l-5 -36q-30 -2 -82 -4l-281 -405l-31 -216q12 0 26 -0.5t31.5 -1.5t28.5 -1l-4 -36h-226l4 36q32 2 90 4l31 213l-164 408q-15 0 -46 1.5t-36 1.5l5 36h222z" />
    <glyph glyph-name="Z" unicode="Z" horiz-adv-x="627" 
d="M635 700l-4 -37l-534 -623h399l26 126h36l-24 -166h-507l4 31q1 8 10 20l528 609h-406l-25 -124h-36l23 164h510z" />
    <glyph glyph-name="bracketleft" unicode="[" horiz-adv-x="332" 
d="M352 704l-5 -35h-165l-108 -767h165l-4 -35h-209l117 837h209z" />
    <glyph glyph-name="backslash" unicode="\" horiz-adv-x="406" 
d="M372 -70h-35l-272 852h35z" />
    <glyph glyph-name="bracketright" unicode="]" horiz-adv-x="332" 
d="M199 -133h-209l5 35h165l108 767h-165l4 35h209z" />
    <glyph glyph-name="asciicircum" unicode="^" horiz-adv-x="378" 
d="M265 703l121 -198l-3 -19h-25l-110 169h-3l-159 -169h-26l3 19l178 198h24z" />
    <glyph glyph-name="underscore" unicode="_" horiz-adv-x="557" 
d="M506 -120l-4 -30h-561l4 30h561z" />
    <glyph glyph-name="grave" unicode="`" 
d="M360 599l-22 -14l-95 108v8l40 19z" />
    <glyph glyph-name="a" unicode="a" horiz-adv-x="589" 
d="M502 506l-60 -417q-8 -59 51 -59h48l-4 -32q-28 -6 -61 -6q-91 0 -80 91q-67 -49 -116 -70t-112 -21h-19q-138 0 -114 170l26 186q22 161 160 161h19q66 0 100 -10t104 -47l8 54h50zM171 33h18q53 0 97.5 19t110.5 64l44 302q-63 35 -95.5 43t-94.5 8h-20
q-55 0 -85 -33.5t-40 -107.5l-22 -157q-10 -71 11 -104.5t76 -33.5z" />
    <glyph glyph-name="b" unicode="b" horiz-adv-x="599" 
d="M227 700l-36 -251q71 41 114.5 55t111.5 14h19q136 0 114 -164l-28 -196q-24 -166 -174 -166h-19q-86 0 -247 12l93 657q-12 1 -36.5 2.5t-37.5 2.5l4 34h122zM476 171l24 167q10 72 -9.5 107t-72.5 35h-21q-57 0 -99 -13.5t-110 -54.5l-54 -373q86 -10 187 -10h18
q56 0 91.5 36t45.5 106z" />
    <glyph glyph-name="c" unicode="c" horiz-adv-x="532" 
d="M457 106l-4 -34q-30 -39 -79.5 -60t-104.5 -21h-51q-192 0 -166 183l24 165q12 88 67.5 133.5t148.5 45.5h31q99 0 177 -42l-14 -108h-36l6 81q-38 19 -71 25.5t-92 6.5q-148 0 -171 -150l-22 -158q-19 -143 128 -143h42q101 0 146 68l4 8h37z" />
    <glyph glyph-name="d" unicode="d" horiz-adv-x="590" 
d="M527 700l-86 -611q-8 -59 51 -59h49l-4 -31q-28 -7 -63 -7q-91 0 -81 92l2 14q-5 -3 -32.5 -23t-33.5 -24t-28.5 -18t-33 -18t-29.5 -11.5t-36 -9.5t-36 -2h-19q-138 0 -114 170l27 193q24 163 161 163h19q67 0 101.5 -11t102.5 -53l31 210q-12 0 -91 4l4 32h139zM169 33
h18q35 0 72.5 15t59.5 29t78 53l43 290q-63 40 -96 49t-94 9h-20q-104 0 -125 -138l-23 -169q-10 -71 11 -104.5t76 -33.5z" />
    <glyph glyph-name="e" unicode="e" horiz-adv-x="558" 
d="M305 518h32q195 0 169 -183l-14 -104h-384l-10 -62q-18 -141 130 -141h45q102 0 145 67l5 9h36l-4 -33q-60 -80 -185 -80h-44q-200 0 -173 189l21 149q13 91 73 140t158 49zM452 266l10 76q10 69 -23.5 104.5t-106.5 35.5h-31q-75 0 -122 -39.5t-57 -112.5l-10 -64h340z
" />
    <glyph glyph-name="f" unicode="f" horiz-adv-x="361" 
d="M90 502l82 3l10 68q8 53 30 82.5t70 40.5q10 2 100 18l2 -33q-30 -6 -87 -22q-34 -9 -48 -31.5t-21 -67.5l-8 -54h158l-5 -36h-157l-73 -500q-24 -105 -106 -105q-40 0 -63 2l6 36h41q62 0 74 67l73 500h-82z" />
    <glyph glyph-name="g" unicode="g" horiz-adv-x="582" 
d="M590 506l-4 -35q-50 -2 -73 -4l-64 -455q-24 -167 -201 -167h-49q-56 0 -100 21t-62 62l4 28h37l2 -10q25 -64 125 -64h45q132 0 151 136l11 75q-68 -42 -114 -56.5t-114 -14.5h-19q-133 0 -111 161l24 174q12 84 49 122.5t103 38.5h20q62 0 107 -16t104 -50l8 54h121z
M186 62h20q58 0 100.5 13.5t110.5 55.5l41 287q-53 32 -97.5 46t-100.5 14h-19q-52 0 -80 -34t-38 -107l-19 -138q-10 -69 9 -103t73 -34z" />
    <glyph glyph-name="h" unicode="h" horiz-adv-x="663" 
d="M595 30l-5 -32q-28 -6 -63 -6q-93 0 -80 101l39 272q9 70 -4.5 91.5t-67.5 21.5h-12q-88 0 -237 -102l-52 -376h-48l92 661q-12 1 -37 2.5t-37 2.5l4 34h123l-41 -289q74 51 134 79t122 28h11q67 0 89 -28.5t11 -106.5l-42 -294q-6 -59 52 -59h49z" />
    <glyph glyph-name="i" unicode="i" horiz-adv-x="283" 
d="M189 679q15 0 23.5 -9.5t6.5 -24.5q-1 -12 -11.5 -19t-24.5 -7q-15 0 -23 9t-6 24q3 27 35 27zM192 506l-58 -417q-8 -59 51 -59h48l-4 -32q-28 -6 -63 -6q-94 0 -80 101l54 374q-13 1 -37.5 2.5t-36.5 2.5l4 34h122z" />
    <glyph glyph-name="j" unicode="j" horiz-adv-x="253" 
d="M198 679q15 0 23 -9.5t6 -24.5q-3 -26 -36 -26q-15 0 -23 9t-6 24q1 12 11.5 19.5t24.5 7.5zM202 506l-61 -437q-9 -60 -29 -92.5t-80 -83.5q-19 -17 -50 -38l-19 26q3 2 15 12.5t20 16.5q47 42 67 75t28 87l56 395q-12 1 -37 2.5t-37 2.5l4 34h123z" />
    <glyph glyph-name="k" unicode="k" horiz-adv-x="616" 
d="M597 471l-75 -3l-176 -191l91 -180q14 -27 21 -37t21.5 -19.5t35.5 -9.5h47l-5 -37q-46 -2 -62 -2q-36 0 -58.5 21.5t-48.5 79.5l-83 163h-149l-32 -218q47 -2 80 -4l-4 -34h-209l4 35l81 3l89 623q-12 1 -37 2.5t-37 2.5l4 34h123l-57 -405h151l159 174q-13 0 -38.5 1.5
t-35.5 1.5l4 34h200z" />
    <glyph glyph-name="l" unicode="l" horiz-adv-x="296" 
d="M218 700l-86 -611q-8 -59 51 -59h49l-4 -33q-30 -5 -64 -5q-94 0 -80 101l81 568q-12 1 -37 2.5t-37 2.5l4 34h123z" />
    <glyph glyph-name="m" unicode="m" horiz-adv-x="1013" 
d="M954 30l-4 -33q-29 -5 -63 -5q-93 0 -80 97l39 276q10 69 -3.5 91t-67.5 22h-12q-53 0 -105.5 -25t-123.5 -77l-55 -376h-46l51 365q10 69 -3.5 91t-67.5 22h-12q-52 0 -104 -25t-122 -76l-55 -377h-48l68 467q-13 1 -37.5 2.5t-36.5 2.5l4 34h122l-13 -93
q69 52 126 78.5t119 26.5h10q61 0 84 -23t17 -87q72 55 129.5 82.5t120.5 27.5h11q67 0 89 -28.5t11 -106.5l-42 -294q-8 -59 52 -59h48z" />
    <glyph glyph-name="n" unicode="n" horiz-adv-x="663" 
d="M192 506l-13 -95q74 51 134 79t122 28h11q67 0 89 -28.5t11 -106.5l-42 -294q-6 -59 52 -59h48l-4 -33q-29 -5 -63 -5q-93 0 -80 97l39 276q9 70 -4.5 91.5t-67.5 21.5h-12q-88 0 -237 -102l-55 -376h-48l68 467q-13 1 -37.5 2.5t-36.5 2.5l4 34h122z" />
    <glyph glyph-name="o" unicode="o" horiz-adv-x="578" 
d="M282 -9h-56q-199 0 -173 189l21 151q27 187 225 187h56q197 0 171 -190l-21 -151q-27 -186 -223 -186zM229 28h56q73 0 117 37.5t54 108.5l23 164q20 143 -130 143h-56q-148 0 -170 -146l-24 -165q-18 -142 130 -142z" />
    <glyph glyph-name="p" unicode="p" horiz-adv-x="609" 
d="M434 518h20q66 0 92 -41t13 -128l-27 -196q-24 -161 -158 -161h-20q-65 0 -105.5 14t-101.5 55l-26 -189q11 0 25 -0.5t32 -1.5t28 -1l-4 -34h-215l5 34q46 3 81 3l85 595q-13 1 -37 2.5t-37 2.5l4 34h122l-11 -77q68 46 120 67.5t115 21.5zM486 174l24 165q11 73 -7 106
t-72 33h-18q-53 0 -102 -20t-116 -64l-42 -297q55 -41 93.5 -54t96.5 -13h21q104 0 122 144z" />
    <glyph glyph-name="q" unicode="q" horiz-adv-x="582" 
d="M508 506l-89 -634q15 0 43.5 -1.5t36.5 -1.5l-4 -34h-213l4 34q53 3 86 3l27 188q-72 -42 -111.5 -55t-104.5 -13h-19q-66 0 -96 41.5t-18 122.5l27 196q24 166 175 166h18q77 0 238 -12zM181 30h21q56 0 94.5 13t106.5 55l53 371q-86 10 -179 10h-18q-55 0 -90.5 -36
t-45.5 -106l-23 -165q-10 -72 9 -107t72 -35z" />
    <glyph glyph-name="r" unicode="r" horiz-adv-x="422" 
d="M210 506l-14 -97q53 57 96.5 78.5t100.5 21.5h37l-5 -44q-33 0 -47 -1q-51 0 -94.5 -21.5t-91.5 -73.5l-53 -369h-48l67 467q-13 1 -37 2.5t-37 2.5l4 34h122z" />
    <glyph glyph-name="s" unicode="s" horiz-adv-x="532" 
d="M85 384l2 17q17 117 200 117h16q37 0 92 -10.5t91 -30.5l-14 -99h-38l7 76q-53 29 -149 29q-77 0 -115.5 -21.5t-45.5 -67.5l-1 -9q-7 -46 17 -60.5t117 -33.5q16 -3 25 -5q105 -22 137.5 -46t23.5 -87l-2 -21q-11 -75 -58.5 -108t-135.5 -33h-39q-140 0 -175 66l12 87
h34l-6 -71q24 -46 140 -46h35q69 0 104 25.5t44 84.5l2 17q6 47 -22 63t-132 36q-109 21 -141.5 46t-24.5 85z" />
    <glyph glyph-name="t" unicode="t" horiz-adv-x="372" 
d="M190 32h9q57 0 95 4l-4 -32q-55 -13 -113 -13h-10q-56 0 -74.5 30.5t-8.5 104.5l48 342h-69l5 38h56q16 0 19 19l19 134q32 5 45 5l-22 -158h155l-5 -38h-155l-46 -325q-9 -66 2.5 -88.5t53.5 -22.5z" />
    <glyph glyph-name="u" unicode="u" horiz-adv-x="664" 
d="M570 506l-58 -417q-8 -59 51 -59h49l-4 -33q-29 -5 -63 -5q-87 0 -80 91l3 23q-76 -51 -136 -78.5t-121 -27.5h-11q-68 0 -90 28t-11 107l48 333q-13 0 -88 4l4 34h137l-49 -353q-11 -69 2.5 -90.5t67.5 -21.5h12q91 0 237 101l48 326q-14 0 -89 4l4 34h137z" />
    <glyph glyph-name="v" unicode="v" horiz-adv-x="625" 
d="M643 506l-4 -35q-9 0 -39 -1.5t-44 -1.5l-258 -468h-51l-124 468q-46 2 -74 4l4 34h209l-5 -34q-9 0 -39 -1.5t-46 -1.5l108 -422h1l232 421q-54 2 -78 4l4 34h204z" />
    <glyph glyph-name="w" unicode="w" horiz-adv-x="869" 
d="M881 471l-78 -3l-207 -468h-57l-83 432l-205 -432h-55l-74 469q-32 0 -72 3l4 34h202l-4 -34q-48 -3 -84 -3l63 -419h2l213 456h42l86 -456h2l184 418q-50 2 -80 4l4 34h202z" />
    <glyph glyph-name="x" unicode="x" horiz-adv-x="577" 
d="M585 471l-87 -3l-182 -208l96 -163q17 -26 24 -35t23.5 -20t37.5 -11h43l-5 -37q-42 -2 -58 -2q-35 0 -57 20t-57 80l-89 151h-1l-174 -206q39 0 93 -3l-4 -34h-205l4 35l65 3l193 221l-119 209q-48 2 -76 4l4 34h209l-4 -34q-7 0 -35.5 -1.5t-43.5 -1.5l107 -192h1
l163 192q-12 0 -37.5 1.5t-32.5 1.5l4 34h205z" />
    <glyph glyph-name="y" unicode="y" horiz-adv-x="646" 
d="M664 506l-5 -35q-8 0 -38.5 -1.5t-45.5 -1.5l-326 -571q13 0 36.5 -1.5t30.5 -1.5l-5 -34h-214l5 34q54 3 99 3l54 95l-133 476q-46 2 -73 4l4 34h212l-4 -35l-91 -3l115 -421h4l242 421q-48 2 -77 4l4 34h206z" />
    <glyph glyph-name="z" unicode="z" horiz-adv-x="548" 
d="M524 506l-5 -36l-441 -433h343l30 111h28l-26 -148h-443l4 29q3 14 14 22l434 419h-332l-23 -111h-28l22 147h423z" />
    <glyph glyph-name="braceleft" unicode="{" horiz-adv-x="345" 
d="M208 524l-68 -480q-9 -65 13.5 -101t91.5 -74l-12 -22q-81 38 -113.5 82t-22.5 118l32 224l-90 3l5 38l90 3l30 213q11 73 55 116t135 81l9 -24q-80 -39 -113 -75.5t-42 -101.5z" />
    <glyph glyph-name="bar" unicode="|" horiz-adv-x="226" 
d="M201 779l-127 -901h-28l126 901h29z" />
    <glyph glyph-name="braceright" unicode="}" horiz-adv-x="345" 
d="M146 47l68 480q9 65 -13 100.5t-91 74.5l12 22q81 -38 113.5 -82t22.5 -117l-30 -210l89 -3l-5 -38l-90 -3l-32 -228q-10 -73 -54 -116t-136 -81l-9 24q80 39 113 75.5t42 101.5z" />
    <glyph glyph-name="exclamdown" unicode="&#xa1;" horiz-adv-x="212" 
d="M157 630q37 0 32 -35q-4 -30 -38 -30q-36 0 -31 36q4 29 37 29zM44 1l75 440h27l-49 -440l-10 -75h-53z" />
    <glyph glyph-name="cent" unicode="&#xa2;" horiz-adv-x="532" 
d="M450 368l6 81q-62 31 -145 32l-64 -451h23q101 0 146 68l4 8h37l-4 -34q-30 -39 -79.5 -60t-104.5 -21h-20l-9 -64h-39l10 64q-185 3 -159 183l24 165q12 87 66 132t144 47l10 70h39l-10 -70q99 0 175 -42l-14 -108h-36zM122 331l-22 -158q-19 -141 125 -143l64 451
q-144 -2 -167 -150z" />
    <glyph glyph-name="sterling" unicode="&#xa3;" horiz-adv-x="601" 
d="M529 0h-523l5 36q66 50 103 102.5t35 120.5l-2 28h-107l5 32h105l-5 155q-2 112 53.5 173t163.5 61h51q109 0 193 -42l-24 -149h-37l11 119q-29 15 -69.5 22t-60.5 7.5t-66 0.5q-81 0 -125.5 -51.5t-40.5 -145.5l7 -150h247l-11 -32h-235v-25q4 -68 -31 -120.5
t-101 -100.5h422l26 131h35z" />
    <glyph glyph-name="yen" unicode="&#xa5;" horiz-adv-x="705" 
d="M745 700l-5 -36q-28 -2 -82 -4l-257 -370h165l-4 -26h-179l-6 -9l-11 -75h184l-3 -26h-184l-17 -115q12 0 26.5 -0.5t31.5 -1.5t28 -1l-4 -36h-226l4 36q30 2 90 4l17 114h-187l3 26h187l11 73l-4 11h-182l4 26h167l-149 371q-15 0 -46 1.5t-36 1.5l5 36h222l-4 -36
q-60 -2 -86 -2l141 -363h2l244 362l-86 3l4 36h222z" />
    <glyph glyph-name="section" unicode="&#xa7;" horiz-adv-x="688" 
d="M286 488l220 -36q73 -13 97.5 -36t17.5 -72l-3 -24q-6 -38 -24.5 -61.5t-62.5 -38.5q21 -12 26.5 -32t0.5 -56l-1 -7q-10 -70 -62 -101t-172 -31h-15q-124 0 -212 50l16 115h36l-7 -91q59 -37 171 -37h15q94 0 136 24.5t49 74.5l1 5q5 40 -7 55t-58 24l-238 36
q-73 13 -97.5 36t-17.5 72l3 24q10 66 104 100q-44 21 -35 88l1 7q10 71 56.5 101.5t159.5 30.5h15q126 0 212 -50l-16 -115h-35l8 90q-59 38 -175 38h-12q-90 0 -126 -24t-43 -75l-1 -5q-5 -39 10.5 -54.5t64.5 -24.5zM139 378l-3 -21q-5 -34 14 -49t77 -25l237 -36l35 -8
q43 15 58 34t19 50l3 21q5 34 -13.5 49t-76.5 25l-223 37q-7 1 -19 3.5t-16 3.5q-82 -28 -92 -84z" />
    <glyph glyph-name="dieresis" unicode="&#xa8;" 
d="M219 622q-14 0 -21.5 8.5t-5.5 21.5q2 24 32 24q13 0 20.5 -8.5t6.5 -22.5q-1 -10 -10.5 -16.5t-21.5 -6.5zM388 622q-14 0 -21.5 8.5t-5.5 21.5q3 24 32 24q14 0 21.5 -8.5t5.5 -22.5q-1 -10 -10.5 -16.5t-21.5 -6.5z" />
    <glyph glyph-name="copyright" unicode="&#xa9;" horiz-adv-x="887" 
d="M407 -15q-172 0 -255.5 97.5t-59.5 270.5q24 171 134 266.5t281 95.5q172 0 255.5 -97.5t59.5 -270.5q-24 -171 -133.5 -266.5t-281.5 -95.5zM409 11q160 0 261.5 90t123.5 252q23 158 -54 247t-234 89q-160 0 -262 -90t-124 -252q-22 -159 54.5 -247.5t234.5 -88.5z
M602 245l-3 -26q-32 -41 -69.5 -58.5t-93.5 -17.5h-27q-77 0 -112 40t-24 116l12 87q13 87 57 126t123 39h29q66 0 137 -31l-13 -88h-29l3 65q-26 11 -49 16t-33.5 5.5t-45.5 0.5q-61 0 -96.5 -33t-45.5 -106l-11 -82q-18 -122 104 -122h22q52 0 78 14t57 55h30z" />
    <glyph glyph-name="ordfeminine" unicode="&#xaa;" horiz-adv-x="513" 
d="M367 285l9 63q-55 -38 -93 -54t-89 -16h-15q-66 0 -87 20.5t-12 82.5l4 28q8 58 35 80.5t93 29.5q46 4 190 14l4 30q9 70 -11 92.5t-82 22.5q-75 0 -136 -20l-14 -64h-29l12 88q76 27 166 27h24q71 0 95.5 -36t14.5 -109l-35 -248l66 -3l-4 -28h-106zM193 309h15
q44 0 81.5 15t90.5 50l20 137q-102 -7 -181 -17q-49 -5 -69.5 -23.5t-25.5 -62.5l-4 -23q-7 -48 7 -62t66 -14z" />
    <glyph glyph-name="guillemotleft" unicode="&#xab;" horiz-adv-x="475" 
d="M121 262l129 -175l-2 -18h-27l-152 193v6l206 193h28l-2 -18l-180 -175v-6zM284 262l129 -175l-2 -18h-27l-152 193v6l206 193h28l-2 -18l-179 -175z" />
    <glyph glyph-name="registered" unicode="&#xae;" horiz-adv-x="417" 
d="M272 715q86 0 127.5 -49t29.5 -136q-12 -85 -66 -132t-140 -47t-127 49t-28 137q11 84 65 131t139 47zM272 696q-77 0 -125 -42.5t-60 -123.5q-11 -76 25.5 -117.5t111.5 -41.5q78 0 126 42.5t59 123.5q10 76 -26.5 117.5t-110.5 41.5zM180 633h96q28 0 42 -15t10 -41
l-1 -8q-6 -40 -41 -50q11 -16 20 -57l27 -3l-1 -15h-50l2 14q-5 31 -22 59h-49l-8 -55h25l-2 -18h-74l3 19h26l21 151q-8 0 -26 2zM226 614l-12 -78h51q34 0 40 36l1 7q5 35 -33 35h-47z" />
    <glyph glyph-name="macron" unicode="&#xaf;" 
d="M420 642l-4 -33h-231l4 33h231z" />
    <glyph glyph-name="degree" unicode="&#xb0;" horiz-adv-x="386" 
d="M237 450h-31q-62 0 -84.5 28t-14.5 85l5 36q8 56 37.5 83t91.5 27h31q62 0 84.5 -28.5t14.5 -84.5l-5 -37q-9 -56 -38 -82.5t-91 -26.5zM212 483h26q44 0 65 20.5t27 62.5l4 30q6 42 -8.5 61.5t-59.5 19.5h-26q-45 0 -66 -21t-27 -64l-3 -29q-6 -42 8.5 -61t59.5 -19z
" />
    <glyph glyph-name="twosuperior" unicode="&#xb2;" horiz-adv-x="398" 
d="M365 408l-16 -111h-288l5 32q10 75 32.5 109.5t75.5 53.5q32 11 90 29q45 15 65.5 32t23.5 42l2 17q6 38 -12 51.5t-73 13.5q-74 0 -115 -18l-12 -56h-29l10 78q65 26 146 26q74 0 101.5 -21.5t19.5 -75.5l-2 -17q-5 -35 -29.5 -58t-80.5 -41q-60 -17 -88 -29
q-44 -17 -62.5 -44.5t-28.5 -92.5h223l15 80h27z" />
    <glyph glyph-name="threesuperior" unicode="&#xb3;" horiz-adv-x="366" 
d="M360 601l-2 -10q-6 -41 -20 -63.5t-44 -30.5q27 -7 35.5 -27.5t3.5 -59.5l-2 -13q-8 -60 -39.5 -81t-110.5 -21q-56 0 -143 21l11 82h27l-5 -60q66 -14 112 -14q59 0 83 17t30 62l2 12q6 41 -9 55.5t-54 14.5h-101l4 29h99q38 0 58.5 17.5t27.5 60.5l1 9q7 45 -12 61
t-77 16q-52 0 -112 -17l-12 -57h-25l11 79q72 24 139 24q80 0 106 -22.5t18 -83.5z" />
    <glyph glyph-name="acute" unicode="&#xb4;" 
d="M378 701l-2 -8l-124 -108l-19 14l109 121z" />
    <glyph glyph-name="paragraph" unicode="&#xb6;" horiz-adv-x="531" 
d="M557 700l-4 -36q-56 -4 -77 -5l-106 -749h-39l107 754h-78l-106 -754h-41l59 417h-15q-108 0 -153.5 37.5t-32.5 142.5l3 16q8 57 26 93t49.5 54t67 24t91.5 6h249z" />
    <glyph glyph-name="periodcentered" unicode="&#xb7;" horiz-adv-x="177" 
d="M91 260q-37 0 -31 35q3 30 37 30q37 0 31 -36q-3 -29 -37 -29z" />
    <glyph glyph-name="cedilla" unicode="&#xb8;" 
d="M180 -40h41q36 0 50 -14.5t9 -45.5l-1 -7q-7 -57 -77 -59q-40 0 -92 7l2 17h92q20 0 33.5 11t16.5 28v5q2 20 -6 28.5t-33 8.5h-69l26 61h20z" />
    <glyph glyph-name="onesuperior" unicode="&#xb9;" horiz-adv-x="318" 
d="M264 708l-54 -381q15 0 45.5 -1.5t39.5 -1.5l-3 -27h-226l4 27q56 3 100 3l49 345l-114 -32l3 26l130 42h26z" />
    <glyph glyph-name="ordmasculine" unicode="&#xba;" horiz-adv-x="473" 
d="M265 277h-47q-161 0 -140 153l18 129q21 150 182 150h46q160 0 139 -154l-18 -128q-22 -150 -180 -150zM221 309h46q122 0 139 118l19 135q16 116 -105 116h-46q-122 0 -139 -120l-19 -134q-16 -115 105 -115z" />
    <glyph glyph-name="guillemotright" unicode="&#xbb;" horiz-adv-x="475" 
d="M100 443l2 18h27l152 -193v-6l-206 -193h-28l2 18l180 175v6zM263 443l2 18h27l152 -193v-6l-206 -193h-28l2 18l180 175v6z" />
    <glyph glyph-name="onequarter" unicode="&#xbc;" horiz-adv-x="800" 
d="M272 708l-54 -381q18 0 52.5 -1.5t40.5 -1.5l-3 -27h-242l3 27q57 3 109 3l49 345l-114 -32l3 26l130 42h26zM748 704l-626 -707h-30l320 358l306 349h30zM653 107l-11 -78q14 0 42 -1.5t40 -1.5l-4 -26h-214l3 26q54 3 94 3l10 77h-237l4 29l275 275h40l-38 -275h84
l-3 -26zM650 372l-234 -237h202z" />
    <glyph glyph-name="onehalf" unicode="&#xbd;" horiz-adv-x="841" 
d="M269 708l-54 -381q18 0 52.5 -1.5t40.5 -1.5l-3 -27h-242l3 27q57 3 109 3l49 345l-114 -32l3 26l130 42h26zM736 704l-626 -707h-30l320 358l306 349h30zM767 111l-16 -111h-288l5 32q10 75 33 110t79 54q24 9 85 28q46 16 66.5 32.5t23.5 41.5l2 17q6 39 -11.5 52
t-73.5 13q-74 0 -115 -18l-12 -56h-29l10 78q65 26 146 26q74 0 101.5 -21.5t19.5 -75.5l-2 -21q-5 -33 -30 -55.5t-80 -40.5q-59 -18 -88 -29q-44 -16 -62 -43.5t-28 -92.5h222l15 80h27z" />
    <glyph glyph-name="threequarters" unicode="&#xbe;" horiz-adv-x="841" 
d="M385 601l-2 -10q-6 -40 -20 -62t-44 -30q50 -12 39 -89l-2 -13q-8 -60 -39.5 -81t-110.5 -21q-56 0 -143 21l11 82h27l-5 -60q66 -14 112 -14q59 0 83 17t30 62l2 12q6 42 -9 56.5t-54 14.5h-101l4 28h99q38 0 58.5 17.5t27.5 60.5l1 9q7 46 -11.5 61.5t-77.5 15.5
q-52 0 -112 -17l-12 -57h-25l11 79q72 24 139 24q80 0 106 -22.5t18 -83.5zM797 704l-626 -707h-30l320 358l306 349h30zM710 107l-11 -78q14 0 42 -1.5t40 -1.5l-4 -26h-214l3 26q54 3 94 3l10 77h-237l4 29l275 275h40l-38 -275h84l-3 -26zM707 372l-234 -237h202z" />
    <glyph glyph-name="questiondown" unicode="&#xbf;" horiz-adv-x="489" 
d="M341 630q37 0 31 -35q-3 -30 -37 -30q-37 0 -31 36q4 29 37 29zM442 84l-15 -111q-67 -32 -116 -43.5t-111 -11.5q-116 0 -154 37.5t-24 139.5l5 31q7 53 28 82.5t67 47.5q85 32 158 61l19 127h34l-11 -154q-31 -11 -163 -63q-41 -16 -60 -40.5t-24 -62.5l-4 -30
q-11 -82 15 -108.5t120 -26.5q57 0 94.5 9t85.5 33l19 83h37z" />
    <glyph glyph-name="Agrave" unicode="&#xc0;" horiz-adv-x="789" 
d="M498 767l-21 -14l-95 107v9l40 18zM492 700l139 -660q16 0 49 -1.5t51 -2.5l-5 -36h-231l4 36q42 3 80 3l-37 177h-312l-88 -177q15 0 43 -1.5t35 -1.5l-4 -36h-224l4 36q34 2 96 4l308 620q-8 0 -19.5 0.5t-33 1.5t-38.5 2l4 36h179zM445 658l-198 -400h288l-85 400h-5z
" />
    <glyph glyph-name="Aacute" unicode="&#xc1;" horiz-adv-x="789" 
d="M563 869l-2 -8l-126 -109l-19 14l110 122zM492 700l139 -660q16 0 49 -1.5t51 -2.5l-5 -36h-231l4 36q42 3 80 3l-37 177h-312l-88 -177q15 0 43 -1.5t35 -1.5l-4 -36h-224l4 36q34 2 96 4l308 620q-8 0 -19.5 0.5t-33 1.5t-38.5 2l4 36h179zM445 658l-198 -400h288
l-85 400h-5z" />
    <glyph glyph-name="Acircumflex" unicode="&#xc2;" horiz-adv-x="789" 
d="M572 757l-97 91l-122 -91l-15 14l126 111h30l96 -111zM492 700l139 -660q16 0 49 -1.5t51 -2.5l-5 -36h-231l4 36q42 3 80 3l-37 177h-312l-88 -177q15 0 43 -1.5t35 -1.5l-4 -36h-224l4 36q34 2 96 4l308 620q-8 0 -19.5 0.5t-33 1.5t-38.5 2l4 36h179zM445 658
l-198 -400h288l-85 400h-5z" />
    <glyph glyph-name="Atilde" unicode="&#xc3;" horiz-adv-x="789" 
d="M632 856l-75 -70q-24 -22 -43 -22q-11 0 -24 12.5t-32 33.5t-36 33l-102 -78l-14 13l74 68q25 25 45 25q11 0 24.5 -12.5t32.5 -33.5t35 -33l102 77zM492 700l139 -660q16 0 49 -1.5t51 -2.5l-5 -36h-231l4 36q42 3 80 3l-37 177h-312l-88 -177q15 0 43 -1.5t35 -1.5
l-4 -36h-224l4 36q34 2 96 4l308 620q-8 0 -19.5 0.5t-33 1.5t-38.5 2l4 36h179zM445 658l-198 -400h288l-85 400h-5z" />
    <glyph glyph-name="Adieresis" unicode="&#xc4;" horiz-adv-x="789" 
d="M381 788q-14 0 -21.5 9t-6.5 23q1 12 11 19t23 7q14 0 22 -9t6 -24q-1 -11 -10.5 -18t-23.5 -7zM554 788q-14 0 -22 9t-7 23q5 26 34 26q14 0 22 -9t6 -24q-1 -11 -10.5 -18t-22.5 -7zM492 700l139 -660q16 0 49 -1.5t51 -2.5l-5 -36h-231l4 36q42 3 80 3l-37 177h-312
l-88 -177q15 0 43 -1.5t35 -1.5l-4 -36h-224l4 36q34 2 96 4l308 620q-8 0 -19.5 0.5t-33 1.5t-38.5 2l4 36h179zM445 658l-198 -400h288l-85 400h-5z" />
    <glyph glyph-name="Aring" unicode="&#xc5;" horiz-adv-x="789" 
d="M469 750h-15q-29 0 -44.5 18t-11.5 48l2 15q4 29 24 45.5t49 16.5h14q30 0 45.5 -18t11.5 -47l-3 -15q-4 -30 -23 -46.5t-49 -16.5zM457 773h13q42 0 47 42l2 16q6 39 -36 39h-11q-43 0 -48 -41l-2 -16q-3 -19 6.5 -29.5t28.5 -10.5zM492 700l139 -660q16 0 49 -1.5
t51 -2.5l-5 -36h-231l4 36q42 3 80 3l-37 177h-312l-88 -177q15 0 43 -1.5t35 -1.5l-4 -36h-224l4 36q34 2 96 4l308 620q-8 0 -19.5 0.5t-33 1.5t-38.5 2l4 36h179zM445 658l-198 -400h288l-85 400h-5z" />
    <glyph glyph-name="AE" unicode="&#xc6;" horiz-adv-x="1093" 
d="M650 378h239l-6 -42h-239l-42 -295h344l25 120h34l-23 -161h-524l4 36q80 3 90 4l26 181h-303l-130 -182q14 0 42.5 -1.5t33.5 -1.5l-4 -36h-225l4 36q35 2 95 4l448 619q-6 0 -21 1t-33.5 2t-38.5 2l4 36h617l-22 -161h-34l10 120h-331zM640 659h-53l-284 -398h280z" />
    <glyph glyph-name="Ccedilla" unicode="&#xc7;" horiz-adv-x="657" 
d="M368 708h40q142 0 226 -42l-21 -153h-39l9 123q-30 15 -68.5 21.5t-64.5 7.5t-84 1q-87 0 -140 -51t-66 -148l-36 -263q-13 -89 25 -129.5t126 -40.5h58q133 0 198 107h40l-5 -37q-37 -55 -98 -84t-135 -29h-60l-9 -31h41q36 0 50 -14.5t9 -45.5l-1 -7q-7 -57 -77 -59
q-40 0 -92 7l2 17h92q20 0 33.5 11t16.5 28v5q2 20 -6 28.5t-33 8.5h-69l22 52q-104 4 -148.5 56t-30.5 159l38 265q32 237 257 237z" />
    <glyph glyph-name="Egrave" unicode="&#xc8;" horiz-adv-x="646" 
d="M426 767l-21 -14l-95 107v9l40 18zM598 539h-34l10 120h-331l-39 -280h238l-6 -44h-239l-42 -294h344l25 120h34l-23 -161h-524l4 36l90 4l88 621q-17 0 -89 3l4 36h512z" />
    <glyph glyph-name="Eacute" unicode="&#xc9;" horiz-adv-x="646" 
d="M492 869l-2 -8l-126 -109l-19 14l110 122zM598 539h-34l10 120h-331l-39 -280h238l-6 -44h-239l-42 -294h344l25 120h34l-23 -161h-524l4 36l90 4l88 621q-17 0 -89 3l4 36h512z" />
    <glyph glyph-name="Ecircumflex" unicode="&#xca;" horiz-adv-x="646" 
d="M500 757l-97 91l-122 -91l-15 14l126 111h30l96 -111zM598 539h-34l10 120h-331l-39 -280h238l-6 -44h-239l-42 -294h344l25 120h34l-23 -161h-524l4 36l90 4l88 621q-17 0 -89 3l4 36h512z" />
    <glyph glyph-name="Edieresis" unicode="&#xcb;" horiz-adv-x="646" 
d="M309 788q-14 0 -21.5 9t-6.5 23q1 12 11 19t23 7q14 0 22 -9t6 -24q-1 -11 -10.5 -18t-23.5 -7zM482 788q-14 0 -22 9t-7 23q5 26 34 26q14 0 22 -9t6 -24q-1 -11 -10.5 -18t-22.5 -7zM598 539h-34l10 120h-331l-39 -280h238l-6 -44h-239l-42 -294h344l25 120h34
l-23 -161h-524l4 36l90 4l88 621q-17 0 -89 3l4 36h512z" />
    <glyph glyph-name="Igrave" unicode="&#xcc;" horiz-adv-x="318" 
d="M266 767l-21 -14l-95 107v9l40 18zM335 700l-4 -36q-45 -3 -87 -3l-89 -622q12 0 26 -0.5t31.5 -1.5t28.5 -1l-4 -36h-226l4 36q32 2 90 4l88 621q-17 0 -49.5 1.5t-39.5 1.5l4 36h227z" />
    <glyph glyph-name="Iacute" unicode="&#xcd;" horiz-adv-x="318" 
d="M332 869l-2 -8l-126 -109l-19 14l110 122zM335 700l-4 -36q-45 -3 -87 -3l-89 -622q12 0 26 -0.5t31.5 -1.5t28.5 -1l-4 -36h-226l4 36q32 2 90 4l88 621q-17 0 -49.5 1.5t-39.5 1.5l4 36h227z" />
    <glyph glyph-name="Icircumflex" unicode="&#xce;" horiz-adv-x="318" 
d="M340 757l-97 91l-122 -91l-15 14l126 111h30l96 -111zM335 700l-4 -36q-45 -3 -87 -3l-89 -622q12 0 26 -0.5t31.5 -1.5t28.5 -1l-4 -36h-226l4 36q32 2 90 4l88 621q-17 0 -49.5 1.5t-39.5 1.5l4 36h227z" />
    <glyph glyph-name="Idieresis" unicode="&#xcf;" horiz-adv-x="318" 
d="M149 788q-14 0 -21.5 9t-6.5 23q1 12 11 19t23 7q14 0 22 -9t6 -24q-1 -11 -10.5 -18t-23.5 -7zM322 788q-14 0 -22 9t-7 23q5 26 34 26q14 0 22 -9t6 -24q-1 -11 -10.5 -18t-22.5 -7zM335 700l-4 -36q-45 -3 -87 -3l-89 -622q12 0 26 -0.5t31.5 -1.5t28.5 -1l-4 -36
h-226l4 36q32 2 90 4l88 621q-17 0 -49.5 1.5t-39.5 1.5l4 36h227z" />
    <glyph glyph-name="Eth" unicode="&#xd0;" horiz-adv-x="734" 
d="M108 700h386q223 0 194 -216l-39 -272q-30 -212 -252 -212h-386l4 36q15 1 94 5l41 284h-88l5 34h88l43 302q-25 0 -94 3zM600 214l38 274q13 84 -26 127t-126 43h-239l-42 -299h99l-5 -34h-98l-40 -283h238q87 0 138.5 44.5t62.5 127.5z" />
    <glyph glyph-name="Ntilde" unicode="&#xd1;" horiz-adv-x="783" 
d="M632 856l-75 -70q-24 -22 -43 -22q-11 0 -24 12.5t-32 33.5t-36 33l-102 -78l-14 13l74 68q25 25 45 25q11 0 24.5 -12.5t32.5 -33.5t35 -33l102 77zM800 700l-4 -36q-31 -2 -91 -4l-94 -660h-58l-314 626l-84 -587q15 0 44.5 -1.5t34.5 -1.5l-4 -36h-219l4 36q49 3 94 3
l89 621l-94 4l4 36h146l321 -631l83 592q-15 0 -45.5 1.5t-37.5 1.5l5 36h220z" />
    <glyph glyph-name="Ograve" unicode="&#xd2;" horiz-adv-x="720" 
d="M467 767l-21 -14l-95 107v9l40 18zM364 -9h-79q-111 0 -167.5 64t-41.5 170l34 251q16 107 89.5 169.5t184.5 62.5h79q111 0 167.5 -64.5t40.5 -170.5l-34 -251q-16 -106 -89 -168.5t-184 -62.5zM292 36h73q88 0 148.5 52t73.5 139l35 248q12 87 -33 137.5t-134 50.5h-73
q-88 0 -148.5 -52.5t-73.5 -138.5l-35 -248q-12 -87 33 -137.5t134 -50.5z" />
    <glyph glyph-name="Oacute" unicode="&#xd3;" horiz-adv-x="720" 
d="M532 869l-2 -8l-126 -109l-19 14l110 122zM364 -9h-79q-111 0 -167.5 64t-41.5 170l34 251q16 107 89.5 169.5t184.5 62.5h79q111 0 167.5 -64.5t40.5 -170.5l-34 -251q-16 -106 -89 -168.5t-184 -62.5zM292 36h73q88 0 148.5 52t73.5 139l35 248q12 87 -33 137.5
t-134 50.5h-73q-88 0 -148.5 -52.5t-73.5 -138.5l-35 -248q-12 -87 33 -137.5t134 -50.5z" />
    <glyph glyph-name="Ocircumflex" unicode="&#xd4;" horiz-adv-x="720" 
d="M541 757l-97 91l-122 -91l-15 14l126 111h30l96 -111zM364 -9h-79q-111 0 -167.5 64t-41.5 170l34 251q16 107 89.5 169.5t184.5 62.5h79q111 0 167.5 -64.5t40.5 -170.5l-34 -251q-16 -106 -89 -168.5t-184 -62.5zM292 36h73q88 0 148.5 52t73.5 139l35 248
q12 87 -33 137.5t-134 50.5h-73q-88 0 -148.5 -52.5t-73.5 -138.5l-35 -248q-12 -87 33 -137.5t134 -50.5z" />
    <glyph glyph-name="Otilde" unicode="&#xd5;" horiz-adv-x="720" 
d="M601 856l-75 -70q-24 -22 -43 -22q-11 0 -24 12.5t-32 33.5t-36 33l-102 -78l-14 13l74 68q25 25 45 25q11 0 24.5 -12.5t32.5 -33.5t35 -33l102 77zM364 -9h-79q-111 0 -167.5 64t-41.5 170l34 251q16 107 89.5 169.5t184.5 62.5h79q111 0 167.5 -64.5t40.5 -170.5
l-34 -251q-16 -106 -89 -168.5t-184 -62.5zM292 36h73q88 0 148.5 52t73.5 139l35 248q12 87 -33 137.5t-134 50.5h-73q-88 0 -148.5 -52.5t-73.5 -138.5l-35 -248q-12 -87 33 -137.5t134 -50.5z" />
    <glyph glyph-name="Odieresis" unicode="&#xd6;" horiz-adv-x="720" 
d="M350 788q-14 0 -21.5 9t-6.5 23q1 12 11 19t23 7q14 0 22 -9t6 -24q-1 -11 -10.5 -18t-23.5 -7zM523 788q-14 0 -22 9t-7 23q5 26 34 26q14 0 22 -9t6 -24q-1 -11 -10.5 -18t-22.5 -7zM364 -9h-79q-111 0 -167.5 64t-41.5 170l34 251q16 107 89.5 169.5t184.5 62.5h79
q111 0 167.5 -64.5t40.5 -170.5l-34 -251q-16 -106 -89 -168.5t-184 -62.5zM292 36h73q88 0 148.5 52t73.5 139l35 248q12 87 -33 137.5t-134 50.5h-73q-88 0 -148.5 -52.5t-73.5 -138.5l-35 -248q-12 -87 33 -137.5t134 -50.5z" />
    <glyph glyph-name="multiply" unicode="&#xd7;" horiz-adv-x="589" 
d="M94 138l-27 30l211 184l-157 181l34 30l155 -183l210 185l26 -29l-211 -184l159 -184l-33 -30l-157 186z" />
    <glyph glyph-name="Oslash" unicode="&#xd8;" horiz-adv-x="720" 
d="M724 731l-84 -100q43 -62 30 -158l-34 -251q-16 -106 -89 -168.5t-184 -62.5h-79q-91 0 -147 45l-59 -70h-29l71 85q-60 63 -45 174l34 251q16 107 89.5 169.5t184.5 62.5h79q106 0 163 -60l70 83h29zM159 472l-35 -248q-12 -84 30 -134l438 518q-44 55 -138 55h-73
q-88 0 -148.5 -52.5t-73.5 -138.5zM586 227l35 248q9 68 -17 114l-435 -515q44 -38 122 -38h73q88 0 148.5 52t73.5 139z" />
    <glyph glyph-name="Ugrave" unicode="&#xd9;" horiz-adv-x="774" 
d="M496 767l-21 -14l-95 107v9l40 18zM792 700l-4 -36q-42 -3 -82 -3l-64 -456q-31 -214 -253 -214h-69q-225 0 -195 217l64 453q-12 0 -26 0.5t-31.5 1.5t-28.5 1l4 36h228l-4 -36q-48 -3 -92 -3l-64 -457q-24 -170 151 -170h67q86 0 138 44.5t64 128.5l64 454
q-17 0 -51.5 1.5t-39.5 1.5l5 36h219z" />
    <glyph glyph-name="Uacute" unicode="&#xda;" horiz-adv-x="774" 
d="M561 869l-2 -8l-126 -109l-19 14l110 122zM792 700l-4 -36q-42 -3 -82 -3l-64 -456q-31 -214 -253 -214h-69q-225 0 -195 217l64 453q-12 0 -26 0.5t-31.5 1.5t-28.5 1l4 36h228l-4 -36q-48 -3 -92 -3l-64 -457q-24 -170 151 -170h67q86 0 138 44.5t64 128.5l64 454
q-17 0 -51.5 1.5t-39.5 1.5l5 36h219z" />
    <glyph glyph-name="Ucircumflex" unicode="&#xdb;" horiz-adv-x="774" 
d="M570 757l-97 91l-122 -91l-15 14l126 111h30l96 -111zM792 700l-4 -36q-42 -3 -82 -3l-64 -456q-31 -214 -253 -214h-69q-225 0 -195 217l64 453q-12 0 -26 0.5t-31.5 1.5t-28.5 1l4 36h228l-4 -36q-48 -3 -92 -3l-64 -457q-24 -170 151 -170h67q86 0 138 44.5t64 128.5
l64 454q-17 0 -51.5 1.5t-39.5 1.5l5 36h219z" />
    <glyph glyph-name="Udieresis" unicode="&#xdc;" horiz-adv-x="774" 
d="M379 788q-14 0 -21.5 9t-6.5 23q1 12 11 19t23 7q14 0 22 -9t6 -24q-1 -11 -10.5 -18t-23.5 -7zM552 788q-14 0 -22 9t-7 23q5 26 34 26q14 0 22 -9t6 -24q-1 -11 -10.5 -18t-22.5 -7zM792 700l-4 -36q-42 -3 -82 -3l-64 -456q-31 -214 -253 -214h-69q-225 0 -195 217
l64 453q-12 0 -26 0.5t-31.5 1.5t-28.5 1l4 36h228l-4 -36q-48 -3 -92 -3l-64 -457q-24 -170 151 -170h67q86 0 138 44.5t64 128.5l64 454q-17 0 -51.5 1.5t-39.5 1.5l5 36h219z" />
    <glyph glyph-name="Yacute" unicode="&#xdd;" horiz-adv-x="705" 
d="M526 869l-2 -8l-126 -109l-19 14l110 122zM308 700l-4 -36q-60 -2 -86 -2l141 -363h2l244 362l-86 3l4 36h222l-5 -36q-30 -2 -82 -4l-281 -405l-31 -216q12 0 26 -0.5t31.5 -1.5t28.5 -1l-4 -36h-226l4 36q32 2 90 4l31 213l-164 408q-15 0 -46 1.5t-36 1.5l5 36h222z
" />
    <glyph glyph-name="Thorn" unicode="&#xde;" horiz-adv-x="628" 
d="M227 550h186q98 0 144 -48.5t33 -137.5l-6 -40q-12 -88 -70 -134t-156 -46h-188l-20 -144h-139l4 36q32 3 90 3l88 622q-41 0 -89 3l4 36h140zM538 334l4 28q11 70 -23 108t-110 38h-187l-46 -323h186q76 0 121.5 39.5t54.5 109.5z" />
    <glyph glyph-name="germandbls" unicode="&#xdf;" horiz-adv-x="670" 
d="M162 506l3 18q14 97 76 152t165 55h46q179 0 156 -167l-5 -39q-10 -67 -35.5 -101t-71.5 -44q111 -15 92 -147l-10 -75q-24 -163 -189 -163q-84 0 -170 12l4 30h161q130 0 147 128l11 73q9 68 -20 95t-93 27h-94q-30 0 -27 19l2 17l102 2q71 1 103.5 30.5t42.5 99.5l5 34
q18 130 -124 130h-42q-75 0 -124.5 -48.5t-61.5 -130.5l-75 -533q-21 -105 -106 -105q-17 0 -63 2l5 37h38q32 0 52 17.5t26 48.5l69 487l-74 5l5 34h74z" />
    <glyph glyph-name="agrave" unicode="&#xe0;" horiz-adv-x="589" 
d="M404 599l-22 -14l-95 108v8l40 19zM502 506l-60 -417q-8 -59 51 -59h48l-4 -32q-28 -6 -61 -6q-91 0 -80 91q-67 -49 -116 -70t-112 -21h-19q-138 0 -114 170l26 186q22 161 160 161h19q66 0 100 -10t104 -47l8 54h50zM171 33h18q53 0 97.5 19t110.5 64l44 302
q-63 35 -95.5 43t-94.5 8h-20q-55 0 -85 -33.5t-40 -107.5l-22 -157q-10 -71 11 -104.5t76 -33.5z" />
    <glyph glyph-name="aacute" unicode="&#xe1;" horiz-adv-x="589" 
d="M424 701l-2 -8l-124 -108l-19 14l109 121zM502 506l-60 -417q-8 -59 51 -59h48l-4 -32q-28 -6 -61 -6q-91 0 -80 91q-67 -49 -116 -70t-112 -21h-19q-138 0 -114 170l26 186q22 161 160 161h19q66 0 100 -10t104 -47l8 54h50zM171 33h18q53 0 97.5 19t110.5 64l44 302
q-63 35 -95.5 43t-94.5 8h-20q-55 0 -85 -33.5t-40 -107.5l-22 -157q-10 -71 11 -104.5t76 -33.5z" />
    <glyph glyph-name="acircumflex" unicode="&#xe2;" horiz-adv-x="589" 
d="M450 590l-96 90l-121 -90l-15 14l126 109h29l95 -109zM502 506l-60 -417q-8 -59 51 -59h48l-4 -32q-28 -6 -61 -6q-91 0 -80 91q-67 -49 -116 -70t-112 -21h-19q-138 0 -114 170l26 186q22 161 160 161h19q66 0 100 -10t104 -47l8 54h50zM171 33h18q53 0 97.5 19
t110.5 64l44 302q-63 35 -95.5 43t-94.5 8h-20q-55 0 -85 -33.5t-40 -107.5l-22 -157q-10 -71 11 -104.5t76 -33.5z" />
    <glyph glyph-name="atilde" unicode="&#xe3;" horiz-adv-x="589" 
d="M513 705l-75 -69q-24 -22 -43 -22q-10 0 -24 13.5t-32.5 34t-33.5 30.5l-102 -77l-13 13l74 69q24 22 43 22q11 0 25.5 -13.5t33.5 -34t32 -30.5l102 77zM502 506l-60 -417q-8 -59 51 -59h48l-4 -32q-28 -6 -61 -6q-91 0 -80 91q-67 -49 -116 -70t-112 -21h-19
q-138 0 -114 170l26 186q22 161 160 161h19q66 0 100 -10t104 -47l8 54h50zM171 33h18q53 0 97.5 19t110.5 64l44 302q-63 35 -95.5 43t-94.5 8h-20q-55 0 -85 -33.5t-40 -107.5l-22 -157q-10 -71 11 -104.5t76 -33.5z" />
    <glyph glyph-name="adieresis" unicode="&#xe4;" horiz-adv-x="589" 
d="M263 622q-14 0 -21.5 8.5t-5.5 21.5q2 24 32 24q13 0 20.5 -8.5t6.5 -22.5q-1 -10 -10.5 -16.5t-21.5 -6.5zM432 622q-14 0 -21.5 8.5t-5.5 21.5q3 24 32 24q14 0 21.5 -8.5t5.5 -22.5q-1 -10 -10.5 -16.5t-21.5 -6.5zM502 506l-60 -417q-8 -59 51 -59h48l-4 -32
q-28 -6 -61 -6q-91 0 -80 91q-67 -49 -116 -70t-112 -21h-19q-138 0 -114 170l26 186q22 161 160 161h19q66 0 100 -10t104 -47l8 54h50zM171 33h18q53 0 97.5 19t110.5 64l44 302q-63 35 -95.5 43t-94.5 8h-20q-55 0 -85 -33.5t-40 -107.5l-22 -157q-10 -71 11 -104.5
t76 -33.5z" />
    <glyph glyph-name="aring" unicode="&#xe5;" horiz-adv-x="589" 
d="M348 585h-14q-29 0 -43.5 18t-10.5 46l1 15q4 28 23 44t48 16h14q29 0 44.5 -17.5t10.5 -45.5l-2 -15q-4 -29 -23 -45t-48 -16zM337 607h12q43 0 47 42l2 15q3 18 -7 28.5t-29 10.5h-10q-42 0 -48 -41l-2 -16q-3 -18 7 -28.5t28 -10.5zM502 506l-60 -417q-8 -59 51 -59
h48l-4 -32q-28 -6 -61 -6q-91 0 -80 91q-67 -49 -116 -70t-112 -21h-19q-138 0 -114 170l26 186q22 161 160 161h19q66 0 100 -10t104 -47l8 54h50zM171 33h18q53 0 97.5 19t110.5 64l44 302q-63 35 -95.5 43t-94.5 8h-20q-55 0 -85 -33.5t-40 -107.5l-22 -157
q-10 -71 11 -104.5t76 -33.5z" />
    <glyph glyph-name="ae" unicode="&#xe6;" horiz-adv-x="932" 
d="M116 383l14 102q42 15 102 24t101 9h21q125 0 136 -91q57 91 189 91h33q195 0 169 -179l-12 -85h-384l-12 -86q-22 -141 129 -141h45q101 0 145 68l5 9h36l-3 -33q-61 -80 -184 -80h-51q-145 0 -168 102q-73 -55 -123 -78t-115 -23h-19q-81 0 -106 25t-14 102l4 34
q11 77 46.5 102t109.5 32q47 4 234 4l6 49q10 85 -15.5 113.5t-100.5 28.5q-93 0 -167 -26l-15 -73h-36zM828 288l8 55q18 141 -128 141h-32q-75 0 -122.5 -40t-57.5 -113l-6 -43h338zM190 29h18q55 0 101 20t115 69q0 34 3 54l14 88h-63.5t-93.5 -1.5t-67 -4.5
q-61 -8 -84 -27t-31 -76l-4 -26q-8 -58 10 -77t82 -19z" />
    <glyph glyph-name="ccedilla" unicode="&#xe7;" horiz-adv-x="532" 
d="M450 368l6 81q-38 19 -71 25.5t-92 6.5q-148 0 -171 -150l-22 -158q-19 -143 128 -143h42q101 0 146 68l4 8h37l-4 -34q-30 -39 -79.5 -60t-104.5 -21h-51h-6l-9 -31h41q36 0 50 -14.5t9 -45.5l-1 -7q-7 -57 -77 -59q-40 0 -92 7l2 17h92q20 0 33.5 11t16.5 28v5
q2 20 -6 28.5t-33 8.5h-69l23 53q-165 12 -140 182l24 165q12 88 67.5 133.5t148.5 45.5h31q99 0 177 -42l-14 -108h-36z" />
    <glyph glyph-name="egrave" unicode="&#xe8;" horiz-adv-x="558" 
d="M357 599l-22 -14l-95 108v8l40 19zM305 518h32q195 0 169 -183l-14 -104h-384l-10 -62q-18 -141 130 -141h45q102 0 145 67l5 9h36l-4 -33q-60 -80 -185 -80h-44q-200 0 -173 189l21 149q13 91 73 140t158 49zM452 266l10 76q10 69 -23.5 104.5t-106.5 35.5h-31
q-75 0 -122 -39.5t-57 -112.5l-10 -64h340z" />
    <glyph glyph-name="eacute" unicode="&#xe9;" horiz-adv-x="558" 
d="M424 701l-2 -8l-124 -108l-19 14l109 121zM305 518h32q195 0 169 -183l-14 -104h-384l-10 -62q-18 -141 130 -141h45q102 0 145 67l5 9h36l-4 -33q-60 -80 -185 -80h-44q-200 0 -173 189l21 149q13 91 73 140t158 49zM452 266l10 76q10 69 -23.5 104.5t-106.5 35.5h-31
q-75 0 -122 -39.5t-57 -112.5l-10 -64h340z" />
    <glyph glyph-name="ecircumflex" unicode="&#xea;" horiz-adv-x="558" 
d="M440 590l-96 90l-121 -90l-15 14l126 109h29l95 -109zM305 518h32q195 0 169 -183l-14 -104h-384l-10 -62q-18 -141 130 -141h45q102 0 145 67l5 9h36l-4 -33q-60 -80 -185 -80h-44q-200 0 -173 189l21 149q13 91 73 140t158 49zM452 266l10 76q10 69 -23.5 104.5
t-106.5 35.5h-31q-75 0 -122 -39.5t-57 -112.5l-10 -64h340z" />
    <glyph glyph-name="edieresis" unicode="&#xeb;" horiz-adv-x="558" 
d="M253 622q-14 0 -21.5 8.5t-5.5 21.5q2 24 32 24q13 0 20.5 -8.5t6.5 -22.5q-1 -10 -10.5 -16.5t-21.5 -6.5zM422 622q-14 0 -21.5 8.5t-5.5 21.5q3 24 32 24q14 0 21.5 -8.5t5.5 -22.5q-1 -10 -10.5 -16.5t-21.5 -6.5zM305 518h32q195 0 169 -183l-14 -104h-384l-10 -62
q-18 -141 130 -141h45q102 0 145 67l5 9h36l-4 -33q-60 -80 -185 -80h-44q-200 0 -173 189l21 149q13 91 73 140t158 49zM452 266l10 76q10 69 -23.5 104.5t-106.5 35.5h-31q-75 0 -122 -39.5t-57 -112.5l-10 -64h340z" />
    <glyph glyph-name="igrave" unicode="&#xec;" horiz-adv-x="283" 
d="M189 599l-22 -14l-95 108v8l40 19zM190 506l-58 -417q-8 -59 51 -59h48l-4 -36q-46 -2 -63 -2q-94 0 -80 101l54 374q-12 1 -36.5 2.5t-37.5 2.5l4 34h122z" />
    <glyph glyph-name="iacute" unicode="&#xed;" horiz-adv-x="283" 
d="M279 701l-2 -8l-124 -108l-19 14l109 121zM190 506l-58 -417q-8 -59 51 -59h48l-4 -36q-46 -2 -63 -2q-94 0 -80 101l54 374q-12 1 -36.5 2.5t-37.5 2.5l4 34h122z" />
    <glyph glyph-name="icircumflex" unicode="&#xee;" horiz-adv-x="283" 
d="M305 590l-96 90l-121 -90l-15 14l126 109h29l95 -109zM190 506l-58 -417q-8 -59 51 -59h48l-4 -36q-46 -2 -63 -2q-94 0 -80 101l54 374q-12 1 -36.5 2.5t-37.5 2.5l4 34h122z" />
    <glyph glyph-name="idieresis" unicode="&#xef;" horiz-adv-x="283" 
d="M118 622q-14 0 -21.5 8.5t-5.5 21.5q2 24 32 24q13 0 20.5 -8.5t6.5 -22.5q-1 -10 -10.5 -16.5t-21.5 -6.5zM287 622q-14 0 -21.5 8.5t-5.5 21.5q3 24 32 24q14 0 21.5 -8.5t5.5 -22.5q-1 -10 -10.5 -16.5t-21.5 -6.5zM190 506l-58 -417q-8 -59 51 -59h48l-4 -36
q-46 -2 -63 -2q-94 0 -80 101l54 374q-12 1 -36.5 2.5t-37.5 2.5l4 34h122z" />
    <glyph glyph-name="eth" unicode="&#xf0;" horiz-adv-x="591" 
d="M579 680l6 -27q-41 -18 -81 -33q54 -63 38 -172l-35 -245q-16 -114 -67.5 -161t-156.5 -47h-38q-111 0 -157.5 49t-31.5 151l17 124q14 99 60.5 139.5t144.5 40.5h20q41 0 76.5 -10t54 -20t62.5 -37l4 32q8 44 0.5 79t-35.5 63q-101 -37 -178 -60l-5 20l164 62
q-37 28 -112 55l13 29q94 -31 142 -68zM458 198l29 202q-41 24 -60 33.5t-50 17.5t-69 8h-19q-82 0 -119.5 -33.5t-49.5 -116.5l-17 -120q-11 -81 25 -118t121 -37h36q76 0 118 38.5t55 125.5z" />
    <glyph glyph-name="ntilde" unicode="&#xf1;" horiz-adv-x="663" 
d="M557 705l-75 -69q-24 -22 -43 -22q-10 0 -24 13.5t-32.5 34t-33.5 30.5l-102 -77l-13 13l74 69q24 22 43 22q11 0 25.5 -13.5t33.5 -34t32 -30.5l102 77zM192 506l-13 -95q74 51 134 79t122 28h11q67 0 89 -28.5t11 -106.5l-42 -294q-6 -59 52 -59h48l-4 -33
q-29 -5 -63 -5q-93 0 -80 97l39 276q9 70 -4.5 91.5t-67.5 21.5h-12q-88 0 -237 -102l-55 -376h-48l68 467q-13 1 -37.5 2.5t-36.5 2.5l4 34h122z" />
    <glyph glyph-name="ograve" unicode="&#xf2;" horiz-adv-x="578" 
d="M365 599l-22 -14l-95 108v8l40 19zM282 -9h-56q-199 0 -173 189l21 151q27 187 225 187h56q197 0 171 -190l-21 -151q-27 -186 -223 -186zM229 28h56q73 0 117 37.5t54 108.5l23 164q20 143 -130 143h-56q-148 0 -170 -146l-24 -165q-18 -142 130 -142z" />
    <glyph glyph-name="oacute" unicode="&#xf3;" horiz-adv-x="578" 
d="M425 701l-2 -8l-124 -108l-19 14l109 121zM282 -9h-56q-199 0 -173 189l21 151q27 187 225 187h56q197 0 171 -190l-21 -151q-27 -186 -223 -186zM229 28h56q73 0 117 37.5t54 108.5l23 164q20 143 -130 143h-56q-148 0 -170 -146l-24 -165q-18 -142 130 -142z" />
    <glyph glyph-name="ocircumflex" unicode="&#xf4;" horiz-adv-x="578" 
d="M445 590l-96 90l-121 -90l-15 14l126 109h29l95 -109zM282 -9h-56q-199 0 -173 189l21 151q27 187 225 187h56q197 0 171 -190l-21 -151q-27 -186 -223 -186zM229 28h56q73 0 117 37.5t54 108.5l23 164q20 143 -130 143h-56q-148 0 -170 -146l-24 -165q-18 -142 130 -142
z" />
    <glyph glyph-name="otilde" unicode="&#xf5;" horiz-adv-x="578" 
d="M509 705l-75 -69q-24 -22 -43 -22q-10 0 -24 13.5t-32.5 34t-33.5 30.5l-102 -77l-13 13l74 69q24 22 43 22q11 0 25.5 -13.5t33.5 -34t32 -30.5l102 77zM282 -9h-56q-199 0 -173 189l21 151q27 187 225 187h56q197 0 171 -190l-21 -151q-27 -186 -223 -186zM229 28h56
q73 0 117 37.5t54 108.5l23 164q20 143 -130 143h-56q-148 0 -170 -146l-24 -165q-18 -142 130 -142z" />
    <glyph glyph-name="odieresis" unicode="&#xf6;" horiz-adv-x="578" 
d="M258 622q-14 0 -21.5 8.5t-5.5 21.5q2 24 32 24q13 0 20.5 -8.5t6.5 -22.5q-1 -10 -10.5 -16.5t-21.5 -6.5zM427 622q-14 0 -21.5 8.5t-5.5 21.5q3 24 32 24q14 0 21.5 -8.5t5.5 -22.5q-1 -10 -10.5 -16.5t-21.5 -6.5zM282 -9h-56q-199 0 -173 189l21 151q27 187 225 187
h56q197 0 171 -190l-21 -151q-27 -186 -223 -186zM229 28h56q73 0 117 37.5t54 108.5l23 164q20 143 -130 143h-56q-148 0 -170 -146l-24 -165q-18 -142 130 -142z" />
    <glyph glyph-name="divide" unicode="&#xf7;" horiz-adv-x="595" 
d="M341 528q-36 0 -31 34q4 29 37 29q35 0 30 -35q-4 -28 -36 -28zM80 370h469l-6 -38h-469zM283 120q-35 0 -30 34q3 29 36 29q36 0 30 -35q-3 -28 -36 -28z" />
    <glyph glyph-name="oslash" unicode="&#xf8;" horiz-adv-x="581" 
d="M560 542l-62 -71q45 -48 31 -143l-21 -151q-27 -186 -223 -186h-56q-77 0 -121 29l-47 -54h-29l59 68q-48 48 -35 146l21 151q27 187 225 187h56q80 0 124 -32l49 56h29zM126 335l-24 -165q-9 -64 19 -101l331 382q-33 30 -100 30h-56q-148 0 -170 -146zM459 174l23 164
q9 59 -15 97l-330 -381q34 -26 95 -26h56q73 0 117 37.5t54 108.5z" />
    <glyph glyph-name="ugrave" unicode="&#xf9;" horiz-adv-x="664" 
d="M398 599l-22 -14l-95 108v8l40 19zM570 506l-58 -417q-8 -59 51 -59h49l-4 -33q-29 -5 -63 -5q-87 0 -80 91l3 23q-76 -51 -136 -78.5t-121 -27.5h-11q-68 0 -90 28t-11 107l48 333q-13 0 -88 4l4 34h137l-49 -353q-11 -69 2.5 -90.5t67.5 -21.5h12q91 0 237 101l48 326
q-14 0 -89 4l4 34h137z" />
    <glyph glyph-name="uacute" unicode="&#xfa;" horiz-adv-x="664" 
d="M467 701l-2 -8l-124 -108l-19 14l109 121zM570 506l-58 -417q-8 -59 51 -59h49l-4 -33q-29 -5 -63 -5q-87 0 -80 91l3 23q-76 -51 -136 -78.5t-121 -27.5h-11q-68 0 -90 28t-11 107l48 333q-13 0 -88 4l4 34h137l-49 -353q-11 -69 2.5 -90.5t67.5 -21.5h12q91 0 237 101
l48 326q-14 0 -89 4l4 34h137z" />
    <glyph glyph-name="ucircumflex" unicode="&#xfb;" horiz-adv-x="664" 
d="M492 590l-96 90l-121 -90l-15 14l126 109h29l95 -109zM570 506l-58 -417q-8 -59 51 -59h49l-4 -33q-29 -5 -63 -5q-87 0 -80 91l3 23q-76 -51 -136 -78.5t-121 -27.5h-11q-68 0 -90 28t-11 107l48 333q-13 0 -88 4l4 34h137l-49 -353q-11 -69 2.5 -90.5t67.5 -21.5h12
q91 0 237 101l48 326q-14 0 -89 4l4 34h137z" />
    <glyph glyph-name="udieresis" unicode="&#xfc;" horiz-adv-x="664" 
d="M305 622q-14 0 -21.5 8.5t-5.5 21.5q2 24 32 24q13 0 20.5 -8.5t6.5 -22.5q-1 -10 -10.5 -16.5t-21.5 -6.5zM474 622q-14 0 -21.5 8.5t-5.5 21.5q3 24 32 24q14 0 21.5 -8.5t5.5 -22.5q-1 -10 -10.5 -16.5t-21.5 -6.5zM570 506l-58 -417q-8 -59 51 -59h49l-4 -33
q-29 -5 -63 -5q-87 0 -80 91l3 23q-76 -51 -136 -78.5t-121 -27.5h-11q-68 0 -90 28t-11 107l48 333q-13 0 -88 4l4 34h137l-49 -353q-11 -69 2.5 -90.5t67.5 -21.5h12q91 0 237 101l48 326q-14 0 -89 4l4 34h137z" />
    <glyph glyph-name="yacute" unicode="&#xfd;" horiz-adv-x="646" 
d="M455 701l-2 -8l-124 -108l-19 14l109 121zM664 506l-5 -35q-8 0 -38.5 -1.5t-45.5 -1.5l-326 -571q13 0 36.5 -1.5t30.5 -1.5l-5 -34h-214l5 34q54 3 99 3l54 95l-133 476q-46 2 -73 4l4 34h212l-4 -35l-91 -3l115 -421h4l242 421q-48 2 -77 4l4 34h206z" />
    <glyph glyph-name="thorn" unicode="&#xfe;" horiz-adv-x="609" 
d="M434 518h20q66 0 92 -41t13 -128l-27 -196q-24 -161 -158 -161h-20q-65 0 -106 14.5t-100 55.5l-27 -190q15 0 43.5 -1.5t35.5 -1.5l-4 -34h-209l5 34q46 3 81 3l112 789q-12 1 -37 2.5t-37 2.5l4 34h123l-39 -273q66 47 118.5 69t116.5 22zM486 174l24 165q11 73 -7 106
t-72 33h-18q-53 0 -103 -20t-115 -64l-42 -297q56 -41 94 -54t96 -13h21q104 0 122 144z" />
    <glyph glyph-name="ydieresis" unicode="&#xff;" horiz-adv-x="646" 
d="M292 622q-14 0 -21.5 8.5t-5.5 21.5q2 24 32 24q13 0 20.5 -8.5t6.5 -22.5q-1 -10 -10.5 -16.5t-21.5 -6.5zM461 622q-14 0 -21.5 8.5t-5.5 21.5q3 24 32 24q14 0 21.5 -8.5t5.5 -22.5q-1 -10 -10.5 -16.5t-21.5 -6.5zM664 506l-5 -35q-8 0 -38.5 -1.5t-45.5 -1.5
l-326 -571q13 0 36.5 -1.5t30.5 -1.5l-5 -34h-214l5 34q54 3 99 3l54 95l-133 476q-46 2 -73 4l4 34h212l-4 -35l-91 -3l115 -421h4l242 421q-48 2 -77 4l4 34h206z" />
    <glyph glyph-name="Amacron" unicode="&#x100;" horiz-adv-x="789" 
d="M588 811l-5 -34h-237l5 34h237zM492 700l139 -660q16 0 49 -1.5t51 -2.5l-5 -36h-231l4 36q42 3 80 3l-37 177h-312l-88 -177q15 0 43 -1.5t35 -1.5l-4 -36h-224l4 36q34 2 96 4l308 620q-8 0 -19.5 0.5t-33 1.5t-38.5 2l4 36h179zM445 658l-198 -400h288l-85 400h-5z
" />
    <glyph glyph-name="amacron" unicode="&#x101;" horiz-adv-x="589" 
d="M463 642l-4 -33h-231l4 33h231zM502 506l-60 -417q-8 -59 51 -59h48l-4 -32q-28 -6 -61 -6q-91 0 -80 91q-67 -49 -116 -70t-112 -21h-19q-138 0 -114 170l26 186q22 161 160 161h19q66 0 100 -10t104 -47l8 54h50zM171 33h18q53 0 97.5 19t110.5 64l44 302
q-63 35 -95.5 43t-94.5 8h-20q-55 0 -85 -33.5t-40 -107.5l-22 -157q-10 -71 11 -104.5t76 -33.5z" />
    <glyph glyph-name="Abreve" unicode="&#x102;" horiz-adv-x="789" 
d="M590 869l-1 -13q-15 -103 -127 -103q-55 0 -81 27.5t-19 78.5l2 10h32l-1 -9q-12 -75 69 -75q82 0 94 78l1 6h31zM492 700l139 -660q16 0 49 -1.5t51 -2.5l-5 -36h-231l4 36q42 3 80 3l-37 177h-312l-88 -177q15 0 43 -1.5t35 -1.5l-4 -36h-224l4 36q34 2 96 4l308 620
q-8 0 -19.5 0.5t-33 1.5t-38.5 2l4 36h179zM445 658l-198 -400h288l-85 400h-5z" />
    <glyph glyph-name="abreve" unicode="&#x103;" horiz-adv-x="589" 
d="M468 701l-1 -13q-7 -50 -39.5 -76.5t-85.5 -26.5q-55 0 -81 28t-18 78l1 10h31l-1 -10q-10 -75 70 -75q81 0 93 78v7h31zM502 506l-60 -417q-8 -59 51 -59h48l-4 -32q-28 -6 -61 -6q-91 0 -80 91q-67 -49 -116 -70t-112 -21h-19q-138 0 -114 170l26 186q22 161 160 161
h19q66 0 100 -10t104 -47l8 54h50zM171 33h18q53 0 97.5 19t110.5 64l44 302q-63 35 -95.5 43t-94.5 8h-20q-55 0 -85 -33.5t-40 -107.5l-22 -157q-10 -71 11 -104.5t76 -33.5z" />
    <glyph glyph-name="Aogonek" unicode="&#x104;" horiz-adv-x="789" 
d="M512 -80l-1 -4q-1 -22 10.5 -32t40.5 -10q40 0 82 24l9 -18q-51 -35 -96 -35h-7q-39 0 -56.5 17.5t-15.5 50.5v4q5 49 93 83h-76l4 36q42 3 80 3l-37 177h-312l-88 -177q15 0 43 -1.5t35 -1.5l-4 -36h-224l4 36q34 2 96 4l308 620q-8 0 -19.5 0.5t-33 1.5t-38.5 2l4 36
h179l139 -660q16 0 49 -1.5t51 -2.5l-5 -36h-121q-4 -2 -14 -7.5t-14.5 -8t-13.5 -8t-13.5 -8.5t-11.5 -8t-10.5 -9.5t-7.5 -9.5t-6 -10t-2 -11zM535 258l-85 400h-5l-198 -400h288z" />
    <glyph glyph-name="aogonek" unicode="&#x105;" horiz-adv-x="589" 
d="M343 -80l-1 -4q-1 -22 10.5 -32t40.5 -10q40 0 82 24l9 -18q-51 -35 -96 -35h-7q-39 0 -56.5 17.5t-15.5 50.5v4q3 32 31.5 51.5t77.5 37.5h2q-31 21 -24 77q-67 -49 -116 -70t-112 -21h-19q-138 0 -114 170l26 186q22 161 160 161h19q66 0 100 -10t104 -47l8 54h50
l-60 -417q-8 -59 51 -59h48l-4 -32q-28 -6 -61 -6q-25 0 -42 7q-29 -15 -43.5 -23.5t-30.5 -24.5t-17 -31zM397 116l44 302q-63 35 -95.5 43t-94.5 8h-20q-55 0 -85 -33.5t-40 -107.5l-22 -157q-10 -71 11 -104.5t76 -33.5h18q53 0 97.5 19t110.5 64z" />
    <glyph glyph-name="Cacute" unicode="&#x106;" horiz-adv-x="657" 
d="M506 869l-2 -8l-126 -109l-19 14l110 122zM571 141l-5 -37q-37 -55 -98 -84t-135 -29h-66q-112 0 -160.5 52t-33.5 163l38 265q32 237 257 237h40q142 0 226 -42l-21 -153h-39l9 123q-30 15 -68.5 21.5t-64.5 7.5t-84 1q-87 0 -140 -51t-66 -148l-36 -263
q-13 -89 25 -129.5t126 -40.5h58q133 0 198 107h40z" />
    <glyph glyph-name="cacute" unicode="&#x107;" horiz-adv-x="532" 
d="M402 701l-2 -8l-124 -108l-19 14l109 121zM457 106l-4 -34q-30 -39 -79.5 -60t-104.5 -21h-51q-192 0 -166 183l24 165q12 88 67.5 133.5t148.5 45.5h31q99 0 177 -42l-14 -108h-36l6 81q-38 19 -71 25.5t-92 6.5q-148 0 -171 -150l-22 -158q-19 -143 128 -143h42
q101 0 146 68l4 8h37z" />
    <glyph glyph-name="Cdotaccent" unicode="&#x10a;" horiz-adv-x="657" 
d="M410 788q-14 0 -22 9t-7 23q5 26 35 26q15 0 23 -9t6 -24q-1 -11 -11 -18t-24 -7zM571 141l-5 -37q-37 -55 -98 -84t-135 -29h-66q-112 0 -160.5 52t-33.5 163l38 265q32 237 257 237h40q142 0 226 -42l-21 -153h-39l9 123q-30 15 -68.5 21.5t-64.5 7.5t-84 1
q-87 0 -140 -51t-66 -148l-36 -263q-13 -89 25 -129.5t126 -40.5h58q133 0 198 107h40z" />
    <glyph glyph-name="cdotaccent" unicode="&#x10b;" horiz-adv-x="532" 
d="M324 618q-14 0 -22 9t-6 23q3 26 34 26q14 0 22 -9t6 -24q-1 -11 -11 -18t-23 -7zM457 106l-4 -34q-30 -39 -79.5 -60t-104.5 -21h-51q-192 0 -166 183l24 165q12 88 67.5 133.5t148.5 45.5h31q99 0 177 -42l-14 -108h-36l6 81q-38 19 -71 25.5t-92 6.5q-148 0 -171 -150
l-22 -158q-19 -143 128 -143h42q101 0 146 68l4 8h37z" />
    <glyph glyph-name="Ccaron" unicode="&#x10c;" horiz-adv-x="657" 
d="M420 758h-29l-95 110l18 13l95 -90l122 90l15 -13zM571 141l-5 -37q-37 -55 -98 -84t-135 -29h-66q-112 0 -160.5 52t-33.5 163l38 265q32 237 257 237h40q142 0 226 -42l-21 -153h-39l9 123q-30 15 -68.5 21.5t-64.5 7.5t-84 1q-87 0 -140 -51t-66 -148l-36 -263
q-13 -89 25 -129.5t126 -40.5h58q133 0 198 107h40z" />
    <glyph glyph-name="ccaron" unicode="&#x10d;" horiz-adv-x="532" 
d="M333 590h-29l-95 110l18 13l96 -90l121 90l15 -13zM457 106l-4 -34q-30 -39 -79.5 -60t-104.5 -21h-51q-192 0 -166 183l24 165q12 88 67.5 133.5t148.5 45.5h31q99 0 177 -42l-14 -108h-36l6 81q-38 19 -71 25.5t-92 6.5q-148 0 -171 -150l-22 -158q-19 -143 128 -143
h42q101 0 146 68l4 8h37z" />
    <glyph glyph-name="Dcaron" unicode="&#x10e;" horiz-adv-x="734" 
d="M444 758h-29l-95 110l18 13l95 -90l122 90l15 -13zM108 700h386q223 0 194 -216l-39 -272q-30 -212 -252 -212h-386l4 36q15 1 94 5l89 620q-25 0 -94 3zM600 214l38 274q13 84 -26 127t-126 43h-239l-86 -616h238q87 0 138.5 44.5t62.5 127.5z" />
    <glyph glyph-name="dcaron" unicode="&#x10f;" horiz-adv-x="590" 
d="M525 700l-86 -611q-8 -59 51 -59h49l-4 -31q-28 -7 -63 -7q-91 0 -81 92l2 14q-5 -3 -32.5 -23t-33.5 -24t-28.5 -18t-33 -18t-29.5 -11.5t-36 -9.5t-36 -2h-19q-138 0 -114 170l27 193q24 163 161 163h19q67 0 101.5 -11t102.5 -53l31 210q-12 0 -91 4l4 32h139z
M646 700l-1 -13l-55 -135h-27l43 148h40zM167 33h18q35 0 72.5 15t59.5 29t78 53l43 290q-63 40 -96 49t-94 9h-20q-104 0 -125 -138l-23 -169q-10 -71 11 -104.5t76 -33.5z" />
    <glyph glyph-name="Dcroat" unicode="&#x110;" horiz-adv-x="734" 
d="M108 700h386q223 0 194 -216l-39 -272q-30 -212 -252 -212h-386l4 36q15 1 94 5l42 292h-93l5 34h93l42 294q-25 0 -94 3zM600 214l38 274q13 84 -26 127t-126 43h-239l-41 -291h94l-5 -34h-93l-41 -291h238q87 0 138.5 44.5t62.5 127.5z" />
    <glyph glyph-name="dcroat" unicode="&#x111;" horiz-adv-x="590" 
d="M528 585l-77 -546q8 -1 34.5 -2.5t45.5 -2.5l-4 -34h-128l12 82q-70 -48 -117.5 -69t-109.5 -21h-19q-138 0 -114 170l27 193q24 163 161 163h19q67 0 101 -11t102 -53l19 131h-124l4 34h125l12 85h48l-12 -85h70l-5 -34h-70zM414 117l44 303q-63 40 -96 49t-94 9h-20
q-104 0 -125 -138l-23 -169q-10 -71 11 -104.5t76 -33.5h18q52 0 96.5 19t112.5 65z" />
    <glyph glyph-name="Emacron" unicode="&#x112;" horiz-adv-x="646" 
d="M516 811l-5 -34h-237l5 34h237zM598 539h-34l10 120h-331l-39 -280h238l-6 -44h-239l-42 -294h344l25 120h34l-23 -161h-524l4 36l90 4l88 621q-17 0 -89 3l4 36h512z" />
    <glyph glyph-name="emacron" unicode="&#x113;" horiz-adv-x="558" 
d="M454 642l-4 -33h-231l4 33h231zM305 518h32q195 0 169 -183l-14 -104h-384l-10 -62q-18 -141 130 -141h45q102 0 145 67l5 9h36l-4 -33q-60 -80 -185 -80h-44q-200 0 -173 189l21 149q13 91 73 140t158 49zM452 266l10 76q10 69 -23.5 104.5t-106.5 35.5h-31
q-75 0 -122 -39.5t-57 -112.5l-10 -64h340z" />
    <glyph glyph-name="Edotaccent" unicode="&#x116;" horiz-adv-x="646" 
d="M395 788q-14 0 -22 9t-7 23q5 26 35 26q15 0 23 -9t6 -24q-1 -11 -11 -18t-24 -7zM598 539h-34l10 120h-331l-39 -280h238l-6 -44h-239l-42 -294h344l25 120h34l-23 -161h-524l4 36l90 4l88 621q-17 0 -89 3l4 36h512z" />
    <glyph glyph-name="edotaccent" unicode="&#x117;" horiz-adv-x="558" 
d="M337 620q-14 0 -22.5 9t-6.5 23q1 12 11 19t24 7t22 -9t6 -24q-1 -11 -11 -18t-23 -7zM305 518h32q195 0 169 -183l-14 -104h-384l-10 -62q-18 -141 130 -141h45q102 0 145 67l5 9h36l-4 -33q-60 -80 -185 -80h-44q-200 0 -173 189l21 149q13 91 73 140t158 49zM452 266
l10 76q10 69 -23.5 104.5t-106.5 35.5h-31q-75 0 -122 -39.5t-57 -112.5l-10 -64h340z" />
    <glyph glyph-name="Eogonek" unicode="&#x118;" horiz-adv-x="646" 
d="M620 700l-22 -161h-34l10 120h-331l-39 -280h238l-6 -44h-239l-42 -294h344l25 120h34l-23 -161h-76q-4 -2 -14 -7.5t-14.5 -8t-13.5 -8t-13.5 -8.5t-11.5 -8t-10.5 -9.5t-7.5 -9.5t-6 -10t-2 -11l-1 -4q-1 -22 10.5 -32t40.5 -10q40 0 82 24l9 -18q-51 -35 -96 -35h-7
q-39 0 -56.5 17.5t-15.5 50.5v4q5 49 93 83h-414l4 36l90 4l88 621q-17 0 -89 3l4 36h512z" />
    <glyph glyph-name="eogonek" unicode="&#x119;" horiz-adv-x="558" 
d="M305 518h32q195 0 169 -183l-14 -104h-384l-10 -62q-18 -141 130 -141h45q102 0 145 67l5 9h36l-4 -33q-55 -75 -172 -80q-74 -40 -76 -71l-1 -4q-1 -22 10.5 -32t40.5 -10q40 0 82 24l9 -18q-51 -35 -96 -35h-7q-39 0 -56.5 17.5t-15.5 50.5v4q4 44 72 74h-19
q-200 0 -173 189l21 149q13 91 73 140t158 49zM452 266l10 76q10 69 -23.5 104.5t-106.5 35.5h-31q-75 0 -122 -39.5t-57 -112.5l-10 -64h340z" />
    <glyph glyph-name="Ecaron" unicode="&#x11a;" horiz-adv-x="646" 
d="M405 758h-29l-95 110l18 13l95 -90l122 90l15 -13zM598 539h-34l10 120h-331l-39 -280h238l-6 -44h-239l-42 -294h344l25 120h34l-23 -161h-524l4 36l90 4l88 621q-17 0 -89 3l4 36h512z" />
    <glyph glyph-name="ecaron" unicode="&#x11b;" horiz-adv-x="558" 
d="M346 590h-29l-95 110l18 13l96 -90l121 90l15 -13zM305 518h32q195 0 169 -183l-14 -104h-384l-10 -62q-18 -141 130 -141h45q102 0 145 67l5 9h36l-4 -33q-60 -80 -185 -80h-44q-200 0 -173 189l21 149q13 91 73 140t158 49zM452 266l10 76q10 69 -23.5 104.5
t-106.5 35.5h-31q-75 0 -122 -39.5t-57 -112.5l-10 -64h340z" />
    <glyph glyph-name="Gbreve" unicode="&#x11e;" horiz-adv-x="701" 
d="M552 869l-1 -13q-15 -103 -127 -103q-55 0 -81 27.5t-19 78.5l2 10h32l-1 -9q-12 -75 69 -75q82 0 94 78l1 6h31zM634 338l-23 -162q-12 -86 -82 -135.5t-163 -49.5h-82q-241 0 -210 218l36 258q16 117 87.5 179t188.5 62h32q151 0 240 -42l-20 -154h-40l9 122
q-63 29 -222 29q-94 0 -153 -52.5t-72 -149.5l-37 -258q-12 -84 31.5 -125.5t138.5 -41.5h79q76 0 130.5 40.5t64.5 105.5l17 114q-72 1 -251 6l4 36h297z" />
    <glyph glyph-name="gbreve" unicode="&#x11f;" horiz-adv-x="582" 
d="M457 701l-1 -13q-7 -50 -39.5 -76.5t-85.5 -26.5q-55 0 -81 28t-18 78l1 10h31l-1 -10q-10 -75 70 -75q81 0 93 78v7h31zM590 506l-4 -35q-50 -2 -73 -4l-64 -455q-24 -167 -201 -167h-49q-56 0 -100 21t-62 62l4 28h37l2 -10q25 -64 125 -64h45q132 0 151 136l11 75
q-68 -42 -114 -56.5t-114 -14.5h-19q-133 0 -111 161l24 174q12 84 49 122.5t103 38.5h20q62 0 107 -16t104 -50l8 54h121zM186 62h20q58 0 100.5 13.5t110.5 55.5l41 287q-53 32 -97.5 46t-100.5 14h-19q-52 0 -80 -34t-38 -107l-19 -138q-10 -69 9 -103t73 -34z" />
    <glyph glyph-name="Gdotaccent" unicode="&#x120;" horiz-adv-x="701" 
d="M429 788q-14 0 -22 9t-7 23q5 26 35 26q15 0 23 -9t6 -24q-1 -11 -11 -18t-24 -7zM634 338l-23 -162q-12 -86 -82 -135.5t-163 -49.5h-82q-241 0 -210 218l36 258q16 117 87.5 179t188.5 62h32q151 0 240 -42l-20 -154h-40l9 122q-63 29 -222 29q-94 0 -153 -52.5
t-72 -149.5l-37 -258q-12 -84 31.5 -125.5t138.5 -41.5h79q76 0 130.5 40.5t64.5 105.5l17 114q-72 1 -251 6l4 36h297z" />
    <glyph glyph-name="gdotaccent" unicode="&#x121;" horiz-adv-x="582" 
d="M336 620q-14 0 -22.5 9t-6.5 23q1 12 11 19t24 7t22 -9t6 -24q-1 -11 -11 -18t-23 -7zM590 506l-4 -35q-50 -2 -73 -4l-64 -455q-24 -167 -201 -167h-49q-56 0 -100 21t-62 62l4 28h37l2 -10q25 -64 125 -64h45q132 0 151 136l11 75q-68 -42 -114 -56.5t-114 -14.5h-19
q-133 0 -111 161l24 174q12 84 49 122.5t103 38.5h20q62 0 107 -16t104 -50l8 54h121zM186 62h20q58 0 100.5 13.5t110.5 55.5l41 287q-53 32 -97.5 46t-100.5 14h-19q-52 0 -80 -34t-38 -107l-19 -138q-10 -69 9 -103t73 -34z" />
    <glyph glyph-name="Gcommaaccent" unicode="&#x122;" horiz-adv-x="701" 
d="M634 338l-23 -162q-12 -86 -82 -135.5t-163 -49.5h-82q-241 0 -210 218l36 258q16 117 87.5 179t188.5 62h32q151 0 240 -42l-20 -154h-40l9 122q-63 29 -222 29q-94 0 -153 -52.5t-72 -149.5l-37 -258q-12 -84 31.5 -125.5t138.5 -41.5h79q76 0 130.5 40.5t64.5 105.5
l17 114q-72 1 -251 6l4 36h297zM282 -98l6 26q4 21 28 15q15 -3 21 -8.5t4 -18.5q-4 -27 -23 -55q-19 -26 -51 -52l-11 10q20 20 31 37t13 23t4 18z" />
    <glyph glyph-name="gcommaaccent" unicode="&#x123;" horiz-adv-x="582" 
d="M420 646l-6 -26q-4 -21 -28 -15q-15 3 -20.5 8.5t-4.5 18.5q4 27 23 54q19 26 51 52l10 -10q-40 -41 -47 -77zM590 506l-4 -35q-50 -2 -73 -4l-64 -455q-24 -167 -201 -167h-49q-56 0 -100 21t-62 62l4 28h37l2 -10q25 -64 125 -64h45q132 0 151 136l11 75
q-68 -42 -114 -56.5t-114 -14.5h-19q-133 0 -111 161l24 174q12 84 49 122.5t103 38.5h20q62 0 107 -16t104 -50l8 54h121zM186 62h20q58 0 100.5 13.5t110.5 55.5l41 287q-53 32 -97.5 46t-100.5 14h-19q-52 0 -80 -34t-38 -107l-19 -138q-10 -69 9 -103t73 -34z" />
    <glyph glyph-name="Hbar" unicode="&#x126;" horiz-adv-x="791" 
d="M804 700l-4 -36q-48 -3 -92 -3l-22 -156h78l-3 -20h-78l-63 -446q16 0 50 -1.5t40 -1.5l-5 -36h-223l4 36q4 0 35.5 1.5t47.5 1.5l43 296h-414l-43 -296q15 0 44.5 -1.5t34.5 -1.5l-4 -36h-223l4 36q32 2 94 4l64 445h-75l3 20h75l22 156q-13 0 -28.5 0.5t-34.5 1.5
t-31 1l4 36h224l-4 -36q-4 0 -34.5 -1.5t-45.5 -1.5l-23 -156h414l23 156q-15 0 -45.5 1.5t-37.5 1.5l5 36h224zM633 485h-414l-16 -107h414z" />
    <glyph glyph-name="hbar" unicode="&#x127;" horiz-adv-x="663" 
d="M564 383l-49 -344q4 -1 88 -5l-4 -34h-137l52 365q9 70 -4.5 91.5t-67.5 21.5h-12q-88 0 -237 -102l-49 -338q47 -2 80 -4l-4 -34h-209l4 35l81 3l75 530h-81l5 33h80l15 103h48l-14 -103h114l-5 -33h-114l-22 -157q74 51 134 79t122 28h11q67 0 89 -28.5t11 -106.5z" />
    <glyph glyph-name="Imacron" unicode="&#x12a;" horiz-adv-x="318" 
d="M356 811l-5 -34h-237l5 34h237zM335 700l-4 -36q-45 -3 -87 -3l-89 -622q12 0 26 -0.5t31.5 -1.5t28.5 -1l-4 -36h-226l4 36q32 2 90 4l88 621q-17 0 -49.5 1.5t-39.5 1.5l4 36h227z" />
    <glyph glyph-name="imacron" unicode="&#x12b;" horiz-adv-x="283" 
d="M318 642l-4 -33h-231l4 33h231zM190 506l-58 -417q-8 -59 51 -59h48l-4 -36q-46 -2 -63 -2q-94 0 -80 101l54 374q-12 1 -36.5 2.5t-37.5 2.5l4 34h122z" />
    <glyph glyph-name="Iogonek" unicode="&#x12e;" horiz-adv-x="318" 
d="M335 700l-4 -36q-45 -3 -87 -3l-89 -622q12 0 26 -0.5t31.5 -1.5t28.5 -1l-4 -36h-69q-4 -2 -14 -7.5t-14.5 -8t-13.5 -8t-13.5 -8.5t-11.5 -8t-10.5 -9.5t-7.5 -9.5t-6 -10t-2 -11l-1 -4q-1 -22 10.5 -32t40.5 -10q40 0 82 24l9 -18q-51 -35 -96 -35h-7
q-39 0 -56.5 17.5t-15.5 50.5v4q5 49 93 83h-123l4 36q32 2 90 4l88 621q-17 0 -49.5 1.5t-39.5 1.5l4 36h227z" />
    <glyph glyph-name="iogonek" unicode="&#x12f;" horiz-adv-x="283" 
d="M208 678q14 0 22 -9t6 -24q-1 -11 -11 -18t-23 -7q-14 0 -22.5 9t-6.5 23q1 12 11 19t24 7zM190 506l-58 -417q-8 -59 51 -59h48l-4 -36q-46 -2 -63 -2q-10 0 -26 2q-26 -14 -39.5 -22t-27.5 -23t-15 -29l-1 -4q-1 -22 10.5 -32t40.5 -10q40 0 82 24l9 -18
q-51 -35 -96 -35h-7q-39 0 -56.5 17.5t-15.5 50.5v4q4 49 95 84q-43 21 -33 92l54 374q-12 1 -36.5 2.5t-37.5 2.5l4 34h122z" />
    <glyph glyph-name="Idotaccent" unicode="&#x130;" horiz-adv-x="318" 
d="M235 788q-14 0 -22 9t-7 23q5 26 35 26q15 0 23 -9t6 -24q-1 -11 -11 -18t-24 -7zM335 700l-4 -36q-45 -3 -87 -3l-89 -622q12 0 26 -0.5t31.5 -1.5t28.5 -1l-4 -36h-226l4 36q32 2 90 4l88 621q-17 0 -49.5 1.5t-39.5 1.5l4 36h227z" />
    <glyph glyph-name="dotlessi" unicode="&#x131;" horiz-adv-x="283" 
d="M190 506l-58 -417q-8 -59 51 -59h48l-4 -36q-46 -2 -63 -2q-94 0 -80 101l54 374q-12 1 -36.5 2.5t-37.5 2.5l4 34h122z" />
    <glyph glyph-name="IJ" unicode="&#x132;" horiz-adv-x="618" 
d="M335 700l-4 -36q-45 -3 -87 -3l-89 -622q12 0 26 -0.5t31.5 -1.5t28.5 -1l-4 -36h-226l4 36q32 2 90 4l88 621q-17 0 -49.5 1.5t-39.5 1.5l4 36h227zM644 700l-5 -36q-43 -3 -87 -3l-78 -552q-12 -88 -33 -128t-81 -91q-6 -5 -50 -38l-21 26q5 4 10.5 9t12.5 11t12 10
q48 42 68.5 83.5t31.5 121.5l78 548q-17 0 -50.5 1.5t-39.5 1.5l5 36h227z" />
    <glyph glyph-name="ij" unicode="&#x133;" horiz-adv-x="539" 
d="M189 679q15 0 23.5 -9.5t6.5 -24.5q-1 -12 -11.5 -19t-24.5 -7q-15 0 -23 9t-6 24q3 27 35 27zM484 679q15 0 23 -9.5t6 -24.5q-3 -26 -36 -26q-15 0 -23 9t-6 24q1 12 11.5 19.5t24.5 7.5zM192 506l-58 -417q-8 -59 51 -59h48l-4 -32q-28 -6 -63 -6q-94 0 -80 101
l54 374q-13 1 -37.5 2.5t-36.5 2.5l4 34h122zM488 506l-61 -437q-9 -60 -29 -92.5t-80 -83.5q-19 -17 -50 -38l-19 26q3 2 15 12.5t20 16.5q47 42 67 75t28 87l56 395q-12 1 -37 2.5t-37 2.5l4 34h123z" />
    <glyph glyph-name="Kcommaaccent" unicode="&#x136;" horiz-adv-x="745" 
d="M335 700l-4 -36q-45 -3 -87 -3l-41 -282h180l243 282q-15 0 -44.5 1.5t-34.5 1.5l5 36h223l-5 -36q-3 0 -38 -1.5t-52 -1.5l-258 -302l173 -320q18 0 54 -1.5t42 -1.5l-4 -36h-228l5 36q48 2 75 2l-159 298h-183l-42 -297q12 0 26 -0.5t31.5 -1.5t28.5 -1l-4 -36h-226
l4 36q32 2 90 4l88 621q-17 0 -49.5 1.5t-39.5 1.5l4 36h227zM291 -98l6 26q4 21 28 15q15 -3 21 -8.5t4 -18.5q-4 -27 -23 -55q-19 -26 -51 -52l-11 10q41 41 48 78z" />
    <glyph glyph-name="kcommaaccent" unicode="&#x137;" horiz-adv-x="616" 
d="M522 468l-176 -191l91 -180q14 -27 21 -37t21.5 -19.5t35.5 -9.5h47l-5 -37q-46 -2 -62 -2q-36 0 -58.5 21.5t-48.5 79.5l-83 163h-149l-32 -218q47 -2 80 -4l-4 -34h-209l4 35l81 3l89 623q-12 1 -37 2.5t-37 2.5l4 34h123l-57 -405h151l159 174q-13 0 -38.5 1.5
t-35.5 1.5l4 34h200l-4 -35zM241 -98l6 26q4 21 28 15q15 -3 21 -8.5t4 -18.5q-4 -27 -23 -55q-19 -26 -51 -52l-11 10q41 41 48 78z" />
    <glyph glyph-name="Lacute" unicode="&#x139;" horiz-adv-x="623" 
d="M334 869l-2 -8l-126 -109l-19 14l110 122zM11 0l4 36q28 2 57 3t33 1l88 621q-17 0 -49.5 1.5t-39.5 1.5l4 36h232l-5 -36q-31 -2 -91 -4l-89 -619h343l26 131h35l-24 -172h-524z" />
    <glyph glyph-name="lacute" unicode="&#x13a;" horiz-adv-x="296" 
d="M310 894l-2 -8l-124 -108l-19 14l109 121zM218 700l-86 -611q-8 -59 51 -59h49l-4 -33q-30 -5 -64 -5q-94 0 -80 101l81 568q-12 1 -37 2.5t-37 2.5l4 34h123z" />
    <glyph glyph-name="Lcommaaccent" unicode="&#x13b;" horiz-adv-x="623" 
d="M11 0l4 36q28 2 57 3t33 1l88 621q-17 0 -49.5 1.5t-39.5 1.5l4 36h232l-5 -36q-31 -2 -91 -4l-89 -619h343l26 131h35l-24 -172h-524zM230 -98l6 26q4 21 28 15q15 -3 21 -8.5t4 -18.5q-4 -27 -23 -55q-19 -26 -51 -52l-11 10q20 20 31 37t13 23t4 18z" />
    <glyph glyph-name="lcommaaccent" unicode="&#x13c;" horiz-adv-x="296" 
d="M218 700l-86 -611q-8 -59 51 -59h49l-4 -33q-30 -5 -64 -5q-94 0 -80 101l81 568q-12 1 -37 2.5t-37 2.5l4 34h123zM73 -98l6 26q4 21 28 15q15 -3 21 -8.5t4 -18.5q-4 -27 -23 -55q-19 -26 -51 -52l-11 10q41 41 48 78z" />
    <glyph glyph-name="Lcaron" unicode="&#x13d;" horiz-adv-x="623" 
d="M11 0l4 36q28 2 57 3t33 1l88 621q-17 0 -49.5 1.5t-39.5 1.5l4 36h232l-5 -36q-31 -2 -91 -4l-89 -619h343l26 131h35l-24 -172h-524zM441 700l-1 -13l-55 -135h-27l43 148h40z" />
    <glyph glyph-name="lcaron" unicode="&#x13e;" horiz-adv-x="296" 
d="M218 700l-86 -611q-8 -59 51 -59h49l-4 -33q-30 -5 -64 -5q-94 0 -80 101l81 568q-12 1 -37 2.5t-37 2.5l4 34h123zM352 700l-1 -13l-55 -135h-27l43 148h40z" />
    <glyph glyph-name="Ldot" unicode="&#x13f;" horiz-adv-x="623" 
d="M11 0l4 36q28 2 57 3t33 1l88 621q-17 0 -49.5 1.5t-39.5 1.5l4 36h232l-5 -36q-31 -2 -91 -4l-89 -619h343l26 131h35l-24 -172h-524zM381 335q-14 0 -22 9t-6 23q3 25 34 25q14 0 22 -8.5t6 -23.5q-1 -11 -11 -18t-23 -7z" />
    <glyph glyph-name="ldot" unicode="&#x140;" horiz-adv-x="296" 
d="M218 700l-86 -611q-8 -59 51 -59h49l-4 -33q-30 -5 -64 -5q-94 0 -80 101l81 568q-12 1 -37 2.5t-37 2.5l4 34h123zM270 336q-37 0 -31 35q3 30 37 30q37 0 31 -36q-3 -29 -37 -29z" />
    <glyph glyph-name="Lslash" unicode="&#x141;" horiz-adv-x="630" 
d="M562 172l-24 -172h-524l4 36q28 2 57 3t33 1l36 251l-111 -39l5 35l110 39l48 335q-17 0 -49.5 1.5t-39.5 1.5l4 36h232l-5 -36q-31 -2 -91 -4l-45 -316l144 51l-6 -35l-143 -50l-39 -269h343l26 131h35z" />
    <glyph glyph-name="lslash" unicode="&#x142;" horiz-adv-x="296" 
d="M171 356l-38 -267q-8 -59 51 -59h49l-4 -33q-30 -5 -64 -5q-94 0 -80 101l35 243l-63 -25l5 36l63 25l41 289q-12 1 -37 2.5t-37 2.5l4 34h123l-43 -308l102 40l-5 -36z" />
    <glyph glyph-name="Nacute" unicode="&#x143;" horiz-adv-x="783" 
d="M563 869l-2 -8l-126 -109l-19 14l110 122zM800 700l-4 -36q-31 -2 -91 -4l-94 -660h-58l-314 626l-84 -587q15 0 44.5 -1.5t34.5 -1.5l-4 -36h-219l4 36q49 3 94 3l89 621l-94 4l4 36h146l321 -631l83 592q-15 0 -45.5 1.5t-37.5 1.5l5 36h220z" />
    <glyph glyph-name="nacute" unicode="&#x144;" horiz-adv-x="663" 
d="M468 701l-2 -8l-124 -108l-19 14l109 121zM192 506l-13 -95q74 51 134 79t122 28h11q67 0 89 -28.5t11 -106.5l-42 -294q-6 -59 52 -59h48l-4 -33q-29 -5 -63 -5q-93 0 -80 97l39 276q9 70 -4.5 91.5t-67.5 21.5h-12q-88 0 -237 -102l-55 -376h-48l68 467
q-13 1 -37.5 2.5t-36.5 2.5l4 34h122z" />
    <glyph glyph-name="Ncommaaccent" unicode="&#x145;" horiz-adv-x="783" 
d="M800 700l-4 -36q-31 -2 -91 -4l-94 -660h-58l-314 626l-84 -587q15 0 44.5 -1.5t34.5 -1.5l-4 -36h-219l4 36q49 3 94 3l89 621l-94 4l4 36h146l321 -631l83 592q-15 0 -45.5 1.5t-37.5 1.5l5 36h220zM321 -98l6 26q4 21 28 15q15 -3 21 -8.5t4 -18.5q-4 -27 -23 -55
q-19 -26 -51 -52l-11 10q41 41 48 78z" />
    <glyph glyph-name="ncommaaccent" unicode="&#x146;" horiz-adv-x="663" 
d="M192 506l-13 -95q74 51 134 79t122 28h11q67 0 89 -28.5t11 -106.5l-42 -294q-6 -59 52 -59h48l-4 -33q-29 -5 -63 -5q-93 0 -80 97l39 276q9 70 -4.5 91.5t-67.5 21.5h-12q-88 0 -237 -102l-55 -376h-48l68 467q-13 1 -37.5 2.5t-36.5 2.5l4 34h122zM267 -98l6 26
q4 21 28 15q15 -3 21 -8.5t4 -18.5q-4 -27 -23 -55q-19 -26 -51 -52l-11 10q41 41 48 78z" />
    <glyph glyph-name="Ncaron" unicode="&#x147;" horiz-adv-x="783" 
d="M477 758h-29l-95 110l18 13l95 -90l122 90l15 -13zM800 700l-4 -36q-31 -2 -91 -4l-94 -660h-58l-314 626l-84 -587q15 0 44.5 -1.5t34.5 -1.5l-4 -36h-219l4 36q49 3 94 3l89 621l-94 4l4 36h146l321 -631l83 592q-15 0 -45.5 1.5t-37.5 1.5l5 36h220z" />
    <glyph glyph-name="ncaron" unicode="&#x148;" horiz-adv-x="663" 
d="M400 590h-29l-95 110l18 13l96 -90l121 90l15 -13zM192 506l-13 -95q74 51 134 79t122 28h11q67 0 89 -28.5t11 -106.5l-42 -294q-6 -59 52 -59h48l-4 -33q-29 -5 -63 -5q-93 0 -80 97l39 276q9 70 -4.5 91.5t-67.5 21.5h-12q-88 0 -237 -102l-55 -376h-48l68 467
q-13 1 -37.5 2.5t-36.5 2.5l4 34h122z" />
    <glyph glyph-name="Omacron" unicode="&#x14c;" horiz-adv-x="720" 
d="M557 811l-5 -34h-237l5 34h237zM364 -9h-79q-111 0 -167.5 64t-41.5 170l34 251q16 107 89.5 169.5t184.5 62.5h79q111 0 167.5 -64.5t40.5 -170.5l-34 -251q-16 -106 -89 -168.5t-184 -62.5zM292 36h73q88 0 148.5 52t73.5 139l35 248q12 87 -33 137.5t-134 50.5h-73
q-88 0 -148.5 -52.5t-73.5 -138.5l-35 -248q-12 -87 33 -137.5t134 -50.5z" />
    <glyph glyph-name="omacron" unicode="&#x14d;" horiz-adv-x="578" 
d="M459 642l-4 -33h-231l4 33h231zM282 -9h-56q-199 0 -173 189l21 151q27 187 225 187h56q197 0 171 -190l-21 -151q-27 -186 -223 -186zM229 28h56q73 0 117 37.5t54 108.5l23 164q20 143 -130 143h-56q-148 0 -170 -146l-24 -165q-18 -142 130 -142z" />
    <glyph glyph-name="Ohungarumlaut" unicode="&#x150;" horiz-adv-x="720" 
d="M496 872l-2 -8l-120 -110l-18 14l109 120zM602 872l-2 -8l-121 -110l-17 14l109 120zM364 -9h-79q-111 0 -167.5 64t-41.5 170l34 251q16 107 89.5 169.5t184.5 62.5h79q111 0 167.5 -64.5t40.5 -170.5l-34 -251q-16 -106 -89 -168.5t-184 -62.5zM292 36h73
q88 0 148.5 52t73.5 139l35 248q12 87 -33 137.5t-134 50.5h-73q-88 0 -148.5 -52.5t-73.5 -138.5l-35 -248q-12 -87 33 -137.5t134 -50.5z" />
    <glyph glyph-name="ohungarumlaut" unicode="&#x151;" horiz-adv-x="578" 
d="M403 704l-1 -8l-120 -109l-17 13l108 120zM507 704l-1 -8l-120 -109l-17 13l109 120zM282 -9h-56q-199 0 -173 189l21 151q27 187 225 187h56q197 0 171 -190l-21 -151q-27 -186 -223 -186zM229 28h56q73 0 117 37.5t54 108.5l23 164q20 143 -130 143h-56
q-148 0 -170 -146l-24 -165q-18 -142 130 -142z" />
    <glyph glyph-name="OE" unicode="&#x152;" horiz-adv-x="1018" 
d="M576 379h238l-6 -44h-239l-42 -294h344l25 120h34l-23 -161h-632q-114 0 -164.5 54.5t-36.5 158.5l39 276q29 211 259 211h620l-22 -161h-34l10 120h-331zM565 658h-195q-185 0 -209 -170l-39 -279q-12 -83 28 -125.5t131 -41.5h196z" />
    <glyph glyph-name="oe" unicode="&#x153;" horiz-adv-x="962" 
d="M710 518h32q193 0 169 -183l-15 -104h-383l-8 -54l-3 -19q-12 -130 130 -130h45q101 0 146 67l5 9h36l-4 -33q-60 -80 -186 -80h-44q-130 0 -163 79q-55 -79 -185 -79h-56q-199 0 -173 189l21 151q27 187 225 187h56q131 0 163 -85q62 85 192 85zM857 266l10 76
q10 69 -23.5 104.5t-106.5 35.5h-32q-73 0 -119.5 -37.5t-58.5 -107.5l-1 -9l-9 -62h340zM229 28h56q73 0 117 37t54 108l23 165q20 143 -130 143h-56q-148 0 -170 -146l-24 -165q-18 -142 130 -142z" />
    <glyph glyph-name="Racute" unicode="&#x154;" horiz-adv-x="685" 
d="M509 869l-2 -8l-126 -109l-19 14l110 122zM108 700h343q97 0 144.5 -50t34.5 -139l-6 -46q-10 -68 -55 -113t-116 -59q50 -111 89 -255q26 0 91 -3l-4 -35h-143l5 40q-45 165 -86 248h-210l-36 -250q26 0 86 -2l-4 -36h-230l4 36q47 3 94 3l89 622q-25 0 -94 3zM200 328
h199q75 0 122.5 39t56.5 103l5 40q10 70 -25.5 109t-111.5 39h-199z" />
    <glyph glyph-name="racute" unicode="&#x155;" horiz-adv-x="422" 
d="M339 701l-2 -8l-124 -108l-19 14l109 121zM210 506l-14 -97q53 57 96.5 78.5t100.5 21.5h37l-5 -44q-33 0 -47 -1q-51 0 -94.5 -21.5t-91.5 -73.5l-53 -369h-48l67 467q-13 1 -37 2.5t-37 2.5l4 34h122z" />
    <glyph glyph-name="Rcommaaccent" unicode="&#x156;" horiz-adv-x="685" 
d="M108 700h343q97 0 144.5 -50t34.5 -139l-6 -46q-10 -68 -55 -113t-116 -59q50 -111 89 -255q26 0 91 -3l-4 -35h-143l5 40q-45 165 -86 248h-210l-36 -250q26 0 86 -2l-4 -36h-230l4 36q47 3 94 3l89 622q-25 0 -94 3zM200 328h199q75 0 122.5 39t56.5 103l5 40
q10 70 -25.5 109t-111.5 39h-199zM283 -98l6 26q4 21 28 15q15 -3 21 -8.5t4 -18.5q-4 -27 -23 -55q-19 -26 -51 -52l-11 10q41 41 48 78z" />
    <glyph glyph-name="rcommaaccent" unicode="&#x157;" horiz-adv-x="422" 
d="M210 506l-14 -97q53 57 96.5 78.5t100.5 21.5h37l-5 -44q-33 0 -47 -1q-51 0 -94.5 -21.5t-91.5 -73.5l-53 -369h-48l67 467q-13 1 -37 2.5t-37 2.5l4 34h122zM69 -98l6 26q4 21 28 15q15 -3 21 -8.5t4 -18.5q-4 -27 -23 -55q-19 -26 -51 -52l-11 10q41 41 48 78z" />
    <glyph glyph-name="Rcaron" unicode="&#x158;" horiz-adv-x="685" 
d="M422 758h-29l-95 110l18 13l95 -90l122 90l15 -13zM108 700h343q97 0 144.5 -50t34.5 -139l-6 -46q-10 -68 -55 -113t-116 -59q50 -111 89 -255q26 0 91 -3l-4 -35h-143l5 40q-45 165 -86 248h-210l-36 -250q26 0 86 -2l-4 -36h-230l4 36q47 3 94 3l89 622q-25 0 -94 3z
M200 328h199q75 0 122.5 39t56.5 103l5 40q10 70 -25.5 109t-111.5 39h-199z" />
    <glyph glyph-name="rcaron" unicode="&#x159;" horiz-adv-x="422" 
d="M271 590h-29l-95 110l18 13l96 -90l121 90l15 -13zM210 506l-14 -97q53 57 96.5 78.5t100.5 21.5h37l-5 -44q-33 0 -47 -1q-51 0 -94.5 -21.5t-91.5 -73.5l-53 -369h-48l67 467q-13 1 -37 2.5t-37 2.5l4 34h122z" />
    <glyph glyph-name="Sacute" unicode="&#x15a;" horiz-adv-x="652" 
d="M499 869l-2 -8l-126 -109l-19 14l110 122zM113 200l-9 -121q77 -45 200 -45h12q98 0 141 30t53 106l6 34q7 59 -12.5 85.5t-78.5 40.5l-208 48q-66 18 -86.5 51t-11.5 99l2 14q12 90 68.5 128t176.5 38h17q123 0 226 -50l-21 -150h-38l9 122q-73 37 -180 37h-16
q-93 0 -137 -29.5t-54 -96.5l-2 -14q-7 -47 8.5 -70.5t62.5 -35.5l217 -50q71 -18 94.5 -54t13.5 -109l-6 -44q-14 -95 -69 -133t-178 -38h-20q-134 0 -239 60l20 147h39z" />
    <glyph glyph-name="sacute" unicode="&#x15b;" horiz-adv-x="532" 
d="M389 701l-2 -8l-124 -108l-19 14l109 121zM85 384l2 17q17 117 200 117h16q37 0 92 -10.5t91 -30.5l-14 -99h-38l7 76q-53 29 -149 29q-77 0 -115.5 -21.5t-45.5 -67.5l-1 -9q-7 -46 17 -60.5t117 -33.5q16 -3 25 -5q105 -22 137.5 -46t23.5 -87l-2 -21
q-11 -75 -58.5 -108t-135.5 -33h-39q-140 0 -175 66l12 87h34l-6 -71q24 -46 140 -46h35q69 0 104 25.5t44 84.5l2 17q6 47 -22 63t-132 36q-109 21 -141.5 46t-24.5 85z" />
    <glyph glyph-name="Scedilla" unicode="&#x15e;" horiz-adv-x="652" 
d="M550 508l9 122q-73 37 -180 37h-16q-93 0 -137 -29.5t-54 -96.5l-2 -14q-7 -47 8.5 -70.5t62.5 -35.5l217 -50q71 -18 94.5 -54t13.5 -109l-6 -44q-14 -95 -69 -133t-178 -38h-20h-25l-10 -33h41q36 0 50 -14.5t9 -45.5l-1 -7q-7 -57 -77 -59q-40 0 -92 7l2 17h92
q20 0 33.5 11t16.5 28v5q2 20 -6 28.5t-33 8.5h-69l24 55q-105 8 -194 59l20 147h39l-9 -121q77 -45 200 -45h12q98 0 141 30t53 106l6 34q7 59 -12.5 85.5t-78.5 40.5l-208 48q-66 18 -86.5 51t-11.5 99l2 14q12 90 68.5 128t176.5 38h17q123 0 226 -50l-21 -150h-38z" />
    <glyph glyph-name="scedilla" unicode="&#x15f;" horiz-adv-x="532" 
d="M434 378l7 76q-53 29 -149 29q-77 0 -115.5 -21.5t-45.5 -67.5l-1 -9q-7 -46 17 -60.5t117 -33.5q16 -3 25 -5q105 -22 137.5 -46t23.5 -87l-2 -21q-11 -75 -58.5 -108t-135.5 -33h-39h-8l-9 -31h41q36 0 50 -14.5t9 -45.5l-1 -7q-7 -57 -77 -59q-40 0 -92 7l2 17h92
q20 0 33.5 11t16.5 28v5q2 20 -6 28.5t-33 8.5h-69l23 53q-116 7 -147 65l12 87h34l-6 -71q24 -46 140 -46h35q69 0 104 25.5t44 84.5l2 17q6 47 -22 63t-132 36q-109 21 -141.5 46t-24.5 85l2 17q17 117 200 117h16q37 0 92 -10.5t91 -30.5l-14 -99h-38z" />
    <glyph glyph-name="Scaron" unicode="&#x160;" horiz-adv-x="652" 
d="M412 758h-29l-95 110l18 13l95 -90l122 90l15 -13zM113 200l-9 -121q77 -45 200 -45h12q98 0 141 30t53 106l6 34q7 59 -12.5 85.5t-78.5 40.5l-208 48q-66 18 -86.5 51t-11.5 99l2 14q12 90 68.5 128t176.5 38h17q123 0 226 -50l-21 -150h-38l9 122q-73 37 -180 37h-16
q-93 0 -137 -29.5t-54 -96.5l-2 -14q-7 -47 8.5 -70.5t62.5 -35.5l217 -50q71 -18 94.5 -54t13.5 -109l-6 -44q-14 -95 -69 -133t-178 -38h-20q-134 0 -239 60l20 147h39z" />
    <glyph glyph-name="scaron" unicode="&#x161;" horiz-adv-x="532" 
d="M328 590h-29l-95 110l18 13l96 -90l121 90l15 -13zM85 384l2 17q17 117 200 117h16q37 0 92 -10.5t91 -30.5l-14 -99h-38l7 76q-53 29 -149 29q-77 0 -115.5 -21.5t-45.5 -67.5l-1 -9q-7 -46 17 -60.5t117 -33.5q16 -3 25 -5q105 -22 137.5 -46t23.5 -87l-2 -21
q-11 -75 -58.5 -108t-135.5 -33h-39q-140 0 -175 66l12 87h34l-6 -71q24 -46 140 -46h35q69 0 104 25.5t44 84.5l2 17q6 47 -22 63t-132 36q-109 21 -141.5 46t-24.5 85z" />
    <glyph glyph-name="Tcaron" unicode="&#x164;" horiz-adv-x="681" 
d="M427 758h-29l-95 110l18 13l95 -90l122 90l15 -13zM642 537l11 120h-229l-88 -618q12 0 27 -0.5t33 -1.5t28 -1l-4 -36h-230l4 36q32 2 92 4l88 617h-232l-22 -120h-36l23 163h593l-23 -163h-35z" />
    <glyph glyph-name="tcaron" unicode="&#x165;" horiz-adv-x="372" 
d="M336 713l-1 -13l-55 -135h-27l43 148h40zM190 32h9q57 0 95 4l-4 -32q-55 -13 -113 -13h-10q-56 0 -74.5 30.5t-8.5 104.5l48 342h-69l5 38h56q16 0 19 19l19 134q32 5 45 5l-22 -158h155l-5 -38h-155l-46 -325q-9 -66 2.5 -88.5t53.5 -22.5z" />
    <glyph glyph-name="Umacron" unicode="&#x16a;" horiz-adv-x="774" 
d="M586 811l-5 -34h-237l5 34h237zM792 700l-4 -36q-42 -3 -82 -3l-64 -456q-31 -214 -253 -214h-69q-225 0 -195 217l64 453q-12 0 -26 0.5t-31.5 1.5t-28.5 1l4 36h228l-4 -36q-48 -3 -92 -3l-64 -457q-24 -170 151 -170h67q86 0 138 44.5t64 128.5l64 454
q-17 0 -51.5 1.5t-39.5 1.5l5 36h219z" />
    <glyph glyph-name="umacron" unicode="&#x16b;" horiz-adv-x="664" 
d="M506 642l-4 -33h-231l4 33h231zM570 506l-58 -417q-8 -59 51 -59h49l-4 -33q-29 -5 -63 -5q-87 0 -80 91l3 23q-76 -51 -136 -78.5t-121 -27.5h-11q-68 0 -90 28t-11 107l48 333q-13 0 -88 4l4 34h137l-49 -353q-11 -69 2.5 -90.5t67.5 -21.5h12q91 0 237 101l48 326
q-14 0 -89 4l4 34h137z" />
    <glyph glyph-name="Uring" unicode="&#x16e;" horiz-adv-x="774" 
d="M467 750h-15q-29 0 -44.5 18t-11.5 48l2 15q4 29 24 45.5t49 16.5h14q30 0 45.5 -18t11.5 -47l-3 -15q-4 -30 -23 -46.5t-49 -16.5zM455 773h13q42 0 47 42l2 16q6 39 -36 39h-11q-43 0 -48 -41l-2 -16q-3 -19 6.5 -29.5t28.5 -10.5zM792 700l-4 -36q-42 -3 -82 -3
l-64 -456q-31 -214 -253 -214h-69q-225 0 -195 217l64 453q-12 0 -26 0.5t-31.5 1.5t-28.5 1l4 36h228l-4 -36q-48 -3 -92 -3l-64 -457q-24 -170 151 -170h67q86 0 138 44.5t64 128.5l64 454q-17 0 -51.5 1.5t-39.5 1.5l5 36h219z" />
    <glyph glyph-name="uring" unicode="&#x16f;" horiz-adv-x="664" 
d="M391 585h-14q-29 0 -43.5 18t-10.5 46l1 15q4 28 23 44t48 16h14q29 0 44.5 -17.5t10.5 -45.5l-2 -15q-4 -29 -23 -45t-48 -16zM380 607h12q43 0 47 42l2 15q3 18 -7 28.5t-29 10.5h-10q-42 0 -48 -41l-2 -16q-3 -18 7 -28.5t28 -10.5zM570 506l-58 -417q-8 -59 51 -59
h49l-4 -33q-29 -5 -63 -5q-87 0 -80 91l3 23q-76 -51 -136 -78.5t-121 -27.5h-11q-68 0 -90 28t-11 107l48 333q-13 0 -88 4l4 34h137l-49 -353q-11 -69 2.5 -90.5t67.5 -21.5h12q91 0 237 101l48 326q-14 0 -89 4l4 34h137z" />
    <glyph glyph-name="Uhungarumlaut" unicode="&#x170;" horiz-adv-x="774" 
d="M525 872l-2 -8l-120 -110l-18 14l109 120zM631 872l-2 -8l-121 -110l-17 14l109 120zM792 700l-4 -36q-42 -3 -82 -3l-64 -456q-31 -214 -253 -214h-69q-225 0 -195 217l64 453q-12 0 -26 0.5t-31.5 1.5t-28.5 1l4 36h228l-4 -36q-48 -3 -92 -3l-64 -457
q-24 -170 151 -170h67q86 0 138 44.5t64 128.5l64 454q-17 0 -51.5 1.5t-39.5 1.5l5 36h219z" />
    <glyph glyph-name="uhungarumlaut" unicode="&#x171;" horiz-adv-x="664" 
d="M430 704l-1 -8l-120 -109l-17 13l108 120zM534 704l-1 -8l-120 -109l-17 13l109 120zM570 506l-58 -417q-8 -59 51 -59h49l-4 -33q-29 -5 -63 -5q-87 0 -80 91l3 23q-76 -51 -136 -78.5t-121 -27.5h-11q-68 0 -90 28t-11 107l48 333q-13 0 -88 4l4 34h137l-49 -353
q-11 -69 2.5 -90.5t67.5 -21.5h12q91 0 237 101l48 326q-14 0 -89 4l4 34h137z" />
    <glyph glyph-name="Uogonek" unicode="&#x172;" horiz-adv-x="774" 
d="M792 700l-4 -36q-42 -3 -82 -3l-64 -456q-31 -214 -253 -214h-52q-74 -39 -76 -71l-1 -4q-1 -22 10.5 -32t40.5 -10q40 0 82 24l9 -18q-51 -35 -96 -35h-7q-39 0 -56.5 17.5t-15.5 50.5v4q4 44 73 74q-204 11 -175 217l64 453q-12 0 -26 0.5t-31.5 1.5t-28.5 1l4 36h228
l-4 -36q-48 -3 -92 -3l-64 -457q-24 -170 151 -170h67q86 0 138 44.5t64 128.5l64 454q-17 0 -51.5 1.5t-39.5 1.5l5 36h219z" />
    <glyph glyph-name="uogonek" unicode="&#x173;" horiz-adv-x="664" 
d="M424 -80l-1 -4q-1 -22 10.5 -32t40.5 -10q40 0 82 24l9 -18q-51 -35 -96 -35h-7q-39 0 -56.5 17.5t-15.5 50.5v4q2 21 19.5 39t36 27.5t48.5 20.5q-33 21 -29 79l3 23q-76 -51 -136 -78.5t-121 -27.5h-11q-68 0 -90 28t-11 107l48 333q-13 0 -88 4l4 34h137l-49 -353
q-11 -69 2.5 -90.5t67.5 -21.5h12q91 0 237 101l48 326q-14 0 -89 4l4 34h137l-58 -417q-8 -59 51 -59h49l-4 -33q-29 -5 -63 -5q-23 0 -35 5q-29 -16 -41.5 -23.5t-28 -23t-16.5 -30.5z" />
    <glyph glyph-name="Wcircumflex" unicode="&#x174;" horiz-adv-x="1023" 
d="M695 757l-97 91l-122 -91l-15 14l126 111h30l96 -111zM1063 700l-4 -36q-40 -3 -78 -3l-271 -661h-70l-76 617h-2l-247 -617h-74l-84 661q-11 0 -23.5 0.5t-28 1.5t-25.5 1l4 36h226l-4 -36q-51 -3 -96 -3l75 -608h3l262 647h50l81 -646h4l251 607q-18 0 -55 1.5t-42 1.5
l4 36h220z" />
    <glyph glyph-name="wcircumflex" unicode="&#x175;" horiz-adv-x="869" 
d="M591 590l-96 90l-121 -90l-15 14l126 109h29l95 -109zM803 468l-207 -468h-57l-83 432l-205 -432h-55l-74 469q-32 0 -72 3l4 34h202l-4 -34q-48 -3 -84 -3l63 -419h2l213 456h42l86 -456h2l184 418q-50 2 -80 4l4 34h202l-5 -35z" />
    <glyph glyph-name="Ycircumflex" unicode="&#x176;" horiz-adv-x="705" 
d="M535 757l-97 91l-122 -91l-15 14l126 111h30l96 -111zM308 700l-4 -36q-60 -2 -86 -2l141 -363h2l244 362l-86 3l4 36h222l-5 -36q-30 -2 -82 -4l-281 -405l-31 -216q12 0 26 -0.5t31.5 -1.5t28.5 -1l-4 -36h-226l4 36q32 2 90 4l31 213l-164 408q-15 0 -46 1.5t-36 1.5
l5 36h222z" />
    <glyph glyph-name="ycircumflex" unicode="&#x177;" horiz-adv-x="646" 
d="M479 590l-96 90l-121 -90l-15 14l126 109h29l95 -109zM664 506l-5 -35q-8 0 -38.5 -1.5t-45.5 -1.5l-326 -571q13 0 36.5 -1.5t30.5 -1.5l-5 -34h-214l5 34q54 3 99 3l54 95l-133 476q-46 2 -73 4l4 34h212l-4 -35l-91 -3l115 -421h4l242 421q-48 2 -77 4l4 34h206z" />
    <glyph glyph-name="Ydieresis" unicode="&#x178;" horiz-adv-x="705" 
d="M344 788q-14 0 -21.5 9t-6.5 23q1 12 11 19t23 7q14 0 22 -9t6 -24q-1 -11 -10.5 -18t-23.5 -7zM517 788q-14 0 -22 9t-7 23q5 26 34 26q14 0 22 -9t6 -24q-1 -11 -10.5 -18t-22.5 -7zM308 700l-4 -36q-60 -2 -86 -2l141 -363h2l244 362l-86 3l4 36h222l-5 -36
q-30 -2 -82 -4l-281 -405l-31 -216q12 0 26 -0.5t31.5 -1.5t28.5 -1l-4 -36h-226l4 36q32 2 90 4l31 213l-164 408q-15 0 -46 1.5t-36 1.5l5 36h222z" />
    <glyph glyph-name="Zacute" unicode="&#x179;" horiz-adv-x="627" 
d="M491 869l-2 -8l-126 -109l-19 14l110 122zM631 663l-534 -623h399l26 126h36l-24 -166h-507l4 31q1 8 10 20l528 609h-406l-25 -124h-36l23 164h510z" />
    <glyph glyph-name="zacute" unicode="&#x17a;" horiz-adv-x="548" 
d="M400 701l-2 -8l-124 -108l-19 14l109 121zM519 470l-441 -433h343l30 111h28l-26 -148h-443l4 29q3 14 14 22l434 419h-332l-23 -111h-28l22 147h423z" />
    <glyph glyph-name="Zdotaccent" unicode="&#x17b;" horiz-adv-x="627" 
d="M394 788q-14 0 -22 9t-7 23q5 26 35 26q15 0 23 -9t6 -24q-1 -11 -11 -18t-24 -7zM631 663l-534 -623h399l26 126h36l-24 -166h-507l4 31q1 8 10 20l528 609h-406l-25 -124h-36l23 164h510z" />
    <glyph glyph-name="zdotaccent" unicode="&#x17c;" horiz-adv-x="548" 
d="M333 620q-14 0 -22.5 9t-6.5 23q1 12 11 19t24 7t22 -9t6 -24q-1 -11 -11 -18t-23 -7zM519 470l-441 -433h343l30 111h28l-26 -148h-443l4 29q3 14 14 22l434 419h-332l-23 -111h-28l22 147h423z" />
    <glyph glyph-name="Zcaron" unicode="&#x17d;" horiz-adv-x="627" 
d="M404 758h-29l-95 110l18 13l95 -90l122 90l15 -13zM631 663l-534 -623h399l26 126h36l-24 -166h-507l4 31q1 8 10 20l528 609h-406l-25 -124h-36l23 164h510z" />
    <glyph glyph-name="zcaron" unicode="&#x17e;" horiz-adv-x="548" 
d="M342 590h-29l-95 110l18 13l96 -90l121 90l15 -13zM519 470l-441 -433h343l30 111h28l-26 -148h-443l4 29q3 14 14 22l434 419h-332l-23 -111h-28l22 147h423z" />
    <glyph glyph-name="florin" unicode="&#x192;" horiz-adv-x="459" 
d="M435 426l-5 -37h-150l-84 -288q-16 -56 -38.5 -84t-69.5 -38q-34 -8 -95 -16l-4 28q39 8 77 19q37 10 52 31.5t29 68.5l81 279h-85l4 33q27 1 49 2t30 1.5t13 0.5l41 143q17 57 39.5 84.5t69.5 38.5q19 4 34 6.5t33.5 5.5t35.5 6v-33q-41 -10 -83 -21
q-36 -11 -51.5 -32.5t-29.5 -67.5l-37 -130h144z" />
    <glyph glyph-name="Scommaaccent" unicode="&#x218;" horiz-adv-x="652" 
d="M113 200l-9 -121q77 -45 200 -45h12q98 0 141 30t53 106l6 34q7 59 -12.5 85.5t-78.5 40.5l-208 48q-66 18 -86.5 51t-11.5 99l2 14q12 90 68.5 128t176.5 38h17q123 0 226 -50l-21 -150h-38l9 122q-73 37 -180 37h-16q-93 0 -137 -29.5t-54 -96.5l-2 -14
q-7 -47 8.5 -70.5t62.5 -35.5l217 -50q71 -18 94.5 -54t13.5 -109l-6 -44q-14 -95 -69 -133t-178 -38h-20q-134 0 -239 60l20 147h39zM255 -98l6 26q4 21 28 15q15 -3 21 -8.5t4 -18.5q-4 -27 -23 -55q-19 -26 -51 -52l-11 10q41 41 48 78z" />
    <glyph glyph-name="scommaaccent" unicode="&#x219;" horiz-adv-x="532" 
d="M85 384l2 17q17 117 200 117h16q37 0 92 -10.5t91 -30.5l-14 -99h-38l7 76q-53 29 -149 29q-77 0 -115.5 -21.5t-45.5 -67.5l-1 -9q-7 -46 17 -60.5t117 -33.5q16 -3 25 -5q105 -22 137.5 -46t23.5 -87l-2 -21q-11 -75 -58.5 -108t-135.5 -33h-39q-140 0 -175 66l12 87
h34l-6 -71q24 -46 140 -46h35q69 0 104 25.5t44 84.5l2 17q6 47 -22 63t-132 36q-109 21 -141.5 46t-24.5 85zM195 -98l6 26q4 21 28 15q15 -3 21 -8.5t4 -18.5q-4 -27 -23 -55q-19 -26 -51 -52l-11 10q41 41 48 78z" />
    <glyph glyph-name="uni021A" unicode="&#x21a;" horiz-adv-x="681" 
d="M642 537l11 120h-229l-88 -618q12 0 27 -0.5t33 -1.5t28 -1l-4 -36h-230l4 36q32 2 92 4l88 617h-232l-22 -120h-36l23 163h593l-23 -163h-35zM270 -98l6 26q4 21 28 15q15 -3 21 -8.5t4 -18.5q-4 -27 -23 -55q-19 -26 -51 -52l-11 10q20 20 31 37t13 23t4 18z" />
    <glyph glyph-name="uni021B" unicode="&#x21b;" horiz-adv-x="372" 
d="M190 32h9q57 0 95 4l-4 -32q-55 -13 -113 -13h-10q-56 0 -74.5 30.5t-8.5 104.5l48 342h-69l5 38h56q16 0 19 19l19 134q32 5 45 5l-22 -158h155l-5 -38h-155l-46 -325q-9 -66 2.5 -88.5t53.5 -22.5zM104 -98l6 26q4 21 28 15q15 -3 21 -8.5t4 -18.5q-4 -27 -23 -55
q-19 -26 -51 -52l-11 10q20 20 31 37t13 23t4 18z" />
    <glyph glyph-name="circumflex" unicode="&#x2c6;" 
d="M406 590l-96 90l-121 -90l-15 14l126 109h29l95 -109z" />
    <glyph glyph-name="caron" unicode="&#x2c7;" 
d="M312 590h-29l-95 110l18 13l96 -90l121 90l15 -13z" />
    <glyph glyph-name="breve" unicode="&#x2d8;" 
d="M424 701l-1 -13q-7 -50 -39.5 -76.5t-85.5 -26.5q-55 0 -81 28t-18 78l1 10h31l-1 -10q-10 -75 70 -75q81 0 93 78v7h31z" />
    <glyph glyph-name="dotaccent" unicode="&#x2d9;" 
d="M303 620q-14 0 -22.5 9t-6.5 23q1 12 11 19t24 7t22 -9t6 -24q-1 -11 -11 -18t-23 -7z" />
    <glyph glyph-name="ring" unicode="&#x2da;" 
d="M304 584h-14q-29 0 -43.5 18t-10.5 46l1 15q4 28 23 44t48 16h14q29 0 44.5 -17.5t10.5 -45.5l-2 -15q-4 -29 -23 -45t-48 -16zM293 606h12q43 0 47 42l2 15q3 18 -7 28.5t-29 10.5h-10q-42 0 -48 -41l-2 -16q-3 -18 7 -28.5t28 -10.5z" />
    <glyph glyph-name="ogonek" unicode="&#x2db;" 
d="M227 5h27q-5 -3 -19 -10.5t-20.5 -11t-18 -10.5t-17.5 -12t-13 -12t-10.5 -14.5t-3.5 -14.5l-1 -4q-1 -22 10.5 -32t40.5 -10q40 0 82 24l9 -18q-51 -35 -96 -35h-7q-39 0 -56.5 17.5t-15.5 50.5v4q3 32 32 51.5t77 36.5z" />
    <glyph glyph-name="tilde" unicode="&#x2dc;" 
d="M470 705l-75 -69q-24 -22 -43 -22q-10 0 -24 13.5t-32.5 34t-33.5 30.5l-102 -77l-13 13l74 69q24 22 43 22q11 0 25.5 -13.5t33.5 -34t32 -30.5l102 77z" />
    <glyph glyph-name="hungarumlaut" unicode="&#x2dd;" 
d="M323 704l-1 -8l-120 -109l-17 13l108 120zM427 704l-1 -8l-120 -109l-17 13l109 120z" />
    <glyph glyph-name="commaaccentcomb" unicode="&#x326;" horiz-adv-x="0" 
d="M172 -98l6 26q4 21 28 15q15 -3 21 -8.5t4 -18.5q-4 -27 -23 -55q-19 -26 -51 -52l-11 10q20 20 31 37t13 23t4 18z" />
    <glyph glyph-name="Wgrave" unicode="&#x1e80;" horiz-adv-x="1023" 
d="M621 767l-21 -14l-95 107v9l40 18zM1063 700l-4 -36q-40 -3 -78 -3l-271 -661h-70l-76 617h-2l-247 -617h-74l-84 661q-11 0 -23.5 0.5t-28 1.5t-25.5 1l4 36h226l-4 -36q-51 -3 -96 -3l75 -608h3l262 647h50l81 -646h4l251 607q-18 0 -55 1.5t-42 1.5l4 36h220z" />
    <glyph glyph-name="wgrave" unicode="&#x1e81;" horiz-adv-x="869" 
d="M476 599l-22 -14l-95 108v8l40 19zM803 468l-207 -468h-57l-83 432l-205 -432h-55l-74 469q-32 0 -72 3l4 34h202l-4 -34q-48 -3 -84 -3l63 -419h2l213 456h42l86 -456h2l184 418q-50 2 -80 4l4 34h202l-5 -35z" />
    <glyph glyph-name="Wacute" unicode="&#x1e82;" horiz-adv-x="1023" 
d="M686 869l-2 -8l-126 -109l-19 14l110 122zM1063 700l-4 -36q-40 -3 -78 -3l-271 -661h-70l-76 617h-2l-247 -617h-74l-84 661q-11 0 -23.5 0.5t-28 1.5t-25.5 1l4 36h226l-4 -36q-51 -3 -96 -3l75 -608h3l262 647h50l81 -646h4l251 607q-18 0 -55 1.5t-42 1.5l4 36h220z
" />
    <glyph glyph-name="wacute" unicode="&#x1e83;" horiz-adv-x="869" 
d="M539 701l-2 -8l-124 -108l-19 14l109 121zM803 468l-207 -468h-57l-83 432l-205 -432h-55l-74 469q-32 0 -72 3l4 34h202l-4 -34q-48 -3 -84 -3l63 -419h2l213 456h42l86 -456h2l184 418q-50 2 -80 4l4 34h202l-5 -35z" />
    <glyph glyph-name="Wdieresis" unicode="&#x1e84;" horiz-adv-x="1023" 
d="M504 788q-14 0 -21.5 9t-6.5 23q1 12 11 19t23 7q14 0 22 -9t6 -24q-1 -11 -10.5 -18t-23.5 -7zM677 788q-14 0 -22 9t-7 23q5 26 34 26q14 0 22 -9t6 -24q-1 -11 -10.5 -18t-22.5 -7zM1063 700l-4 -36q-40 -3 -78 -3l-271 -661h-70l-76 617h-2l-247 -617h-74l-84 661
q-11 0 -23.5 0.5t-28 1.5t-25.5 1l4 36h226l-4 -36q-51 -3 -96 -3l75 -608h3l262 647h50l81 -646h4l251 607q-18 0 -55 1.5t-42 1.5l4 36h220z" />
    <glyph glyph-name="wdieresis" unicode="&#x1e85;" horiz-adv-x="869" 
d="M404 622q-14 0 -21.5 8.5t-5.5 21.5q2 24 32 24q13 0 20.5 -8.5t6.5 -22.5q-1 -10 -10.5 -16.5t-21.5 -6.5zM573 622q-14 0 -21.5 8.5t-5.5 21.5q3 24 32 24q14 0 21.5 -8.5t5.5 -22.5q-1 -10 -10.5 -16.5t-21.5 -6.5zM803 468l-207 -468h-57l-83 432l-205 -432h-55
l-74 469q-32 0 -72 3l4 34h202l-4 -34q-48 -3 -84 -3l63 -419h2l213 456h42l86 -456h2l184 418q-50 2 -80 4l4 34h202l-5 -35z" />
    <glyph glyph-name="Ygrave" unicode="&#x1ef2;" horiz-adv-x="705" 
d="M461 767l-21 -14l-95 107v9l40 18zM308 700l-4 -36q-60 -2 -86 -2l141 -363h2l244 362l-86 3l4 36h222l-5 -36q-30 -2 -82 -4l-281 -405l-31 -216q12 0 26 -0.5t31.5 -1.5t28.5 -1l-4 -36h-226l4 36q32 2 90 4l31 213l-164 408q-15 0 -46 1.5t-36 1.5l5 36h222z" />
    <glyph glyph-name="ygrave" unicode="&#x1ef3;" horiz-adv-x="646" 
d="M390 599l-22 -14l-95 108v8l40 19zM664 506l-5 -35q-8 0 -38.5 -1.5t-45.5 -1.5l-326 -571q13 0 36.5 -1.5t30.5 -1.5l-5 -34h-214l5 34q54 3 99 3l54 95l-133 476q-46 2 -73 4l4 34h212l-4 -35l-91 -3l115 -421h4l242 421q-48 2 -77 4l4 34h206z" />
    <glyph glyph-name="uni2009" unicode="&#x2009;" horiz-adv-x="96" 
 />
    <glyph glyph-name="uni200A" unicode="&#x200a;" horiz-adv-x="132" 
 />
    <glyph glyph-name="endash" unicode="&#x2013;" horiz-adv-x="508" 
d="M462 320l-6 -41h-398l6 41h398z" />
    <glyph glyph-name="emdash" unicode="&#x2014;" horiz-adv-x="835" 
d="M790 320l-6 -41h-726l6 41h726z" />
    <glyph glyph-name="quoteleft" unicode="&#x2018;" horiz-adv-x="172" 
d="M151 590l-8 -32q-4 -23 -31 -18q-19 4 -25.5 10t-4.5 21q6 49 86 134l13 -11q-46 -60 -53 -98z" />
    <glyph glyph-name="quoteright" unicode="&#x2019;" horiz-adv-x="172" 
d="M110 653l9 33q4 23 31 18q18 -4 25 -10.5t5 -21.5q-9 -52 -86 -133l-14 11q44 57 54 97z" />
    <glyph glyph-name="quotesinglbase" unicode="&#x201a;" horiz-adv-x="175" 
d="M19 5l9 33q6 24 32 18q18 -3 25 -9.5t5 -22.5q-8 -51 -87 -135l-14 12q48 61 54 98z" />
    <glyph glyph-name="quotedblleft" unicode="&#x201c;" horiz-adv-x="282" 
d="M152 590l-8 -34q-6 -24 -32 -17q-18 3 -25 9.5t-5 21.5q5 48 87 136l12 -12q-42 -54 -53 -98zM261 590l-8 -34q-6 -24 -32 -17q-18 3 -25 9.5t-5 21.5q6 50 87 136l13 -12q-46 -59 -53 -98z" />
    <glyph glyph-name="quotedblright" unicode="&#x201d;" horiz-adv-x="282" 
d="M109 653l9 33q5 23 32 18q18 -4 25 -10.5t5 -21.5q-8 -52 -87 -135l-14 11q47 61 54 98zM218 653l9 33q5 23 32 18q18 -4 25 -10.5t5 -21.5q-6 -50 -87 -135l-13 11q44 56 54 98z" />
    <glyph glyph-name="quotedblbase" unicode="&#x201e;" horiz-adv-x="283" 
d="M19 5l9 33q6 24 32 18q18 -3 25 -9.5t5 -22.5q-8 -51 -87 -135l-14 12q48 61 54 98zM129 5l9 33q6 24 32 18q18 -3 25 -9.5t5 -22.5q-8 -51 -87 -135l-14 12q48 61 54 98z" />
    <glyph glyph-name="dagger" unicode="&#x2020;" horiz-adv-x="377" 
d="M379 530h-36l-108 12v-84l-5 -35l-44 -224h-10l17 224l5 35l24 84l-111 -12h-36l5 37h36l108 -12l3 109l5 36h37l-5 -36l-26 -109l110 12h36z" />
    <glyph glyph-name="daggerdbl" unicode="&#x2021;" horiz-adv-x="377" 
d="M235 542v-84l-6 -44l-24 -85l111 13h37l-5 -37h-36l-108 11l-5 -108l-4 -37h-37l4 37l29 108l-111 -11h-37l5 37h36l108 -13v85l6 44l24 84l-111 -12h-36l5 37h36l108 -12l3 109l5 36h37l-5 -36l-26 -109l110 12h36l-5 -37h-36z" />
    <glyph glyph-name="bullet" unicode="&#x2022;" horiz-adv-x="322" 
d="M162 191q-60 0 -88.5 30t-20.5 87q17 115 140 115q61 0 89 -31t19 -91q-7 -54 -43 -82t-96 -28z" />
    <glyph glyph-name="ellipsis" unicode="&#x2026;" horiz-adv-x="442" 
d="M60 61q36 0 32 -36q-6 -29 -39 -29q-36 0 -31 36q4 29 38 29zM191 61q37 0 32 -36q-6 -29 -39 -29q-36 0 -31 36q4 29 38 29zM326 61q36 0 31 -36q-5 -29 -38 -29q-35 0 -32 36q4 29 39 29z" />
    <glyph glyph-name="perthousand" unicode="&#x2030;" horiz-adv-x="1215" 
d="M250 710h57q75 0 97.5 -39.5t11.5 -125.5l-9 -59q-12 -86 -45 -123.5t-108 -37.5h-57q-75 0 -98 39.5t-11 124.5l8 59q13 86 46 124t108 38zM762 704l-311 -349l-315 -358h-31l321 358l306 349h30zM301 675h-53q-56 0 -79.5 -31.5t-34.5 -102.5l-7 -51q-10 -70 4.5 -100
t70.5 -30h53q56 0 80 31.5t34 101.5l7 51q10 70 -4.5 100.5t-70.5 30.5zM625 376h57q75 0 98 -39.5t11 -125.5l-9 -59q-12 -85 -44.5 -123t-107.5 -38h-57q-76 0 -99 39.5t-10 124.5l8 60q12 85 45 123t108 38zM993 -9h-57q-75 0 -98 39t-11 125l8 60q12 86 45 123.5
t109 37.5h57q75 0 97.5 -39.5t11.5 -125.5l-9 -59q-13 -86 -45.5 -123.5t-107.5 -37.5zM677 341h-53q-56 0 -80.5 -32t-33.5 -101l-8 -52q-10 -70 5 -100t71 -30h53q55 0 79 31.5t34 101.5l8 52q10 70 -4.5 100t-70.5 30zM941 26h53q55 0 79.5 32t34.5 101l7 52
q10 70 -4.5 100t-70.5 30h-53q-56 0 -80 -31.5t-34 -101.5l-7 -52q-10 -70 4.5 -100t70.5 -30z" />
    <glyph glyph-name="guilsinglleft" unicode="&#x2039;" horiz-adv-x="306" 
d="M99 262l129 -175l-2 -18h-27l-152 193v6l206 193h28l-2 -18l-179 -175z" />
    <glyph glyph-name="guilsinglright" unicode="&#x203a;" horiz-adv-x="306" 
d="M72 443l2 18h28l152 -193v-6l-207 -193h-28l2 18l180 175v6z" />
    <glyph glyph-name="fraction" unicode="&#x2044;" horiz-adv-x="208" 
d="M445 704l-626 -707h-30l320 358l306 349h30z" />
    <glyph glyph-name="zeroinferior" unicode="&#x2080;" horiz-adv-x="406" 
d="M168 -148h-37q-69 0 -95.5 34t-16.5 105l20 137q9 71 44 103.5t104 32.5h37q69 0 95 -33.5t16 -105.5l-20 -137q-10 -71 -44.5 -103.5t-102.5 -32.5zM138 -117h28q97 0 112 108l19 137q8 54 -11 79.5t-70 25.5h-28q-97 0 -112 -108l-19 -137q-8 -54 11 -79.5t70 -25.5z
" />
    <glyph glyph-name="oneinferior" unicode="&#x2081;" horiz-adv-x="327" 
d="M198 265l-54 -381q18 0 52.5 -1.5t40.5 -1.5l-3 -27h-242l3 27q57 3 109 3l49 345l-114 -32l3 26l130 42h26z" />
    <glyph glyph-name="twoinferior" unicode="&#x2082;" horiz-adv-x="398" 
d="M283 -146h-288l5 32q10 75 33 110t79 54q24 9 85 28q46 16 66.5 32.5t23.5 41.5l2 17q6 39 -11.5 52t-73.5 13q-74 0 -115 -18l-12 -56h-29l10 78q65 26 146 26q74 0 101.5 -21.5t19.5 -75.5l-2 -21q-5 -33 -30 -55.5t-80 -40.5q-59 -18 -88 -29q-44 -16 -62 -43.5
t-28 -92.5h222l15 80h27z" />
    <glyph glyph-name="threeinferior" unicode="&#x2083;" horiz-adv-x="366" 
d="M302 158l-2 -10q-6 -40 -20 -62t-44 -30q50 -12 39 -89l-2 -13q-8 -60 -39.5 -81t-110.5 -21q-56 0 -143 21l11 82h27l-5 -60q66 -14 112 -14q59 0 83 17t30 62l2 12q6 42 -9 56.5t-54 14.5h-101l4 28h99q38 0 58.5 17.5t27.5 60.5l1 9q7 46 -11.5 61.5t-77.5 15.5
q-52 0 -112 -17l-12 -57h-25l11 79q72 24 139 24q80 0 106 -22.5t18 -83.5z" />
    <glyph glyph-name="fourinferior" unicode="&#x2084;" horiz-adv-x="434" 
d="M259 -39l-11 -78q14 0 42 -1.5t40 -1.5l-4 -26h-214l3 26q54 3 94 3l10 77h-237l4 29l275 275h40l-38 -275h84l-3 -26zM22 -11h202l32 237z" />
    <glyph glyph-name="fiveinferior" unicode="&#x2085;" horiz-adv-x="410" 
d="M348 257l-13 -96h-27l7 65h-206l-32 -166q55 32 132 32h25q57 0 77 -25t11 -89l-3 -13q-8 -59 -45.5 -85.5t-110.5 -27.5h-9q-63 0 -148 22l13 92h26l-7 -69q69 -14 114 -14h10q108 1 120 87l2 12q7 48 -5 65t-54 17h-25q-77 0 -130 -32l-32 8l41 217h269z" />
    <glyph glyph-name="sixinferior" unicode="&#x2086;" horiz-adv-x="420" 
d="M198 91h37q59 0 81.5 -27.5t14.5 -87.5l-1 -8q-9 -62 -44.5 -89t-107.5 -27h-27q-73 0 -106.5 32.5t-24.5 95.5l20 144q20 141 157 141h10q64 0 140 -20l-10 -84h-30l4 60q-43 12 -112 12q-105 0 -122 -113l-10 -67q66 39 131 38zM63 26l-7 -51q-7 -47 18.5 -69.5
t80.5 -22.5h24q54 0 80.5 21t33.5 68l1 8q7 46 -8.5 64.5t-59.5 18.5h-33q-61 0 -130 -37z" />
    <glyph glyph-name="seveninferior" unicode="&#x2087;" horiz-adv-x="339" 
d="M323 226l-245 -372h-42l1 10l248 362h-234l-15 -68h-26l14 99h303z" />
    <glyph glyph-name="eightinferior" unicode="&#x2088;" horiz-adv-x="436" 
d="M357 164l-2 -16q-5 -35 -24.5 -55.5t-58.5 -28.5q88 -13 74 -99l-1 -11q-8 -55 -43.5 -78.5t-111.5 -23.5h-44q-76 0 -106.5 25t-22.5 80l1 11q12 84 102 98q-68 15 -59 85l3 16q7 51 41.5 74t102.5 23h31q68 0 96.5 -24.5t21.5 -75.5zM98 162l-2 -17q-5 -36 15 -51
t70 -15h34q95 0 104 69l3 17q4 36 -17 52.5t-71 16.5h-26q-100 0 -110 -72zM308 -41l1 12q6 42 -15 60t-72 18h-55q-99 0 -111 -81l-1 -12q-6 -40 16.5 -57t79.5 -17h38q57 0 85.5 18.5t33.5 58.5z" />
    <glyph glyph-name="nineinferior" unicode="&#x2089;" horiz-adv-x="410" 
d="M166 15h-37q-60 0 -82.5 28t-13.5 94l2 14q9 61 44.5 87.5t106.5 26.5h28q73 0 105.5 -32t24.5 -96l-20 -145q-21 -140 -158 -140h-9q-66 1 -140 20l11 82h30l-5 -60q45 -13 113 -13q105 0 122 114l9 61q-62 -41 -131 -41zM300 83l8 60q7 46 -18 68.5t-81 22.5h-24
q-54 0 -80.5 -21t-33.5 -68l-1 -8q-7 -52 8 -72t59 -20h35q64 0 128 38z" />
    <glyph glyph-name="Euro" unicode="&#x20ac;" horiz-adv-x="616" 
d="M538 520l11 116q-29 15 -68 22t-59.5 7.5t-69.5 0.5q-87 0 -141 -51.5t-67 -148.5l-9 -58h311l-9 -27h-305l-10 -72h273l-11 -26h-266l-11 -81q-13 -88 25 -128.5t127 -39.5h38q135 0 197 107l36 -2l-5 -32q-74 -116 -229 -116h-45q-224 0 -195 210l12 82h-63l5 26h62
l10 72h-62l3 27h62l9 64q16 117 82 176.5t176 59.5h19q145 0 223 -42l-20 -146h-36z" />
    <glyph glyph-name="uni2116" unicode="&#x2116;" horiz-adv-x="1301" 
d="M1013 703h72q92 0 130.5 -44.5t25.5 -137.5l-25 -177q-13 -92 -63 -135t-142 -43h-73q-93 0 -131 44t-25 137l24 177q13 93 63.5 136t143.5 43zM800 700l-4 -36q-31 -2 -91 -4l-94 -660h-58l-314 624l-84 -585q15 0 44.5 -1.5t34.5 -1.5l-4 -36h-219l4 36q49 3 94 3
l89 621l-94 4l4 36h146l321 -627l83 588q-15 0 -45.5 1.5t-37.5 1.5l5 36h220zM1080 667h-72q-138 0 -159 -146l-25 -177q-10 -73 19 -106.5t99 -33.5h72q139 0 159 143l25 177q10 74 -19 108.5t-99 34.5zM1166 0h-433l5 39h433z" />
    <glyph glyph-name="trademark" unicode="&#x2122;" horiz-adv-x="697" 
d="M332 625h-22l4 51h-87l-32 -222q38 -2 55 -2l-2 -23h-139l3 23q9 1 28 1.5t28 0.5l32 222h-89l-10 -51h-21l10 75h252zM732 700l-2 -23q-14 0 -44 -2l-32 -221q28 -2 43 -2l-3 -23h-109l3 24h38l31 214l-135 -238h-27l-68 238l-30 -215h37l-3 -23h-108l3 23q8 0 22.5 1
t21.5 1l33 221q-30 2 -44 2l2 23h81l70 -229h4l133 229h83z" />
    <glyph glyph-name="oneeighth" unicode="&#x215b;" horiz-adv-x="857" 
d="M280 708l-54 -381q18 0 52.5 -1.5t40.5 -1.5l-3 -27h-242l3 27q57 3 109 3l49 345l-114 -32l3 26l130 42h26zM747 704l-626 -707h-30l320 358l306 349h30zM810 310l-2 -16q-5 -35 -24.5 -55.5t-58.5 -28.5q88 -13 74 -99l-1 -11q-8 -55 -43.5 -78.5t-111.5 -23.5h-44
q-76 0 -106.5 25t-22.5 80l1 11q12 84 102 98q-68 15 -59 85l3 16q7 51 41.5 74t102.5 23h31q68 0 96.5 -24.5t21.5 -75.5zM551 308l-2 -17q-5 -36 15 -51t70 -15h34q95 0 104 69l3 17q4 36 -17 52.5t-71 16.5h-26q-100 0 -110 -72zM761 105l1 12q6 42 -15 60t-72 18h-55
q-99 0 -111 -81l-1 -12q-6 -40 16.5 -57t79.5 -17h38q57 0 85.5 18.5t33.5 58.5z" />
    <glyph glyph-name="threeeighths" unicode="&#x215c;" horiz-adv-x="891" 
d="M390 601l-2 -10q-6 -40 -20 -62t-44 -30q50 -12 39 -89l-2 -13q-8 -60 -39.5 -81t-110.5 -21q-56 0 -143 21l11 82h27l-5 -60q66 -14 112 -14q59 0 83 17t30 62l2 12q6 42 -9 56.5t-54 14.5h-101l4 28h99q38 0 58.5 17.5t27.5 60.5l1 9q7 46 -11.5 61.5t-77.5 15.5
q-52 0 -112 -17l-12 -57h-25l11 79q72 24 139 24q80 0 106 -22.5t18 -83.5zM786 704l-626 -707h-30l320 358l306 349h30zM857 310l-2 -16q-5 -35 -24.5 -55.5t-58.5 -28.5q88 -13 74 -99l-1 -11q-8 -55 -43.5 -78.5t-111.5 -23.5h-44q-76 0 -106.5 25t-22.5 80l1 11
q12 84 102 98q-68 15 -59 85l3 16q7 51 41.5 74t102.5 23h31q68 0 96.5 -24.5t21.5 -75.5zM598 308l-2 -17q-5 -36 15 -51t70 -15h34q95 0 104 69l3 17q4 36 -17 52.5t-71 16.5h-26q-100 0 -110 -72zM808 105l1 12q6 42 -15 60t-72 18h-55q-99 0 -111 -81l-1 -12
q-6 -40 16.5 -57t79.5 -17h38q57 0 85.5 18.5t33.5 58.5z" />
    <glyph glyph-name="fiveeighths" unicode="&#x215d;" horiz-adv-x="909" 
d="M787 704l-626 -707h-30l320 358l306 349h30zM420 700l-13 -96h-27l7 65h-206l-32 -166q55 32 132 32h25q57 0 77 -25t11 -89l-3 -13q-8 -59 -45.5 -85.5t-110.5 -27.5h-9q-63 0 -148 22l13 92h26l-7 -69q69 -14 114 -14h10q108 1 120 87l2 12q7 48 -5 65t-54 17h-25
q-77 0 -130 -32l-32 8l41 217h269zM859 310l-2 -16q-5 -35 -24.5 -55.5t-58.5 -28.5q88 -13 74 -99l-1 -11q-8 -55 -43.5 -78.5t-111.5 -23.5h-44q-76 0 -106.5 25t-22.5 80l1 11q12 84 102 98q-68 15 -59 85l3 16q7 51 41.5 74t102.5 23h31q68 0 96.5 -24.5t21.5 -75.5z
M600 308l-2 -17q-5 -36 15 -51t70 -15h34q95 0 104 69l3 17q4 36 -17 52.5t-71 16.5h-26q-100 0 -110 -72zM810 105l1 12q6 42 -15 60t-72 18h-55q-99 0 -111 -81l-1 -12q-6 -40 16.5 -57t79.5 -17h38q57 0 85.5 18.5t33.5 58.5z" />
    <glyph glyph-name="seveneighths" unicode="&#x215e;" horiz-adv-x="804" 
d="M692 704l-626 -707h-30l320 358l306 349h30zM412 669l-245 -372h-42l1 10l248 362h-234l-15 -68h-26l14 99h303zM773 310l-2 -16q-5 -35 -24.5 -55.5t-58.5 -28.5q88 -13 74 -99l-1 -11q-8 -55 -43.5 -78.5t-111.5 -23.5h-44q-76 0 -106.5 25t-22.5 80l1 11q12 84 102 98
q-68 15 -59 85l3 16q7 51 41.5 74t102.5 23h31q68 0 96.5 -24.5t21.5 -75.5zM514 308l-2 -17q-5 -36 15 -51t70 -15h34q95 0 104 69l3 17q4 36 -17 52.5t-71 16.5h-26q-100 0 -110 -72zM724 105l1 12q6 42 -15 60t-72 18h-55q-99 0 -111 -81l-1 -12q-6 -40 16.5 -57
t79.5 -17h38q57 0 85.5 18.5t33.5 58.5z" />
    <glyph glyph-name="arrowleft" unicode="&#x2190;" horiz-adv-x="786" 
d="M759 327h-636l294 -290l-32 -31l-332 331v25l332 331l32 -31l-293 -290h635v-45z" />
    <glyph glyph-name="arrowup" unicode="&#x2191;" horiz-adv-x="794" 
d="M744 342l-290 293v-635h-45v635l-290 -293l-31 31l331 332h25l332 -332z" />
    <glyph glyph-name="arrowright" unicode="&#x2192;" horiz-adv-x="786" 
d="M662 372l-292 290l31 31l332 -331v-25l-332 -331l-31 31l293 290h-636v45h635z" />
    <glyph glyph-name="arrowdown" unicode="&#x2193;" horiz-adv-x="794" 
d="M410 -5h-25l-332 332l31 31l290 -293v635h46v-635l290 293l31 -31z" />
    <glyph glyph-name="arrowupleft" unicode="&#x2196;" horiz-adv-x="614" 
d="M575 25l-32 -33l-452 454v-413h-43v470l17 17h469v-43h-412z" />
    <glyph glyph-name="arrowupright" unicode="&#x2197;" horiz-adv-x="614" 
d="M80 474v43h469l17 -17v-469h-42v412l-453 -453l-32 32l453 452h-412z" />
    <glyph glyph-name="arrowdownright" unicode="&#x2198;" horiz-adv-x="614" 
d="M39 495l32 32l452 -454v413h43v-469l-17 -18h-469v43h412z" />
    <glyph glyph-name="arrowdownleft" unicode="&#x2199;" horiz-adv-x="614" 
d="M534 42v-43h-469l-17 18v469h42v-413l453 454l32 -32l-453 -453h412z" />
    <glyph glyph-name="minus" unicode="&#x2212;" horiz-adv-x="595" 
d="M80 372h469l-6 -41h-469z" />
    <glyph glyph-name="J.ss01" horiz-adv-x="558" 
d="M588 700l-4 -36q-47 -3 -87 -3l-64 -446q-16 -117 -74.5 -170.5t-160.5 -53.5h-18q-160 0 -182 115l5 32h42q4 -59 35 -81.5t108 -22.5h9q82 0 127.5 44.5t58.5 136.5l64 446q-53 0 -111 3l4 36h248z" />
    <glyph glyph-name="K.ss02" horiz-adv-x="745" 
d="M395 409l197 -370q14 0 30.5 -0.5t36.5 -1.5t32 -1l-4 -36h-224l4 35q3 0 30.5 1.5t41.5 1.5l-182 341l-176 -159l-26 -181q12 0 26 -0.5t31.5 -1.5t28.5 -1l-4 -36h-226l4 36q32 2 90 4l88 621q-17 0 -49.5 1.5t-39.5 1.5l4 36h227l-4 -36q-45 -3 -87 -3l-56 -389
l435 389l-80 3l5 36h227l-5 -36l-91 -3z" />
    <glyph glyph-name="Kcommaaccent.ss02" horiz-adv-x="745" 
d="M395 409l197 -370q14 0 30.5 -0.5t36.5 -1.5t32 -1l-4 -36h-224l4 35q3 0 30.5 1.5t41.5 1.5l-182 341l-176 -159l-26 -181q12 0 26 -0.5t31.5 -1.5t28.5 -1l-4 -36h-226l4 36q32 2 90 4l88 621q-17 0 -49.5 1.5t-39.5 1.5l4 36h227l-4 -36q-45 -3 -87 -3l-56 -389
l435 389l-80 3l5 36h227l-5 -36l-91 -3zM309 -98l6 26q4 21 28 15q15 -3 21 -8.5t4 -18.5q-4 -27 -23 -55q-19 -26 -51 -52l-11 10q41 41 48 78z" />
    <glyph glyph-name="Q.ss03" horiz-adv-x="720" 
d="M363 708h117q99 0 154 -67.5t40 -166.5l-40 -253q-13 -83 -53.5 -140.5t-105.5 -76.5q22 -38 87 -115l-25 -23q-69 65 -117 128q-21 -3 -44 -3h-108q-100 0 -155 67.5t-40 165.5l40 253q15 100 83 165.5t167 65.5zM473 665h-108q-79 0 -134.5 -55.5t-67.5 -136.5
l-40 -251q-12 -79 30.5 -133t120.5 -54h108q84 0 136 52t66 138l39 251q13 79 -29 133.5t-121 55.5z" />
    <glyph glyph-name="R.ss04" horiz-adv-x="679" 
d="M108 700h362q98 0 144 -49.5t33 -139.5l-7 -53q-11 -79 -67 -125t-154 -48q26 -90 105 -247q28 1 103 -2l-4 -35h-135q-79 159 -117 285h-88l5 38h120q81 0 127.5 37.5t55.5 102.5l7 46q11 70 -24.5 109t-111.5 39h-215l-88 -619l87 -3l-4 -36h-231l4 36q30 2 94 4
l89 621q-25 0 -94 3z" />
    <glyph glyph-name="Racute.ss04" horiz-adv-x="679" 
d="M523 869l-2 -8l-126 -109l-19 14l110 122zM108 700h362q98 0 144 -49.5t33 -139.5l-7 -53q-11 -79 -67 -125t-154 -48q26 -90 105 -247q28 1 103 -2l-4 -35h-135q-79 159 -117 285h-88l5 38h120q81 0 127.5 37.5t55.5 102.5l7 46q11 70 -24.5 109t-111.5 39h-215
l-88 -619l87 -3l-4 -36h-231l4 36q30 2 94 4l89 621q-25 0 -94 3z" />
    <glyph glyph-name="Rcaron.ss04" horiz-adv-x="679" 
d="M437 758h-29l-95 110l18 13l95 -90l122 90l15 -13zM108 700h362q98 0 144 -49.5t33 -139.5l-7 -53q-11 -79 -67 -125t-154 -48q26 -90 105 -247q28 1 103 -2l-4 -35h-135q-79 159 -117 285h-88l5 38h120q81 0 127.5 37.5t55.5 102.5l7 46q11 70 -24.5 109t-111.5 39h-215
l-88 -619l87 -3l-4 -36h-231l4 36q30 2 94 4l89 621q-25 0 -94 3z" />
    <glyph glyph-name="Rcommaaccent.ss04" horiz-adv-x="679" 
d="M108 700h362q98 0 144 -49.5t33 -139.5l-7 -53q-11 -79 -67 -125t-154 -48q26 -90 105 -247q28 1 103 -2l-4 -35h-135q-79 159 -117 285h-88l5 38h120q81 0 127.5 37.5t55.5 102.5l7 46q11 70 -24.5 109t-111.5 39h-215l-88 -619l87 -3l-4 -36h-231l4 36q30 2 94 4
l89 621q-25 0 -94 3zM280 -98l6 26q4 21 28 15q15 -3 21 -8.5t4 -18.5q-4 -27 -23 -55q-19 -26 -51 -52l-11 10q20 20 31 37t13 23t4 18z" />
    <glyph glyph-name="a.ss05" horiz-adv-x="594" 
d="M88 383l14 102q42 15 102 24t101 9h30q87 0 117.5 -43.5t18.5 -132.5l-37 -253q-6 -59 52 -59h48l-4 -33q-29 -5 -62 -5q-89 0 -80 91q-69 -49 -116.5 -70t-110.5 -21h-19q-80 0 -105.5 26t-14.5 103l4 32q6 41 18.5 66.5t35 39t44 19t58.5 9.5q58 5 235 19l5 34
q12 85 -14 113.5t-102 28.5q-93 0 -167 -26l-15 -73h-36zM162 29h18q52 0 97.5 20.5t112.5 67.5l24 161q-138 -11 -220 -21q-63 -8 -87 -28t-31 -77l-5 -27q-8 -58 10.5 -77t80.5 -19z" />
    <glyph glyph-name="aacute.ss05" horiz-adv-x="594" 
d="M426 701l-2 -8l-124 -108l-19 14l109 121zM88 383l14 102q42 15 102 24t101 9h30q87 0 117.5 -43.5t18.5 -132.5l-37 -253q-6 -59 52 -59h48l-4 -33q-29 -5 -62 -5q-89 0 -80 91q-69 -49 -116.5 -70t-110.5 -21h-19q-80 0 -105.5 26t-14.5 103l4 32q6 41 18.5 66.5t35 39
t44 19t58.5 9.5q58 5 235 19l5 34q12 85 -14 113.5t-102 28.5q-93 0 -167 -26l-15 -73h-36zM162 29h18q52 0 97.5 20.5t112.5 67.5l24 161q-138 -11 -220 -21q-63 -8 -87 -28t-31 -77l-5 -27q-8 -58 10.5 -77t80.5 -19z" />
    <glyph glyph-name="abreve.ss05" horiz-adv-x="594" 
d="M439 701l-1 -13q-7 -50 -39.5 -76.5t-85.5 -26.5q-55 0 -81 28t-18 78l1 10h31l-1 -10q-10 -75 70 -75q81 0 93 78v7h31zM88 383l14 102q42 15 102 24t101 9h30q87 0 117.5 -43.5t18.5 -132.5l-37 -253q-6 -59 52 -59h48l-4 -33q-29 -5 -62 -5q-89 0 -80 91
q-69 -49 -116.5 -70t-110.5 -21h-19q-80 0 -105.5 26t-14.5 103l4 32q6 41 18.5 66.5t35 39t44 19t58.5 9.5q58 5 235 19l5 34q12 85 -14 113.5t-102 28.5q-93 0 -167 -26l-15 -73h-36zM162 29h18q52 0 97.5 20.5t112.5 67.5l24 161q-138 -11 -220 -21q-63 -8 -87 -28
t-31 -77l-5 -27q-8 -58 10.5 -77t80.5 -19z" />
    <glyph glyph-name="acircumflex.ss05" horiz-adv-x="594" 
d="M421 590l-96 90l-121 -90l-15 14l126 109h29l95 -109zM88 383l14 102q42 15 102 24t101 9h30q87 0 117.5 -43.5t18.5 -132.5l-37 -253q-6 -59 52 -59h48l-4 -33q-29 -5 -62 -5q-89 0 -80 91q-69 -49 -116.5 -70t-110.5 -21h-19q-80 0 -105.5 26t-14.5 103l4 32
q6 41 18.5 66.5t35 39t44 19t58.5 9.5q58 5 235 19l5 34q12 85 -14 113.5t-102 28.5q-93 0 -167 -26l-15 -73h-36zM162 29h18q52 0 97.5 20.5t112.5 67.5l24 161q-138 -11 -220 -21q-63 -8 -87 -28t-31 -77l-5 -27q-8 -58 10.5 -77t80.5 -19z" />
    <glyph glyph-name="adieresis.ss05" horiz-adv-x="594" 
d="M234 622q-14 0 -21.5 8.5t-5.5 21.5q2 24 32 24q13 0 20.5 -8.5t6.5 -22.5q-1 -10 -10.5 -16.5t-21.5 -6.5zM403 622q-14 0 -21.5 8.5t-5.5 21.5q3 24 32 24q14 0 21.5 -8.5t5.5 -22.5q-1 -10 -10.5 -16.5t-21.5 -6.5zM88 383l14 102q42 15 102 24t101 9h30
q87 0 117.5 -43.5t18.5 -132.5l-37 -253q-6 -59 52 -59h48l-4 -33q-29 -5 -62 -5q-89 0 -80 91q-69 -49 -116.5 -70t-110.5 -21h-19q-80 0 -105.5 26t-14.5 103l4 32q6 41 18.5 66.5t35 39t44 19t58.5 9.5q58 5 235 19l5 34q12 85 -14 113.5t-102 28.5q-93 0 -167 -26
l-15 -73h-36zM162 29h18q52 0 97.5 20.5t112.5 67.5l24 161q-138 -11 -220 -21q-63 -8 -87 -28t-31 -77l-5 -27q-8 -58 10.5 -77t80.5 -19z" />
    <glyph glyph-name="agrave.ss05" horiz-adv-x="594" 
d="M381 599l-22 -14l-95 108v8l40 19zM88 383l14 102q42 15 102 24t101 9h30q87 0 117.5 -43.5t18.5 -132.5l-37 -253q-6 -59 52 -59h48l-4 -33q-29 -5 -62 -5q-89 0 -80 91q-69 -49 -116.5 -70t-110.5 -21h-19q-80 0 -105.5 26t-14.5 103l4 32q6 41 18.5 66.5t35 39t44 19
t58.5 9.5q58 5 235 19l5 34q12 85 -14 113.5t-102 28.5q-93 0 -167 -26l-15 -73h-36zM162 29h18q52 0 97.5 20.5t112.5 67.5l24 161q-138 -11 -220 -21q-63 -8 -87 -28t-31 -77l-5 -27q-8 -58 10.5 -77t80.5 -19z" />
    <glyph glyph-name="amacron.ss05" horiz-adv-x="594" 
d="M434 642l-4 -33h-231l4 33h231zM88 383l14 102q42 15 102 24t101 9h30q87 0 117.5 -43.5t18.5 -132.5l-37 -253q-6 -59 52 -59h48l-4 -33q-29 -5 -62 -5q-89 0 -80 91q-69 -49 -116.5 -70t-110.5 -21h-19q-80 0 -105.5 26t-14.5 103l4 32q6 41 18.5 66.5t35 39t44 19
t58.5 9.5q58 5 235 19l5 34q12 85 -14 113.5t-102 28.5q-93 0 -167 -26l-15 -73h-36zM162 29h18q52 0 97.5 20.5t112.5 67.5l24 161q-138 -11 -220 -21q-63 -8 -87 -28t-31 -77l-5 -27q-8 -58 10.5 -77t80.5 -19z" />
    <glyph glyph-name="aogonek.ss05" horiz-adv-x="594" 
d="M340 -80l-1 -4q-1 -22 10.5 -32t40.5 -10q40 0 82 24l9 -18q-51 -35 -96 -35h-7q-39 0 -56.5 17.5t-15.5 50.5v4q4 51 107 88q-31 23 -25 78q-69 -49 -116.5 -70t-110.5 -21h-19q-80 0 -105.5 26t-14.5 103l4 32q6 41 18.5 66.5t35 39t44 19t58.5 9.5q58 5 235 19l5 34
q12 85 -14 113.5t-102 28.5q-93 0 -167 -26l-15 -73h-36l14 102q42 15 102 24t101 9h30q87 0 117.5 -43.5t18.5 -132.5l-37 -253q-6 -59 52 -59h48l-4 -33q-29 -5 -62 -5q-22 0 -39 6q-28 -15 -43 -23.5t-30 -24t-16 -30.5zM390 117l24 161q-138 -11 -220 -21
q-63 -8 -87 -28t-31 -77l-5 -27q-8 -58 10.5 -77t80.5 -19h18q52 0 97.5 20.5t112.5 67.5z" />
    <glyph glyph-name="aring.ss05" horiz-adv-x="594" 
d="M319 585h-14q-29 0 -43.5 18t-10.5 46l1 15q4 28 23 44t48 16h14q29 0 44.5 -17.5t10.5 -45.5l-2 -15q-4 -29 -23 -45t-48 -16zM308 607h12q43 0 47 42l2 15q3 18 -7 28.5t-29 10.5h-10q-42 0 -48 -41l-2 -16q-3 -18 7 -28.5t28 -10.5zM88 383l14 102q42 15 102 24t101 9
h30q87 0 117.5 -43.5t18.5 -132.5l-37 -253q-6 -59 52 -59h48l-4 -33q-29 -5 -62 -5q-89 0 -80 91q-69 -49 -116.5 -70t-110.5 -21h-19q-80 0 -105.5 26t-14.5 103l4 32q6 41 18.5 66.5t35 39t44 19t58.5 9.5q58 5 235 19l5 34q12 85 -14 113.5t-102 28.5q-93 0 -167 -26
l-15 -73h-36zM162 29h18q52 0 97.5 20.5t112.5 67.5l24 161q-138 -11 -220 -21q-63 -8 -87 -28t-31 -77l-5 -27q-8 -58 10.5 -77t80.5 -19z" />
    <glyph glyph-name="atilde.ss05" horiz-adv-x="594" 
d="M516 705l-75 -69q-24 -22 -43 -22q-10 0 -24 13.5t-32.5 34t-33.5 30.5l-102 -77l-13 13l74 69q24 22 43 22q11 0 25.5 -13.5t33.5 -34t32 -30.5l102 77zM88 383l14 102q42 15 102 24t101 9h30q87 0 117.5 -43.5t18.5 -132.5l-37 -253q-6 -59 52 -59h48l-4 -33
q-29 -5 -62 -5q-89 0 -80 91q-69 -49 -116.5 -70t-110.5 -21h-19q-80 0 -105.5 26t-14.5 103l4 32q6 41 18.5 66.5t35 39t44 19t58.5 9.5q58 5 235 19l5 34q12 85 -14 113.5t-102 28.5q-93 0 -167 -26l-15 -73h-36zM162 29h18q52 0 97.5 20.5t112.5 67.5l24 161
q-138 -11 -220 -21q-63 -8 -87 -28t-31 -77l-5 -27q-8 -58 10.5 -77t80.5 -19z" />
    <glyph glyph-name="g.ss06" horiz-adv-x="626" 
d="M617 506l-3 -31q-89 -7 -100 -8q26 -29 18 -88l-4 -30q-11 -76 -59 -105.5t-141 -29.5h-38q-87 0 -125 27q-27 -17 -35.5 -23t-17 -16.5t-10.5 -24.5l-2 -16q-4 -27 15.5 -35t81.5 -8h207q76 0 100.5 -24.5t14.5 -91.5l-3 -28q-11 -72 -68.5 -102t-163.5 -30h-117
q-72 0 -108.5 12t-46.5 35t-4 65l3 20q7 59 91 116q-27 7 -37 21.5t-6 42.5l3 18q4 27 21.5 43.5t60.5 40.5q-33 30 -24 100l4 27q11 77 60.5 106t152.5 29h28q62 0 101 -12h151zM483 358l4 23q9 60 -22 82t-102 22h-28q-77 0 -116.5 -23.5t-48.5 -83.5l-3 -23
q-9 -61 23.5 -82.5t111.5 -21.5h25q72 0 110 23.5t46 83.5zM394 80h-199q-28 0 -62 2q-71 -47 -79 -102l-2 -18q-8 -50 14 -67t101 -17h124q84 0 129 22.5t53 76.5l2 18q7 52 -9 68.5t-72 16.5z" />
    <glyph glyph-name="gbreve.ss06" horiz-adv-x="626" 
d="M486 701l-1 -13q-7 -50 -39.5 -76.5t-85.5 -26.5q-55 0 -81 28t-18 78l1 10h31l-1 -10q-10 -75 70 -75q81 0 93 78v7h31zM617 506l-3 -31q-89 -7 -100 -8q26 -29 18 -88l-4 -30q-11 -76 -59 -105.5t-141 -29.5h-38q-87 0 -125 27q-27 -17 -35.5 -23t-17 -16.5
t-10.5 -24.5l-2 -16q-4 -27 15.5 -35t81.5 -8h207q76 0 100.5 -24.5t14.5 -91.5l-3 -28q-11 -72 -68.5 -102t-163.5 -30h-117q-72 0 -108.5 12t-46.5 35t-4 65l3 20q7 59 91 116q-27 7 -37 21.5t-6 42.5l3 18q4 27 21.5 43.5t60.5 40.5q-33 30 -24 100l4 27q11 77 60.5 106
t152.5 29h28q62 0 101 -12h151zM483 358l4 23q9 60 -22 82t-102 22h-28q-77 0 -116.5 -23.5t-48.5 -83.5l-3 -23q-9 -61 23.5 -82.5t111.5 -21.5h25q72 0 110 23.5t46 83.5zM394 80h-199q-28 0 -62 2q-71 -47 -79 -102l-2 -18q-8 -50 14 -67t101 -17h124q84 0 129 22.5
t53 76.5l2 18q7 52 -9 68.5t-72 16.5z" />
    <glyph glyph-name="gcommaaccent.ss06" horiz-adv-x="626" 
d="M401 655l-6 -26q-4 -21 -28 -15q-15 3 -21 8.5t-4 18.5q3 26 23 54q19 27 50 51l11 -9q-39 -40 -47 -77zM617 506l-3 -31q-89 -7 -100 -8q26 -29 18 -88l-4 -30q-11 -76 -59 -105.5t-141 -29.5h-38q-87 0 -125 27q-27 -17 -35.5 -23t-17 -16.5t-10.5 -24.5l-2 -16
q-4 -27 15.5 -35t81.5 -8h207q76 0 100.5 -24.5t14.5 -91.5l-3 -28q-11 -72 -68.5 -102t-163.5 -30h-117q-72 0 -108.5 12t-46.5 35t-4 65l3 20q7 59 91 116q-27 7 -37 21.5t-6 42.5l3 18q4 27 21.5 43.5t60.5 40.5q-33 30 -24 100l4 27q11 77 60.5 106t152.5 29h28
q62 0 101 -12h151zM483 358l4 23q9 60 -22 82t-102 22h-28q-77 0 -116.5 -23.5t-48.5 -83.5l-3 -23q-9 -61 23.5 -82.5t111.5 -21.5h25q72 0 110 23.5t46 83.5zM394 80h-199q-28 0 -62 2q-71 -47 -79 -102l-2 -18q-8 -50 14 -67t101 -17h124q84 0 129 22.5t53 76.5l2 18
q7 52 -9 68.5t-72 16.5z" />
    <glyph glyph-name="gdotaccent.ss06" horiz-adv-x="626" 
d="M365 620q-14 0 -22.5 9t-6.5 23q1 12 11 19t24 7t22 -9t6 -24q-1 -11 -11 -18t-23 -7zM617 506l-3 -31q-89 -7 -100 -8q26 -29 18 -88l-4 -30q-11 -76 -59 -105.5t-141 -29.5h-38q-87 0 -125 27q-27 -17 -35.5 -23t-17 -16.5t-10.5 -24.5l-2 -16q-4 -27 15.5 -35t81.5 -8
h207q76 0 100.5 -24.5t14.5 -91.5l-3 -28q-11 -72 -68.5 -102t-163.5 -30h-117q-72 0 -108.5 12t-46.5 35t-4 65l3 20q7 59 91 116q-27 7 -37 21.5t-6 42.5l3 18q4 27 21.5 43.5t60.5 40.5q-33 30 -24 100l4 27q11 77 60.5 106t152.5 29h28q62 0 101 -12h151zM483 358l4 23
q9 60 -22 82t-102 22h-28q-77 0 -116.5 -23.5t-48.5 -83.5l-3 -23q-9 -61 23.5 -82.5t111.5 -21.5h25q72 0 110 23.5t46 83.5zM394 80h-199q-28 0 -62 2q-71 -47 -79 -102l-2 -18q-8 -50 14 -67t101 -17h124q84 0 129 22.5t53 76.5l2 18q7 52 -9 68.5t-72 16.5z" />
    <glyph glyph-name="k.ss07" horiz-adv-x="628" 
d="M617 471l-76 -3l-223 -163l129 -205q22 -35 42 -52t48 -17h37l-4 -34q-19 -4 -47 -4q-36 0 -62.5 21.5t-61.5 78.5l-120 188l-112 -81l-23 -162q47 -2 80 -4l-4 -34h-209l4 35l81 3l89 623q-12 1 -37 2.5t-37 2.5l4 34h123l-65 -460l316 228q-48 2 -72 4l4 34h200z" />
    <glyph glyph-name="kcommaaccent.ss07" horiz-adv-x="628" 
d="M541 468l-223 -163l129 -205q22 -35 42 -52t48 -17h37l-4 -34q-19 -4 -47 -4q-36 0 -62.5 21.5t-61.5 78.5l-120 188l-112 -81l-23 -162q47 -2 80 -4l-4 -34h-209l4 35l81 3l89 623q-12 1 -37 2.5t-37 2.5l4 34h123l-65 -460l316 228q-48 2 -72 4l4 34h200l-4 -35z
M241 -98l6 26q4 21 28 15q15 -3 21 -8.5t4 -18.5q-4 -27 -23 -55q-19 -26 -51 -52l-11 10q41 41 48 78z" />
    <glyph glyph-name="y.ss08" horiz-adv-x="616" 
d="M588 506l-68 -492q-24 -169 -201 -169h-45q-59 0 -103.5 21t-62.5 62l4 28h37l2 -10q25 -64 129 -64h41q132 0 152 138l9 69q-68 -39 -114 -53t-113 -14h-19q-133 0 -111 161l40 285q-33 0 -88 4l4 34h137l-43 -307q-10 -69 9 -103t73 -34h20q58 0 100 13.5t110 55.5
l49 337q-33 0 -89 4l4 34h137z" />
    <glyph glyph-name="yacute.ss08" horiz-adv-x="616" 
d="M455 701l-2 -8l-124 -108l-19 14l109 121zM588 506l-68 -492q-24 -169 -201 -169h-45q-59 0 -103.5 21t-62.5 62l4 28h37l2 -10q25 -64 129 -64h41q132 0 152 138l9 69q-68 -39 -114 -53t-113 -14h-19q-133 0 -111 161l40 285q-33 0 -88 4l4 34h137l-43 -307
q-10 -69 9 -103t73 -34h20q58 0 100 13.5t110 55.5l49 337q-33 0 -89 4l4 34h137z" />
    <glyph glyph-name="ycircumflex.ss08" horiz-adv-x="616" 
d="M495 590l-96 90l-121 -90l-15 14l126 109h29l95 -109zM588 506l-68 -492q-24 -169 -201 -169h-45q-59 0 -103.5 21t-62.5 62l4 28h37l2 -10q25 -64 129 -64h41q132 0 152 138l9 69q-68 -39 -114 -53t-113 -14h-19q-133 0 -111 161l40 285q-33 0 -88 4l4 34h137l-43 -307
q-10 -69 9 -103t73 -34h20q58 0 100 13.5t110 55.5l49 337q-33 0 -89 4l4 34h137z" />
    <glyph glyph-name="ydieresis.ss08" horiz-adv-x="616" 
d="M308 622q-14 0 -21.5 8.5t-5.5 21.5q2 24 32 24q13 0 20.5 -8.5t6.5 -22.5q-1 -10 -10.5 -16.5t-21.5 -6.5zM477 622q-14 0 -21.5 8.5t-5.5 21.5q3 24 32 24q14 0 21.5 -8.5t5.5 -22.5q-1 -10 -10.5 -16.5t-21.5 -6.5zM588 506l-68 -492q-24 -169 -201 -169h-45
q-59 0 -103.5 21t-62.5 62l4 28h37l2 -10q25 -64 129 -64h41q132 0 152 138l9 69q-68 -39 -114 -53t-113 -14h-19q-133 0 -111 161l40 285q-33 0 -88 4l4 34h137l-43 -307q-10 -69 9 -103t73 -34h20q58 0 100 13.5t110 55.5l49 337q-33 0 -89 4l4 34h137z" />
    <glyph glyph-name="ygrave.ss08" horiz-adv-x="616" 
d="M399 599l-22 -14l-95 108v8l40 19zM588 506l-68 -492q-24 -169 -201 -169h-45q-59 0 -103.5 21t-62.5 62l4 28h37l2 -10q25 -64 129 -64h41q132 0 152 138l9 69q-68 -39 -114 -53t-113 -14h-19q-133 0 -111 161l40 285q-33 0 -88 4l4 34h137l-43 -307q-10 -69 9 -103
t73 -34h20q58 0 100 13.5t110 55.5l49 337q-33 0 -89 4l4 34h137z" />
    <glyph glyph-name="f.ss14" horiz-adv-x="342" 
d="M64 502l82 3l10 68q8 53 30 82.5t70 40.5q10 2 100 18l2 -33q-30 -6 -87 -22q-34 -9 -48 -31.5t-21 -67.5l-8 -54h158l-5 -36h-157l-67 -470h-48l67 470h-82z" />
    <glyph glyph-name="i.dot" horiz-adv-x="283" 
d="M202 620q-14 0 -22.5 9t-6.5 23q1 12 11 19t24 7t22 -9t6 -24q-1 -11 -11 -18t-23 -7zM190 506l-58 -417q-8 -59 51 -59h48l-4 -36q-46 -2 -63 -2q-94 0 -80 101l54 374q-12 1 -36.5 2.5t-37.5 2.5l4 34h122z" />
    <glyph glyph-name="f_f_f" horiz-adv-x="983" 
d="M842 506h158l-5 -36h-157l-73 -500q-24 -105 -106 -105q-40 0 -63 2l6 36h41q62 0 74 67l73 500h-263l-73 -500q-24 -105 -106 -105q-40 0 -63 2l6 36h41q62 0 74 67l73 500h-263l-73 -500q-24 -105 -106 -105q-40 0 -63 2l6 36h41q62 0 74 67l73 500h-82l4 32l82 3
l10 68q8 53 30 82.5t70 40.5q10 2 100 18l2 -33q-30 -6 -87 -22q-34 -9 -48 -31.5t-21 -67.5l-8 -54h263l10 67q8 53 30 82.5t70 40.5q10 2 100 18l2 -33q-30 -6 -87 -22q-34 -9 -48 -31.5t-21 -67.5l-8 -54h263l10 67q8 53 30 82.5t70 40.5q10 2 100 18l2 -33
q-30 -6 -87 -22q-34 -9 -48 -31.5t-21 -67.5z" />
    <glyph glyph-name="f_f_j" horiz-adv-x="887" 
d="M835 506l-2 -20l-1 -7l-1 -9l-57 -401q-9 -61 -29 -94.5t-79 -84.5q-18 -13 -51 -35l-19 26q22 18 33 29q48 43 69 76.5t29 85.5l56 398h-256l-73 -500q-24 -105 -106 -105q-40 0 -63 2l6 36h41q62 0 74 67l73 500h-263l-73 -500q-24 -105 -106 -105q-40 0 -63 2l6 36h41
q62 0 74 67l73 500h-82l4 32l82 3l10 68q8 53 30 82.5t70 40.5q10 2 100 18l2 -33q-30 -6 -87 -22q-34 -9 -48 -31.5t-21 -67.5l-8 -54h263l10 67q8 53 30 82.5t70 40.5q10 2 100 18l2 -33q-30 -6 -87 -22q-34 -9 -48 -31.5t-21 -67.5l-8 -54h304zM832 679q15 0 23 -9.5
t6 -24.5q-1 -12 -11.5 -19t-24.5 -7q-15 0 -23 9t-6 24q3 27 36 27z" />
    <glyph glyph-name="f_f_t" horiz-adv-x="982" 
d="M790 468l-46 -325q-9 -66 2.5 -88.5t53.5 -22.5h9q57 0 95 4l-4 -32q-55 -13 -113 -13h-10q-56 0 -74.5 30.5t-8.5 104.5l48 342h-208v2h-7l-73 -500q-24 -105 -106 -105q-40 0 -63 2l6 36h41q62 0 74 67l73 500h-263l-73 -500q-24 -105 -106 -105q-40 0 -63 2l6 36h41
q62 0 74 67l73 500h-82l4 32l82 3l10 68q8 53 30 82.5t70 40.5q10 2 100 18l2 -33q-30 -6 -87 -22q-34 -9 -48 -31.5t-21 -67.5l-8 -54h263l10 67q8 53 30 82.5t70 40.5q10 2 100 18l2 -33q-30 -6 -87 -22q-34 -9 -48 -31.5t-21 -67.5l-8 -54h203q16 0 19 19l19 134
q32 5 45 5l-22 -158h155l-5 -38h-155z" />
    <glyph glyph-name="f_i" horiz-adv-x="613" 
d="M562 30l-4 -36q-46 -2 -63 -2q-95 0 -80 101l54 377h-253l-73 -500q-24 -105 -106 -105q-40 0 -63 2l6 36h41q62 0 74 67l73 500h-82l4 32l82 3l10 68q8 53 30 82.5t70 40.5q10 2 100 18l2 -33q-30 -6 -87 -22q-34 -9 -48 -31.5t-21 -67.5l-8 -54h301l-59 -417
q-6 -59 52 -59h48zM511 619q-15 0 -23 9t-6 24q3 27 36 27q15 0 23 -9.5t6 -24.5q-1 -12 -11.5 -19t-24.5 -7z" />
    <glyph glyph-name="f_j" horiz-adv-x="576" 
d="M525 506l-5 -36l-56 -401q-9 -62 -29.5 -95.5t-79.5 -82.5q-14 -12 -50 -36l-20 26q4 3 16.5 13t19.5 16q47 42 67 75.5t28 86.5l56 398h-256l-73 -500q-24 -105 -106 -105q-40 0 -63 2l6 36h41q62 0 74 67l73 500h-82l4 32l82 3l10 68q8 53 30 82.5t70 40.5q10 2 100 18
l2 -33q-30 -6 -87 -22q-34 -9 -48 -31.5t-21 -67.5l-8 -54h305zM521 679q15 0 23 -9.5t6 -24.5q-1 -12 -11.5 -19t-24.5 -7q-15 0 -23 9t-6 24q3 27 36 27z" />
    <glyph glyph-name="f_l" horiz-adv-x="645" 
d="M172 505l10 68q8 53 30 82.5t70 40.5q10 2 100 18l2 -33q-30 -6 -87 -22q-34 -9 -48 -31.5t-21 -67.5l-8 -54h158l-5 -36h-157l-73 -500q-24 -105 -106 -105q-40 0 -63 2l6 36h41q62 0 74 67l73 500h-82l4 32zM567 700l-86 -611q-8 -59 51 -59h49l-4 -33q-30 -5 -64 -5
q-94 0 -80 101l81 568q-12 1 -37 2.5t-37 2.5l4 34h123z" />
    <glyph glyph-name="f_t" horiz-adv-x="671" 
d="M479 468l-46 -325q-9 -66 2.5 -88.5t53.5 -22.5h9q57 0 95 4l-4 -32q-55 -13 -113 -13h-10q-56 0 -74.5 30.5t-8.5 104.5l48 342h-215l-73 -498q-24 -105 -106 -105q-40 0 -63 2l6 36h41q62 0 74 67l73 500h-82l4 32l82 3l10 68q8 53 30 82.5t70 40.5q10 2 100 18l2 -33
q-30 -6 -87 -22q-34 -9 -48 -31.5t-21 -67.5l-8 -54h203q16 0 19 19l19 134q32 5 45 5l-22 -158h155l-5 -38h-155z" />
    <glyph glyph-name="three.ss09" horiz-adv-x="570" 
d="M541 700l-5 -41l-259 -276h62q106 0 134 -29.5t15 -118.5l-9 -66q-14 -99 -63 -136t-167 -38h-7q-75 0 -219 37l16 120h35l-8 -92q113 -25 170 -25h15q97 1 133.5 29.5t47.5 110.5l8 62q11 72 -10.5 92t-114.5 20h-85l-13 30l265 279h-352l5 42h406z" />
    <glyph glyph-name="zero.tf" horiz-adv-x="581" 
d="M277 -9h-44q-225 0 -193 230l36 259q17 116 80 172t176 56h44q224 0 192 -231l-36 -259q-34 -227 -255 -227zM239 34h39q87 0 139 48t65 141l36 256q27 187 -149 187h-39q-177 0 -205 -190l-36 -256q-25 -186 150 -186z" />
    <glyph glyph-name="one.tf" horiz-adv-x="581" 
d="M385 701l-93 -661q73 0 149 -4l-4 -36h-362l4 36q82 4 163 4l86 613l-128 -33l5 37l150 44h30z" />
    <glyph glyph-name="two.tf" horiz-adv-x="581" 
d="M500 167l-23 -167h-444l6 39q17 122 39 171.5t73 80.5q25 15 56 29t92 39.5t88 36.5q53 22 76.5 44.5t28.5 59.5l4 32q12 81 -15 107.5t-116 26.5q-105 0 -183 -43l-19 -82h-37l15 113q113 54 230 54q113 0 150.5 -39t23.5 -141l-5 -33q-7 -53 -37 -81.5t-104 -60.5
q-17 -7 -69 -27.5t-89.5 -37t-58.5 -29.5q-44 -27 -61.5 -69t-32.5 -151h353l24 128h35z" />
    <glyph glyph-name="three.tf" horiz-adv-x="581" 
d="M549 527l-3 -26q-11 -73 -34 -107t-63 -45q73 -19 56 -134l-6 -46q-14 -101 -64 -137.5t-173 -36.5q-77 0 -222 37l16 120h35l-8 -92q118 -25 182 -25q101 0 138 28t49 112l6 44q2 17 2.5 30.5t-2 24t-5.5 19t-11.5 14.5t-14 10t-19.5 7t-22.5 4t-27.5 2t-30.5 1h-35.5
h-3h-91l5 39h90q49 0 72.5 1.5t51.5 8t41 21t24 39.5t16 64l3 23q12 82 -18 111t-126 29q-73 0 -179 -32l-20 -102h-35l17 130q128 44 220 44q121 0 162 -40t27 -140z" />
    <glyph glyph-name="four.tf" horiz-adv-x="581" 
d="M14 226l443 474h50l-66 -474h102l-4 -32l-104 -6l-21 -150q31 0 103 -4l-4 -34h-259l4 35q5 0 45 1.5t61 1.5l21 150h-376zM63 226h328l58 415z" />
    <glyph glyph-name="five.tf" horiz-adv-x="581" 
d="M546 571h-35l8 89h-324l-58 -302q50 30 90.5 40t95.5 10h75q143 0 122 -146l-11 -76q-15 -111 -69 -151t-193 -40q-81 0 -226 37l16 120h35l-8 -92q118 -25 184 -25q115 0 158.5 33t55.5 124l10 69q15 109 -86 109h-75q-54 0 -91.5 -10t-89.5 -42l-40 13l69 369h405z" />
    <glyph glyph-name="six.tf" horiz-adv-x="581" 
d="M335 415h33q103 -1 139 -41.5t22 -139.5l-8 -49q-26 -191 -239 -191h-42q-113 0 -162.5 51t-34.5 161l38 265q33 237 259 237q116 0 219 -34l-14 -112h-40l3 80q-78 23 -171 23q-178 0 -207 -199l-16 -117q63 34 110.5 50t110.5 16zM109 315l-15 -113q-13 -88 25 -127
t127 -39h41q166 0 188 157l5 39q11 81 -16.5 113t-107.5 32h-31q-60 0 -106 -14.5t-110 -47.5z" />
    <glyph glyph-name="seven.tf" horiz-adv-x="581" 
d="M591 660l-406 -660h-57l2 16l415 644h-389l-24 -119h-35l22 159h477z" />
    <glyph glyph-name="eight.tf" horiz-adv-x="581" 
d="M560 540l-5 -30q-9 -67 -44 -103.5t-104 -49.5q155 -18 134 -163l-3 -19q-24 -184 -244 -184h-78q-112 0 -160 47.5t-35 140.5l2 18q21 142 180 161q-124 24 -105 155l4 30q22 163 231 163h42q105 0 150.5 -41.5t34.5 -124.5zM147 537l-4 -29q-10 -68 25.5 -99.5
t120.5 -31.5h38q84 0 128 32.5t55 101.5l3 29q10 67 -25 97.5t-120 30.5h-38q-84 0 -128.5 -32t-54.5 -99zM489 182l3 23q10 67 -27.5 101t-124.5 34h-73q-173 0 -193 -139l-3 -22q-10 -72 27 -109t124 -37h73q174 0 194 149z" />
    <glyph glyph-name="nine.tf" horiz-adv-x="581" 
d="M273 287h-33q-102 0 -138.5 41t-22.5 140l7 48q28 192 237 192h47q119 0 164.5 -50.5t29.5 -163.5l-37 -269q-19 -126 -83 -178t-196 -52q-84 0 -194 37l16 121h42l-8 -90q78 -26 148 -26q105 0 157.5 43.5t66.5 145.5l18 126q-66 -34 -112 -49.5t-109 -15.5zM498 386
l17 116q12 88 -23 126t-130 38h-41q-166 0 -188 -158l-6 -39q-11 -81 16.5 -112.5t108.5 -31.5h31q61 0 107 14.5t108 46.5z" />
    <glyph glyph-name="zero.dnom" horiz-adv-x="406" 
d="M188 -2h-37q-69 0 -95.5 34t-16.5 105l20 137q9 71 44 103.5t104 32.5h37q69 0 95 -33.5t16 -105.5l-20 -137q-10 -71 -44.5 -103.5t-102.5 -32.5zM158 29h28q97 0 112 108l19 137q8 54 -11 79.5t-70 25.5h-28q-97 0 -112 -108l-19 -137q-8 -54 11 -79.5t70 -25.5z" />
    <glyph glyph-name="one.dnom" horiz-adv-x="327" 
d="M219 411l-54 -381q18 0 52.5 -1.5t40.5 -1.5l-3 -27h-242l3 27q57 3 109 3l49 345l-114 -32l3 26l130 42h26z" />
    <glyph glyph-name="two.dnom" horiz-adv-x="398" 
d="M320 111l-16 -111h-288l5 32q10 75 33 110t79 54q25 9 85 28q46 16 66.5 32.5t23.5 41.5l2 17q6 39 -11.5 52t-73.5 13q-75 0 -115 -18l-12 -56h-29l10 78q65 26 146 26q74 0 101.5 -21.5t19.5 -75.5l-2 -21q-5 -33 -30 -55.5t-80 -40.5q-59 -18 -88 -29
q-44 -16 -62 -43.5t-28 -92.5h222l15 80h27z" />
    <glyph glyph-name="three.dnom" horiz-adv-x="366" 
d="M323 304l-2 -10q-6 -40 -20 -62t-44 -30q50 -12 39 -89l-2 -13q-8 -60 -39.5 -81t-110.5 -21q-56 0 -143 21l11 82h27l-5 -60q66 -14 112 -14q59 0 83 17t30 62l2 12q6 42 -9 56.5t-54 14.5h-101l4 28h99q38 0 58.5 17.5t27.5 60.5l1 9q7 46 -11.5 61.5t-77.5 15.5
q-52 0 -112 -17l-12 -57h-25l11 79q72 24 139 24q80 0 106 -22.5t18 -83.5z" />
    <glyph glyph-name="four.dnom" horiz-adv-x="434" 
d="M279 107l-11 -78q14 0 42 -1.5t40 -1.5l-4 -26h-214l3 26q54 3 94 3l10 77h-237l4 29l275 275h40l-38 -275h84l-3 -26zM276 372l-234 -237h202z" />
    <glyph glyph-name="five.dnom" horiz-adv-x="410" 
d="M366 403l-13 -96h-27l7 65h-206l-32 -166q55 32 132 32h25q57 0 77 -25t11 -89l-3 -13q-8 -59 -45.5 -85.5t-110.5 -27.5h-9q-63 0 -148 22l13 92h26l-7 -69q69 -14 114 -14h10q108 1 120 87l2 12q7 48 -5 65t-54 17h-25q-77 0 -130 -32l-32 8l41 217h269z" />
    <glyph glyph-name="six.dnom" horiz-adv-x="420" 
d="M211 237h37q59 0 81.5 -27.5t14.5 -87.5l-1 -8q-9 -62 -44.5 -89t-107.5 -27h-27q-73 0 -106.5 32.5t-24.5 95.5l20 144q20 141 157 141h10q64 0 140 -20l-10 -84h-30l4 60q-43 12 -112 12q-105 0 -122 -113l-10 -67q66 39 131 38zM76 172l-7 -51q-7 -47 18.5 -69.5
t80.5 -22.5h24q54 0 80.5 21t33.5 68l1 8q7 46 -8.5 64.5t-59.5 18.5h-33q-61 0 -130 -37z" />
    <glyph glyph-name="seven.dnom" horiz-adv-x="339" 
d="M343 372l-245 -372h-42l1 10l248 362h-234l-15 -68h-26l14 99h303z" />
    <glyph glyph-name="eight.dnom" horiz-adv-x="436" 
d="M373 310l-2 -16q-5 -35 -24.5 -55.5t-58.5 -28.5q88 -13 74 -99l-1 -11q-8 -55 -43.5 -78.5t-111.5 -23.5h-44q-76 0 -106.5 25t-22.5 80l1 11q12 84 102 98q-68 15 -59 85l3 16q7 51 41.5 74t102.5 23h31q68 0 96.5 -24.5t21.5 -75.5zM114 308l-2 -17q-5 -36 15 -51
t70 -15h34q95 0 104 69l3 17q4 36 -17 52.5t-71 16.5h-26q-100 0 -110 -72zM324 105l1 12q6 42 -15 60t-72 18h-55q-99 0 -111 -81l-1 -12q-6 -40 16.5 -57t79.5 -17h38q57 0 85.5 18.5t33.5 58.5z" />
    <glyph glyph-name="nine.dnom" horiz-adv-x="410" 
d="M184 161h-37q-60 0 -82.5 28t-13.5 94l2 14q9 61 44.5 87.5t106.5 26.5h28q73 0 105.5 -32t24.5 -96l-20 -145q-21 -140 -158 -140h-9q-66 1 -140 20l11 82h30l-5 -60q45 -13 113 -13q105 0 122 114l9 61q-62 -41 -131 -41zM318 229l8 60q7 46 -18 68.5t-81 22.5h-24
q-54 0 -80.5 -21t-33.5 -68l-1 -8q-7 -52 8 -72t59 -20h35q64 0 128 38z" />
    <glyph glyph-name="zero.numr" horiz-adv-x="406" 
d="M229 295h-37q-69 0 -95.5 34t-16.5 105l20 137q9 71 44 103.5t104 32.5h37q69 0 95 -33.5t16 -105.5l-20 -137q-10 -71 -44.5 -103.5t-102.5 -32.5zM199 326h28q97 0 112 108l19 137q8 54 -11 79.5t-70 25.5h-28q-97 0 -112 -108l-19 -137q-8 -54 11 -79.5t70 -25.5z" />
    <glyph glyph-name="one.numr" horiz-adv-x="327" 
d="M264 708l-54 -381q18 0 52.5 -1.5t40.5 -1.5l-3 -27h-242l3 27q57 3 109 3l49 345l-114 -32l3 26l130 42h26z" />
    <glyph glyph-name="two.numr" horiz-adv-x="398" 
d="M365 408l-16 -111h-288l5 32q10 75 33 110t79 54q24 9 85 28q46 16 66.5 32.5t23.5 41.5l2 17q6 39 -11.5 52t-73.5 13q-74 0 -115 -18l-12 -56h-29l10 78q65 26 146 26q74 0 101.5 -21.5t19.5 -75.5l-2 -21q-5 -33 -30 -55.5t-80 -40.5q-59 -18 -88 -29
q-44 -16 -62 -43.5t-28 -92.5h222l15 80h27z" />
    <glyph glyph-name="three.numr" horiz-adv-x="366" 
d="M360 601l-2 -10q-6 -40 -20 -62t-44 -30q50 -12 39 -89l-2 -13q-8 -60 -39.5 -81t-110.5 -21q-56 0 -143 21l11 82h27l-5 -60q66 -14 112 -14q59 0 83 17t30 62l2 12q6 42 -9 56.5t-54 14.5h-101l4 28h99q38 0 58.5 17.5t27.5 60.5l1 9q7 46 -11.5 61.5t-77.5 15.5
q-52 0 -112 -17l-12 -57h-25l11 79q72 24 139 24q80 0 106 -22.5t18 -83.5z" />
    <glyph glyph-name="four.numr" horiz-adv-x="434" 
d="M316 404l-11 -78q14 0 42 -1.5t40 -1.5l-4 -26h-214l3 26q54 3 94 3l10 77h-237l4 29l275 275h40l-38 -275h84l-3 -26zM313 669l-234 -237h202z" />
    <glyph glyph-name="five.numr" horiz-adv-x="410" 
d="M406 700l-13 -96h-27l7 65h-206l-32 -166q55 32 132 32h25q57 0 77 -25t11 -89l-3 -13q-8 -59 -45.5 -85.5t-110.5 -27.5h-9q-63 0 -148 22l13 92h26l-7 -69q69 -14 114 -14h10q108 1 120 87l2 12q7 48 -5 65t-54 17h-25q-77 0 -130 -32l-32 8l41 217h269z" />
    <glyph glyph-name="six.numr" horiz-adv-x="420" 
d="M256 534h37q59 0 81.5 -27.5t14.5 -87.5l-1 -8q-9 -62 -44.5 -89t-107.5 -27h-27q-73 0 -106.5 32.5t-24.5 95.5l20 144q20 141 157 141h10q64 0 140 -20l-10 -84h-30l4 60q-43 12 -112 12q-105 0 -122 -113l-10 -67q66 39 131 38zM121 469l-7 -51q-7 -47 18.5 -69.5
t80.5 -22.5h24q54 0 80.5 21t33.5 68l1 8q7 46 -8.5 64.5t-59.5 18.5h-33q-61 0 -130 -37z" />
    <glyph glyph-name="seven.numr" horiz-adv-x="339" 
d="M380 669l-245 -372h-42l1 10l248 362h-234l-15 -68h-26l14 99h303z" />
    <glyph glyph-name="eight.numr" horiz-adv-x="436" 
d="M415 607l-2 -16q-5 -35 -24.5 -55.5t-58.5 -28.5q88 -13 74 -99l-1 -11q-8 -55 -43.5 -78.5t-111.5 -23.5h-44q-76 0 -106.5 25t-22.5 80l1 11q12 84 102 98q-68 15 -59 85l3 16q7 51 41.5 74t102.5 23h31q68 0 96.5 -24.5t21.5 -75.5zM156 605l-2 -17q-5 -36 15 -51
t70 -15h34q95 0 104 69l3 17q4 36 -17 52.5t-71 16.5h-26q-100 0 -110 -72zM366 402l1 12q6 42 -15 60t-72 18h-55q-99 0 -111 -81l-1 -12q-6 -40 16.5 -57t79.5 -17h38q57 0 85.5 18.5t33.5 58.5z" />
    <glyph glyph-name="nine.numr" horiz-adv-x="410" 
d="M224 458h-37q-60 0 -82.5 28t-13.5 94l2 14q9 61 44.5 87.5t106.5 26.5h28q73 0 105.5 -32t24.5 -96l-20 -145q-21 -140 -158 -140h-9q-66 1 -140 20l11 82h30l-5 -60q45 -13 113 -13q105 0 122 114l9 61q-62 -41 -131 -41zM358 526l8 60q7 46 -18 68.5t-81 22.5h-24
q-54 0 -80.5 -21t-33.5 -68l-1 -8q-7 -52 8 -72t59 -20h35q64 0 128 38z" />
    <glyph glyph-name="backslash.case" horiz-adv-x="406" 
d="M368 -97h-35l-272 852h35z" />
    <glyph glyph-name="bullet.case" horiz-adv-x="322" 
d="M171 251q-61 0 -89 30t-20 87q15 115 139 115q61 0 89 -31t19 -91q-7 -54 -43 -82t-95 -28z" />
    <glyph glyph-name="exclamdown.case" horiz-adv-x="211" 
d="M167 704q37 0 32 -36q-6 -29 -39 -29q-36 0 -31 36q5 29 38 29zM54 74l74 441h27l-48 -441l-11 -74h-53z" />
    <glyph glyph-name="periodcentered.case" horiz-adv-x="177" 
d="M99 321q-37 0 -31 35q4 30 38 30q37 0 31 -36q-4 -29 -38 -29z" />
    <glyph glyph-name="questiondown.case" horiz-adv-x="489" 
d="M352 704q37 0 31 -36q-4 -29 -38 -29q-35 0 -31 36q5 29 38 29zM452 158l-15 -112q-66 -31 -115 -42.5t-112 -11.5q-116 0 -153.5 37t-23.5 139l4 32q8 53 28.5 82t66.5 47q114 44 159 61l18 127h35l-12 -153l-162 -63q-41 -17 -60 -41t-24 -62l-4 -31q-12 -81 14.5 -108
t120.5 -27q56 0 93 9t86 33l19 84h37z" />
    <glyph glyph-name="slash.case" horiz-adv-x="406" 
d="M492 791l-512 -852h-36l512 852h36z" />
    <glyph glyph-name="numbersign.ss10" horiz-adv-x="506" 
d="M377 430h102l-4 -36h-108l-34 -109h-38l33 109h-142l-34 -109h-39l34 109h-82l4 36h89l41 133h-91l6 36h96l31 101h38l-31 -101h143l31 101h38l-31 -101h80l-6 -36h-84zM237 563l-41 -133h143l41 133h-143z" />
    <glyph glyph-name="braceleft.case" horiz-adv-x="345" 
d="M216 582l-68 -481q-9 -65 13.5 -100.5t91.5 -73.5l-12 -23q-81 39 -113.5 83t-22.5 117l32 224l-90 3l5 38l90 3l31 213q10 73 54 116t136 81l8 -24q-80 -38 -113 -74.5t-42 -101.5z" />
    <glyph glyph-name="braceright.case" horiz-adv-x="345" 
d="M154 104l68 481q9 64 -13 99.5t-91 74.5l12 22q81 -38 113.5 -82t22.5 -117l-30 -210l89 -3l-5 -38l-90 -3l-32 -227q-10 -73 -54 -116t-136 -81l-9 23q80 39 113 76t42 101z" />
    <glyph glyph-name="bracketleft.case" horiz-adv-x="332" 
d="M360 764l-5 -35h-165l-107 -767h165l-5 -35h-209l117 837h209z" />
    <glyph glyph-name="bracketright.case" horiz-adv-x="332" 
d="M207 -73h-209l5 35h166l107 767h-165l5 35h209z" />
    <glyph glyph-name="parenleft.case" horiz-adv-x="270" 
d="M144 593l-67 -481q-10 -65 12.5 -100.5t91.5 -73.5l-12 -22q-81 38 -113.5 82t-22.5 117l68 481q10 73 54 116t136 81l8 -23q-80 -39 -113 -76t-42 -101z" />
    <glyph glyph-name="parenright.case" horiz-adv-x="272" 
d="M156 115l68 481q9 65 -13.5 100.5t-91.5 73.5l12 23q81 -38 113.5 -82.5t22.5 -117.5l-67 -481q-11 -73 -55 -116t-135 -81l-9 24q79 38 112 74.5t43 101.5z" />
    <glyph glyph-name="emdash.case" horiz-adv-x="835" 
d="M797 376l-5 -41h-726l5 41h726z" />
    <glyph glyph-name="endash.case" horiz-adv-x="508" 
d="M470 376l-5 -41h-399l5 41h399z" />
    <glyph glyph-name="hyphen.case" horiz-adv-x="319" 
d="M333 376l-5 -42h-262l6 42h261z" />
    <glyph glyph-name="guillemotleft.case" horiz-adv-x="475" 
d="M129 322l130 -175l-3 -18h-27l-152 193v6l207 193h28l-3 -18l-179 -175zM292 322l130 -175l-3 -18h-27l-152 193l1 6l206 193h28l-3 -18l-179 -175z" />
    <glyph glyph-name="guillemotright.case" horiz-adv-x="475" 
d="M108 503l3 18h27l152 -193v-6l-207 -193h-28l3 18l179 175l1 6zM271 503l3 18h27l152 -193v-6l-207 -193h-28l3 18l179 175l1 6z" />
    <glyph glyph-name="guilsinglleft.case" horiz-adv-x="306" 
d="M111 352l130 -175l-2 -18h-27l-153 193l1 5l206 193h28l-3 -18l-178 -175z" />
    <glyph glyph-name="guilsinglright.case" horiz-adv-x="306" 
d="M84 532l3 18h27l152 -193v-5l-206 -193h-28l2 18l179 175l1 5z" />
    <glyph glyph-name="florin.tf" horiz-adv-x="581" 
d="M486 426l-5 -37h-150l-83 -288q-16 -56 -39 -84t-70 -38q-34 -8 -95 -16l-3 28q34 7 76 19q37 10 52 31t29 69l82 279h-86l4 33q27 1 49 2t30.5 1.5t13.5 0.5l41 143q16 56 39 84t70 39q18 4 33 6.5t33.5 5.5t34.5 6l2 -33q-47 -11 -84 -21q-36 -10 -51.5 -32t-28.5 -68
l-38 -130h144z" />
    <glyph glyph-name="cent.tf" horiz-adv-x="581" 
d="M472 368l6 81q-62 31 -144 32l-64 -451h22q102 0 146 68l4 8h37l-4 -34q-30 -39 -79.5 -60t-104.5 -21h-19l-9 -64h-39l10 64q-186 3 -159 183l23 165q26 176 211 179l10 70h39l-10 -70q99 0 175 -42l-15 -108h-36zM145 331l-23 -158q-19 -141 126 -143l64 451
q-146 -2 -167 -150z" />
    <glyph glyph-name="dollar.tf" horiz-adv-x="581" 
d="M515 507l9 122q-66 34 -164 37l-38 -272l101 -23q71 -18 94.5 -53.5t13.5 -108.5l-6 -44q-13 -94 -68.5 -132t-178.5 -38h-6l-10 -68h-39l10 68q-119 4 -214 60l20 146h40l-9 -121q72 -41 176 -45l45 318l-109 25q-66 18 -86.5 50.5t-11.5 98.5l2 15q12 88 69 126t176 38
h3l10 72h40l-10 -73q110 -5 200 -49l-21 -149h-38zM298 399l37 267h-7q-93 0 -137 -29.5t-54 -96.5l-1 -14q-7 -47 8.5 -70.5t62.5 -35.5zM316 348l-45 -313h10q98 0 141 30t54 106l5 34q8 58 -11.5 84.5t-79.5 41.5z" />
    <glyph glyph-name="Euro.tf" horiz-adv-x="581" 
d="M541 520l11 116q-29 15 -68.5 22t-60 7.5t-70.5 0.5q-87 0 -140 -50t-66 -146l-9 -62h311l-10 -27h-304l-10 -72h273l-11 -26h-267l-10 -81q-13 -88 25 -128.5t126 -39.5h39q133 0 197 107l35 -2l-4 -32q-74 -116 -229 -116h-45q-224 0 -195 210l11 82h-62l4 26h63l10 72
h-63l4 27h62l10 68q31 232 255 232h21q145 0 222 -42l-19 -146h-36z" />
    <glyph glyph-name="sterling.tf" horiz-adv-x="581" 
d="M515 0h-523l5 36q66 50 103 102.5t35 120.5l-2 28h-107l5 32h105l-5 155q-2 112 53.5 173t163.5 61h51q109 0 193 -42l-24 -149h-37l10 119q-29 15 -69 22t-60 7.5t-66 0.5q-81 0 -125.5 -51.5t-40.5 -145.5l7 -150h247l-11 -32h-238l2 -25q3 -68 -31.5 -120.5
t-99.5 -100.5h422l26 131h35z" />
    <glyph glyph-name="yen.tf" horiz-adv-x="581" 
d="M632 700l-5 -36q-28 -2 -82 -4l-214 -370h169l-4 -26h-180l-5 -9l-11 -75h184l-3 -26h-184l-17 -115q12 0 26.5 -0.5t31.5 -1.5t28 -1l-4 -36h-226l4 36q46 3 90 3l17 115h-187l3 26h187l11 73l-3 11h-183l4 26h171l-106 371q-15 0 -45 1.5t-36 1.5l4 36h218l-4 -36
q-60 -2 -86 -2l99 -363h1l203 362l-87 3l5 36h216z" />
    <glyph glyph-name="arrowdown.ss13" horiz-adv-x="808" 
d="M405 75q115 0 195.5 81t80.5 197q0 115 -80.5 196t-195.5 81t-196.5 -81t-81.5 -196t81.5 -196.5t196.5 -81.5zM415 200h-20l-136 135l21 21l110 -110v256h30v-256l109 110l21 -21z" />
    <glyph glyph-name="arrowdownleft.ss13" horiz-adv-x="809" 
d="M209 155q81 -82 195 -81.5t196 82.5q81 81 81.5 195.5t-80.5 195.5q-82 82 -196.5 82t-195.5 -81q-82 -82 -82 -197t82 -196zM304 236l-15 14v192h30v-156l180 182l22 -22l-182 -181h156v-29h-191z" />
    <glyph glyph-name="arrowdownright.ss13" horiz-adv-x="809" 
d="M598 155q82 81 82 196t-82 197q-81 81 -195.5 81t-196.5 -82q-82 -81 -81.5 -195.5t81.5 -195.5q82 -82 196.5 -82.5t195.5 81.5zM311 265h156l-182 181l22 22l181 -182v156h29v-192l-15 -14h-191v29z" />
    <glyph glyph-name="arrowleft.ss13" horiz-adv-x="808" 
d="M127 352q0 -115 81 -195.5t197 -80.5q115 0 196 80.5t81 195.5t-81 196.5t-196 81.5t-196.5 -81t-81.5 -197zM252 341v21l135 136l21 -21l-110 -110h256v-30h-256l110 -109l-21 -21z" />
    <glyph glyph-name="arrowright.ss13" horiz-adv-x="808" 
d="M682 352q0 116 -81 197t-197 81q-115 0 -196 -81.5t-81 -196.5t81 -195.5t196 -80.5q116 0 197 80.5t81 195.5zM401 228l110 109h-256v30h256l-110 110l21 21l135 -136v-21l-135 -134z" />
    <glyph glyph-name="arrowup.ss13" horiz-adv-x="808" 
d="M405 630q-115 0 -196.5 -81t-81.5 -197q0 -115 81.5 -196t196.5 -81t195.5 81t80.5 196q0 116 -80.5 197t-195.5 81zM529 349l-109 110v-256h-30v256l-110 -110l-21 21l136 135h20l135 -135z" />
    <glyph glyph-name="arrowupleft.ss13" horiz-adv-x="809" 
d="M209 550q-82 -81 -82 -196t82 -197q81 -81 195.5 -81t196.5 82q81 81 80.5 195.5t-81.5 195.5q-82 82 -196 82.5t-195 -81.5zM495 440h-156l182 -181l-22 -22l-181 182v-156h-28v191l14 15h191v-29z" />
    <glyph glyph-name="arrowupright.ss13" horiz-adv-x="809" 
d="M598 550q-81 82 -195.5 81.5t-196.5 -82.5q-81 -81 -81.5 -195.5t81.5 -195.5q82 -82 196.5 -82t195.5 81q82 82 82 197t-82 196zM502 469l15 -15v-191h-29v156l-181 -182l-22 22l182 180h-156v30h191z" />
    <glyph glyph-name="at.case" horiz-adv-x="1069" 
d="M780 569l-87 -358q-4 -17 -4.5 -30t4 -20.5t9 -12.5t14.5 -6.5t16 -2t19 -0.5q85 0 148.5 77t80.5 203q22 152 -65 243t-256 91q-217 0 -364.5 -126t-176.5 -330q-24 -169 74 -269t284 -100q78 0 165 20.5t155 53.5l9 -25q-67 -35 -157.5 -56t-173.5 -21
q-200 0 -305.5 109.5t-80.5 293.5q31 215 187 347t386 132q182 0 277 -100.5t72 -267.5q-19 -138 -92.5 -220t-179.5 -82q-22 0 -35 1.5t-28.5 7t-22.5 19t-6 35.5q-50 -44 -90 -63t-104 -19h-19q-80 0 -112.5 49.5t-9.5 145.5l29 126q16 76 66.5 116.5t119.5 40.5h27
q92 0 170 -50l11 48h46zM652 217l63 271q-68 47 -156 47h-29q-54 0 -94 -35t-56 -104l-23 -106q-16 -83 5.5 -121t89.5 -38h17q57 0 93 17.5t87 59.5z" />
    <glyph glyph-name="ampersand.ss11" horiz-adv-x="740" 
d="M723 389l-4 -35q-5 0 -40.5 -1.5t-53.5 -1.5l-13 -88q-20 -144 -87 -206t-207 -62h-64q-129 0 -181 46t-36 160l3 16q11 77 63.5 119t122.5 45q-33 19 -48.5 57.5t-9.5 84.5l4 24q12 85 62.5 123t141.5 38h14q74 0 156 -29l-15 -107h-34l5 79q-46 17 -120 17h-13
q-137 0 -154 -126l-4 -28q-8 -52 21 -88.5t83 -36.5h106l-5 -35h-155q-67 0 -116 -35t-59 -107l-2 -10q-12 -93 28.5 -129t139.5 -36h69q120 0 176.5 52.5t72.5 175.5l13 86l-91 3l4 35h227z" />
    <glyph glyph-name="copyright.ss12" horiz-adv-x="435" 
d="M232 351q-86 0 -127 49t-29 137q12 84 66 131t139 47t127 -49.5t30 -135.5q-13 -85 -67 -132t-139 -47zM232 371q77 0 126 42.5t60 123.5q10 76 -26.5 117.5t-110.5 41.5q-77 0 -125.5 -43t-59.5 -123q-11 -77 25 -118t111 -41zM324 485l-2 -15q-25 -36 -73 -36h-11
q-78 0 -67 77l6 42q11 79 87 79h10q37 0 67 -15l-7 -52h-18l2 39q-15 7 -55 7q-54 0 -64 -63l-5 -39q-7 -53 47 -53h10q17 0 32.5 8.5t21.5 21.5z" />
    <glyph glyph-name="acute.case" 
d="M403 869l-2 -8l-126 -109l-19 14l110 122z" />
    <glyph glyph-name="breve.case" 
d="M449 869l-1 -13q-15 -103 -127 -103q-55 0 -81 27.5t-19 78.5l2 10h32l-1 -9q-12 -75 69 -75q82 0 94 78l1 6h31z" />
    <glyph glyph-name="caron.case" 
d="M336 758h-29l-95 110l18 13l95 -90l122 90l15 -13z" />
    <glyph glyph-name="circumflex.case" 
d="M431 757l-97 91l-122 -91l-15 14l126 111h30l96 -111z" />
    <glyph glyph-name="dieresis.case" 
d="M240 788q-14 0 -21.5 9t-6.5 23q1 12 11 19t23 7q14 0 22 -9t6 -24q-1 -11 -10.5 -18t-23.5 -7zM413 788q-14 0 -22 9t-7 23q5 26 34 26q14 0 22 -9t6 -24q-1 -11 -10.5 -18t-22.5 -7z" />
    <glyph glyph-name="dotaccent.case" 
d="M326 788q-14 0 -22 9t-7 23q5 26 35 26q15 0 23 -9t6 -24q-1 -11 -11 -18t-24 -7z" />
    <glyph glyph-name="grave.case" 
d="M383 767l-21 -14l-95 107v9l40 18z" />
    <glyph glyph-name="hungarumlaut.case" 
d="M347 872l-2 -8l-120 -110l-18 14l109 120zM453 872l-2 -8l-121 -110l-17 14l109 120z" />
    <glyph glyph-name="macron.case" 
d="M447 811l-5 -34h-237l5 34h237z" />
    <glyph glyph-name="ring.case" 
d="M328 750h-15q-29 0 -44.5 18t-11.5 48l2 15q4 29 24 45.5t49 16.5h14q30 0 45.5 -18t11.5 -47l-3 -15q-4 -30 -23 -46.5t-49 -16.5zM316 773h13q42 0 47 42l2 16q6 39 -36 39h-11q-43 0 -48 -41l-2 -16q-3 -19 6.5 -29.5t28.5 -10.5z" />
    <glyph glyph-name="tilde.case" 
d="M492 856l-75 -70q-24 -22 -43 -22q-11 0 -24 12.5t-32 33.5t-36 33l-102 -78l-14 13l74 68q25 25 45 25q11 0 24.5 -12.5t32.5 -33.5t35 -33l102 77z" />
    <glyph glyph-name="caron.alt" 
d="M348 713l-1 -13l-55 -135h-27l43 148h40z" />
    </font>
</defs>
</svg>
