<?xml version="1.0" standalone="no"?>
<!DOCTYPE svg PUBLIC "-//W3C//DTD SVG 1.1//EN" "http://www.w3.org/Graphics/SVG/1.1/DTD/svg11.dtd" >
<svg xmlns="http://www.w3.org/2000/svg" xmlns:xlink="http://www.w3.org/1999/xlink" version="1.1">
<metadata>
Created by FontForge 20150102 at Tue Feb  3 16:00:18 2015
 By uniteet7
Copyright (c) 2012 by Rene Bieder. All rights reserved.
</metadata>
<defs>
<font id="ReneBiederQuadonRegularItalic" horiz-adv-x="500" >
  <font-face 
    font-family="ReneBiederQuadonRegularItalic"
    font-weight="400"
    font-style="italic"
    font-stretch="normal"
    units-per-em="1000"
    panose-1="0 0 5 0 0 0 0 0 0 0"
    ascent="800"
    descent="-200"
    x-height="512"
    cap-height="700"
    bbox="-208 -210 1255.7 917"
    underline-thickness="50"
    underline-position="-90"
    slope="-8"
    unicode-range="U+0020-2212"
  />
<missing-glyph horiz-adv-x="683" 
d="M8 0l-8 9l674 691l9 -8z" />
    <glyph glyph-name="f_f" unicode="ff" horiz-adv-x="705" 
d="M569 512h156l-8 -56h-156l-71 -479q-28 -116 -114 -116q-37 0 -76 4l8 56h37q58 0 69 57l71 478h-252l-71 -479q-28 -116 -114 -116q-37 0 -76 4l8 56h37q58 0 69 57l71 478h-78l6 50q24 2 78 4l11 65q9 55 34.5 87t76.5 43q15 3 114 18l2 -53q-62 -15 -89 -22
q-32 -9 -45.5 -29.5t-18.5 -59.5l-7 -47h250l11 63q9 55 34.5 87t76.5 43q15 3 114 18l2 -53q-62 -15 -89 -22q-32 -9 -45.5 -29.5t-18.5 -59.5z" />
    <glyph glyph-name="f_f_i" unicode="ffi" horiz-adv-x="971" 
d="M924 51l-6 -55q-39 -4 -76 -4q-105 0 -88 109l51 355h-244l-71 -479q-28 -116 -114 -116q-37 0 -76 4l8 56h37q58 0 69 57l71 478h-252l-71 -479q-28 -116 -114 -116q-37 0 -76 4l8 56h37q58 0 69 57l71 478h-78l6 50q24 2 78 4l11 65q9 55 34.5 87t76.5 43q15 3 114 18
l2 -53q-62 -15 -89 -22q-32 -9 -45.5 -29.5t-18.5 -59.5l-7 -47h250l11 63q9 55 34.5 87t76.5 43q15 3 114 18l2 -53q-62 -15 -89 -22q-32 -9 -45.5 -29.5t-18.5 -59.5l-7 -47h319l-58 -404q-3 -29 8 -43t41 -14h45zM863 611q-21 0 -33.5 13t-9.5 34q3 18 17.5 29t33.5 11
q21 0 33.5 -13.5t9.5 -35.5q-2 -17 -16.5 -27.5t-34.5 -10.5z" />
    <glyph glyph-name="f_f_l" unicode="ffl" horiz-adv-x="972" 
d="M727 723l2 -53q-62 -15 -89 -22q-32 -9 -45.5 -29.5t-18.5 -59.5l-7 -47h156l-8 -56h-156l-71 -479q-28 -116 -114 -116q-37 0 -76 4l8 56h37q58 0 69 57l71 478h-252l-71 -479q-28 -116 -114 -116q-37 0 -76 4l8 56h37q58 0 69 57l71 478h-78l6 50q24 2 78 4l11 65
q9 55 34.5 87t76.5 43q15 3 114 18l2 -53q-62 -15 -89 -22q-32 -9 -45.5 -29.5t-18.5 -59.5l-7 -47h250l11 63q9 55 34.5 87t76.5 43q15 3 114 18zM912 51l-7 -50q-34 -9 -77 -9q-104 0 -88 109l78 540q-2 0 -29 2t-41 4l7 53h146l-84 -592q-8 -57 48 -57h47z" />
    <glyph glyph-name=".notdef" horiz-adv-x="683" 
d="M8 0l-8 9l674 691l9 -8z" />
    <glyph glyph-name=".null" horiz-adv-x="0" 
 />
    <glyph glyph-name="nonmarkingreturn" horiz-adv-x="333" 
 />
    <glyph glyph-name="space" unicode=" " horiz-adv-x="184" 
 />
    <glyph glyph-name="exclam" unicode="!" horiz-adv-x="222" 
d="M215 700l-11 -86l-79 -417h-44l38 417l12 86h84zM77 -4q-51 0 -45 49q6 42 53 42q51 0 44 -51q-6 -40 -52 -40z" />
    <glyph glyph-name="quotedbl" unicode="&#x22;" horiz-adv-x="297" 
d="M185 700l-7 -48q-12 -87 -68 -215l-38 2l37 261h76zM312 700l-6 -48q-14 -93 -69 -215l-37 2l36 261h76z" />
    <glyph glyph-name="numbersign" unicode="#" horiz-adv-x="661" 
d="M494 254h119l-9 -66h-129l-59 -188h-68l60 188h-223l-59 -188h-67l59 188h-103l9 66h113l66 203h-120l9 65h129l56 178h68l-56 -178h222l56 178h67l-56 -178h96l-9 -65h-105zM270 457l-65 -203h222l65 203h-222z" />
    <glyph glyph-name="dollar" unicode="$" horiz-adv-x="650" 
d="M533 499l6 114q-57 29 -148 31l-34 -241l107 -24q72 -18 96.5 -54.5t13.5 -110.5l-6 -43q-13 -96 -71 -135.5t-184 -39.5h-1l-10 -68h-61l10 69q-104 5 -206 55l21 154h64l-6 -112q59 -32 154 -37l39 282l-104 24q-71 19 -93.5 53.5t-12.5 104.5l2 13q13 91 69.5 130
t175.5 41l10 73h60l-10 -74q105 -4 202 -46l-21 -159h-62zM327 410l33 234h-1q-82 0 -121 -26t-47 -85l-1 -12q-6 -41 7.5 -62t55.5 -32zM347 332l-38 -275h7q88 0 126 26t48 93l4 30q7 52 -10.5 74.5t-74.5 36.5z" />
    <glyph glyph-name="percent" unicode="%" horiz-adv-x="881" 
d="M251 711h60q78 -1 102 -40.5t12 -127.5l-9 -66q-12 -87 -46.5 -124.5t-112.5 -37.5h-60q-78 0 -103 39.5t-13 127.5l9 65q12 88 47 126t114 38zM777 708l-309 -355l-308 -359h-39l316 359l302 355h38zM301 659h-52q-51 0 -72.5 -28t-30.5 -91l-8 -60q-9 -62 3.5 -87.5
t63.5 -25.5h52q50 0 72 28t31 90l8 60q9 62 -4 88t-63 26zM651 385h60q78 0 103 -39.5t12 -127.5l-9 -66q-13 -87 -47 -124.5t-111 -37.5h-60q-79 0 -104 39.5t-13 126.5l9 66q13 88 47 125.5t113 37.5zM702 334h-52q-50 0 -72 -28.5t-31 -90.5l-8 -60q-9 -62 4 -88t63 -26
h52q50 0 72 28t31 90l8 61q9 62 -4 88t-63 26z" />
    <glyph glyph-name="ampersand" unicode="&#x26;" horiz-adv-x="749" 
d="M716 409l-7 -57q-73 -4 -87 -7q-40 -132 -92 -212q46 -52 64.5 -66.5t47.5 -14.5h64l-7 -56q-47 -4 -94 -4q-32 0 -54.5 16t-61.5 61q-37 -46 -79.5 -60.5t-129.5 -14.5h-46q-122 0 -171 43.5t-32 158.5l4 31q10 73 55.5 112.5t121.5 61.5q-45 64 -35 132l1 11
q13 90 59.5 127.5t139.5 37.5h19q79 0 179 -37l-16 -119h-62l3 73q-47 21 -114 21h-11q-56 0 -84 -26t-36 -84l-1 -6q-6 -39 3 -61.5t40 -64.5l190 -216q55 87 91 220h138zM237 59h46q65 0 98.5 13t62.5 51q-29 34 -62 72.5t-73.5 85.5t-62.5 73q-60 -18 -95 -45.5
t-43 -82.5l-3 -23q-12 -81 21 -112.5t111 -31.5z" />
    <glyph glyph-name="quotesingle" unicode="'" horiz-adv-x="170" 
d="M185 700l-7 -48q-12 -87 -68 -215l-38 2l37 261h76z" />
    <glyph glyph-name="parenleft" unicode="(" horiz-adv-x="276" 
d="M152 523l-68 -479q-9 -63 12 -96t88 -71l-19 -33q-86 39 -123 83t-26 121l67 481q11 77 58.5 119.5t144.5 81.5l15 -37q-77 -38 -109 -72.5t-40 -97.5z" />
    <glyph glyph-name="parenright" unicode=")" horiz-adv-x="280" 
d="M136 49l68 479q9 63 -12 95.5t-88 71.5l19 33q86 -39 123 -83t26 -121l-67 -480q-10 -77 -57.5 -119.5t-145.5 -82.5l-15 37q77 38 109 72.5t40 97.5z" />
    <glyph glyph-name="asterisk" unicode="*" horiz-adv-x="380" 
d="M373 477l-29 -39l-33 21l-73 59l-3 -100l-5 -41h-46l5 41l26 100l-88 -59l-39 -21l-19 39l39 21l97 41l-85 39l-34 21l29 40l33 -21l73 -58l3 98l5 42h46l-5 -42l-25 -98l87 58l39 21l19 -40l-39 -21l-97 -39l85 -41z" />
    <glyph glyph-name="plus" unicode="+" horiz-adv-x="593" 
d="M65 319l10 63h206l30 214h66l-29 -214h206l-9 -63h-207l-29 -214h-67l30 214h-207z" />
    <glyph glyph-name="comma" unicode="," horiz-adv-x="187" 
d="M12 8l15 49q8 28 40 22q26 -4 36.5 -13t7.5 -30q-8 -57 -105 -156l-20 18q45 60 55 102z" />
    <glyph glyph-name="hyphen" unicode="-" horiz-adv-x="373" 
d="M335 334l-9 -64h-275l9 64h275z" />
    <glyph glyph-name="period" unicode="." horiz-adv-x="191" 
d="M61 -4q-50 0 -44 49q6 42 53 42q52 0 44 -51q-6 -40 -53 -40z" />
    <glyph glyph-name="slash" unicode="/" horiz-adv-x="419" 
d="M504 782l-512 -852h-51l512 852h51z" />
    <glyph glyph-name="zero" unicode="0" horiz-adv-x="648" 
d="M313 -10h-46q-119 0 -168.5 58.5t-33.5 179.5l34 245q17 122 81.5 179t184.5 57h46q118 0 166.5 -59.5t31.5 -181.5l-34 -244q-18 -121 -81.5 -177.5t-180.5 -56.5zM278 58h34q161 0 185 171l34 247q24 167 -134 167h-34q-161 0 -185 -171l-34 -248q-24 -166 134 -166z
" />
    <glyph glyph-name="one" unicode="1" horiz-adv-x="381" 
d="M307 703l-91 -641q44 -1 95 -6l-7 -56h-288l7 57q58 5 113 6l81 565l-128 -28l8 57l164 46h46z" />
    <glyph glyph-name="two" unicode="2" horiz-adv-x="601" 
d="M519 177l-25 -177h-460l9 60q16 117 39 164.5t77 78.5q19 11 45 23.5t46.5 21l61.5 25.5t67 28q53 22 76 42t28 53l4 31q10 71 -13 94t-102 23q-97 0 -166 -36l-20 -76h-60l17 127q123 50 240 50q115 0 155 -42t25 -146l-5 -32q-9 -60 -40 -89.5t-112 -61.5
q-19 -8 -66.5 -26.5t-83 -33t-54.5 -26.5q-41 -25 -56.5 -61t-29.5 -131h324l24 117h55z" />
    <glyph glyph-name="three" unicode="3" horiz-adv-x="573" 
d="M542 526l-4 -28q-9 -72 -32.5 -105.5t-65.5 -43.5q74 -19 58 -137l-6 -43q-13 -100 -65 -137t-176 -37q-89 0 -233 35l17 131h53l-5 -84q100 -21 171 -21q88 0 120.5 25t43.5 98l6 40q2 16 2.5 28t-2.5 22t-4.5 17.5t-10 13t-13 9t-18.5 6t-21 4t-27 2t-30 0.5h-36h-90
l8 59h87q47 0 70.5 1.5t49.5 7.5t38 19t21.5 35.5t14.5 58.5l3 22q10 72 -15.5 97t-108.5 25q-73 0 -169 -27l-22 -93h-54l18 140q140 42 231 42q124 0 167 -41t29 -141z" />
    <glyph glyph-name="four" unicode="4" horiz-adv-x="603" 
d="M15 248l427 452h80l-63 -452h99l-7 -51l-101 -7l-19 -130q31 -1 100 -7l-6 -53h-283l6 54q52 4 105 6l19 130h-365zM99 248h281l50 360z" />
    <glyph glyph-name="five" unicode="5" horiz-adv-x="570" 
d="M546 558h-54l6 80h-298l-52 -267q78 45 175 45h70q151 0 130 -149l-12 -84q-14 -108 -69.5 -149t-190.5 -41q-88 0 -241 37l17 130h54l-5 -85q102 -20 173 -20q100 0 139 29.5t50 108.5l9 69q15 96 -76 96h-70q-47 0 -81.5 -10.5t-82.5 -39.5l-62 20l69 372h421z" />
    <glyph glyph-name="six" unicode="6" horiz-adv-x="611" 
d="M371 421h36q102 0 139.5 -41t23.5 -139l-9 -59q-13 -98 -73.5 -143t-170.5 -45h-47q-118 0 -170.5 54.5t-36.5 169.5l35 247q35 244 272 244q113 0 228 -34l-15 -126h-65v74q-70 20 -152 20q-163 0 -189 -180l-15 -105q58 33 103 48t106 15zM156 307l-14 -100
q-12 -79 22 -113t114 -34h45q146 0 165 136l6 41q10 70 -14 97.5t-95 27.5h-31q-55 0 -98 -13t-100 -42z" />
    <glyph glyph-name="seven" unicode="7" horiz-adv-x="562" 
d="M585 638l-385 -638h-92l2 19l400 616h-354l-25 -107h-54l23 172h493z" />
    <glyph glyph-name="eight" unicode="8" horiz-adv-x="663" 
d="M612 538l-5 -34q-10 -65 -42.5 -100t-97.5 -48q146 -20 126 -162l-3 -18q-13 -95 -73 -140.5t-175 -45.5h-89q-116 0 -165.5 47.5t-36.5 142.5l2 18q10 71 51.5 110t120.5 49q-117 25 -99 152l5 34q12 84 69.5 124t166.5 40h57q107 0 153 -42t35 -127zM201 532l-4 -32
q-8 -60 22 -86t105 -26h51q74 0 113 28.5t47 88.5l5 32q7 59 -22.5 85t-103.5 27h-51q-146 0 -162 -117zM512 185l4 28q8 60 -23.5 89t-108.5 29h-80q-153 0 -170 -122l-4 -28q-9 -64 23 -96t109 -32h80q151 0 170 132z" />
    <glyph glyph-name="nine" unicode="9" horiz-adv-x="611" 
d="M267 281h-36q-103 0 -140 40.5t-23 138.5l8 59q27 190 239 190h59q122 0 169 -54t31 -173l-35 -250q-18 -130 -84.5 -184.5t-202.5 -54.5q-54 0 -95.5 8t-112.5 29l17 133h70l-8 -81q72 -23 133 -23q95 0 143 39.5t61 132.5l16 107q-62 -30 -105.5 -43.5t-103.5 -13.5z
M481 392l16 105q11 79 -20.5 113t-116.5 34h-45q-146 0 -165 -139l-6 -40q-10 -70 14 -98t95 -28h31q93 0 197 53z" />
    <glyph glyph-name="colon" unicode=":" horiz-adv-x="191" 
d="M122 426q-51 0 -45 49q7 42 53 42q52 0 44 -51q-4 -40 -52 -40zM61 -4q-50 0 -44 49q6 42 53 42q52 0 44 -51q-6 -40 -53 -40z" />
    <glyph glyph-name="semicolon" unicode=";" horiz-adv-x="191" 
d="M122 426q-51 0 -45 49q7 42 53 42q52 0 44 -51q-4 -40 -52 -40zM12 8l15 49q9 30 40 22q26 -5 36.5 -14t7.5 -29q-8 -57 -105 -156l-20 18q45 60 55 102z" />
    <glyph glyph-name="less" unicode="&#x3c;" horiz-adv-x="561" 
d="M540 539l-395 -189l-1 -4l342 -187l-7 -50h-36l-386 218l5 41l451 220h33z" />
    <glyph glyph-name="equal" unicode="=" horiz-adv-x="552" 
d="M529 498l-8 -65h-439l8 65h439zM497 264l-10 -65h-439l10 65h439z" />
    <glyph glyph-name="greater" unicode="&#x3e;" horiz-adv-x="561" 
d="M140 588l389 -220l-5 -41l-446 -218h-37l6 50l395 187l1 4l-342 189l7 49h32z" />
    <glyph glyph-name="question" unicode="?" horiz-adv-x="498" 
d="M60 534l16 125q74 30 123 40t115 10q116 0 156.5 -39.5t26.5 -140.5l-4 -29q-8 -58 -30.5 -89t-68.5 -48q-56 -20 -154 -54l-18 -116h-59l10 157q112 39 163 60q39 15 57.5 36.5t23.5 54.5l3 29q10 71 -12.5 94t-103.5 23q-89 0 -164 -35l-20 -78h-60zM167 -4
q-50 0 -44 49q6 42 53 42q50 0 44 -51q-6 -40 -53 -40z" />
    <glyph glyph-name="at" unicode="@" horiz-adv-x="1051" 
d="M770 501l-87 -348q-12 -47 2 -59.5t50 -12.5q81 0 141 73t77 196q22 152 -62 240t-251 88q-216 0 -360.5 -125t-172.5 -326q-24 -167 71.5 -264t278.5 -97q165 0 318 74l12 -32q-67 -35 -156.5 -56t-174.5 -21q-201 0 -306.5 109t-79.5 295q30 214 185 346t386 132
q184 0 279 -99.5t71 -268.5q-19 -138 -94 -220t-186 -82q-30 0 -48.5 2.5t-35.5 17.5t-16 43q-46 -41 -85 -59.5t-101 -18.5h-18q-77 0 -110 48.5t-10 142.5l29 122q17 77 68 119t117 42h25q83 0 162 -46l11 45h71zM617 158l60 251q-59 40 -138 40h-25q-49 0 -85.5 -34
t-51.5 -100l-20 -88q-15 -77 4 -110.5t80 -33.5h15q34 0 63 9.5t46 21t49 36.5z" />
    <glyph glyph-name="A" unicode="A" horiz-adv-x="792" 
d="M512 700l131 -638q47 -1 95 -6l-6 -56h-258l6 57q54 4 77 4l-31 152h-284l-74 -152l70 -5l-7 -56h-242l7 57q32 3 92 5l284 576l-85 6l6 56h219zM444 634h-4l-172 -354h250z" />
    <glyph glyph-name="B" unicode="B" horiz-adv-x="679" 
d="M633 520l-1 -15q-18 -116 -118 -144q107 -26 90 -154l-4 -22q-13 -99 -69.5 -142t-166.5 -43h-358l7 57q3 0 89 5l84 576l-90 6l7 56h342q111 0 156.5 -43.5t31.5 -136.5zM229 391h177q69 0 104.5 27t43.5 88l2 13q8 62 -18 88.5t-98 26.5h-177zM523 200l2 20
q9 59 -22.5 84.5t-102.5 25.5h-180l-36 -264h177q74 0 113 32t49 102z" />
    <glyph glyph-name="C" unicode="C" horiz-adv-x="654" 
d="M579 156l-8 -61q-42 -51 -105 -78t-134 -27h-67q-117 0 -166.5 55.5t-34.5 172.5l36 247q33 244 268 244h40q137 0 233 -40l-22 -168h-65l7 119q-27 12 -62 17.5t-57.5 6t-75.5 0.5q-79 0 -127 -46t-61 -134l-35 -254q-11 -80 23 -116.5t113 -36.5h55q120 0 180 101z" />
    <glyph glyph-name="D" unicode="D" horiz-adv-x="729" 
d="M103 700h387q231 0 201 -228l-36 -251q-16 -112 -80.5 -166.5t-180.5 -54.5h-388l7 57q58 4 89 6l84 575q-14 1 -90 6zM577 222l36 259q23 153 -137 153h-213l-79 -568h210q78 0 125.5 40t57.5 116z" />
    <glyph glyph-name="E" unicode="E" horiz-adv-x="645" 
d="M630 700l-24 -175h-51l5 111h-300l-35 -246h221l-10 -69h-221l-36 -257h310l27 111h51l-24 -175h-537l7 57q19 1 36.5 2t30.5 2t18 1l84 577q-5 0 -18.5 1t-30.5 2t-37 2l7 56h527z" />
    <glyph glyph-name="F" unicode="F" horiz-adv-x="625" 
d="M641 700l-24 -175h-51l5 111h-311l-38 -266h237l-10 -69h-237l-34 -240q69 -3 102 -5l-6 -56h-268l7 57q59 4 85 5l84 576l-86 6l7 56h538z" />
    <glyph glyph-name="G" unicode="G" horiz-adv-x="697" 
d="M641 346l-23 -165q-13 -92 -87 -141.5t-166 -49.5h-85q-247 0 -215 230l33 237q17 121 91 186.5t194 65.5h35q51 0 122.5 -10t124.5 -30l-22 -169h-65l6 115q-57 23 -201 23q-84 0 -138.5 -49t-67.5 -137l-34 -241q-10 -75 28.5 -112.5t122.5 -37.5h81q67 0 115.5 36
t57.5 94l13 89q-164 6 -229 9l6 57h303z" />
    <glyph glyph-name="H" unicode="H" horiz-adv-x="792" 
d="M813 700l-7 -57q-61 -4 -87 -5l-84 -577q27 -1 85 -5l-6 -56h-242l6 57q28 2 78 4l38 260h-375l-38 -260q20 -1 74 -5l-7 -56h-242l7 57q64 4 89 5l84 576q-17 1 -49 3t-41 3l7 56h243l-6 -57q-25 -2 -75 -4l-37 -251h375l36 251q-19 1 -76 5l7 56h243z" />
    <glyph glyph-name="I" unicode="I" horiz-adv-x="330" 
d="M352 700l-7 -57q-56 -4 -84 -5l-83 -576q15 -1 46.5 -3.5t35.5 -2.5l-6 -56h-248l7 57q59 4 85 5l84 576q-16 1 -48 3.5t-38 2.5l7 56h249z" />
    <glyph glyph-name="J" unicode="J" horiz-adv-x="336" 
d="M364 700l-7 -57q-56 -4 -83 -5l-76 -528q-12 -84 -33.5 -123t-84.5 -92q-30 -25 -62 -46l-33 37q5 4 41 36q45 41 64 80t29 113l75 523q-16 1 -46.5 3t-39.5 3l7 56h249z" />
    <glyph glyph-name="K" unicode="K" horiz-adv-x="751" 
d="M352 700l-7 -57q-56 -4 -84 -5l-36 -250h166l216 251q-22 1 -73 5l7 56h241l-7 -57q-26 -2 -83 -4l-241 -283l159 -295q27 -1 90 -5l-6 -56h-251l7 57q44 2 71 2l-136 261h-170l-37 -258q15 -1 46.5 -3.5t35.5 -2.5l-6 -56h-248l7 57q59 4 85 5l84 576q-16 1 -48 3.5
t-38 2.5l7 56h249z" />
    <glyph glyph-name="L" unicode="L" horiz-adv-x="624" 
d="M543 0h-537l7 57q26 2 55 3.5t30 1.5l84 577q-23 1 -86 5l7 56h258l-7 -57q-47 -5 -93 -6l-82 -573h308l28 124h54z" />
    <glyph glyph-name="M" unicode="M" horiz-adv-x="949" 
d="M971 700l-7 -57q-19 -1 -36.5 -2t-33 -2t-20.5 -1l-84 -576q16 -1 48 -3.5t40 -2.5l-7 -56h-239l6 57q27 2 75 4l78 541l-330 -602h-57l-149 602l-78 -541q16 -1 77 -5l-7 -56h-241l7 57q63 4 89 5l84 575q-33 2 -90 7l7 56h193l152 -582h2l323 582h198z" />
    <glyph glyph-name="N" unicode="N" horiz-adv-x="786" 
d="M807 700l-6 -57q-18 -2 -50.5 -4t-37.5 -2l-91 -637h-86l-289 579l-74 -518q20 -1 74 -5l-7 -56h-234l7 57q64 4 89 5l84 576l-90 6l7 56h167l297 -589l75 528q-21 1 -77 5l7 56h235z" />
    <glyph glyph-name="O" unicode="O" horiz-adv-x="716" 
d="M365 -10h-84q-117 0 -173.5 66.5t-41.5 179.5l32 229q17 114 90.5 179t191.5 65h83q117 0 173 -67t40 -182l-32 -228q-16 -113 -89.5 -177.5t-189.5 -64.5zM293 61h72q81 0 134.5 46t65.5 128l33 233q11 82 -28 126t-121 44h-72q-81 0 -134.5 -47t-65.5 -127l-33 -234
q-11 -81 28 -125t121 -44z" />
    <glyph glyph-name="P" unicode="P" horiz-adv-x="656" 
d="M103 700h355q104 0 151.5 -50.5t33.5 -146.5l-8 -58q-26 -187 -236 -187h-189l-29 -196q43 -1 89 -6l-6 -56h-258l7 57q57 4 89 5l84 576l-90 6zM563 460l6 41q9 65 -22 99t-100 34h-184l-44 -310h182q142 0 162 136z" />
    <glyph glyph-name="Q" unicode="Q" horiz-adv-x="716" 
d="M380 709h83q117 0 173 -67t40 -182l-32 -228q-16 -113 -89.5 -177.5t-189.5 -64.5h-84q-117 0 -173.5 66.5t-41.5 179.5l32 229q17 114 90.5 179t191.5 65zM449 640h-72q-81 0 -134.5 -47t-65.5 -127l-33 -238q-11 -81 28 -125t120 -44h73q81 0 134.5 46t65.5 128l33 237
q11 82 -28 126t-121 44zM245 -108l2 34q145 29 219 33q63 3 88 -24t27 -84l-62 -34q-9 54 -24.5 72.5t-59.5 19.5q-57 1 -190 -17z" />
    <glyph glyph-name="R" unicode="R" horiz-adv-x="691" 
d="M103 700h351q105 0 153.5 -50t35.5 -144l-6 -48q-18 -132 -160 -176q49 -106 79 -223q34 0 86 -4l-7 -55h-169l8 63q-32 133 -70 211h-192l-31 -214l77 -3l-6 -57h-246l7 57q60 4 89 5l84 576l-90 6zM221 337h182q68 0 110 34.5t50 91.5l5 41q9 63 -22 96.5t-100 33.5
h-183z" />
    <glyph glyph-name="S" unicode="S" horiz-adv-x="650" 
d="M129 205l-6 -113q69 -37 180 -37h13q88 0 126 26t47 93l5 31q7 51 -10.5 74t-75.5 37l-195 46q-71 20 -93.5 54.5t-11.5 105.5l1 14q13 94 72 133.5t183 39.5h21q122 0 231 -47l-21 -161h-62l6 114q-61 31 -159 31h-21q-81 0 -120 -26t-48 -85l-1 -13q-6 -41 7.5 -62
t55.5 -32l211 -49q72 -18 96.5 -55t13.5 -111l-6 -44q-13 -97 -71 -137t-184 -40h-26q-72 0 -126 13t-116 44l20 156h64z" />
    <glyph glyph-name="T" unicode="T" horiz-adv-x="684" 
d="M684 520h-56l10 114h-202l-82 -572q12 0 26.5 -1t32.5 -2.5t28 -2.5l-7 -56h-255l7 57q55 4 89 5l82 572h-204l-22 -114h-56l25 180h609z" />
    <glyph glyph-name="U" unicode="U" horiz-adv-x="768" 
d="M791 700l-6 -57q-56 -4 -77 -5l-60 -420q-17 -116 -82 -172t-181 -56h-64q-236 0 -203 232l59 417q-26 1 -82 5l6 56h251l-7 -57q-61 -4 -88 -5l-61 -427q-11 -75 23.5 -115t111.5 -40h59q77 0 124.5 42t58.5 118l61 423q-20 1 -84 5l7 56h234z" />
    <glyph glyph-name="V" unicode="V" horiz-adv-x="753" 
d="M794 700l-7 -57q-56 -4 -77 -5l-311 -638h-119l-128 639q-8 0 -76 5l7 56h253l-7 -57q-32 -2 -92 -4l109 -560h11l267 560q-14 0 -91 5l7 56h254z" />
    <glyph glyph-name="W" unicode="W" horiz-adv-x="1019" 
d="M1063 700l-7 -57q-50 -4 -73 -4l-262 -639h-102l-62 561h-3l-219 -561h-111l-79 639q-19 1 -71 5l6 56h247l-7 -57q-25 -2 -90 -4l62 -550h5l243 611h70l72 -610h6l223 549q-32 1 -90 5l6 56h236z" />
    <glyph glyph-name="X" unicode="X" horiz-adv-x="700" 
d="M423 353l157 -292q18 -1 73 -5l-7 -56h-243l6 57q52 2 75 2l-131 256h-2l-195 -254q18 -1 80 -5l-7 -56h-242l7 57q54 4 78 4l235 290l-160 288q-20 1 -74 5l6 56h251l-7 -57l-77 -3l132 -249h2l197 248q-17 1 -82 5l7 56h242l-6 -57q-59 -4 -78 -5z" />
    <glyph glyph-name="Y" unicode="Y" horiz-adv-x="707" 
d="M323 700l-7 -57l-77 -3l124 -325h2l217 324q-18 1 -78 5l6 56h239l-7 -57q-17 -2 -47 -4t-33 -2l-271 -385l-28 -190q16 -1 47 -3.5t35 -2.5l-6 -56h-247l6 57q63 4 86 5l28 187l-158 390q-8 0 -78 5l7 56h240z" />
    <glyph glyph-name="Z" unicode="Z" horiz-adv-x="628" 
d="M641 700l-7 -56l-503 -582h353l28 124h56l-26 -186h-524l7 50q1 12 13 25l498 563h-361l-28 -118h-56l25 180h525z" />
    <glyph glyph-name="bracketleft" unicode="[" horiz-adv-x="328" 
d="M353 708l-7 -53h-152l-104 -738h152l-7 -52h-221l118 843h221z" />
    <glyph glyph-name="backslash" unicode="\" horiz-adv-x="419" 
d="M386 -70h-49l-272 852h49z" />
    <glyph glyph-name="bracketright" unicode="]" horiz-adv-x="328" 
d="M204 -135h-221l7 52h153l104 738h-153l7 53h221z" />
    <glyph glyph-name="asciicircum" unicode="^" horiz-adv-x="389" 
d="M276 702l123 -196l-4 -28h-42l-102 156h-4l-147 -156h-44l4 28l179 196h37z" />
    <glyph glyph-name="underscore" unicode="_" horiz-adv-x="563" 
d="M514 -109l-6 -42h-567l5 42h568z" />
    <glyph glyph-name="grave" unicode="`" 
d="M373 605l-34 -21l-108 107v12l61 28z" />
    <glyph glyph-name="a" unicode="a" horiz-adv-x="597" 
d="M520 512l-59 -404q-3 -29 7.5 -43t40.5 -14h46l-7 -48q-32 -11 -73 -11q-94 0 -88 90q-61 -47 -110 -68.5t-110 -21.5h-18q-67 0 -98 43.5t-18 133.5l26 186q22 160 163 160h19q61 0 94.5 -10t98.5 -45l9 52h77zM189 57h17q45 0 85 16.5t97 55.5l41 281q-54 29 -82.5 36
t-82.5 7h-19q-50 0 -77.5 -30.5t-37.5 -101.5l-19 -135q-10 -69 8.5 -99t69.5 -30z" />
    <glyph glyph-name="b" unicode="b" horiz-adv-x="607" 
d="M248 700l-35 -240q68 38 110 51t105 13h19q67 0 98.5 -42t19.5 -124l-27 -193q-25 -173 -181 -173h-17q-86 0 -264 12l90 637q-66 6 -70 6l6 53h146zM465 184l20 146q10 70 -6.5 102.5t-65.5 32.5h-20q-50 0 -87.5 -12t-96.5 -47l-52 -348q71 -8 166 -8h17q105 0 125 134
z" />
    <glyph glyph-name="c" unicode="c" horiz-adv-x="536" 
d="M468 123l-6 -56q-34 -36 -86 -56.5t-107 -20.5h-53q-198 0 -169 195l21 151q13 93 71 140.5t154 47.5h36q96 0 182 -39l-17 -127h-57l5 83q-56 25 -144 25q-136 0 -155 -140l-21 -147q-9 -68 19 -98t94 -30h37q92 0 131 63l5 9h60z" />
    <glyph glyph-name="d" unicode="d" horiz-adv-x="599" 
d="M543 700l-84 -592q-3 -29 7.5 -43t40.5 -14h47l-6 -47q-34 -12 -76 -12q-41 0 -67.5 22t-22.5 70l1 11q-6 -4 -30.5 -21.5t-32 -22.5t-28 -18t-31.5 -17.5t-29 -11.5t-34.5 -9.5t-34.5 -2.5h-18q-67 0 -98 43.5t-18 133.5l26 190q12 82 55 123.5t110 41.5h18
q64 0 97.5 -11t98.5 -51l27 184q-2 0 -28.5 2t-55.5 4l6 48h160zM185 57h17q30 0 62.5 12.5t54.5 25.5t68 45l41 271q-55 34 -84.5 42t-83.5 8h-19q-95 0 -113 -126l-21 -149q-10 -69 8.5 -99t69.5 -30z" />
    <glyph glyph-name="e" unicode="e" horiz-adv-x="564" 
d="M308 524h32q204 0 177 -193l-15 -109h-376l-7 -51q-18 -124 115 -124h44q93 0 130 60l6 12h59l-6 -52q-67 -77 -195 -77h-40q-110 0 -154 50.5t-30 156.5l19 128q13 98 75 148.5t166 50.5zM441 276l9 71q10 61 -21 92t-96 31h-31q-66 0 -108.5 -35.5t-51.5 -99.5l-8 -59
h307z" />
    <glyph glyph-name="f" unicode="f" horiz-adv-x="378" 
d="M79 456l6 50q24 2 78 4l11 65q9 55 34.5 87t76.5 43q15 3 114 18l2 -53q-62 -15 -89 -22q-32 -9 -45.5 -29.5t-18.5 -59.5l-7 -47h156l-8 -56h-156l-71 -479q-28 -116 -114 -116q-37 0 -76 4l8 56h37q58 0 69 57l71 478h-78z" />
    <glyph glyph-name="g" unicode="g" horiz-adv-x="590" 
d="M601 512l-7 -54q-11 -1 -34 -2.5t-34 -2.5l-63 -440q-25 -175 -212 -175h-50q-57 0 -103 20.5t-69 59.5l6 45h60l1 -13q24 -56 112 -56h43q55 0 91.5 31t45.5 92l10 71q-62 -38 -108 -52t-111 -14h-19q-135 0 -113 160l25 181q22 160 157 160h18q59 0 101.5 -15t99.5 -48
l9 52h144zM200 86h19q51 0 89 12t97 48l39 264q-85 51 -175 51h-17q-49 0 -74 -31.5t-35 -100.5l-17 -119q-9 -65 7.5 -94.5t66.5 -29.5z" />
    <glyph glyph-name="h" unicode="h" horiz-adv-x="669" 
d="M607 51l-7 -48q-33 -11 -77 -11q-101 0 -88 109l36 252q9 68 -2.5 87.5t-61.5 19.5h-12q-77 0 -209 -88l-51 -372h-76l89 641q-2 0 -29 2t-41 4l7 53h146l-40 -277q146 101 245 101h11q67 0 91.5 -31t13.5 -107l-40 -278q-8 -57 48 -57h47z" />
    <glyph glyph-name="i" unicode="i" horiz-adv-x="297" 
d="M199 698q21 0 33.5 -13.5t9.5 -35.5q-3 -17 -17.5 -27.5t-33.5 -10.5q-21 0 -33.5 13t-9.5 34q3 18 17 29t34 11zM215 512l-58 -404q-3 -29 7.5 -43t40.5 -14h46l-7 -49q-33 -10 -76 -10q-47 0 -71.5 26t-16.5 83l52 352q-14 1 -40 3.5t-30 2.5l6 53h147z" />
    <glyph glyph-name="j" unicode="j" horiz-adv-x="267" 
d="M207 698q21 0 33.5 -13.5t9.5 -35.5q-3 -17 -17 -27.5t-34 -10.5q-21 0 -33.5 13t-9.5 34q2 18 17 29t34 11zM225 512l-61 -437q-10 -62 -30.5 -93.5t-83.5 -84.5q-30 -25 -62 -46l-30 37q4 3 17.5 15.5t23.5 21.5q46 41 64 72t25 83l54 373q-69 6 -71 6l6 53h148z" />
    <glyph glyph-name="k" unicode="k" horiz-adv-x="630" 
d="M615 512l-6 -54q-60 -4 -72 -5l-161 -176l85 -169q18 -33 32.5 -44.5t43.5 -11.5h44l-7 -56q-39 -4 -75 -4q-35 0 -61 23t-53 86l-72 143h-139l-28 -185q32 -1 75 -6l-6 -53h-228l7 54q62 4 76 5l84 582q-2 0 -29 2t-41 4l7 53h146l-55 -394h140l134 149q-11 0 -34.5 1.5
t-32.5 1.5l6 54h220z" />
    <glyph glyph-name="l" unicode="l" horiz-adv-x="308" 
d="M237 700l-84 -592q-8 -57 48 -57h47l-7 -50q-34 -9 -77 -9q-104 0 -88 109l78 540q-2 0 -29 2t-41 4l7 53h146z" />
    <glyph glyph-name="m" unicode="m" horiz-adv-x="1011" 
d="M958 51l-6 -50q-33 -9 -77 -9q-100 0 -88 101l37 260q9 67 -2.5 87t-61.5 20h-12q-45 0 -91.5 -21.5t-108.5 -65.5l-56 -373h-73l49 353q10 67 -1.5 87t-62.5 20h-12q-76 0 -195 -86l-56 -374h-76l67 453q-14 1 -40 3.5t-30 2.5l6 53h147l-13 -85q65 48 119 72.5
t113 24.5h11q59 0 83 -23t20 -82q68 52 124 78.5t117 26.5h11q67 0 91 -30.5t13 -107.5l-40 -278q-8 -57 48 -57h46z" />
    <glyph glyph-name="n" unicode="n" horiz-adv-x="669" 
d="M215 512l-14 -89q146 101 245 101h11q67 0 91.5 -31t13.5 -107l-40 -278q-8 -57 48 -57h45l-6 -50q-33 -9 -76 -9q-100 0 -88 101l36 260q9 68 -2.5 87.5t-61.5 19.5h-12q-77 0 -209 -88l-55 -372h-76l67 453q-14 1 -40 3.5t-30 2.5l6 53h147z" />
    <glyph glyph-name="o" unicode="o" horiz-adv-x="587" 
d="M285 -10h-52q-214 0 -185 206l18 124q14 105 72.5 154.5t167.5 49.5h51q211 0 182 -208l-18 -124q-14 -103 -72 -152.5t-164 -49.5zM236 48h53q135 0 154 130l23 161q18 128 -116 128h-53q-134 0 -153 -132l-23 -161q-18 -126 115 -126z" />
    <glyph glyph-name="p" unicode="p" horiz-adv-x="616" 
d="M445 524h18q135 0 109 -176l-27 -194q-11 -81 -53 -121.5t-109 -40.5h-18q-61 0 -100 13.5t-99 49.5l-24 -167q41 -2 87 -5l-7 -54h-239l6 55q29 2 77 4l82 565q-14 1 -40 3.5t-30 2.5l6 53h147l-11 -72q64 43 114.5 63.5t110.5 20.5zM474 189l20 142q10 70 -5.5 99.5
t-65.5 29.5h-17q-47 0 -90.5 -17t-101.5 -56l-41 -278q49 -35 83 -46t85 -11h20q50 0 76.5 33t36.5 104z" />
    <glyph glyph-name="q" unicode="q" horiz-adv-x="592" 
d="M524 512l-87 -624q13 -1 75 -5l-7 -54h-235l6 54q15 1 44.5 2.5t42.5 2.5l23 164q-68 -36 -106 -48t-100 -12h-18q-67 0 -99 42.5t-20 124.5l27 193q25 172 181 172h18q77 0 255 -12zM195 52h20q48 0 82.5 11.5t94.5 46.5l51 344q-80 9 -159 9h-17q-105 0 -124 -134
l-20 -142q-10 -71 6.5 -103t65.5 -32z" />
    <glyph glyph-name="r" unicode="r" horiz-adv-x="435" 
d="M231 512l-14 -95q50 54 92 77t96 23h41l-8 -70l-61 -3q-88 0 -166 -83l-53 -361h-76l66 453q-14 1 -40 3.5t-30 2.5l6 53h147z" />
    <glyph glyph-name="s" unicode="s" horiz-adv-x="535" 
d="M76 381l3 19q17 124 207 124h17q41 0 97.5 -10t95.5 -29l-14 -109h-62l5 71q-47 25 -132 25q-134 0 -146 -79l-1 -8q-6 -39 16.5 -52t106.5 -30q7 -1 11.5 -2t11.5 -2.5t13 -2.5q100 -20 133.5 -46.5t24.5 -88.5l-3 -23q-11 -79 -60.5 -113.5t-142.5 -34.5h-39
q-137 0 -187 69l14 93h55l-3 -67q25 -40 125 -40h34q60 0 92.5 22.5t39.5 74.5l2 15q6 41 -21 55.5t-131 34.5q-105 20 -137.5 47t-24.5 87z" />
    <glyph glyph-name="t" unicode="t" horiz-adv-x="388" 
d="M212 55h9q58 0 95 3l-5 -46q-63 -22 -131 -22h-10q-58 0 -79 32.5t-11 106.5l46 325h-68l8 58h53q20 0 23 23l19 126q34 6 69 7l-21 -156h154l-8 -58h-153l-42 -296q-9 -63 1 -83t51 -20z" />
    <glyph glyph-name="u" unicode="u" horiz-adv-x="668" 
d="M584 512l-58 -404q-3 -29 7.5 -43t40.5 -14h47l-6 -50q-33 -9 -76 -9q-89 0 -88 89l2 19q-73 -48 -130.5 -74t-115.5 -26h-11q-70 0 -93 29t-12 109l46 315q-4 0 -14 1t-28.5 2t-39.5 3l6 53h159l-48 -340q-10 -68 1.5 -87.5t62.5 -19.5h12q79 0 208 87l45 301
q-4 0 -13.5 1t-28.5 2t-40 3l6 53h159z" />
    <glyph glyph-name="v" unicode="v" horiz-adv-x="631" 
d="M651 512l-7 -54q-50 -5 -80 -5l-249 -453h-81l-117 453q-6 1 -31 2.5t-40 3.5l6 53h226l-6 -54q-8 0 -35.5 -1.5t-41.5 -1.5l91 -386h1l212 385q-17 1 -72 5l6 53h218z" />
    <glyph glyph-name="w" unicode="w" horiz-adv-x="875" 
d="M893 512l-6 -54q-59 -4 -73 -5l-198 -453h-90l-72 393l-185 -393h-86l-69 454q-12 1 -67 5l6 53h214l-6 -54q-16 -1 -41 -2.5t-35 -1.5l52 -380h2l200 438h62l81 -438h1l164 380q-10 0 -74 5l6 53h214z" />
    <glyph glyph-name="x" unicode="x" horiz-adv-x="593" 
d="M604 512l-6 -54q-28 -2 -81 -4l-172 -193l91 -153q20 -31 35.5 -43.5t44.5 -12.5h42l-8 -56q-36 -4 -71 -4q-34 0 -58.5 21t-62.5 85l-81 139h-1l-152 -180q3 0 33.5 -1t48.5 -2l-6 -54h-219l7 54q42 4 62 5l182 201l-111 193q-3 0 -30.5 2t-43.5 4l6 53h228l-6 -54
l-70 -3l94 -169h1l143 169q-40 2 -64 4l6 53h219z" />
    <glyph glyph-name="y" unicode="y" horiz-adv-x="652" 
d="M672 512l-6 -54q-48 -5 -82 -6l-314 -545q28 0 64 -3l-7 -53h-238l7 53q44 4 100 4l49 83l-131 463q-14 1 -68 5l6 53h233l-6 -54q-35 -2 -88 -4l101 -382h4l220 382q-9 0 -71 5l6 53h221z" />
    <glyph glyph-name="z" unicode="z" horiz-adv-x="552" 
d="M535 512l-7 -55l-418 -399h306l31 102h43l-27 -160h-458l6 48q4 18 19 28l407 380h-297l-23 -100h-44l24 156h438z" />
    <glyph glyph-name="braceleft" unicode="{" horiz-adv-x="354" 
d="M226 523l-68 -479q-9 -63 12.5 -95.5t87.5 -71.5l-19 -33q-86 39 -123 83t-26 121l30 211l-87 6l8 57l89 7l28 200q11 76 58.5 119t144.5 82l14 -37q-77 -38 -108.5 -72.5t-40.5 -97.5z" />
    <glyph glyph-name="bar" unicode="|" horiz-adv-x="233" 
d="M209 779l-128 -905h-38l127 905h39z" />
    <glyph glyph-name="braceright" unicode="}" horiz-adv-x="354" 
d="M136 49l68 479q9 63 -12 95.5t-88 71.5l19 33q86 -39 123 -83t26 -121l-27 -195l86 -7l-8 -57l-88 -6l-30 -215q-10 -77 -57.5 -119.5t-145.5 -82.5l-15 37q77 38 109 72.5t40 97.5z" />
    <glyph glyph-name="exclamdown" unicode="&#xa1;" horiz-adv-x="222" 
d="M161 630q52 0 44 -49q-4 -42 -52 -42q-52 0 -44 50q6 41 52 41zM34 12l79 416h44l-38 -416l-12 -86h-84z" />
    <glyph glyph-name="cent" unicode="&#xa2;" horiz-adv-x="536" 
d="M437 358l5 83q-54 24 -127 25l-58 -415h15q92 0 131 63l5 9h60l-6 -56q-34 -36 -86 -56.5t-107 -20.5h-5l-9 -62h-59l9 62q-185 6 -158 195l21 151q13 90 68 137.5t146 50.5l10 68h59l-9 -68q89 -3 169 -39l-17 -127h-57zM143 326l-21 -147q-9 -67 18 -97t91 -31l59 415
q-128 -5 -147 -140z" />
    <glyph glyph-name="sterling" unicode="&#xa3;" horiz-adv-x="605" 
d="M536 0h-534l8 58q60 46 94.5 93t33.5 109l-2 25h-100l7 47h99l-3 139q0 238 226 238h46q110 0 206 -40l-29 -160h-59l8 110q-25 12 -61.5 18t-53.5 6.5t-58 0.5q-72 0 -111.5 -46t-35.5 -130l5 -136h229l-15 -47h-214v-24q2 -61 -30 -107t-93 -90h381l28 124h55z" />
    <glyph glyph-name="yen" unicode="&#xa5;" horiz-adv-x="707" 
d="M749 700l-7 -57q-17 -2 -45.5 -4t-34.5 -2l-231 -328h150l-5 -35h-170l-15 -22l-8 -53h183l-5 -35h-183l-15 -102q16 -1 47 -3.5t35 -2.5l-6 -56h-247l6 57q62 4 86 5l15 102h-182l5 35h183l7 50l-10 25h-170l5 35h151l-135 330q-7 0 -77 5l7 56h240l-7 -57l-77 -3
l124 -325h2l217 324q-23 1 -78 5l6 56h239z" />
    <glyph glyph-name="section" unicode="&#xa7;" horiz-adv-x="682" 
d="M292 493l216 -36q75 -13 100 -36t17 -76l-3 -27q-6 -37 -25 -60.5t-61 -37.5q31 -22 22 -85l-1 -7q-10 -74 -61 -105t-173 -31h-18q-120 0 -214 47l16 121h56l-5 -81q52 -33 152 -33h18q82 0 118.5 22t42.5 66l1 5q5 34 -6.5 48t-50.5 21l-231 35q-74 13 -99.5 36
t-18.5 76l4 27q9 63 102 99q-40 22 -31 84l1 8q11 74 57.5 105t161.5 31h18q122 0 214 -47l-16 -121h-54l6 81q-50 32 -159 32h-13q-78 0 -109 -21t-38 -66l-1 -6q-4 -34 8.5 -47t56.5 -21zM149 378l-3 -20q-4 -31 12 -44t67 -22l232 -35q19 -5 35 -7q37 12 51 29.5t17 43.5
l3 20q4 31 -11.5 44t-66.5 21l-223 37q-2 0 -32 7q-73 -26 -81 -74z" />
    <glyph glyph-name="dieresis" unicode="&#xa8;" 
d="M214 617q-18 0 -29 11.5t-9 29.5q2 15 14.5 24.5t29.5 9.5q18 0 29 -12t8 -31q-1 -14 -13.5 -23t-29.5 -9zM392 617q-18 0 -29 11.5t-8 29.5q2 16 14 25t29 9q18 0 29 -12t9 -31q-2 -14 -14.5 -23t-29.5 -9z" />
    <glyph glyph-name="copyright" unicode="&#xa9;" horiz-adv-x="865" 
d="M397 -15q-173 0 -257 98t-59 271q24 170 133 265.5t280 95.5q172 0 256 -98t60 -271q-24 -170 -133 -265.5t-280 -95.5zM396 16q159 0 259 88t122 250q22 156 -53 243t-229 87q-159 0 -259 -88t-122 -250q-22 -156 53 -243t229 -87zM593 251l-4 -41q-62 -69 -163 -69h-31
q-77 0 -112.5 41.5t-25.5 117.5l12 88q24 164 182 164h31q65 0 141 -29l-13 -97h-45l2 63q-7 3 -13.5 5.5t-12 4t-12 3t-10.5 2.5t-11 1.5t-10 1t-10.5 0.5h-11h-12h-12.5q-111 0 -128 -124l-12 -86q-16 -109 92 -109h22q46 0 70.5 13.5t52.5 51.5z" />
    <glyph glyph-name="ordfeminine" unicode="&#xaa;" horiz-adv-x="505" 
d="M349 287l8 58q-52 -35 -88 -50t-83 -15h-15q-64 0 -86 21t-13 85l3 23q9 59 37 82t92 30q21 2 180 13l3 29q9 61 -9 81t-73 20q-67 0 -121 -17l-14 -59h-44l12 95q83 26 170 26h27q132 0 111 -146l-33 -230q10 0 31 -1.5t31 -2.5l-6 -42h-120zM197 325h14q66 0 151 57
l18 121q-83 -4 -159 -15q-42 -4 -61.5 -21.5t-24.5 -55.5l-3 -19q-6 -42 6 -54.5t59 -12.5z" />
    <glyph glyph-name="guillemotleft" unicode="&#xab;" horiz-adv-x="494" 
d="M136 262l117 -170l-3 -25h-45l-145 195v6l200 195h46l-3 -26l-165 -169zM313 262l116 -170l-3 -25h-44l-145 195v6l199 195h46l-3 -26l-165 -169z" />
    <glyph glyph-name="registered" unicode="&#xae;" horiz-adv-x="419" 
d="M271 715q88 0 130.5 -50t30.5 -139q-12 -86 -67 -134t-141 -48q-88 0 -130.5 50.5t-29.5 140.5q12 85 66.5 132.5t140.5 47.5zM273 692q-162 0 -186 -166q-10 -76 25.5 -117t109.5 -41q163 0 187 167q10 75 -26.5 116t-109.5 41zM178 631h99q29 0 43.5 -16t10.5 -43
l-1 -8q-6 -40 -39 -52q11 -21 17 -49q2 0 11.5 -1.5t14.5 -2.5l-1 -19h-56l3 15q-4 28 -20 55h-44l-7 -46l23 -2l-3 -22h-77l3 22l24 2l21 142l-24 3zM228 606l-10 -72h47q31 0 35 33l2 7q5 32 -30 32h-44z" />
    <glyph glyph-name="macron" unicode="&#xaf;" 
d="M427 656l-6 -48h-242l6 48h242z" />
    <glyph glyph-name="degree" unicode="&#xb0;" horiz-adv-x="398" 
d="M244 428h-39q-124 0 -107 122l6 41q9 61 41 90t98 29h38q124 0 107 -124l-6 -40q-9 -60 -41 -89t-97 -29zM215 474h28q76 0 87 79l5 35q5 41 -8 59t-55 18h-28q-42 0 -62.5 -20.5t-26.5 -60.5l-5 -36q-5 -39 8.5 -56.5t56.5 -17.5z" />
    <glyph glyph-name="twosuperior" unicode="&#xb2;" horiz-adv-x="400" 
d="M371 412l-16 -117h-300l6 44q10 71 32.5 105t71.5 52q44 15 90 29q45 14 64.5 29.5t22.5 38.5l2 14q5 33 -11 44.5t-62 11.5q-72 0 -107 -15l-13 -52h-43l10 86q73 26 155 26q76 0 104 -22.5t20 -80.5l-2 -16q-6 -37 -29 -60t-78 -40q-65 -19 -87 -27q-45 -17 -63 -41
t-27 -82h207l15 73h38z" />
    <glyph glyph-name="threesuperior" unicode="&#xb3;" horiz-adv-x="371" 
d="M370 599l-2 -11q-6 -41 -20.5 -63.5t-45.5 -30.5q52 -11 42 -85l-2 -13q-9 -60 -42 -81.5t-113 -21.5q-66 0 -150 20l11 89h39l-4 -55q60 -11 106 -11q52 0 74 15.5t27 54.5l1 12q6 36 -8 48t-51 12h-97l5 41h96q35 0 54.5 15.5t25.5 53.5l1 10q5 39 -11.5 52.5
t-66.5 13.5q-53 0 -106 -14l-13 -53h-38l11 88q80 23 147 23q83 0 111 -23.5t19 -85.5z" />
    <glyph glyph-name="acute" unicode="&#xb4;" 
d="M394 703l-2 -12l-137 -107l-29 21l114 126z" />
    <glyph glyph-name="paragraph" unicode="&#xb6;" horiz-adv-x="550" 
d="M580 700l-6 -57q-24 -3 -76 -7l-103 -726h-58l104 736h-71l-104 -736h-59l56 403h-12q-107 0 -153 39t-32 145l3 20q16 110 69.5 146.5t164.5 36.5h277z" />
    <glyph glyph-name="periodcentered" unicode="&#xb7;" horiz-adv-x="191" 
d="M97 243q-53 0 -45 49q6 42 52 42q52 0 44 -50q-4 -41 -51 -41z" />
    <glyph glyph-name="cedilla" unicode="&#xb8;" 
d="M184 -38h39q72 0 63 -63l-2 -9q-4 -33 -24 -47t-58 -15q-44 0 -98 9l2 24h96q18 0 30.5 10.5t14.5 25.5v4q2 18 -4.5 25t-28.5 7h-74l26 67h28z" />
    <glyph glyph-name="onesuperior" unicode="&#xb9;" horiz-adv-x="322" 
d="M273 708l-53 -369q11 0 38 -1.5t43 -2.5l-5 -40h-235l5 40q45 4 96 4l45 319l-109 -27l5 37l134 40h36z" />
    <glyph glyph-name="ordmasculine" unicode="&#xba;" horiz-adv-x="468" 
d="M261 279h-42q-169 0 -148 162l16 109q11 82 57 120.5t133 38.5h42q85 0 120.5 -40t24.5 -123l-16 -110q-12 -82 -57 -119.5t-130 -37.5zM221 325h43q110 0 125 107l18 128q7 54 -15.5 79t-77.5 25h-43q-109 0 -124 -108l-19 -129q-15 -102 93 -102z" />
    <glyph glyph-name="guillemotright" unicode="&#xbb;" horiz-adv-x="494" 
d="M97 437l3 26h45l145 -195v-6l-200 -195h-46l3 25l165 170l1 6zM273 437l3 26h45l145 -195v-6l-200 -195h-46l3 25l165 170l1 6z" />
    <glyph glyph-name="onequarter" unicode="&#xbc;" horiz-adv-x="808" 
d="M282 708l-53 -369q14 0 43.5 -1.5t44.5 -2.5l-5 -40h-249l4 40q70 4 104 4l45 319l-109 -27l5 37l134 40h36zM753 708l-310 -355l-308 -359h-39l316 359l302 355h39zM671 111l-10 -69q17 0 77 -4l-4 -38h-224l4 39q30 2 89 4l10 67h-231l5 41l267 260h59l-36 -260h80
l-5 -37zM648 363l-210 -212h180z" />
    <glyph glyph-name="onehalf" unicode="&#xbd;" horiz-adv-x="848" 
d="M277 708l-53 -369q14 0 43.5 -1.5t44.5 -2.5l-5 -40h-249l4 40q70 4 104 4l45 319l-109 -27l5 37l134 40h36zM741 708l-310 -355l-308 -359h-39l316 359l302 355h39zM780 117l-16 -117h-300l6 44q9 69 33.5 105.5t78.5 55.5q68 21 82 25q45 14 64.5 29.5t22.5 38.5l2 14
q5 34 -9.5 45t-63.5 11q-72 0 -107 -15l-13 -52h-43l10 86q73 26 155 26q76 0 104 -22.5t20 -80.5l-3 -24q-5 -31 -28.5 -53t-77.5 -41l-87 -27q-44 -16 -61.5 -39.5t-25.5 -81.5h203l16 73h38z" />
    <glyph glyph-name="threequarters" unicode="&#xbe;" horiz-adv-x="846" 
d="M394 599l-2 -11q-5 -40 -20 -61t-46 -29q53 -11 42 -89l-2 -13q-9 -60 -42 -81.5t-113 -21.5q-66 0 -150 20l11 89h39l-4 -55q60 -11 106 -11q52 0 74 15.5t27 54.5l1 12q6 36 -8 49t-51 13h-97l5 39h96q35 0 54.5 15.5t25.5 53.5l1 10q6 40 -10 53t-68 13
q-53 0 -106 -14l-13 -53h-38l11 88q81 23 147 23q83 0 111 -23.5t19 -85.5zM799 708l-310 -355l-308 -359h-39l316 359l302 355h39zM725 111l-10 -69q17 0 77 -4l-4 -38h-224l4 39q30 2 89 4l10 67h-231l5 41l267 260h59l-36 -260h80l-5 -37zM702 363l-210 -212h180z" />
    <glyph glyph-name="questiondown" unicode="&#xbf;" horiz-adv-x="498" 
d="M346 630q53 0 45 -49q-6 -42 -52 -42q-52 0 -44 50q6 41 51 41zM454 91l-16 -124q-73 -30 -122.5 -40t-115.5 -10q-116 0 -156.5 39.5t-26.5 140.5l4 29q8 58 30.5 89t68.5 48q88 30 154 54l18 116h59l-10 -157q-74 -25 -163 -60q-39 -15 -57.5 -36.5t-23.5 -55.5l-3 -28
q-10 -71 12.5 -94t103.5 -23q88 0 165 35l20 77h59z" />
    <glyph glyph-name="Agrave" unicode="&#xc0;" horiz-adv-x="792" 
d="M509 770l-33 -20l-108 107v12l61 28zM512 700l131 -638q47 -1 95 -6l-6 -56h-258l6 57q54 4 77 4l-31 152h-284l-74 -152l70 -5l-7 -56h-242l7 57q32 3 92 5l284 576l-85 6l6 56h219zM440 634l-172 -354h250l-74 354h-4z" />
    <glyph glyph-name="Aacute" unicode="&#xc1;" horiz-adv-x="792" 
d="M574 869l-2 -12l-140 -109l-31 22l116 128zM512 700l131 -638q47 -1 95 -6l-6 -56h-258l6 57q54 4 77 4l-31 152h-284l-74 -152l70 -5l-7 -56h-242l7 57q32 3 92 5l284 576l-85 6l6 56h219zM440 634l-172 -354h250l-74 354h-4z" />
    <glyph glyph-name="Acircumflex" unicode="&#xc2;" horiz-adv-x="792" 
d="M572 753l-100 89l-125 -89l-23 21l129 116h49l97 -116zM512 700l131 -638q47 -1 95 -6l-6 -56h-258l6 57q54 4 77 4l-31 152h-284l-74 -152l70 -5l-7 -56h-242l7 57q32 3 92 5l284 576l-85 6l6 56h219zM440 634l-172 -354h250l-74 354h-4z" />
    <glyph glyph-name="Atilde" unicode="&#xc3;" horiz-adv-x="792" 
d="M640 856l-78 -74q-23 -22 -47 -22q-12 0 -25 11t-32.5 31.5t-37.5 33.5l-103 -74l-21 20l74 70q27 27 51 27q13 0 26.5 -11t32.5 -32t36 -33l102 73zM512 700l131 -638q47 -1 95 -6l-6 -56h-258l6 57q54 4 77 4l-31 152h-284l-74 -152l70 -5l-7 -56h-242l7 57q32 3 92 5
l284 576l-85 6l6 56h219zM440 634l-172 -354h250l-74 354h-4z" />
    <glyph glyph-name="Adieresis" unicode="&#xc4;" horiz-adv-x="792" 
d="M373 780q-20 0 -31.5 12.5t-9.5 31.5q3 17 16 26.5t31 9.5q20 0 31.5 -12.5t8.5 -32.5q-2 -16 -15 -25.5t-31 -9.5zM557 780q-19 0 -30.5 12.5t-9.5 31.5q3 17 16 26.5t31 9.5q20 0 31.5 -12.5t8.5 -32.5q-2 -16 -15.5 -25.5t-31.5 -9.5zM512 700l131 -638q47 -1 95 -6
l-6 -56h-258l6 57q54 4 77 4l-31 152h-284l-74 -152l70 -5l-7 -56h-242l7 57q32 3 92 5l284 576l-85 6l6 56h219zM440 634l-172 -354h250l-74 354h-4z" />
    <glyph glyph-name="Aring" unicode="&#xc5;" horiz-adv-x="792" 
d="M469 745h-21q-32 0 -49 19.5t-13 52.5l3 18q9 67 79 67h21q33 0 50 -19.5t12 -51.5l-3 -19q-4 -33 -25 -50t-54 -17zM452 776h18q39 0 44 40l3 19q4 37 -34 37h-14q-43 0 -47 -39l-2 -20q-6 -37 32 -37zM512 700l131 -638q47 -1 95 -6l-6 -56h-258l6 57q54 4 77 4
l-31 152h-284l-74 -152l70 -5l-7 -56h-242l7 57q32 3 92 5l284 576l-85 6l6 56h219zM440 634l-172 -354h250l-74 354h-4z" />
    <glyph glyph-name="AE" unicode="&#xc6;" horiz-adv-x="1084" 
d="M664 388h221l-9 -65h-221l-37 -259h310l27 111h51l-24 -175h-537l7 57q25 2 53.5 3.5t31.5 1.5l24 160h-277l-115 -161q23 -1 71 -5l-6 -56h-245l7 57q31 3 91 5l414 575q-31 2 -91 7l7 56h652l-24 -175h-51l5 111h-300zM619 636h-44l-248 -351h242z" />
    <glyph glyph-name="Ccedilla" unicode="&#xc7;" horiz-adv-x="654" 
d="M554 501l7 119q-27 12 -62 17.5t-57.5 6t-75.5 0.5q-79 0 -127 -46t-61 -134l-35 -254q-11 -80 23 -116.5t113 -36.5h55q120 0 180 101l65 -2l-8 -61q-42 -51 -105 -78t-134 -27h-58l-7 -28h39q72 0 63 -63l-2 -9q-4 -33 -24 -47t-58 -15q-44 0 -98 9l2 24h96
q18 0 30.5 10.5t14.5 25.5v4q2 18 -4.5 25t-28.5 7h-74l22 57q-106 5 -150.5 60.5t-30.5 167.5l36 247q33 244 268 244h40q137 0 233 -40l-22 -168h-65z" />
    <glyph glyph-name="Egrave" unicode="&#xc8;" horiz-adv-x="645" 
d="M440 770l-33 -20l-108 107v12l61 28zM606 525h-51l5 111h-300l-35 -246h221l-10 -69h-221l-36 -257h310l27 111h51l-24 -175h-537l7 57q19 1 36.5 2t30.5 2t18 1l84 577q-5 0 -18.5 1t-30.5 2t-37 2l7 56h527z" />
    <glyph glyph-name="Eacute" unicode="&#xc9;" horiz-adv-x="645" 
d="M504 869l-2 -12l-140 -109l-31 22l116 128zM606 525h-51l5 111h-300l-35 -246h221l-10 -69h-221l-36 -257h310l27 111h51l-24 -175h-537l7 57q19 1 36.5 2t30.5 2t18 1l84 577q-5 0 -18.5 1t-30.5 2t-37 2l7 56h527z" />
    <glyph glyph-name="Ecircumflex" unicode="&#xca;" horiz-adv-x="645" 
d="M502 753l-100 89l-125 -89l-23 21l129 116h49l97 -116zM606 525h-51l5 111h-300l-35 -246h221l-10 -69h-221l-36 -257h310l27 111h51l-24 -175h-537l7 57q19 1 36.5 2t30.5 2t18 1l84 577q-5 0 -18.5 1t-30.5 2t-37 2l7 56h527z" />
    <glyph glyph-name="Edieresis" unicode="&#xcb;" horiz-adv-x="645" 
d="M303 780q-20 0 -31.5 12.5t-9.5 31.5q3 17 16 26.5t31 9.5q20 0 31.5 -12.5t8.5 -32.5q-2 -16 -15 -25.5t-31 -9.5zM487 780q-19 0 -30.5 12.5t-9.5 31.5q3 17 16 26.5t31 9.5q20 0 31.5 -12.5t8.5 -32.5q-2 -16 -15.5 -25.5t-31.5 -9.5zM606 525h-51l5 111h-300
l-35 -246h221l-10 -69h-221l-36 -257h310l27 111h51l-24 -175h-537l7 57q19 1 36.5 2t30.5 2t18 1l84 577q-5 0 -18.5 1t-30.5 2t-37 2l7 56h527z" />
    <glyph glyph-name="Igrave" unicode="&#xcc;" horiz-adv-x="330" 
d="M286 770l-33 -20l-108 107v12l61 28zM352 700l-7 -57q-56 -4 -84 -5l-83 -576q15 -1 46.5 -3.5t35.5 -2.5l-6 -56h-248l7 57q59 4 85 5l84 576q-16 1 -48 3.5t-38 2.5l7 56h249z" />
    <glyph glyph-name="Iacute" unicode="&#xcd;" horiz-adv-x="330" 
d="M350 869l-2 -12l-140 -109l-31 22l116 128zM352 700l-7 -57q-56 -4 -84 -5l-83 -576q15 -1 46.5 -3.5t35.5 -2.5l-6 -56h-248l7 57q59 4 85 5l84 576q-16 1 -48 3.5t-38 2.5l7 56h249z" />
    <glyph glyph-name="Icircumflex" unicode="&#xce;" horiz-adv-x="330" 
d="M348 753l-100 89l-125 -89l-23 21l129 116h49l97 -116zM352 700l-7 -57q-56 -4 -84 -5l-83 -576q15 -1 46.5 -3.5t35.5 -2.5l-6 -56h-248l7 57q59 4 85 5l84 576q-16 1 -48 3.5t-38 2.5l7 56h249z" />
    <glyph glyph-name="Idieresis" unicode="&#xcf;" horiz-adv-x="330" 
d="M149 780q-20 0 -31.5 12.5t-9.5 31.5q3 17 16 26.5t31 9.5q20 0 31.5 -12.5t8.5 -32.5q-2 -16 -15 -25.5t-31 -9.5zM333 780q-19 0 -30.5 12.5t-9.5 31.5q3 17 16 26.5t31 9.5q20 0 31.5 -12.5t8.5 -32.5q-2 -16 -15.5 -25.5t-31.5 -9.5zM352 700l-7 -57q-56 -4 -84 -5
l-83 -576q15 -1 46.5 -3.5t35.5 -2.5l-6 -56h-248l7 57q59 4 85 5l84 576q-16 1 -48 3.5t-38 2.5l7 56h249z" />
    <glyph glyph-name="Eth" unicode="&#xd0;" horiz-adv-x="729" 
d="M103 700h387q231 0 201 -228l-36 -251q-16 -112 -80.5 -166.5t-180.5 -54.5h-388l7 57q58 4 89 6l37 255h-83l7 49h83l40 271q-14 1 -90 6zM577 222l36 259q23 153 -137 153h-213l-37 -267h92l-7 -49h-92l-35 -252h210q78 0 125.5 40t57.5 116z" />
    <glyph glyph-name="Ntilde" unicode="&#xd1;" horiz-adv-x="786" 
d="M642 856l-78 -74q-23 -22 -47 -22q-12 0 -25 11t-32.5 31.5t-37.5 33.5l-103 -74l-21 20l74 70q27 27 51 27q13 0 26.5 -11t32.5 -32t36 -33l102 73zM807 700l-6 -57q-18 -2 -50.5 -4t-37.5 -2l-91 -637h-86l-289 579l-74 -518q20 -1 74 -5l-7 -56h-234l7 57q64 4 89 5
l84 576l-90 6l7 56h167l297 -589l75 528q-21 1 -77 5l7 56h235z" />
    <glyph glyph-name="Ograve" unicode="&#xd2;" horiz-adv-x="716" 
d="M478 770l-33 -20l-108 107v12l61 28zM365 -10h-84q-117 0 -173.5 66.5t-41.5 179.5l32 229q17 114 90.5 179t191.5 65h83q117 0 173 -67t40 -182l-32 -228q-16 -113 -89.5 -177.5t-189.5 -64.5zM293 61h72q81 0 134.5 46t65.5 128l33 233q11 82 -28 126t-121 44h-72
q-81 0 -134.5 -47t-65.5 -127l-33 -234q-11 -81 28 -125t121 -44z" />
    <glyph glyph-name="Oacute" unicode="&#xd3;" horiz-adv-x="716" 
d="M543 869l-2 -12l-140 -109l-31 22l116 128zM365 -10h-84q-117 0 -173.5 66.5t-41.5 179.5l32 229q17 114 90.5 179t191.5 65h83q117 0 173 -67t40 -182l-32 -228q-16 -113 -89.5 -177.5t-189.5 -64.5zM293 61h72q81 0 134.5 46t65.5 128l33 233q11 82 -28 126t-121 44
h-72q-81 0 -134.5 -47t-65.5 -127l-33 -234q-11 -81 28 -125t121 -44z" />
    <glyph glyph-name="Ocircumflex" unicode="&#xd4;" horiz-adv-x="716" 
d="M541 753l-100 89l-125 -89l-23 21l129 116h49l97 -116zM365 -10h-84q-117 0 -173.5 66.5t-41.5 179.5l32 229q17 114 90.5 179t191.5 65h83q117 0 173 -67t40 -182l-32 -228q-16 -113 -89.5 -177.5t-189.5 -64.5zM293 61h72q81 0 134.5 46t65.5 128l33 233q11 82 -28 126
t-121 44h-72q-81 0 -134.5 -47t-65.5 -127l-33 -234q-11 -81 28 -125t121 -44z" />
    <glyph glyph-name="Otilde" unicode="&#xd5;" horiz-adv-x="716" 
d="M609 856l-78 -74q-23 -22 -47 -22q-12 0 -25 11t-32.5 31.5t-37.5 33.5l-103 -74l-21 20l74 70q27 27 51 27q13 0 26.5 -11t32.5 -32t36 -33l102 73zM365 -10h-84q-117 0 -173.5 66.5t-41.5 179.5l32 229q17 114 90.5 179t191.5 65h83q117 0 173 -67t40 -182l-32 -228
q-16 -113 -89.5 -177.5t-189.5 -64.5zM293 61h72q81 0 134.5 46t65.5 128l33 233q11 82 -28 126t-121 44h-72q-81 0 -134.5 -47t-65.5 -127l-33 -234q-11 -81 28 -125t121 -44z" />
    <glyph glyph-name="Odieresis" unicode="&#xd6;" horiz-adv-x="716" 
d="M342 780q-20 0 -31.5 12.5t-9.5 31.5q3 17 16 26.5t31 9.5q20 0 31.5 -12.5t8.5 -32.5q-2 -16 -15 -25.5t-31 -9.5zM526 780q-19 0 -30.5 12.5t-9.5 31.5q3 17 16 26.5t31 9.5q20 0 31.5 -12.5t8.5 -32.5q-2 -16 -15.5 -25.5t-31.5 -9.5zM365 -10h-84q-117 0 -173.5 66.5
t-41.5 179.5l32 229q17 114 90.5 179t191.5 65h83q117 0 173 -67t40 -182l-32 -228q-16 -113 -89.5 -177.5t-189.5 -64.5zM293 61h72q81 0 134.5 46t65.5 128l33 233q11 82 -28 126t-121 44h-72q-81 0 -134.5 -47t-65.5 -127l-33 -234q-11 -81 28 -125t121 -44z" />
    <glyph glyph-name="multiply" unicode="&#xd7;" horiz-adv-x="585" 
d="M99 131l-38 43l201 176l-151 173l50 45l149 -176l201 178l38 -44l-202 -175l152 -176l-49 -44l-150 177z" />
    <glyph glyph-name="Oslash" unicode="&#xd8;" horiz-adv-x="716" 
d="M728 730l-85 -99q47 -67 32 -171l-32 -228q-16 -113 -89.5 -177.5t-189.5 -64.5h-84q-94 0 -149 43l-56 -65h-37l72 84q-60 66 -45 184l32 229q17 114 90.5 179t191.5 65h83q106 0 162 -56l66 77h38zM176 464l-33 -234q-10 -70 20 -116l408 477q-38 47 -123 47h-72
q-81 0 -134.5 -47t-65.5 -127zM564 235l33 233q8 60 -10 98l-404 -473q38 -32 109 -32h72q81 0 134.5 46t65.5 128z" />
    <glyph glyph-name="Ugrave" unicode="&#xd9;" horiz-adv-x="768" 
d="M508 770l-33 -20l-108 107v12l61 28zM791 700l-6 -57q-56 -4 -77 -5l-60 -420q-17 -116 -82 -172t-181 -56h-64q-236 0 -203 232l59 417q-26 1 -82 5l6 56h251l-7 -57q-61 -4 -88 -5l-61 -427q-11 -75 23.5 -115t111.5 -40h59q77 0 124.5 42t58.5 118l61 423q-20 1 -84 5
l7 56h234z" />
    <glyph glyph-name="Uacute" unicode="&#xda;" horiz-adv-x="768" 
d="M573 869l-2 -12l-140 -109l-31 22l116 128zM791 700l-6 -57q-56 -4 -77 -5l-60 -420q-17 -116 -82 -172t-181 -56h-64q-236 0 -203 232l59 417q-26 1 -82 5l6 56h251l-7 -57q-61 -4 -88 -5l-61 -427q-11 -75 23.5 -115t111.5 -40h59q77 0 124.5 42t58.5 118l61 423
q-20 1 -84 5l7 56h234z" />
    <glyph glyph-name="Ucircumflex" unicode="&#xdb;" horiz-adv-x="768" 
d="M571 753l-100 89l-125 -89l-23 21l129 116h49l97 -116zM791 700l-6 -57q-56 -4 -77 -5l-60 -420q-17 -116 -82 -172t-181 -56h-64q-236 0 -203 232l59 417q-26 1 -82 5l6 56h251l-7 -57q-61 -4 -88 -5l-61 -427q-11 -75 23.5 -115t111.5 -40h59q77 0 124.5 42t58.5 118
l61 423q-20 1 -84 5l7 56h234z" />
    <glyph glyph-name="Udieresis" unicode="&#xdc;" horiz-adv-x="768" 
d="M372 780q-20 0 -31.5 12.5t-9.5 31.5q3 17 16 26.5t31 9.5q20 0 31.5 -12.5t8.5 -32.5q-2 -16 -15 -25.5t-31 -9.5zM556 780q-19 0 -30.5 12.5t-9.5 31.5q3 17 16 26.5t31 9.5q20 0 31.5 -12.5t8.5 -32.5q-2 -16 -15.5 -25.5t-31.5 -9.5zM791 700l-6 -57q-56 -4 -77 -5
l-60 -420q-17 -116 -82 -172t-181 -56h-64q-236 0 -203 232l59 417q-26 1 -82 5l6 56h251l-7 -57q-61 -4 -88 -5l-61 -427q-11 -75 23.5 -115t111.5 -40h59q77 0 124.5 42t58.5 118l61 423q-20 1 -84 5l7 56h234z" />
    <glyph glyph-name="Yacute" unicode="&#xdd;" horiz-adv-x="707" 
d="M540 869l-2 -12l-140 -109l-31 22l116 128zM316 643l-77 -3l124 -325h2l217 324q-18 1 -78 5l6 56h239l-7 -57q-17 -2 -47 -4t-33 -2l-271 -385l-28 -190q16 -1 47 -3.5t35 -2.5l-6 -56h-247l6 57q63 4 86 5l28 187l-158 390q-8 0 -78 5l7 56h240z" />
    <glyph glyph-name="Thorn" unicode="&#xde;" horiz-adv-x="634" 
d="M248 556h172q210 0 183 -189l-7 -50q-13 -92 -70 -135.5t-162 -43.5h-174l-20 -138h-164l7 57q29 3 85 5l84 576q-38 1 -86 6l7 56h165zM523 332l5 34q18 126 -114 126h-174l-42 -290h172q136 0 153 130z" />
    <glyph glyph-name="germandbls" unicode="&#xdf;" horiz-adv-x="676" 
d="M155 512l3 19q28 200 256 200h47q183 0 160 -168l-4 -38q-10 -67 -37 -101t-72 -44q115 -14 96 -145l-10 -70q-12 -88 -58 -129t-132 -41t-173 17l6 48h154q55 0 88 29t41 84l10 69q9 60 -16.5 84t-82.5 24h-85q-36 0 -33 26l5 31l98 4q63 1 92.5 28.5t37.5 89.5l4 28
q16 115 -112 115h-39q-69 0 -113.5 -43.5t-55.5 -118.5l-73 -525q-25 -116 -115 -116q-37 0 -76 4l9 56h30q63 0 74 56l68 467l-70 6l7 54h71z" />
    <glyph glyph-name="agrave" unicode="&#xe0;" horiz-adv-x="597" 
d="M418 605l-34 -21l-108 107v12l61 28zM520 512l-59 -404q-3 -29 7.5 -43t40.5 -14h46l-7 -48q-32 -11 -73 -11q-94 0 -88 90q-61 -47 -110 -68.5t-110 -21.5h-18q-67 0 -98 43.5t-18 133.5l26 186q22 160 163 160h19q61 0 94.5 -10t98.5 -45l9 52h77zM189 57h17
q45 0 85 16.5t97 55.5l41 281q-54 29 -82.5 36t-82.5 7h-19q-50 0 -77.5 -30.5t-37.5 -101.5l-19 -135q-10 -69 8.5 -99t69.5 -30z" />
    <glyph glyph-name="aacute" unicode="&#xe1;" horiz-adv-x="597" 
d="M443 703l-2 -12l-137 -107l-29 21l114 126zM520 512l-59 -404q-3 -29 7.5 -43t40.5 -14h46l-7 -48q-32 -11 -73 -11q-94 0 -88 90q-61 -47 -110 -68.5t-110 -21.5h-18q-67 0 -98 43.5t-18 133.5l26 186q22 160 163 160h19q61 0 94.5 -10t98.5 -45l9 52h77zM189 57h17
q45 0 85 16.5t97 55.5l41 281q-54 29 -82.5 36t-82.5 7h-19q-50 0 -77.5 -30.5t-37.5 -101.5l-19 -135q-10 -69 8.5 -99t69.5 -30z" />
    <glyph glyph-name="acircumflex" unicode="&#xe2;" horiz-adv-x="597" 
d="M456 589l-99 88l-123 -88l-22 20l128 114h46l96 -114zM520 512l-59 -404q-3 -29 7.5 -43t40.5 -14h46l-7 -48q-32 -11 -73 -11q-94 0 -88 90q-61 -47 -110 -68.5t-110 -21.5h-18q-67 0 -98 43.5t-18 133.5l26 186q22 160 163 160h19q61 0 94.5 -10t98.5 -45l9 52h77z
M189 57h17q45 0 85 16.5t97 55.5l41 281q-54 29 -82.5 36t-82.5 7h-19q-50 0 -77.5 -30.5t-37.5 -101.5l-19 -135q-10 -69 8.5 -99t69.5 -30z" />
    <glyph glyph-name="atilde" unicode="&#xe3;" horiz-adv-x="597" 
d="M525 704l-77 -73q-24 -21 -46 -21q-12 0 -26.5 12.5t-34 32.5t-33.5 31l-101 -74l-20 20l76 72q25 23 46 23q13 0 28.5 -12.5t34.5 -33.5t31 -30l101 73zM520 512l-59 -404q-3 -29 7.5 -43t40.5 -14h46l-7 -48q-32 -11 -73 -11q-94 0 -88 90q-61 -47 -110 -68.5
t-110 -21.5h-18q-67 0 -98 43.5t-18 133.5l26 186q22 160 163 160h19q61 0 94.5 -10t98.5 -45l9 52h77zM189 57h17q45 0 85 16.5t97 55.5l41 281q-54 29 -82.5 36t-82.5 7h-19q-50 0 -77.5 -30.5t-37.5 -101.5l-19 -135q-10 -69 8.5 -99t69.5 -30z" />
    <glyph glyph-name="adieresis" unicode="&#xe4;" horiz-adv-x="597" 
d="M262 617q-18 0 -29 11.5t-9 29.5q2 15 14.5 24.5t29.5 9.5q18 0 29 -12t8 -31q-1 -14 -13.5 -23t-29.5 -9zM440 617q-18 0 -29 11.5t-8 29.5q2 16 14 25t29 9q18 0 29 -12t9 -31q-2 -14 -14.5 -23t-29.5 -9zM520 512l-59 -404q-3 -29 7.5 -43t40.5 -14h46l-7 -48
q-32 -11 -73 -11q-94 0 -88 90q-61 -47 -110 -68.5t-110 -21.5h-18q-67 0 -98 43.5t-18 133.5l26 186q22 160 163 160h19q61 0 94.5 -10t98.5 -45l9 52h77zM189 57h17q45 0 85 16.5t97 55.5l41 281q-54 29 -82.5 36t-82.5 7h-19q-50 0 -77.5 -30.5t-37.5 -101.5l-19 -135
q-10 -69 8.5 -99t69.5 -30z" />
    <glyph glyph-name="aring" unicode="&#xe5;" horiz-adv-x="597" 
d="M356 585h-20q-31 0 -47 19t-11 50l1 18q11 64 76 64h19q31 0 47.5 -19t11.5 -50l-2 -17q-4 -31 -24 -48t-51 -17zM340 615h17q37 0 43 38l2 18q6 36 -33 36h-13q-41 0 -45 -38l-3 -18q-6 -36 32 -36zM520 512l-59 -404q-3 -29 7.5 -43t40.5 -14h46l-7 -48
q-32 -11 -73 -11q-94 0 -88 90q-61 -47 -110 -68.5t-110 -21.5h-18q-67 0 -98 43.5t-18 133.5l26 186q22 160 163 160h19q61 0 94.5 -10t98.5 -45l9 52h77zM189 57h17q45 0 85 16.5t97 55.5l41 281q-54 29 -82.5 36t-82.5 7h-19q-50 0 -77.5 -30.5t-37.5 -101.5l-19 -135
q-10 -69 8.5 -99t69.5 -30z" />
    <glyph glyph-name="ae" unicode="&#xe6;" horiz-adv-x="930" 
d="M111 379l15 115q99 30 212 30h27q113 0 127 -80q57 80 183 80h32q105 0 148.5 -45.5t29.5 -139.5l-14 -99h-376l-10 -71q-19 -124 116 -124h43q92 0 131 62l6 12h59l-6 -52q-67 -77 -192 -77h-53q-151 0 -174 101q-71 -52 -120 -75.5t-111 -23.5h-18q-80 0 -107.5 25.5
t-15.5 106.5l4 30q11 79 48.5 105t111.5 32q69 6 223 6l6 46q9 74 -14 99.5t-90 25.5q-83 0 -149 -22l-16 -67h-56zM808 292l8 56q17 125 -113 125h-32q-66 0 -109 -36t-53 -101l-6 -44h305zM202 49h17q48 0 90 18t101 60q0 27 4 52l11 73q-158 -3 -200 -9
q-54 -7 -74.5 -23.5t-27.5 -65.5l-3 -21q-7 -52 9 -68t73 -16z" />
    <glyph glyph-name="ccedilla" unicode="&#xe7;" horiz-adv-x="536" 
d="M437 358l5 83q-56 25 -144 25q-136 0 -155 -140l-21 -147q-9 -68 19 -98t94 -30h37q92 0 131 63l5 9h60l-6 -56q-34 -36 -86 -56.5t-107 -20.5h-53l-7 -28h39q72 0 63 -63l-2 -9q-4 -33 -24 -47t-58 -15q-44 0 -98 9l2 24h96q18 0 30.5 10.5t14.5 25.5v4q2 18 -4.5 25
t-28.5 7h-74l23 58q-168 13 -141 194l21 151q13 93 71 140.5t154 47.5h36q96 0 182 -39l-17 -127h-57z" />
    <glyph glyph-name="egrave" unicode="&#xe8;" horiz-adv-x="564" 
d="M375 605l-34 -21l-108 107v12l61 28zM308 524h32q204 0 177 -193l-15 -109h-376l-7 -51q-18 -124 115 -124h44q93 0 130 60l6 12h59l-6 -52q-67 -77 -195 -77h-40q-110 0 -154 50.5t-30 156.5l19 128q13 98 75 148.5t166 50.5zM441 276l9 71q10 61 -21 92t-96 31h-31
q-66 0 -108.5 -35.5t-51.5 -99.5l-8 -59h307z" />
    <glyph glyph-name="eacute" unicode="&#xe9;" horiz-adv-x="564" 
d="M435 703l-2 -12l-137 -107l-29 21l114 126zM308 524h32q204 0 177 -193l-15 -109h-376l-7 -51q-18 -124 115 -124h44q93 0 130 60l6 12h59l-6 -52q-67 -77 -195 -77h-40q-110 0 -154 50.5t-30 156.5l19 128q13 98 75 148.5t166 50.5zM441 276l9 71q10 61 -21 92t-96 31
h-31q-66 0 -108.5 -35.5t-51.5 -99.5l-8 -59h307z" />
    <glyph glyph-name="ecircumflex" unicode="&#xea;" horiz-adv-x="564" 
d="M446 589l-99 88l-123 -88l-22 20l128 114h46l96 -114zM308 524h32q204 0 177 -193l-15 -109h-376l-7 -51q-18 -124 115 -124h44q93 0 130 60l6 12h59l-6 -52q-67 -77 -195 -77h-40q-110 0 -154 50.5t-30 156.5l19 128q13 98 75 148.5t166 50.5zM441 276l9 71
q10 61 -21 92t-96 31h-31q-66 0 -108.5 -35.5t-51.5 -99.5l-8 -59h307z" />
    <glyph glyph-name="edieresis" unicode="&#xeb;" horiz-adv-x="564" 
d="M252 617q-18 0 -29 11.5t-9 29.5q2 15 14.5 24.5t29.5 9.5q18 0 29 -12t8 -31q-1 -14 -13.5 -23t-29.5 -9zM430 617q-18 0 -29 11.5t-8 29.5q2 16 14 25t29 9q18 0 29 -12t9 -31q-2 -14 -14.5 -23t-29.5 -9zM308 524h32q204 0 177 -193l-15 -109h-376l-7 -51
q-18 -124 115 -124h44q93 0 130 60l6 12h59l-6 -52q-67 -77 -195 -77h-40q-110 0 -154 50.5t-30 156.5l19 128q13 98 75 148.5t166 50.5zM441 276l9 71q10 61 -21 92t-96 31h-31q-66 0 -108.5 -35.5t-51.5 -99.5l-8 -59h307z" />
    <glyph glyph-name="igrave" unicode="&#xec;" horiz-adv-x="297" 
d="M209 605l-34 -21l-108 107v12l61 28zM211 512l-58 -404q-3 -29 7.5 -43t40.5 -14h46l-7 -55q-39 -4 -76 -4q-104 0 -88 109l52 352q-14 1 -40 3.5t-30 2.5l6 53h147z" />
    <glyph glyph-name="iacute" unicode="&#xed;" horiz-adv-x="297" 
d="M299 703l-2 -12l-137 -107l-29 21l114 126zM211 512l-58 -404q-3 -29 7.5 -43t40.5 -14h46l-7 -55q-39 -4 -76 -4q-104 0 -88 109l52 352q-14 1 -40 3.5t-30 2.5l6 53h147z" />
    <glyph glyph-name="icircumflex" unicode="&#xee;" horiz-adv-x="297" 
d="M312 589l-99 88l-123 -88l-22 20l128 114h46l96 -114zM211 512l-58 -404q-3 -29 7.5 -43t40.5 -14h46l-7 -55q-39 -4 -76 -4q-104 0 -88 109l52 352q-14 1 -40 3.5t-30 2.5l6 53h147z" />
    <glyph glyph-name="idieresis" unicode="&#xef;" horiz-adv-x="297" 
d="M118 617q-18 0 -29 11.5t-9 29.5q2 15 14.5 24.5t29.5 9.5q18 0 29 -12t8 -31q-1 -14 -13.5 -23t-29.5 -9zM296 617q-18 0 -29 11.5t-8 29.5q2 16 14 25t29 9q18 0 29 -12t9 -31q-2 -14 -14.5 -23t-29.5 -9zM211 512l-58 -404q-3 -29 7.5 -43t40.5 -14h46l-7 -55
q-39 -4 -76 -4q-104 0 -88 109l52 352q-14 1 -40 3.5t-30 2.5l6 53h147z" />
    <glyph glyph-name="eth" unicode="&#xf0;" horiz-adv-x="599" 
d="M589 685l10 -42q-16 -7 -77 -30q48 -71 33 -178l-32 -223q-18 -123 -69.5 -171t-165.5 -48h-39q-119 0 -167 51t-33 156l17 120q13 97 60.5 137.5t141.5 40.5h18q40 0 75.5 -9.5t54.5 -19.5t62 -35l4 29q6 41 0.5 72t-28.5 60q-90 -31 -167 -53l-8 28l151 56
q-30 23 -103 50l19 41q97 -29 147 -68zM445 199l27 187q-36 20 -54 28.5t-47 15.5t-62 7h-18q-73 0 -107 -31t-45 -106l-15 -110q-10 -73 21.5 -104.5t107.5 -31.5h36q69 0 106.5 33.5t49.5 111.5z" />
    <glyph glyph-name="ntilde" unicode="&#xf1;" horiz-adv-x="669" 
d="M567 704l-77 -73q-24 -21 -46 -21q-12 0 -26.5 12.5t-34 32.5t-33.5 31l-101 -74l-20 20l76 72q25 23 46 23q13 0 28.5 -12.5t34.5 -33.5t31 -30l101 73zM215 512l-14 -89q146 101 245 101h11q67 0 91.5 -31t13.5 -107l-40 -278q-8 -57 48 -57h45l-6 -50q-33 -9 -76 -9
q-100 0 -88 101l36 260q9 68 -2.5 87.5t-61.5 19.5h-12q-77 0 -209 -88l-55 -372h-76l67 453q-14 1 -40 3.5t-30 2.5l6 53h147z" />
    <glyph glyph-name="ograve" unicode="&#xf2;" horiz-adv-x="587" 
d="M379 605l-34 -21l-108 107v12l61 28zM285 -10h-52q-214 0 -185 206l18 124q14 105 72.5 154.5t167.5 49.5h51q211 0 182 -208l-18 -124q-14 -103 -72 -152.5t-164 -49.5zM236 48h53q135 0 154 130l23 161q18 128 -116 128h-53q-134 0 -153 -132l-23 -161
q-18 -126 115 -126z" />
    <glyph glyph-name="oacute" unicode="&#xf3;" horiz-adv-x="587" 
d="M444 703l-2 -12l-137 -107l-29 21l114 126zM285 -10h-52q-214 0 -185 206l18 124q14 105 72.5 154.5t167.5 49.5h51q211 0 182 -208l-18 -124q-14 -103 -72 -152.5t-164 -49.5zM236 48h53q135 0 154 130l23 161q18 128 -116 128h-53q-134 0 -153 -132l-23 -161
q-18 -126 115 -126z" />
    <glyph glyph-name="ocircumflex" unicode="&#xf4;" horiz-adv-x="587" 
d="M452 589l-99 88l-123 -88l-22 20l128 114h46l96 -114zM285 -10h-52q-214 0 -185 206l18 124q14 105 72.5 154.5t167.5 49.5h51q211 0 182 -208l-18 -124q-14 -103 -72 -152.5t-164 -49.5zM236 48h53q135 0 154 130l23 161q18 128 -116 128h-53q-134 0 -153 -132l-23 -161
q-18 -126 115 -126z" />
    <glyph glyph-name="otilde" unicode="&#xf5;" horiz-adv-x="587" 
d="M521 704l-77 -73q-24 -21 -46 -21q-12 0 -26.5 12.5t-34 32.5t-33.5 31l-101 -74l-20 20l76 72q25 23 46 23q13 0 28.5 -12.5t34.5 -33.5t31 -30l101 73zM285 -10h-52q-214 0 -185 206l18 124q14 105 72.5 154.5t167.5 49.5h51q211 0 182 -208l-18 -124
q-14 -103 -72 -152.5t-164 -49.5zM236 48h53q135 0 154 130l23 161q18 128 -116 128h-53q-134 0 -153 -132l-23 -161q-18 -126 115 -126z" />
    <glyph glyph-name="odieresis" unicode="&#xf6;" horiz-adv-x="587" 
d="M258 617q-18 0 -29 11.5t-9 29.5q2 15 14.5 24.5t29.5 9.5q18 0 29 -12t8 -31q-1 -14 -13.5 -23t-29.5 -9zM436 617q-18 0 -29 11.5t-8 29.5q2 16 14 25t29 9q18 0 29 -12t9 -31q-2 -14 -14.5 -23t-29.5 -9zM285 -10h-52q-214 0 -185 206l18 124q14 105 72.5 154.5
t167.5 49.5h51q211 0 182 -208l-18 -124q-14 -103 -72 -152.5t-164 -49.5zM236 48h53q135 0 154 130l23 161q18 128 -116 128h-53q-134 0 -153 -132l-23 -161q-18 -126 115 -126z" />
    <glyph glyph-name="divide" unicode="&#xf7;" horiz-adv-x="593" 
d="M339 517q-51 0 -43 47q4 40 50 40q48 0 42 -48q-6 -39 -49 -39zM74 380h480l-9 -58h-479zM280 105q-50 0 -42 47q4 40 49 40q49 0 43 -48q-6 -39 -50 -39z" />
    <glyph glyph-name="oslash" unicode="&#xf8;" horiz-adv-x="592" 
d="M578 546l-66 -73q46 -52 31 -157l-18 -124q-14 -103 -72 -152.5t-164 -49.5h-52q-83 0 -129 30l-47 -52h-38l63 70q-49 52 -34 158l18 124q14 105 72.5 154.5t167.5 49.5h51q85 0 131 -33l49 55h37zM148 335l-23 -161q-7 -50 10 -81l310 346q-28 28 -91 28h-53
q-134 0 -153 -132zM447 178l23 161q6 50 -8 77l-308 -345q29 -23 86 -23h53q135 0 154 130z" />
    <glyph glyph-name="ugrave" unicode="&#xf9;" horiz-adv-x="668" 
d="M411 605l-34 -21l-108 107v12l61 28zM584 512l-58 -404q-3 -29 7.5 -43t40.5 -14h47l-6 -50q-33 -9 -76 -9q-89 0 -88 89l2 19q-73 -48 -130.5 -74t-115.5 -26h-11q-70 0 -93 29t-12 109l46 315q-4 0 -14 1t-28.5 2t-39.5 3l6 53h159l-48 -340q-10 -68 1.5 -87.5
t62.5 -19.5h12q79 0 208 87l45 301q-4 0 -13.5 1t-28.5 2t-40 3l6 53h159z" />
    <glyph glyph-name="uacute" unicode="&#xfa;" horiz-adv-x="668" 
d="M479 703l-2 -12l-137 -107l-29 21l114 126zM584 512l-58 -404q-3 -29 7.5 -43t40.5 -14h47l-6 -50q-33 -9 -76 -9q-89 0 -88 89l2 19q-73 -48 -130.5 -74t-115.5 -26h-11q-70 0 -93 29t-12 109l46 315q-4 0 -14 1t-28.5 2t-39.5 3l6 53h159l-48 -340q-10 -68 1.5 -87.5
t62.5 -19.5h12q79 0 208 87l45 301q-4 0 -13.5 1t-28.5 2t-40 3l6 53h159z" />
    <glyph glyph-name="ucircumflex" unicode="&#xfb;" horiz-adv-x="668" 
d="M493 589l-99 88l-123 -88l-22 20l128 114h46l96 -114zM584 512l-58 -404q-3 -29 7.5 -43t40.5 -14h47l-6 -50q-33 -9 -76 -9q-89 0 -88 89l2 19q-73 -48 -130.5 -74t-115.5 -26h-11q-70 0 -93 29t-12 109l46 315q-4 0 -14 1t-28.5 2t-39.5 3l6 53h159l-48 -340
q-10 -68 1.5 -87.5t62.5 -19.5h12q79 0 208 87l45 301q-4 0 -13.5 1t-28.5 2t-40 3l6 53h159z" />
    <glyph glyph-name="udieresis" unicode="&#xfc;" horiz-adv-x="668" 
d="M299 617q-18 0 -29 11.5t-9 29.5q2 15 14.5 24.5t29.5 9.5q18 0 29 -12t8 -31q-1 -14 -13.5 -23t-29.5 -9zM477 617q-18 0 -29 11.5t-8 29.5q2 16 14 25t29 9q18 0 29 -12t9 -31q-2 -14 -14.5 -23t-29.5 -9zM584 512l-58 -404q-3 -29 7.5 -43t40.5 -14h47l-6 -50
q-33 -9 -76 -9q-89 0 -88 89l2 19q-73 -48 -130.5 -74t-115.5 -26h-11q-70 0 -93 29t-12 109l46 315q-4 0 -14 1t-28.5 2t-39.5 3l6 53h159l-48 -340q-10 -68 1.5 -87.5t62.5 -19.5h12q79 0 208 87l45 301q-4 0 -13.5 1t-28.5 2t-40 3l6 53h159z" />
    <glyph glyph-name="yacute" unicode="&#xfd;" horiz-adv-x="652" 
d="M468 703l-2 -12l-137 -107l-29 21l114 126zM672 512l-6 -54q-48 -5 -82 -6l-314 -545q28 0 64 -3l-7 -53h-238l7 53q44 4 100 4l49 83l-131 463q-14 1 -68 5l6 53h233l-6 -54q-35 -2 -88 -4l101 -382h4l220 382q-9 0 -71 5l6 53h221z" />
    <glyph glyph-name="thorn" unicode="&#xfe;" horiz-adv-x="616" 
d="M445 524h18q135 0 109 -176l-27 -194q-11 -81 -53 -121.5t-109 -40.5h-18q-63 0 -102.5 13.5t-96.5 52.5l-24 -170q12 0 75 -5l-7 -54h-227l6 55q29 2 77 4l108 753q-2 0 -29 2t-41 4l7 53h146l-37 -263q63 44 114 65.5t111 21.5zM474 189l20 142q10 70 -5.5 99.5
t-65.5 29.5h-17q-83 0 -192 -73l-40 -278q48 -35 82 -46t85 -11h20q50 0 76.5 33t36.5 104z" />
    <glyph glyph-name="ydieresis" unicode="&#xff;" horiz-adv-x="652" 
d="M290 617q-18 0 -29 11.5t-9 29.5q2 15 14.5 24.5t29.5 9.5q18 0 29 -12t8 -31q-1 -14 -13.5 -23t-29.5 -9zM468 617q-18 0 -29 11.5t-8 29.5q2 16 14 25t29 9q18 0 29 -12t9 -31q-2 -14 -14.5 -23t-29.5 -9zM672 512l-6 -54q-48 -5 -82 -6l-314 -545q28 0 64 -3l-7 -53
h-238l7 53q44 4 100 4l49 83l-131 463q-14 1 -68 5l6 53h233l-6 -54q-35 -2 -88 -4l101 -382h4l220 382q-9 0 -71 5l6 53h221z" />
    <glyph glyph-name="Amacron" unicode="&#x100;" horiz-adv-x="792" 
d="M596 822l-7 -49h-255l7 49h255zM512 700l131 -638q47 -1 95 -6l-6 -56h-258l6 57q54 4 77 4l-31 152h-284l-74 -152l70 -5l-7 -56h-242l7 57q32 3 92 5l284 576l-85 6l6 56h219zM440 634l-172 -354h250l-74 354h-4z" />
    <glyph glyph-name="amacron" unicode="&#x101;" horiz-adv-x="597" 
d="M474 656l-6 -48h-242l6 48h242zM520 512l-59 -404q-3 -29 7.5 -43t40.5 -14h46l-7 -48q-32 -11 -73 -11q-94 0 -88 90q-61 -47 -110 -68.5t-110 -21.5h-18q-67 0 -98 43.5t-18 133.5l26 186q22 160 163 160h19q61 0 94.5 -10t98.5 -45l9 52h77zM189 57h17q45 0 85 16.5
t97 55.5l41 281q-54 29 -82.5 36t-82.5 7h-19q-50 0 -77.5 -30.5t-37.5 -101.5l-19 -135q-10 -69 8.5 -99t69.5 -30z" />
    <glyph glyph-name="Abreve" unicode="&#x102;" horiz-adv-x="792" 
d="M601 877l-2 -17q-7 -54 -43 -82.5t-95 -28.5q-61 0 -90.5 30.5t-21.5 84.5l2 13h47l-1 -10q-11 -69 66 -69q79 0 91 74v5h47zM512 700l131 -638q47 -1 95 -6l-6 -56h-258l6 57q54 4 77 4l-31 152h-284l-74 -152l70 -5l-7 -56h-242l7 57q32 3 92 5l284 576l-85 6l6 56h219
zM440 634l-172 -354h250l-74 354h-4z" />
    <glyph glyph-name="abreve" unicode="&#x103;" horiz-adv-x="597" 
d="M484 710l-2 -17q-7 -52 -42 -80t-93 -28q-60 0 -89 30t-21 83l1 12h46l-1 -10q-10 -68 65 -68q80 0 90 73l1 5h45zM520 512l-59 -404q-3 -29 7.5 -43t40.5 -14h46l-7 -48q-32 -11 -73 -11q-94 0 -88 90q-61 -47 -110 -68.5t-110 -21.5h-18q-67 0 -98 43.5t-18 133.5
l26 186q22 160 163 160h19q61 0 94.5 -10t98.5 -45l9 52h77zM189 57h17q45 0 85 16.5t97 55.5l41 281q-54 29 -82.5 36t-82.5 7h-19q-50 0 -77.5 -30.5t-37.5 -101.5l-19 -135q-10 -69 8.5 -99t69.5 -30z" />
    <glyph glyph-name="Aogonek" unicode="&#x104;" horiz-adv-x="792" 
d="M518 -77v-5q-2 -19 8 -27.5t35 -8.5q40 0 79 21l13 -26q-54 -36 -102 -36h-10q-39 0 -57 18t-16 51l1 5q5 50 91 85h-86l6 57q54 4 77 4l-31 152h-284l-74 -152l70 -5l-7 -56h-242l7 57q32 3 92 5l284 576l-85 6l6 56h219l131 -638q47 -1 95 -6l-6 -56h-126
q-64 -38 -77 -54q-10 -12 -11 -23zM518 280l-74 354h-4l-172 -354h250z" />
    <glyph glyph-name="aogonek" unicode="&#x105;" horiz-adv-x="597" 
d="M350 -77v-5q-2 -19 8 -27.5t35 -8.5q40 0 79 21l13 -26q-54 -36 -102 -36h-10q-39 0 -57 18t-16 51l1 5q3 33 32.5 54t77.5 38h5q-33 22 -29 75q-61 -47 -110 -68.5t-110 -21.5h-18q-67 0 -98 43.5t-18 133.5l26 186q22 160 163 160h19q61 0 94.5 -10t98.5 -45l9 52h77
l-59 -404q-3 -29 7.5 -43t40.5 -14h46l-7 -48q-32 -11 -73 -11q-21 0 -41 6q-64 -38 -77 -57q-6 -9 -7 -18zM388 129l41 281q-54 29 -82.5 36t-82.5 7h-19q-50 0 -77.5 -30.5t-37.5 -101.5l-19 -135q-10 -69 8.5 -99t69.5 -30h17q45 0 85 16.5t97 55.5z" />
    <glyph glyph-name="Cacute" unicode="&#x106;" horiz-adv-x="654" 
d="M519 869l-2 -12l-140 -109l-31 22l116 128zM579 156l-8 -61q-42 -51 -105 -78t-134 -27h-67q-117 0 -166.5 55.5t-34.5 172.5l36 247q33 244 268 244h40q137 0 233 -40l-22 -168h-65l7 119q-27 12 -62 17.5t-57.5 6t-75.5 0.5q-79 0 -127 -46t-61 -134l-35 -254
q-11 -80 23 -116.5t113 -36.5h55q120 0 180 101z" />
    <glyph glyph-name="cacute" unicode="&#x107;" horiz-adv-x="536" 
d="M418 703l-2 -12l-137 -107l-29 21l114 126zM468 123l-6 -56q-34 -36 -86 -56.5t-107 -20.5h-53q-198 0 -169 195l21 151q13 93 71 140.5t154 47.5h36q96 0 182 -39l-17 -127h-57l5 83q-56 25 -144 25q-136 0 -155 -140l-21 -147q-9 -68 19 -98t94 -30h37q92 0 131 63l5 9
h60z" />
    <glyph glyph-name="Cdotaccent" unicode="&#x10a;" horiz-adv-x="654" 
d="M410 779q-20 0 -32 13t-10 32q3 17 16.5 27t31.5 10q21 0 32.5 -12.5t8.5 -33.5q-2 -16 -15.5 -26t-31.5 -10zM579 156l-8 -61q-42 -51 -105 -78t-134 -27h-67q-117 0 -166.5 55.5t-34.5 172.5l36 247q33 244 268 244h40q137 0 233 -40l-22 -168h-65l7 119
q-27 12 -62 17.5t-57.5 6t-75.5 0.5q-79 0 -127 -46t-61 -134l-35 -254q-11 -80 23 -116.5t113 -36.5h55q120 0 180 101z" />
    <glyph glyph-name="cdotaccent" unicode="&#x10b;" horiz-adv-x="536" 
d="M326 612q-20 0 -31 12t-8 31q1 16 14 26.5t31 10.5q20 0 31.5 -13t8.5 -33q-2 -15 -15 -24.5t-31 -9.5zM468 123l-6 -56q-34 -36 -86 -56.5t-107 -20.5h-53q-198 0 -169 195l21 151q13 93 71 140.5t154 47.5h36q96 0 182 -39l-17 -127h-57l5 83q-56 25 -144 25
q-136 0 -155 -140l-21 -147q-9 -68 19 -98t94 -30h37q92 0 131 63l5 9h60z" />
    <glyph glyph-name="Ccaron" unicode="&#x10c;" horiz-adv-x="654" 
d="M428 755h-46l-97 113l27 21l98 -88l124 88l21 -21zM579 156l-8 -61q-42 -51 -105 -78t-134 -27h-67q-117 0 -166.5 55.5t-34.5 172.5l36 247q33 244 268 244h40q137 0 233 -40l-22 -168h-65l7 119q-27 12 -62 17.5t-57.5 6t-75.5 0.5q-79 0 -127 -46t-61 -134l-35 -254
q-11 -80 23 -116.5t113 -36.5h55q120 0 180 101z" />
    <glyph glyph-name="ccaron" unicode="&#x10d;" horiz-adv-x="536" 
d="M344 589h-46l-96 113l26 21l99 -88l123 88l22 -21zM468 123l-6 -56q-34 -36 -86 -56.5t-107 -20.5h-53q-198 0 -169 195l21 151q13 93 71 140.5t154 47.5h36q96 0 182 -39l-17 -127h-57l5 83q-56 25 -144 25q-136 0 -155 -140l-21 -147q-9 -68 19 -98t94 -30h37
q92 0 131 63l5 9h60z" />
    <glyph glyph-name="Dcaron" unicode="&#x10e;" horiz-adv-x="729" 
d="M449 755h-46l-97 113l27 21l98 -88l124 88l21 -21zM103 700h387q231 0 201 -228l-36 -251q-16 -112 -80.5 -166.5t-180.5 -54.5h-388l7 57q58 4 89 6l84 575q-14 1 -90 6zM577 222l36 259q23 153 -137 153h-213l-79 -568h210q78 0 125.5 40t57.5 116z" />
    <glyph glyph-name="dcaron" unicode="&#x10f;" horiz-adv-x="599" 
d="M539 700l-84 -592q-3 -29 7.5 -43t40.5 -14h47l-6 -47q-34 -12 -76 -12q-41 0 -67.5 22t-22.5 70l1 11q-6 -4 -30.5 -21.5t-32 -22.5t-28 -18t-31.5 -17.5t-29 -11.5t-34.5 -9.5t-34.5 -2.5h-18q-67 0 -98 43.5t-18 133.5l26 190q12 82 55 123.5t110 41.5h18
q64 0 97.5 -11t98.5 -51l27 184q-2 0 -28.5 2t-55.5 4l6 48h160zM673 700l-1 -17l-62 -143h-41l43 160h61zM181 57h17q30 0 62.5 12.5t54.5 25.5t68 45l41 271q-55 34 -84.5 42t-83.5 8h-19q-95 0 -113 -126l-21 -149q-10 -69 8.5 -99t69.5 -30z" />
    <glyph glyph-name="Dcroat" unicode="&#x110;" horiz-adv-x="729" 
d="M103 700h387q231 0 201 -228l-36 -251q-16 -112 -80.5 -166.5t-180.5 -54.5h-388l7 57q58 4 89 6l38 262h-88l7 49h88l39 264q-14 1 -90 6zM577 222l36 259q23 153 -137 153h-213l-36 -260h87l-7 -49h-87l-36 -259h210q78 0 125.5 40t57.5 116z" />
    <glyph glyph-name="dcroat" unicode="&#x111;" horiz-adv-x="599" 
d="M542 581l-74 -522q62 -4 75 -5l-6 -54h-152l12 79q-66 -46 -112.5 -66.5t-105.5 -20.5h-18q-67 0 -98 43.5t-18 133.5l26 190q12 82 55 123.5t110 41.5h18q64 0 97 -11t97 -51l17 119h-121l7 48h121l12 79h76l-11 -79h66l-6 -48h-67zM402 130l42 281q-55 34 -84.5 42
t-83.5 8h-19q-95 0 -113 -126l-21 -149q-10 -69 8.5 -99t69.5 -30h17q45 0 85 16.5t99 56.5z" />
    <glyph glyph-name="Emacron" unicode="&#x112;" horiz-adv-x="645" 
d="M526 822l-7 -49h-255l7 49h255zM606 525h-51l5 111h-300l-35 -246h221l-10 -69h-221l-36 -257h310l27 111h51l-24 -175h-537l7 57q19 1 36.5 2t30.5 2t18 1l84 577q-5 0 -18.5 1t-30.5 2t-37 2l7 56h527z" />
    <glyph glyph-name="emacron" unicode="&#x113;" horiz-adv-x="564" 
d="M463 656l-6 -48h-242l6 48h242zM308 524h32q204 0 177 -193l-15 -109h-376l-7 -51q-18 -124 115 -124h44q93 0 130 60l6 12h59l-6 -52q-67 -77 -195 -77h-40q-110 0 -154 50.5t-30 156.5l19 128q13 98 75 148.5t166 50.5zM441 276l9 71q10 61 -21 92t-96 31h-31
q-66 0 -108.5 -35.5t-51.5 -99.5l-8 -59h307z" />
    <glyph glyph-name="Edotaccent" unicode="&#x116;" horiz-adv-x="645" 
d="M395 779q-20 0 -32 13t-10 32q3 17 16.5 27t31.5 10q21 0 32.5 -12.5t8.5 -33.5q-2 -16 -15.5 -26t-31.5 -10zM606 525h-51l5 111h-300l-35 -246h221l-10 -69h-221l-36 -257h310l27 111h51l-24 -175h-537l7 57q19 1 36.5 2t30.5 2t18 1l84 577q-5 0 -18.5 1t-30.5 2
t-37 2l7 56h527z" />
    <glyph glyph-name="edotaccent" unicode="&#x117;" horiz-adv-x="564" 
d="M340 614q-20 0 -31.5 12.5t-8.5 31.5q2 17 15.5 27.5t31.5 10.5q21 0 32.5 -13t8.5 -34q-2 -15 -16 -25t-32 -10zM308 524h32q204 0 177 -193l-15 -109h-376l-7 -51q-18 -124 115 -124h44q93 0 130 60l6 12h59l-6 -52q-67 -77 -195 -77h-40q-110 0 -154 50.5t-30 156.5
l19 128q13 98 75 148.5t166 50.5zM441 276l9 71q10 61 -21 92t-96 31h-31q-66 0 -108.5 -35.5t-51.5 -99.5l-8 -59h307z" />
    <glyph glyph-name="Eogonek" unicode="&#x118;" horiz-adv-x="645" 
d="M555 525l5 111h-300l-35 -246h221l-10 -69h-221l-36 -257h310l27 111h51l-24 -175h-75q-64 -38 -77 -54q-10 -12 -11 -23v-5q-2 -19 8 -27.5t35 -8.5q40 0 79 21l13 -26q-54 -36 -102 -36h-10q-39 0 -57 18t-16 51l1 5q5 50 91 85h-416l7 57q19 1 36.5 2t30.5 2t18 1
l84 577q-5 0 -18.5 1t-30.5 2t-37 2l7 56h527l-24 -175h-51z" />
    <glyph glyph-name="eogonek" unicode="&#x119;" horiz-adv-x="564" 
d="M308 524h32q204 0 177 -193l-15 -109h-376l-7 -51q-18 -124 115 -124h44q93 0 130 60l6 12h59l-6 -52q-56 -65 -162 -75q-24 -14 -36.5 -22.5t-24.5 -21.5t-13 -25v-5q-2 -19 8 -27.5t35 -8.5q40 0 79 21l13 -26q-54 -36 -102 -36h-10q-39 0 -57 18t-16 51l1 5
q5 44 68 75h-18q-110 0 -154 50.5t-30 156.5l19 128q13 98 75 148.5t166 50.5zM441 276l9 71q10 61 -21 92t-96 31h-31q-66 0 -108.5 -35.5t-51.5 -99.5l-8 -59h307z" />
    <glyph glyph-name="Ecaron" unicode="&#x11a;" horiz-adv-x="645" 
d="M413 755h-46l-97 113l27 21l98 -88l124 88l21 -21zM606 525h-51l5 111h-300l-35 -246h221l-10 -69h-221l-36 -257h310l27 111h51l-24 -175h-537l7 57q19 1 36.5 2t30.5 2t18 1l84 577q-5 0 -18.5 1t-30.5 2t-37 2l7 56h527z" />
    <glyph glyph-name="ecaron" unicode="&#x11b;" horiz-adv-x="564" 
d="M358 589h-46l-96 113l26 21l99 -88l123 88l22 -21zM308 524h32q204 0 177 -193l-15 -109h-376l-7 -51q-18 -124 115 -124h44q93 0 130 60l6 12h59l-6 -52q-67 -77 -195 -77h-40q-110 0 -154 50.5t-30 156.5l19 128q13 98 75 148.5t166 50.5zM441 276l9 71q10 61 -21 92
t-96 31h-31q-66 0 -108.5 -35.5t-51.5 -99.5l-8 -59h307z" />
    <glyph glyph-name="Gbreve" unicode="&#x11e;" horiz-adv-x="697" 
d="M563 877l-2 -17q-7 -54 -43 -82.5t-95 -28.5q-61 0 -90.5 30.5t-21.5 84.5l2 13h47l-1 -10q-11 -69 66 -69q79 0 91 74v5h47zM641 346l-23 -165q-13 -92 -87 -141.5t-166 -49.5h-85q-247 0 -215 230l33 237q17 121 91 186.5t194 65.5h35q51 0 122.5 -10t124.5 -30
l-22 -169h-65l6 115q-57 23 -201 23q-84 0 -138.5 -49t-67.5 -137l-34 -241q-10 -75 28.5 -112.5t122.5 -37.5h81q67 0 115.5 36t57.5 94l13 89q-164 6 -229 9l6 57h303z" />
    <glyph glyph-name="gbreve" unicode="&#x11f;" horiz-adv-x="590" 
d="M476 710l-2 -17q-7 -52 -42 -80t-93 -28q-60 0 -89 30t-21 83l1 12h46l-1 -10q-10 -68 65 -68q80 0 90 73l1 5h45zM601 512l-7 -54q-11 -1 -34 -2.5t-34 -2.5l-63 -440q-25 -175 -212 -175h-50q-57 0 -103 20.5t-69 59.5l6 45h60l1 -13q24 -56 112 -56h43q55 0 91.5 31
t45.5 92l10 71q-62 -38 -108 -52t-111 -14h-19q-135 0 -113 160l25 181q22 160 157 160h18q59 0 101.5 -15t99.5 -48l9 52h144zM200 86h19q51 0 89 12t97 48l39 264q-85 51 -175 51h-17q-49 0 -74 -31.5t-35 -100.5l-17 -119q-9 -65 7.5 -94.5t66.5 -29.5z" />
    <glyph glyph-name="Gdotaccent" unicode="&#x120;" horiz-adv-x="697" 
d="M427 779q-20 0 -32 13t-10 32q3 17 16.5 27t31.5 10q21 0 32.5 -12.5t8.5 -33.5q-2 -16 -15.5 -26t-31.5 -10zM641 346l-23 -165q-13 -92 -87 -141.5t-166 -49.5h-85q-247 0 -215 230l33 237q17 121 91 186.5t194 65.5h35q51 0 122.5 -10t124.5 -30l-22 -169h-65l6 115
q-57 23 -201 23q-84 0 -138.5 -49t-67.5 -137l-34 -241q-10 -75 28.5 -112.5t122.5 -37.5h81q67 0 115.5 36t57.5 94l13 89q-164 6 -229 9l6 57h303z" />
    <glyph glyph-name="gdotaccent" unicode="&#x121;" horiz-adv-x="590" 
d="M342 614q-20 0 -31.5 12.5t-8.5 31.5q2 17 15.5 27.5t31.5 10.5q21 0 32.5 -13t8.5 -34q-2 -15 -16 -25t-32 -10zM601 512l-7 -54q-11 -1 -34 -2.5t-34 -2.5l-63 -440q-25 -175 -212 -175h-50q-57 0 -103 20.5t-69 59.5l6 45h60l1 -13q24 -56 112 -56h43q55 0 91.5 31
t45.5 92l10 71q-62 -38 -108 -52t-111 -14h-19q-135 0 -113 160l25 181q22 160 157 160h18q59 0 101.5 -15t99.5 -48l9 52h144zM200 86h19q51 0 89 12t97 48l39 264q-85 51 -175 51h-17q-49 0 -74 -31.5t-35 -100.5l-17 -119q-9 -65 7.5 -94.5t66.5 -29.5z" />
    <glyph glyph-name="Gcommaaccent" unicode="&#x122;" horiz-adv-x="697" 
d="M641 346l-23 -165q-13 -92 -87 -141.5t-166 -49.5h-85q-247 0 -215 230l33 237q17 121 91 186.5t194 65.5h35q51 0 122.5 -10t124.5 -30l-22 -169h-65l6 115q-57 23 -201 23q-84 0 -138.5 -49t-67.5 -137l-34 -241q-10 -75 28.5 -112.5t122.5 -37.5h81q67 0 115.5 36
t57.5 94l13 89q-164 6 -229 9l6 57h303zM269 -108l8 34q7 23 33 17q22 -5 29.5 -11.5t4.5 -23.5q-3 -32 -29 -65q-20 -25 -55 -53l-16 15q39 40 49 81z" />
    <glyph glyph-name="gcommaaccent" unicode="&#x123;" horiz-adv-x="590" 
d="M431 653l-8 -33q-6 -22 -32 -16q-21 4 -28.5 10.5t-4.5 23.5q3 31 28 63q17 21 54 52l16 -15q-39 -40 -48 -79zM601 512l-7 -54q-11 -1 -34 -2.5t-34 -2.5l-63 -440q-25 -175 -212 -175h-50q-57 0 -103 20.5t-69 59.5l6 45h60l1 -13q24 -56 112 -56h43q55 0 91.5 31
t45.5 92l10 71q-62 -38 -108 -52t-111 -14h-19q-135 0 -113 160l25 181q22 160 157 160h18q59 0 101.5 -15t99.5 -48l9 52h144zM200 86h19q51 0 89 12t97 48l39 264q-85 51 -175 51h-17q-49 0 -74 -31.5t-35 -100.5l-17 -119q-9 -65 7.5 -94.5t66.5 -29.5z" />
    <glyph glyph-name="Hbar" unicode="&#x126;" horiz-adv-x="792" 
d="M810 700l-7 -57q-61 -4 -87 -5l-20 -134h74l-3 -24h-74l-61 -419q27 -1 85 -5l-6 -56h-242l6 57q28 2 78 4l38 260h-375l-38 -260q20 -1 74 -5l-7 -56h-242l7 57q64 4 89 5l61 418h-72l3 24h72l20 134q-17 1 -49 3t-41 3l7 56h243l-6 -57q-25 -2 -75 -4l-20 -135h375
l19 135q-19 1 -76 5l7 56h243zM613 480h-374l-14 -92h375z" />
    <glyph glyph-name="hbar" unicode="&#x127;" horiz-adv-x="669" 
d="M578 386l-47 -327q4 0 13 -1t28.5 -2t40.5 -3l-6 -53h-159l49 353q10 67 -1.5 87t-62.5 20h-12q-77 0 -209 -88l-46 -313q32 -1 75 -6l-6 -53h-228l7 54q62 4 76 5l72 507h-76l7 47h76l13 95h76l-14 -95h114l-7 -47h-113l-21 -143q146 101 245 101h11q66 0 90.5 -30.5
t14.5 -107.5z" />
    <glyph glyph-name="Imacron" unicode="&#x12a;" horiz-adv-x="330" 
d="M372 822l-7 -49h-255l7 49h255zM352 700l-7 -57q-56 -4 -84 -5l-83 -576q15 -1 46.5 -3.5t35.5 -2.5l-6 -56h-248l7 57q59 4 85 5l84 576q-16 1 -48 3.5t-38 2.5l7 56h249z" />
    <glyph glyph-name="imacron" unicode="&#x12b;" horiz-adv-x="297" 
d="M330 656l-6 -48h-242l6 48h242zM211 512l-58 -404q-3 -29 7.5 -43t40.5 -14h46l-7 -55q-39 -4 -76 -4q-104 0 -88 109l52 352q-14 1 -40 3.5t-30 2.5l6 53h147z" />
    <glyph glyph-name="Iogonek" unicode="&#x12e;" horiz-adv-x="330" 
d="M352 700l-7 -57q-56 -4 -84 -5l-83 -576q15 -1 46.5 -3.5t35.5 -2.5l-6 -56h-71q-64 -38 -77 -54q-10 -12 -11 -23v-5q-2 -19 8 -27.5t35 -8.5q40 0 79 21l13 -26q-54 -36 -102 -36h-10q-39 0 -57 18t-16 51l1 5q5 50 91 85h-131l7 57q59 4 85 5l84 576q-16 1 -48 3.5
t-38 2.5l7 56h249z" />
    <glyph glyph-name="iogonek" unicode="&#x12f;" horiz-adv-x="297" 
d="M213 696q21 0 32.5 -13t8.5 -34q-2 -15 -16 -25t-32 -10q-20 0 -31.5 12.5t-8.5 31.5q2 17 15.5 27.5t31.5 10.5zM211 512l-58 -404q-3 -29 7.5 -43t40.5 -14h46l-7 -55q-39 -4 -76 -4h-9q-24 -14 -36.5 -22.5t-25 -21.5t-13.5 -25v-5q-2 -19 8 -27.5t35 -8.5q40 0 79 21
l13 -26q-54 -36 -102 -36h-10q-39 0 -57 18t-16 51l1 5q5 52 89 84q-56 22 -44 102l52 352q-14 1 -40 3.5t-30 2.5l6 53h147z" />
    <glyph glyph-name="Idotaccent" unicode="&#x130;" horiz-adv-x="330" 
d="M241 779q-20 0 -32 13t-10 32q3 17 16.5 27t31.5 10q21 0 32.5 -12.5t8.5 -33.5q-2 -16 -15.5 -26t-31.5 -10zM352 700l-7 -57q-56 -4 -84 -5l-83 -576q15 -1 46.5 -3.5t35.5 -2.5l-6 -56h-248l7 57q59 4 85 5l84 576q-16 1 -48 3.5t-38 2.5l7 56h249z" />
    <glyph glyph-name="dotlessi" unicode="&#x131;" horiz-adv-x="297" 
d="M211 512l-58 -404q-3 -29 7.5 -43t40.5 -14h46l-7 -55q-39 -4 -76 -4q-104 0 -88 109l52 352q-14 1 -40 3.5t-30 2.5l6 53h147z" />
    <glyph glyph-name="IJ" unicode="&#x132;" horiz-adv-x="646" 
d="M352 700l-7 -57q-56 -4 -84 -5l-83 -576q15 -1 46.5 -3.5t35.5 -2.5l-6 -56h-248l7 57q59 4 85 5l84 576q-16 1 -48 3.5t-38 2.5l7 56h249zM674 700l-7 -57q-56 -4 -83 -5l-76 -528q-12 -84 -33.5 -123t-84.5 -92q-30 -25 -62 -46l-33 37q5 4 41 36q45 41 64 80t29 113
l75 523q-16 1 -46.5 3t-39.5 3l7 56h249z" />
    <glyph glyph-name="ij" unicode="&#x133;" horiz-adv-x="565" 
d="M199 698q21 0 33.5 -13.5t9.5 -35.5q-3 -17 -17.5 -27.5t-33.5 -10.5q-21 0 -33.5 13t-9.5 34q3 18 17 29t34 11zM505 698q21 0 33.5 -13.5t9.5 -35.5q-3 -17 -17 -27.5t-34 -10.5q-21 0 -33.5 13t-9.5 34q2 18 17 29t34 11zM215 512l-58 -404q-3 -29 7.5 -43t40.5 -14
h46l-7 -49q-33 -10 -76 -10q-47 0 -71.5 26t-16.5 83l52 352q-14 1 -40 3.5t-30 2.5l6 53h147zM523 512l-61 -437q-10 -62 -30.5 -93.5t-83.5 -84.5q-30 -25 -62 -46l-30 37q4 3 17.5 15.5t23.5 21.5q46 41 64 72t25 83l54 373q-69 6 -71 6l6 53h148z" />
    <glyph glyph-name="Kcommaaccent" unicode="&#x136;" horiz-adv-x="751" 
d="M352 700l-7 -57q-56 -4 -84 -5l-36 -250h166l216 251q-22 1 -73 5l7 56h241l-7 -57q-26 -2 -83 -4l-241 -283l159 -295q27 -1 90 -5l-6 -56h-251l7 57q44 2 71 2l-136 261h-170l-37 -258q15 -1 46.5 -3.5t35.5 -2.5l-6 -56h-248l7 57q59 4 85 5l84 576q-16 1 -48 3.5
t-38 2.5l7 56h249zM285 -108l8 34q7 23 33 17q22 -5 29.5 -11.5t4.5 -23.5q-3 -32 -29 -65q-20 -25 -55 -53l-16 15q39 40 49 81z" />
    <glyph glyph-name="kcommaaccent" unicode="&#x137;" horiz-adv-x="630" 
d="M615 512l-6 -54q-60 -4 -72 -5l-161 -176l85 -169q18 -33 32.5 -44.5t43.5 -11.5h44l-7 -56q-39 -4 -75 -4q-35 0 -61 23t-53 86l-72 143h-139l-28 -185q32 -1 75 -6l-6 -53h-228l7 54q62 4 76 5l84 582q-2 0 -29 2t-41 4l7 53h146l-55 -394h140l134 149q-11 0 -34.5 1.5
t-32.5 1.5l6 54h220zM237 -108l8 34q7 23 33 17q22 -5 29.5 -11.5t4.5 -23.5q-3 -32 -29 -65q-20 -25 -55 -53l-16 15q39 40 49 81z" />
    <glyph glyph-name="Lacute" unicode="&#x139;" horiz-adv-x="624" 
d="M353 869l-2 -12l-140 -109l-31 22l116 128zM6 0l7 57q26 2 55 3.5t30 1.5l84 577q-23 1 -86 5l7 56h258l-7 -57q-47 -5 -93 -6l-82 -573h308l28 124h54l-26 -188h-537z" />
    <glyph glyph-name="lacute" unicode="&#x13a;" horiz-adv-x="308" 
d="M328 889l-2 -12l-137 -107l-29 21l114 126zM237 700l-84 -592q-8 -57 48 -57h47l-7 -50q-34 -9 -77 -9q-104 0 -88 109l78 540q-2 0 -29 2t-41 4l7 53h146z" />
    <glyph glyph-name="Lcommaaccent" unicode="&#x13b;" horiz-adv-x="624" 
d="M6 0l7 57q26 2 55 3.5t30 1.5l84 577q-23 1 -86 5l7 56h258l-7 -57q-47 -5 -93 -6l-82 -573h308l28 124h54l-26 -188h-537zM221 -108l8 34q7 23 33 17q22 -5 29.5 -11.5t4.5 -23.5q-3 -32 -29 -65q-20 -25 -55 -53l-16 15q39 40 49 81z" />
    <glyph glyph-name="lcommaaccent" unicode="&#x13c;" horiz-adv-x="308" 
d="M237 700l-84 -592q-8 -57 48 -57h47l-7 -50q-34 -9 -77 -9q-104 0 -88 109l78 540q-2 0 -29 2t-41 4l7 53h146zM69 -108l8 34q7 23 33 17q22 -5 29.5 -11.5t4.5 -23.5q-3 -32 -29 -65q-20 -25 -55 -53l-16 15q39 40 49 81z" />
    <glyph glyph-name="Lcaron" unicode="&#x13d;" horiz-adv-x="624" 
d="M6 0l7 57q26 2 55 3.5t30 1.5l84 577q-23 1 -86 5l7 56h258l-7 -57q-47 -5 -93 -6l-82 -573h308l28 124h54l-26 -188h-537zM477 700l-1 -17l-62 -143h-41l43 160h61z" />
    <glyph glyph-name="lcaron" unicode="&#x13e;" horiz-adv-x="308" 
d="M387 701l-1 -17l-62 -143h-41l43 160h61zM237 700l-84 -592q-8 -57 48 -57h47l-7 -50q-34 -9 -77 -9q-104 0 -88 109l78 540q-2 0 -29 2t-41 4l7 53h146z" />
    <glyph glyph-name="Ldot" unicode="&#x13f;" horiz-adv-x="624" 
d="M6 0l7 57q26 2 55 3.5t30 1.5l84 577q-23 1 -86 5l7 56h258l-7 -57q-47 -5 -93 -6l-82 -573h308l28 124h54l-26 -188h-537zM401 334q-20 0 -31 12t-8 31q1 17 14 27t31 10q20 0 31.5 -12.5t8.5 -32.5q-2 -16 -15 -25.5t-31 -9.5z" />
    <glyph glyph-name="ldot" unicode="&#x140;" horiz-adv-x="308" 
d="M237 700l-84 -592q-8 -57 48 -57h47l-7 -50q-34 -9 -77 -9q-104 0 -88 109l78 540q-2 0 -29 2t-41 4l7 53h146zM298 323q-53 0 -45 49q6 42 52 42q52 0 44 -50q-4 -41 -51 -41z" />
    <glyph glyph-name="Lslash" unicode="&#x141;" horiz-adv-x="630" 
d="M571 188l-26 -188h-537l7 57q26 2 55 3.5t30 1.5l32 221l-102 -36l7 51l103 36l44 305q-23 1 -86 5l7 56h258l-7 -57q-47 -5 -93 -6l-39 -273l135 47l-7 -51l-135 -48l-36 -248h308l28 124h54z" />
    <glyph glyph-name="lslash" unicode="&#x142;" horiz-adv-x="308" 
d="M188 358l-35 -250q-8 -57 48 -57h47l-7 -50q-34 -9 -77 -9q-104 0 -88 109l33 226l-55 -21l7 51l55 21l38 263q-2 0 -29 2t-41 4l7 53h146l-41 -292l99 38l-7 -50z" />
    <glyph glyph-name="Nacute" unicode="&#x143;" horiz-adv-x="786" 
d="M576 869l-2 -12l-140 -109l-31 22l116 128zM807 700l-6 -57q-18 -2 -50.5 -4t-37.5 -2l-91 -637h-86l-289 579l-74 -518q20 -1 74 -5l-7 -56h-234l7 57q64 4 89 5l84 576l-90 6l7 56h167l297 -589l75 528q-21 1 -77 5l7 56h235z" />
    <glyph glyph-name="nacute" unicode="&#x144;" horiz-adv-x="669" 
d="M484 703l-2 -12l-137 -107l-29 21l114 126zM215 512l-14 -89q146 101 245 101h11q67 0 91.5 -31t13.5 -107l-40 -278q-8 -57 48 -57h45l-6 -50q-33 -9 -76 -9q-100 0 -88 101l36 260q9 68 -2.5 87.5t-61.5 19.5h-12q-77 0 -209 -88l-55 -372h-76l67 453q-14 1 -40 3.5
t-30 2.5l6 53h147z" />
    <glyph glyph-name="Ncommaaccent" unicode="&#x145;" horiz-adv-x="786" 
d="M807 700l-6 -57q-18 -2 -50.5 -4t-37.5 -2l-91 -637h-86l-289 579l-74 -518q20 -1 74 -5l-7 -56h-234l7 57q64 4 89 5l84 576l-90 6l7 56h167l297 -589l75 528q-21 1 -77 5l7 56h235zM311 -108l8 34q7 23 33 17q22 -5 29.5 -11.5t4.5 -23.5q-3 -32 -29 -65
q-20 -25 -55 -53l-16 15q39 40 49 81z" />
    <glyph glyph-name="ncommaaccent" unicode="&#x146;" horiz-adv-x="669" 
d="M215 512l-14 -89q146 101 245 101h11q67 0 91.5 -31t13.5 -107l-40 -278q-8 -57 48 -57h45l-6 -50q-33 -9 -76 -9q-100 0 -88 101l36 260q9 68 -2.5 87.5t-61.5 19.5h-12q-77 0 -209 -88l-55 -372h-76l67 453q-14 1 -40 3.5t-30 2.5l6 53h147zM258 -108l8 34q7 23 33 17
q22 -5 29.5 -11.5t4.5 -23.5q-3 -32 -29 -65q-20 -25 -55 -53l-16 15q39 40 49 81z" />
    <glyph glyph-name="Ncaron" unicode="&#x147;" horiz-adv-x="786" 
d="M486 755h-46l-97 113l27 21l98 -88l124 88l21 -21zM807 700l-6 -57q-18 -2 -50.5 -4t-37.5 -2l-91 -637h-86l-289 579l-74 -518q20 -1 74 -5l-7 -56h-234l7 57q64 4 89 5l84 576l-90 6l7 56h167l297 -589l75 528q-21 1 -77 5l7 56h235z" />
    <glyph glyph-name="ncaron" unicode="&#x148;" horiz-adv-x="669" 
d="M410 589h-46l-96 113l26 21l99 -88l123 88l22 -21zM215 512l-14 -89q146 101 245 101h11q67 0 91.5 -31t13.5 -107l-40 -278q-8 -57 48 -57h45l-6 -50q-33 -9 -76 -9q-100 0 -88 101l36 260q9 68 -2.5 87.5t-61.5 19.5h-12q-77 0 -209 -88l-55 -372h-76l67 453
q-14 1 -40 3.5t-30 2.5l6 53h147z" />
    <glyph glyph-name="Omacron" unicode="&#x14c;" horiz-adv-x="716" 
d="M565 822l-7 -49h-255l7 49h255zM365 -10h-84q-117 0 -173.5 66.5t-41.5 179.5l32 229q17 114 90.5 179t191.5 65h83q117 0 173 -67t40 -182l-32 -228q-16 -113 -89.5 -177.5t-189.5 -64.5zM293 61h72q81 0 134.5 46t65.5 128l33 233q11 82 -28 126t-121 44h-72
q-81 0 -134.5 -47t-65.5 -127l-33 -234q-11 -81 28 -125t121 -44z" />
    <glyph glyph-name="omacron" unicode="&#x14d;" horiz-adv-x="587" 
d="M469 656l-6 -48h-242l6 48h242zM285 -10h-52q-214 0 -185 206l18 124q14 105 72.5 154.5t167.5 49.5h51q211 0 182 -208l-18 -124q-14 -103 -72 -152.5t-164 -49.5zM236 48h53q135 0 154 130l23 161q18 128 -116 128h-53q-134 0 -153 -132l-23 -161q-18 -126 115 -126z
" />
    <glyph glyph-name="Ohungarumlaut" unicode="&#x150;" horiz-adv-x="716" 
d="M495 875l-1 -11l-130 -112l-27 20l114 126zM616 875l-1 -11l-130 -112l-27 20l114 126zM365 -10h-84q-117 0 -173.5 66.5t-41.5 179.5l32 229q17 114 90.5 179t191.5 65h83q117 0 173 -67t40 -182l-32 -228q-16 -113 -89.5 -177.5t-189.5 -64.5zM293 61h72q81 0 134.5 46
t65.5 128l33 233q11 82 -28 126t-121 44h-72q-81 0 -134.5 -47t-65.5 -127l-33 -234q-11 -81 28 -125t121 -44z" />
    <glyph glyph-name="ohungarumlaut" unicode="&#x151;" horiz-adv-x="587" 
d="M411 709l-2 -11l-127 -111l-26 20l111 124zM529 709l-2 -11l-127 -111l-26 20l112 124zM285 -10h-52q-214 0 -185 206l18 124q14 105 72.5 154.5t167.5 49.5h51q211 0 182 -208l-18 -124q-14 -103 -72 -152.5t-164 -49.5zM236 48h53q135 0 154 130l23 161
q18 128 -116 128h-53q-134 0 -153 -132l-23 -161q-18 -126 115 -126z" />
    <glyph glyph-name="OE" unicode="&#x152;" horiz-adv-x="1006" 
d="M586 390h221l-10 -69h-221l-36 -257h310l26 111h52l-24 -175h-624q-122 0 -176 57t-40 165l36 258q32 220 276 220h615l-24 -175h-52l6 111h-300zM541 635h-167q-87 0 -137 -39.5t-61 -116.5l-37 -263q-11 -76 27 -113.5t125 -37.5h170z" />
    <glyph glyph-name="oe" unicode="&#x153;" horiz-adv-x="961" 
d="M707 524h33q203 0 177 -193l-16 -109h-376l-4 -30l-1 -9l-2 -12q-18 -124 115 -124h44q93 0 130 60l6 12h59l-6 -52q-67 -77 -195 -77h-40q-123 0 -165 66q-58 -66 -181 -66h-52q-214 0 -185 206l18 124q14 105 72.5 154.5t167.5 49.5h51q123 0 164 -69q63 69 186 69z
M840 276l10 71q9 61 -22 92t-96 31h-31q-66 0 -108 -34.5t-52 -97.5l-2 -22l-6 -40h307zM236 47h53q66 0 105.5 34t48.5 97l23 161q18 128 -116 128h-53q-134 0 -153 -132l-23 -162q-17 -126 115 -126z" />
    <glyph glyph-name="Racute" unicode="&#x154;" horiz-adv-x="691" 
d="M525 869l-2 -12l-140 -109l-31 22l116 128zM103 700h351q105 0 153.5 -50t35.5 -144l-6 -48q-18 -132 -160 -176q49 -106 79 -223q34 0 86 -4l-7 -55h-169l8 63q-32 133 -70 211h-192l-31 -214l77 -3l-6 -57h-246l7 57q60 4 89 5l84 576l-90 6zM221 337h182
q68 0 110 34.5t50 91.5l5 41q9 63 -22 96.5t-100 33.5h-183z" />
    <glyph glyph-name="racute" unicode="&#x155;" horiz-adv-x="435" 
d="M353 703l-2 -12l-137 -107l-29 21l114 126zM231 512l-14 -95q50 54 92 77t96 23h41l-8 -70l-61 -3q-88 0 -166 -83l-53 -361h-76l66 453q-14 1 -40 3.5t-30 2.5l6 53h147z" />
    <glyph glyph-name="Rcommaaccent" unicode="&#x156;" horiz-adv-x="691" 
d="M103 700h351q105 0 153.5 -50t35.5 -144l-6 -48q-18 -132 -160 -176q49 -106 79 -223q34 0 86 -4l-7 -55h-169l8 63q-32 133 -70 211h-192l-31 -214l77 -3l-6 -57h-246l7 57q60 4 89 5l84 576l-90 6zM221 337h182q68 0 110 34.5t50 91.5l5 41q9 63 -22 96.5t-100 33.5
h-183zM274 -108l8 34q7 23 33 17q22 -5 29.5 -11.5t4.5 -23.5q-3 -32 -29 -65q-20 -25 -55 -53l-16 15q39 40 49 81z" />
    <glyph glyph-name="rcommaaccent" unicode="&#x157;" horiz-adv-x="435" 
d="M231 512l-14 -95q50 54 92 77t96 23h41l-8 -70l-61 -3q-88 0 -166 -83l-53 -361h-76l66 453q-14 1 -40 3.5t-30 2.5l6 53h147zM65 -108l8 34q7 23 33 17q22 -5 29.5 -11.5t4.5 -23.5q-3 -32 -29 -65q-20 -25 -55 -53l-16 15q39 40 49 81z" />
    <glyph glyph-name="Rcaron" unicode="&#x158;" horiz-adv-x="691" 
d="M434 755h-46l-97 113l27 21l98 -88l124 88l21 -21zM103 700h351q105 0 153.5 -50t35.5 -144l-6 -48q-18 -132 -160 -176q49 -106 79 -223q34 0 86 -4l-7 -55h-169l8 63q-32 133 -70 211h-192l-31 -214l77 -3l-6 -57h-246l7 57q60 4 89 5l84 576l-90 6zM221 337h182
q68 0 110 34.5t50 91.5l5 41q9 63 -22 96.5t-100 33.5h-183z" />
    <glyph glyph-name="rcaron" unicode="&#x159;" horiz-adv-x="435" 
d="M278 589h-46l-96 113l26 21l99 -88l123 88l22 -21zM231 512l-14 -95q50 54 92 77t96 23h41l-8 -70l-61 -3q-88 0 -166 -83l-53 -361h-76l66 453q-14 1 -40 3.5t-30 2.5l6 53h147z" />
    <glyph glyph-name="Sacute" unicode="&#x15a;" horiz-adv-x="650" 
d="M510 869l-2 -12l-140 -109l-31 22l116 128zM129 205l-6 -113q69 -37 180 -37h13q88 0 126 26t47 93l5 31q7 51 -10.5 74t-75.5 37l-195 46q-71 20 -93.5 54.5t-11.5 105.5l1 14q13 94 72 133.5t183 39.5h21q122 0 231 -47l-21 -161h-62l6 114q-61 31 -159 31h-21
q-81 0 -120 -26t-48 -85l-1 -13q-6 -41 7.5 -62t55.5 -32l211 -49q72 -18 96.5 -55t13.5 -111l-6 -44q-13 -97 -71 -137t-184 -40h-26q-72 0 -126 13t-116 44l20 156h64z" />
    <glyph glyph-name="sacute" unicode="&#x15b;" horiz-adv-x="535" 
d="M397 703l-2 -12l-137 -107l-29 21l114 126zM76 381l3 19q17 124 207 124h17q41 0 97.5 -10t95.5 -29l-14 -109h-62l5 71q-47 25 -132 25q-134 0 -146 -79l-1 -8q-6 -39 16.5 -52t106.5 -30q7 -1 11.5 -2t11.5 -2.5t13 -2.5q100 -20 133.5 -46.5t24.5 -88.5l-3 -23
q-11 -79 -60.5 -113.5t-142.5 -34.5h-39q-137 0 -187 69l14 93h55l-3 -67q25 -40 125 -40h34q60 0 92.5 22.5t39.5 74.5l2 15q6 41 -21 55.5t-131 34.5q-105 20 -137.5 47t-24.5 87z" />
    <glyph glyph-name="Scedilla" unicode="&#x15e;" horiz-adv-x="650" 
d="M533 501l6 114q-61 31 -159 31h-21q-81 0 -120 -26t-48 -85l-1 -13q-6 -41 7.5 -62t55.5 -32l211 -49q72 -18 96.5 -55t13.5 -111l-6 -44q-13 -97 -71 -137t-184 -40h-26h-18l-8 -30h39q72 0 63 -63l-2 -9q-4 -33 -24 -47t-58 -15q-44 0 -98 9l2 24h96q18 0 30.5 10.5
t14.5 25.5v4q2 18 -4.5 25t-28.5 7h-74l23 60q-94 6 -195 56l20 156h64l-6 -113q69 -37 180 -37h13q88 0 126 26t47 93l5 31q7 51 -10.5 74t-75.5 37l-195 46q-71 20 -93.5 54.5t-11.5 105.5l1 14q13 94 72 133.5t183 39.5h21q122 0 231 -47l-21 -161h-62z" />
    <glyph glyph-name="scedilla" unicode="&#x15f;" horiz-adv-x="535" 
d="M420 376l5 71q-47 25 -132 25q-134 0 -146 -79l-1 -8q-6 -39 16.5 -52t106.5 -30q7 -1 11.5 -2t11.5 -2.5t13 -2.5q100 -20 133.5 -46.5t24.5 -88.5l-3 -23q-11 -79 -60.5 -113.5t-142.5 -34.5h-39h-8l-7 -28h39q72 0 63 -63l-2 -9q-4 -33 -24 -47t-58 -15q-44 0 -98 9
l2 24h96q18 0 30.5 10.5t14.5 25.5v4q2 18 -4.5 25t-28.5 7h-74l23 59q-108 9 -151 67l14 93h55l-3 -67q25 -40 125 -40h34q60 0 92.5 22.5t39.5 74.5l2 15q6 41 -21 55.5t-131 34.5q-105 20 -137.5 47t-24.5 87l3 19q17 124 207 124h17q41 0 97.5 -10t95.5 -29l-14 -109
h-62z" />
    <glyph glyph-name="Scaron" unicode="&#x160;" horiz-adv-x="650" 
d="M419 755h-46l-97 113l27 21l98 -88l124 88l21 -21zM129 205l-6 -113q69 -37 180 -37h13q88 0 126 26t47 93l5 31q7 51 -10.5 74t-75.5 37l-195 46q-71 20 -93.5 54.5t-11.5 105.5l1 14q13 94 72 133.5t183 39.5h21q122 0 231 -47l-21 -161h-62l6 114q-61 31 -159 31h-21
q-81 0 -120 -26t-48 -85l-1 -13q-6 -41 7.5 -62t55.5 -32l211 -49q72 -18 96.5 -55t13.5 -111l-6 -44q-13 -97 -71 -137t-184 -40h-26q-72 0 -126 13t-116 44l20 156h64z" />
    <glyph glyph-name="scaron" unicode="&#x161;" horiz-adv-x="535" 
d="M338 589h-46l-96 113l26 21l99 -88l123 88l22 -21zM76 381l3 19q17 124 207 124h17q41 0 97.5 -10t95.5 -29l-14 -109h-62l5 71q-47 25 -132 25q-134 0 -146 -79l-1 -8q-6 -39 16.5 -52t106.5 -30q7 -1 11.5 -2t11.5 -2.5t13 -2.5q100 -20 133.5 -46.5t24.5 -88.5l-3 -23
q-11 -79 -60.5 -113.5t-142.5 -34.5h-39q-137 0 -187 69l14 93h55l-3 -67q25 -40 125 -40h34q60 0 92.5 22.5t39.5 74.5l2 15q6 41 -21 55.5t-131 34.5q-105 20 -137.5 47t-24.5 87z" />
    <glyph glyph-name="Tcaron" unicode="&#x164;" horiz-adv-x="684" 
d="M436 755h-46l-97 113l27 21l98 -88l124 88l21 -21zM628 520l10 114h-202l-82 -572q12 0 26.5 -1t32.5 -2.5t28 -2.5l-7 -56h-255l7 57q55 4 89 5l82 572h-204l-22 -114h-56l25 180h609l-25 -180h-56z" />
    <glyph glyph-name="tcaron" unicode="&#x165;" horiz-adv-x="388" 
d="M372 727l-1 -17l-62 -143h-41l43 160h61zM212 55h9q58 0 95 3l-5 -46q-63 -22 -131 -22h-10q-58 0 -79 32.5t-11 106.5l46 325h-68l8 58h53q20 0 23 23l19 126q34 6 69 7l-21 -156h154l-8 -58h-153l-42 -296q-9 -63 1 -83t51 -20z" />
    <glyph glyph-name="Umacron" unicode="&#x16a;" horiz-adv-x="768" 
d="M595 822l-7 -49h-255l7 49h255zM791 700l-6 -57q-56 -4 -77 -5l-60 -420q-17 -116 -82 -172t-181 -56h-64q-236 0 -203 232l59 417q-26 1 -82 5l6 56h251l-7 -57q-61 -4 -88 -5l-61 -427q-11 -75 23.5 -115t111.5 -40h59q77 0 124.5 42t58.5 118l61 423q-20 1 -84 5l7 56
h234z" />
    <glyph glyph-name="umacron" unicode="&#x16b;" horiz-adv-x="668" 
d="M510 656l-6 -48h-242l6 48h242zM584 512l-58 -404q-3 -29 7.5 -43t40.5 -14h47l-6 -50q-33 -9 -76 -9q-89 0 -88 89l2 19q-73 -48 -130.5 -74t-115.5 -26h-11q-70 0 -93 29t-12 109l46 315q-4 0 -14 1t-28.5 2t-39.5 3l6 53h159l-48 -340q-10 -68 1.5 -87.5t62.5 -19.5
h12q79 0 208 87l45 301q-4 0 -13.5 1t-28.5 2t-40 3l6 53h159z" />
    <glyph glyph-name="Uring" unicode="&#x16e;" horiz-adv-x="768" 
d="M468 745h-21q-32 0 -49 19.5t-13 52.5l3 18q9 67 79 67h21q33 0 50 -19.5t12 -51.5l-3 -19q-4 -33 -25 -50t-54 -17zM451 776h18q39 0 44 40l3 19q4 37 -34 37h-14q-42 0 -47 -39l-2 -20q-6 -37 32 -37zM791 700l-6 -57q-56 -4 -77 -5l-60 -420q-17 -116 -82 -172
t-181 -56h-64q-236 0 -203 232l59 417q-26 1 -82 5l6 56h251l-7 -57q-61 -4 -88 -5l-61 -427q-11 -75 23.5 -115t111.5 -40h59q77 0 124.5 42t58.5 118l61 423q-20 1 -84 5l7 56h234z" />
    <glyph glyph-name="uring" unicode="&#x16f;" horiz-adv-x="668" 
d="M392 585h-20q-31 0 -47 19t-11 50l1 18q11 64 76 64h19q31 0 47.5 -19t11.5 -50l-2 -17q-4 -31 -24 -48t-51 -17zM376 615h17q37 0 43 38l2 18q6 36 -33 36h-13q-41 0 -45 -38l-3 -18q-6 -36 32 -36zM584 512l-58 -404q-3 -29 7.5 -43t40.5 -14h47l-6 -50q-33 -9 -76 -9
q-89 0 -88 89l2 19q-73 -48 -130.5 -74t-115.5 -26h-11q-70 0 -93 29t-12 109l46 315q-4 0 -14 1t-28.5 2t-39.5 3l6 53h159l-48 -340q-10 -68 1.5 -87.5t62.5 -19.5h12q79 0 208 87l45 301q-4 0 -13.5 1t-28.5 2t-40 3l6 53h159z" />
    <glyph glyph-name="Uhungarumlaut" unicode="&#x170;" horiz-adv-x="768" 
d="M525 875l-1 -11l-130 -112l-27 20l114 126zM646 875l-1 -11l-130 -112l-27 20l114 126zM791 700l-6 -57q-56 -4 -77 -5l-60 -420q-17 -116 -82 -172t-181 -56h-64q-236 0 -203 232l59 417q-26 1 -82 5l6 56h251l-7 -57q-61 -4 -88 -5l-61 -427q-11 -75 23.5 -115
t111.5 -40h59q77 0 124.5 42t58.5 118l61 423q-20 1 -84 5l7 56h234z" />
    <glyph glyph-name="uhungarumlaut" unicode="&#x171;" horiz-adv-x="668" 
d="M432 709l-2 -11l-127 -111l-26 20l111 124zM550 709l-2 -11l-127 -111l-26 20l112 124zM584 512l-58 -404q-3 -29 7.5 -43t40.5 -14h47l-6 -50q-33 -9 -76 -9q-89 0 -88 89l2 19q-73 -48 -130.5 -74t-115.5 -26h-11q-70 0 -93 29t-12 109l46 315q-4 0 -14 1t-28.5 2
t-39.5 3l6 53h159l-48 -340q-10 -68 1.5 -87.5t62.5 -19.5h12q79 0 208 87l45 301q-4 0 -13.5 1t-28.5 2t-40 3l6 53h159z" />
    <glyph glyph-name="Uogonek" unicode="&#x172;" horiz-adv-x="768" 
d="M791 700l-6 -57q-56 -4 -77 -5l-60 -420q-17 -116 -82 -172t-181 -56h-43q-69 -40 -71 -67v-5q-2 -19 8 -27.5t35 -8.5q40 0 79 21l13 -26q-54 -36 -102 -36h-10q-39 0 -57 18t-16 51l1 5q5 45 70 76q-206 14 -174 231l59 417q-26 1 -82 5l6 56h251l-7 -57q-61 -4 -88 -5
l-61 -427q-11 -75 23.5 -115t111.5 -40h59q77 0 124.5 42t58.5 118l61 423q-20 1 -84 5l7 56h234z" />
    <glyph glyph-name="uogonek" unicode="&#x173;" horiz-adv-x="668" 
d="M436 -77v-5q-2 -19 8 -27.5t35 -8.5q40 0 79 21l13 -26q-54 -36 -102 -36h-10q-39 0 -57 18t-16 51l1 5q6 55 100 88q-37 22 -36 78l2 19q-73 -48 -130.5 -74t-115.5 -26h-11q-70 0 -93 29t-12 109l46 315q-4 0 -14 1t-28.5 2t-39.5 3l6 53h159l-48 -340
q-10 -68 1.5 -87.5t62.5 -19.5h12q79 0 208 87l45 301q-4 0 -13.5 1t-28.5 2t-40 3l6 53h159l-58 -404q-3 -29 7.5 -43t40.5 -14h47l-6 -50q-33 -9 -76 -9q-9 0 -25 2q-26 -15 -38.5 -23t-25.5 -21.5t-14 -26.5z" />
    <glyph glyph-name="Wcircumflex" unicode="&#x174;" horiz-adv-x="1019" 
d="M698 753l-100 89l-125 -89l-23 21l129 116h49l97 -116zM1063 700l-7 -57q-50 -4 -73 -4l-262 -639h-102l-62 561h-3l-219 -561h-111l-79 639q-19 1 -71 5l6 56h247l-7 -57q-25 -2 -90 -4l62 -550h5l243 611h70l72 -610h6l223 549q-32 1 -90 5l6 56h236z" />
    <glyph glyph-name="wcircumflex" unicode="&#x175;" horiz-adv-x="875" 
d="M596 589l-99 88l-123 -88l-22 20l128 114h46l96 -114zM893 512l-6 -54q-59 -4 -73 -5l-198 -453h-90l-72 393l-185 -393h-86l-69 454q-12 1 -67 5l6 53h214l-6 -54q-16 -1 -41 -2.5t-35 -1.5l52 -380h2l200 438h62l81 -438h1l164 380q-10 0 -74 5l6 53h214z" />
    <glyph glyph-name="Ycircumflex" unicode="&#x176;" horiz-adv-x="707" 
d="M539 753l-100 89l-125 -89l-23 21l129 116h49l97 -116zM316 643l-77 -3l124 -325h2l217 324q-18 1 -78 5l6 56h239l-7 -57q-17 -2 -47 -4t-33 -2l-271 -385l-28 -190q16 -1 47 -3.5t35 -2.5l-6 -56h-247l6 57q63 4 86 5l28 187l-158 390q-8 0 -78 5l7 56h240z" />
    <glyph glyph-name="ycircumflex" unicode="&#x177;" horiz-adv-x="652" 
d="M484 589l-99 88l-123 -88l-22 20l128 114h46l96 -114zM672 512l-6 -54q-48 -5 -82 -6l-314 -545q28 0 64 -3l-7 -53h-238l7 53q44 4 100 4l49 83l-131 463q-14 1 -68 5l6 53h233l-6 -54q-35 -2 -88 -4l101 -382h4l220 382q-9 0 -71 5l6 53h221z" />
    <glyph glyph-name="Ydieresis" unicode="&#x178;" horiz-adv-x="707" 
d="M340 780q-20 0 -31.5 12.5t-9.5 31.5q3 17 16 26.5t31 9.5q20 0 31.5 -12.5t8.5 -32.5q-2 -16 -15 -25.5t-31 -9.5zM524 780q-19 0 -30.5 12.5t-9.5 31.5q3 17 16 26.5t31 9.5q20 0 31.5 -12.5t8.5 -32.5q-2 -16 -15.5 -25.5t-31.5 -9.5zM316 643l-77 -3l124 -325h2
l217 324q-18 1 -78 5l6 56h239l-7 -57q-17 -2 -47 -4t-33 -2l-271 -385l-28 -190q16 -1 47 -3.5t35 -2.5l-6 -56h-247l6 57q63 4 86 5l28 187l-158 390q-8 0 -78 5l7 56h240z" />
    <glyph glyph-name="Zacute" unicode="&#x179;" horiz-adv-x="628" 
d="M503 869l-2 -12l-140 -109l-31 22l116 128zM634 644l-503 -582h353l28 124h56l-26 -186h-524l7 50q1 12 13 25l498 563h-361l-28 -118h-56l25 180h525z" />
    <glyph glyph-name="zacute" unicode="&#x17a;" horiz-adv-x="552" 
d="M411 703l-2 -12l-137 -107l-29 21l114 126zM528 457l-418 -399h306l31 102h43l-27 -160h-458l6 48q4 18 19 28l407 380h-297l-23 -100h-44l24 156h438z" />
    <glyph glyph-name="Zdotaccent" unicode="&#x17b;" horiz-adv-x="628" 
d="M394 779q-20 0 -32 13t-10 32q3 17 16.5 27t31.5 10q21 0 32.5 -12.5t8.5 -33.5q-2 -16 -15.5 -26t-31.5 -10zM634 644l-503 -582h353l28 124h56l-26 -186h-524l7 50q1 12 13 25l498 563h-361l-28 -118h-56l25 180h525z" />
    <glyph glyph-name="zdotaccent" unicode="&#x17c;" horiz-adv-x="552" 
d="M335 614q-20 0 -31.5 12.5t-8.5 31.5q2 17 15.5 27.5t31.5 10.5q21 0 32.5 -13t8.5 -34q-2 -15 -16 -25t-32 -10zM528 457l-418 -399h306l31 102h43l-27 -160h-458l6 48q4 18 19 28l407 380h-297l-23 -100h-44l24 156h438z" />
    <glyph glyph-name="Zcaron" unicode="&#x17d;" horiz-adv-x="628" 
d="M412 755h-46l-97 113l27 21l98 -88l124 88l21 -21zM634 644l-503 -582h353l28 124h56l-26 -186h-524l7 50q1 12 13 25l498 563h-361l-28 -118h-56l25 180h525z" />
    <glyph glyph-name="zcaron" unicode="&#x17e;" horiz-adv-x="552" 
d="M353 589h-46l-96 113l26 21l99 -88l123 88l22 -21zM528 457l-418 -399h306l31 102h43l-27 -160h-458l6 48q4 18 19 28l407 380h-297l-23 -100h-44l24 156h438z" />
    <glyph glyph-name="florin" unicode="&#x192;" horiz-adv-x="471" 
d="M448 432l-8 -59h-147l-77 -264q-19 -61 -44 -90.5t-76 -39.5q-25 -5 -57 -8.5t-46 -5.5l-6 43q43 11 70 18q37 10 51.5 29.5t27.5 60.5l76 257h-82l6 53q26 2 46.5 3t30.5 1.5t15 0.5l40 136q18 60 43 89t76 41q8 2 116 17l2 -52q-22 -5 -81 -22q-37 -10 -52 -29.5
t-27 -59.5l-35 -119h138z" />
    <glyph glyph-name="Scommaaccent" unicode="&#x218;" horiz-adv-x="650" 
d="M129 205l-6 -113q69 -37 180 -37h13q88 0 126 26t47 93l5 31q7 51 -10.5 74t-75.5 37l-195 46q-71 20 -93.5 54.5t-11.5 105.5l1 14q13 94 72 133.5t183 39.5h21q122 0 231 -47l-21 -161h-62l6 114q-61 31 -159 31h-21q-81 0 -120 -26t-48 -85l-1 -13q-6 -41 7.5 -62
t55.5 -32l211 -49q72 -18 96.5 -55t13.5 -111l-6 -44q-13 -97 -71 -137t-184 -40h-26q-72 0 -126 13t-116 44l20 156h64zM244 -108l8 34q7 23 33 17q22 -5 29.5 -11.5t4.5 -23.5q-3 -32 -29 -65q-20 -25 -55 -53l-16 15q39 40 49 81z" />
    <glyph glyph-name="scommaaccent" unicode="&#x219;" horiz-adv-x="535" 
d="M76 381l3 19q17 124 207 124h17q41 0 97.5 -10t95.5 -29l-14 -109h-62l5 71q-47 25 -132 25q-134 0 -146 -79l-1 -8q-6 -39 16.5 -52t106.5 -30q7 -1 11.5 -2t11.5 -2.5t13 -2.5q100 -20 133.5 -46.5t24.5 -88.5l-3 -23q-11 -79 -60.5 -113.5t-142.5 -34.5h-39
q-137 0 -187 69l14 93h55l-3 -67q25 -40 125 -40h34q60 0 92.5 22.5t39.5 74.5l2 15q6 41 -21 55.5t-131 34.5q-105 20 -137.5 47t-24.5 87zM186 -108l8 34q7 23 33 17q22 -5 29.5 -11.5t4.5 -23.5q-3 -32 -29 -65q-20 -25 -55 -53l-16 15q39 40 49 81z" />
    <glyph glyph-name="uni021A" unicode="&#x21a;" horiz-adv-x="684" 
d="M628 520l10 114h-202l-82 -572q12 0 26.5 -1t32.5 -2.5t28 -2.5l-7 -56h-255l7 57q55 4 89 5l82 572h-204l-22 -114h-56l25 180h609l-25 -180h-56zM261 -108l8 34q7 23 33 17q22 -5 29.5 -11.5t4.5 -23.5q-3 -32 -29 -65q-20 -25 -55 -53l-16 15q39 40 49 81z" />
    <glyph glyph-name="uni021B" unicode="&#x21b;" horiz-adv-x="388" 
d="M212 55h9q58 0 95 3l-5 -46q-63 -22 -131 -22h-10q-58 0 -79 32.5t-11 106.5l46 325h-68l8 58h53q20 0 23 23l19 126q34 6 69 7l-21 -156h154l-8 -58h-153l-42 -296q-9 -63 1 -83t51 -20zM103 -108l8 34q7 23 33 17q22 -5 29.5 -11.5t4.5 -23.5q-3 -32 -29 -65
q-20 -25 -55 -53l-16 15q39 40 49 81z" />
    <glyph glyph-name="circumflex" unicode="&#x2c6;" 
d="M408 589l-99 88l-123 -88l-22 20l128 114h46l96 -114z" />
    <glyph glyph-name="caron" unicode="&#x2c7;" 
d="M320 589h-46l-96 113l26 21l99 -88l123 88l22 -21z" />
    <glyph glyph-name="breve" unicode="&#x2d8;" 
d="M436 710l-2 -17q-7 -52 -42 -80t-93 -28q-60 0 -89 30t-21 83l1 12h46l-1 -10q-10 -68 65 -68q80 0 90 73l1 5h45z" />
    <glyph glyph-name="dotaccent" unicode="&#x2d9;" 
d="M302 614q-20 0 -31.5 12.5t-8.5 31.5q2 17 15.5 27.5t31.5 10.5q21 0 32.5 -13t8.5 -34q-2 -15 -16 -25t-32 -10z" />
    <glyph glyph-name="ring" unicode="&#x2da;" 
d="M307 582h-20q-31 0 -47 19t-11 50l1 18q11 64 76 64h19q31 0 47.5 -19t11.5 -50l-2 -17q-4 -31 -24 -48t-51 -17zM291 612h17q37 0 43 38l2 18q6 36 -33 36h-13q-41 0 -45 -38l-3 -18q-6 -36 32 -36z" />
    <glyph glyph-name="ogonek" unicode="&#x2db;" 
d="M224 7l35 -2q-6 -4 -21.5 -13t-22.5 -13.5t-18.5 -12.5t-17.5 -14t-10.5 -14t-5.5 -15v-5q-2 -19 8 -27.5t35 -8.5q40 0 79 21l13 -26q-54 -36 -102 -36h-10q-39 0 -57 18t-16 51l1 5q3 33 32.5 54t77.5 38z" />
    <glyph glyph-name="tilde" unicode="&#x2dc;" 
d="M478 704l-77 -73q-24 -21 -46 -21q-12 0 -26.5 12.5t-34 32.5t-33.5 31l-101 -74l-20 20l76 72q25 23 46 23q13 0 28.5 -12.5t34.5 -33.5t31 -30l101 73z" />
    <glyph glyph-name="hungarumlaut" unicode="&#x2dd;" 
d="M325 709l-2 -11l-127 -111l-26 20l111 124zM443 709l-2 -11l-127 -111l-26 20l112 124z" />
    <glyph glyph-name="commaaccentcomb" unicode="&#x326;" horiz-adv-x="0" 
d="M161 -108l8 34q7 23 33 17q22 -5 29.5 -11.5t4.5 -23.5q-3 -32 -29 -65q-20 -25 -55 -53l-16 15q39 40 49 81z" />
    <glyph glyph-name="Wgrave" unicode="&#x1e80;" horiz-adv-x="1019" 
d="M635 770l-33 -20l-108 107v12l61 28zM1063 700l-7 -57q-50 -4 -73 -4l-262 -639h-102l-62 561h-3l-219 -561h-111l-79 639q-19 1 -71 5l6 56h247l-7 -57q-25 -2 -90 -4l62 -550h5l243 611h70l72 -610h6l223 549q-32 1 -90 5l6 56h236z" />
    <glyph glyph-name="wgrave" unicode="&#x1e81;" horiz-adv-x="875" 
d="M493 605l-34 -21l-108 107v12l61 28zM893 512l-6 -54q-59 -4 -73 -5l-198 -453h-90l-72 393l-185 -393h-86l-69 454q-12 1 -67 5l6 53h214l-6 -54q-16 -1 -41 -2.5t-35 -1.5l52 -380h2l200 438h62l81 -438h1l164 380q-10 0 -74 5l6 53h214z" />
    <glyph glyph-name="Wacute" unicode="&#x1e82;" horiz-adv-x="1019" 
d="M700 869l-2 -12l-140 -109l-31 22l116 128zM1063 700l-7 -57q-50 -4 -73 -4l-262 -639h-102l-62 561h-3l-219 -561h-111l-79 639q-19 1 -71 5l6 56h247l-7 -57q-25 -2 -90 -4l62 -550h5l243 611h70l72 -610h6l223 549q-32 1 -90 5l6 56h236z" />
    <glyph glyph-name="wacute" unicode="&#x1e83;" horiz-adv-x="875" 
d="M554 703l-2 -12l-137 -107l-29 21l114 126zM893 512l-6 -54q-59 -4 -73 -5l-198 -453h-90l-72 393l-185 -393h-86l-69 454q-12 1 -67 5l6 53h214l-6 -54q-16 -1 -41 -2.5t-35 -1.5l52 -380h2l200 438h62l81 -438h1l164 380q-10 0 -74 5l6 53h214z" />
    <glyph glyph-name="Wdieresis" unicode="&#x1e84;" horiz-adv-x="1019" 
d="M499 780q-20 0 -31.5 12.5t-9.5 31.5q3 17 16 26.5t31 9.5q20 0 31.5 -12.5t8.5 -32.5q-2 -16 -15 -25.5t-31 -9.5zM683 780q-19 0 -30.5 12.5t-9.5 31.5q3 17 16 26.5t31 9.5q20 0 31.5 -12.5t8.5 -32.5q-2 -16 -15.5 -25.5t-31.5 -9.5zM1063 700l-7 -57q-50 -4 -73 -4
l-262 -639h-102l-62 561h-3l-219 -561h-111l-79 639q-19 1 -71 5l6 56h247l-7 -57q-25 -2 -90 -4l62 -550h5l243 611h70l72 -610h6l223 549q-32 1 -90 5l6 56h236z" />
    <glyph glyph-name="wdieresis" unicode="&#x1e85;" horiz-adv-x="875" 
d="M402 617q-18 0 -29 11.5t-9 29.5q2 15 14.5 24.5t29.5 9.5q18 0 29 -12t8 -31q-1 -14 -13.5 -23t-29.5 -9zM580 617q-18 0 -29 11.5t-8 29.5q2 16 14 25t29 9q18 0 29 -12t9 -31q-2 -14 -14.5 -23t-29.5 -9zM893 512l-6 -54q-59 -4 -73 -5l-198 -453h-90l-72 393
l-185 -393h-86l-69 454q-12 1 -67 5l6 53h214l-6 -54q-16 -1 -41 -2.5t-35 -1.5l52 -380h2l200 438h62l81 -438h1l164 380q-10 0 -74 5l6 53h214z" />
    <glyph glyph-name="Ygrave" unicode="&#x1ef2;" horiz-adv-x="707" 
d="M476 770l-33 -20l-108 107v12l61 28zM316 643l-77 -3l124 -325h2l217 324q-18 1 -78 5l6 56h239l-7 -57q-17 -2 -47 -4t-33 -2l-271 -385l-28 -190q16 -1 47 -3.5t35 -2.5l-6 -56h-247l6 57q63 4 86 5l28 187l-158 390q-8 0 -78 5l7 56h240z" />
    <glyph glyph-name="ygrave" unicode="&#x1ef3;" horiz-adv-x="652" 
d="M403 605l-34 -21l-108 107v12l61 28zM672 512l-6 -54q-48 -5 -82 -6l-314 -545q28 0 64 -3l-7 -53h-238l7 53q44 4 100 4l49 83l-131 463q-14 1 -68 5l6 53h233l-6 -54q-35 -2 -88 -4l101 -382h4l220 382q-9 0 -71 5l6 53h221z" />
    <glyph glyph-name="uni2009" unicode="&#x2009;" horiz-adv-x="92" 
 />
    <glyph glyph-name="uni200A" unicode="&#x200a;" horiz-adv-x="204" 
 />
    <glyph glyph-name="endash" unicode="&#x2013;" horiz-adv-x="497" 
d="M459 333l-9 -62h-399l9 62h399z" />
    <glyph glyph-name="emdash" unicode="&#x2014;" horiz-adv-x="796" 
d="M758 333l-9 -62h-698l9 62h698z" />
    <glyph glyph-name="quoteleft" unicode="&#x2018;" horiz-adv-x="184" 
d="M170 581l-14 -48q-7 -29 -39 -22q-26 6 -36 14.5t-7 28.5q8 59 103 152l19 -17q-42 -58 -53 -100z" />
    <glyph glyph-name="quoteright" unicode="&#x2019;" horiz-adv-x="184" 
d="M100 635l14 47q7 29 39 22q26 -4 36 -13t7 -29q-8 -58 -102 -153l-20 18q44 58 54 100z" />
    <glyph glyph-name="quotesinglbase" unicode="&#x201a;" horiz-adv-x="190" 
d="M12 8l15 49q8 28 40 22q26 -4 36.5 -13t7.5 -30q-8 -57 -105 -156l-20 18q45 60 55 102z" />
    <glyph glyph-name="quotedblleft" unicode="&#x201c;" horiz-adv-x="314" 
d="M172 579l-15 -48q-7 -30 -40 -23q-27 6 -37 14.5t-7 29.5q9 60 105 155l20 -18q-45 -59 -55 -101zM301 579l-15 -48q-7 -30 -40 -23q-27 6 -37 14.5t-7 29.5q9 60 105 155l20 -18q-46 -61 -54 -101z" />
    <glyph glyph-name="quotedblright" unicode="&#x201d;" horiz-adv-x="314" 
d="M98 633l15 49q7 28 40 22q26 -5 36.5 -14t7.5 -29q-10 -61 -105 -156l-20 18q46 63 54 102zM227 633l15 49q7 29 40 22q26 -5 36.5 -14t7.5 -29q-8 -59 -105 -156l-20 18q44 59 55 102z" />
    <glyph glyph-name="quotedblbase" unicode="&#x201e;" horiz-adv-x="317" 
d="M12 8l15 49q8 28 40 22q26 -4 36.5 -13t7.5 -30q-8 -57 -105 -156l-20 18q45 60 55 102zM142 8l15 49q8 28 40 22q26 -4 36.5 -13t7.5 -30q-8 -57 -105 -156l-20 18q45 60 55 102z" />
    <glyph glyph-name="dagger" unicode="&#x2020;" horiz-adv-x="387" 
d="M391 511h-42l-107 18l5 -89l-5 -36l-55 -246h-13l11 246l5 36l32 89l-113 -18h-41l8 56h41l108 -18l-3 109l5 42h57l-6 -42l-33 -109l112 18h42z" />
    <glyph glyph-name="daggerdbl" unicode="&#x2021;" horiz-adv-x="387" 
d="M242 529l5 -89l-6 -45l-30 -89l112 18h42l-8 -56h-42l-106 17v-108l-5 -42h-56l5 42l34 109l-112 -18h-41l7 56h42l108 -18l-6 89l5 45l32 89l-113 -18h-41l8 56h41l108 -18l-3 109l5 42h57l-6 -42l-33 -109l112 18h42l-8 -56h-42z" />
    <glyph glyph-name="bullet" unicode="&#x2022;" horiz-adv-x="322" 
d="M171 181q-151 0 -131 139q19 136 165 136q73 0 106.5 -36.5t23.5 -108.5q-19 -130 -164 -130z" />
    <glyph glyph-name="ellipsis" unicode="&#x2026;" horiz-adv-x="502" 
d="M70 87q52 0 44 -51q-6 -40 -53 -40q-50 0 -44 49q6 42 53 42zM224 87q52 0 44 -51q-6 -40 -53 -40q-50 0 -44 49q6 42 53 42zM381 87q50 0 44 -51q-6 -40 -53 -40q-50 0 -44 49q6 42 53 42z" />
    <glyph glyph-name="perthousand" unicode="&#x2030;" horiz-adv-x="1258" 
d="M251 711h60q78 -1 102 -40.5t12 -127.5l-9 -66q-12 -87 -46.5 -124.5t-112.5 -37.5h-60q-78 0 -103 39.5t-13 127.5l9 65q12 88 47 126t114 38zM777 708l-309 -355l-308 -359h-39l316 359l302 355h38zM301 659h-52q-51 0 -72.5 -28t-30.5 -91l-8 -60q-9 -62 3.5 -87.5
t63.5 -25.5h52q50 0 72 28t31 90l8 60q9 62 -4 88t-63 26zM651 385h60q78 0 103 -39.5t12 -127.5l-9 -66q-13 -87 -47 -124.5t-111 -37.5h-60q-79 0 -104 39.5t-13 126.5l9 66q13 88 47 125.5t113 37.5zM1035 -10h-60q-78 0 -103 39.5t-13 126.5l9 66q12 87 46.5 125
t113.5 38h60q78 0 102.5 -39.5t12.5 -127.5l-9 -66q-13 -87 -47.5 -124.5t-111.5 -37.5zM702 334h-52q-50 0 -72 -28.5t-31 -90.5l-8 -60q-9 -62 4 -88t63 -26h52q50 0 72 28t31 90l8 61q9 62 -4 88t-63 26zM983 41h52q50 0 72 28t31 90l8 61q9 62 -4 88t-63 26h-52
q-51 0 -73 -28.5t-30 -90.5l-9 -60q-9 -62 4 -88t64 -26z" />
    <glyph glyph-name="guilsinglleft" unicode="&#x2039;" horiz-adv-x="306" 
d="M118 262l117 -170l-3 -25h-45l-145 195v6l200 195h45l-3 -26l-164 -169z" />
    <glyph glyph-name="guilsinglright" unicode="&#x203a;" horiz-adv-x="306" 
d="M66 437l3 26h45l145 -195v-6l-200 -195h-45l3 25l165 170l1 6z" />
    <glyph glyph-name="fraction" unicode="&#x2044;" horiz-adv-x="214" 
d="M449 708l-310 -355l-308 -359h-39l316 359l302 355h39z" />
    <glyph glyph-name="zeroinferior" unicode="&#x2080;" horiz-adv-x="413" 
d="M175 -142h-44q-72 0 -100 34.5t-17 108.5l18 131q11 75 46 107.5t109 32.5h44q72 0 99 -35t16 -109l-18 -131q-11 -74 -46.5 -106.5t-106.5 -32.5zM142 -98h28q88 0 102 100l18 130q7 50 -9.5 72.5t-62.5 22.5h-28q-46 0 -70.5 -24.5t-31.5 -74.5l-18 -131q-8 -49 9 -72
t63 -23z" />
    <glyph glyph-name="oneinferior" unicode="&#x2081;" horiz-adv-x="329" 
d="M209 273l-53 -369q14 0 43.5 -1.5t44.5 -2.5l-5 -40h-249l4 40q70 4 104 4l45 319l-109 -27l5 37l134 40h36z" />
    <glyph glyph-name="twoinferior" unicode="&#x2082;" horiz-adv-x="400" 
d="M291 -140h-300l6 44q9 69 33.5 105.5t78.5 55.5q68 21 82 25q45 14 64.5 29.5t22.5 38.5l2 14q5 34 -9.5 45t-63.5 11q-72 0 -107 -15l-13 -52h-43l10 86q73 26 155 26q76 0 104 -22.5t20 -80.5l-3 -24q-5 -31 -28.5 -53t-77.5 -41l-87 -27q-44 -16 -61.5 -39.5
t-25.5 -81.5h203l16 73h38z" />
    <glyph glyph-name="threeinferior" unicode="&#x2083;" horiz-adv-x="371" 
d="M312 164l-2 -11q-5 -40 -20 -61t-46 -29q53 -11 42 -89l-2 -13q-9 -60 -42 -81.5t-113 -21.5q-66 0 -150 20l11 89h39l-4 -55q60 -11 106 -11q52 0 74 15.5t27 54.5l1 12q6 36 -8 49t-51 13h-97l5 39h96q35 0 54.5 15.5t25.5 53.5l1 10q6 40 -10 53t-68 13
q-53 0 -106 -14l-13 -53h-38l11 88q81 23 147 23q83 0 111 -23.5t19 -85.5z" />
    <glyph glyph-name="fourinferior" unicode="&#x2084;" horiz-adv-x="434" 
d="M269 -29l-10 -69q17 0 77 -4l-4 -38h-224l4 39q30 2 89 4l10 67h-231l5 41l267 260h59l-36 -260h80l-5 -37zM36 11h180l30 212z" />
    <glyph glyph-name="fiveinferior" unicode="&#x2085;" horiz-adv-x="411" 
d="M353 265l-14 -102h-39l5 58h-189l-29 -146q54 27 122 27h27q58 0 79 -25t12 -88l-3 -18q-8 -59 -45.5 -85.5t-110.5 -27.5h-12q-66 0 -155 21l12 98h38l-5 -63q59 -12 104 -12h14q94 1 106 77l2 15q6 42 -4.5 56.5t-47.5 14.5h-27q-67 0 -117 -31l-44 12l40 219h281z" />
    <glyph glyph-name="sixinferior" unicode="&#x2086;" horiz-adv-x="424" 
d="M204 101h37q60 0 83.5 -28.5t15.5 -87.5l-2 -10q-9 -62 -45.5 -89.5t-110.5 -27.5h-30q-156 0 -138 138l19 131q21 147 164 147h12q61 0 146 -20l-11 -91h-43v54q-40 11 -100 11q-97 0 -112 -104l-8 -54q60 31 123 31zM76 32l-7 -48q-6 -42 16.5 -62t72.5 -19h26
q47 0 70.5 19t29.5 60l2 9q6 40 -8 56t-52 16h-29q-58 0 -121 -31z" />
    <glyph glyph-name="seveninferior" unicode="&#x2087;" horiz-adv-x="346" 
d="M330 221l-234 -361h-65l1 12l241 349h-213l-16 -63h-38l15 107h314z" />
    <glyph glyph-name="eightinferior" unicode="&#x2088;" horiz-adv-x="436" 
d="M362 169l-3 -15q-9 -69 -79 -84q83 -13 71 -97l-1 -11q-8 -57 -44 -80.5t-114 -23.5h-48q-78 0 -109.5 26t-23.5 82l1 11q6 42 29 65t70 30q-66 15 -56 86l2 16q7 52 42.5 75t105.5 23h36q70 0 99 -25t22 -78zM107 165l-2 -17q-4 -31 13 -44t62 -13h35q85 0 92 62l3 17
q4 31 -14.5 46t-62.5 15h-28q-87 0 -98 -66zM295 -30l1 13q5 36 -13 52t-63 16h-53q-88 0 -98 -72l-2 -14q-5 -34 15 -49.5t69 -14.5h38q51 0 76 16.5t30 52.5z" />
    <glyph glyph-name="nineinferior" unicode="&#x2089;" horiz-adv-x="413" 
d="M162 20h-36q-61 0 -84 28t-15 92l3 20q9 60 45.5 87t107.5 27h35q150 0 134 -136l-19 -135q-21 -145 -164 -145h-11q-65 0 -145 20l11 87h45l-4 -55q39 -11 100 -11q99 0 114 105l8 53q-60 -38 -125 -37zM291 95l7 55q6 41 -16.5 60.5t-72.5 18.5h-26q-47 0 -71 -19
t-29 -60l-2 -9q-6 -45 7 -62t52 -17h33q63 0 118 33z" />
    <glyph glyph-name="Euro" unicode="&#x20ac;" horiz-adv-x="618" 
d="M528 515l10 103q-51 26 -165 26h-11q-78 0 -128.5 -47.5t-62.5 -133.5l-7 -47h289l-13 -37h-281l-9 -65h254l-14 -37h-246l-9 -70q-11 -79 23 -115t113 -36h35q121 0 179 99l56 -2l-7 -52q-84 -111 -230 -111h-46q-233 0 -202 217l9 70h-60l6 37h60l9 65h-60l5 37h59
l8 51q16 119 85 180.5t183 61.5h21q138 0 224 -40l-20 -154h-57z" />
    <glyph glyph-name="uni2116" unicode="&#x2116;" horiz-adv-x="1312" 
d="M1027 703h65q96 0 135 -46.5t25 -145.5l-20 -146q-13 -98 -64.5 -142.5t-147.5 -44.5h-65q-97 0 -137 46.5t-26 144.5l20 146q14 99 65.5 143.5t149.5 44.5zM807 700l-6 -57q-18 -2 -50.5 -4t-37.5 -2l-91 -637h-86l-289 574l-74 -513q20 -1 74 -5l-7 -56h-234l7 57
q64 4 89 5l84 576l-90 6l7 56h167l297 -580l75 519q-21 1 -77 5l7 56h235zM1084 647h-64q-122 0 -140 -131l-22 -156q-9 -65 15.5 -93.5t87.5 -28.5h64q123 0 140 127l22 155q9 67 -16 97t-87 30zM1177 0h-435l8 61h435z" />
    <glyph glyph-name="trademark" unicode="&#x2122;" horiz-adv-x="697" 
d="M332 619h-29l3 48h-76l-30 -204q9 0 26 -1t25 -1l-3 -32h-141l4 32q32 2 50 2l30 204h-77l-10 -48h-28l11 81h256zM734 700l-3 -31q-7 0 -20 -1t-20 -1l-31 -204q6 0 19 -1t20 -1l-3 -32h-114l4 32l35 2l28 195l-125 -229h-31l-61 229l-28 -195l34 -2l-4 -32h-111l3 32
q28 2 42 2l31 204q-7 0 -20.5 1t-21.5 1l3 31h93l62 -212h3l120 212h96z" />
    <glyph glyph-name="oneeighth" unicode="&#x215b;" horiz-adv-x="861" 
d="M288 708l-53 -369q14 0 43.5 -1.5t44.5 -2.5l-5 -40h-249l4 40q70 4 104 4l45 319l-109 -27l5 37l134 40h36zM751 708l-310 -355l-308 -359h-39l316 359l302 355h39zM819 309l-3 -15q-9 -69 -79 -84q83 -13 71 -97l-1 -11q-8 -57 -44 -80.5t-114 -23.5h-48
q-78 0 -109.5 26t-23.5 82l1 11q6 42 29 65t70 30q-66 15 -56 86l2 16q7 52 42.5 75t105.5 23h36q70 0 99 -25t22 -78zM564 305l-2 -17q-4 -31 13 -44t62 -13h35q85 0 92 62l3 17q4 31 -14.5 46t-62.5 15h-28q-88 0 -98 -66zM752 110l1 13q5 36 -13 52t-63 16h-53
q-88 0 -98 -72l-2 -14q-5 -34 15 -49.5t69 -14.5h38q51 0 76 16.5t30 52.5z" />
    <glyph glyph-name="threeeighths" unicode="&#x215c;" horiz-adv-x="893" 
d="M398 599l-2 -11q-5 -40 -20 -61t-46 -29q53 -11 42 -89l-2 -13q-9 -60 -42 -81.5t-113 -21.5q-66 0 -150 20l11 89h39l-4 -55q60 -11 106 -11q52 0 74 15.5t27 54.5l1 12q6 36 -8 49t-51 13h-97l5 39h96q35 0 54.5 15.5t25.5 53.5l1 10q6 40 -10 53t-68 13
q-53 0 -106 -14l-13 -53h-38l11 88q80 23 147 23q83 0 111 -23.5t19 -85.5zM788 708l-310 -355l-308 -359h-39l316 359l302 355h39zM864 309l-3 -15q-9 -69 -79 -84q83 -13 71 -97l-1 -11q-8 -57 -44 -80.5t-114 -23.5h-48q-78 0 -109.5 26t-23.5 82l1 11q6 42 29 65t70 30
q-66 15 -56 86l2 16q7 52 42.5 75t105.5 23h36q70 0 99 -25t22 -78zM609 305l-2 -17q-4 -31 13 -44t62 -13h35q85 0 92 62l3 17q4 31 -14.5 46t-62.5 15h-28q-87 0 -98 -66zM797 110l1 13q5 36 -13 52t-63 16h-53q-88 0 -98 -72l-2 -14q-5 -34 15 -49.5t69 -14.5h38
q51 0 76 16.5t30 52.5z" />
    <glyph glyph-name="fiveeighths" unicode="&#x215d;" horiz-adv-x="909" 
d="M791 708l-310 -355l-308 -359h-39l316 359l302 355h39zM425 700l-14 -102h-39l5 58h-189l-29 -146q54 27 122 27h27q58 0 79 -25t12 -88l-3 -18q-8 -59 -45.5 -85.5t-110.5 -27.5h-12q-66 0 -155 21l12 98h38l-5 -63q59 -12 104 -12h14q94 1 106 77l2 15q6 42 -4.5 56.5
t-47.5 14.5h-27q-67 0 -117 -31l-44 12l40 219h281zM866 309l-3 -15q-9 -69 -79 -84q83 -13 71 -97l-1 -11q-8 -57 -44 -80.5t-114 -23.5h-48q-78 0 -109.5 26t-23.5 82l1 11q6 42 29 65t70 30q-66 15 -56 86l2 16q7 52 42.5 75t105.5 23h36q70 0 99 -25t22 -78zM611 305
l-2 -17q-4 -31 13 -44t62 -13h35q85 0 92 62l3 17q4 31 -14.5 46t-62.5 15h-28q-87 0 -98 -66zM799 110l1 13q5 36 -13 52t-63 16h-53q-88 0 -98 -72l-2 -14q-5 -34 15 -49.5t69 -14.5h38q51 0 76 16.5t30 52.5z" />
    <glyph glyph-name="seveneighths" unicode="&#x215e;" horiz-adv-x="807" 
d="M696 708l-310 -355l-308 -359h-39l316 359l302 355h39zM416 656l-234 -361h-65l1 12l241 349h-213l-16 -63h-38l15 107h314zM779 309l-3 -15q-9 -69 -79 -84q83 -13 71 -97l-1 -11q-8 -57 -44 -80.5t-114 -23.5h-48q-78 0 -109.5 26t-23.5 82l1 11q6 42 29 65t70 30
q-66 15 -56 86l2 16q7 52 42.5 75t105.5 23h36q70 0 99 -25t22 -78zM524 305l-2 -17q-4 -31 13 -44t62 -13h35q85 0 92 62l3 17q4 31 -14.5 46t-62.5 15h-28q-88 0 -98 -66zM712 110l1 13q5 36 -13 52t-63 16h-53q-88 0 -98 -72l-2 -14q-5 -34 15 -49.5t69 -14.5h38
q51 0 76 16.5t30 52.5z" />
    <glyph glyph-name="arrowleft" unicode="&#x2190;" horiz-adv-x="778" 
d="M754 316h-597l271 -267l-47 -47l-334 334v30l334 333l47 -47l-270 -265h596v-71z" />
    <glyph glyph-name="arrowup" unicode="&#x2191;" horiz-adv-x="790" 
d="M726 325l-267 272v-597h-71v596l-265 -271l-47 48l334 334h29l334 -334z" />
    <glyph glyph-name="arrowright" unicode="&#x2192;" horiz-adv-x="778" 
d="M620 387l-270 265l47 47l335 -333v-30l-335 -334l-47 47l271 267h-596v71h595z" />
    <glyph glyph-name="arrowdown" unicode="&#x2193;" horiz-adv-x="790" 
d="M410 -7h-29l-334 334l47 48l265 -271v596h71v-597l267 272l47 -48z" />
    <glyph glyph-name="arrowupleft" unicode="&#x2196;" horiz-adv-x="626" 
d="M589 47l-51 -50l-427 430v-380h-66v472l21 21h472v-64h-379z" />
    <glyph glyph-name="arrowupright" unicode="&#x2197;" horiz-adv-x="626" 
d="M88 470v64h472l21 -20v-473h-63v380l-430 -430l-51 51l430 428h-379z" />
    <glyph glyph-name="arrowdownright" unicode="&#x2198;" horiz-adv-x="626" 
d="M37 492l51 51l427 -431v381h66v-473l-21 -21h-472v65h379z" />
    <glyph glyph-name="arrowdownleft" unicode="&#x2199;" horiz-adv-x="626" 
d="M538 64v-65h-472l-21 21v473h63v-381l430 431l51 -51l-430 -428h379z" />
    <glyph glyph-name="minus" unicode="&#x2212;" horiz-adv-x="593" 
d="M75 382h479l-9 -63h-480z" />
    <glyph glyph-name="J.ss01" horiz-adv-x="563" 
d="M596 700l-7 -57q-59 -4 -84 -5l-59 -410q-18 -127 -76.5 -182t-163.5 -55h-21q-152 0 -190 105l8 57l67 -2q4 -54 31.5 -74.5t93.5 -20.5h10q72 0 110.5 40.5t49.5 124.5l61 417q-56 2 -109 6l7 56h272z" />
    <glyph glyph-name="K.ss02" horiz-adv-x="751" 
d="M422 407l182 -346q18 0 96 -5l-6 -56h-243l6 56l65 3l-160 302l-161 -143l-23 -156q15 -1 46.5 -3.5t35.5 -2.5l-6 -56h-248l7 57q59 4 85 5l84 576q-16 1 -48 3.5t-38 2.5l7 56h249l-7 -57q-56 -4 -84 -5l-50 -345l392 347q-64 3 -77 4l7 56h249l-7 -57q-29 -2 -83 -4z
" />
    <glyph glyph-name="Kcommaaccent.ss02" horiz-adv-x="751" 
d="M422 407l182 -346q18 0 96 -5l-6 -56h-243l6 56l65 3l-160 302l-161 -143l-23 -156q15 -1 46.5 -3.5t35.5 -2.5l-6 -56h-248l7 57q59 4 85 5l84 576q-16 1 -48 3.5t-38 2.5l7 56h249l-7 -57q-56 -4 -84 -5l-50 -345l392 347q-64 3 -77 4l7 56h249l-7 -57q-29 -2 -83 -4z
M300 -108l8 34q7 23 33 17q22 -5 29.5 -11.5t4.5 -23.5q-3 -32 -29 -65q-20 -25 -55 -53l-16 15q39 40 49 81z" />
    <glyph glyph-name="Q.ss03" horiz-adv-x="715" 
d="M357 709h121q103 0 159 -70.5t41 -175.5l-36 -233q-29 -179 -152 -222q13 -25 82 -113l-37 -33q-81 70 -125 131q-21 -3 -41 -3h-102q-104 0 -161.5 70t-41.5 174l36 233q16 107 85 174.5t172 67.5zM464 641h-101q-71 0 -121.5 -50.5t-62.5 -124.5l-36 -239
q-11 -72 26 -120.5t108 -48.5h102q75 0 123 48t60 126l37 239q11 72 -26.5 121t-108.5 49z" />
    <glyph glyph-name="R.ss04" horiz-adv-x="689" 
d="M103 700h369q105 0 152 -49.5t34 -144.5l-7 -52q-12 -79 -64 -124.5t-144 -49.5q27 -86 96 -220q28 1 101 -4l-7 -56l-150 2q-76 150 -112 279h-78l8 58h113q139 0 159 122l6 43q9 63 -22 96.5t-100 33.5h-194l-82 -573q26 -1 80 -5l-7 -56h-248l7 57q56 4 89 5l84 576
l-90 6z" />
    <glyph glyph-name="Racute.ss04" horiz-adv-x="689" 
d="M539 869l-2 -12l-140 -109l-31 22l116 128zM103 700h369q105 0 152 -49.5t34 -144.5l-7 -52q-12 -79 -64 -124.5t-144 -49.5q27 -86 96 -220q28 1 101 -4l-7 -56l-150 2q-76 150 -112 279h-78l8 58h113q139 0 159 122l6 43q9 63 -22 96.5t-100 33.5h-194l-82 -573
q26 -1 80 -5l-7 -56h-248l7 57q56 4 89 5l84 576l-90 6z" />
    <glyph glyph-name="Rcaron.ss04" horiz-adv-x="689" 
d="M448 755h-46l-97 113l27 21l98 -88l124 88l21 -21zM103 700h369q105 0 152 -49.5t34 -144.5l-7 -52q-12 -79 -64 -124.5t-144 -49.5q27 -86 96 -220q28 1 101 -4l-7 -56l-150 2q-76 150 -112 279h-78l8 58h113q139 0 159 122l6 43q9 63 -22 96.5t-100 33.5h-194l-82 -573
q26 -1 80 -5l-7 -56h-248l7 57q56 4 89 5l84 576l-90 6z" />
    <glyph glyph-name="Rcommaaccent.ss04" horiz-adv-x="689" 
d="M103 700h369q105 0 152 -49.5t34 -144.5l-7 -52q-12 -79 -64 -124.5t-144 -49.5q27 -86 96 -220q28 1 101 -4l-7 -56l-150 2q-76 150 -112 279h-78l8 58h113q139 0 159 122l6 43q9 63 -22 96.5t-100 33.5h-194l-82 -573q26 -1 80 -5l-7 -56h-248l7 57q56 4 89 5l84 576
l-90 6zM273 -108l8 34q7 23 33 17q22 -5 29.5 -11.5t4.5 -23.5q-3 -32 -29 -65q-20 -25 -55 -53l-16 15q39 40 49 81z" />
    <glyph glyph-name="a.ss05" horiz-adv-x="601" 
d="M85 379l15 115q99 30 212 30h34q87 0 119.5 -45.5t20.5 -134.5l-34 -236q-8 -57 48 -57h45l-7 -50q-33 -9 -72 -9q-96 0 -88 90q-65 -49 -112 -69.5t-108 -20.5h-18q-80 0 -107 27.5t-15 108.5l3 26q6 41 19 67.5t36 40.5t45 20t60 10q41 4 115 10.5t108 9.5l6 31
q11 74 -12.5 99.5t-91.5 25.5q-83 0 -149 -22l-16 -67h-56zM176 49h17q45 0 87 19.5t99 61.5l22 139q-123 -11 -193 -20q-56 -7 -78.5 -25.5t-29.5 -67.5l-3 -23q-7 -50 9 -67t70 -17z" />
    <glyph glyph-name="aacute.ss05" horiz-adv-x="601" 
d="M440 703l-2 -12l-137 -107l-29 21l114 126zM85 379l15 115q99 30 212 30h34q87 0 119.5 -45.5t20.5 -134.5l-34 -236q-8 -57 48 -57h45l-7 -50q-33 -9 -72 -9q-96 0 -88 90q-65 -49 -112 -69.5t-108 -20.5h-18q-80 0 -107 27.5t-15 108.5l3 26q6 41 19 67.5t36 40.5
t45 20t60 10q41 4 115 10.5t108 9.5l6 31q11 74 -12.5 99.5t-91.5 25.5q-83 0 -149 -22l-16 -67h-56zM176 49h17q45 0 87 19.5t99 61.5l22 139q-123 -11 -193 -20q-56 -7 -78.5 -25.5t-29.5 -67.5l-3 -23q-7 -50 9 -67t70 -17z" />
    <glyph glyph-name="abreve.ss05" horiz-adv-x="601" 
d="M457 710l-2 -17q-7 -52 -42 -80t-93 -28q-60 0 -89 30t-21 83l1 12h46l-1 -10q-10 -68 65 -68q80 0 90 73l1 5h45zM85 379l15 115q99 30 212 30h34q87 0 119.5 -45.5t20.5 -134.5l-34 -236q-8 -57 48 -57h45l-7 -50q-33 -9 -72 -9q-96 0 -88 90q-65 -49 -112 -69.5
t-108 -20.5h-18q-80 0 -107 27.5t-15 108.5l3 26q6 41 19 67.5t36 40.5t45 20t60 10q41 4 115 10.5t108 9.5l6 31q11 74 -12.5 99.5t-91.5 25.5q-83 0 -149 -22l-16 -67h-56zM176 49h17q45 0 87 19.5t99 61.5l22 139q-123 -11 -193 -20q-56 -7 -78.5 -25.5t-29.5 -67.5
l-3 -23q-7 -50 9 -67t70 -17z" />
    <glyph glyph-name="acircumflex.ss05" horiz-adv-x="601" 
d="M429 589l-99 88l-123 -88l-22 20l128 114h46l96 -114zM85 379l15 115q99 30 212 30h34q87 0 119.5 -45.5t20.5 -134.5l-34 -236q-8 -57 48 -57h45l-7 -50q-33 -9 -72 -9q-96 0 -88 90q-65 -49 -112 -69.5t-108 -20.5h-18q-80 0 -107 27.5t-15 108.5l3 26q6 41 19 67.5
t36 40.5t45 20t60 10q41 4 115 10.5t108 9.5l6 31q11 74 -12.5 99.5t-91.5 25.5q-83 0 -149 -22l-16 -67h-56zM176 49h17q45 0 87 19.5t99 61.5l22 139q-123 -11 -193 -20q-56 -7 -78.5 -25.5t-29.5 -67.5l-3 -23q-7 -50 9 -67t70 -17z" />
    <glyph glyph-name="adieresis.ss05" horiz-adv-x="601" 
d="M235 617q-18 0 -29 11.5t-9 29.5q2 15 14.5 24.5t29.5 9.5q18 0 29 -12t8 -31q-1 -14 -13.5 -23t-29.5 -9zM413 617q-18 0 -29 11.5t-8 29.5q2 16 14 25t29 9q18 0 29 -12t9 -31q-2 -14 -14.5 -23t-29.5 -9zM85 379l15 115q99 30 212 30h34q87 0 119.5 -45.5t20.5 -134.5
l-34 -236q-8 -57 48 -57h45l-7 -50q-33 -9 -72 -9q-96 0 -88 90q-65 -49 -112 -69.5t-108 -20.5h-18q-80 0 -107 27.5t-15 108.5l3 26q6 41 19 67.5t36 40.5t45 20t60 10q41 4 115 10.5t108 9.5l6 31q11 74 -12.5 99.5t-91.5 25.5q-83 0 -149 -22l-16 -67h-56zM176 49h17
q45 0 87 19.5t99 61.5l22 139q-123 -11 -193 -20q-56 -7 -78.5 -25.5t-29.5 -67.5l-3 -23q-7 -50 9 -67t70 -17z" />
    <glyph glyph-name="agrave.ss05" horiz-adv-x="601" 
d="M402 605l-34 -21l-108 107v12l61 28zM85 379l15 115q99 30 212 30h34q87 0 119.5 -45.5t20.5 -134.5l-34 -236q-8 -57 48 -57h45l-7 -50q-33 -9 -72 -9q-96 0 -88 90q-65 -49 -112 -69.5t-108 -20.5h-18q-80 0 -107 27.5t-15 108.5l3 26q6 41 19 67.5t36 40.5t45 20
t60 10q41 4 115 10.5t108 9.5l6 31q11 74 -12.5 99.5t-91.5 25.5q-83 0 -149 -22l-16 -67h-56zM176 49h17q45 0 87 19.5t99 61.5l22 139q-123 -11 -193 -20q-56 -7 -78.5 -25.5t-29.5 -67.5l-3 -23q-7 -50 9 -67t70 -17z" />
    <glyph glyph-name="amacron.ss05" horiz-adv-x="601" 
d="M446 656l-6 -48h-242l6 48h242zM85 379l15 115q99 30 212 30h34q87 0 119.5 -45.5t20.5 -134.5l-34 -236q-8 -57 48 -57h45l-7 -50q-33 -9 -72 -9q-96 0 -88 90q-65 -49 -112 -69.5t-108 -20.5h-18q-80 0 -107 27.5t-15 108.5l3 26q6 41 19 67.5t36 40.5t45 20t60 10
q41 4 115 10.5t108 9.5l6 31q11 74 -12.5 99.5t-91.5 25.5q-83 0 -149 -22l-16 -67h-56zM176 49h17q45 0 87 19.5t99 61.5l22 139q-123 -11 -193 -20q-56 -7 -78.5 -25.5t-29.5 -67.5l-3 -23q-7 -50 9 -67t70 -17z" />
    <glyph glyph-name="aogonek.ss05" horiz-adv-x="601" 
d="M357 -77v-5q-2 -19 8 -27.5t35 -8.5q40 0 79 21l13 -26q-54 -36 -102 -36h-10q-39 0 -57 18t-16 51l1 5q3 32 30.5 52t71.5 37q-36 22 -32 78q-65 -49 -112 -69.5t-108 -20.5h-18q-80 0 -107 27.5t-15 108.5l3 26q6 41 19 67.5t36 40.5t45 20t60 10q41 4 115 10.5
t108 9.5l6 31q11 74 -12.5 99.5t-91.5 25.5q-83 0 -149 -22l-16 -67h-56l15 115q99 30 212 30h34q87 0 119.5 -45.5t20.5 -134.5l-34 -236q-8 -57 48 -57h45l-7 -50q-33 -9 -72 -9q-15 0 -30 3q-26 -15 -38.5 -23.5t-26 -22t-14.5 -26.5zM379 130l22 139q-123 -11 -193 -20
q-56 -7 -78.5 -25.5t-29.5 -67.5l-3 -23q-7 -50 9 -67t70 -17h17q45 0 87 19.5t99 61.5z" />
    <glyph glyph-name="aring.ss05" horiz-adv-x="601" 
d="M328 585h-20q-31 0 -47 19t-11 50l1 18q11 64 76 64h19q31 0 47.5 -19t11.5 -50l-2 -17q-4 -31 -24 -48t-51 -17zM312 615h17q37 0 43 38l2 18q6 36 -33 36h-13q-41 0 -45 -38l-3 -18q-6 -36 32 -36zM85 379l15 115q99 30 212 30h34q87 0 119.5 -45.5t20.5 -134.5
l-34 -236q-8 -57 48 -57h45l-7 -50q-33 -9 -72 -9q-96 0 -88 90q-65 -49 -112 -69.5t-108 -20.5h-18q-80 0 -107 27.5t-15 108.5l3 26q6 41 19 67.5t36 40.5t45 20t60 10q41 4 115 10.5t108 9.5l6 31q11 74 -12.5 99.5t-91.5 25.5q-83 0 -149 -22l-16 -67h-56zM176 49h17
q45 0 87 19.5t99 61.5l22 139q-123 -11 -193 -20q-56 -7 -78.5 -25.5t-29.5 -67.5l-3 -23q-7 -50 9 -67t70 -17z" />
    <glyph glyph-name="atilde.ss05" horiz-adv-x="601" 
d="M525 704l-77 -73q-24 -21 -46 -21q-12 0 -26.5 12.5t-34 32.5t-33.5 31l-101 -74l-20 20l76 72q25 23 46 23q13 0 28.5 -12.5t34.5 -33.5t31 -30l101 73zM85 379l15 115q99 30 212 30h34q87 0 119.5 -45.5t20.5 -134.5l-34 -236q-8 -57 48 -57h45l-7 -50q-33 -9 -72 -9
q-96 0 -88 90q-65 -49 -112 -69.5t-108 -20.5h-18q-80 0 -107 27.5t-15 108.5l3 26q6 41 19 67.5t36 40.5t45 20t60 10q41 4 115 10.5t108 9.5l6 31q11 74 -12.5 99.5t-91.5 25.5q-83 0 -149 -22l-16 -67h-56zM176 49h17q45 0 87 19.5t99 61.5l22 139q-123 -11 -193 -20
q-56 -7 -78.5 -25.5t-29.5 -67.5l-3 -23q-7 -50 9 -67t70 -17z" />
    <glyph glyph-name="g.ss06" horiz-adv-x="626" 
d="M623 512l-5 -48q-44 -4 -89 -9q20 -28 12 -77l-4 -33q-11 -78 -60.5 -108.5t-147.5 -30.5h-44q-79 0 -114 23q-22 -13 -30 -18.5t-14.5 -14t-8.5 -21.5l-2 -13q-4 -23 13.5 -30t72.5 -7h206q77 0 103.5 -26.5t17.5 -94.5l-4 -26q-11 -78 -71 -110.5t-170 -32.5h-114
q-110 0 -144.5 24t-25.5 85l3 20q9 63 90 117q-46 14 -39 66l3 18q4 28 21.5 45.5t58.5 41.5q-36 30 -27 105l4 26q12 80 63.5 110.5t160.5 30.5h26q64 0 106 -12h153zM467 356l4 28q8 53 -18.5 72t-91.5 19h-24q-70 0 -106 -20.5t-43 -74.5l-4 -28q-8 -54 21 -72t100 -18
h20q65 0 99.5 20t42.5 74zM389 66h-189q-13 0 -33 0.5t-26 0.5q-63 -40 -71 -89l-2 -16q-6 -44 12.5 -58.5t87.5 -14.5h128q76 0 115.5 20.5t46.5 67.5l2 17q7 45 -7 58.5t-64 13.5z" />
    <glyph glyph-name="gbreve.ss06" horiz-adv-x="626" 
d="M496 710l-2 -17q-7 -52 -42 -80t-93 -28q-60 0 -89 30t-21 83l1 12h46l-1 -10q-10 -68 65 -68q80 0 90 73l1 5h45zM623 512l-5 -48q-44 -4 -89 -9q20 -28 12 -77l-4 -33q-11 -78 -60.5 -108.5t-147.5 -30.5h-44q-79 0 -114 23q-22 -13 -30 -18.5t-14.5 -14t-8.5 -21.5
l-2 -13q-4 -23 13.5 -30t72.5 -7h206q77 0 103.5 -26.5t17.5 -94.5l-4 -26q-11 -78 -71 -110.5t-170 -32.5h-114q-110 0 -144.5 24t-25.5 85l3 20q9 63 90 117q-46 14 -39 66l3 18q4 28 21.5 45.5t58.5 41.5q-36 30 -27 105l4 26q12 80 63.5 110.5t160.5 30.5h26
q64 0 106 -12h153zM467 356l4 28q8 53 -18.5 72t-91.5 19h-24q-70 0 -106 -20.5t-43 -74.5l-4 -28q-8 -54 21 -72t100 -18h20q65 0 99.5 20t42.5 74zM389 66h-189q-13 0 -33 0.5t-26 0.5q-63 -40 -71 -89l-2 -16q-6 -44 12.5 -58.5t87.5 -14.5h128q76 0 115.5 20.5
t46.5 67.5l2 17q7 45 -7 58.5t-64 13.5z" />
    <glyph glyph-name="gcommaaccent.ss06" horiz-adv-x="626" 
d="M412 661l-8 -33q-7 -23 -32 -17q-21 5 -28.5 11.5t-4.5 22.5q3 32 28 64q23 28 54 51l15 -14q-38 -39 -48 -79zM623 512l-5 -48q-44 -4 -89 -9q20 -28 12 -77l-4 -33q-11 -78 -60.5 -108.5t-147.5 -30.5h-44q-79 0 -114 23q-22 -13 -30 -18.5t-14.5 -14t-8.5 -21.5
l-2 -13q-4 -23 13.5 -30t72.5 -7h206q77 0 103.5 -26.5t17.5 -94.5l-4 -26q-11 -78 -71 -110.5t-170 -32.5h-114q-110 0 -144.5 24t-25.5 85l3 20q9 63 90 117q-46 14 -39 66l3 18q4 28 21.5 45.5t58.5 41.5q-36 30 -27 105l4 26q12 80 63.5 110.5t160.5 30.5h26
q64 0 106 -12h153zM467 356l4 28q8 53 -18.5 72t-91.5 19h-24q-70 0 -106 -20.5t-43 -74.5l-4 -28q-8 -54 21 -72t100 -18h20q65 0 99.5 20t42.5 74zM389 66h-189q-13 0 -33 0.5t-26 0.5q-63 -40 -71 -89l-2 -16q-6 -44 12.5 -58.5t87.5 -14.5h128q76 0 115.5 20.5
t46.5 67.5l2 17q7 45 -7 58.5t-64 13.5z" />
    <glyph glyph-name="gdotaccent.ss06" horiz-adv-x="626" 
d="M362 614q-20 0 -31.5 12.5t-8.5 31.5q2 17 15.5 27.5t31.5 10.5q21 0 32.5 -13t8.5 -34q-2 -15 -16 -25t-32 -10zM623 512l-5 -48q-44 -4 -89 -9q20 -28 12 -77l-4 -33q-11 -78 -60.5 -108.5t-147.5 -30.5h-44q-79 0 -114 23q-22 -13 -30 -18.5t-14.5 -14t-8.5 -21.5
l-2 -13q-4 -23 13.5 -30t72.5 -7h206q77 0 103.5 -26.5t17.5 -94.5l-4 -26q-11 -78 -71 -110.5t-170 -32.5h-114q-110 0 -144.5 24t-25.5 85l3 20q9 63 90 117q-46 14 -39 66l3 18q4 28 21.5 45.5t58.5 41.5q-36 30 -27 105l4 26q12 80 63.5 110.5t160.5 30.5h26
q64 0 106 -12h153zM467 356l4 28q8 53 -18.5 72t-91.5 19h-24q-70 0 -106 -20.5t-43 -74.5l-4 -28q-8 -54 21 -72t100 -18h20q65 0 99.5 20t42.5 74zM389 66h-189q-13 0 -33 0.5t-26 0.5q-63 -40 -71 -89l-2 -16q-6 -44 12.5 -58.5t87.5 -14.5h128q76 0 115.5 20.5
t46.5 67.5l2 17q7 45 -7 58.5t-64 13.5z" />
    <glyph glyph-name="k.ss07" horiz-adv-x="644" 
d="M635 512l-6 -54q-28 -2 -72 -4l-206 -148l120 -192q20 -32 39.5 -47t47.5 -15h37l-6 -51q-26 -8 -58 -8q-37 0 -67 22.5t-68 85.5l-106 169l-103 -73l-21 -138q32 -1 75 -6l-6 -53h-228l7 54q62 4 76 5l84 582q-2 0 -29 2t-41 4l7 53h146l-63 -446l283 200q-9 0 -68 5
l6 53h220z" />
    <glyph glyph-name="kcommaaccent.ss07" horiz-adv-x="644" 
d="M635 512l-6 -54q-28 -2 -72 -4l-206 -148l120 -192q20 -32 39.5 -47t47.5 -15h37l-6 -51q-26 -8 -58 -8q-37 0 -67 22.5t-68 85.5l-106 169l-103 -73l-21 -138q32 -1 75 -6l-6 -53h-228l7 54q62 4 76 5l84 582q-2 0 -29 2t-41 4l7 53h146l-63 -446l283 200q-9 0 -68 5
l6 53h220zM237 -108l8 34q7 23 33 17q22 -5 29.5 -11.5t4.5 -23.5q-3 -32 -29 -65q-20 -25 -55 -53l-16 15q39 40 49 81z" />
    <glyph glyph-name="y.ss08" horiz-adv-x="621" 
d="M600 512l-69 -495q-26 -179 -213 -179h-42q-133 0 -180 80l6 45h60l1 -13q24 -56 120 -56h35q55 0 91.5 31.5t45.5 95.5l9 61q-63 -34 -109 -47t-109 -13h-19q-135 0 -113 160l39 271l-82 6l6 53h159l-43 -302q-9 -65 7.5 -94.5t66.5 -29.5h19q51 0 88.5 12t96.5 48
l46 307l-82 6l6 53h159z" />
    <glyph glyph-name="yacute.ss08" horiz-adv-x="621" 
d="M468 703l-2 -12l-137 -107l-29 21l114 126zM600 512l-69 -495q-26 -179 -213 -179h-42q-133 0 -180 80l6 45h60l1 -13q24 -56 120 -56h35q55 0 91.5 31.5t45.5 95.5l9 61q-63 -34 -109 -47t-109 -13h-19q-135 0 -113 160l39 271l-82 6l6 53h159l-43 -302
q-9 -65 7.5 -94.5t66.5 -29.5h19q51 0 88.5 12t96.5 48l46 307l-82 6l6 53h159z" />
    <glyph glyph-name="ycircumflex.ss08" horiz-adv-x="621" 
d="M494 589l-99 88l-123 -88l-22 20l128 114h46l96 -114zM600 512l-69 -495q-26 -179 -213 -179h-42q-133 0 -180 80l6 45h60l1 -13q24 -56 120 -56h35q55 0 91.5 31.5t45.5 95.5l9 61q-63 -34 -109 -47t-109 -13h-19q-135 0 -113 160l39 271l-82 6l6 53h159l-43 -302
q-9 -65 7.5 -94.5t66.5 -29.5h19q51 0 88.5 12t96.5 48l46 307l-82 6l6 53h159z" />
    <glyph glyph-name="ydieresis.ss08" horiz-adv-x="621" 
d="M300 617q-18 0 -29 11.5t-9 29.5q2 15 14.5 24.5t29.5 9.5q18 0 29 -12t8 -31q-1 -14 -13.5 -23t-29.5 -9zM478 617q-18 0 -29 11.5t-8 29.5q2 16 14 25t29 9q18 0 29 -12t9 -31q-2 -14 -14.5 -23t-29.5 -9zM600 512l-69 -495q-26 -179 -213 -179h-42q-133 0 -180 80
l6 45h60l1 -13q24 -56 120 -56h35q55 0 91.5 31.5t45.5 95.5l9 61q-63 -34 -109 -47t-109 -13h-19q-135 0 -113 160l39 271l-82 6l6 53h159l-43 -302q-9 -65 7.5 -94.5t66.5 -29.5h19q51 0 88.5 12t96.5 48l46 307l-82 6l6 53h159z" />
    <glyph glyph-name="ygrave.ss08" horiz-adv-x="621" 
d="M410 605l-34 -21l-108 107v12l61 28zM600 512l-69 -495q-26 -179 -213 -179h-42q-133 0 -180 80l6 45h60l1 -13q24 -56 120 -56h35q55 0 91.5 31.5t45.5 95.5l9 61q-63 -34 -109 -47t-109 -13h-19q-135 0 -113 160l39 271l-82 6l6 53h159l-43 -302q-9 -65 7.5 -94.5
t66.5 -29.5h19q51 0 88.5 12t96.5 48l46 307l-82 6l6 53h159z" />
    <glyph glyph-name="f.ss14" horiz-adv-x="363" 
d="M57 456l6 50q24 2 78 4l11 65q9 55 34.5 87t76.5 43q15 3 114 18l2 -53q-62 -15 -89 -22q-32 -9 -45.5 -29.5t-18.5 -59.5l-7 -47h156l-8 -56h-156l-66 -456h-76l66 456h-78z" />
    <glyph glyph-name="i.dot" horiz-adv-x="297" 
d="M206 614q-20 0 -31.5 12.5t-8.5 31.5q2 17 15.5 27.5t31.5 10.5q21 0 32.5 -13t8.5 -34q-2 -15 -16 -25t-32 -10zM211 512l-58 -404q-3 -29 7.5 -43t40.5 -14h46l-7 -55q-39 -4 -76 -4q-104 0 -88 109l52 352q-14 1 -40 3.5t-30 2.5l6 53h147z" />
    <glyph glyph-name="f_f_f" horiz-adv-x="1033" 
d="M897 512h156l-8 -56h-156l-71 -479q-28 -116 -114 -116q-37 0 -76 4l8 56h37q58 0 69 57l71 478h-252l-71 -479q-28 -116 -114 -116q-37 0 -76 4l8 56h37q58 0 69 57l71 478h-252l-71 -479q-28 -116 -114 -116q-37 0 -76 4l8 56h37q58 0 69 57l71 478h-78l6 50q24 2 78 4
l11 65q9 55 34.5 87t76.5 43q15 3 114 18l2 -53q-62 -15 -89 -22q-32 -9 -45.5 -29.5t-18.5 -59.5l-7 -47h250l11 63q9 55 34.5 87t76.5 43q15 3 114 18l2 -53q-62 -15 -89 -22q-32 -9 -45.5 -29.5t-18.5 -59.5l-7 -47h250l11 63q9 55 34.5 87t76.5 43q15 3 114 18l2 -53
q-62 -15 -89 -22q-32 -9 -45.5 -29.5t-18.5 -59.5z" />
    <glyph glyph-name="f_f_j" horiz-adv-x="937" 
d="M895 512l-8 -56l-53 -381q-9 -62 -30.5 -96.5t-83.5 -86.5q-24 -18 -62 -41l-30 37q18 15 37 37q46 41 66 73t27 82l53 376h-250l-71 -479q-28 -116 -114 -116q-37 0 -76 4l8 56h37q58 0 69 57l71 478h-252l-71 -479q-28 -116 -114 -116q-37 0 -76 4l8 56h37q58 0 69 57
l71 478h-78l6 50q24 2 78 4l11 65q9 55 34.5 87t76.5 43q15 3 114 18l2 -53q-62 -15 -89 -22q-32 -9 -45.5 -29.5t-18.5 -59.5l-7 -47h250l11 63q9 55 34.5 87t76.5 43q15 3 114 18l2 -53q-62 -15 -89 -22q-32 -9 -45.5 -29.5t-18.5 -59.5l-7 -47h326zM877 698
q21 0 33.5 -13.5t9.5 -35.5q-2 -17 -16.5 -27.5t-34.5 -10.5q-21 0 -33.5 13t-9.5 34q3 18 17.5 29t33.5 11z" />
    <glyph glyph-name="f_f_t" horiz-adv-x="1029" 
d="M842 454l-42 -296q-9 -63 1 -83t51 -20h9q58 0 95 3l-5 -46q-63 -22 -131 -22h-10q-58 0 -79 32.5t-11 106.5l46 325h-205l-71 -477q-28 -116 -114 -116q-37 0 -76 4l8 56h37q58 0 69 57l71 478h-252l-71 -479q-28 -116 -114 -116q-37 0 -76 4l8 56h37q58 0 69 57l71 478
h-78l6 50q24 2 78 4l11 65q9 55 34.5 87t76.5 43q15 3 114 18l2 -53q-62 -15 -89 -22q-32 -9 -45.5 -29.5t-18.5 -59.5l-7 -47h250l11 63q9 55 34.5 87t76.5 43q15 3 114 18l2 -53q-62 -15 -89 -22q-32 -9 -45.5 -29.5t-18.5 -59.5l-7 -47h190q20 0 23 23l19 126q34 6 69 7
l-21 -156h154l-8 -58h-153z" />
    <glyph glyph-name="f_i" horiz-adv-x="644" 
d="M596 51l-6 -55q-39 -4 -76 -4q-47 0 -71.5 26t-16.5 83l52 355h-245l-71 -479q-28 -116 -114 -116q-37 0 -76 4l8 56h37q58 0 69 57l71 478h-78l6 50q24 2 78 4l11 65q9 55 34.5 87t76.5 43q15 3 114 18l2 -53q-62 -15 -89 -22q-32 -9 -45.5 -29.5t-18.5 -59.5l-7 -47
h319l-57 -404q-8 -57 48 -57h45zM535 611q-21 0 -33.5 13t-9.5 34q3 18 17.5 29t33.5 11q21 0 33.5 -13.5t9.5 -35.5q-2 -17 -16.5 -27.5t-34.5 -10.5z" />
    <glyph glyph-name="f_j" horiz-adv-x="609" 
d="M567 512l-3 -26l-2 -16l-2 -14l-54 -381q-9 -64 -30.5 -98.5t-83.5 -83.5q-28 -21 -62 -42l-30 37l43 36q44 41 62.5 73t25.5 83l53 376h-251l-71 -479q-28 -116 -114 -116q-37 0 -76 4l8 56h37q58 0 69 57l71 478h-78l6 50q24 2 78 4l11 65q9 55 34.5 87t76.5 43
q15 3 114 18l2 -53q-62 -15 -89 -22q-32 -9 -45.5 -29.5t-18.5 -59.5l-7 -47h326zM549 698q21 0 33.5 -13.5t9.5 -35.5q-2 -17 -16.5 -27.5t-34.5 -10.5q-21 0 -33 13t-9 34q2 18 16.5 29t33.5 11z" />
    <glyph glyph-name="f_l" horiz-adv-x="672" 
d="M79 456l6 50q24 2 78 4l11 65q9 55 34.5 87t76.5 43q15 3 114 18l2 -53q-62 -15 -89 -22q-32 -9 -45.5 -29.5t-18.5 -59.5l-7 -47h156l-8 -56h-156l-71 -479q-28 -116 -114 -116q-37 0 -76 4l8 56h37q58 0 69 57l71 478h-78zM601 700l-84 -592q-8 -57 48 -57h47l-7 -50
q-34 -9 -77 -9q-104 0 -88 109l78 540q-2 0 -29 2t-41 4l7 53h146z" />
    <glyph glyph-name="f_t" horiz-adv-x="701" 
d="M515 454l-42 -296q-9 -63 1 -83t51 -20h9q58 0 95 3l-5 -46q-63 -22 -131 -22h-10q-58 0 -79 32.5t-11 106.5l46 325h-206l-71 -477q-28 -116 -114 -116q-37 0 -76 4l8 56h37q58 0 69 57l71 478h-78l6 50q24 2 78 4l11 65q9 55 34.5 87t76.5 43q15 3 114 18l2 -53
q-62 -15 -89 -22q-32 -9 -45.5 -29.5t-18.5 -59.5l-7 -47h191q20 0 23 23l19 126q34 6 69 7l-21 -156h154l-8 -58h-153z" />
    <glyph glyph-name="three.ss09" horiz-adv-x="566" 
d="M548 700l-9 -65l-242 -248h54q102 0 129 -32t14 -123l-8 -63q-14 -98 -65 -136t-169 -38h-9q-82 0 -227 35l17 131h54l-5 -84q90 -21 147 -21h24q84 0 116.5 25.5t42.5 97.5l7 55q10 67 -9 84.5t-104 17.5h-88l-17 41l253 257h-335l9 66h420z" />
    <glyph glyph-name="zero.tf" horiz-adv-x="591" 
d="M284 -10h-46q-119 0 -168.5 58.5t-33.5 179.5l34 245q18 122 82 179t185 57h45q118 0 167 -59.5t32 -181.5l-34 -244q-19 -121 -82.5 -177.5t-180.5 -56.5zM249 56h34q161 0 185 171l35 249q24 167 -134 167h-35q-161 0 -185 -171l-35 -250q-22 -166 135 -166z" />
    <glyph glyph-name="one.tf" horiz-adv-x="591" 
d="M405 703l-91 -640q99 -2 148 -7l-7 -56h-388l6 57q80 6 161 6l81 565l-128 -28l8 57l164 46h46z" />
    <glyph glyph-name="two.tf" horiz-adv-x="591" 
d="M515 177l-25 -177h-460l9 60q17 117 39.5 165t76.5 78q19 11 45 23t47 21t61 26t67 28q53 22 76 42t28 53l4 31q10 71 -13 94t-101 23q-98 0 -167 -36l-20 -76h-59l16 127q124 50 240 50q115 0 155 -42t25 -146l-5 -32q-8 -59 -39 -87.5t-113 -63.5q-21 -9 -66.5 -26.5
t-80 -32.5t-53.5 -27q-40 -25 -56 -61t-30 -131h320l24 117h55z" />
    <glyph glyph-name="three.tf" horiz-adv-x="591" 
d="M562 526l-3 -28q-11 -72 -34.5 -105.5t-64.5 -43.5q75 -19 58 -137l-6 -43q-13 -100 -65 -137t-177 -37q-88 0 -233 35l17 131h55l-6 -84q100 -21 171 -21q88 0 121 25t44 98l5 40q3 17 2.5 30.5t-1.5 24t-8.5 18t-11.5 12.5t-18 8.5t-22 5t-29 2.5t-32.5 1h-39.5h-90
l8 59h87q47 0 70.5 1.5t49.5 7.5t38 19t22 35.5t15 58.5l3 22q10 72 -16 97t-109 25q-72 0 -170 -27l-21 -93h-54l18 140q138 42 231 42q124 0 167 -41t29 -141z" />
    <glyph glyph-name="four.tf" horiz-adv-x="591" 
d="M15 248l427 452h80l-63 -452h99l-7 -51l-101 -7l-18 -130q30 -1 99 -7l-6 -53h-283l6 54q52 4 104 6l19 130h-364zM87 248h293l51 368z" />
    <glyph glyph-name="five.tf" horiz-adv-x="591" 
d="M551 558h-54l6 80h-298l-52 -267q78 45 175 45h70q151 0 130 -149l-12 -84q-14 -108 -69 -149t-191 -41q-88 0 -241 37l17 130h54l-5 -85q103 -20 173 -20q100 0 139 29.5t50 108.5l9 69q15 96 -76 96h-70q-47 0 -81.5 -10.5t-82.5 -39.5l-62 20l69 372h421z" />
    <glyph glyph-name="six.tf" horiz-adv-x="591" 
d="M347 421h35q105 -1 141.5 -41.5t22.5 -138.5l-9 -59q-14 -98 -74 -143t-170 -45h-48q-118 0 -170 54.5t-36 169.5l35 247q33 244 271 244q71 0 117.5 -7.5t111.5 -26.5l-16 -126h-64v74q-71 20 -153 20q-80 0 -128 -46t-60 -134l-16 -105q58 32 104.5 47.5t105.5 15.5z
M132 307l-15 -100q-11 -79 23.5 -114.5t113.5 -34.5h45q146 0 165 138l5 41q10 70 -14 97.5t-94 27.5h-31q-55 0 -98 -13t-100 -42z" />
    <glyph glyph-name="seven.tf" horiz-adv-x="591" 
d="M600 638l-385 -638h-93l3 19l400 619h-354l-25 -110h-55l24 172h493z" />
    <glyph glyph-name="eight.tf" horiz-adv-x="591" 
d="M572 538l-5 -34q-9 -65 -42 -100t-98 -48q146 -20 126 -162l-3 -18q-13 -95 -73 -140.5t-175 -45.5h-81q-116 0 -165.5 47.5t-36.5 142.5l2 18q11 71 52.5 110t120.5 49q-118 25 -99 152l4 34q12 84 69.5 124t166.5 40h49q107 0 153 -42t35 -127zM169 532l-4 -32
q-8 -60 22.5 -87t104.5 -27h43q143 0 161 119l4 32q8 59 -22 85t-104 27h-43q-144 0 -162 -117zM473 187l3 26q8 60 -23.5 89t-108.5 29h-72q-153 0 -170 -122l-4 -26q-8 -65 23.5 -96.5t109.5 -31.5h71q152 0 171 132z" />
    <glyph glyph-name="nine.tf" horiz-adv-x="591" 
d="M270 281h-35q-103 0 -140 40.5t-23 138.5l8 59q27 190 239 190h58q123 0 170 -54t31 -173l-35 -250q-19 -130 -85.5 -184.5t-202.5 -54.5q-54 0 -95 8t-113 29l18 133h70l-8 -81q71 -23 133 -23q95 0 142.5 39.5t60.5 132.5l17 109q-42 -21 -66.5 -31.5t-63 -19
t-80.5 -8.5zM485 392l16 105q11 79 -20.5 113t-116.5 34h-45q-145 0 -166 -139l-6 -40q-10 -70 14.5 -98t95.5 -28h31q93 0 197 53z" />
    <glyph glyph-name="zero.dnom" horiz-adv-x="413" 
d="M196 -2h-44q-72 0 -100 34.5t-17 108.5l18 131q11 75 46 107.5t109 32.5h44q72 0 99 -35t16 -109l-18 -131q-11 -74 -46.5 -106.5t-106.5 -32.5zM163 42h28q88 0 102 100l18 130q7 50 -9.5 72.5t-62.5 22.5h-28q-89 0 -102 -99l-18 -131q-8 -49 9 -72t63 -23z" />
    <glyph glyph-name="one.dnom" horiz-adv-x="329" 
d="M230 413l-53 -369q14 0 43.5 -1.5t44.5 -2.5l-5 -40h-249l4 40q70 4 104 4l45 319l-109 -27l5 37l134 40h36z" />
    <glyph glyph-name="two.dnom" horiz-adv-x="400" 
d="M328 117l-16 -117h-300l6 44q9 69 33.5 105.5t78.5 55.5q68 21 82 25q45 14 64.5 29.5t22.5 38.5l2 14q5 34 -9.5 45t-63.5 11q-72 0 -107 -15l-13 -52h-43l10 86q73 26 155 26q76 0 104 -22.5t20 -80.5l-3 -24q-5 -31 -28.5 -53t-77.5 -41l-87 -27q-44 -16 -61.5 -39.5
t-25.5 -81.5h203l16 73h38z" />
    <glyph glyph-name="three.dnom" horiz-adv-x="371" 
d="M333 304l-2 -11q-5 -40 -20 -61t-46 -29q53 -11 42 -89l-2 -13q-9 -60 -42 -81.5t-113 -21.5q-66 0 -150 20l11 89h39l-4 -55q60 -11 106 -11q52 0 74 15.5t27 54.5l1 12q6 36 -8 49t-51 13h-97l5 39h96q35 0 54.5 15.5t25.5 53.5l1 10q6 40 -10 53t-68 13
q-54 0 -106 -14l-13 -53h-38l11 88q80 23 147 23q83 0 111 -23.5t19 -85.5z" />
    <glyph glyph-name="four.dnom" horiz-adv-x="434" 
d="M289 111l-10 -69q17 0 77 -4l-4 -38h-224l4 39q30 2 89 4l10 67h-231l5 41l267 260h59l-36 -260h80l-5 -37zM266 363l-210 -212h180z" />
    <glyph glyph-name="five.dnom" horiz-adv-x="411" 
d="M372 405l-14 -102h-39l5 58h-189l-29 -146q54 27 122 27h27q58 0 79 -25t12 -88l-3 -18q-8 -59 -45.5 -85.5t-110.5 -27.5h-12q-66 0 -155 21l12 98h38l-5 -63q59 -12 104 -12h14q94 1 106 77l2 15q6 42 -4.5 56.5t-47.5 14.5h-27q-67 0 -117 -31l-44 12l40 219h281z" />
    <glyph glyph-name="six.dnom" horiz-adv-x="424" 
d="M219 241h37q60 0 83.5 -28.5t15.5 -87.5l-2 -10q-9 -62 -45.5 -89.5t-110.5 -27.5h-30q-156 0 -138 138l19 131q21 147 164 147h12q61 0 146 -20l-11 -91h-43v54q-40 11 -100 11q-97 0 -112 -104l-8 -54q60 31 123 31zM91 172l-7 -48q-6 -42 16.5 -62t72.5 -19h26
q47 0 70.5 19t29.5 60l2 9q6 40 -8 56t-52 16h-29q-58 0 -121 -31z" />
    <glyph glyph-name="seven.dnom" horiz-adv-x="346" 
d="M350 361l-234 -361h-65l1 12l241 349h-213l-16 -63h-38l15 107h314z" />
    <glyph glyph-name="eight.dnom" horiz-adv-x="436" 
d="M379 309l-3 -15q-9 -69 -79 -84q83 -13 71 -97l-1 -11q-8 -57 -44 -80.5t-114 -23.5h-48q-78 0 -109.5 26t-23.5 82l1 11q6 42 29 65t70 30q-66 15 -56 86l2 16q7 52 42.5 75t105.5 23h36q70 0 99 -25t22 -78zM124 305l-2 -17q-4 -31 13 -44t62 -13h35q85 0 92 62l3 17
q4 31 -14.5 46t-62.5 15h-28q-88 0 -98 -66zM312 110l1 13q5 36 -13 52t-63 16h-53q-88 0 -98 -72l-2 -14q-5 -34 15 -49.5t69 -14.5h38q51 0 76 16.5t30 52.5z" />
    <glyph glyph-name="nine.dnom" horiz-adv-x="413" 
d="M181 160h-36q-61 0 -84 28t-15 92l3 20q9 60 45.5 87t107.5 27h35q150 0 134 -136l-19 -135q-21 -145 -164 -145h-11q-65 0 -145 20l11 87h45l-4 -55q38 -11 100 -11q99 0 114 105l8 53q-60 -38 -125 -37zM310 235l7 55q6 41 -16.5 60.5t-72.5 18.5h-26q-47 0 -71 -19
t-29 -60l-2 -9q-6 -45 7 -62t52 -17h33q63 0 118 33z" />
    <glyph glyph-name="zero.numr" horiz-adv-x="413" 
d="M236 293h-44q-72 0 -100 34.5t-17 108.5l18 131q11 75 46 107.5t109 32.5h44q72 0 99 -35t16 -109l-18 -131q-11 -74 -46.5 -106.5t-106.5 -32.5zM203 337h28q88 0 102 100l18 130q7 50 -9.5 72.5t-62.5 22.5h-28q-89 0 -102 -99l-18 -131q-8 -49 9 -72t63 -23z" />
    <glyph glyph-name="one.numr" horiz-adv-x="329" 
d="M273 708l-53 -369q14 0 43.5 -1.5t44.5 -2.5l-5 -40h-249l4 40q70 4 104 4l45 319l-109 -27l5 37l134 40h36z" />
    <glyph glyph-name="two.numr" horiz-adv-x="400" 
d="M371 412l-16 -117h-300l6 44q9 69 33.5 105.5t78.5 55.5q68 21 82 25q45 14 64.5 29.5t22.5 38.5l2 14q5 34 -9.5 45t-63.5 11q-72 0 -107 -15l-13 -52h-43l10 86q73 26 155 26q76 0 104 -22.5t20 -80.5l-3 -24q-5 -31 -28.5 -53t-77.5 -41l-87 -27q-44 -16 -61.5 -39.5
t-25.5 -81.5h203l16 73h38z" />
    <glyph glyph-name="three.numr" horiz-adv-x="371" 
d="M370 599l-2 -11q-5 -40 -20 -61t-46 -29q53 -11 42 -89l-2 -13q-9 -60 -42 -81.5t-113 -21.5q-66 0 -150 20l11 89h39l-4 -55q60 -11 106 -11q52 0 74 15.5t27 54.5l1 12q6 36 -8 49t-51 13h-97l5 39h96q35 0 54.5 15.5t25.5 53.5l1 10q6 40 -10 53t-68 13
q-53 0 -106 -14l-13 -53h-38l11 88q80 23 147 23q83 0 111 -23.5t19 -85.5z" />
    <glyph glyph-name="four.numr" horiz-adv-x="434" 
d="M326 406l-10 -69q17 0 77 -4l-4 -38h-224l4 39q30 2 89 4l10 67h-231l5 41l267 260h59l-36 -260h80l-5 -37zM303 658l-210 -212h180z" />
    <glyph glyph-name="five.numr" horiz-adv-x="411" 
d="M411 700l-14 -102h-39l5 58h-189l-29 -146q54 27 122 27h27q58 0 79 -25t12 -88l-3 -18q-8 -59 -45.5 -85.5t-110.5 -27.5h-12q-66 0 -155 21l12 98h38l-5 -63q59 -12 104 -12h14q94 1 106 77l2 15q6 42 -4.5 56.5t-47.5 14.5h-27q-67 0 -117 -31l-44 12l40 219h281z" />
    <glyph glyph-name="six.numr" horiz-adv-x="424" 
d="M262 536h37q60 0 83.5 -28.5t15.5 -87.5l-2 -10q-9 -62 -45.5 -89.5t-110.5 -27.5h-30q-156 0 -138 138l19 131q21 147 164 147h12q61 0 146 -20l-11 -91h-43v54q-40 11 -100 11q-97 0 -112 -104l-8 -54q60 31 123 31zM134 467l-7 -48q-6 -42 16.5 -62t72.5 -19h26
q47 0 70.5 19t29.5 60l2 9q6 40 -8 56t-52 16h-29q-58 0 -121 -31z" />
    <glyph glyph-name="seven.numr" horiz-adv-x="346" 
d="M387 656l-234 -361h-65l1 12l241 349h-213l-16 -63h-38l15 107h314z" />
    <glyph glyph-name="eight.numr" horiz-adv-x="436" 
d="M420 604l-3 -15q-9 -69 -79 -84q83 -13 71 -97l-1 -11q-8 -57 -44 -80.5t-114 -23.5h-48q-78 0 -109.5 26t-23.5 82l1 11q6 42 29 65t70 30q-66 15 -56 86l2 16q7 52 42.5 75t105.5 23h36q70 0 99 -25t22 -78zM165 600l-2 -17q-4 -31 13 -44t62 -13h35q85 0 92 62l3 17
q4 31 -14.5 46t-62.5 15h-28q-87 0 -98 -66zM353 405l1 13q5 36 -13 52t-63 16h-53q-88 0 -98 -72l-2 -14q-5 -34 15 -49.5t69 -14.5h38q51 0 76 16.5t30 52.5z" />
    <glyph glyph-name="nine.numr" horiz-adv-x="413" 
d="M220 455h-36q-61 0 -84 28t-15 92l3 20q9 60 45.5 87t107.5 27h35q150 0 134 -136l-19 -135q-21 -145 -164 -145h-11q-65 0 -145 20l11 87h45l-4 -55q38 -11 100 -11q99 0 114 105l8 53q-60 -38 -125 -37zM349 530l7 55q6 41 -16.5 60.5t-72.5 18.5h-26q-47 0 -71 -19
t-29 -60l-2 -9q-6 -45 7 -62t52 -17h33q63 0 118 33z" />
    <glyph glyph-name="backslash.case" horiz-adv-x="419" 
d="M382 -94h-49l-272 852h49z" />
    <glyph glyph-name="bullet.case" horiz-adv-x="322" 
d="M179 241q-74 0 -107.5 35t-23.5 104q19 136 165 136q73 0 106.5 -36.5t23.5 -108.5q-19 -130 -164 -130z" />
    <glyph glyph-name="exclamdown.case" horiz-adv-x="220" 
d="M170 704q52 0 44 -49q-6 -42 -53 -42q-50 0 -44 51q6 40 53 40zM43 86l79 417h43l-37 -417l-13 -86h-84z" />
    <glyph glyph-name="periodcentered.case" horiz-adv-x="191" 
d="M105 305q-52 0 -44 49q6 42 52 42q52 0 44 -50q-6 -41 -52 -41z" />
    <glyph glyph-name="questiondown.case" horiz-adv-x="498" 
d="M357 704q53 0 45 -49q-7 -42 -53 -42q-51 0 -44 51q6 40 52 40zM464 166l-16 -125q-73 -30 -122 -40t-115 -10q-116 0 -157 39.5t-27 140.5l4 29q8 58 30.5 89t69.5 48q66 24 154 54l17 116h59l-10 -157q-90 -32 -162 -60q-40 -15 -58 -36.5t-23 -54.5l-4 -29
q-10 -71 13 -94t104 -23q87 0 164 35l20 78h59z" />
    <glyph glyph-name="slash.case" horiz-adv-x="419" 
d="M504 789l-512 -852h-50l512 852h50z" />
    <glyph glyph-name="numbersign.ss10" horiz-adv-x="513" 
d="M393 430h94l-7 -53h-102l-33 -105h-55l32 105h-129l-33 -105h-55l32 105h-81l7 53h89l37 118h-89l8 53h96l30 99h56l-30 -99h129l30 99h55l-29 -99h75l-8 -53h-83zM244 548l-36 -118h129l37 118h-130z" />
    <glyph glyph-name="braceleft.case" horiz-adv-x="354" 
d="M234 581l-68 -479q-9 -63 12.5 -95.5t87.5 -71.5l-18 -33q-87 39 -124 83t-26 121l30 210l-87 7l8 57l89 6l28 200q11 76 58.5 119t144.5 82l14 -36q-77 -39 -108.5 -73t-40.5 -97z" />
    <glyph glyph-name="braceright.case" horiz-adv-x="354" 
d="M145 106l67 480q9 62 -12 95t-87 71l18 34q86 -39 123 -83.5t26 -120.5l-27 -196l86 -6l-8 -57l-88 -7l-30 -214q-10 -77 -57.5 -119.5t-145.5 -82.5l-15 37q77 37 109 72t41 97z" />
    <glyph glyph-name="bracketleft.case" horiz-adv-x="328" 
d="M362 768l-8 -53h-152l-104 -738h153l-8 -52h-221l119 843h221z" />
    <glyph glyph-name="bracketright.case" horiz-adv-x="328" 
d="M212 -75h-221l8 52h152l104 738h-152l7 53h221z" />
    <glyph glyph-name="parenleft.case" horiz-adv-x="276" 
d="M161 591l-67 -480q-9 -62 12 -95.5t87 -70.5l-19 -34q-86 40 -122.5 84t-26.5 120l68 481q11 76 58.5 119t144.5 82l14 -37q-77 -38 -108.5 -72.5t-40.5 -96.5z" />
    <glyph glyph-name="parenright.case" horiz-adv-x="280" 
d="M146 116l68 479q8 63 -13 96t-88 71l20 33q86 -39 122.5 -83t25.5 -121l-67 -480q-11 -77 -58.5 -119.5t-144.5 -81.5l-14 36q77 39 108.5 73t40.5 97z" />
    <glyph glyph-name="emdash.case" horiz-adv-x="796" 
d="M764 385l-8 -62h-697l8 62h697z" />
    <glyph glyph-name="endash.case" horiz-adv-x="497" 
d="M466 385l-8 -62h-399l8 62h399z" />
    <glyph glyph-name="hyphen.case" horiz-adv-x="329" 
d="M342 386l-8 -64h-275l8 64h275z" />
    <glyph glyph-name="guillemotleft.case" horiz-adv-x="494" 
d="M145 322l117 -170l-4 -25h-45l-144 195v6l200 195h45l-3 -26l-165 -169zM321 322l117 -170l-4 -25h-44l-145 195v6l200 195h46l-4 -26l-164 -169z" />
    <glyph glyph-name="guillemotright.case" horiz-adv-x="494" 
d="M105 497l4 26h44l145 -195v-6l-200 -195h-46l4 25l165 170l1 6zM281 497l4 26h44l145 -195v-6l-200 -195h-46l4 25l165 170l1 6z" />
    <glyph glyph-name="guilsinglleft.case" horiz-adv-x="306" 
d="M130 351l117 -170l-3 -25h-44l-146 195l1 6l199 195h46l-4 -26l-164 -169z" />
    <glyph glyph-name="guilsinglright.case" horiz-adv-x="306" 
d="M78 526l4 26h45l145 -195l-1 -6l-199 -195h-46l3 25l165 170l1 6z" />
    <glyph glyph-name="florin.tf" horiz-adv-x="591" 
d="M499 432l-8 -59h-148l-76 -264q-19 -61 -44 -90.5t-76 -39.5q-25 -5 -57 -8.5t-46 -5.5l-6 43q52 12 69 17q37 10 52 29.5t28 61.5l76 257h-82l6 53q36 2 62.5 3.5t29.5 1.5l40 136q17 60 42.5 89.5t77.5 40.5q9 2 115 17l2 -52q-79 -19 -82 -20q-37 -10 -52 -30t-26 -61
l-35 -119h138z" />
    <glyph glyph-name="cent.tf" horiz-adv-x="591" 
d="M462 358l4 83q-53 24 -126 25l-58 -415h15q91 0 131 63l5 9h60l-7 -56q-34 -36 -85.5 -56.5t-106.5 -20.5h-5l-9 -62h-59l9 62q-185 6 -159 195l22 151q13 91 68 138.5t146 49.5l10 68h59l-9 -68q88 -3 168 -39l-16 -127h-57zM167 326l-21 -147q-9 -67 19 -97t91 -31
l59 415q-127 -3 -148 -140z" />
    <glyph glyph-name="dollar.tf" horiz-adv-x="591" 
d="M505 499l5 114q-54 28 -144 31l-34 -241l104 -24q71 -18 95.5 -55t14.5 -110l-6 -43q-13 -96 -70 -135t-182 -40l-10 -68h-60l10 69q-109 4 -211 55l20 154h64l-5 -112q64 -34 157 -37l39 281l-108 25q-70 19 -92.5 53.5t-12.5 104.5l2 13q13 91 70.5 130.5t178.5 40.5
l10 73h60l-10 -74q105 -6 197 -46l-21 -159h-61zM302 409l33 235h-5q-81 0 -120 -26t-47 -85l-2 -12q-6 -41 7.5 -62t55.5 -32zM322 331l-38 -274h3q88 0 126 26t48 93l5 30q7 52 -11 74.5t-75 36.5z" />
    <glyph glyph-name="Euro.tf" horiz-adv-x="591" 
d="M532 515l10 103q-52 26 -169 26h-11q-79 0 -127 -43.5t-60 -129.5l-8 -55h290l-13 -37h-281l-9 -65h254l-15 -37h-245l-9 -70q-11 -79 23 -115t113 -36h35q121 0 179 99l56 -2l-7 -52q-84 -111 -230 -111h-47q-233 0 -202 217l10 70h-60l6 37h59l9 65h-59l5 37h59l9 59
q32 234 263 234h24q139 0 225 -40l-20 -154h-57z" />
    <glyph glyph-name="sterling.tf" horiz-adv-x="591" 
d="M525 0h-534l8 58q60 46 94.5 93t33.5 109l-2 25h-100l7 47h99l-3 139q0 238 226 238h46q110 0 206 -40l-29 -160h-60l9 110q-26 12 -62 18t-53 6.5t-58 0.5q-72 0 -111.5 -46t-36.5 -130l6 -136h229l-16 -47h-215v-24q2 -61 -29.5 -107t-91.5 -90h381l28 124h55z" />
    <glyph glyph-name="yen.tf" horiz-adv-x="591" 
d="M642 700l-7 -57q-57 -4 -80 -5l-192 -329h156l-5 -35h-172l-13 -23l-8 -52h183l-5 -35h-183l-15 -102q16 -1 47 -3.5t35 -2.5l-6 -56h-247l6 57q58 4 86 4l15 103h-182l5 35h183l7 50l-7 25h-173l5 35h157l-96 330q-10 0 -77 5l7 56h231l-6 -57l-77 -3l88 -325l186 324
q-19 1 -79 5l7 56h226z" />
    <glyph glyph-name="arrowdown.ss13" horiz-adv-x="802" 
d="M402 75q115 0 195.5 81t80.5 197q0 115 -80.5 196t-195.5 81t-196.5 -81t-81.5 -196t81 -196.5t197 -81.5zM413 198h-22l-138 138l27 27l102 -103v242h40v-243l101 104l27 -27z" />
    <glyph glyph-name="arrowdownleft.ss13" horiz-adv-x="803" 
d="M205 154q81 -82 195.5 -81.5t196.5 82.5q81 81 81.5 195.5t-81.5 195.5q-82 82 -196.5 82t-195.5 -81q-82 -82 -82 -197t82 -196zM299 233l-15 15v195h37v-145l171 172l29 -29l-172 -170h145v-38h-195z" />
    <glyph glyph-name="arrowdownright.ss13" horiz-adv-x="803" 
d="M592 154q82 81 82 196t-82 197q-81 81 -195.5 81t-196.5 -82q-81 -81 -80.5 -195.5t81.5 -195.5q82 -82 196 -82.5t195 81.5zM303 270h146l-173 171l29 29l171 -172v145h37v-195l-15 -15h-195v37z" />
    <glyph glyph-name="arrowleft.ss13" horiz-adv-x="802" 
d="M124 352q0 -115 81 -195.5t197 -80.5q115 0 196 80.5t81 195.5t-81 196.5t-196 81.5q-116 0 -197 -81t-81 -197zM247 341v21l138 139l27 -27l-103 -102h242v-40h-243l104 -102l-27 -27z" />
    <glyph glyph-name="arrowright.ss13" horiz-adv-x="802" 
d="M679 352q0 116 -81.5 197t-196.5 81t-196 -81.5t-81 -196.5t81 -195.5t196 -80.5q116 0 197 80.5t81 195.5zM391 230l104 102h-243v40h242l-103 102l27 27l138 -139v-21l-138 -138z" />
    <glyph glyph-name="arrowup.ss13" horiz-adv-x="802" 
d="M402 630q-116 0 -197 -81t-81 -197q0 -115 81.5 -196t196.5 -81t195.5 81t80.5 196q0 116 -80.5 197t-195.5 81zM523 342l-101 104v-243h-40v242l-102 -103l-27 27l138 138h22l137 -138z" />
    <glyph glyph-name="arrowupleft.ss13" horiz-adv-x="803" 
d="M205 551q-82 -81 -82 -196t82 -197q81 -81 195.5 -81t196.5 82q82 81 81.5 195.5t-81.5 195.5q-82 82 -196.5 82.5t-195.5 -81.5zM494 435h-145l172 -172l-29 -29l-171 172v-145h-37v196l15 15h195v-37z" />
    <glyph glyph-name="arrowupright.ss13" horiz-adv-x="803" 
d="M592 551q-81 82 -195 81.5t-196 -82.5q-81 -81 -81.5 -195.5t80.5 -195.5q82 -82 196.5 -82t195.5 81q82 82 82 197t-82 196zM498 472l16 -15v-196h-38v145l-171 -172l-29 29l173 171h-146v38h195z" />
    <glyph glyph-name="at.case" horiz-adv-x="1051" 
d="M780 569l-88 -349q-11 -47 3 -59.5t50 -12.5q80 0 140.5 73.5t77.5 196.5q21 151 -62.5 239t-250.5 88q-217 0 -361 -125t-172 -326q-24 -167 71.5 -263.5t278.5 -96.5q168 0 317 73l12 -32q-68 -35 -157 -56t-174 -21q-202 0 -307 109t-79 296q30 214 185 345.5
t386 131.5q185 0 279.5 -99.5t71.5 -268.5q-20 -138 -95 -220t-185 -82q-23 0 -37.5 1.5t-31 7.5t-25 19.5t-7.5 35.5q-46 -42 -85 -60.5t-100 -18.5h-18q-77 0 -110.5 48.5t-10.5 143.5l31 129q17 75 66.5 114t116.5 39h25q87 0 162 -46l12 46h71zM627 225l60 252
q-61 40 -138 40h-26q-49 0 -85 -32.5t-51 -97.5l-20 -93q-16 -77 2.5 -110.5t80.5 -33.5h15q49 0 81 15.5t78 51.5z" />
    <glyph glyph-name="ampersand.ss11" horiz-adv-x="745" 
d="M734 399l-7 -55q-69 -4 -95 -5l-12 -77q-20 -143 -88 -205.5t-208 -62.5h-65q-136 0 -189.5 47t-37.5 163l2 16q11 74 59 115t116 47q-30 20 -43.5 57.5t-7.5 82.5l3 22q12 88 64 126.5t147 38.5h16q72 0 159 -30l-15 -119h-54l4 73q-40 14 -106 14h-14q-121 0 -135 -110
l-4 -28q-7 -47 18.5 -78.5t73.5 -31.5h100l-8 -56h-145q-60 0 -103.5 -31.5t-51.5 -95.5l-2 -13q-12 -81 23 -112.5t124 -31.5h75q109 0 161 48.5t66 158.5l12 73q-24 1 -88 5l7 55h249z" />
    <glyph glyph-name="copyright.ss12" horiz-adv-x="433" 
d="M231 344q-88 0 -130 50.5t-30 140.5q12 85 66.5 132.5t141.5 47.5q88 0 130.5 -50t29.5 -139q-12 -86 -67 -134t-141 -48zM230 368q78 0 126 42.5t60 124.5q10 76 -25.5 116.5t-109.5 40.5q-79 0 -127 -42t-59 -124q-11 -77 24.5 -117.5t110.5 -40.5zM325 486l-2 -24
q-27 -32 -75 -32h-13q-79 0 -68 79l6 42q11 79 88 79h11q35 0 70 -15l-7 -56h-26l2 37q-15 7 -48 7q-51 0 -59 -58l-6 -39q-6 -47 42 -47h11q36 0 48 27h26z" />
    <glyph glyph-name="acute.case" 
d="M420 869l-2 -12l-140 -109l-31 22l116 128z" />
    <glyph glyph-name="breve.case" 
d="M462 877l-2 -17q-7 -54 -43 -82.5t-95 -28.5q-61 0 -90.5 30.5t-21.5 84.5l2 13h47l-1 -10q-12 -69 66 -69q79 0 91 74v5h47z" />
    <glyph glyph-name="caron.case" 
d="M344 755h-46l-97 113l27 21l98 -88l124 88l21 -21z" />
    <glyph glyph-name="circumflex.case" 
d="M433 753l-100 89l-125 -89l-23 21l129 116h49l97 -116z" />
    <glyph glyph-name="dieresis.case" 
d="M234 780q-20 0 -31.5 12.5t-9.5 31.5q3 17 16 26.5t31 9.5q20 0 31.5 -12.5t8.5 -32.5q-2 -16 -15 -25.5t-31 -9.5zM418 780q-19 0 -30.5 12.5t-9.5 31.5q3 17 16 26.5t31 9.5q20 0 31.5 -12.5t8.5 -32.5q-2 -16 -15.5 -25.5t-31.5 -9.5z" />
    <glyph glyph-name="dotaccent.case" 
d="M326 779q-20 0 -32 13t-10 32q3 17 16.5 27t31.5 10q21 0 32.5 -12.5t8.5 -33.5q-2 -16 -15.5 -26t-31.5 -10z" />
    <glyph glyph-name="grave.case" 
d="M396 770l-33 -20l-108 107v12l61 28z" />
    <glyph glyph-name="hungarumlaut.case" 
d="M348 875l-1 -11l-130 -112l-27 20l114 126zM469 875l-1 -11l-130 -112l-27 20l114 126z" />
    <glyph glyph-name="macron.case" 
d="M457 822l-7 -49h-255l7 49h255z" />
    <glyph glyph-name="ring.case" 
d="M330 745h-21q-32 0 -49 19.5t-13 52.5l3 18q9 67 79 67h21q33 0 50 -19.5t12 -51.5l-3 -19q-4 -33 -25 -50t-54 -17zM313 776h18q39 0 44 40l3 19q4 37 -34 37h-14q-42 0 -47 -39l-2 -20q-6 -37 32 -37z" />
    <glyph glyph-name="tilde.case" 
d="M502 856l-78 -74q-23 -22 -47 -22q-12 0 -25 11t-32.5 31.5t-37.5 33.5l-103 -74l-21 20l74 70q27 27 51 27q13 0 26.5 -11t32.5 -32t36 -33l102 73z" />
    <glyph glyph-name="caron.alt" 
d="M361 727l-1 -17l-62 -143h-41l43 160h61z" />
    </font>
</defs>
</svg>
