<?xml version="1.0" standalone="no"?>
<!DOCTYPE svg PUBLIC "-//W3C//DTD SVG 1.1//EN" "http://www.w3.org/Graphics/SVG/1.1/DTD/svg11.dtd" >
<svg xmlns="http://www.w3.org/2000/svg" xmlns:xlink="http://www.w3.org/1999/xlink" version="1.1">
<metadata>
Created by FontForge 20150102 at Tue Feb  3 16:01:43 2015
 By uniteet7
Copyright (c) 2012 by Rene Bieder. All rights reserved.
</metadata>
<defs>
<font id="ReneBiederQuadon" horiz-adv-x="500" >
  <font-face 
    font-family="ReneBiederQuadon"
    font-weight="400"
    font-stretch="normal"
    units-per-em="1000"
    panose-1="0 0 5 0 0 0 0 0 0 0"
    ascent="800"
    descent="-200"
    x-height="512"
    cap-height="700"
    bbox="-171 -209 1217 918"
    underline-thickness="50"
    underline-position="-90"
    unicode-range="U+0020-2212"
  />
<missing-glyph horiz-adv-x="683" 
d="M8 0l-8 9l674 691l9 -8z" />
    <glyph glyph-name="f_f" unicode="ff" horiz-adv-x="706" 
d="M523 456v-396q42 -1 91 -6v-54h-243v54q12 1 37.5 2.5t38.5 2.5v397h-252v-396q42 -1 91 -6v-54h-243v54q12 1 37.5 2.5t38.5 2.5v397h-78v50q13 1 39 2.5t39 1.5v62q0 110 96 132q11 2 110 18l7 -52q-50 -10 -87 -21q-30 -8 -40 -28.5t-10 -59.5v-49h252v60
q0 110 96 132q11 2 110 18l7 -52q-50 -10 -87 -21q-30 -8 -40 -28.5t-10 -59.5v-49h156v-56h-156z" />
    <glyph glyph-name="f_f_i" unicode="ffi" horiz-adv-x="925" 
d="M823 512v-451q52 -4 76 -7v-54h-227v54q27 3 75 7v395h-224v-396q42 -1 91 -6v-54h-243v54q12 1 37.5 2.5t38.5 2.5v397h-252v-396q42 -1 91 -6v-54h-243v54q12 1 37.5 2.5t38.5 2.5v397h-78v50q13 1 39 2.5t39 1.5v62q0 110 96 132q11 2 110 18l7 -52q-50 -10 -87 -21
q-30 -8 -40 -28.5t-10 -59.5v-49h252v60q0 110 96 132q11 2 110 18l7 -52q-50 -10 -87 -21q-30 -8 -40 -28.5t-10 -59.5v-49h300zM783 611q-20 0 -33.5 12t-13.5 31q0 20 13.5 32t33.5 12q21 0 34.5 -12t13.5 -32q0 -19 -13.5 -31t-34.5 -12z" />
    <glyph glyph-name="f_f_l" unicode="ffl" horiz-adv-x="972" 
d="M523 512h156v-56h-156v-396q42 -1 91 -6v-54h-243v54q12 1 37.5 2.5t38.5 2.5v397h-252v-396q42 -1 91 -6v-54h-243v54q12 1 37.5 2.5t38.5 2.5v397h-78v50q13 1 39 2.5t39 1.5v62q0 110 96 132q11 2 110 18l7 -52q-50 -10 -87 -21q-30 -8 -40 -28.5t-10 -59.5v-49h252
v60q0 110 96 132q11 2 110 18l7 -52q-50 -10 -87 -21q-30 -8 -40 -28.5t-10 -59.5v-49zM859 700v-641q14 -1 76 -5v-54h-228v54q62 4 76 5v582q-25 1 -70 5v54h146z" />
    <glyph glyph-name=".notdef" horiz-adv-x="683" 
d="M8 0l-8 9l674 691l9 -8z" />
    <glyph glyph-name=".null" horiz-adv-x="0" 
 />
    <glyph glyph-name="nonmarkingreturn" horiz-adv-x="333" 
 />
    <glyph glyph-name="space" unicode=" " horiz-adv-x="246" 
 />
    <glyph glyph-name="exclam" unicode="!" horiz-adv-x="222" 
d="M153 700v-86l-20 -417h-44l-20 417v86h84zM111 -4q-49 0 -49 45q0 46 49 46t49 -46q0 -45 -49 -45z" />
    <glyph glyph-name="quotedbl" unicode="&#x22;" horiz-adv-x="297" 
d="M123 700v-46q0 -86 -39 -215h-37v261h76zM250 700v-46q0 -86 -39 -215h-37v261h76z" />
    <glyph glyph-name="numbersign" unicode="#" horiz-adv-x="661" 
d="M495 254h119v-66h-129l-33 -188h-68l33 188h-222l-33 -188h-67l33 188h-103v66h113l36 203h-119v65h129l31 178h68l-32 -178h222l32 178h67l-31 -178h96v-65h-106zM241 457l-36 -203h222l36 203h-222z" />
    <glyph glyph-name="dollar" unicode="$" horiz-adv-x="650" 
d="M336 404l112 -25q74 -18 103 -53.5t29 -108.5v-43q0 -97 -52.5 -137.5t-178.5 -40.5h-1v-68h-60v69q-102 4 -215 55v155h64l11 -111q67 -34 157 -37v278l-108 25q-73 19 -100 52.5t-27 103.5v14q0 90 51.5 131t169.5 42v73h60v-74q108 -4 209 -45v-159h-61l-12 111
q-66 31 -151 32v-239zM305 411v232h-2q-82 0 -116.5 -25t-34.5 -83v-12q0 -41 17.5 -63t60.5 -32zM501 174v31q0 51 -21.5 74t-80.5 37l-63 14v-272h9q88 0 122 25t34 91z" />
    <glyph glyph-name="percent" unicode="%" horiz-adv-x="881" 
d="M188 711h60q78 -1 107.5 -39.5t29.5 -126.5v-66q-1 -87 -30.5 -125.5t-106.5 -38.5h-60q-78 0 -108 38.5t-31 125.5v66q0 88 30 127t109 39zM452 353l-256 -359h-38l268 359l250 355h38zM243 659h-52q-51 0 -68 -27t-17 -89v-61q0 -62 17 -88.5t68 -26.5h52q50 0 67 26.5
t18 88.5v61q0 62 -17.5 89t-67.5 27zM635 385h60q78 0 107.5 -39t29.5 -126v-66q-1 -87 -30.5 -125.5t-106.5 -38.5h-60q-79 0 -109 38.5t-30 125.5v66q0 88 30 126.5t109 38.5zM690 334h-52q-51 0 -68 -27t-17 -90v-60q0 -62 17 -89t68 -27h52q50 0 67 27t18 89v60
q0 62 -17.5 89.5t-67.5 27.5z" />
    <glyph glyph-name="ampersand" unicode="&#x26;" horiz-adv-x="742" 
d="M694 409v-57q-20 -1 -41.5 -2t-31 -2t-13.5 -1q-19 -132 -61 -213l73 -73q14 0 90 -4v-57h-130l-67 67q-29 -44 -70 -58.5t-128 -14.5h-46q-122 0 -176 42.5t-54 156.5v32q0 73 40.5 113t112.5 61q-54 62 -54 131v12q0 89 42 128t135 39h18q82 0 184 -37v-119h-62l-8 72
q-52 22 -118 22h-10q-56 0 -80 -25t-24 -82v-7q0 -39 12.5 -62t49.5 -64l219 -219q43 85 61 221h137zM112 228v-22q0 -81 38 -114t116 -33h46q65 0 96 12t55 49l-232 233q-58 -17 -88.5 -43.5t-30.5 -81.5z" />
    <glyph glyph-name="quotesingle" unicode="'" horiz-adv-x="170" 
d="M123 700v-46q0 -86 -39 -215h-37v261h76z" />
    <glyph glyph-name="parenleft" unicode="(" horiz-adv-x="276" 
d="M114 526v-480q0 -62 26.5 -96t97.5 -72l-16 -35q-92 40 -134.5 83.5t-42.5 119.5v480q0 77 42.5 120.5t134.5 82.5l16 -35q-71 -38 -97.5 -72t-26.5 -96z" />
    <glyph glyph-name="parenright" unicode=")" horiz-adv-x="280" 
d="M166 46v480q0 62 -26.5 96t-97.5 72l16 35q92 -39 134.5 -82.5t42.5 -120.5v-480q0 -76 -42.5 -119.5t-134.5 -83.5l-16 35q71 38 97.5 72t26.5 96z" />
    <glyph glyph-name="asterisk" unicode="*" horiz-adv-x="380" 
d="M342 477l-24 -39l-36 21l-80 59l11 -100v-41h-46v41l11 101l-80 -60l-36 -21l-24 39l37 21l90 41l-90 39l-37 21l24 40l36 -21l80 -58l-11 98v42h46v-42l-10 -98l79 58l36 21l24 -40l-37 -21l-90 -39l90 -41z" />
    <glyph glyph-name="plus" unicode="+" horiz-adv-x="593" 
d="M57 319v63h206v214h67v-214h206v-63h-206v-214h-67v214h-206z" />
    <glyph glyph-name="comma" unicode="," horiz-adv-x="187" 
d="M47 8l8 47q4 31 39 25q27 -5 37.5 -13t10.5 -27q0 -62 -85 -158l-20 15q36 60 40 101z" />
    <glyph glyph-name="hyphen" unicode="-" horiz-adv-x="373" 
d="M324 334v-64h-275v64h275z" />
    <glyph glyph-name="period" unicode="." horiz-adv-x="191" 
d="M96 -4q-49 0 -49 45q0 46 49 46t49 -46q0 -45 -49 -45z" />
    <glyph glyph-name="slash" unicode="/" horiz-adv-x="419" 
d="M429 782l-392 -852h-50l392 852h50z" />
    <glyph glyph-name="zero" unicode="0" horiz-adv-x="648" 
d="M349 -10h-46q-119 0 -176 57.5t-58 178.5v244q0 123 57 181t177 58h45q119 0 175.5 -58.5t56.5 -180.5v-243q-2 -122 -58 -179.5t-173 -57.5zM307 58h34q159 0 159 168v248q0 169 -159 169h-34q-159 0 -159 -169v-248q0 -168 159 -168z" />
    <glyph glyph-name="one" unicode="1" horiz-adv-x="381" 
d="M244 703v-641q32 -1 96 -5v-57h-288v57q58 5 113 6v564l-124 -27v57l158 46h45z" />
    <glyph glyph-name="two" unicode="2" horiz-adv-x="601" 
d="M530 177v-177h-460v58q0 116 17 163.5t68 80.5q17 11 41 23t44 21t57.5 25t63.5 28q49 22 68.5 42t19.5 53v31q0 71 -27.5 95t-106.5 24q-96 0 -161 -35l-7 -77h-59v126q116 51 234 51q114 0 159 -41t45 -145v-32q0 -59 -28 -88t-106 -64q-20 -9 -63.5 -26.5t-77 -32
t-51.5 -26.5q-36 -25 -46 -61t-10 -133h324l7 117h55z" />
    <glyph glyph-name="three" unicode="3" horiz-adv-x="573" 
d="M504 529v-29q0 -72 -19 -107t-57 -45q38 -9 57 -40.5t19 -93.5v-43q0 -100 -47.5 -138t-171.5 -38q-92 0 -237 34v132h54l8 -84q109 -21 175 -21q87 0 115.5 24t28.5 97v40q0 22 -3.5 38t-8.5 27.5t-18 18.5t-23.5 11.5t-33.5 6t-39 2t-50 0.5h-88v59h88q48 0 70.5 1
t48 7t35 19t16 35t6.5 57v23q0 72 -30.5 98t-113.5 26q-71 0 -164 -27l-8 -93h-54v140q133 42 226 42q124 0 171.5 -39.5t47.5 -139.5z" />
    <glyph glyph-name="four" unicode="4" horiz-adv-x="603" 
d="M16 248l364 452h80v-452h99v-51l-99 -7v-130q19 -1 56.5 -3.5t44.5 -2.5v-54h-283v54q53 5 102 6v130h-364v58zM100 248h280v360z" />
    <glyph glyph-name="five" unicode="5" horiz-adv-x="570" 
d="M503 558h-54l-5 80h-298l-12 -267q72 45 168 45h70q150 0 150 -147v-83q0 -109 -50 -151t-186 -42q-92 0 -245 36v131h54l7 -84q112 -21 178 -21q100 0 133.5 28t33.5 107v70q0 98 -92 98h-70q-48 0 -81 -10t-76 -39l-63 19l17 372h421v-142z" />
    <glyph glyph-name="six" unicode="6" horiz-adv-x="611" 
d="M349 420h36q103 0 145 -39.5t42 -137.5v-58q0 -98 -54.5 -144.5t-164.5 -46.5h-48q-118 0 -176.5 53.5t-59.5 168.5v247q0 246 240 246q109 0 232 -33v-127h-65l-11 73q-77 21 -156 21q-161 0 -161 -178v-107q55 31 98 45.5t103 16.5zM148 307v-98q0 -79 39.5 -114
t119.5 -35h45q144 0 144 134v41q0 70 -28.5 98.5t-98.5 28.5h-31q-56 0 -97.5 -13t-92.5 -42z" />
    <glyph glyph-name="seven" unicode="7" horiz-adv-x="562" 
d="M531 638l-295 -638h-92v19l313 616h-355l-10 -107h-54v172h493v-62z" />
    <glyph glyph-name="eight" unicode="8" horiz-adv-x="663" 
d="M572 541v-35q0 -64 -28.5 -100.5t-90.5 -48.5q77 -11 113 -51t36 -110v-18q0 -95 -54.5 -141.5t-169.5 -46.5h-89q-117 0 -172 46.5t-56 141.5v18q0 140 151 160q-121 24 -121 150v35q1 166 214 166h57q107 0 158.5 -41t51.5 -125zM163 535v-33q0 -59 34.5 -86.5
t109.5 -27.5h50q74 0 108.5 27.5t34.5 86.5v33q0 59 -34 86t-109 28h-50q-75 0 -109.5 -27.5t-34.5 -86.5zM522 183v28q0 120 -150 120h-80q-151 0 -151 -120v-28q0 -130 151 -130h80q150 0 150 130z" />
    <glyph glyph-name="nine" unicode="9" horiz-adv-x="611" 
d="M262 281h-36q-103 0 -145 40t-42 137v59q0 192 214 192h58q123 0 176.5 -53t55.5 -172v-250q0 -130 -60 -185.5t-197 -55.5q-83 0 -212 36v134h70l5 -81q75 -23 137 -23q95 0 136 38.5t41 130.5v110q-40 -20 -62.5 -30t-59.5 -18.5t-79 -8.5zM463 391v104q0 79 -37 114
t-122 35h-45q-144 0 -144 -137v-40q0 -70 28.5 -99t98.5 -29h32q94 0 189 52z" />
    <glyph glyph-name="colon" unicode=":" horiz-adv-x="191" 
d="M96 426q-49 0 -49 45q0 46 49 46t49 -46q0 -45 -49 -45zM96 -4q-49 0 -49 45q0 46 49 46t49 -46q0 -45 -49 -45z" />
    <glyph glyph-name="semicolon" unicode=";" horiz-adv-x="191" 
d="M96 426q-49 0 -49 45q0 46 49 46t49 -46q0 -45 -49 -45zM47 8l8 47q4 31 39 25q27 -5 37.5 -13t10.5 -27q0 -62 -85 -158l-20 15q36 60 40 101z" />
    <glyph glyph-name="less" unicode="&#x3c;" horiz-adv-x="561" 
d="M500 539l-369 -189v-4l369 -187v-50h-37l-416 218v41l420 220h33v-49z" />
    <glyph glyph-name="equal" unicode="=" horiz-adv-x="552" 
d="M496 498v-65h-439v65h439zM496 264v-65h-439v65h439z" />
    <glyph glyph-name="greater" unicode="&#x3e;" horiz-adv-x="561" 
d="M94 588l420 -220v-41l-416 -218h-37v50l369 187v4l-369 189v49h33z" />
    <glyph glyph-name="question" unicode="?" horiz-adv-x="498" 
d="M21 534v124q70 30 117.5 40.5t114.5 10.5q115 0 160.5 -38.5t45.5 -139.5v-29q0 -58 -19 -89t-64 -49q-29 -11 -82.5 -31t-62.5 -24v-116h-59l-11 156q96 35 156 59q36 15 50.5 36.5t14.5 54.5v28q0 72 -27 96t-109 24q-87 0 -158 -35l-8 -78h-59zM202 -4q-49 0 -49 45
q0 46 49 46t49 -46q0 -45 -49 -45z" />
    <glyph glyph-name="at" unicode="@" horiz-adv-x="1051" 
d="M736 501l-39 -346q-5 -47 12 -60.5t54 -13.5q79 0 128 72t49 193q0 153 -97 242.5t-265 89.5q-216 0 -341.5 -124t-125.5 -323q0 -169 109.5 -267t293.5 -98q166 0 307 73l14 -30q-63 -35 -149.5 -56.5t-172.5 -21.5q-201 0 -320.5 107.5t-119.5 292.5q0 216 137 349
t369 133q183 0 291.5 -98t108.5 -265q0 -140 -64.5 -223.5t-175.5 -83.5q-18 0 -29 0.5t-27 4t-25 9.5t-17 18t-11 30q-40 -40 -76.5 -58.5t-97.5 -18.5h-18q-78 0 -116.5 47t-29.5 142l12 122q7 76 52.5 119.5t111.5 43.5h25q87 0 168 -46l4 45h71zM631 158l24 251
q-67 40 -145 40h-25q-49 0 -79.5 -33t-36.5 -99l-7 -88q-5 -77 19 -111.5t85 -34.5h15q50 0 80 15t69 51z" />
    <glyph glyph-name="A" unicode="A" horiz-adv-x="792" 
d="M450 700l222 -638q14 0 96 -5v-57h-259v57q54 4 76 4l-53 152h-285l-50 -151q5 0 70 -5v-57h-242v57q80 5 92 5l199 576l-85 5v57h219zM390 634h-3l-123 -354h250z" />
    <glyph glyph-name="B" unicode="B" horiz-adv-x="679" 
d="M597 522v-14q0 -117 -98 -146q111 -25 111 -153v-22q0 -99 -51 -143t-160 -44h-357v57q17 1 89 5v576q-76 4 -90 5v57h343q111 0 162 -42.5t51 -135.5zM210 391h179q69 0 99.5 26t30.5 86v14q0 62 -30.5 89.5t-102.5 27.5h-176v-243zM530 198v19q0 60 -35.5 86.5
t-105.5 26.5h-179v-264h179q141 0 141 132z" />
    <glyph glyph-name="C" unicode="C" horiz-adv-x="654" 
d="M592 156v-59q-35 -51 -94 -79t-130 -28h-67q-117 0 -173.5 55t-57.5 171v247q0 122 59.5 184t175.5 62h41q137 0 238 -40v-168h-64l-12 118q-28 12 -63 17.5t-60.5 6.5t-75.5 1q-160 0 -160 -178v-254q0 -155 160 -155h54q121 0 165 99h64z" />
    <glyph glyph-name="D" unicode="D" horiz-adv-x="729" 
d="M41 700h388q231 0 231 -226v-251q-1 -223 -231 -223h-387v57q19 1 48.5 3t40.5 3v575q-67 3 -90 5v57zM582 220v259q0 76 -41 115.5t-119 39.5h-212v-568h212q158 0 160 154z" />
    <glyph glyph-name="E" unicode="E" horiz-adv-x="645" 
d="M567 700v-175h-51l-10 111h-300v-246h221v-69h-221v-257h311l10 111h51v-175h-536v57q20 1 85 5v576q-5 0 -18.5 1t-30.5 2t-37 2v57h526z" />
    <glyph glyph-name="F" unicode="F" horiz-adv-x="625" 
d="M578 700v-175h-51l-10 111h-311v-266h237v-69h-237v-239q65 -2 104 -5v-57h-268v57q63 4 85 5v576q-1 0 -30.5 1.5t-55.5 3.5v57h537z" />
    <glyph glyph-name="G" unicode="G" horiz-adv-x="697" 
d="M629 346v-163q0 -92 -68 -142.5t-160 -50.5h-85q-246 0 -246 228v237q0 121 65.5 187.5t184.5 66.5h36q141 0 252 -40v-169h-65l-11 115q-60 23 -205 23q-84 0 -131 -48t-47 -135v-242q0 -76 45 -114t129 -38h80q68 0 110.5 34.5t43.5 93.5v91q-158 5 -231 9v57h303z" />
    <glyph glyph-name="H" unicode="H" horiz-adv-x="792" 
d="M751 700v-57q-61 -4 -87 -5v-576q26 -1 87 -5v-57h-244v57q24 2 77 4v260h-374v-260q50 -2 74 -4v-57h-243v57q63 4 90 5v576q-26 1 -90 5v57h243v-57q-24 -2 -74 -4v-251h374v251q-53 2 -77 4v57h244z" />
    <glyph glyph-name="I" unicode="I" horiz-adv-x="330" 
d="M290 700v-57q-60 -4 -84 -5v-576q24 -1 84 -5v-57h-248v57q63 4 85 5v576q-28 1 -86 5v57h249z" />
    <glyph glyph-name="J" unicode="J" horiz-adv-x="336" 
d="M302 700v-57q-60 -4 -83 -5v-526q0 -85 -17 -127t-72 -93q-17 -15 -57 -42l-35 35q19 19 33 35q39 43 53.5 81.5t14.5 110.5v526q-24 1 -86 5v57h249z" />
    <glyph glyph-name="K" unicode="K" horiz-adv-x="751" 
d="M290 700v-57q-60 -4 -84 -5v-250h165l181 251q-48 2 -74 4v57h241v-57q-29 -2 -83 -4l-199 -280l202 -297q25 -1 91 -5v-57h-251v57q46 2 71 2l-174 261h-170v-258q24 -1 84 -5v-57h-248v57q63 4 85 5v576q-28 1 -86 5v57h249z" />
    <glyph glyph-name="L" unicode="L" horiz-adv-x="624" 
d="M578 0h-536v57q26 2 54 3.5t31 1.5v576q-27 1 -86 5v57h258v-57q-47 -5 -93 -6v-573h308l10 124h54v-188z" />
    <glyph glyph-name="M" unicode="M" horiz-adv-x="949" 
d="M908 700v-57q-70 -5 -89 -5v-576q24 -1 88 -5v-57h-240v57q25 2 75 4v541l-246 -602h-56l-234 602v-540q21 -1 77 -5v-57h-241v57q69 4 89 5v575l-90 6v57h194l233 -582h2l241 582h197z" />
    <glyph glyph-name="N" unicode="N" horiz-adv-x="786" 
d="M745 700v-57q-61 -4 -87 -5v-638h-87l-369 574v-513q48 -2 74 -4v-57h-234v57q64 4 89 5v575l-90 6v57h167l379 -580v519q-50 2 -78 4v57h236z" />
    <glyph glyph-name="O" unicode="O" horiz-adv-x="716" 
d="M401 -10h-84q-117 0 -182 65.5t-66 178.5v228q0 115 65.5 181t182.5 66h84q116 0 181 -66t65 -181v-227q0 -113 -65.5 -179t-180.5 -66zM321 62h73q81 0 127 44.5t47 125.5v234q0 82 -46 127t-128 45h-73q-81 0 -127 -46t-46 -126v-234q0 -81 45.5 -125.5t127.5 -44.5z
" />
    <glyph glyph-name="P" unicode="P" horiz-adv-x="656" 
d="M41 700h356q105 0 158.5 -49.5t53.5 -145.5v-58q0 -92 -54 -140.5t-157 -48.5h-188v-196q30 -1 90 -5v-57h-258v57q61 4 89 5v576q-76 4 -90 5v57zM534 457v42q0 65 -36 100t-105 35h-183v-310h183q68 0 104.5 34.5t36.5 98.5z" />
    <glyph glyph-name="Q" unicode="Q" horiz-adv-x="716" 
d="M317 709h84q116 0 181 -66t65 -181v-227q0 -113 -65.5 -179t-180.5 -66h-84q-117 0 -182 65.5t-66 178.5v228q0 115 65.5 181t182.5 66zM394 640h-73q-81 0 -127 -46t-46 -126v-238q0 -81 46 -126t127 -45h73q81 0 127 45t47 126v238q0 82 -46 127t-128 45zM295 -108v34
q140 29 215 33q62 3 90 -23t38 -82l-58 -40q-16 55 -35 74.5t-64 20.5q-55 1 -186 -17z" />
    <glyph glyph-name="R" unicode="R" horiz-adv-x="691" 
d="M41 700h352q105 0 160 -48.5t55 -143.5v-48q0 -134 -134 -175q55 -92 112 -223l85 -5v-57h-170v61q-52 132 -100 212h-191v-213l78 -3v-57h-246v57q61 4 89 5v576q-76 4 -90 5v57zM210 342h182q67 0 104.5 33.5t37.5 90.5v36q0 63 -36.5 97.5t-105.5 34.5h-182v-292z" />
    <glyph glyph-name="S" unicode="S" horiz-adv-x="650" 
d="M137 205l11 -112q76 -38 184 -38h13q88 0 122 25.5t34 91.5v31q0 51 -21.5 75t-80.5 38l-202 46q-73 19 -100 53t-27 105v14q0 93 54 134t177 41h21q123 0 238 -47v-161h-61l-12 113q-67 32 -164 32h-20q-82 0 -116.5 -25t-34.5 -84v-12q0 -42 17 -64t61 -32l218 -50
q74 -18 103 -54t29 -110v-43q0 -98 -52.5 -139t-178.5 -41h-26q-73 0 -129 13t-121 44v156h64z" />
    <glyph glyph-name="T" unicode="T" horiz-adv-x="684" 
d="M646 520h-55l-7 114h-201v-572q31 -1 87 -5v-57h-255v57q55 4 89 5v572h-204l-6 -114h-56v180h608v-180z" />
    <glyph glyph-name="U" unicode="U" horiz-adv-x="768" 
d="M729 700v-57q-12 -1 -37.5 -2.5t-38.5 -2.5v-418q0 -230 -232 -230h-64q-235 0 -235 230v418q-23 1 -83 5v57h251v-57q-65 -4 -88 -5v-424q0 -76 40.5 -117t118.5 -41h59q77 0 118 41t41 117v425q-56 2 -84 4v57h234z" />
    <glyph glyph-name="V" unicode="V" horiz-adv-x="753" 
d="M732 700v-57q-55 -4 -78 -5l-219 -638h-120l-219 639q-23 0 -75 4v57h253v-57q-15 -1 -45 -2.5t-46 -2.5l188 -559h12l186 559q-29 1 -91 5v57h254z" />
    <glyph glyph-name="W" unicode="W" horiz-adv-x="1019" 
d="M1001 700v-57q-52 -4 -73 -4l-171 -639h-103l-140 561h-3l-140 -561h-111l-170 639q-48 2 -72 4v57h247v-57q-27 -2 -90 -4l141 -550h6l156 611h70l158 -610h5l145 549q-65 2 -91 4v57h236z" />
    <glyph glyph-name="X" unicode="X" horiz-adv-x="700" 
d="M409 353l200 -292q48 -2 73 -4v-57h-244v57q54 2 75 2l-169 256h-1l-158 -254q52 -2 80 -4v-57h-242v57q56 4 78 5l193 289l-203 288q-48 2 -74 4v57h251v-57l-77 -3l169 -249h2l160 248q-54 2 -82 4v57h242v-57q-55 -4 -78 -5z" />
    <glyph glyph-name="Y" unicode="Y" horiz-adv-x="707" 
d="M261 700v-57l-76 -3l170 -325h2l170 324q-52 2 -79 4v57h238v-57q-58 -4 -80 -5l-214 -386v-190q23 -1 83 -5v-57h-248v57q63 4 85 5v187l-214 389q-21 1 -77 5v57h240z" />
    <glyph glyph-name="Z" unicode="Z" horiz-adv-x="628" 
d="M579 700v-56l-423 -582h355l11 124h56v-186h-524v48q0 12 10 26l420 564h-364l-10 -118h-56v180h525z" />
    <glyph glyph-name="bracketleft" unicode="[" horiz-adv-x="328" 
d="M290 708v-53h-153v-738h153v-52h-221v843h221z" />
    <glyph glyph-name="backslash" unicode="\" horiz-adv-x="419" 
d="M432 -70h-50l-392 852h50z" />
    <glyph glyph-name="bracketright" unicode="]" horiz-adv-x="328" 
d="M259 708v-843h-221v52h153v738h-153v53h221z" />
    <glyph glyph-name="asciicircum" unicode="^" horiz-adv-x="389" 
d="M213 702l151 -196v-28h-42l-125 156h-3l-125 -156h-44v28l152 196h36z" />
    <glyph glyph-name="underscore" unicode="_" horiz-adv-x="563" 
d="M565 -109v-42h-567v42h567z" />
    <glyph glyph-name="grave" unicode="`" 
d="M324 605l-32 -21l-122 107l-1 12l58 28z" />
    <glyph glyph-name="a" unicode="a" horiz-adv-x="601" 
d="M500 346v-287q62 -4 75 -5v-54h-151v77q-58 -45 -101 -65t-103 -20h-18q-80 0 -110 26.5t-30 106.5v27q0 41 9.5 68t30.5 41t43 20t59 10q23 3 220 20v29q0 75 -28 101.5t-96 26.5q-85 0 -144 -21l-6 -68h-56v114q93 31 208 31h33q87 0 126 -44.5t39 -133.5zM232 49h17
q47 0 86 19t89 61v140q-151 -14 -191 -19q-54 -7 -73.5 -25t-19.5 -67v-23q0 -50 19 -68t73 -18z" />
    <glyph glyph-name="b" unicode="b" horiz-adv-x="607" 
d="M186 700v-241q63 39 103 52t103 13h18q67 0 104 -41.5t37 -122.5v-193q0 -89 -42 -132t-116 -43h-18q-83 0 -265 12v637q-25 1 -70 5v54h146zM475 182v146q0 71 -21.5 104t-71.5 33h-19q-51 0 -87 -11.5t-90 -46.5v-348q72 -9 167 -9h17q105 0 105 132z" />
    <glyph glyph-name="c" unicode="c" horiz-adv-x="536" 
d="M487 123v-54q-29 -37 -78 -58t-104 -21h-53q-100 0 -147.5 48t-47.5 145v151q0 93 52 141.5t147 48.5h36q95 0 188 -38v-128h-57l-8 83q-59 25 -149 25q-133 0 -133 -138v-147q0 -68 33 -99t99 -31h37q92 0 122 61l4 11h59z" />
    <glyph glyph-name="d" unicode="d" horiz-adv-x="599" 
d="M497 700v-641q65 -4 76 -5v-54h-152v81q-60 -47 -103.5 -68t-102.5 -21h-18q-140 0 -140 175v190q0 81 38 124t104 43h19q64 0 99 -11t104 -50v182q-24 3 -84 6v49h160zM230 57h17q47 0 84.5 16.5t89.5 55.5v281q-61 34 -91 42.5t-83 8.5h-19q-95 0 -95 -123v-150
q0 -70 23 -100.5t74 -30.5z" />
    <glyph glyph-name="e" unicode="e" horiz-adv-x="564" 
d="M271 524h33q203 0 203 -191v-111h-376v-48q0 -127 134 -127h43q92 0 122 59l4 13h58v-50q-28 -39 -77.5 -59t-106.5 -20h-40q-110 0 -160.5 49.5t-50.5 155.5v128q0 99 55 150t159 51zM438 276v68q0 62 -35.5 94t-100.5 32h-31q-66 0 -103 -34.5t-37 -98.5v-61h307z" />
    <glyph glyph-name="f" unicode="f" horiz-adv-x="378" 
d="M195 456v-396q42 -1 91 -6v-54h-243v54q12 1 37.5 2.5t38.5 2.5v397h-78v50q13 1 39 2.5t39 1.5v62q0 110 96 132q11 2 110 18l7 -52q-50 -10 -87 -21q-30 -8 -40 -28.5t-10 -59.5v-49h156v-56h-156z" />
    <glyph glyph-name="g" unicode="g" horiz-adv-x="626" 
d="M588 512v-47q-16 -1 -34.5 -3t-30 -3t-23.5 -2q25 -25 25 -77v-33q0 -78 -46 -109.5t-144 -31.5h-44q-81 0 -118 23q-35 -22 -40 -32q-4 -8 -4 -20v-13q0 -23 19.5 -31t73.5 -8h206q77 0 106.5 -25.5t29.5 -93.5v-26q0 -78 -56.5 -111.5t-165.5 -33.5h-114
q-110 0 -147 23t-37 83v20q0 67 74 118q-26 8 -37 23t-11 42v18q0 29 15.5 46.5t52.5 40.5q-42 33 -42 106v26q0 80 48 111.5t157 31.5h26q70 0 109 -12h152zM453 354v28q0 53 -30 73t-93 20h-25q-70 0 -102.5 -20t-32.5 -73v-28q0 -53 32.5 -72.5t102.5 -19.5h21
q65 0 96 19t31 73zM415 66h-189q-36 0 -60 3q-57 -43 -57 -88v-17q0 -44 22 -59.5t90 -15.5h128q76 0 112 19t36 66v18q0 45 -16.5 59.5t-65.5 14.5z" />
    <glyph glyph-name="h" unicode="h" horiz-adv-x="669" 
d="M560 388v-328q20 -2 83 -6v-54h-159v350q0 68 -15 89t-66 21h-12q-79 0 -196 -87v-314q14 -1 76 -5v-54h-228v54q62 4 76 5v582q-25 1 -70 5v54h146v-279q65 49 119 76t112 27h11q67 0 95 -30t28 -106z" />
    <glyph glyph-name="i" unicode="i" horiz-adv-x="297" 
d="M155 611q-21 0 -34.5 12t-13.5 31q0 20 13.5 32t34.5 12q20 0 33.5 -12t13.5 -32q0 -19 -13.5 -31t-33.5 -12zM195 512v-453q14 -1 76 -5v-54h-228v54q62 4 76 5v394q-25 1 -70 5v54h146z" />
    <glyph glyph-name="j" unicode="j" horiz-adv-x="267" 
d="M147 698q21 0 34 -12t13 -32q0 -19 -13 -31t-34 -12t-34.5 12t-13.5 31q0 20 13.5 32t34.5 12zM189 512v-435q0 -62 -17 -95.5t-72 -85.5q-28 -24 -57 -44l-32 35q4 4 14.5 15t18.5 20q40 43 54.5 74t14.5 82v375q-24 1 -72 5v54h148z" />
    <glyph glyph-name="k" unicode="k" horiz-adv-x="630" 
d="M195 700v-394h141l110 149q-11 0 -34 1.5t-32 1.5v54h220v-54q-67 -5 -72 -5l-136 -176l144 -219q62 -5 66 -5v-53h-146v53l-122 191h-139v-185q14 -1 76 -5v-54h-228v54q62 4 76 5v582q-25 1 -70 5v54h146z" />
    <glyph glyph-name="l" unicode="l" horiz-adv-x="308" 
d="M195 700v-641q14 -1 76 -5v-54h-228v54q62 4 76 5v582q-25 1 -70 5v54h146z" />
    <glyph glyph-name="m" unicode="m" horiz-adv-x="1011" 
d="M902 388v-328q25 -3 83 -6v-54h-159v350q0 68 -15 89t-65 21h-12q-80 0 -187 -86v-314q25 -3 83 -6v-54h-159v350q0 68 -15 89t-65 21h-12q-78 0 -184 -85v-316q14 -1 76 -5v-54h-228v54q62 4 76 5v394q-25 1 -70 5v54h146v-87q59 49 109.5 74t108.5 25h11q59 0 85.5 -22
t33.5 -82q61 51 113 77.5t112 26.5h11q67 0 95 -30t28 -106z" />
    <glyph glyph-name="n" unicode="n" horiz-adv-x="669" 
d="M560 388v-328q21 -2 83 -6v-54h-159v350q0 68 -15 89t-66 21h-12q-79 0 -196 -87v-314q14 -1 76 -5v-54h-228v54q62 4 76 5v394q-25 1 -70 5v54h146v-91q65 49 119 76t112 27h11q67 0 95 -30t28 -106z" />
    <glyph glyph-name="o" unicode="o" horiz-adv-x="587" 
d="M321 -10h-52q-108 0 -160 50.5t-52 153.5v124q0 105 51.5 155.5t160.5 50.5h52q107 0 158 -50.5t51 -155.5v-124q0 -103 -51.5 -153.5t-157.5 -50.5zM267 48h52q135 0 135 128v161q0 129 -135 129h-52q-134 0 -134 -129v-161q0 -128 134 -128z" />
    <glyph glyph-name="p" unicode="p" horiz-adv-x="616" 
d="M408 524h19q67 0 100 -41.5t33 -132.5v-193q0 -82 -37 -123.5t-104 -41.5h-19q-62 0 -102 12.5t-103 48.5v-165q43 -2 88 -5v-54h-240v54q62 4 76 5v565q-25 1 -70 5v54h146v-72q61 43 107.5 63.5t105.5 20.5zM484 186v142q0 71 -20 101.5t-70 30.5h-17q-48 0 -89.5 -17
t-92.5 -55v-278q54 -35 89.5 -46.5t86.5 -11.5h20q50 0 71.5 32t21.5 102z" />
    <glyph glyph-name="q" unicode="q" horiz-adv-x="592" 
d="M490 512v-624q9 0 76 -5v-54h-236v54q15 1 43 2.5t41 2.5v165q-65 -37 -101 -49t-97 -12h-19q-66 0 -103 41.5t-37 123.5v193q0 174 158 174h17q76 0 258 -12zM225 52h20q50 0 82 11t87 47v344q-82 9 -160 9h-17q-104 0 -104 -132v-142q0 -71 21.5 -104t70.5 -33z" />
    <glyph glyph-name="r" unicode="r" horiz-adv-x="435" 
d="M195 512v-98q43 55 82 79t92 24h41v-70l-62 -3q-45 0 -81 -18t-72 -63v-304q11 0 23 -1t29 -2t28 -2v-54h-232v54q62 4 76 5v394q-25 1 -70 5v54h146z" />
    <glyph glyph-name="s" unicode="s" horiz-adv-x="535" 
d="M59 379v18q0 127 191 127h16q42 0 100 -9.5t99 -28.5v-110h-61l-7 71q-53 25 -136 25q-69 0 -101 -18.5t-32 -58.5v-8q0 -40 25 -53t119 -32q19 -4 29 -6q103 -20 139 -45.5t36 -87.5v-23q0 -79 -45 -114.5t-138 -35.5h-39q-149 0 -195 60v102h58l4 -62q27 -45 132 -45
h34q61 0 89 22t28 73v14q0 42 -30 57t-137 35t-142.5 46.5t-35.5 86.5z" />
    <glyph glyph-name="t" unicode="t" horiz-adv-x="388" 
d="M241 55h9q59 0 95 3v-45q-64 -23 -129 -23h-10q-58 0 -83 31.5t-25 105.5v327h-68v58h54q12 0 15.5 4.5t3.5 16.5v128q45 6 71 7v-156h153v-58h-153v-294q0 -63 13.5 -84t53.5 -21z" />
    <glyph glyph-name="u" unicode="u" horiz-adv-x="668" 
d="M564 512v-453q61 -4 78 -5v-54h-154v99q-43 -31 -73 -49t-73.5 -34t-83.5 -16h-12q-69 0 -95.5 28t-26.5 108v317q-5 0 -14 1t-29.5 2t-39.5 2v54h159v-338q0 -68 15 -88.5t65 -20.5h12q78 0 196 86v302l-83 5v54h159z" />
    <glyph glyph-name="v" unicode="v" horiz-adv-x="631" 
d="M615 512v-54q-46 -5 -81 -6l-184 -452h-80l-183 453q-15 1 -71 5v54h226v-54q-9 0 -36 -1.5t-40 -1.5l147 -386h1l156 385q-46 2 -73 4v54h218z" />
    <glyph glyph-name="w" unicode="w" horiz-adv-x="875" 
d="M857 512v-54q-27 -2 -73 -4l-133 -454h-90l-127 393l-129 -393h-87l-133 454q-42 2 -68 4v54h214v-54q-16 -1 -41 -2.5t-34 -1.5l107 -380h2l139 438h62l142 -438h1l109 380q-49 2 -75 4v54h214z" />
    <glyph glyph-name="x" unicode="x" horiz-adv-x="586" 
d="M344 261l152 -202q7 0 72 -5v-54h-228v54l72 3l-133 180h-1l-124 -179q53 -2 82 -4v-54h-219v54q10 1 31 2.5t31 2.5l152 201l-140 193q-16 1 -74 5v54h229v-54l-70 -3l119 -169h1l117 169q-11 0 -34 1.5t-29 1.5v54h218v-54q-60 -4 -81 -4z" />
    <glyph glyph-name="y" unicode="y" horiz-adv-x="652" 
d="M636 512v-54q-17 -2 -45.5 -3.5t-35.5 -2.5l-235 -545q30 0 64 -3v-53h-238v53q45 4 98 4l36 82l-197 464q-42 2 -67 4v54h234v-54q-36 -2 -86 -4l155 -382h2l165 382q-44 2 -71 4v54h221z" />
    <glyph glyph-name="z" unicode="z" horiz-adv-x="552" 
d="M499 512v-55l-361 -399h307l16 102h43l-5 -160h-458v46q0 16 15 29l353 381h-297l-9 -100h-44l2 156h438z" />
    <glyph glyph-name="braceleft" unicode="{" horiz-adv-x="354" 
d="M188 526v-480q0 -62 26.5 -96t97.5 -72l-16 -35q-92 40 -134 83.5t-42 119.5v213l-88 6v57l88 7v197q0 77 42 120.5t134 82.5l16 -35q-71 -38 -97.5 -72t-26.5 -96z" />
    <glyph glyph-name="bar" unicode="|" horiz-adv-x="233" 
d="M135 779v-905h-38v905h38z" />
    <glyph glyph-name="braceright" unicode="}" horiz-adv-x="354" 
d="M166 46v480q0 62 -26.5 96t-97.5 72l16 35q92 -39 134 -82.5t42 -120.5v-197l88 -7v-57l-88 -6v-213q0 -76 -42 -119.5t-134 -83.5l-16 35q71 38 97.5 72t26.5 96z" />
    <glyph glyph-name="exclamdown" unicode="&#xa1;" horiz-adv-x="222" 
d="M111 630q49 0 49 -45q0 -46 -49 -46t-49 46q0 45 49 45zM69 -74v86l20 417h44l20 -417v-86h-84z" />
    <glyph glyph-name="cent" unicode="&#xa2;" horiz-adv-x="536" 
d="M487 123v-54q-29 -37 -78 -58t-104 -21h-3v-62h-60v62q-185 4 -185 193v151q0 90 49 138.5t139 51.5v68h59v-68q93 -3 176 -38v-128h-57l-8 83q-55 24 -129 25v-415h16q92 0 122 61l4 11h59zM133 328v-147q0 -67 32 -98t95 -32v415q-127 -3 -127 -138z" />
    <glyph glyph-name="sterling" unicode="&#xa3;" horiz-adv-x="605" 
d="M572 0h-534v57q54 45 81.5 91.5t17.5 109.5l-4 27h-101v47h99l-22 136q-16 114 31 177.5t163 63.5h45q111 0 212 -40l-8 -160h-59l-8 110q-27 12 -64.5 18t-54.5 6.5t-60 0.5q-71 0 -103 -45t-16 -129l24 -138h229l-8 -47h-214l4 -22q10 -61 -15.5 -107t-80.5 -92h382
l10 124h54v-188z" />
    <glyph glyph-name="yen" unicode="&#xa5;" horiz-adv-x="707" 
d="M686 700v-57q-58 -4 -80 -5l-182 -329h150v-35h-170l-12 -22v-53h182v-35h-182v-102q23 -1 83 -5v-57h-248v57q63 4 85 5v102h-182v35h182v50l-14 25h-168v35h149l-181 329q-21 1 -77 5v57h240v-57l-76 -3l170 -325h2l170 324q-52 2 -79 4v57h238z" />
    <glyph glyph-name="section" unicode="&#xa7;" horiz-adv-x="682" 
d="M260 494l221 -36q76 -13 104 -35.5t28 -74.5v-28q0 -73 -72 -98q20 -12 27 -31.5t7 -53.5v-7q0 -73 -47.5 -105.5t-168.5 -32.5h-18q-121 0 -220 47v121h56l6 -80q59 -34 157 -34h19q81 0 114 21t33 64v6q0 35 -12.5 49t-55.5 21l-236 36q-76 13 -104 35.5t-28 74.5v27
q0 65 89 98q-43 23 -43 85v8q0 74 43 106t158 32h17q122 0 221 -47v-121h-54l-6 80q-57 33 -164 33h-14q-79 0 -106 -20t-27 -64v-7q0 -33 16 -47t60 -22zM132 380v-20q0 -31 18.5 -45t70.5 -22l237 -36q4 -1 37 -8q34 12 44.5 28.5t10.5 43.5v20q1 30 -17.5 44t-70.5 23
l-228 37q-13 2 -35 8q-65 -25 -67 -73z" />
    <glyph glyph-name="dieresis" unicode="&#xa8;" 
d="M161 617q-18 0 -30 10.5t-12 26.5q0 17 12 27.5t30 10.5t29.5 -10.5t11.5 -27.5q0 -16 -12 -26.5t-29 -10.5zM339 617q-17 0 -29 10.5t-12 26.5q0 17 11.5 27.5t29.5 10.5t29.5 -10.5t11.5 -27.5q0 -16 -12 -26.5t-29 -10.5z" />
    <glyph glyph-name="copyright" unicode="&#xa9;" horiz-adv-x="865" 
d="M432 -15q-172 0 -268.5 96.5t-96.5 268.5t96.5 268.5t268.5 96.5t268.5 -96.5t96.5 -268.5t-96.5 -268.5t-268.5 -96.5zM432 16q155 0 243 88.5t88 245.5t-88 245.5t-243 88.5t-242.5 -88.5t-87.5 -245.5t87.5 -245.5t242.5 -88.5zM594 251v-40q-53 -70 -153 -70h-31
q-77 0 -117.5 40.5t-41.5 116.5v88q0 166 160 166h30q67 0 145 -29v-97h-44l-9 62q-7 3 -14 5.5t-13 4.5t-12.5 3.5t-10.5 2.5t-11 1.5t-10 1t-11 0.5h-11h-12.5h-12.5q-55 0 -82 -29t-27 -93v-86q0 -54 28 -82.5t81 -28.5h22q47 0 69 13t44 50h44z" />
    <glyph glyph-name="ordfeminine" unicode="&#xaa;" horiz-adv-x="505" 
d="M344 287v59q-33 -24 -52 -35.5t-48.5 -21t-62.5 -9.5h-14q-65 0 -89 20t-24 84v23q0 59 25.5 83t89.5 31q26 2 175 13v26q0 62 -21.5 83t-76.5 21q-67 0 -119 -17l-4 -59h-43v95q78 26 166 26h26q70 0 100.5 -36t30.5 -108v-232q40 -2 62 -4v-42h-121zM188 325h14
q38 0 69.5 12.5t72.5 43.5v122q-70 -4 -158 -14q-41 -5 -57 -21.5t-16 -53.5v-20q0 -42 14.5 -55.5t60.5 -13.5z" />
    <glyph glyph-name="guillemotleft" unicode="&#xab;" horiz-adv-x="494" 
d="M136 262l140 -170v-25h-45l-172 195v6l172 195h45v-26l-140 -169v-6zM313 262l140 -170v-25h-45l-172 195v6l172 195h45v-26l-140 -169v-6z" />
    <glyph glyph-name="registered" unicode="&#xae;" horiz-adv-x="419" 
d="M209 715q88 0 136.5 -49t48.5 -136q0 -88 -48.5 -137t-136.5 -49q-87 0 -135.5 49t-48.5 137q0 87 48.5 136t135.5 49zM209 692q-75 0 -117.5 -42t-42.5 -120t42.5 -120t117.5 -42q76 0 118 41.5t42 120.5q0 78 -42 120t-118 42zM125 631h100q62 0 62 -57v-8
q0 -42 -33 -51q15 -20 26 -51q2 0 27 -3v-21h-56v12q-8 31 -28 58h-44v-46l24 -2v-22h-77v22l24 2v142q-7 0 -25 2v23zM179 606v-70h46q31 0 31 30v8q0 32 -34 32h-43z" />
    <glyph glyph-name="macron" unicode="&#xaf;" 
d="M371 656v-48h-242v48h242z" />
    <glyph glyph-name="degree" unicode="&#xb0;" horiz-adv-x="398" 
d="M219 428h-39q-65 0 -94 30t-29 90v41q0 61 28.5 91t94.5 30h39q65 0 94 -30.5t29 -90.5v-41q-1 -60 -29.5 -90t-93.5 -30zM185 474h28q42 0 58.5 18.5t17.5 58.5v35q0 41 -16.5 60t-59.5 19h-28q-43 0 -59.5 -19t-16.5 -60v-35q0 -39 17 -58t59 -19z" />
    <glyph glyph-name="twosuperior" unicode="&#xb2;" horiz-adv-x="400" 
d="M349 412v-117h-300v42q0 70 18.5 104t66.5 54q36 14 85 30q43 14 59.5 28.5t16.5 37.5v14q0 34 -17 46t-66 12q-71 0 -105 -15l-5 -52h-42v86q72 26 152 26q75 0 105.5 -21.5t30.5 -79.5v-16q0 -37 -21 -62.5t-74 -42.5q-5 -2 -39 -12.5t-44 -14.5q-43 -16 -56.5 -38
t-13.5 -80h206l5 71h38z" />
    <glyph glyph-name="threesuperior" unicode="&#xb3;" horiz-adv-x="371" 
d="M322 601v-11q0 -80 -53 -96q29 -6 41 -25.5t12 -57.5v-12q0 -61 -31 -83.5t-112 -22.5q-63 0 -152 20v89h40l5 -54q60 -12 108 -12q51 0 70 14.5t19 53.5v12q0 36 -16 49t-53 13h-97v41h97q36 0 52.5 14.5t16.5 52.5v10q0 40 -18.5 54t-70.5 14t-104 -14l-5 -53h-37v87
q81 24 145 24q82 0 112.5 -22.5t30.5 -84.5z" />
    <glyph glyph-name="acute" unicode="&#xb4;" 
d="M332 703l-1 -12l-122 -107l-32 21l97 126z" />
    <glyph glyph-name="paragraph" unicode="&#xb6;" horiz-adv-x="550" 
d="M518 700v-57q-39 -4 -74 -6v-727h-58v736h-71v-736h-60v403h-13q-108 0 -158.5 38t-51.5 144v20q0 110 50 147.5t160 37.5h276z" />
    <glyph glyph-name="periodcentered" unicode="&#xb7;" horiz-adv-x="191" 
d="M96 243q-49 0 -49 45q0 46 49 46t49 -46q0 -45 -49 -45z" />
    <glyph glyph-name="cedilla" unicode="&#xb8;" 
d="M225 -38h41q37 0 53.5 -14t16.5 -46v-9q0 -64 -76 -65q-44 0 -98 9v24h98q37 0 37 34v4q0 18 -8.5 26t-30.5 8h-73l17 67h28z" />
    <glyph glyph-name="onesuperior" unicode="&#xb9;" horiz-adv-x="322" 
d="M210 708v-369q50 -2 81 -4v-40h-236v40q76 4 96 5v318l-105 -27v37l128 40h36z" />
    <glyph glyph-name="ordmasculine" unicode="&#xba;" horiz-adv-x="468" 
d="M256 279h-42q-86 0 -127 39t-42 120v110q0 82 41.5 121.5t127.5 39.5h42q86 0 126.5 -39.5t40.5 -121.5v-110q-1 -81 -41.5 -120t-125.5 -39zM213 325h42q109 0 109 105v128q0 106 -109 106h-42q-109 0 -109 -106v-128q0 -105 109 -105z" />
    <glyph glyph-name="guillemotright" unicode="&#xbb;" horiz-adv-x="494" 
d="M71 437v26h45l172 -195v-6l-172 -195h-45v25l140 170v6zM247 437v26h45l172 -195v-6l-172 -195h-45v25l140 170v6z" />
    <glyph glyph-name="onequarter" unicode="&#xbc;" horiz-adv-x="808" 
d="M210 708v-369q58 -2 88 -4v-40h-250v40q71 4 103 5v318l-105 -27v37l128 40h36zM679 708l-262 -355l-256 -359h-38l268 359l250 355h38zM678 111v-68q14 -1 78 -5v-38h-224v38q81 5 87 5v67h-230v41l230 260h59v-260h80v-37zM619 363l-180 -212h180v212z" />
    <glyph glyph-name="onehalf" unicode="&#xbd;" horiz-adv-x="848" 
d="M210 708v-369q58 -2 88 -4v-40h-250v40q71 4 103 5v318l-105 -27v37l128 40h36zM411 353l-256 -359h-38l268 359l250 355h38zM797 0h-300v42q0 71 16.5 105t63.5 53q43 16 90 30q42 14 59 28.5t17 37.5v14q0 34 -17 46t-66 12q-71 0 -105 -15l-5 -52h-42v86q72 26 152 26
q75 0 105.5 -21.5t30.5 -79.5v-24q0 -66 -95 -97q-8 -3 -42.5 -14t-40.5 -13q-42 -16 -54.5 -38.5t-12.5 -81.5h203l5 73h38v-117z" />
    <glyph glyph-name="threequarters" unicode="&#xbe;" horiz-adv-x="846" 
d="M322 601v-11q0 -80 -53 -96q29 -6 41 -25.5t12 -57.5v-12q0 -61 -31 -83.5t-112 -22.5q-63 0 -152 20v89h40l5 -54q60 -12 108 -12q51 0 70 14.5t19 53.5v12q0 37 -16.5 50.5t-52.5 13.5h-97v39h97q36 0 52.5 14.5t16.5 52.5v10q0 40 -18.5 54t-70.5 14t-104 -14l-5 -53
h-37v87q81 24 145 24q82 0 112.5 -22.5t30.5 -84.5zM711 708l-262 -355l-256 -359h-38l268 359l250 355h38zM717 111v-68q14 -1 78 -5v-38h-224v38q81 5 87 5v67h-230v41l230 260h59v-260h80v-37zM658 363l-180 -212h180v212z" />
    <glyph glyph-name="questiondown" unicode="&#xbf;" horiz-adv-x="498" 
d="M296 630q49 0 49 -45q0 -46 -49 -46t-49 46q0 45 49 45zM477 92v-124q-70 -30 -117.5 -40.5t-114.5 -10.5q-115 0 -160.5 38.5t-45.5 139.5v29q0 58 19 89t64 49q29 11 82.5 31t62.5 24v116h59l11 -156q-96 -35 -156 -59q-36 -15 -50.5 -36.5t-14.5 -54.5v-28
q0 -72 27 -96t109 -24q87 0 158 35l8 78h59z" />
    <glyph glyph-name="Agrave" unicode="&#xc0;" horiz-adv-x="792" 
d="M437 771l-32 -21l-122 107l-1 12l58 28zM450 700l222 -638q14 0 96 -5v-57h-259v57q54 4 76 4l-53 152h-285l-50 -151q5 0 70 -5v-57h-242v57q80 5 92 5l199 576l-85 5v57h219zM387 634l-123 -354h250l-124 354h-3z" />
    <glyph glyph-name="Aacute" unicode="&#xc1;" horiz-adv-x="792" 
d="M488 869l-1 -12l-125 -109l-33 22l99 128zM450 700l222 -638q14 0 96 -5v-57h-259v57q54 4 76 4l-53 152h-285l-50 -151q5 0 70 -5v-57h-242v57q80 5 92 5l199 576l-85 5v57h219zM387 634l-123 -354h250l-124 354h-3z" />
    <glyph glyph-name="Acircumflex" unicode="&#xc2;" horiz-adv-x="792" 
d="M501 753l-112 89l-113 -89l-25 21l114 116h48l113 -116zM450 700l222 -638q14 0 96 -5v-57h-259v57q54 4 76 4l-53 152h-285l-50 -151q5 0 70 -5v-57h-242v57q80 5 92 5l199 576l-85 5v57h219zM387 634l-123 -354h250l-124 354h-3z" />
    <glyph glyph-name="Atilde" unicode="&#xc3;" horiz-adv-x="792" 
d="M556 856l-69 -73q-21 -23 -46 -23q-12 0 -25.5 10.5t-36 30.5t-42.5 34l-91 -73l-24 20l65 69q25 28 49 28q13 0 27.5 -11t36.5 -31t41 -33l91 72zM450 700l222 -638q14 0 96 -5v-57h-259v57q54 4 76 4l-53 152h-285l-50 -151q5 0 70 -5v-57h-242v57q80 5 92 5l199 576
l-85 5v57h219zM387 634l-123 -354h250l-124 354h-3z" />
    <glyph glyph-name="Adieresis" unicode="&#xc4;" horiz-adv-x="792" 
d="M297 780q-19 0 -31.5 11t-12.5 29t12.5 29t31.5 11q18 0 30.5 -11t12.5 -29t-12.5 -29t-30.5 -11zM481 780q-18 0 -30.5 11t-12.5 29t12.5 29t30.5 11q19 0 31.5 -11t12.5 -29t-12.5 -29t-31.5 -11zM450 700l222 -638q14 0 96 -5v-57h-259v57q54 4 76 4l-53 152h-285
l-50 -151q5 0 70 -5v-57h-242v57q80 5 92 5l199 576l-85 5v57h219zM387 634l-123 -354h250l-124 354h-3z" />
    <glyph glyph-name="Aring" unicode="&#xc5;" horiz-adv-x="792" 
d="M399 745h-20q-32 0 -51.5 18.5t-19.5 50.5v19q0 32 19 50t52 18h20q32 0 51 -18.5t19 -49.5v-19q0 -32 -19 -50.5t-51 -18.5zM381 777h15q37 0 39 38v17q0 18 -10.5 28.5t-28.5 10.5h-15q-18 0 -28.5 -10.5t-10.5 -28.5v-17q0 -18 10.5 -28t28.5 -10zM450 700l222 -638
q14 0 96 -5v-57h-259v57q54 4 76 4l-53 152h-285l-50 -151q5 0 70 -5v-57h-242v57q80 5 92 5l199 576l-85 5v57h219zM387 634l-123 -354h250l-124 354h-3z" />
    <glyph glyph-name="AE" unicode="&#xc6;" horiz-adv-x="1084" 
d="M645 388h221v-65h-221v-259h311l10 111h51v-175h-536v57q20 1 85 5v160h-276l-92 -161q11 0 35 -1.5t37 -2.5v-57h-245v57q67 4 91 5l330 574q-22 2 -91 7v57h651v-175h-51l-10 111h-300v-248zM566 636h-45l-208 -369h253v369z" />
    <glyph glyph-name="Ccedilla" unicode="&#xc7;" horiz-adv-x="654" 
d="M592 156v-59q-35 -51 -94 -79t-130 -28h-57l-4 -28h41q37 0 53.5 -14t16.5 -46v-9q0 -64 -76 -65q-44 0 -98 9v24h98q37 0 37 34v4q0 18 -8.5 26t-30.5 8h-73l15 57q-107 5 -159 60t-53 166v247q0 122 59.5 184t175.5 62h41q137 0 238 -40v-168h-64l-12 118
q-28 12 -63 17.5t-60.5 6.5t-75.5 1q-160 0 -160 -178v-254q0 -155 160 -155h54q121 0 165 99h64z" />
    <glyph glyph-name="Egrave" unicode="&#xc8;" horiz-adv-x="645" 
d="M368 771l-32 -21l-122 107l-1 12l58 28zM567 525h-51l-10 111h-300v-246h221v-69h-221v-257h311l10 111h51v-175h-536v57q20 1 85 5v576q-5 0 -18.5 1t-30.5 2t-37 2v57h526v-175z" />
    <glyph glyph-name="Eacute" unicode="&#xc9;" horiz-adv-x="645" 
d="M418 869l-1 -12l-125 -109l-33 22l99 128zM567 525h-51l-10 111h-300v-246h221v-69h-221v-257h311l10 111h51v-175h-536v57q20 1 85 5v576q-5 0 -18.5 1t-30.5 2t-37 2v57h526v-175z" />
    <glyph glyph-name="Ecircumflex" unicode="&#xca;" horiz-adv-x="645" 
d="M431 753l-112 89l-113 -89l-25 21l114 116h48l113 -116zM567 525h-51l-10 111h-300v-246h221v-69h-221v-257h311l10 111h51v-175h-536v57q20 1 85 5v576q-5 0 -18.5 1t-30.5 2t-37 2v57h526v-175z" />
    <glyph glyph-name="Edieresis" unicode="&#xcb;" horiz-adv-x="645" 
d="M227 780q-19 0 -31.5 11t-12.5 29t12.5 29t31.5 11q18 0 30.5 -11t12.5 -29t-12.5 -29t-30.5 -11zM411 780q-18 0 -30.5 11t-12.5 29t12.5 29t30.5 11q19 0 31.5 -11t12.5 -29t-12.5 -29t-31.5 -11zM567 525h-51l-10 111h-300v-246h221v-69h-221v-257h311l10 111h51v-175
h-536v57q20 1 85 5v576q-5 0 -18.5 1t-30.5 2t-37 2v57h526v-175z" />
    <glyph glyph-name="Igrave" unicode="&#xcc;" horiz-adv-x="330" 
d="M214 771l-32 -21l-122 107l-1 12l58 28zM290 700v-57q-60 -4 -84 -5v-576q24 -1 84 -5v-57h-248v57q63 4 85 5v576q-28 1 -86 5v57h249z" />
    <glyph glyph-name="Iacute" unicode="&#xcd;" horiz-adv-x="330" 
d="M264 869l-1 -12l-125 -109l-33 22l99 128zM290 700v-57q-60 -4 -84 -5v-576q24 -1 84 -5v-57h-248v57q63 4 85 5v576q-28 1 -86 5v57h249z" />
    <glyph glyph-name="Icircumflex" unicode="&#xce;" horiz-adv-x="330" 
d="M278 753l-112 89l-113 -89l-25 21l114 116h48l113 -116zM290 700v-57q-60 -4 -84 -5v-576q24 -1 84 -5v-57h-248v57q63 4 85 5v576q-28 1 -86 5v57h249z" />
    <glyph glyph-name="Idieresis" unicode="&#xcf;" horiz-adv-x="330" 
d="M74 780q-19 0 -31.5 11t-12.5 29t12.5 29t31.5 11q18 0 30.5 -11t12.5 -29t-12.5 -29t-30.5 -11zM258 780q-18 0 -30.5 11t-12.5 29t12.5 29t30.5 11q19 0 31.5 -11t12.5 -29t-12.5 -29t-31.5 -11zM290 700v-57q-60 -4 -84 -5v-576q24 -1 84 -5v-57h-248v57q63 4 85 5
v576q-28 1 -86 5v57h249z" />
    <glyph glyph-name="Eth" unicode="&#xd0;" horiz-adv-x="729" 
d="M41 700h388q231 0 231 -226v-251q-1 -223 -231 -223h-387v57q19 1 48.5 3t40.5 3v255h-89v49h89v271q-67 3 -90 5v57zM582 220v259q0 76 -41 115.5t-119 39.5h-212v-267h86v-49h-86v-252h212q158 0 160 154z" />
    <glyph glyph-name="Ntilde" unicode="&#xd1;" horiz-adv-x="786" 
d="M559 856l-69 -73q-21 -23 -46 -23q-12 0 -25.5 10.5t-36 30.5t-42.5 34l-91 -73l-24 20l65 69q25 28 49 28q13 0 27.5 -11t36.5 -31t41 -33l91 72zM745 700v-57q-61 -4 -87 -5v-638h-87l-369 574v-513q48 -2 74 -4v-57h-234v57q64 4 89 5v575l-90 6v57h167l379 -580v519
q-50 2 -78 4v57h236z" />
    <glyph glyph-name="Ograve" unicode="&#xd2;" horiz-adv-x="716" 
d="M406 771l-32 -21l-122 107l-1 12l58 28zM401 -10h-84q-117 0 -182 65.5t-66 178.5v228q0 115 65.5 181t182.5 66h84q116 0 181 -66t65 -181v-227q0 -113 -65.5 -179t-180.5 -66zM321 62h73q81 0 127 44.5t47 125.5v234q0 82 -46 127t-128 45h-73q-81 0 -127 -46t-46 -126
v-234q0 -81 45.5 -125.5t127.5 -44.5z" />
    <glyph glyph-name="Oacute" unicode="&#xd3;" horiz-adv-x="716" 
d="M457 869l-1 -12l-125 -109l-33 22l99 128zM401 -10h-84q-117 0 -182 65.5t-66 178.5v228q0 115 65.5 181t182.5 66h84q116 0 181 -66t65 -181v-227q0 -113 -65.5 -179t-180.5 -66zM321 62h73q81 0 127 44.5t47 125.5v234q0 82 -46 127t-128 45h-73q-81 0 -127 -46
t-46 -126v-234q0 -81 45.5 -125.5t127.5 -44.5z" />
    <glyph glyph-name="Ocircumflex" unicode="&#xd4;" horiz-adv-x="716" 
d="M470 753l-112 89l-113 -89l-25 21l114 116h48l113 -116zM401 -10h-84q-117 0 -182 65.5t-66 178.5v228q0 115 65.5 181t182.5 66h84q116 0 181 -66t65 -181v-227q0 -113 -65.5 -179t-180.5 -66zM321 62h73q81 0 127 44.5t47 125.5v234q0 82 -46 127t-128 45h-73
q-81 0 -127 -46t-46 -126v-234q0 -81 45.5 -125.5t127.5 -44.5z" />
    <glyph glyph-name="Otilde" unicode="&#xd5;" horiz-adv-x="716" 
d="M525 856l-69 -73q-21 -23 -46 -23q-12 0 -25.5 10.5t-36 30.5t-42.5 34l-91 -73l-24 20l65 69q25 28 49 28q13 0 27.5 -11t36.5 -31t41 -33l91 72zM401 -10h-84q-117 0 -182 65.5t-66 178.5v228q0 115 65.5 181t182.5 66h84q116 0 181 -66t65 -181v-227
q0 -113 -65.5 -179t-180.5 -66zM321 62h73q81 0 127 44.5t47 125.5v234q0 82 -46 127t-128 45h-73q-81 0 -127 -46t-46 -126v-234q0 -81 45.5 -125.5t127.5 -44.5z" />
    <glyph glyph-name="Odieresis" unicode="&#xd6;" horiz-adv-x="716" 
d="M266 780q-19 0 -31.5 11t-12.5 29t12.5 29t31.5 11q18 0 30.5 -11t12.5 -29t-12.5 -29t-30.5 -11zM450 780q-18 0 -30.5 11t-12.5 29t12.5 29t30.5 11q19 0 31.5 -11t12.5 -29t-12.5 -29t-31.5 -11zM401 -10h-84q-117 0 -182 65.5t-66 178.5v228q0 115 65.5 181t182.5 66
h84q116 0 181 -66t65 -181v-227q0 -113 -65.5 -179t-180.5 -66zM321 62h73q81 0 127 44.5t47 125.5v234q0 82 -46 127t-128 45h-73q-81 0 -127 -46t-46 -126v-234q0 -81 45.5 -125.5t127.5 -44.5z" />
    <glyph glyph-name="multiply" unicode="&#xd7;" horiz-adv-x="585" 
d="M116 131l-42 42l177 175l-177 175l44 45l176 -177l175 177l42 -42l-177 -175l177 -176l-44 -44l-176 177z" />
    <glyph glyph-name="Oslash" unicode="&#xd8;" horiz-adv-x="716" 
d="M661 730l-70 -97q56 -64 56 -171v-227q0 -113 -65.5 -179t-180.5 -66h-84q-94 0 -155 43l-47 -65h-36l60 84q-68 64 -70 182v228q0 115 65.5 181t182.5 66h84q106 0 169 -55l54 76h37zM148 466v-234q0 -73 37 -116l339 475q-45 47 -130 47h-73q-81 0 -127 -46t-46 -126z
M568 232v234q0 58 -25 100l-337 -470q45 -34 115 -34h73q81 0 127 44.5t47 125.5z" />
    <glyph glyph-name="Ugrave" unicode="&#xd9;" horiz-adv-x="768" 
d="M436 771l-32 -21l-122 107l-1 12l58 28zM729 700v-57q-12 -1 -37.5 -2.5t-38.5 -2.5v-418q0 -230 -232 -230h-64q-235 0 -235 230v418q-23 1 -83 5v57h251v-57q-65 -4 -88 -5v-424q0 -76 40.5 -117t118.5 -41h59q77 0 118 41t41 117v425q-56 2 -84 4v57h234z" />
    <glyph glyph-name="Uacute" unicode="&#xda;" horiz-adv-x="768" 
d="M487 869l-1 -12l-125 -109l-33 22l99 128zM729 700v-57q-12 -1 -37.5 -2.5t-38.5 -2.5v-418q0 -230 -232 -230h-64q-235 0 -235 230v418q-23 1 -83 5v57h251v-57q-65 -4 -88 -5v-424q0 -76 40.5 -117t118.5 -41h59q77 0 118 41t41 117v425q-56 2 -84 4v57h234z" />
    <glyph glyph-name="Ucircumflex" unicode="&#xdb;" horiz-adv-x="768" 
d="M500 753l-112 89l-113 -89l-25 21l114 116h48l113 -116zM729 700v-57q-12 -1 -37.5 -2.5t-38.5 -2.5v-418q0 -230 -232 -230h-64q-235 0 -235 230v418q-23 1 -83 5v57h251v-57q-65 -4 -88 -5v-424q0 -76 40.5 -117t118.5 -41h59q77 0 118 41t41 117v425q-56 2 -84 4v57
h234z" />
    <glyph glyph-name="Udieresis" unicode="&#xdc;" horiz-adv-x="768" 
d="M296 780q-19 0 -31.5 11t-12.5 29t12.5 29t31.5 11q18 0 30.5 -11t12.5 -29t-12.5 -29t-30.5 -11zM480 780q-18 0 -30.5 11t-12.5 29t12.5 29t30.5 11q19 0 31.5 -11t12.5 -29t-12.5 -29t-31.5 -11zM729 700v-57q-12 -1 -37.5 -2.5t-38.5 -2.5v-418q0 -230 -232 -230h-64
q-235 0 -235 230v418q-23 1 -83 5v57h251v-57q-65 -4 -88 -5v-424q0 -76 40.5 -117t118.5 -41h59q77 0 118 41t41 117v425q-56 2 -84 4v57h234z" />
    <glyph glyph-name="Yacute" unicode="&#xdd;" horiz-adv-x="707" 
d="M455 869l-1 -12l-125 -109l-33 22l99 128zM261 643l-76 -3l170 -325h2l170 324q-52 2 -79 4v57h238v-57q-58 -4 -80 -5l-214 -386v-190q23 -1 83 -5v-57h-248v57q63 4 85 5v187l-214 389q-21 1 -77 5v57h240v-57z" />
    <glyph glyph-name="Thorn" unicode="&#xde;" horiz-adv-x="634" 
d="M206 556h173q209 0 209 -187v-50q-1 -181 -209 -181h-173v-138h-164v57q31 3 85 5v576q-56 2 -86 5v57h165v-144zM513 329v35q0 128 -134 128h-173v-290h173q134 0 134 127z" />
    <glyph glyph-name="germandbls" unicode="&#xdf;" horiz-adv-x="676" 
d="M578 565v-37q0 -126 -87 -147q56 -8 86 -41t30 -103v-70q0 -89 -41 -130.5t-128 -41.5q-82 0 -174 16v49h155q113 0 113 110v70q0 60 -30 85t-86 25h-84q-36 0 -36 24v33l99 4q63 1 88 27.5t25 88.5v28q0 117 -129 117h-40q-70 0 -107 -42.5t-37 -117.5v-512h-152v54
q62 4 76 5v394l-70 5v54h70v17q0 97 57.5 149.5t171.5 52.5h48q182 0 182 -166z" />
    <glyph glyph-name="agrave" unicode="&#xe0;" horiz-adv-x="601" 
d="M372 605l-32 -21l-122 107l-1 12l58 28zM500 346v-287q62 -4 75 -5v-54h-151v77q-58 -45 -101 -65t-103 -20h-18q-80 0 -110 26.5t-30 106.5v27q0 41 9.5 68t30.5 41t43 20t59 10q23 3 220 20v29q0 75 -28 101.5t-96 26.5q-85 0 -144 -21l-6 -68h-56v114q93 31 208 31h33
q87 0 126 -44.5t39 -133.5zM232 49h17q47 0 86 19t89 61v140q-151 -14 -191 -19q-54 -7 -73.5 -25t-19.5 -67v-23q0 -50 19 -68t73 -18z" />
    <glyph glyph-name="aacute" unicode="&#xe1;" horiz-adv-x="601" 
d="M384 703l-1 -12l-122 -107l-32 21l97 126zM500 346v-287q62 -4 75 -5v-54h-151v77q-58 -45 -101 -65t-103 -20h-18q-80 0 -110 26.5t-30 106.5v27q0 41 9.5 68t30.5 41t43 20t59 10q23 3 220 20v29q0 75 -28 101.5t-96 26.5q-85 0 -144 -21l-6 -68h-56v114q93 31 208 31
h33q87 0 126 -44.5t39 -133.5zM232 49h17q47 0 86 19t89 61v140q-151 -14 -191 -19q-54 -7 -73.5 -25t-19.5 -67v-23q0 -50 19 -68t73 -18z" />
    <glyph glyph-name="acircumflex" unicode="&#xe2;" horiz-adv-x="601" 
d="M412 589l-111 88l-111 -88l-24 20l112 114h46l112 -114zM500 346v-287q62 -4 75 -5v-54h-151v77q-58 -45 -101 -65t-103 -20h-18q-80 0 -110 26.5t-30 106.5v27q0 41 9.5 68t30.5 41t43 20t59 10q23 3 220 20v29q0 75 -28 101.5t-96 26.5q-85 0 -144 -21l-6 -68h-56v114
q93 31 208 31h33q87 0 126 -44.5t39 -133.5zM232 49h17q47 0 86 19t89 61v140q-151 -14 -191 -19q-54 -7 -73.5 -25t-19.5 -67v-23q0 -50 19 -68t73 -18z" />
    <glyph glyph-name="atilde" unicode="&#xe3;" horiz-adv-x="601" 
d="M465 704l-68 -72q-22 -22 -45 -22q-11 0 -27 12t-38 32t-38 31l-90 -73l-22 20l66 71q22 24 46 24q12 0 29 -12.5t38.5 -33t35.5 -29.5l90 72zM500 346v-287q62 -4 75 -5v-54h-151v77q-58 -45 -101 -65t-103 -20h-18q-80 0 -110 26.5t-30 106.5v27q0 41 9.5 68t30.5 41
t43 20t59 10q23 3 220 20v29q0 75 -28 101.5t-96 26.5q-85 0 -144 -21l-6 -68h-56v114q93 31 208 31h33q87 0 126 -44.5t39 -133.5zM232 49h17q47 0 86 19t89 61v140q-151 -14 -191 -19q-54 -7 -73.5 -25t-19.5 -67v-23q0 -50 19 -68t73 -18z" />
    <glyph glyph-name="adieresis" unicode="&#xe4;" horiz-adv-x="601" 
d="M212 617q-18 0 -30 10.5t-12 26.5q0 17 12 27.5t30 10.5t29.5 -10.5t11.5 -27.5q0 -16 -12 -26.5t-29 -10.5zM390 617q-17 0 -29 10.5t-12 26.5q0 17 11.5 27.5t29.5 10.5t29.5 -10.5t11.5 -27.5q0 -16 -12 -26.5t-29 -10.5zM500 346v-287q62 -4 75 -5v-54h-151v77
q-58 -45 -101 -65t-103 -20h-18q-80 0 -110 26.5t-30 106.5v27q0 41 9.5 68t30.5 41t43 20t59 10q23 3 220 20v29q0 75 -28 101.5t-96 26.5q-85 0 -144 -21l-6 -68h-56v114q93 31 208 31h33q87 0 126 -44.5t39 -133.5zM232 49h17q47 0 86 19t89 61v140q-151 -14 -191 -19
q-54 -7 -73.5 -25t-19.5 -67v-23q0 -50 19 -68t73 -18z" />
    <glyph glyph-name="aring" unicode="&#xe5;" horiz-adv-x="601" 
d="M311 585h-20q-31 0 -49 18t-18 49v17q0 31 18 49t49 18h20q31 0 49 -18t18 -49v-17q0 -31 -18 -49t-49 -18zM293 615h15q36 0 38 38v16q0 18 -10.5 28t-27.5 10h-15q-17 0 -27.5 -10t-10.5 -28v-16q0 -18 10.5 -28t27.5 -10zM500 346v-287q62 -4 75 -5v-54h-151v77
q-58 -45 -101 -65t-103 -20h-18q-80 0 -110 26.5t-30 106.5v27q0 41 9.5 68t30.5 41t43 20t59 10q23 3 220 20v29q0 75 -28 101.5t-96 26.5q-85 0 -144 -21l-6 -68h-56v114q93 31 208 31h33q87 0 126 -44.5t39 -133.5zM232 49h17q47 0 86 19t89 61v140q-151 -14 -191 -19
q-54 -7 -73.5 -25t-19.5 -67v-23q0 -50 19 -68t73 -18z" />
    <glyph glyph-name="ae" unicode="&#xe6;" horiz-adv-x="930" 
d="M94 379v114q93 31 208 31h26q113 0 139 -79q47 79 171 79h33q104 0 153.5 -44.5t49.5 -138.5v-118h-376v-52q0 -126 133 -126h44q91 0 122 61l4 13h58v-50q-57 -79 -181 -79h-53q-151 0 -188 100q-64 -51 -110 -74.5t-107 -23.5h-18q-81 0 -110.5 24.5t-29.5 104.5v31
q0 79 34.5 106t107.5 33q113 10 220 10v39q0 75 -28 101.5t-96 26.5q-85 0 -144 -21l-6 -68h-56zM803 275v71q0 62 -33.5 94.5t-98.5 32.5h-31q-67 0 -104.5 -35t-37.5 -100v-63h305zM232 49h17q48 0 87 17t92 58q-4 21 -4 53v81q-120 -2 -200 -15q-52 -7 -69 -22.5
t-17 -64.5v-21q0 -51 19 -68.5t75 -17.5z" />
    <glyph glyph-name="ccedilla" unicode="&#xe7;" horiz-adv-x="536" 
d="M487 123v-54q-29 -37 -78 -58t-104 -21h-52l-4 -28h41q37 0 53.5 -14t16.5 -46v-9q0 -64 -76 -65q-44 0 -98 9v24h98q37 0 37 34v4q0 18 -8.5 26t-30.5 8h-73l15 58q-86 7 -126.5 54t-40.5 138v151q0 93 52 141.5t147 48.5h36q95 0 188 -38v-128h-57l-8 83
q-59 25 -149 25q-133 0 -133 -138v-147q0 -68 33 -99t99 -31h37q92 0 122 61l4 11h59z" />
    <glyph glyph-name="egrave" unicode="&#xe8;" horiz-adv-x="564" 
d="M322 605l-32 -21l-122 107l-1 12l58 28zM271 524h33q203 0 203 -191v-111h-376v-48q0 -127 134 -127h43q92 0 122 59l4 13h58v-50q-28 -39 -77.5 -59t-106.5 -20h-40q-110 0 -160.5 49.5t-50.5 155.5v128q0 99 55 150t159 51zM438 276v68q0 62 -35.5 94t-100.5 32h-31
q-66 0 -103 -34.5t-37 -98.5v-61h307z" />
    <glyph glyph-name="eacute" unicode="&#xe9;" horiz-adv-x="564" 
d="M371 703l-1 -12l-122 -107l-32 21l97 126zM271 524h33q203 0 203 -191v-111h-376v-48q0 -127 134 -127h43q92 0 122 59l4 13h58v-50q-28 -39 -77.5 -59t-106.5 -20h-40q-110 0 -160.5 49.5t-50.5 155.5v128q0 99 55 150t159 51zM438 276v68q0 62 -35.5 94t-100.5 32h-31
q-66 0 -103 -34.5t-37 -98.5v-61h307z" />
    <glyph glyph-name="ecircumflex" unicode="&#xea;" horiz-adv-x="564" 
d="M399 589l-111 88l-111 -88l-24 20l112 114h46l112 -114zM271 524h33q203 0 203 -191v-111h-376v-48q0 -127 134 -127h43q92 0 122 59l4 13h58v-50q-28 -39 -77.5 -59t-106.5 -20h-40q-110 0 -160.5 49.5t-50.5 155.5v128q0 99 55 150t159 51zM438 276v68q0 62 -35.5 94
t-100.5 32h-31q-66 0 -103 -34.5t-37 -98.5v-61h307z" />
    <glyph glyph-name="edieresis" unicode="&#xeb;" horiz-adv-x="564" 
d="M199 617q-18 0 -30 10.5t-12 26.5q0 17 12 27.5t30 10.5t29.5 -10.5t11.5 -27.5q0 -16 -12 -26.5t-29 -10.5zM377 617q-17 0 -29 10.5t-12 26.5q0 17 11.5 27.5t29.5 10.5t29.5 -10.5t11.5 -27.5q0 -16 -12 -26.5t-29 -10.5zM271 524h33q203 0 203 -191v-111h-376v-48
q0 -127 134 -127h43q92 0 122 59l4 13h58v-50q-28 -39 -77.5 -59t-106.5 -20h-40q-110 0 -160.5 49.5t-50.5 155.5v128q0 99 55 150t159 51zM438 276v68q0 62 -35.5 94t-100.5 32h-31q-66 0 -103 -34.5t-37 -98.5v-61h307z" />
    <glyph glyph-name="igrave" unicode="&#xec;" horiz-adv-x="297" 
d="M196 605l-32 -21l-122 107l-1 12l58 28zM195 512v-453q14 -1 76 -5v-54h-228v54q62 4 76 5v394q-25 1 -70 5v54h146z" />
    <glyph glyph-name="iacute" unicode="&#xed;" horiz-adv-x="297" 
d="M237 703l-1 -12l-122 -107l-32 21l97 126zM195 512v-453q14 -1 76 -5v-54h-228v54q62 4 76 5v394q-25 1 -70 5v54h146z" />
    <glyph glyph-name="icircumflex" unicode="&#xee;" horiz-adv-x="297" 
d="M265 589l-111 88l-111 -88l-24 20l112 114h46l112 -114zM195 512v-453q14 -1 76 -5v-54h-228v54q62 4 76 5v394q-25 1 -70 5v54h146z" />
    <glyph glyph-name="idieresis" unicode="&#xef;" horiz-adv-x="297" 
d="M65 617q-18 0 -30 10.5t-12 26.5q0 17 12 27.5t30 10.5t29.5 -10.5t11.5 -27.5q0 -16 -12 -26.5t-29 -10.5zM243 617q-17 0 -29 10.5t-12 26.5q0 17 11.5 27.5t29.5 10.5t29.5 -10.5t11.5 -27.5q0 -16 -12 -26.5t-29 -10.5zM195 512v-453q14 -1 76 -5v-54h-228v54
q62 4 76 5v394q-25 1 -70 5v54h146z" />
    <glyph glyph-name="eth" unicode="&#xf0;" horiz-adv-x="599" 
d="M529 685l13 -40q-8 -4 -19.5 -9t-27.5 -11.5t-27 -11.5q61 -62 61 -176v-223q0 -122 -48 -171.5t-161 -49.5h-35q-120 0 -174 50t-54 155v120q0 97 42 138.5t136 41.5h19q40 0 75.5 -9t57 -19.5t66.5 -34.5v26q-1 46 -9.5 77t-34.5 57q-99 -34 -180 -58l-13 40l161 57
q-38 26 -111 52l16 31q93 -21 152 -65zM453 196v189q-40 20 -58.5 28.5t-49 16t-63.5 7.5h-18q-73 0 -102 -30t-29 -105v-110q0 -73 37 -105.5t113 -32.5h35q70 0 102 32.5t33 109.5z" />
    <glyph glyph-name="ntilde" unicode="&#xf1;" horiz-adv-x="669" 
d="M504 704l-68 -72q-22 -22 -45 -22q-11 0 -27 12t-38 32t-38 31l-90 -73l-22 20l66 71q22 24 46 24q12 0 29 -12.5t38.5 -33t35.5 -29.5l90 72zM560 388v-328q21 -2 83 -6v-54h-159v350q0 68 -15 89t-66 21h-12q-79 0 -196 -87v-314q14 -1 76 -5v-54h-228v54q62 4 76 5
v394q-25 1 -70 5v54h146v-91q65 49 119 76t112 27h11q67 0 95 -30t28 -106z" />
    <glyph glyph-name="ograve" unicode="&#xf2;" horiz-adv-x="587" 
d="M328 605l-32 -21l-122 107l-1 12l58 28zM321 -10h-52q-108 0 -160 50.5t-52 153.5v124q0 105 51.5 155.5t160.5 50.5h52q107 0 158 -50.5t51 -155.5v-124q0 -103 -51.5 -153.5t-157.5 -50.5zM267 48h52q135 0 135 128v161q0 129 -135 129h-52q-134 0 -134 -129v-161
q0 -128 134 -128z" />
    <glyph glyph-name="oacute" unicode="&#xf3;" horiz-adv-x="587" 
d="M384 703l-1 -12l-122 -107l-32 21l97 126zM321 -10h-52q-108 0 -160 50.5t-52 153.5v124q0 105 51.5 155.5t160.5 50.5h52q107 0 158 -50.5t51 -155.5v-124q0 -103 -51.5 -153.5t-157.5 -50.5zM267 48h52q135 0 135 128v161q0 129 -135 129h-52q-134 0 -134 -129v-161
q0 -128 134 -128z" />
    <glyph glyph-name="ocircumflex" unicode="&#xf4;" horiz-adv-x="587" 
d="M405 589l-111 88l-111 -88l-24 20l112 114h46l112 -114zM321 -10h-52q-108 0 -160 50.5t-52 153.5v124q0 105 51.5 155.5t160.5 50.5h52q107 0 158 -50.5t51 -155.5v-124q0 -103 -51.5 -153.5t-157.5 -50.5zM267 48h52q135 0 135 128v161q0 129 -135 129h-52
q-134 0 -134 -129v-161q0 -128 134 -128z" />
    <glyph glyph-name="otilde" unicode="&#xf5;" horiz-adv-x="587" 
d="M458 704l-68 -72q-22 -22 -45 -22q-11 0 -27 12t-38 32t-38 31l-90 -73l-22 20l66 71q22 24 46 24q12 0 29 -12.5t38.5 -33t35.5 -29.5l90 72zM321 -10h-52q-108 0 -160 50.5t-52 153.5v124q0 105 51.5 155.5t160.5 50.5h52q107 0 158 -50.5t51 -155.5v-124
q0 -103 -51.5 -153.5t-157.5 -50.5zM267 48h52q135 0 135 128v161q0 129 -135 129h-52q-134 0 -134 -129v-161q0 -128 134 -128z" />
    <glyph glyph-name="odieresis" unicode="&#xf6;" horiz-adv-x="587" 
d="M205 617q-18 0 -30 10.5t-12 26.5q0 17 12 27.5t30 10.5t29.5 -10.5t11.5 -27.5q0 -16 -12 -26.5t-29 -10.5zM383 617q-17 0 -29 10.5t-12 26.5q0 17 11.5 27.5t29.5 10.5t29.5 -10.5t11.5 -27.5q0 -16 -12 -26.5t-29 -10.5zM321 -10h-52q-108 0 -160 50.5t-52 153.5v124
q0 105 51.5 155.5t160.5 50.5h52q107 0 158 -50.5t51 -155.5v-124q0 -103 -51.5 -153.5t-157.5 -50.5zM267 48h52q135 0 135 128v161q0 129 -135 129h-52q-134 0 -134 -129v-161q0 -128 134 -128z" />
    <glyph glyph-name="divide" unicode="&#xf7;" horiz-adv-x="593" 
d="M300 517q-48 0 -48 44q0 45 48 45t48 -45q0 -44 -48 -44zM57 380h479v-58h-479v58zM300 105q-48 0 -48 44q0 45 48 45t48 -45q0 -44 -48 -44z" />
    <glyph glyph-name="oslash" unicode="&#xf8;" horiz-adv-x="592" 
d="M537 546l-55 -73q51 -51 51 -155v-124q0 -103 -51.5 -153.5t-157.5 -50.5h-52q-82 0 -132 29l-39 -51h-37l52 69q-56 49 -56 157v124q0 105 51.5 155.5t160.5 50.5h52q85 0 136 -33l41 55h36zM136 337v-161q0 -51 23 -83l260 344q-35 29 -97 29h-52q-134 0 -134 -129z
M457 176v161q0 47 -19 78l-258 -343q33 -24 90 -24h52q135 0 135 128z" />
    <glyph glyph-name="ugrave" unicode="&#xf9;" horiz-adv-x="668" 
d="M362 605l-32 -21l-122 107l-1 12l58 28zM564 512v-453q61 -4 78 -5v-54h-154v99q-43 -31 -73 -49t-73.5 -34t-83.5 -16h-12q-69 0 -95.5 28t-26.5 108v317q-5 0 -14 1t-29.5 2t-39.5 2v54h159v-338q0 -68 15 -88.5t65 -20.5h12q78 0 196 86v302l-83 5v54h159z" />
    <glyph glyph-name="uacute" unicode="&#xfa;" horiz-adv-x="668" 
d="M417 703l-1 -12l-122 -107l-32 21l97 126zM564 512v-453q61 -4 78 -5v-54h-154v99q-43 -31 -73 -49t-73.5 -34t-83.5 -16h-12q-69 0 -95.5 28t-26.5 108v317q-5 0 -14 1t-29.5 2t-39.5 2v54h159v-338q0 -68 15 -88.5t65 -20.5h12q78 0 196 86v302l-83 5v54h159z" />
    <glyph glyph-name="ucircumflex" unicode="&#xfb;" horiz-adv-x="668" 
d="M446 589l-111 88l-111 -88l-24 20l112 114h46l112 -114zM564 512v-453q61 -4 78 -5v-54h-154v99q-43 -31 -73 -49t-73.5 -34t-83.5 -16h-12q-69 0 -95.5 28t-26.5 108v317q-5 0 -14 1t-29.5 2t-39.5 2v54h159v-338q0 -68 15 -88.5t65 -20.5h12q78 0 196 86v302l-83 5v54
h159z" />
    <glyph glyph-name="udieresis" unicode="&#xfc;" horiz-adv-x="668" 
d="M246 617q-18 0 -30 10.5t-12 26.5q0 17 12 27.5t30 10.5t29.5 -10.5t11.5 -27.5q0 -16 -12 -26.5t-29 -10.5zM424 617q-17 0 -29 10.5t-12 26.5q0 17 11.5 27.5t29.5 10.5t29.5 -10.5t11.5 -27.5q0 -16 -12 -26.5t-29 -10.5zM564 512v-453q61 -4 78 -5v-54h-154v99
q-43 -31 -73 -49t-73.5 -34t-83.5 -16h-12q-69 0 -95.5 28t-26.5 108v317q-5 0 -14 1t-29.5 2t-39.5 2v54h159v-338q0 -68 15 -88.5t65 -20.5h12q78 0 196 86v302l-83 5v54h159z" />
    <glyph glyph-name="yacute" unicode="&#xfd;" horiz-adv-x="652" 
d="M416 703l-1 -12l-122 -107l-32 21l97 126zM636 512v-54q-17 -2 -45.5 -3.5t-35.5 -2.5l-235 -545q30 0 64 -3v-53h-238v53q45 4 98 4l36 82l-197 464q-42 2 -67 4v54h234v-54q-36 -2 -86 -4l155 -382h2l165 382q-44 2 -71 4v54h221z" />
    <glyph glyph-name="thorn" unicode="&#xfe;" horiz-adv-x="616" 
d="M408 524h19q67 0 100 -41.5t33 -132.5v-193q0 -82 -37 -123.5t-104 -41.5h-19q-63 0 -103 13.5t-102 51.5v-169q14 -1 76 -5v-54h-228v54q62 4 76 5v753q-25 1 -70 5v54h146v-264q59 45 106 66.5t107 21.5zM484 186v142q0 71 -20 101.5t-70 30.5h-17q-48 0 -89.5 -17
t-92.5 -55v-278q54 -35 89.5 -46.5t86.5 -11.5h20q50 0 71.5 32t21.5 102z" />
    <glyph glyph-name="ydieresis" unicode="&#xff;" horiz-adv-x="652" 
d="M237 617q-18 0 -30 10.5t-12 26.5q0 17 12 27.5t30 10.5t29.5 -10.5t11.5 -27.5q0 -16 -12 -26.5t-29 -10.5zM415 617q-17 0 -29 10.5t-12 26.5q0 17 11.5 27.5t29.5 10.5t29.5 -10.5t11.5 -27.5q0 -16 -12 -26.5t-29 -10.5zM636 512v-54q-17 -2 -45.5 -3.5t-35.5 -2.5
l-235 -545q30 0 64 -3v-53h-238v53q45 4 98 4l36 82l-197 464q-42 2 -67 4v54h234v-54q-36 -2 -86 -4l155 -382h2l165 382q-44 2 -71 4v54h221z" />
    <glyph glyph-name="Amacron" unicode="&#x100;" horiz-adv-x="792" 
d="M516 822v-49h-254v49h254zM450 700l222 -638q14 0 96 -5v-57h-259v57q54 4 76 4l-53 152h-285l-50 -151q5 0 70 -5v-57h-242v57q80 5 92 5l199 576l-85 5v57h219zM387 634l-123 -354h250l-124 354h-3z" />
    <glyph glyph-name="amacron" unicode="&#x101;" horiz-adv-x="601" 
d="M421 656v-48h-242v48h242zM500 346v-287q62 -4 75 -5v-54h-151v77q-58 -45 -101 -65t-103 -20h-18q-80 0 -110 26.5t-30 106.5v27q0 41 9.5 68t30.5 41t43 20t59 10q23 3 220 20v29q0 75 -28 101.5t-96 26.5q-85 0 -144 -21l-6 -68h-56v114q93 31 208 31h33
q87 0 126 -44.5t39 -133.5zM232 49h17q47 0 86 19t89 61v140q-151 -14 -191 -19q-54 -7 -73.5 -25t-19.5 -67v-23q0 -50 19 -68t73 -18z" />
    <glyph glyph-name="Abreve" unicode="&#x102;" horiz-adv-x="792" 
d="M514 877v-15q0 -53 -32.5 -83t-92.5 -30t-93 29.5t-33 83.5v15h47v-8q0 -71 79 -71q78 0 78 71v8h47zM450 700l222 -638q14 0 96 -5v-57h-259v57q54 4 76 4l-53 152h-285l-50 -151q5 0 70 -5v-57h-242v57q80 5 92 5l199 576l-85 5v57h219zM387 634l-123 -354h250
l-124 354h-3z" />
    <glyph glyph-name="abreve" unicode="&#x103;" horiz-adv-x="601" 
d="M423 710v-15q0 -53 -32 -81.5t-90 -28.5q-59 0 -91 28.5t-32 81.5v15h45v-7q0 -71 78 -71q77 0 77 71v7h45zM500 346v-287q62 -4 75 -5v-54h-151v77q-58 -45 -101 -65t-103 -20h-18q-80 0 -110 26.5t-30 106.5v27q0 41 9.5 68t30.5 41t43 20t59 10q23 3 220 20v29
q0 75 -28 101.5t-96 26.5q-85 0 -144 -21l-6 -68h-56v114q93 31 208 31h33q87 0 126 -44.5t39 -133.5zM232 49h17q47 0 86 19t89 61v140q-151 -14 -191 -19q-54 -7 -73.5 -25t-19.5 -67v-23q0 -50 19 -68t73 -18z" />
    <glyph glyph-name="Aogonek" unicode="&#x104;" horiz-adv-x="792" 
d="M768 0h-117q-3 -2 -11 -7t-11 -7t-10 -7t-10 -7.5t-8.5 -7t-8 -7.5t-6 -7t-5.5 -8t-3 -8.5t-1 -8.5v-5q0 -38 51 -38q40 0 76 20l13 -24q-49 -37 -96 -37h-11q-81 0 -81 67v10q0 47 83 82h-103v57q54 4 76 4l-53 152h-285l-50 -151q5 0 70 -5v-57h-242v57q80 5 92 5
l199 576l-85 5v57h219l222 -638q14 0 96 -5v-57zM514 280l-124 354h-3l-123 -354h250z" />
    <glyph glyph-name="aogonek" unicode="&#x105;" horiz-adv-x="601" 
d="M575 0h-86q-3 -2 -11 -7t-11 -7t-10 -7t-10 -7.5t-8.5 -7t-8 -7.5t-6 -7t-5.5 -8t-3 -8.5t-1 -8.5v-5q0 -38 51 -38q40 0 76 20l13 -24q-49 -37 -96 -37h-11q-81 0 -81 67v10q0 47 83 82h-26v77q-58 -45 -101 -65t-103 -20h-18q-80 0 -110 26.5t-30 106.5v27q0 41 9.5 68
t30.5 41t43 20t59 10q23 3 220 20v29q0 75 -28 101.5t-96 26.5q-85 0 -144 -21l-6 -68h-56v114q93 31 208 31h33q87 0 126 -44.5t39 -133.5v-287q62 -4 75 -5v-54zM424 129v140q-151 -14 -191 -19q-54 -7 -73.5 -25t-19.5 -67v-23q0 -50 19 -68t73 -18h17q47 0 86 19t89 61z
" />
    <glyph glyph-name="Cacute" unicode="&#x106;" horiz-adv-x="654" 
d="M433 869l-1 -12l-125 -109l-33 22l99 128zM592 156v-59q-35 -51 -94 -79t-130 -28h-67q-117 0 -173.5 55t-57.5 171v247q0 122 59.5 184t175.5 62h41q137 0 238 -40v-168h-64l-12 118q-28 12 -63 17.5t-60.5 6.5t-75.5 1q-160 0 -160 -178v-254q0 -155 160 -155h54
q121 0 165 99h64z" />
    <glyph glyph-name="cacute" unicode="&#x107;" horiz-adv-x="536" 
d="M356 703l-1 -12l-122 -107l-32 21l97 126zM487 123v-54q-29 -37 -78 -58t-104 -21h-53q-100 0 -147.5 48t-47.5 145v151q0 93 52 141.5t147 48.5h36q95 0 188 -38v-128h-57l-8 83q-59 25 -149 25q-133 0 -133 -138v-147q0 -68 33 -99t99 -31h37q92 0 122 61l4 11h59z" />
    <glyph glyph-name="Cdotaccent" unicode="&#x10a;" horiz-adv-x="654" 
d="M334 779q-19 0 -32 11.5t-13 29.5t13 29.5t32 11.5t32 -11.5t13 -29.5t-13 -29.5t-32 -11.5zM592 156v-59q-35 -51 -94 -79t-130 -28h-67q-117 0 -173.5 55t-57.5 171v247q0 122 59.5 184t175.5 62h41q137 0 238 -40v-168h-64l-12 118q-28 12 -63 17.5t-60.5 6.5t-75.5 1
q-160 0 -160 -178v-254q0 -155 160 -155h54q121 0 165 99h64z" />
    <glyph glyph-name="cdotaccent" unicode="&#x10b;" horiz-adv-x="536" 
d="M274 612q-19 0 -31.5 10.5t-12.5 28.5t12.5 29.5t31.5 11.5q18 0 31 -11.5t13 -29.5t-12.5 -28.5t-31.5 -10.5zM487 123v-54q-29 -37 -78 -58t-104 -21h-53q-100 0 -147.5 48t-47.5 145v151q0 93 52 141.5t147 48.5h36q95 0 188 -38v-128h-57l-8 83q-59 25 -149 25
q-133 0 -133 -138v-147q0 -68 33 -99t99 -31h37q92 0 122 61l4 11h59z" />
    <glyph glyph-name="Ccaron" unicode="&#x10c;" horiz-adv-x="654" 
d="M357 754h-46l-112 114l24 20l111 -88l111 88l24 -20zM592 156v-59q-35 -51 -94 -79t-130 -28h-67q-117 0 -173.5 55t-57.5 171v247q0 122 59.5 184t175.5 62h41q137 0 238 -40v-168h-64l-12 118q-28 12 -63 17.5t-60.5 6.5t-75.5 1q-160 0 -160 -178v-254
q0 -155 160 -155h54q121 0 165 99h64z" />
    <glyph glyph-name="ccaron" unicode="&#x10d;" horiz-adv-x="536" 
d="M297 588h-46l-112 114l24 20l111 -88l111 88l24 -20zM487 123v-54q-29 -37 -78 -58t-104 -21h-53q-100 0 -147.5 48t-47.5 145v151q0 93 52 141.5t147 48.5h36q95 0 188 -38v-128h-57l-8 83q-59 25 -149 25q-133 0 -133 -138v-147q0 -68 33 -99t99 -31h37q92 0 122 61
l4 11h59z" />
    <glyph glyph-name="Dcaron" unicode="&#x10e;" horiz-adv-x="729" 
d="M378 754h-46l-112 114l24 20l111 -88l111 88l24 -20zM41 700h388q231 0 231 -226v-251q-1 -223 -231 -223h-387v57q19 1 48.5 3t40.5 3v575q-67 3 -90 5v57zM582 220v259q0 76 -41 115.5t-119 39.5h-212v-568h212q158 0 160 154z" />
    <glyph glyph-name="dcaron" unicode="&#x10f;" horiz-adv-x="599" 
d="M497 700v-641q65 -4 76 -5v-54h-152v81q-60 -47 -103.5 -68t-102.5 -21h-18q-140 0 -140 175v190q0 81 38 124t104 43h19q64 0 99 -11t104 -50v182q-24 3 -84 6v49h160zM630 700v-17l-42 -143h-41l22 160h61zM230 57h17q47 0 84.5 16.5t89.5 55.5v281q-61 34 -91 42.5
t-83 8.5h-19q-95 0 -95 -123v-150q0 -70 23 -100.5t74 -30.5z" />
    <glyph glyph-name="Dcroat" unicode="&#x110;" horiz-adv-x="729" 
d="M41 700h388q231 0 231 -226v-251q-1 -223 -231 -223h-387v57q19 1 48.5 3t40.5 3v257h-87v49h87v269q-67 3 -90 5v57zM582 220v259q0 76 -41 115.5t-119 39.5h-212v-265h88v-49h-88v-254h212q158 0 160 154z" />
    <glyph glyph-name="dcroat" unicode="&#x111;" horiz-adv-x="599" 
d="M497 581v-522q65 -4 76 -5v-54h-152v81q-60 -47 -103.5 -68t-102.5 -21h-18q-140 0 -140 175v190q0 81 38 124t104 43h19q64 0 99 -11t104 -50v118h-122v48h122v79h76v-79h66v-48h-66zM421 129v281q-61 34 -91 42.5t-83 8.5h-19q-95 0 -95 -123v-150q0 -70 23 -100.5
t74 -30.5h17q47 0 84.5 16.5t89.5 55.5z" />
    <glyph glyph-name="Emacron" unicode="&#x112;" horiz-adv-x="645" 
d="M446 822v-49h-254v49h254zM567 525h-51l-10 111h-300v-246h221v-69h-221v-257h311l10 111h51v-175h-536v57q20 1 85 5v576q-5 0 -18.5 1t-30.5 2t-37 2v57h526v-175z" />
    <glyph glyph-name="emacron" unicode="&#x113;" horiz-adv-x="564" 
d="M407 656v-48h-242v48h242zM271 524h33q203 0 203 -191v-111h-376v-48q0 -127 134 -127h43q92 0 122 59l4 13h58v-50q-28 -39 -77.5 -59t-106.5 -20h-40q-110 0 -160.5 49.5t-50.5 155.5v128q0 99 55 150t159 51zM438 276v68q0 62 -35.5 94t-100.5 32h-31
q-66 0 -103 -34.5t-37 -98.5v-61h307z" />
    <glyph glyph-name="Edotaccent" unicode="&#x116;" horiz-adv-x="645" 
d="M319 779q-19 0 -32 11.5t-13 29.5t13 29.5t32 11.5t32 -11.5t13 -29.5t-13 -29.5t-32 -11.5zM567 525h-51l-10 111h-300v-246h221v-69h-221v-257h311l10 111h51v-175h-536v57q20 1 85 5v576q-5 0 -18.5 1t-30.5 2t-37 2v57h526v-175z" />
    <glyph glyph-name="edotaccent" unicode="&#x117;" horiz-adv-x="564" 
d="M288 614q-19 0 -32 11t-13 29t13 30t32 12t32 -12t13 -30t-13 -29t-32 -11zM271 524h33q203 0 203 -191v-111h-376v-48q0 -127 134 -127h43q92 0 122 59l4 13h58v-50q-28 -39 -77.5 -59t-106.5 -20h-40q-110 0 -160.5 49.5t-50.5 155.5v128q0 99 55 150t159 51zM438 276
v68q0 62 -35.5 94t-100.5 32h-31q-66 0 -103 -34.5t-37 -98.5v-61h307z" />
    <glyph glyph-name="Eogonek" unicode="&#x118;" horiz-adv-x="645" 
d="M578 0h-77q-3 -2 -11 -7t-11 -7t-10 -7t-10 -7.5t-8.5 -7t-8 -7.5t-6 -7t-5.5 -8t-3 -8.5t-1 -8.5v-5q0 -38 51 -38q40 0 76 20l13 -24q-49 -37 -96 -37h-11q-81 0 -81 67v10q0 47 83 82h-420v57q20 1 85 5v576q-5 0 -18.5 1t-30.5 2t-37 2v57h526v-175h-51l-10 111h-300
v-246h221v-69h-221v-257h311l10 111h51v-175z" />
    <glyph glyph-name="eogonek" unicode="&#x119;" horiz-adv-x="564" 
d="M131 222v-48q0 -127 134 -127h43q92 0 122 59l4 13h58v-50q-48 -67 -153 -77q-30 -19 -45.5 -34t-15.5 -33v-5q0 -38 51 -38q40 0 76 20l13 -24q-49 -37 -96 -37h-11q-81 0 -81 67v10q0 42 61 72h-23q-110 0 -160.5 49.5t-50.5 155.5v128q0 99 55 150t159 51h33
q203 0 203 -191v-111h-376zM131 276h307v68q0 62 -35.5 94t-100.5 32h-31q-66 0 -103 -34.5t-37 -98.5v-61z" />
    <glyph glyph-name="Ecaron" unicode="&#x11a;" horiz-adv-x="645" 
d="M342 754h-46l-112 114l24 20l111 -88l111 88l24 -20zM567 525h-51l-10 111h-300v-246h221v-69h-221v-257h311l10 111h51v-175h-536v57q20 1 85 5v576q-5 0 -18.5 1t-30.5 2t-37 2v57h526v-175z" />
    <glyph glyph-name="ecaron" unicode="&#x11b;" horiz-adv-x="564" 
d="M311 588h-46l-112 114l24 20l111 -88l111 88l24 -20zM271 524h33q203 0 203 -191v-111h-376v-48q0 -127 134 -127h43q92 0 122 59l4 13h58v-50q-28 -39 -77.5 -59t-106.5 -20h-40q-110 0 -160.5 49.5t-50.5 155.5v128q0 99 55 150t159 51zM438 276v68q0 62 -35.5 94
t-100.5 32h-31q-66 0 -103 -34.5t-37 -98.5v-61h307z" />
    <glyph glyph-name="Gbreve" unicode="&#x11e;" horiz-adv-x="697" 
d="M475 877v-15q0 -53 -32.5 -83t-92.5 -30t-93 29.5t-33 83.5v15h47v-8q0 -71 79 -71q78 0 78 71v8h47zM629 346v-163q0 -92 -68 -142.5t-160 -50.5h-85q-246 0 -246 228v237q0 121 65.5 187.5t184.5 66.5h36q141 0 252 -40v-169h-65l-11 115q-60 23 -205 23
q-84 0 -131 -48t-47 -135v-242q0 -76 45 -114t129 -38h80q68 0 110.5 34.5t43.5 93.5v91q-158 5 -231 9v57h303z" />
    <glyph glyph-name="gbreve" unicode="&#x11f;" horiz-adv-x="626" 
d="M434 710v-15q0 -53 -32 -81.5t-90 -28.5q-59 0 -91 28.5t-32 81.5v15h45v-7q0 -71 78 -71q77 0 77 71v7h45zM588 512v-47q-16 -1 -34.5 -3t-30 -3t-23.5 -2q25 -25 25 -77v-33q0 -78 -46 -109.5t-144 -31.5h-44q-81 0 -118 23q-35 -22 -40 -32q-4 -8 -4 -20v-13
q0 -23 19.5 -31t73.5 -8h206q77 0 106.5 -25.5t29.5 -93.5v-26q0 -78 -56.5 -111.5t-165.5 -33.5h-114q-110 0 -147 23t-37 83v20q0 67 74 118q-26 8 -37 23t-11 42v18q0 29 15.5 46.5t52.5 40.5q-42 33 -42 106v26q0 80 48 111.5t157 31.5h26q70 0 109 -12h152zM453 354v28
q0 53 -30 73t-93 20h-25q-70 0 -102.5 -20t-32.5 -73v-28q0 -53 32.5 -72.5t102.5 -19.5h21q65 0 96 19t31 73zM415 66h-189q-36 0 -60 3q-57 -43 -57 -88v-17q0 -44 22 -59.5t90 -15.5h128q76 0 112 19t36 66v18q0 45 -16.5 59.5t-65.5 14.5z" />
    <glyph glyph-name="Gdotaccent" unicode="&#x120;" horiz-adv-x="697" 
d="M350 779q-19 0 -32 11.5t-13 29.5t13 29.5t32 11.5t32 -11.5t13 -29.5t-13 -29.5t-32 -11.5zM629 346v-163q0 -92 -68 -142.5t-160 -50.5h-85q-246 0 -246 228v237q0 121 65.5 187.5t184.5 66.5h36q141 0 252 -40v-169h-65l-11 115q-60 23 -205 23q-84 0 -131 -48
t-47 -135v-242q0 -76 45 -114t129 -38h80q68 0 110.5 34.5t43.5 93.5v91q-158 5 -231 9v57h303z" />
    <glyph glyph-name="gdotaccent" unicode="&#x121;" horiz-adv-x="626" 
d="M311 614q-19 0 -32 11t-13 29t13 30t32 12t32 -12t13 -30t-13 -29t-32 -11zM588 512v-47q-16 -1 -34.5 -3t-30 -3t-23.5 -2q25 -25 25 -77v-33q0 -78 -46 -109.5t-144 -31.5h-44q-81 0 -118 23q-35 -22 -40 -32q-4 -8 -4 -20v-13q0 -23 19.5 -31t73.5 -8h206
q77 0 106.5 -25.5t29.5 -93.5v-26q0 -78 -56.5 -111.5t-165.5 -33.5h-114q-110 0 -147 23t-37 83v20q0 67 74 118q-26 8 -37 23t-11 42v18q0 29 15.5 46.5t52.5 40.5q-42 33 -42 106v26q0 80 48 111.5t157 31.5h26q70 0 109 -12h152zM453 354v28q0 53 -30 73t-93 20h-25
q-70 0 -102.5 -20t-32.5 -73v-28q0 -53 32.5 -72.5t102.5 -19.5h21q65 0 96 19t31 73zM415 66h-189q-36 0 -60 3q-57 -43 -57 -88v-17q0 -44 22 -59.5t90 -15.5h128q76 0 112 19t36 66v18q0 45 -16.5 59.5t-65.5 14.5z" />
    <glyph glyph-name="Gcommaaccent" unicode="&#x122;" horiz-adv-x="697" 
d="M629 346v-163q0 -92 -68 -142.5t-160 -50.5h-85q-246 0 -246 228v237q0 121 65.5 187.5t184.5 66.5h36q141 0 252 -40v-169h-65l-11 115q-60 23 -205 23q-84 0 -131 -48t-47 -135v-242q0 -76 45 -114t129 -38h80q68 0 110.5 34.5t43.5 93.5v91q-158 5 -231 9v57h303z
M320 -108l4 32q3 26 32 20q21 -3 29 -9.5t8 -21.5q0 -34 -22 -66q-23 -35 -46 -56l-16 12q34 43 36 80z" />
    <glyph glyph-name="gcommaaccent" unicode="&#x123;" horiz-adv-x="626" 
d="M340 653l-4 -31q-2 -26 -31 -19q-20 3 -28 9t-8 21q0 33 22 64q19 31 45 55l15 -12q-33 -42 -35 -78zM588 512v-47q-16 -1 -34.5 -3t-30 -3t-23.5 -2q25 -25 25 -77v-33q0 -78 -46 -109.5t-144 -31.5h-44q-81 0 -118 23q-35 -22 -40 -32q-4 -8 -4 -20v-13q0 -23 19.5 -31
t73.5 -8h206q77 0 106.5 -25.5t29.5 -93.5v-26q0 -78 -56.5 -111.5t-165.5 -33.5h-114q-110 0 -147 23t-37 83v20q0 67 74 118q-26 8 -37 23t-11 42v18q0 29 15.5 46.5t52.5 40.5q-42 33 -42 106v26q0 80 48 111.5t157 31.5h26q70 0 109 -12h152zM453 354v28q0 53 -30 73
t-93 20h-25q-70 0 -102.5 -20t-32.5 -73v-28q0 -53 32.5 -72.5t102.5 -19.5h21q65 0 96 19t31 73zM415 66h-189q-36 0 -60 3q-57 -43 -57 -88v-17q0 -44 22 -59.5t90 -15.5h128q76 0 112 19t36 66v18q0 45 -16.5 59.5t-65.5 14.5z" />
    <glyph glyph-name="Hbar" unicode="&#x126;" horiz-adv-x="792" 
d="M751 700v-57q-61 -4 -87 -5v-134h71v-24h-71v-418q26 -1 87 -5v-57h-244v57q24 2 77 4v260h-374v-260q50 -2 74 -4v-57h-243v57q63 4 90 5v418h-75v24h75v134q-26 1 -90 5v57h243v-57q-24 -2 -74 -4v-135h374v135q-53 2 -77 4v57h244zM584 480h-374v-92h374v92z" />
    <glyph glyph-name="hbar" unicode="&#x127;" horiz-adv-x="669" 
d="M560 388v-328q20 -2 83 -6v-54h-159v350q0 68 -15 89t-66 21h-12q-79 0 -196 -87v-314q14 -1 76 -5v-54h-228v54q62 4 76 5v507h-77v47h77v95h76v-95h112v-47h-112v-145q65 49 119 76t112 27h11q67 0 95 -30t28 -106z" />
    <glyph glyph-name="Imacron" unicode="&#x12a;" horiz-adv-x="330" 
d="M293 822v-49h-254v49h254zM290 700v-57q-60 -4 -84 -5v-576q24 -1 84 -5v-57h-248v57q63 4 85 5v576q-28 1 -86 5v57h249z" />
    <glyph glyph-name="imacron" unicode="&#x12b;" horiz-adv-x="297" 
d="M274 656v-48h-242v48h242zM195 512v-453q14 -1 76 -5v-54h-228v54q62 4 76 5v394q-25 1 -70 5v54h146z" />
    <glyph glyph-name="Iogonek" unicode="&#x12e;" horiz-adv-x="330" 
d="M290 700v-57q-60 -4 -84 -5v-576q24 -1 84 -5v-57h-74q-3 -2 -11 -7t-11 -7t-10 -7t-10 -7.5t-8.5 -7t-8 -7.5t-6 -7t-5.5 -8t-3 -8.5t-1 -8.5v-5q0 -38 51 -38q40 0 76 20l13 -24q-49 -37 -96 -37h-11q-81 0 -81 67v10q0 47 83 82h-135v57q63 4 85 5v576q-28 1 -86 5v57
h249z" />
    <glyph glyph-name="iogonek" unicode="&#x12f;" horiz-adv-x="297" 
d="M154 614q-19 0 -32 11t-13 29t13 30t32 12t32 -12t13 -30t-13 -29t-32 -11zM271 0h-70q-3 -2 -11 -7t-11 -7t-10 -7t-10 -7.5t-8.5 -7t-8 -7.5t-6 -7t-5.5 -8t-3 -8.5t-1 -8.5v-5q0 -38 51 -38q40 0 76 20l13 -24q-49 -37 -96 -37h-11q-81 0 -81 67v10q0 47 83 82h-119
v54q62 4 76 5v394q-25 1 -70 5v54h146v-453q14 -1 76 -5v-54z" />
    <glyph glyph-name="Idotaccent" unicode="&#x130;" horiz-adv-x="330" 
d="M166 779q-19 0 -32 11.5t-13 29.5t13 29.5t32 11.5t32 -11.5t13 -29.5t-13 -29.5t-32 -11.5zM290 700v-57q-60 -4 -84 -5v-576q24 -1 84 -5v-57h-248v57q63 4 85 5v576q-28 1 -86 5v57h249z" />
    <glyph glyph-name="dotlessi" unicode="&#x131;" horiz-adv-x="297" 
d="M195 512v-453q14 -1 76 -5v-54h-228v54q62 4 76 5v394q-25 1 -70 5v54h146z" />
    <glyph glyph-name="IJ" unicode="&#x132;" horiz-adv-x="646" 
d="M290 700v-57q-60 -4 -84 -5v-576q24 -1 84 -5v-57h-248v57q63 4 85 5v576q-28 1 -86 5v57h249zM612 700v-57q-60 -4 -83 -5v-526q0 -85 -17 -127t-72 -93q-17 -15 -57 -42l-35 35q19 19 33 35q39 43 53.5 81.5t14.5 110.5v526q-24 1 -86 5v57h249z" />
    <glyph glyph-name="ij" unicode="&#x133;" horiz-adv-x="559" 
d="M155 611q-21 0 -34.5 12t-13.5 31q0 20 13.5 32t34.5 12q20 0 33.5 -12t13.5 -32q0 -19 -13.5 -31t-33.5 -12zM439 698q21 0 34 -12t13 -32q0 -19 -13 -31t-34 -12t-34.5 12t-13.5 31q0 20 13.5 32t34.5 12zM195 512v-453q14 -1 76 -5v-54h-228v54q62 4 76 5v394
q-25 1 -70 5v54h146zM481 512v-435q0 -62 -17 -95.5t-72 -85.5q-28 -24 -57 -44l-32 35q4 4 14.5 15t18.5 20q40 43 54.5 74t14.5 82v375q-24 1 -72 5v54h148z" />
    <glyph glyph-name="Kcommaaccent" unicode="&#x136;" horiz-adv-x="751" 
d="M290 700v-57q-60 -4 -84 -5v-250h165l181 251q-48 2 -74 4v57h241v-57q-29 -2 -83 -4l-199 -280l202 -297q25 -1 91 -5v-57h-251v57q46 2 71 2l-174 261h-170v-258q24 -1 84 -5v-57h-248v57q63 4 85 5v576q-28 1 -86 5v57h249zM336 -108l4 32q3 26 32 20q21 -3 29 -9.5
t8 -21.5q0 -34 -22 -66q-23 -35 -46 -56l-16 12q34 43 36 80z" />
    <glyph glyph-name="kcommaaccent" unicode="&#x137;" horiz-adv-x="630" 
d="M195 306h141l110 149q-11 0 -34 1.5t-32 1.5v54h220v-54q-67 -5 -72 -5l-136 -176l144 -219q62 -5 66 -5v-53h-146v53l-122 191h-139v-185q14 -1 76 -5v-54h-228v54q62 4 76 5v582q-25 1 -70 5v54h146v-394zM288 -108l4 32q3 26 32 20q21 -3 29 -9.5t8 -21.5
q0 -34 -22 -66q-23 -35 -46 -56l-16 12q34 43 36 80z" />
    <glyph glyph-name="Lacute" unicode="&#x139;" horiz-adv-x="624" 
d="M267 869l-1 -12l-125 -109l-33 22l99 128zM42 0v57q26 2 54 3.5t31 1.5v576q-27 1 -86 5v57h258v-57q-47 -5 -93 -6v-573h308l10 124h54v-188h-536z" />
    <glyph glyph-name="lacute" unicode="&#x13a;" horiz-adv-x="308" 
d="M240 890l-1 -12l-122 -107l-32 21l97 126zM195 700v-641q14 -1 76 -5v-54h-228v54q62 4 76 5v582q-25 1 -70 5v54h146z" />
    <glyph glyph-name="Lcommaaccent" unicode="&#x13b;" horiz-adv-x="624" 
d="M42 0v57q26 2 54 3.5t31 1.5v576q-27 1 -86 5v57h258v-57q-47 -5 -93 -6v-573h308l10 124h54v-188h-536zM273 -108l4 32q3 26 32 20q21 -3 29 -9.5t8 -21.5q0 -34 -22 -66q-23 -35 -46 -56l-16 12q34 43 36 80z" />
    <glyph glyph-name="lcommaaccent" unicode="&#x13c;" horiz-adv-x="308" 
d="M195 700v-641q14 -1 76 -5v-54h-228v54q62 4 76 5v582q-25 1 -70 5v54h146zM120 -108l4 32q3 26 32 20q21 -3 29 -9.5t8 -21.5q0 -34 -22 -66q-23 -35 -46 -56l-16 12q34 43 36 80z" />
    <glyph glyph-name="Lcaron" unicode="&#x13d;" horiz-adv-x="624" 
d="M42 0v57q26 2 54 3.5t31 1.5v576q-27 1 -86 5v57h258v-57q-47 -5 -93 -6v-573h308l10 124h54v-188h-536zM452 700v-17l-42 -143h-41l22 160h61z" />
    <glyph glyph-name="lcaron" unicode="&#x13e;" horiz-adv-x="308" 
d="M319 701v-17l-42 -143h-41l22 160h61zM195 700v-641q14 -1 76 -5v-54h-228v54q62 4 76 5v582q-25 1 -70 5v54h146z" />
    <glyph glyph-name="Ldot" unicode="&#x13f;" horiz-adv-x="624" 
d="M42 0v57q26 2 54 3.5t31 1.5v576q-27 1 -86 5v57h258v-57q-47 -5 -93 -6v-573h308l10 124h54v-188h-536zM423 334q-18 0 -31 11t-13 28q0 18 12.5 29.5t31.5 11.5t31.5 -11.5t12.5 -29.5q0 -17 -12.5 -28t-31.5 -11z" />
    <glyph glyph-name="ldot" unicode="&#x140;" horiz-adv-x="308" 
d="M195 700v-641q14 -1 76 -5v-54h-228v54q62 4 76 5v582q-25 1 -70 5v54h146zM302 323q-49 0 -49 45q0 46 49 46t49 -46q0 -45 -49 -45z" />
    <glyph glyph-name="Lslash" unicode="&#x141;" horiz-adv-x="630" 
d="M584 188v-188h-536v57q26 2 54 3.5t31 1.5v226l-102 -41v51l102 41v299q-27 1 -86 5v57h258v-57q-47 -5 -93 -6v-266l179 72v-51l-179 -72v-256h308l10 124h54z" />
    <glyph glyph-name="lslash" unicode="&#x142;" horiz-adv-x="308" 
d="M195 366v-307q14 -1 76 -5v-54h-228v54q62 4 76 5v276l-72 -29v51l72 29v255q-25 1 -70 5v54h146v-283l73 29v-50z" />
    <glyph glyph-name="Nacute" unicode="&#x143;" horiz-adv-x="786" 
d="M491 869l-1 -12l-125 -109l-33 22l99 128zM745 700v-57q-61 -4 -87 -5v-638h-87l-369 574v-513q48 -2 74 -4v-57h-234v57q64 4 89 5v575l-90 6v57h167l379 -580v519q-50 2 -78 4v57h236z" />
    <glyph glyph-name="nacute" unicode="&#x144;" horiz-adv-x="669" 
d="M422 703l-1 -12l-122 -107l-32 21l97 126zM560 388v-328q21 -2 83 -6v-54h-159v350q0 68 -15 89t-66 21h-12q-79 0 -196 -87v-314q14 -1 76 -5v-54h-228v54q62 4 76 5v394q-25 1 -70 5v54h146v-91q65 49 119 76t112 27h11q67 0 95 -30t28 -106z" />
    <glyph glyph-name="Ncommaaccent" unicode="&#x145;" horiz-adv-x="786" 
d="M745 700v-57q-61 -4 -87 -5v-638h-87l-369 574v-513q48 -2 74 -4v-57h-234v57q64 4 89 5v575l-90 6v57h167l379 -580v519q-50 2 -78 4v57h236zM362 -108l4 32q3 26 32 20q21 -3 29 -9.5t8 -21.5q0 -34 -22 -66q-23 -35 -46 -56l-16 12q34 43 36 80z" />
    <glyph glyph-name="ncommaaccent" unicode="&#x146;" horiz-adv-x="669" 
d="M560 388v-328q21 -2 83 -6v-54h-159v350q0 68 -15 89t-66 21h-12q-79 0 -196 -87v-314q14 -1 76 -5v-54h-228v54q62 4 76 5v394q-25 1 -70 5v54h146v-91q65 49 119 76t112 27h11q67 0 95 -30t28 -106zM309 -108l4 32q3 26 32 20q21 -3 29 -9.5t8 -21.5q0 -34 -22 -66
q-23 -35 -46 -56l-16 12q34 43 36 80z" />
    <glyph glyph-name="Ncaron" unicode="&#x147;" horiz-adv-x="786" 
d="M415 754h-46l-112 114l24 20l111 -88l111 88l24 -20zM745 700v-57q-61 -4 -87 -5v-638h-87l-369 574v-513q48 -2 74 -4v-57h-234v57q64 4 89 5v575l-90 6v57h167l379 -580v519q-50 2 -78 4v57h236z" />
    <glyph glyph-name="ncaron" unicode="&#x148;" horiz-adv-x="669" 
d="M363 588h-46l-112 114l24 20l111 -88l111 88l24 -20zM560 388v-328q21 -2 83 -6v-54h-159v350q0 68 -15 89t-66 21h-12q-79 0 -196 -87v-314q14 -1 76 -5v-54h-228v54q62 4 76 5v394q-25 1 -70 5v54h146v-91q65 49 119 76t112 27h11q67 0 95 -30t28 -106z" />
    <glyph glyph-name="Omacron" unicode="&#x14c;" horiz-adv-x="716" 
d="M485 822v-49h-254v49h254zM401 -10h-84q-117 0 -182 65.5t-66 178.5v228q0 115 65.5 181t182.5 66h84q116 0 181 -66t65 -181v-227q0 -113 -65.5 -179t-180.5 -66zM321 62h73q81 0 127 44.5t47 125.5v234q0 82 -46 127t-128 45h-73q-81 0 -127 -46t-46 -126v-234
q0 -81 45.5 -125.5t127.5 -44.5z" />
    <glyph glyph-name="omacron" unicode="&#x14d;" horiz-adv-x="587" 
d="M413 656v-48h-242v48h242zM321 -10h-52q-108 0 -160 50.5t-52 153.5v124q0 105 51.5 155.5t160.5 50.5h52q107 0 158 -50.5t51 -155.5v-124q0 -103 -51.5 -153.5t-157.5 -50.5zM267 48h52q135 0 135 128v161q0 129 -135 129h-52q-134 0 -134 -129v-161q0 -128 134 -128z
" />
    <glyph glyph-name="Ohungarumlaut" unicode="&#x150;" horiz-adv-x="716" 
d="M409 875l-1 -11l-114 -112l-29 20l97 126zM530 875l-1 -11l-114 -112l-29 20l97 126zM401 -10h-84q-117 0 -182 65.5t-66 178.5v228q0 115 65.5 181t182.5 66h84q116 0 181 -66t65 -181v-227q0 -113 -65.5 -179t-180.5 -66zM321 62h73q81 0 127 44.5t47 125.5v234
q0 82 -46 127t-128 45h-73q-81 0 -127 -46t-46 -126v-234q0 -81 45.5 -125.5t127.5 -44.5z" />
    <glyph glyph-name="ohungarumlaut" unicode="&#x151;" horiz-adv-x="587" 
d="M347 709l-1 -11l-112 -111l-28 20l95 124zM465 709l-1 -11l-112 -111l-28 20l96 124zM321 -10h-52q-108 0 -160 50.5t-52 153.5v124q0 105 51.5 155.5t160.5 50.5h52q107 0 158 -50.5t51 -155.5v-124q0 -103 -51.5 -153.5t-157.5 -50.5zM267 48h52q135 0 135 128v161
q0 129 -135 129h-52q-134 0 -134 -129v-161q0 -128 134 -128z" />
    <glyph glyph-name="OE" unicode="&#x152;" horiz-adv-x="1006" 
d="M567 390h221v-69h-221v-257h311l10 111h51v-175h-624q-244 0 -246 220v258q0 222 246 222h613v-175h-51l-10 111h-300v-246zM488 635h-169q-171 0 -171 -154v-263q0 -153 171 -153h169v570z" />
    <glyph glyph-name="oe" unicode="&#x153;" horiz-adv-x="961" 
d="M530 222v-48q0 -127 134 -127h43q93 0 122 59l4 13h58v-50q-28 -39 -77.5 -59t-106.5 -20h-40q-125 0 -175 66q-50 -66 -171 -66h-52q-108 0 -160 50.5t-52 153.5v124q0 105 51.5 155.5t160.5 50.5h52q123 0 174 -69q53 69 175 69h33q203 0 203 -191v-111h-376zM530 276
h307v68q0 62 -35.5 94t-100.5 32h-31q-66 0 -103 -34.5t-37 -98.5v-61zM454 176v161q0 129 -135 129h-52q-134 0 -134 -129v-161q0 -128 134 -128h52q135 0 135 128z" />
    <glyph glyph-name="Racute" unicode="&#x154;" horiz-adv-x="691" 
d="M439 869l-1 -12l-125 -109l-33 22l99 128zM41 700h352q105 0 160 -48.5t55 -143.5v-48q0 -134 -134 -175q55 -92 112 -223l85 -5v-57h-170v61q-52 132 -100 212h-191v-213l78 -3v-57h-246v57q61 4 89 5v576q-76 4 -90 5v57zM210 342h182q67 0 104.5 33.5t37.5 90.5v36
q0 63 -36.5 97.5t-105.5 34.5h-182v-292z" />
    <glyph glyph-name="racute" unicode="&#x155;" horiz-adv-x="435" 
d="M291 703l-1 -12l-122 -107l-32 21l97 126zM195 512v-98q43 55 82 79t92 24h41v-70l-62 -3q-45 0 -81 -18t-72 -63v-304q11 0 23 -1t29 -2t28 -2v-54h-232v54q62 4 76 5v394q-25 1 -70 5v54h146z" />
    <glyph glyph-name="Rcommaaccent" unicode="&#x156;" horiz-adv-x="691" 
d="M41 700h352q105 0 160 -48.5t55 -143.5v-48q0 -134 -134 -175q55 -92 112 -223l85 -5v-57h-170v61q-52 132 -100 212h-191v-213l78 -3v-57h-246v57q61 4 89 5v576q-76 4 -90 5v57zM210 342h182q67 0 104.5 33.5t37.5 90.5v36q0 63 -36.5 97.5t-105.5 34.5h-182v-292z
M325 -108l4 32q3 26 32 20q21 -3 29 -9.5t8 -21.5q0 -34 -22 -66q-23 -35 -46 -56l-16 12q34 43 36 80z" />
    <glyph glyph-name="rcommaaccent" unicode="&#x157;" horiz-adv-x="435" 
d="M195 512v-98q43 55 82 79t92 24h41v-70l-62 -3q-45 0 -81 -18t-72 -63v-304q11 0 23 -1t29 -2t28 -2v-54h-232v54q62 4 76 5v394q-25 1 -70 5v54h146zM116 -108l4 32q3 26 32 20q21 -3 29 -9.5t8 -21.5q0 -34 -22 -66q-23 -35 -46 -56l-16 12q34 43 36 80z" />
    <glyph glyph-name="Rcaron" unicode="&#x158;" horiz-adv-x="691" 
d="M364 754h-46l-112 114l24 20l111 -88l111 88l24 -20zM41 700h352q105 0 160 -48.5t55 -143.5v-48q0 -134 -134 -175q55 -92 112 -223l85 -5v-57h-170v61q-52 132 -100 212h-191v-213l78 -3v-57h-246v57q61 4 89 5v576q-76 4 -90 5v57zM210 342h182q67 0 104.5 33.5
t37.5 90.5v36q0 63 -36.5 97.5t-105.5 34.5h-182v-292z" />
    <glyph glyph-name="rcaron" unicode="&#x159;" horiz-adv-x="435" 
d="M231 588h-46l-112 114l24 20l111 -88l111 88l24 -20zM195 512v-98q43 55 82 79t92 24h41v-70l-62 -3q-45 0 -81 -18t-72 -63v-304q11 0 23 -1t29 -2t28 -2v-54h-232v54q62 4 76 5v394q-25 1 -70 5v54h146z" />
    <glyph glyph-name="Sacute" unicode="&#x15a;" horiz-adv-x="650" 
d="M424 869l-1 -12l-125 -109l-33 22l99 128zM137 205l11 -112q76 -38 184 -38h13q88 0 122 25.5t34 91.5v31q0 51 -21.5 75t-80.5 38l-202 46q-73 19 -100 53t-27 105v14q0 93 54 134t177 41h21q123 0 238 -47v-161h-61l-12 113q-67 32 -164 32h-20q-82 0 -116.5 -25
t-34.5 -84v-12q0 -42 17 -64t61 -32l218 -50q74 -18 103 -54t29 -110v-43q0 -98 -52.5 -139t-178.5 -41h-26q-73 0 -129 13t-121 44v156h64z" />
    <glyph glyph-name="sacute" unicode="&#x15b;" horiz-adv-x="535" 
d="M347 703l-1 -12l-122 -107l-32 21l97 126zM59 379v18q0 127 191 127h16q42 0 100 -9.5t99 -28.5v-110h-61l-7 71q-53 25 -136 25q-69 0 -101 -18.5t-32 -58.5v-8q0 -40 25 -53t119 -32q19 -4 29 -6q103 -20 139 -45.5t36 -87.5v-23q0 -79 -45 -114.5t-138 -35.5h-39
q-149 0 -195 60v102h58l4 -62q27 -45 132 -45h34q61 0 89 22t28 73v14q0 42 -30 57t-137 35t-142.5 46.5t-35.5 86.5z" />
    <glyph glyph-name="Scedilla" unicode="&#x15e;" horiz-adv-x="650" 
d="M230 429l218 -50q74 -18 103 -54t29 -110v-43q0 -98 -52.5 -139t-178.5 -41h-26h-17l-4 -30h41q37 0 53.5 -14t16.5 -46v-9q0 -64 -76 -65q-44 0 -98 9v24h98q37 0 37 34v4q0 18 -8.5 26t-30.5 8h-73l15 60q-101 7 -204 56v156h64l11 -112q76 -38 184 -38h13
q88 0 122 25.5t34 91.5v31q0 51 -21.5 75t-80.5 38l-202 46q-73 19 -100 53t-27 105v14q0 93 54 134t177 41h21q123 0 238 -47v-161h-61l-12 113q-67 32 -164 32h-20q-82 0 -116.5 -25t-34.5 -84v-12q0 -42 17 -64t61 -32z" />
    <glyph glyph-name="scedilla" unicode="&#x15f;" horiz-adv-x="535" 
d="M128 395v-8q0 -40 25 -53t119 -32q19 -4 29 -6q103 -20 139 -45.5t36 -87.5v-23q0 -79 -45 -114.5t-138 -35.5h-39h-6l-4 -28h41q37 0 53.5 -14t16.5 -46v-9q0 -64 -76 -65q-44 0 -98 9v24h98q37 0 37 34v4q0 18 -8.5 26t-30.5 8h-73l15 58q-120 7 -160 59v102h58l4 -62
q27 -45 132 -45h34q61 0 89 22t28 73v14q0 42 -30 57t-137 35t-142.5 46.5t-35.5 86.5v18q0 127 191 127h16q42 0 100 -9.5t99 -28.5v-110h-61l-7 71q-53 25 -136 25q-69 0 -101 -18.5t-32 -58.5z" />
    <glyph glyph-name="Scaron" unicode="&#x160;" horiz-adv-x="650" 
d="M348 754h-46l-112 114l24 20l111 -88l111 88l24 -20zM137 205l11 -112q76 -38 184 -38h13q88 0 122 25.5t34 91.5v31q0 51 -21.5 75t-80.5 38l-202 46q-73 19 -100 53t-27 105v14q0 93 54 134t177 41h21q123 0 238 -47v-161h-61l-12 113q-67 32 -164 32h-20
q-82 0 -116.5 -25t-34.5 -84v-12q0 -42 17 -64t61 -32l218 -50q74 -18 103 -54t29 -110v-43q0 -98 -52.5 -139t-178.5 -41h-26q-73 0 -129 13t-121 44v156h64z" />
    <glyph glyph-name="scaron" unicode="&#x161;" horiz-adv-x="535" 
d="M291 588h-46l-112 114l24 20l111 -88l111 88l24 -20zM59 379v18q0 127 191 127h16q42 0 100 -9.5t99 -28.5v-110h-61l-7 71q-53 25 -136 25q-69 0 -101 -18.5t-32 -58.5v-8q0 -40 25 -53t119 -32q19 -4 29 -6q103 -20 139 -45.5t36 -87.5v-23q0 -79 -45 -114.5
t-138 -35.5h-39q-149 0 -195 60v102h58l4 -62q27 -45 132 -45h34q61 0 89 22t28 73v14q0 42 -30 57t-137 35t-142.5 46.5t-35.5 86.5z" />
    <glyph glyph-name="Tcaron" unicode="&#x164;" horiz-adv-x="684" 
d="M365 754h-46l-112 114l24 20l111 -88l111 88l24 -20zM591 520l-7 114h-201v-572q31 -1 87 -5v-57h-255v57q55 4 89 5v572h-204l-6 -114h-56v180h608v-180h-55z" />
    <glyph glyph-name="tcaron" unicode="&#x165;" horiz-adv-x="388" 
d="M343 727v-17l-42 -143h-41l22 160h61zM241 55h9q59 0 95 3v-45q-64 -23 -129 -23h-10q-58 0 -83 31.5t-25 105.5v327h-68v58h54q12 0 15.5 4.5t3.5 16.5v128q45 6 71 7v-156h153v-58h-153v-294q0 -63 13.5 -84t53.5 -21z" />
    <glyph glyph-name="Umacron" unicode="&#x16a;" horiz-adv-x="768" 
d="M515 822v-49h-254v49h254zM729 700v-57q-12 -1 -37.5 -2.5t-38.5 -2.5v-418q0 -230 -232 -230h-64q-235 0 -235 230v418q-23 1 -83 5v57h251v-57q-65 -4 -88 -5v-424q0 -76 40.5 -117t118.5 -41h59q77 0 118 41t41 117v425q-56 2 -84 4v57h234z" />
    <glyph glyph-name="umacron" unicode="&#x16b;" horiz-adv-x="668" 
d="M454 656v-48h-242v48h242zM564 512v-453q61 -4 78 -5v-54h-154v99q-43 -31 -73 -49t-73.5 -34t-83.5 -16h-12q-69 0 -95.5 28t-26.5 108v317q-5 0 -14 1t-29.5 2t-39.5 2v54h159v-338q0 -68 15 -88.5t65 -20.5h12q78 0 196 86v302l-83 5v54h159z" />
    <glyph glyph-name="Uring" unicode="&#x16e;" horiz-adv-x="768" 
d="M398 745h-20q-32 0 -51.5 18.5t-19.5 50.5v19q0 32 19 50t52 18h20q32 0 51 -18.5t19 -49.5v-19q0 -32 -19 -50.5t-51 -18.5zM380 777h15q37 0 39 38v17q0 18 -10.5 28.5t-28.5 10.5h-15q-18 0 -28.5 -10.5t-10.5 -28.5v-17q0 -18 10.5 -28t28.5 -10zM729 700v-57
q-12 -1 -37.5 -2.5t-38.5 -2.5v-418q0 -230 -232 -230h-64q-235 0 -235 230v418q-23 1 -83 5v57h251v-57q-65 -4 -88 -5v-424q0 -76 40.5 -117t118.5 -41h59q77 0 118 41t41 117v425q-56 2 -84 4v57h234z" />
    <glyph glyph-name="uring" unicode="&#x16f;" horiz-adv-x="668" 
d="M345 585h-20q-31 0 -49 18t-18 49v17q0 31 18 49t49 18h20q31 0 49 -18t18 -49v-17q0 -31 -18 -49t-49 -18zM327 615h15q36 0 38 38v16q0 18 -10.5 28t-27.5 10h-15q-17 0 -27.5 -10t-10.5 -28v-16q0 -18 10.5 -28t27.5 -10zM564 512v-453q61 -4 78 -5v-54h-154v99
q-43 -31 -73 -49t-73.5 -34t-83.5 -16h-12q-69 0 -95.5 28t-26.5 108v317q-5 0 -14 1t-29.5 2t-39.5 2v54h159v-338q0 -68 15 -88.5t65 -20.5h12q78 0 196 86v302l-83 5v54h159z" />
    <glyph glyph-name="Uhungarumlaut" unicode="&#x170;" horiz-adv-x="768" 
d="M439 875l-1 -11l-114 -112l-29 20l97 126zM560 875l-1 -11l-114 -112l-29 20l97 126zM729 700v-57q-12 -1 -37.5 -2.5t-38.5 -2.5v-418q0 -230 -232 -230h-64q-235 0 -235 230v418q-23 1 -83 5v57h251v-57q-65 -4 -88 -5v-424q0 -76 40.5 -117t118.5 -41h59q77 0 118 41
t41 117v425q-56 2 -84 4v57h234z" />
    <glyph glyph-name="uhungarumlaut" unicode="&#x171;" horiz-adv-x="668" 
d="M388 709l-1 -11l-112 -111l-28 20l95 124zM506 709l-1 -11l-112 -111l-28 20l96 124zM564 512v-453q61 -4 78 -5v-54h-154v99q-43 -31 -73 -49t-73.5 -34t-83.5 -16h-12q-69 0 -95.5 28t-26.5 108v317q-5 0 -14 1t-29.5 2t-39.5 2v54h159v-338q0 -68 15 -88.5t65 -20.5
h12q78 0 196 86v302l-83 5v54h159z" />
    <glyph glyph-name="Uogonek" unicode="&#x172;" horiz-adv-x="768" 
d="M729 700v-57q-12 -1 -37.5 -2.5t-38.5 -2.5v-418q0 -230 -232 -230h-9q-58 -37 -58 -65v-5q0 -38 51 -38q40 0 76 20l13 -24q-49 -37 -96 -37h-11q-81 0 -81 67v10q0 42 61 72h-10q-235 0 -235 230v418q-23 1 -83 5v57h251v-57q-65 -4 -88 -5v-424q0 -76 40.5 -117
t118.5 -41h59q77 0 118 41t41 117v425q-56 2 -84 4v57h234z" />
    <glyph glyph-name="uogonek" unicode="&#x173;" horiz-adv-x="668" 
d="M642 0h-85q-3 -2 -11 -7t-11 -7t-10 -7t-10 -7.5t-8.5 -7t-8 -7.5t-6 -7t-5.5 -8t-3 -8.5t-1 -8.5v-5q0 -38 51 -38q40 0 76 20l13 -24q-49 -37 -96 -37h-11q-81 0 -81 67v10q0 47 83 82h-30v99q-43 -31 -73 -49t-73.5 -34t-83.5 -16h-12q-69 0 -95.5 28t-26.5 108v317
q-5 0 -14 1t-29.5 2t-39.5 2v54h159v-338q0 -68 15 -88.5t65 -20.5h12q78 0 196 86v302l-83 5v54h159v-453q61 -4 78 -5v-54z" />
    <glyph glyph-name="Wcircumflex" unicode="&#x174;" horiz-adv-x="1019" 
d="M627 753l-112 89l-113 -89l-25 21l114 116h48l113 -116zM1001 700v-57q-52 -4 -73 -4l-171 -639h-103l-140 561h-3l-140 -561h-111l-170 639q-48 2 -72 4v57h247v-57q-27 -2 -90 -4l141 -550h6l156 611h70l158 -610h5l145 549q-65 2 -91 4v57h236z" />
    <glyph glyph-name="wcircumflex" unicode="&#x175;" horiz-adv-x="875" 
d="M549 589l-111 88l-111 -88l-24 20l112 114h46l112 -114zM857 512v-54q-27 -2 -73 -4l-133 -454h-90l-127 393l-129 -393h-87l-133 454q-42 2 -68 4v54h214v-54q-16 -1 -41 -2.5t-34 -1.5l107 -380h2l139 438h62l142 -438h1l109 380q-49 2 -75 4v54h214z" />
    <glyph glyph-name="Ycircumflex" unicode="&#x176;" horiz-adv-x="707" 
d="M468 753l-112 89l-113 -89l-25 21l114 116h48l113 -116zM261 643l-76 -3l170 -325h2l170 324q-52 2 -79 4v57h238v-57q-58 -4 -80 -5l-214 -386v-190q23 -1 83 -5v-57h-248v57q63 4 85 5v187l-214 389q-21 1 -77 5v57h240v-57z" />
    <glyph glyph-name="ycircumflex" unicode="&#x177;" horiz-adv-x="652" 
d="M437 589l-111 88l-111 -88l-24 20l112 114h46l112 -114zM636 512v-54q-17 -2 -45.5 -3.5t-35.5 -2.5l-235 -545q30 0 64 -3v-53h-238v53q45 4 98 4l36 82l-197 464q-42 2 -67 4v54h234v-54q-36 -2 -86 -4l155 -382h2l165 382q-44 2 -71 4v54h221z" />
    <glyph glyph-name="Ydieresis" unicode="&#x178;" horiz-adv-x="707" 
d="M264 780q-19 0 -31.5 11t-12.5 29t12.5 29t31.5 11q18 0 30.5 -11t12.5 -29t-12.5 -29t-30.5 -11zM448 780q-18 0 -30.5 11t-12.5 29t12.5 29t30.5 11q19 0 31.5 -11t12.5 -29t-12.5 -29t-31.5 -11zM261 643l-76 -3l170 -325h2l170 324q-52 2 -79 4v57h238v-57
q-58 -4 -80 -5l-214 -386v-190q23 -1 83 -5v-57h-248v57q63 4 85 5v187l-214 389q-21 1 -77 5v57h240v-57z" />
    <glyph glyph-name="Zacute" unicode="&#x179;" horiz-adv-x="628" 
d="M417 869l-1 -12l-125 -109l-33 22l99 128zM579 644l-423 -582h355l11 124h56v-186h-524v48q0 12 10 26l420 564h-364l-10 -118h-56v180h525v-56z" />
    <glyph glyph-name="zacute" unicode="&#x17a;" horiz-adv-x="552" 
d="M373 703l-1 -12l-122 -107l-32 21l97 126zM499 457l-361 -399h307l16 102h43l-5 -160h-458v46q0 16 15 29l353 381h-297l-9 -100h-44l2 156h438v-55z" />
    <glyph glyph-name="Zdotaccent" unicode="&#x17b;" horiz-adv-x="628" 
d="M318 779q-19 0 -32 11.5t-13 29.5t13 29.5t32 11.5t32 -11.5t13 -29.5t-13 -29.5t-32 -11.5zM579 644l-423 -582h355l11 124h56v-186h-524v48q0 12 10 26l420 564h-364l-10 -118h-56v180h525v-56z" />
    <glyph glyph-name="zdotaccent" unicode="&#x17c;" horiz-adv-x="552" 
d="M282 614q-19 0 -32 11t-13 29t13 30t32 12t32 -12t13 -30t-13 -29t-32 -11zM499 457l-361 -399h307l16 102h43l-5 -160h-458v46q0 16 15 29l353 381h-297l-9 -100h-44l2 156h438v-55z" />
    <glyph glyph-name="Zcaron" unicode="&#x17d;" horiz-adv-x="628" 
d="M341 754h-46l-112 114l24 20l111 -88l111 88l24 -20zM579 644l-423 -582h355l11 124h56v-186h-524v48q0 12 10 26l420 564h-364l-10 -118h-56v180h525v-56z" />
    <glyph glyph-name="zcaron" unicode="&#x17e;" horiz-adv-x="552" 
d="M305 588h-46l-112 114l24 20l111 -88l111 88l24 -20zM499 457l-361 -399h307l16 102h43l-5 -160h-458v46q0 16 15 29l353 381h-297l-9 -100h-44l2 156h438v-55z" />
    <glyph glyph-name="florin" unicode="&#x192;" horiz-adv-x="471" 
d="M423 432v-59h-147l-40 -262q-10 -60 -31.5 -90t-71.5 -41q-19 -4 -34 -6.5t-33.5 -4.5t-32.5 -4l-10 43q27 6 68 18q35 10 46.5 28.5t18.5 59.5l39 259h-82v53q75 4 92 5l20 133q10 60 31.5 90.5t71.5 41.5q28 6 112 18l7 -52q-33 -7 -79 -21q-35 -10 -46.5 -28.5
t-18.5 -59.5l-18 -121h138z" />
    <glyph glyph-name="Scommaaccent" unicode="&#x218;" horiz-adv-x="650" 
d="M137 205l11 -112q76 -38 184 -38h13q88 0 122 25.5t34 91.5v31q0 51 -21.5 75t-80.5 38l-202 46q-73 19 -100 53t-27 105v14q0 93 54 134t177 41h21q123 0 238 -47v-161h-61l-12 113q-67 32 -164 32h-20q-82 0 -116.5 -25t-34.5 -84v-12q0 -42 17 -64t61 -32l218 -50
q74 -18 103 -54t29 -110v-43q0 -98 -52.5 -139t-178.5 -41h-26q-73 0 -129 13t-121 44v156h64zM295 -108l4 32q3 26 32 20q21 -3 29 -9.5t8 -21.5q0 -34 -22 -66q-23 -35 -46 -56l-16 12q34 43 36 80z" />
    <glyph glyph-name="scommaaccent" unicode="&#x219;" horiz-adv-x="535" 
d="M59 379v18q0 127 191 127h16q42 0 100 -9.5t99 -28.5v-110h-61l-7 71q-53 25 -136 25q-69 0 -101 -18.5t-32 -58.5v-8q0 -40 25 -53t119 -32q19 -4 29 -6q103 -20 139 -45.5t36 -87.5v-23q0 -79 -45 -114.5t-138 -35.5h-39q-149 0 -195 60v102h58l4 -62q27 -45 132 -45
h34q61 0 89 22t28 73v14q0 42 -30 57t-137 35t-142.5 46.5t-35.5 86.5zM237 -108l4 32q3 26 32 20q21 -3 29 -9.5t8 -21.5q0 -34 -22 -66q-23 -35 -46 -56l-16 12q34 43 36 80z" />
    <glyph glyph-name="uni021A" unicode="&#x21a;" horiz-adv-x="684" 
d="M591 520l-7 114h-201v-572q31 -1 87 -5v-57h-255v57q55 4 89 5v572h-204l-6 -114h-56v180h608v-180h-55zM312 -108l4 32q3 26 32 20q21 -3 29 -9.5t8 -21.5q0 -34 -22 -66q-23 -35 -46 -56l-16 12q34 43 36 80z" />
    <glyph glyph-name="uni021B" unicode="&#x21b;" horiz-adv-x="388" 
d="M241 55h9q59 0 95 3v-45q-64 -23 -129 -23h-10q-58 0 -83 31.5t-25 105.5v327h-68v58h54q12 0 15.5 4.5t3.5 16.5v128q45 6 71 7v-156h153v-58h-153v-294q0 -63 13.5 -84t53.5 -21zM154 -108l4 32q3 26 32 20q21 -3 29 -9.5t8 -21.5q0 -34 -22 -66q-23 -35 -46 -56
l-16 12q34 43 36 80z" />
    <glyph glyph-name="circumflex" unicode="&#x2c6;" 
d="M361 589l-111 88l-111 -88l-24 20l112 114h46l112 -114z" />
    <glyph glyph-name="caron" unicode="&#x2c7;" 
d="M273 588h-46l-112 114l24 20l111 -88l111 88l24 -20z" />
    <glyph glyph-name="breve" unicode="&#x2d8;" 
d="M372 710v-15q0 -53 -32 -81.5t-90 -28.5q-59 0 -91 28.5t-32 81.5v15h45v-7q0 -71 78 -71q77 0 77 71v7h45z" />
    <glyph glyph-name="dotaccent" unicode="&#x2d9;" 
d="M250 614q-19 0 -32 11t-13 29t13 30t32 12t32 -12t13 -30t-13 -29t-32 -11z" />
    <glyph glyph-name="ring" unicode="&#x2da;" 
d="M260 582h-20q-31 0 -49 18t-18 49v17q0 31 18 49t49 18h20q31 0 49 -18t18 -49v-17q0 -31 -18 -49t-49 -18zM242 612h15q36 0 38 38v16q0 18 -10.5 28t-27.5 10h-15q-17 0 -27.5 -10t-10.5 -28v-16q0 -18 10.5 -28t27.5 -10z" />
    <glyph glyph-name="ogonek" unicode="&#x2db;" 
d="M260 6h34q-4 -3 -13.5 -8.5t-14 -8.5t-12.5 -8.5t-12 -8.5t-10 -8.5t-9.5 -9.5t-6.5 -9t-4.5 -10t-1.5 -10v-5q0 -38 51 -38q40 0 76 20l13 -24q-49 -37 -96 -37h-11q-81 0 -81 67v10q0 51 98 88z" />
    <glyph glyph-name="tilde" unicode="&#x2dc;" 
d="M415 704l-68 -72q-22 -22 -45 -22q-11 0 -27 12t-38 32t-38 31l-90 -73l-22 20l66 71q22 24 46 24q12 0 29 -12.5t38.5 -33t35.5 -29.5l90 72z" />
    <glyph glyph-name="hungarumlaut" unicode="&#x2dd;" 
d="M262 709l-1 -11l-112 -111l-28 20l95 124zM380 709l-1 -11l-112 -111l-28 20l96 124z" />
    <glyph glyph-name="commaaccentcomb" unicode="&#x326;" horiz-adv-x="0" 
d="M212 -108l4 32q3 26 32 20q21 -3 29 -9.5t8 -21.5q0 -34 -22 -66q-23 -35 -46 -56l-16 12q34 43 36 80z" />
    <glyph glyph-name="Wgrave" unicode="&#x1e80;" horiz-adv-x="1019" 
d="M563 771l-32 -21l-122 107l-1 12l58 28zM1001 700v-57q-52 -4 -73 -4l-171 -639h-103l-140 561h-3l-140 -561h-111l-170 639q-48 2 -72 4v57h247v-57q-27 -2 -90 -4l141 -550h6l156 611h70l158 -610h5l145 549q-65 2 -91 4v57h236z" />
    <glyph glyph-name="wgrave" unicode="&#x1e81;" horiz-adv-x="875" 
d="M480 605l-32 -21l-122 107l-1 12l58 28zM857 512v-54q-27 -2 -73 -4l-133 -454h-90l-127 393l-129 -393h-87l-133 454q-42 2 -68 4v54h214v-54q-16 -1 -41 -2.5t-34 -1.5l107 -380h2l139 438h62l142 -438h1l109 380q-49 2 -75 4v54h214z" />
    <glyph glyph-name="Wacute" unicode="&#x1e82;" horiz-adv-x="1019" 
d="M614 869l-1 -12l-125 -109l-33 22l99 128zM1001 700v-57q-52 -4 -73 -4l-171 -639h-103l-140 561h-3l-140 -561h-111l-170 639q-48 2 -72 4v57h247v-57q-27 -2 -90 -4l141 -550h6l156 611h70l158 -610h5l145 549q-65 2 -91 4v57h236z" />
    <glyph glyph-name="wacute" unicode="&#x1e83;" horiz-adv-x="875" 
d="M528 703l-1 -12l-122 -107l-32 21l97 126zM857 512v-54q-27 -2 -73 -4l-133 -454h-90l-127 393l-129 -393h-87l-133 454q-42 2 -68 4v54h214v-54q-16 -1 -41 -2.5t-34 -1.5l107 -380h2l139 438h62l142 -438h1l109 380q-49 2 -75 4v54h214z" />
    <glyph glyph-name="Wdieresis" unicode="&#x1e84;" horiz-adv-x="1019" 
d="M423 780q-19 0 -31.5 11t-12.5 29t12.5 29t31.5 11q18 0 30.5 -11t12.5 -29t-12.5 -29t-30.5 -11zM607 780q-18 0 -30.5 11t-12.5 29t12.5 29t30.5 11q19 0 31.5 -11t12.5 -29t-12.5 -29t-31.5 -11zM1001 700v-57q-52 -4 -73 -4l-171 -639h-103l-140 561h-3l-140 -561
h-111l-170 639q-48 2 -72 4v57h247v-57q-27 -2 -90 -4l141 -550h6l156 611h70l158 -610h5l145 549q-65 2 -91 4v57h236z" />
    <glyph glyph-name="wdieresis" unicode="&#x1e85;" horiz-adv-x="875" 
d="M349 617q-18 0 -30 10.5t-12 26.5q0 17 12 27.5t30 10.5t29.5 -10.5t11.5 -27.5q0 -16 -12 -26.5t-29 -10.5zM527 617q-17 0 -29 10.5t-12 26.5q0 17 11.5 27.5t29.5 10.5t29.5 -10.5t11.5 -27.5q0 -16 -12 -26.5t-29 -10.5zM857 512v-54q-27 -2 -73 -4l-133 -454h-90
l-127 393l-129 -393h-87l-133 454q-42 2 -68 4v54h214v-54q-16 -1 -41 -2.5t-34 -1.5l107 -380h2l139 438h62l142 -438h1l109 380q-49 2 -75 4v54h214z" />
    <glyph glyph-name="Ygrave" unicode="&#x1ef2;" horiz-adv-x="707" 
d="M404 771l-32 -21l-122 107l-1 12l58 28zM261 643l-76 -3l170 -325h2l170 324q-52 2 -79 4v57h238v-57q-58 -4 -80 -5l-214 -386v-190q23 -1 83 -5v-57h-248v57q63 4 85 5v187l-214 389q-21 1 -77 5v57h240v-57z" />
    <glyph glyph-name="ygrave" unicode="&#x1ef3;" horiz-adv-x="652" 
d="M368 605l-32 -21l-122 107l-1 12l58 28zM636 512v-54q-17 -2 -45.5 -3.5t-35.5 -2.5l-235 -545q30 0 64 -3v-53h-238v53q45 4 98 4l36 82l-197 464q-42 2 -67 4v54h234v-54q-36 -2 -86 -4l155 -382h2l165 382q-44 2 -71 4v54h221z" />
    <glyph glyph-name="uni2009" unicode="&#x2009;" horiz-adv-x="92" 
 />
    <glyph glyph-name="uni200A" unicode="&#x200a;" horiz-adv-x="204" 
 />
    <glyph glyph-name="endash" unicode="&#x2013;" horiz-adv-x="497" 
d="M448 333v-62h-399v62h399z" />
    <glyph glyph-name="emdash" unicode="&#x2014;" horiz-adv-x="796" 
d="M747 333v-62h-698v62h698z" />
    <glyph glyph-name="quoteleft" unicode="&#x2018;" horiz-adv-x="184" 
d="M126 581l-8 -46q-4 -31 -39 -25q-26 5 -36.5 13t-10.5 27q0 61 84 156l19 -15q-35 -60 -39 -100z" />
    <glyph glyph-name="quoteright" unicode="&#x2019;" horiz-adv-x="184" 
d="M46 635l8 46q4 31 39 25q26 -5 36.5 -13t10.5 -27q0 -61 -84 -156l-19 15q35 60 39 100z" />
    <glyph glyph-name="quotesinglbase" unicode="&#x201a;" horiz-adv-x="190" 
d="M47 8l8 47q4 31 39 25q27 -5 37.5 -13t10.5 -27q0 -62 -85 -158l-20 15q36 60 40 101z" />
    <glyph glyph-name="quotedblleft" unicode="&#x201c;" horiz-adv-x="314" 
d="M126 580l-8 -47q-4 -31 -39 -25q-27 5 -37.5 13t-10.5 27q0 62 85 158l20 -15q-36 -60 -40 -101zM255 580l-8 -47q-4 -31 -39 -25q-27 5 -37.5 13t-10.5 27q0 62 85 158l20 -15q-36 -60 -40 -101z" />
    <glyph glyph-name="quotedblright" unicode="&#x201d;" horiz-adv-x="314" 
d="M45 633l8 47q4 31 39 25q27 -5 37.5 -13t10.5 -27q0 -62 -85 -158l-20 15q36 60 40 101zM174 633l8 47q4 31 39 25q27 -5 37.5 -13t10.5 -27q0 -62 -85 -158l-20 15q36 60 40 101z" />
    <glyph glyph-name="quotedblbase" unicode="&#x201e;" horiz-adv-x="317" 
d="M47 8l8 47q4 31 39 25q27 -5 37.5 -13t10.5 -27q0 -62 -85 -158l-20 15q36 60 40 101zM177 8l8 47q4 31 39 25q27 -5 37.5 -13t10.5 -27q0 -62 -85 -158l-20 15q36 60 40 101z" />
    <glyph glyph-name="dagger" unicode="&#x2020;" horiz-adv-x="387" 
d="M355 511h-42l-109 18l17 -89v-36l-21 -246h-13l-22 246v36l19 89l-111 -18h-41v56h41l110 -18l-18 109v42h56v-42l-17 -109l109 18h42v-56z" />
    <glyph glyph-name="daggerdbl" unicode="&#x2021;" horiz-adv-x="387" 
d="M204 529l17 -89v-45l-17 -89l109 18h42v-56h-42l-109 17l17 -108v-42h-56v42l18 109l-110 -18h-41v56h41l111 -18l-19 89v45l19 89l-111 -18h-41v56h41l110 -18l-18 109v42h56v-42l-17 -109l109 18h42v-56h-42z" />
    <glyph glyph-name="bullet" unicode="&#x2022;" horiz-adv-x="322" 
d="M201 180q-189 0 -189 173q0 178 189 178t189 -178q0 -173 -189 -173z" />
    <glyph glyph-name="ellipsis" unicode="&#x2026;" horiz-adv-x="502" 
d="M96 87q49 0 49 -46q0 -45 -49 -45t-49 45q0 46 49 46zM250 87q49 0 49 -46q0 -45 -49 -45t-49 45q0 46 49 46zM407 87q49 0 49 -46q0 -45 -49 -45t-49 45q0 46 49 46z" />
    <glyph glyph-name="perthousand" unicode="&#x2030;" horiz-adv-x="1258" 
d="M188 711h60q78 -1 107.5 -39.5t29.5 -126.5v-66q-1 -87 -30.5 -125.5t-106.5 -38.5h-60q-78 0 -108 38.5t-31 125.5v66q0 88 30 127t109 39zM196 -6h-38l268 359l250 355h38l-262 -355zM243 659h-52q-51 0 -68 -27t-17 -89v-61q0 -62 17 -88.5t68 -26.5h52q50 0 67 26.5
t18 88.5v61q0 62 -17.5 89t-67.5 27zM635 385h60q78 0 107.5 -39t29.5 -126v-66q-1 -87 -30.5 -125.5t-106.5 -38.5h-60q-79 0 -109 38.5t-30 125.5v66q0 88 30 126.5t109 38.5zM1071 -10h-60q-78 0 -108 38.5t-31 125.5v66q0 88 30 126.5t109 38.5h60q78 0 107.5 -38.5
t29.5 -126.5v-66q0 -87 -29.5 -125.5t-107.5 -38.5zM690 334h-52q-51 0 -68 -27t-17 -90v-60q0 -62 17 -89t68 -27h52q50 0 67 27t18 89v60q0 62 -17.5 89.5t-67.5 27.5zM1014 41h53q49 0 66.5 27t17.5 89v60q0 63 -17 90t-67 27h-53q-50 0 -67.5 -27.5t-17.5 -89.5v-60
q0 -62 17.5 -89t67.5 -27z" />
    <glyph glyph-name="guilsinglleft" unicode="&#x2039;" horiz-adv-x="306" 
d="M118 262l140 -170v-25h-45l-172 195v6l172 195h45v-26l-140 -169v-6z" />
    <glyph glyph-name="guilsinglright" unicode="&#x203a;" horiz-adv-x="306" 
d="M181 268l-140 169v26h45l172 -195v-6l-172 -195h-45v25l140 170v6z" />
    <glyph glyph-name="fraction" unicode="&#x2044;" horiz-adv-x="214" 
d="M385 708l-262 -355l-256 -359h-38l268 359l250 355h38z" />
    <glyph glyph-name="zeroinferior" unicode="&#x2080;" horiz-adv-x="413" 
d="M227 -142h-44q-73 0 -104.5 33.5t-32.5 107.5v131q0 74 32 108t105 34h44q72 0 103 -34t31 -108v-131q-1 -74 -32 -107.5t-102 -33.5zM190 -98h27q47 0 67 23.5t20 74.5v130q0 50 -20 73.5t-67 23.5h-27q-47 0 -67 -23.5t-20 -73.5v-130q0 -51 20 -74.5t67 -23.5z" />
    <glyph glyph-name="oneinferior" unicode="&#x2081;" horiz-adv-x="329" 
d="M209 273v-369q58 -2 88 -4v-40h-250v40q71 4 103 5v318l-105 -27v37l128 40h36z" />
    <glyph glyph-name="twoinferior" unicode="&#x2082;" horiz-adv-x="400" 
d="M348 -140h-300v42q0 71 16.5 105t63.5 53q43 16 90 30q42 14 59 28.5t17 37.5v14q0 34 -17 46t-66 12q-71 0 -105 -15l-5 -52h-42v86q72 26 152 26q75 0 105.5 -21.5t30.5 -79.5v-24q0 -66 -95 -97q-8 -3 -42.5 -14t-40.5 -13q-42 -16 -54.5 -38.5t-12.5 -81.5h203l5 73
h38v-117z" />
    <glyph glyph-name="threeinferior" unicode="&#x2083;" horiz-adv-x="371" 
d="M321 166v-11q0 -80 -53 -96q29 -6 41 -25.5t12 -57.5v-12q0 -61 -31 -83.5t-112 -22.5q-63 0 -152 20v89h40l5 -54q60 -12 108 -12q51 0 70 14.5t19 53.5v12q0 37 -16.5 50.5t-52.5 13.5h-97v39h97q36 0 52.5 14.5t16.5 52.5v10q0 40 -18.5 54t-70.5 14q-51 0 -104 -14
l-5 -53h-37v87q81 24 145 24q82 0 112.5 -22.5t30.5 -84.5z" />
    <glyph glyph-name="fourinferior" unicode="&#x2084;" horiz-adv-x="434" 
d="M305 -29v-68q14 -1 78 -5v-38h-224v38q81 5 87 5v67h-230v41l230 260h59v-260h80v-37zM66 11h180v212z" />
    <glyph glyph-name="fiveinferior" unicode="&#x2085;" horiz-adv-x="411" 
d="M348 163h-39l-3 58h-190l-7 -147q50 28 118 28h27q58 0 82.5 -24t24.5 -87v-17q0 -60 -35 -87.5t-108 -28.5h-12q-65 0 -158 21v98h38l4 -63q59 -12 106 -12h14q49 1 72 18.5t23 56.5v14q0 42 -13.5 58t-50.5 16h-26q-68 0 -112 -30l-46 11l10 219h281v-102z" />
    <glyph glyph-name="sixinferior" unicode="&#x2086;" horiz-adv-x="424" 
d="M222 101h37q61 0 88 -27.5t27 -86.5v-10q0 -62 -34 -90.5t-107 -28.5h-31q-155 0 -155 136v131q0 72 37 110.5t107 38.5h13q66 0 149 -20v-91h-45l-6 54q-43 11 -103 11q-96 0 -96 -102v-58q17 14 52.5 23.5t66.5 9.5zM103 30v-44q0 -85 102 -83h26q47 0 67.5 17.5
t20.5 58.5v11q0 40 -16.5 57t-54.5 17h-35q-52 0 -110 -34z" />
    <glyph glyph-name="seveninferior" unicode="&#x2087;" horiz-adv-x="346" 
d="M330 221l-183 -361h-64v12l191 349h-213l-7 -63h-38v107h314v-44z" />
    <glyph glyph-name="eightinferior" unicode="&#x2088;" horiz-adv-x="436" 
d="M370 171v-15q0 -69 -68 -85q85 -14 85 -96v-11q0 -56 -33.5 -81t-110.5 -25h-49q-78 0 -112.5 25t-34.5 81v11q0 82 86 96q-69 16 -69 85v15q1 53 33.5 77t102.5 24h36q70 0 102 -24t32 -77zM116 167v-16q0 -32 20 -46t64 -14h35q44 0 63.5 14t19.5 46v16q0 64 -87 64
h-28q-87 0 -87 -64zM331 -33v14q0 37 -21 53.5t-66 16.5h-53q-45 0 -66 -16.5t-21 -53.5v-14q0 -36 21.5 -51.5t72.5 -14.5h38q51 0 73 15.5t22 50.5z" />
    <glyph glyph-name="nineinferior" unicode="&#x2089;" horiz-adv-x="413" 
d="M190 20h-36q-61 0 -87.5 27t-26.5 91v19q0 61 33 89t104 28h35q151 0 152 -134v-135q0 -147 -145 -147h-11q-64 0 -147 20v87h45l4 -54q44 -12 104 -12q95 0 95 102v58q-53 -41 -119 -39zM309 94v54q0 83 -101 81h-27q-47 0 -67.5 -17.5t-20.5 -58.5v-9q0 -45 16.5 -63.5
t55.5 -18.5h33q61 0 111 32z" />
    <glyph glyph-name="Euro" unicode="&#x20ac;" horiz-adv-x="618" 
d="M492 515l-6 102q-27 13 -63.5 19.5t-54.5 7t-63 0.5q-78 0 -120.5 -46.5t-42.5 -132.5v-49h289l-9 -37h-280v-65h253l-8 -37h-245v-67q0 -80 40 -117t119 -37h35q121 0 164 97h55v-51q-71 -112 -215 -112h-46q-231 0 -231 215v72h-60v37h59v65h-59v37h59v49
q0 119 61 181.5t175 62.5h20q142 0 230 -40v-154h-56z" />
    <glyph glyph-name="uni2116" unicode="&#x2116;" horiz-adv-x="1312" 
d="M965 703h65q96 0 141.5 -46t45.5 -144v-146q0 -98 -45.5 -143.5t-141.5 -45.5h-65q-97 0 -143 45.5t-46 143.5v146q0 99 46 144.5t143 45.5zM745 700v-57q-61 -4 -87 -5v-638h-87l-369 574v-513q48 -2 74 -4v-57h-234v57q64 4 89 5v575l-90 6v57h167l379 -580v519
q-50 2 -78 4v57h236zM1028 647h-64q-121 0 -121 -128v-156q0 -65 29.5 -95t91.5 -30h64q63 0 92.5 30t29.5 95v156q0 65 -29.5 96.5t-92.5 31.5zM1213 0h-435v61h435v-61z" />
    <glyph glyph-name="trademark" unicode="&#x2122;" horiz-adv-x="697" 
d="M280 619h-28l-4 48h-75v-204q18 0 50 -2v-32h-140v32q34 2 50 2v204h-77l-4 -48h-27v81h255v-81zM672 700v-31q-6 0 -20 -1t-20 -1v-204q14 0 40 -2v-32h-114v32l34 2v195l-92 -229h-32l-93 229v-195l35 -2v-32h-111v32q28 2 41 2v204q-12 0 -42 2v31h93l92 -212h3
l90 212h96z" />
    <glyph glyph-name="oneeighth" unicode="&#x215b;" horiz-adv-x="861" 
d="M210 708v-369q58 -2 88 -4v-40h-250v40q71 4 103 5v318l-105 -27v37l128 40h36zM671 708l-262 -355l-256 -359h-38l268 359l250 355h38zM796 311v-15q0 -69 -68 -85q85 -14 85 -96v-11q0 -56 -33.5 -81t-110.5 -25h-49q-78 0 -112.5 25t-34.5 81v11q0 82 86 96
q-69 16 -69 85v15q1 53 33.5 77t102.5 24h36q70 0 102 -24t32 -77zM542 307v-16q0 -32 20 -46t64 -14h35q44 0 63.5 14t19.5 46v16q0 64 -87 64h-28q-87 0 -87 -64zM757 107v14q0 37 -21 53.5t-66 16.5h-53q-45 0 -66 -16.5t-21 -53.5v-14q0 -36 21.5 -51.5t72.5 -14.5h38
q51 0 73 15.5t22 50.5z" />
    <glyph glyph-name="threeeighths" unicode="&#x215c;" horiz-adv-x="893" 
d="M322 601v-11q0 -80 -53 -96q29 -6 41 -25.5t12 -57.5v-12q0 -61 -31 -83.5t-112 -22.5q-63 0 -152 20v89h40l5 -54q60 -12 108 -12q51 0 70 14.5t19 53.5v12q0 37 -16.5 50.5t-52.5 13.5h-97v39h97q36 0 52.5 14.5t16.5 52.5v10q0 40 -18.5 54t-70.5 14t-104 -14l-5 -53
h-37v87q81 24 145 24q82 0 112.5 -22.5t30.5 -84.5zM697 708l-262 -355l-256 -359h-38l268 359l250 355h38zM828 311v-15q0 -69 -68 -85q85 -14 85 -96v-11q0 -56 -33.5 -81t-110.5 -25h-49q-78 0 -112.5 25t-34.5 81v11q0 82 86 96q-69 16 -69 85v15q1 53 33.5 77t102.5 24
h36q70 0 102 -24t32 -77zM574 307v-16q0 -32 20 -46t64 -14h35q44 0 63.5 14t19.5 46v16q0 64 -87 64h-28q-87 0 -87 -64zM789 107v14q0 37 -21 53.5t-66 16.5h-53q-45 0 -66 -16.5t-21 -53.5v-14q0 -36 21.5 -51.5t72.5 -14.5h38q51 0 73 15.5t22 50.5z" />
    <glyph glyph-name="fiveeighths" unicode="&#x215d;" horiz-adv-x="909" 
d="M713 708l-262 -355l-256 -359h-38l268 359l250 355h38zM349 700v-102h-39l-3 58h-190l-7 -147q50 28 118 28h27q58 0 82.5 -24t24.5 -87v-17q0 -60 -35 -87.5t-108 -28.5h-12q-65 0 -158 21v98h38l4 -63q59 -12 106 -12h14q49 1 72 18.5t23 56.5v14q0 42 -13.5 58
t-50.5 16h-26q-68 0 -112 -30l-46 11l10 219h281zM844 311v-15q0 -69 -68 -85q85 -14 85 -96v-11q0 -56 -33.5 -81t-110.5 -25h-49q-78 0 -112.5 25t-34.5 81v11q0 82 86 96q-69 16 -69 85v15q1 53 33.5 77t102.5 24h36q70 0 102 -24t32 -77zM590 307v-16q0 -32 20 -46
t64 -14h35q44 0 63.5 14t19.5 46v16q0 64 -87 64h-28q-87 0 -87 -64zM805 107v14q0 37 -21 53.5t-66 16.5h-53q-45 0 -66 -16.5t-21 -53.5v-14q0 -36 21.5 -51.5t72.5 -14.5h38q51 0 73 15.5t22 50.5z" />
    <glyph glyph-name="seveneighths" unicode="&#x215e;" horiz-adv-x="807" 
d="M604 708l-262 -355l-256 -359h-38l268 359l250 355h38zM330 656l-183 -361h-64v12l191 349h-213l-7 -63h-38v107h314v-44zM742 311v-15q0 -69 -68 -85q85 -14 85 -96v-11q0 -56 -33.5 -81t-110.5 -25h-49q-78 0 -112.5 25t-34.5 81v11q0 82 86 96q-69 16 -69 85v15
q1 53 33.5 77t102.5 24h36q70 0 102 -24t32 -77zM488 307v-16q0 -32 20 -46t64 -14h35q44 0 63.5 14t19.5 46v16q0 64 -87 64h-28q-87 0 -87 -64zM703 107v14q0 37 -21 53.5t-66 16.5h-53q-45 0 -66 -16.5t-21 -53.5v-14q0 -36 21.5 -51.5t72.5 -14.5h38q51 0 73 15.5
t22 50.5z" />
    <glyph glyph-name="arrowleft" unicode="&#x2190;" horiz-adv-x="778" 
d="M754 316h-597l271 -267l-47 -47l-334 334v30l334 333l47 -47l-270 -265h596v-71z" />
    <glyph glyph-name="arrowup" unicode="&#x2191;" horiz-adv-x="790" 
d="M773 373l-47 -48l-267 272v-597h-71v596l-265 -271l-47 48l334 334h29z" />
    <glyph glyph-name="arrowright" unicode="&#x2192;" horiz-adv-x="778" 
d="M620 387l-270 265l47 47l335 -333v-30l-335 -334l-47 47l271 267h-596v71h595z" />
    <glyph glyph-name="arrowdown" unicode="&#x2193;" horiz-adv-x="790" 
d="M410 -7h-29l-334 334l47 48l265 -271v596h71v-597l267 272l47 -48z" />
    <glyph glyph-name="arrowupleft" unicode="&#x2196;" horiz-adv-x="626" 
d="M159 475l430 -428l-51 -51l-430 431v-381h-63v473l21 21h472v-65h-379z" />
    <glyph glyph-name="arrowupright" unicode="&#x2197;" horiz-adv-x="626" 
d="M88 470v65h472l21 -21v-473h-63v381l-430 -431l-51 51l430 428h-379z" />
    <glyph glyph-name="arrowdownright" unicode="&#x2198;" horiz-adv-x="626" 
d="M467 64l-430 428l51 51l430 -431v381h63v-473l-21 -21h-472v65h379z" />
    <glyph glyph-name="arrowdownleft" unicode="&#x2199;" horiz-adv-x="626" 
d="M538 64v-65h-472l-21 21v473h63v-381l430 431l51 -51l-430 -428h379z" />
    <glyph glyph-name="minus" unicode="&#x2212;" horiz-adv-x="593" 
d="M57 382h479v-63h-479v63z" />
    <glyph glyph-name="J.ss01" horiz-adv-x="563" 
d="M534 700v-57q-64 -4 -84 -5v-408q0 -127 -51.5 -183t-156.5 -56h-21q-153 0 -204 103v59h69q12 -54 42.5 -75.5t96.5 -21.5h10q72 0 104 39.5t32 123.5v419q-77 2 -109 5v57h272z" />
    <glyph glyph-name="K.ss02" horiz-adv-x="751" 
d="M401 407l232 -345q38 -1 97 -5v-57h-243v51q5 0 28.5 1.5t35.5 1.5l-204 307l-141 -143v-156q24 -1 84 -5v-57h-248v57q63 4 85 5v576q-28 1 -86 5v57h249v-57q-60 -4 -84 -5v-345l342 346l-78 4v57h249v-57q-29 -2 -83 -4z" />
    <glyph glyph-name="Kcommaaccent.ss02" horiz-adv-x="751" 
d="M401 407l232 -345q38 -1 97 -5v-57h-243v51q5 0 28.5 1.5t35.5 1.5l-204 307l-141 -143v-156q24 -1 84 -5v-57h-248v57q63 4 85 5v576q-28 1 -86 5v57h249v-57q-60 -4 -84 -5v-345l342 346l-78 4v57h249v-57q-29 -2 -83 -4zM351 -108l4 32q3 26 32 20q21 -3 29 -9.5
t8 -21.5q0 -34 -22 -66q-23 -35 -46 -56l-16 12q34 43 36 80z" />
    <glyph glyph-name="Q.ss03" horiz-adv-x="716" 
d="M303 709h113q107 0 169 -66t62 -178v-233q0 -82 -31.5 -142t-90.5 -80q23 -32 99 -114l-35 -34q-92 72 -144 130q-24 -2 -40 -2h-90q-113 0 -179.5 65t-66.5 177v233q0 112 63.5 178t170.5 66zM409 640h-102q-71 0 -115 -47.5t-44 -126.5v-234q0 -78 47 -125.5t124 -47.5
h90q75 0 117 47t42 126v234q0 79 -44 126.5t-115 47.5z" />
    <glyph glyph-name="R.ss04" horiz-adv-x="689" 
d="M41 700h370q212 0 212 -192v-51q0 -79 -46.5 -126t-137.5 -48q40 -85 130 -222q20 0 100 -4v-57h-151q-95 146 -151 283h-78v56h114q141 0 141 119v44q0 63 -36.5 97.5t-104.5 34.5h-193v-573q54 -2 80 -4v-57h-248v57q61 4 89 5v576q-76 4 -90 5v57z" />
    <glyph glyph-name="Racute.ss04" horiz-adv-x="689" 
d="M453 869l-1 -12l-125 -109l-33 22l99 128zM41 700h370q212 0 212 -192v-51q0 -79 -46.5 -126t-137.5 -48q40 -85 130 -222q20 0 100 -4v-57h-151q-95 146 -151 283h-78v56h114q141 0 141 119v44q0 63 -36.5 97.5t-104.5 34.5h-193v-573q54 -2 80 -4v-57h-248v57
q61 4 89 5v576q-76 4 -90 5v57z" />
    <glyph glyph-name="Rcaron.ss04" horiz-adv-x="689" 
d="M377 754h-46l-112 114l24 20l111 -88l111 88l24 -20zM41 700h370q212 0 212 -192v-51q0 -79 -46.5 -126t-137.5 -48q40 -85 130 -222q20 0 100 -4v-57h-151q-95 146 -151 283h-78v56h114q141 0 141 119v44q0 63 -36.5 97.5t-104.5 34.5h-193v-573q54 -2 80 -4v-57h-248
v57q61 4 89 5v576q-76 4 -90 5v57z" />
    <glyph glyph-name="Rcommaaccent.ss04" horiz-adv-x="689" 
d="M41 700h370q212 0 212 -192v-51q0 -79 -46.5 -126t-137.5 -48q40 -85 130 -222q20 0 100 -4v-57h-151q-95 146 -151 283h-78v56h114q141 0 141 119v44q0 63 -36.5 97.5t-104.5 34.5h-193v-573q54 -2 80 -4v-57h-248v57q61 4 89 5v576q-76 4 -90 5v57zM324 -108l4 32
q3 26 32 20q21 -3 29 -9.5t8 -21.5q0 -34 -22 -66q-23 -35 -46 -56l-16 12q34 43 36 80z" />
    <glyph glyph-name="a.ss05" horiz-adv-x="597" 
d="M571 512v-54q-21 -1 -47.5 -3t-28.5 -2v-394q65 -4 76 -5v-54h-152v75q-61 -44 -103.5 -63.5t-100.5 -19.5h-18q-140 0 -140 175v186q0 81 37.5 121.5t104.5 40.5h19q63 0 98 -10t103 -44v51h152zM230 57h17q46 0 82.5 16t89.5 55v281q-60 30 -89.5 37t-82.5 7h-19
q-50 0 -72.5 -29.5t-22.5 -100.5v-135q0 -70 23 -100.5t74 -30.5z" />
    <glyph glyph-name="aacute.ss05" horiz-adv-x="597" 
d="M372 703l-1 -12l-122 -107l-32 21l97 126zM571 512v-54q-21 -1 -47.5 -3t-28.5 -2v-394q65 -4 76 -5v-54h-152v75q-61 -44 -103.5 -63.5t-100.5 -19.5h-18q-140 0 -140 175v186q0 81 37.5 121.5t104.5 40.5h19q63 0 98 -10t103 -44v51h152zM230 57h17q46 0 82.5 16
t89.5 55v281q-60 30 -89.5 37t-82.5 7h-19q-50 0 -72.5 -29.5t-22.5 -100.5v-135q0 -70 23 -100.5t74 -30.5z" />
    <glyph glyph-name="abreve.ss05" horiz-adv-x="597" 
d="M419 710v-15q0 -53 -32 -81.5t-90 -28.5q-59 0 -91 28.5t-32 81.5v15h45v-7q0 -71 78 -71q77 0 77 71v7h45zM571 512v-54q-21 -1 -47.5 -3t-28.5 -2v-394q65 -4 76 -5v-54h-152v75q-61 -44 -103.5 -63.5t-100.5 -19.5h-18q-140 0 -140 175v186q0 81 37.5 121.5
t104.5 40.5h19q63 0 98 -10t103 -44v51h152zM230 57h17q46 0 82.5 16t89.5 55v281q-60 30 -89.5 37t-82.5 7h-19q-50 0 -72.5 -29.5t-22.5 -100.5v-135q0 -70 23 -100.5t74 -30.5z" />
    <glyph glyph-name="acircumflex.ss05" horiz-adv-x="597" 
d="M407 589l-111 88l-111 -88l-24 20l112 114h46l112 -114zM571 512v-54q-21 -1 -47.5 -3t-28.5 -2v-394q65 -4 76 -5v-54h-152v75q-61 -44 -103.5 -63.5t-100.5 -19.5h-18q-140 0 -140 175v186q0 81 37.5 121.5t104.5 40.5h19q63 0 98 -10t103 -44v51h152zM230 57h17
q46 0 82.5 16t89.5 55v281q-60 30 -89.5 37t-82.5 7h-19q-50 0 -72.5 -29.5t-22.5 -100.5v-135q0 -70 23 -100.5t74 -30.5z" />
    <glyph glyph-name="adieresis.ss05" horiz-adv-x="597" 
d="M208 617q-18 0 -30 10.5t-12 26.5q0 17 12 27.5t30 10.5t29.5 -10.5t11.5 -27.5q0 -16 -12 -26.5t-29 -10.5zM386 617q-17 0 -29 10.5t-12 26.5q0 17 11.5 27.5t29.5 10.5t29.5 -10.5t11.5 -27.5q0 -16 -12 -26.5t-29 -10.5zM571 512v-54q-21 -1 -47.5 -3t-28.5 -2v-394
q65 -4 76 -5v-54h-152v75q-61 -44 -103.5 -63.5t-100.5 -19.5h-18q-140 0 -140 175v186q0 81 37.5 121.5t104.5 40.5h19q63 0 98 -10t103 -44v51h152zM230 57h17q46 0 82.5 16t89.5 55v281q-60 30 -89.5 37t-82.5 7h-19q-50 0 -72.5 -29.5t-22.5 -100.5v-135
q0 -70 23 -100.5t74 -30.5z" />
    <glyph glyph-name="agrave.ss05" horiz-adv-x="597" 
d="M367 605l-32 -21l-122 107l-1 12l58 28zM571 512v-54q-21 -1 -47.5 -3t-28.5 -2v-394q65 -4 76 -5v-54h-152v75q-61 -44 -103.5 -63.5t-100.5 -19.5h-18q-140 0 -140 175v186q0 81 37.5 121.5t104.5 40.5h19q63 0 98 -10t103 -44v51h152zM230 57h17q46 0 82.5 16t89.5 55
v281q-60 30 -89.5 37t-82.5 7h-19q-50 0 -72.5 -29.5t-22.5 -100.5v-135q0 -70 23 -100.5t74 -30.5z" />
    <glyph glyph-name="amacron.ss05" horiz-adv-x="597" 
d="M416 656v-48h-242v48h242zM571 512v-54q-21 -1 -47.5 -3t-28.5 -2v-394q65 -4 76 -5v-54h-152v75q-61 -44 -103.5 -63.5t-100.5 -19.5h-18q-140 0 -140 175v186q0 81 37.5 121.5t104.5 40.5h19q63 0 98 -10t103 -44v51h152zM230 57h17q46 0 82.5 16t89.5 55v281
q-60 30 -89.5 37t-82.5 7h-19q-50 0 -72.5 -29.5t-22.5 -100.5v-135q0 -70 23 -100.5t74 -30.5z" />
    <glyph glyph-name="aogonek.ss05" horiz-adv-x="597" 
d="M571 512v-54q-21 -1 -47.5 -3t-28.5 -2v-394q65 -4 76 -5v-54h-93q-3 -2 -11 -7t-11 -7t-10 -7t-10 -7.5t-8.5 -7t-8 -7.5t-6 -7t-5.5 -8t-3 -8.5t-1 -8.5v-5q0 -38 51 -38q40 0 76 20l13 -24q-49 -37 -96 -37h-11q-81 0 -81 67v10q0 47 83 82h-20v75
q-61 -44 -103.5 -63.5t-100.5 -19.5h-18q-140 0 -140 175v186q0 81 37.5 121.5t104.5 40.5h19q63 0 98 -10t103 -44v51h152zM419 128v281q-60 30 -89.5 37t-82.5 7h-19q-50 0 -72.5 -29.5t-22.5 -100.5v-135q0 -70 23 -100.5t74 -30.5h17q46 0 82.5 16t89.5 55z" />
    <glyph glyph-name="aring.ss05" horiz-adv-x="597" 
d="M306 585h-20q-31 0 -49 18t-18 49v17q0 31 18 49t49 18h20q31 0 49 -18t18 -49v-17q0 -31 -18 -49t-49 -18zM288 615h15q36 0 38 38v16q0 18 -10.5 28t-27.5 10h-15q-17 0 -27.5 -10t-10.5 -28v-16q0 -18 10.5 -28t27.5 -10zM571 512v-54q-21 -1 -47.5 -3t-28.5 -2v-394
q65 -4 76 -5v-54h-152v75q-61 -44 -103.5 -63.5t-100.5 -19.5h-18q-140 0 -140 175v186q0 81 37.5 121.5t104.5 40.5h19q63 0 98 -10t103 -44v51h152zM230 57h17q46 0 82.5 16t89.5 55v281q-60 30 -89.5 37t-82.5 7h-19q-50 0 -72.5 -29.5t-22.5 -100.5v-135
q0 -70 23 -100.5t74 -30.5z" />
    <glyph glyph-name="atilde.ss05" horiz-adv-x="597" 
d="M446 704l-68 -72q-22 -22 -45 -22q-11 0 -27 12t-38 32t-38 31l-90 -73l-22 20l66 71q22 24 46 24q12 0 29 -12.5t38.5 -33t35.5 -29.5l90 72zM571 512v-54q-21 -1 -47.5 -3t-28.5 -2v-394q65 -4 76 -5v-54h-152v75q-61 -44 -103.5 -63.5t-100.5 -19.5h-18
q-140 0 -140 175v186q0 81 37.5 121.5t104.5 40.5h19q63 0 98 -10t103 -44v51h152zM230 57h17q46 0 82.5 16t89.5 55v281q-60 30 -89.5 37t-82.5 7h-19q-50 0 -72.5 -29.5t-22.5 -100.5v-135q0 -70 23 -100.5t74 -30.5z" />
    <glyph glyph-name="g.ss06" horiz-adv-x="590" 
d="M565 512v-54q-11 -1 -34 -2.5t-34 -2.5v-438q0 -177 -189 -177h-50q-125 0 -182 79v46h60l4 -11q31 -58 121 -58h43q117 0 117 121v74q-58 -39 -102 -53t-109 -14h-18q-135 0 -135 158v181q0 162 135 162h19q59 0 104.5 -15t105.5 -47v51h144zM225 86h20q51 0 87 11.5
t89 46.5v265q-97 52 -181 52h-18q-48 0 -68.5 -30.5t-20.5 -99.5v-119q0 -65 21.5 -95.5t70.5 -30.5z" />
    <glyph glyph-name="gbreve.ss06" horiz-adv-x="590" 
d="M408 710v-15q0 -53 -32 -81.5t-90 -28.5q-59 0 -91 28.5t-32 81.5v15h45v-7q0 -71 78 -71q77 0 77 71v7h45zM565 512v-54q-11 -1 -34 -2.5t-34 -2.5v-438q0 -177 -189 -177h-50q-125 0 -182 79v46h60l4 -11q31 -58 121 -58h43q117 0 117 121v74q-58 -39 -102 -53
t-109 -14h-18q-135 0 -135 158v181q0 162 135 162h19q59 0 104.5 -15t105.5 -47v51h144zM225 86h20q51 0 87 11.5t89 46.5v265q-97 52 -181 52h-18q-48 0 -68.5 -30.5t-20.5 -99.5v-119q0 -65 21.5 -95.5t70.5 -30.5z" />
    <glyph glyph-name="gcommaaccent.ss06" horiz-adv-x="590" 
d="M308 661l-4 -31q-3 -27 -31 -20q-20 3 -28.5 9.5t-8.5 20.5q0 33 22 65q26 37 45 54l15 -11q-33 -42 -35 -78zM565 512v-54q-11 -1 -34 -2.5t-34 -2.5v-438q0 -177 -189 -177h-50q-125 0 -182 79v46h60l4 -11q31 -58 121 -58h43q117 0 117 121v74q-58 -39 -102 -53
t-109 -14h-18q-135 0 -135 158v181q0 162 135 162h19q59 0 104.5 -15t105.5 -47v51h144zM225 86h20q51 0 87 11.5t89 46.5v265q-97 52 -181 52h-18q-48 0 -68.5 -30.5t-20.5 -99.5v-119q0 -65 21.5 -95.5t70.5 -30.5z" />
    <glyph glyph-name="gdotaccent.ss06" horiz-adv-x="590" 
d="M286 614q-19 0 -32 11t-13 29t13 30t32 12t32 -12t13 -30t-13 -29t-32 -11zM565 512v-54q-11 -1 -34 -2.5t-34 -2.5v-438q0 -177 -189 -177h-50q-125 0 -182 79v46h60l4 -11q31 -58 121 -58h43q117 0 117 121v74q-58 -39 -102 -53t-109 -14h-18q-135 0 -135 158v181
q0 162 135 162h19q59 0 104.5 -15t105.5 -47v51h144zM225 86h20q51 0 87 11.5t89 46.5v265q-97 52 -181 52h-18q-48 0 -68.5 -30.5t-20.5 -99.5v-119q0 -65 21.5 -95.5t70.5 -30.5z" />
    <glyph glyph-name="k.ss07" horiz-adv-x="630" 
d="M195 700v-446l253 200q-46 2 -68 4v54h220v-54q-24 -2 -72 -4l-183 -146l191 -250q2 0 24 -1t42 -3v-54h-142l-4 53l-169 217l-92 -73v-138q14 -1 76 -5v-54h-228v54q62 4 76 5v582q-25 1 -70 5v54h146z" />
    <glyph glyph-name="kcommaaccent.ss07" horiz-adv-x="630" 
d="M195 254l253 200q-46 2 -68 4v54h220v-54q-24 -2 -72 -4l-183 -146l191 -250q2 0 24 -1t42 -3v-54h-142l-4 53l-169 217l-92 -73v-138q14 -1 76 -5v-54h-228v54q62 4 76 5v582q-25 1 -70 5v54h146v-446zM288 -108l4 32q3 26 32 20q21 -3 29 -9.5t8 -21.5q0 -34 -22 -66
q-23 -35 -46 -56l-16 12q34 43 36 80z" />
    <glyph glyph-name="y.ss08" horiz-adv-x="621" 
d="M564 512v-493q0 -181 -189 -181h-42q-133 0 -190 79v46h60l4 -11q31 -58 129 -58h35q117 0 117 125v63q-60 -34 -104 -47t-107 -13h-18q-135 0 -135 158v273l-83 5v54h159v-300q0 -65 21.5 -95.5t70.5 -30.5h20q51 0 87 11.5t89 46.5v309l-83 5v54h159z" />
    <glyph glyph-name="yacute.ss08" horiz-adv-x="621" 
d="M412 703l-1 -12l-122 -107l-32 21l97 126zM564 512v-493q0 -181 -189 -181h-42q-133 0 -190 79v46h60l4 -11q31 -58 129 -58h35q117 0 117 125v63q-60 -34 -104 -47t-107 -13h-18q-135 0 -135 158v273l-83 5v54h159v-300q0 -65 21.5 -95.5t70.5 -30.5h20q51 0 87 11.5
t89 46.5v309l-83 5v54h159z" />
    <glyph glyph-name="ycircumflex.ss08" horiz-adv-x="621" 
d="M447 589l-111 88l-111 -88l-24 20l112 114h46l112 -114zM564 512v-493q0 -181 -189 -181h-42q-133 0 -190 79v46h60l4 -11q31 -58 129 -58h35q117 0 117 125v63q-60 -34 -104 -47t-107 -13h-18q-135 0 -135 158v273l-83 5v54h159v-300q0 -65 21.5 -95.5t70.5 -30.5h20
q51 0 87 11.5t89 46.5v309l-83 5v54h159z" />
    <glyph glyph-name="ydieresis.ss08" horiz-adv-x="621" 
d="M247 617q-18 0 -30 10.5t-12 26.5q0 17 12 27.5t30 10.5t29.5 -10.5t11.5 -27.5q0 -16 -12 -26.5t-29 -10.5zM425 617q-17 0 -29 10.5t-12 26.5q0 17 11.5 27.5t29.5 10.5t29.5 -10.5t11.5 -27.5q0 -16 -12 -26.5t-29 -10.5zM564 512v-493q0 -181 -189 -181h-42
q-133 0 -190 79v46h60l4 -11q31 -58 129 -58h35q117 0 117 125v63q-60 -34 -104 -47t-107 -13h-18q-135 0 -135 158v273l-83 5v54h159v-300q0 -65 21.5 -95.5t70.5 -30.5h20q51 0 87 11.5t89 46.5v309l-83 5v54h159z" />
    <glyph glyph-name="ygrave.ss08" horiz-adv-x="621" 
d="M371 605l-32 -21l-122 107l-1 12l58 28zM564 512v-493q0 -181 -189 -181h-42q-133 0 -190 79v46h60l4 -11q31 -58 129 -58h35q117 0 117 125v63q-60 -34 -104 -47t-107 -13h-18q-135 0 -135 158v273l-83 5v54h159v-300q0 -65 21.5 -95.5t70.5 -30.5h20q51 0 87 11.5
t89 46.5v309l-83 5v54h159z" />
    <glyph glyph-name="i.dot" horiz-adv-x="297" 
d="M154 614q-19 0 -32 11t-13 29t13 30t32 12t32 -12t13 -30t-13 -29t-32 -11zM195 512v-453q14 -1 76 -5v-54h-228v54q62 4 76 5v394q-25 1 -70 5v54h146z" />
    <glyph glyph-name="f_f_f" horiz-adv-x="1033" 
d="M851 456v-396q42 -1 91 -6v-54h-243v54q12 1 37.5 2.5t38.5 2.5v397h-252v-396q42 -1 91 -6v-54h-243v54q12 1 37.5 2.5t38.5 2.5v397h-252v-396q42 -1 91 -6v-54h-243v54q12 1 37.5 2.5t38.5 2.5v397h-78v50q13 1 39 2.5t39 1.5v62q0 110 96 132q11 2 110 18l7 -52
q-50 -10 -87 -21q-30 -8 -40 -28.5t-10 -59.5v-49h252v60q0 110 96 132q11 2 110 18l7 -52q-50 -10 -87 -21q-30 -8 -40 -28.5t-10 -59.5v-49h252v60q0 110 96 132q11 2 110 18l7 -52q-50 -10 -87 -21q-30 -8 -40 -28.5t-10 -59.5v-49h156v-56h-156z" />
    <glyph glyph-name="f_f_j" horiz-adv-x="901" 
d="M823 512v-435q0 -62 -17 -97t-72 -86q-23 -20 -57 -42l-32 35q20 20 33 35q39 42 54 74t15 82v378h-224v-396q42 -1 91 -6v-54h-243v54q12 1 37.5 2.5t38.5 2.5v397h-252v-396q42 -1 91 -6v-54h-243v54q12 1 37.5 2.5t38.5 2.5v397h-78v50q13 1 39 2.5t39 1.5v62
q0 110 96 132q11 2 110 18l7 -52q-50 -10 -87 -21q-30 -8 -40 -28.5t-10 -59.5v-49h252v60q0 110 96 132q11 2 110 18l7 -52q-50 -10 -87 -21q-30 -8 -40 -28.5t-10 -59.5v-49h300zM781 611q-20 0 -33.5 12t-13.5 31q0 20 13.5 32t33.5 12q21 0 34.5 -12t13.5 -32
q0 -19 -13.5 -31t-34.5 -12z" />
    <glyph glyph-name="f_f_t" horiz-adv-x="1029" 
d="M882 55h9q59 0 95 3v-45q-64 -23 -129 -23h-10q-58 0 -83 31.5t-25 105.5v327h-216v-394q42 -1 91 -6v-54h-243v54q12 1 37.5 2.5t38.5 2.5v397h-252v-396q42 -1 91 -6v-54h-243v54q12 1 37.5 2.5t38.5 2.5v397h-78v50q13 1 39 2.5t39 1.5v62q0 110 96 132q11 2 110 18
l7 -52q-50 -10 -87 -21q-30 -8 -40 -28.5t-10 -59.5v-49h245v-2h7v62q0 110 96 132q11 2 110 18l7 -52q-50 -10 -87 -21q-30 -8 -40 -28.5t-10 -59.5v-49h202q12 0 15.5 4.5t3.5 16.5v128q45 6 71 7v-156h153v-58h-153v-294q0 -63 13.5 -84t53.5 -21z" />
    <glyph glyph-name="f_i" horiz-adv-x="597" 
d="M496 512v-451q48 -4 75 -7v-54h-227v54q24 3 76 7v395h-225v-396q42 -1 91 -6v-54h-243v54q12 1 37.5 2.5t38.5 2.5v397h-78v50q13 1 39 2.5t39 1.5v62q0 110 96 132q11 2 110 18l7 -52q-50 -10 -87 -21q-30 -8 -40 -28.5t-10 -59.5v-49h301zM455 611q-20 0 -33.5 12
t-13.5 31q0 20 13.5 32t33.5 12q21 0 34.5 -12t13.5 -32q0 -19 -13.5 -31t-34.5 -12z" />
    <glyph glyph-name="f_j" horiz-adv-x="573" 
d="M496 512v-435q0 -62 -17.5 -97t-72.5 -86q-18 -16 -56 -42l-33 35q20 20 33 35q40 42 55 74.5t15 81.5v378h-225v-396q42 -1 91 -6v-54h-243v54q12 1 37.5 2.5t38.5 2.5v397h-78v50q13 1 39 2.5t39 1.5v62q0 110 96 132q11 2 110 18l7 -52q-50 -10 -87 -21
q-30 -8 -40 -28.5t-10 -59.5v-49h301zM453 611q-20 0 -33.5 12t-13.5 31q0 20 13.5 32t33.5 12q21 0 34.5 -12t13.5 -32q0 -19 -13.5 -31t-34.5 -12z" />
    <glyph glyph-name="f_l" horiz-adv-x="666" 
d="M195 456v-396q42 -1 91 -6v-54h-243v54q12 1 37.5 2.5t38.5 2.5v397h-78v50q13 1 39 2.5t39 1.5v62q0 110 96 132q11 2 110 18l7 -52q-50 -10 -87 -21q-30 -8 -40 -28.5t-10 -59.5v-49h156v-56h-156zM553 700v-641q14 -1 76 -5v-54h-228v54q62 4 76 5v582q-25 1 -70 5v54
h146z" />
    <glyph glyph-name="f_t" horiz-adv-x="701" 
d="M554 55h9q59 0 95 3v-45q-64 -23 -129 -23h-10q-58 0 -83 31.5t-25 105.5v327h-216v-394q42 -1 91 -6v-54h-243v54q12 1 37.5 2.5t38.5 2.5v397h-78v50q13 1 39 2.5t39 1.5v62q0 110 96 132q11 2 110 18l7 -52q-50 -10 -87 -21q-30 -8 -40 -28.5t-10 -59.5v-49h202
q12 0 15.5 4.5t3.5 16.5v128q45 6 71 7v-156h153v-58h-153v-294q0 -63 13.5 -84t53.5 -21z" />
    <glyph glyph-name="three.ss09" horiz-adv-x="566" 
d="M485 700v-65l-206 -248h55q102 0 133 -31t31 -122v-63q0 -98 -46 -137t-164 -39h-10q-86 0 -231 34v132h54l7 -84q100 -21 150 -21h24q85 0 113 24.5t28 96.5v55q0 67 -22.5 85.5t-107.5 18.5h-87l-22 41l217 257h-335v66h419z" />
    <glyph glyph-name="zero.tf" horiz-adv-x="591" 
d="M320 -10h-46q-119 0 -176 57.5t-58 178.5v244q0 123 57 181t177 58h45q119 0 175.5 -58.5t56.5 -180.5v-243q-1 -121 -57.5 -179t-173.5 -58zM278 56h35q157 0 159 168v250q0 169 -159 169h-35q-159 0 -159 -169v-250q0 -168 159 -168z" />
    <glyph glyph-name="one.tf" horiz-adv-x="591" 
d="M342 703v-639q109 -4 149 -7v-57h-389v57q75 6 161 7v563l-125 -27v57l159 46h45z" />
    <glyph glyph-name="two.tf" horiz-adv-x="591" 
d="M526 177v-177h-460v58q0 116 17 163.5t68 80.5q17 11 41 23t44 21t57.5 25t63.5 28q49 22 68.5 42t19.5 53v31q0 71 -27.5 95t-106.5 24q-96 0 -160 -35l-8 -77h-59v126q116 51 234 51q114 0 159 -41t45 -145v-32q0 -59 -28 -88t-106 -64q-19 -9 -61.5 -26.5t-75.5 -32
t-51 -26.5q-36 -25 -46 -61t-10 -133h320l7 117h55z" />
    <glyph glyph-name="three.tf" horiz-adv-x="591" 
d="M525 529v-29q0 -72 -19 -107t-58 -45q39 -10 58 -41t19 -93v-43q0 -100 -47.5 -138t-172.5 -38q-92 0 -237 34v132h54l7 -84q110 -21 175 -21q88 0 116.5 24t28.5 97v40q0 22 -3.5 38t-8.5 27.5t-18 18.5t-23 11.5t-33 6t-39.5 2t-49.5 0.5h-89v59h89q48 0 70 1t47.5 7
t35 19t16 35t6.5 57v23q0 72 -30.5 98t-114.5 26q-70 0 -164 -27l-7 -93h-54v140q133 42 226 42q124 0 172 -39.5t48 -139.5z" />
    <glyph glyph-name="four.tf" horiz-adv-x="591" 
d="M16 248l364 452h80v-452h99v-51l-99 -7v-130q19 -1 56.5 -3.5t44.5 -2.5v-54h-283v54q53 5 102 6v130h-364v58zM88 248h292v368z" />
    <glyph glyph-name="five.tf" horiz-adv-x="591" 
d="M508 558h-54l-5 80h-298l-12 -267q73 45 168 45h70q150 0 150 -147v-83q0 -109 -50 -151t-186 -42q-92 0 -245 36v131h54l7 -84q112 -21 178 -21q100 0 133.5 28t33.5 107v70q0 98 -91 98h-71q-48 0 -81 -10t-76 -39l-63 19l17 372h421v-142z" />
    <glyph glyph-name="six.tf" horiz-adv-x="591" 
d="M325 420h36q103 0 144.5 -39.5t41.5 -137.5v-58q0 -98 -54.5 -144.5t-164.5 -46.5h-47q-118 0 -177 53.5t-60 168.5v247q0 121 60.5 183.5t179.5 62.5q109 0 233 -33v-127h-65l-11 73q-76 21 -156 21q-161 0 -161 -178v-107q41 21 62 30.5t59.5 20t79.5 11.5zM124 307
v-98q0 -153 159 -151h45q144 0 144 136v41q0 70 -28.5 98.5t-99.5 28.5h-31q-55 0 -96.5 -13t-92.5 -42z" />
    <glyph glyph-name="seven.tf" horiz-adv-x="591" 
d="M546 638l-296 -638h-92v19l314 619h-355l-10 -110h-55v172h494v-62z" />
    <glyph glyph-name="eight.tf" horiz-adv-x="591" 
d="M532 541v-35q0 -64 -28.5 -100.5t-90.5 -48.5q149 -21 149 -161v-18q0 -95 -54.5 -141.5t-169.5 -46.5h-81q-117 0 -172 46.5t-56 141.5v18q0 140 151 160q-121 24 -121 150v35q1 166 214 166h49q107 0 158.5 -41t51.5 -125zM131 535v-33q0 -59 35 -87.5t109 -28.5h42
q74 0 108.5 28t34.5 88v33q0 59 -34 86t-108 28h-43q-74 0 -109 -27.5t-35 -86.5zM482 185v26q0 120 -150 120h-72q-151 0 -151 -120v-26q0 -130 151 -130h72q150 0 150 130z" />
    <glyph glyph-name="nine.tf" horiz-adv-x="591" 
d="M265 281h-35q-103 0 -145 39.5t-42 137.5v59q0 192 214 192h58q122 0 176 -53t55 -172v-250q0 -130 -59.5 -185.5t-196.5 -55.5q-83 0 -212 36v134h70l5 -81q74 -23 137 -23q95 0 136 38.5t41 130.5v113q-39 -21 -62 -31.5t-60.5 -19.5t-79.5 -9zM467 391v104
q0 79 -37 114t-122 35h-45q-145 0 -145 -137v-40q0 -71 29 -99.5t99 -28.5h31q94 0 190 52z" />
    <glyph glyph-name="zero.dnom" horiz-adv-x="413" 
d="M230 -2h-44q-73 0 -104.5 33.5t-32.5 107.5v131q0 74 32 108t105 34h44q72 0 103 -34t31 -108v-131q-1 -74 -32 -107.5t-102 -33.5zM193 42h27q47 0 67 23.5t20 74.5v130q0 50 -20 73.5t-67 23.5h-27q-47 0 -67 -23.5t-20 -73.5v-130q0 -51 20 -74.5t67 -23.5z" />
    <glyph glyph-name="one.dnom" horiz-adv-x="329" 
d="M210 413v-369q58 -2 88 -4v-40h-250v40q71 4 103 5v318l-105 -27v37l128 40h36z" />
    <glyph glyph-name="two.dnom" horiz-adv-x="400" 
d="M349 117v-117h-300v42q0 71 16.5 105t63.5 53q43 16 90 30q42 14 59 28.5t17 37.5v14q0 34 -17 46t-66 12q-71 0 -105 -15l-5 -52h-42v86q72 26 152 26q75 0 105.5 -21.5t30.5 -79.5v-24q0 -66 -95 -97q-8 -3 -42.5 -14t-40.5 -13q-42 -16 -54.5 -38.5t-12.5 -81.5h203
l5 73h38z" />
    <glyph glyph-name="three.dnom" horiz-adv-x="371" 
d="M322 306v-11q0 -80 -53 -96q29 -6 41 -25.5t12 -57.5v-12q0 -61 -31 -83.5t-112 -22.5q-63 0 -152 20v89h40l5 -54q60 -12 108 -12q51 0 70 14.5t19 53.5v12q0 37 -16.5 50.5t-52.5 13.5h-97v39h97q36 0 52.5 14.5t16.5 52.5v10q0 40 -18.5 54t-70.5 14t-104 -14l-5 -53
h-37v87q81 24 145 24q82 0 112.5 -22.5t30.5 -84.5z" />
    <glyph glyph-name="four.dnom" horiz-adv-x="434" 
d="M305 111v-68q14 -1 78 -5v-38h-224v38q81 5 87 5v67h-230v41l230 260h59v-260h80v-37zM246 363l-180 -212h180v212z" />
    <glyph glyph-name="five.dnom" horiz-adv-x="411" 
d="M349 405v-102h-39l-3 58h-190l-7 -147q50 28 118 28h27q58 0 82.5 -24t24.5 -87v-17q0 -60 -35 -87.5t-108 -28.5h-12q-65 0 -158 21v98h38l4 -63q59 -12 106 -12h14q49 1 72 18.5t23 56.5v14q0 42 -13.5 58t-50.5 16h-26q-68 0 -112 -30l-46 11l10 219h281z" />
    <glyph glyph-name="six.dnom" horiz-adv-x="424" 
d="M223 241h37q60 0 87.5 -27.5t27.5 -86.5v-10q0 -62 -34 -90.5t-107 -28.5h-31q-155 0 -155 136v131q0 72 37 110.5t107 38.5h13q66 0 149 -20v-91h-45l-6 54q-43 11 -103 11q-96 0 -96 -102v-58q17 14 52.5 23.5t66.5 9.5zM104 170v-44q0 -85 102 -83h26q47 0 67.5 17.5
t20.5 58.5v11q0 40 -16.5 57t-54.5 17h-35q-52 0 -110 -34z" />
    <glyph glyph-name="seven.dnom" horiz-adv-x="346" 
d="M330 361l-183 -361h-64v12l191 349h-213l-7 -63h-38v107h314v-44z" />
    <glyph glyph-name="eight.dnom" horiz-adv-x="436" 
d="M371 311v-15q0 -69 -68 -85q85 -14 85 -96v-11q0 -56 -33.5 -81t-110.5 -25h-49q-78 0 -112.5 25t-34.5 81v11q0 82 86 96q-69 16 -69 85v15q1 53 33.5 77t102.5 24h36q70 0 102 -24t32 -77zM117 307v-16q0 -32 20 -46t64 -14h35q44 0 63.5 14t19.5 46v16q0 64 -87 64
h-28q-87 0 -87 -64zM332 107v14q0 37 -21 53.5t-66 16.5h-53q-45 0 -66 -16.5t-21 -53.5v-14q0 -36 21.5 -51.5t72.5 -14.5h38q51 0 73 15.5t22 50.5z" />
    <glyph glyph-name="nine.dnom" horiz-adv-x="413" 
d="M191 160h-36q-61 0 -87.5 27t-26.5 91v19q0 61 33 89t104 28h35q151 0 152 -134v-135q0 -147 -145 -147h-11q-64 0 -147 20v87h45l4 -54q43 -12 104 -12q95 0 95 102v58q-53 -41 -119 -39zM310 234v54q0 83 -101 81h-27q-47 0 -67.5 -17.5t-20.5 -58.5v-9
q0 -45 16.5 -63.5t55.5 -18.5h33q61 0 111 32z" />
    <glyph glyph-name="zero.numr" horiz-adv-x="413" 
d="M230 293h-44q-73 0 -104.5 33.5t-32.5 107.5v131q0 74 32 108t105 34h44q72 0 103 -34t31 -108v-131q-1 -74 -32 -107.5t-102 -33.5zM193 337h27q47 0 67 23.5t20 74.5v130q0 50 -20 73.5t-67 23.5h-27q-47 0 -67 -23.5t-20 -73.5v-130q0 -51 20 -74.5t67 -23.5z" />
    <glyph glyph-name="one.numr" horiz-adv-x="329" 
d="M210 708v-369q58 -2 88 -4v-40h-250v40q71 4 103 5v318l-105 -27v37l128 40h36z" />
    <glyph glyph-name="two.numr" horiz-adv-x="400" 
d="M349 412v-117h-300v42q0 71 16.5 105t63.5 53q43 16 90 30q42 14 59 28.5t17 37.5v14q0 34 -17 46t-66 12q-71 0 -105 -15l-5 -52h-42v86q72 26 152 26q75 0 105.5 -21.5t30.5 -79.5v-24q0 -66 -95 -97q-8 -3 -42.5 -14t-40.5 -13q-42 -16 -54.5 -38.5t-12.5 -81.5h203
l5 73h38z" />
    <glyph glyph-name="three.numr" horiz-adv-x="371" 
d="M322 601v-11q0 -80 -53 -96q29 -6 41 -25.5t12 -57.5v-12q0 -61 -31 -83.5t-112 -22.5q-63 0 -152 20v89h40l5 -54q60 -12 108 -12q51 0 70 14.5t19 53.5v12q0 37 -16.5 50.5t-52.5 13.5h-97v39h97q36 0 52.5 14.5t16.5 52.5v10q0 40 -18.5 54t-70.5 14t-104 -14l-5 -53
h-37v87q81 24 145 24q82 0 112.5 -22.5t30.5 -84.5z" />
    <glyph glyph-name="four.numr" horiz-adv-x="434" 
d="M305 406v-68q14 -1 78 -5v-38h-224v38q81 5 87 5v67h-230v41l230 260h59v-260h80v-37zM246 658l-180 -212h180v212z" />
    <glyph glyph-name="five.numr" horiz-adv-x="411" 
d="M349 700v-102h-39l-3 58h-190l-7 -147q50 28 118 28h27q58 0 82.5 -24t24.5 -87v-17q0 -60 -35 -87.5t-108 -28.5h-12q-65 0 -158 21v98h38l4 -63q59 -12 106 -12h14q49 1 72 18.5t23 56.5v14q0 42 -13.5 58t-50.5 16h-26q-68 0 -112 -30l-46 11l10 219h281z" />
    <glyph glyph-name="six.numr" horiz-adv-x="424" 
d="M223 536h37q60 0 87.5 -27t27.5 -87v-10q0 -62 -34 -90.5t-107 -28.5h-31q-155 0 -155 136v131q0 72 37 110.5t107 38.5h13q66 0 149 -20v-91h-45l-6 54q-43 11 -103 11q-96 0 -96 -102v-58q17 14 52.5 23.5t66.5 9.5zM104 465v-44q0 -85 102 -83h26q47 0 67.5 17.5
t20.5 58.5v11q0 40 -16.5 57t-54.5 17h-35q-52 0 -110 -34z" />
    <glyph glyph-name="seven.numr" horiz-adv-x="346" 
d="M330 656l-183 -361h-64v12l191 349h-213l-7 -63h-38v107h314v-44z" />
    <glyph glyph-name="eight.numr" horiz-adv-x="436" 
d="M371 606v-15q0 -69 -68 -85q85 -14 85 -96v-11q0 -56 -33.5 -81t-110.5 -25h-49q-78 0 -112.5 25t-34.5 81v11q0 82 86 96q-69 16 -69 85v15q1 53 33.5 77t102.5 24h36q70 0 102 -24t32 -77zM117 602v-16q0 -32 20 -46t64 -14h35q44 0 63.5 14t19.5 46v16q0 64 -87 64
h-28q-87 0 -87 -64zM332 402v14q0 37 -21 53.5t-66 16.5h-53q-45 0 -66 -16.5t-21 -53.5v-14q0 -36 21.5 -51.5t72.5 -14.5h38q51 0 73 15.5t22 50.5z" />
    <glyph glyph-name="nine.numr" horiz-adv-x="413" 
d="M191 455h-36q-61 0 -87.5 27t-26.5 91v19q0 61 33 89t104 28h35q151 0 152 -134v-135q0 -147 -145 -147h-11q-64 0 -147 20v87h45l4 -54q44 -12 104 -12q95 0 95 102v58q-53 -41 -119 -39zM310 529v54q0 83 -101 81h-27q-47 0 -67.5 -17.5t-20.5 -58.5v-9
q0 -45 16.5 -63.5t55.5 -18.5h33q61 0 111 32z" />
    <glyph glyph-name="backslash.case" horiz-adv-x="419" 
d="M40 758l392 -852h-50l-392 852h50z" />
    <glyph glyph-name="bullet.case" horiz-adv-x="322" 
d="M201 240q-189 0 -189 173q0 178 189 178t189 -178q0 -173 -189 -173z" />
    <glyph glyph-name="exclamdown.case" horiz-adv-x="220" 
d="M109 704q49 0 49 -45q0 -46 -49 -46t-49 46q0 45 49 45zM67 0v86l20 417h44l20 -417v-86h-84z" />
    <glyph glyph-name="periodcentered.case" horiz-adv-x="191" 
d="M96 305q-49 0 -49 45q0 46 49 46t49 -46q0 -45 -49 -45z" />
    <glyph glyph-name="questiondown.case" horiz-adv-x="498" 
d="M296 704q49 0 49 -45q0 -46 -49 -46t-49 46q0 45 49 45zM477 166v-124q-70 -30 -117.5 -40.5t-114.5 -10.5q-115 0 -160.5 38.5t-45.5 139.5v29q0 58 19 89t64 49q29 11 82.5 31t62.5 24v116h59l11 -156q-96 -35 -156 -59q-36 -15 -50.5 -36.5t-14.5 -54.5v-28
q0 -72 27 -96t109 -24q87 0 158 35l8 78h59z" />
    <glyph glyph-name="slash.case" horiz-adv-x="419" 
d="M37 -63h-50l392 852h50z" />
    <glyph glyph-name="numbersign.ss10" horiz-adv-x="513" 
d="M368 430h95v-53h-102l-18 -105h-55l17 105h-130l-17 -105h-55l17 105h-81v53h89l20 118h-88v53h96l16 99h55l-16 -99h130l16 99h55l-16 -99h75v-53h-83zM203 548l-20 -118h130l20 118h-130z" />
    <glyph glyph-name="braceleft.case" horiz-adv-x="354" 
d="M188 584v-480q0 -62 26.5 -96t97.5 -72l-16 -35q-92 40 -134 83.5t-42 119.5v213l-88 6v57l88 7v197q0 77 42 120.5t134 82.5l16 -35q-71 -38 -97.5 -72t-26.5 -96z" />
    <glyph glyph-name="braceright.case" horiz-adv-x="354" 
d="M166 104v480q0 62 -26.5 96t-97.5 72l16 35q92 -39 134 -82.5t42 -120.5v-197l88 -7v-57l-88 -6v-213q0 -76 -42 -119.5t-134 -83.5l-16 35q71 38 97.5 72t26.5 96z" />
    <glyph glyph-name="bracketleft.case" horiz-adv-x="328" 
d="M290 715h-153v-738h153v-52h-221v843h221v-53z" />
    <glyph glyph-name="bracketright.case" horiz-adv-x="328" 
d="M259 768v-843h-221v52h153v738h-153v53h221z" />
    <glyph glyph-name="parenleft.case" horiz-adv-x="276" 
d="M114 593v-480q0 -62 26.5 -96t97.5 -72l-16 -35q-92 40 -134.5 83.5t-42.5 119.5v480q0 77 42.5 120.5t134.5 82.5l16 -35q-71 -38 -97.5 -72t-26.5 -96z" />
    <glyph glyph-name="parenright.case" horiz-adv-x="280" 
d="M166 113v480q0 62 -26.5 96t-97.5 72l16 35q92 -39 134.5 -82.5t42.5 -120.5v-480q0 -76 -42.5 -119.5t-134.5 -83.5l-16 35q71 38 97.5 72t26.5 96z" />
    <glyph glyph-name="emdash.case" horiz-adv-x="796" 
d="M747 323h-698v62h698v-62z" />
    <glyph glyph-name="endash.case" horiz-adv-x="497" 
d="M448 323h-399v62h399v-62z" />
    <glyph glyph-name="hyphen.case" horiz-adv-x="329" 
d="M324 322h-275v64h275v-64z" />
    <glyph glyph-name="guillemotleft.case" horiz-adv-x="494" 
d="M276 152v-25h-45l-172 195v6l172 195h45v-26l-140 -169v-6zM453 152v-25h-45l-172 195v6l172 195h45v-26l-140 -169v-6z" />
    <glyph glyph-name="guillemotright.case" horiz-adv-x="494" 
d="M211 328l-140 169v26h45l172 -195v-6l-172 -195h-45v25l140 170v6zM387 328l-140 169v26h45l172 -195v-6l-172 -195h-45v25l140 170v6z" />
    <glyph glyph-name="guilsinglleft.case" horiz-adv-x="306" 
d="M258 181v-25h-45l-172 195v6l172 195h45v-26l-140 -169v-6z" />
    <glyph glyph-name="guilsinglright.case" horiz-adv-x="306" 
d="M181 357l-140 169v26h45l172 -195v-6l-172 -195h-45v25l140 170v6z" />
    <glyph glyph-name="florin.tf" horiz-adv-x="591" 
d="M474 432v-59h-148l-39 -262q-10 -60 -31.5 -90t-71.5 -41q-4 -1 -100 -15l-10 43q24 5 68 18q35 10 46.5 28.5t18.5 59.5l39 259h-82v53q75 4 92 5l20 133q9 60 31 90t72 42q24 5 112 18l7 -52q-33 -7 -79 -21q-35 -10 -47 -29t-18 -59l-18 -121h138z" />
    <glyph glyph-name="cent.tf" horiz-adv-x="591" 
d="M511 123v-54q-29 -37 -78 -58t-104 -21h-2v-62h-60v62q-95 2 -140.5 50t-45.5 143v151q0 91 49 139t140 51v68h59v-68q88 -3 175 -38v-128h-57l-8 83q-55 24 -128 25v-415h15q92 0 122 61l4 11h59zM157 328v-147q0 -67 32.5 -98t95.5 -32v415q-128 -3 -128 -138z" />
    <glyph glyph-name="dollar.tf" horiz-adv-x="591" 
d="M312 403l108 -24q74 -18 103 -53.5t29 -108.5v-43q0 -97 -51.5 -137t-176.5 -41v-68h-60v69q-108 4 -219 55v155h64l11 -111q67 -33 161 -38v278l-112 26q-73 19 -100 52.5t-27 103.5v14q0 91 52.5 131.5t171.5 41.5v73h61v-74q106 -4 205 -45v-159h-61l-12 111
q-61 29 -147 32v-240zM281 410v233h-6q-82 0 -116.5 -25t-34.5 -83v-12q0 -41 17.5 -63t60.5 -32zM473 174v31q0 51 -21.5 74t-80.5 37l-59 13v-271h5q88 0 122 25t34 91z" />
    <glyph glyph-name="Euro.tf" horiz-adv-x="591" 
d="M495 515l-6 102q-27 13 -64.5 19.5t-56 7t-64.5 0.5q-159 0 -159 -171v-57h289l-8 -37h-281v-65h254l-9 -37h-245v-67q1 -154 159 -154h36q121 0 164 97h55v-51q-71 -112 -215 -112h-47q-231 0 -231 215v72h-60v37h60v65h-60v37h60v57q0 236 232 236h24q142 0 230 -40
v-154h-57z" />
    <glyph glyph-name="sterling.tf" horiz-adv-x="591" 
d="M561 0h-534v57q54 45 81.5 91.5t17.5 109.5l-4 27h-101v47h99l-22 136q-16 114 31 177.5t163 63.5h45q111 0 212 -40l-8 -160h-59l-9 110q-55 25 -168 25h-10q-71 0 -103 -45t-17 -129l25 -138h229l-8 -47h-217l4 -22q10 -60 -15 -107t-78 -92h382l10 124h54v-188z" />
    <glyph glyph-name="yen.tf" horiz-adv-x="591" 
d="M580 700v-57q-57 -4 -80 -5l-145 -329h157v-35h-172l-10 -23v-52h182v-35h-182v-102q23 -1 83 -5v-57h-248v57q58 4 85 4v103h-182v35h182v50l-11 25h-171v35h156l-143 330q-23 0 -77 4v57h231v-57l-76 -3l134 -325h1l139 324q-12 0 -38.5 1.5t-41.5 2.5v57h227z" />
    <glyph glyph-name="arrowdown.ss13" horiz-adv-x="802" 
d="M402 75q115 0 195.5 81t80.5 197q0 115 -80.5 196t-195.5 81t-196.5 -81t-81.5 -196t81 -196.5t197 -81.5zM413 198h-22l-138 138l27 27l102 -103v242h40v-243l101 104l27 -27z" />
    <glyph glyph-name="arrowdownleft.ss13" horiz-adv-x="803" 
d="M205 154q81 -82 195.5 -81.5t196.5 82.5q81 81 81.5 195.5t-81.5 195.5q-82 82 -196.5 82t-195.5 -81q-82 -82 -82 -197t82 -196zM299 233l-15 15v195h37v-145l171 172l29 -29l-172 -170h145v-38h-195z" />
    <glyph glyph-name="arrowdownright.ss13" horiz-adv-x="803" 
d="M592 154q82 81 82 196t-82 197q-81 81 -195.5 81t-196.5 -82q-81 -81 -80.5 -195.5t81.5 -195.5q82 -82 196 -82.5t195 81.5zM303 270h146l-173 171l29 29l171 -172v145h37v-195l-15 -15h-195v37z" />
    <glyph glyph-name="arrowleft.ss13" horiz-adv-x="802" 
d="M124 352q0 -115 81 -195.5t197 -80.5q115 0 196 80.5t81 195.5t-81 196.5t-196 81.5q-116 0 -197 -81t-81 -197zM247 341v21l138 139l27 -27l-103 -102h242v-40h-243l104 -102l-27 -27z" />
    <glyph glyph-name="arrowright.ss13" horiz-adv-x="802" 
d="M679 352q0 116 -81.5 197t-196.5 81t-196 -81.5t-81 -196.5t81 -195.5t196 -80.5q116 0 197 80.5t81 195.5zM391 230l104 102h-243v40h242l-103 102l27 27l138 -139v-21l-138 -138z" />
    <glyph glyph-name="arrowup.ss13" horiz-adv-x="802" 
d="M402 630q-116 0 -197 -81t-81 -197q0 -115 81.5 -196t196.5 -81t195.5 81t80.5 196q0 116 -80.5 197t-195.5 81zM523 342l-101 104v-243h-40v242l-102 -103l-27 27l138 138h22l137 -138z" />
    <glyph glyph-name="arrowupleft.ss13" horiz-adv-x="803" 
d="M205 551q-82 -81 -82 -196t82 -197q81 -81 195.5 -81t196.5 82q82 81 81.5 195.5t-81.5 195.5q-82 82 -196.5 82.5t-195.5 -81.5zM494 435h-145l172 -172l-29 -29l-171 172v-145h-37v196l15 15h195v-37z" />
    <glyph glyph-name="arrowupright.ss13" horiz-adv-x="803" 
d="M592 551q-81 82 -195 81.5t-196 -82.5q-81 -81 -81.5 -195.5t80.5 -195.5q82 -82 196.5 -82t195.5 81q82 82 82 197t-82 196zM498 472l16 -15v-196h-38v145l-171 -172l-29 29l173 171h-146v38h195z" />
    <glyph glyph-name="at.case" horiz-adv-x="1051" 
d="M736 569l-39 -347q-5 -47 12 -60.5t54 -13.5q79 0 128 72t49 194q0 153 -97 242t-265 89q-216 0 -341.5 -123.5t-125.5 -322.5q0 -169 109.5 -267t293.5 -98q165 0 307 72l14 -30q-63 -35 -149.5 -56.5t-172.5 -21.5q-201 0 -320.5 107.5t-119.5 292.5q0 216 137 349
t369 133q183 0 291.5 -98t108.5 -265q0 -140 -64.5 -223.5t-175.5 -83.5q-23 0 -36.5 1.5t-31.5 6.5t-28 19t-13 36q-40 -41 -76.5 -59.5t-97.5 -18.5h-18q-77 0 -116 47.5t-30 141.5l12 130q7 75 52 115t112 40h25q89 0 168 -45l4 45h71zM631 225l24 251q-66 41 -145 41
h-25q-105 0 -116 -128l-7 -93q-5 -77 19 -111.5t85 -34.5h15q49 0 79.5 15.5t69.5 50.5z" />
    <glyph glyph-name="ampersand.ss11" horiz-adv-x="745" 
d="M714 399v-55q-74 -4 -95 -5v-75q0 -143 -60 -206.5t-200 -63.5h-64q-136 0 -196 45.5t-60 161.5v17q0 74 43 115.5t109 46.5q-70 44 -70 140v22q0 88 47 127.5t142 39.5h15q71 0 164 -29v-120h-54l-8 73q-40 14 -107 14h-15q-118 0 -118 -108v-27q0 -48 30.5 -80.5
t78.5 -32.5h99v-56h-146q-61 0 -99 -30.5t-38 -94.5v-12q0 -82 40 -114.5t129 -32.5h75q109 0 153.5 47.5t43.5 157.5v75q-24 1 -88 5v55h249z" />
    <glyph glyph-name="copyright.ss12" horiz-adv-x="433" 
d="M217 344q-88 0 -136.5 49t-48.5 137q0 87 48.5 136t136.5 49q87 0 135.5 -49t48.5 -136q0 -88 -48.5 -137t-135.5 -49zM217 368q75 0 117.5 42t42.5 120t-42.5 120t-117.5 42q-76 0 -118 -42t-42 -120q0 -79 42 -120.5t118 -41.5zM293 485v-21q-25 -34 -70 -34h-14
q-76 0 -78 77v42q0 81 78 81h12q37 0 71 -14v-57h-25l-5 36q-16 8 -50 8q-49 0 -49 -56v-39q0 -49 50 -49h7q39 0 47 26h26z" />
    <glyph glyph-name="acute.case" 
d="M334 869l-1 -12l-125 -109l-33 22l99 128z" />
    <glyph glyph-name="breve.case" 
d="M375 877v-15q0 -53 -32.5 -83t-92.5 -30t-93 29.5t-33 83.5v15h47v-8q0 -71 79 -71q78 0 78 71v8h47z" />
    <glyph glyph-name="caron.case" 
d="M273 754h-46l-112 114l24 20l111 -88l111 88l24 -20z" />
    <glyph glyph-name="circumflex.case" 
d="M362 753l-112 89l-113 -89l-25 21l114 116h48l113 -116z" />
    <glyph glyph-name="dieresis.case" 
d="M158 780q-19 0 -31.5 11t-12.5 29t12.5 29t31.5 11q18 0 30.5 -11t12.5 -29t-12.5 -29t-30.5 -11zM342 780q-18 0 -30.5 11t-12.5 29t12.5 29t30.5 11q19 0 31.5 -11t12.5 -29t-12.5 -29t-31.5 -11z" />
    <glyph glyph-name="dotaccent.case" 
d="M250 779q-19 0 -32 11.5t-13 29.5t13 29.5t32 11.5t32 -11.5t13 -29.5t-13 -29.5t-32 -11.5z" />
    <glyph glyph-name="grave.case" 
d="M324 771l-32 -21l-122 107l-1 12l58 28z" />
    <glyph glyph-name="hungarumlaut.case" 
d="M262 875l-1 -11l-114 -112l-29 20l97 126zM383 875l-1 -11l-114 -112l-29 20l97 126z" />
    <glyph glyph-name="macron.case" 
d="M377 822v-49h-254v49h254z" />
    <glyph glyph-name="ring.case" 
d="M260 745h-20q-32 0 -51.5 18.5t-19.5 50.5v19q0 32 19 50t52 18h20q32 0 51 -18.5t19 -49.5v-19q0 -32 -19 -50.5t-51 -18.5zM242 777h15q37 0 39 38v17q0 18 -10.5 28.5t-28.5 10.5h-15q-18 0 -28.5 -10.5t-10.5 -28.5v-17q0 -18 10.5 -28t28.5 -10z" />
    <glyph glyph-name="tilde.case" 
d="M418 856l-69 -73q-21 -23 -46 -23q-12 0 -25.5 10.5t-36 30.5t-42.5 34l-91 -73l-24 20l65 69q25 28 49 28q13 0 27.5 -11t36.5 -31t41 -33l91 72z" />
    <glyph glyph-name="caron.alt" 
d="M296 727v-17l-42 -143h-41l22 160h61z" />
    </font>
</defs>
</svg>
