<?xml version="1.0" standalone="no"?>
<!DOCTYPE svg PUBLIC "-//W3C//DTD SVG 1.1//EN" "http://www.w3.org/Graphics/SVG/1.1/DTD/svg11.dtd" >
<svg xmlns="http://www.w3.org/2000/svg" xmlns:xlink="http://www.w3.org/1999/xlink" version="1.1">
<metadata>
Created by FontForge 20150102 at Tue Feb  3 16:00:41 2015
 By uniteet7
Copyright (c) 2012 by Rene Bieder. All rights reserved.
</metadata>
<defs>
<font id="ReneBiederQuadonThin" horiz-adv-x="570" >
  <font-face 
    font-family="ReneBiederQuadonThin"
    font-weight="250"
    font-stretch="normal"
    units-per-em="1000"
    panose-1="0 0 3 0 0 0 0 0 0 0"
    ascent="800"
    descent="-200"
    x-height="500"
    cap-height="700"
    bbox="-180 -172 1190 908"
    underline-thickness="50"
    underline-position="-90"
    unicode-range="U+0020-2212"
  />
<missing-glyph horiz-adv-x="683" 
d="M8 0l-8 9l674 691l9 -8z" />
    <glyph glyph-name="f_f" unicode="ff" horiz-adv-x="638" 
d="M449 484v-467q25 0 95 -2v-15h-200v15q62 2 85 2v467h-274v-467q25 0 95 -2v-15h-200v15q62 2 85 2v467h-85v14q14 0 42.5 1t42.5 1v70q0 51 15 78.5t57 38.5q40 10 84 18l3 -13q-38 -9 -81 -21q-36 -11 -47 -35t-11 -74v-62h274v70q0 51 15 78.5t57 38.5q40 10 84 18
l3 -13q-38 -9 -81 -21q-36 -11 -47 -35t-11 -74v-62h159v-16h-159z" />
    <glyph glyph-name="f_f_i" unicode="ffi" horiz-adv-x="821" 
d="M706 500v-483q21 0 85 -2v-15h-190v15q64 2 85 2v467h-237v-467q25 0 95 -2v-15h-200v15q62 2 85 2v467h-274v-467q25 0 95 -2v-15h-200v15q62 2 85 2v467h-85v14q14 0 42.5 1t42.5 1v70q0 51 15 78.5t57 38.5q40 10 84 18l3 -13q-38 -9 -81 -21q-36 -11 -47 -35t-11 -74
v-62h274v70q0 51 15 78.5t57 38.5q40 10 84 18l3 -13q-38 -9 -81 -21q-36 -11 -47 -35t-11 -74v-62h257zM693 626q-19 0 -19 17q0 18 19 18t19 -18q0 -17 -19 -17z" />
    <glyph glyph-name="f_f_l" unicode="ffl" horiz-adv-x="874" 
d="M449 500h159v-16h-159v-467q25 0 95 -2v-15h-200v15q62 2 85 2v467h-274v-467q25 0 95 -2v-15h-200v15q62 2 85 2v467h-85v14q14 0 42.5 1t42.5 1v70q0 51 15 78.5t57 38.5q40 10 84 18l3 -13q-38 -9 -81 -21q-36 -11 -47 -35t-11 -74v-62h274v70q0 51 15 78.5t57 38.5
q40 10 84 18l3 -13q-38 -9 -81 -21q-36 -11 -47 -35t-11 -74v-62zM744 700v-683q21 0 85 -2v-15h-190v15q64 2 85 2v665l-78 3v15h98z" />
    <glyph glyph-name=".notdef" horiz-adv-x="683" 
d="M8 0l-8 9l674 691l9 -8z" />
    <glyph glyph-name=".null" horiz-adv-x="0" 
 />
    <glyph glyph-name="nonmarkingreturn" horiz-adv-x="333" 
 />
    <glyph glyph-name="space" unicode=" " horiz-adv-x="250" 
 />
    <glyph glyph-name="exclam" unicode="!" horiz-adv-x="202" 
d="M112 700v-62l-6 -465h-10l-6 465v62h22zM101 -3q-21 0 -21 19q0 20 21 20t21 -20q0 -19 -21 -19z" />
    <glyph glyph-name="quotedbl" unicode="&#x22;" horiz-adv-x="236" 
d="M86 700v-21q0 -96 -16 -213h-10v234h26zM176 700v-21q0 -96 -16 -213h-10v234h26z" />
    <glyph glyph-name="numbersign" unicode="#" horiz-adv-x="639" 
d="M455 234h134v-18h-137l-40 -216h-21l40 216h-275l-40 -216h-21l40 216h-105v18h108l46 248h-124v18h127l37 200h21l-37 -200h275l37 200h21l-37 -200h105v-18h-108zM205 482l-46 -248h275l46 248h-275z" />
    <glyph glyph-name="dollar" unicode="$" horiz-adv-x="654" 
d="M328 387l108 -24q72 -17 100 -52t28 -107v-44q0 -92 -47.5 -129t-167.5 -37h-13h-8v-69h-19v70q-124 4 -219 62v139h15l6 -130q88 -48 198 -52v356l-108 24q-63 15 -87 46.5t-24 91.5v16q0 85 49.5 122t165.5 37h4v71h19v-71q121 -3 216 -53v-139h-15l-6 130
q-81 40 -195 43v-301zM309 391v297h-4q-104 0 -149 -32.5t-45 -107.5v-15q0 -53 21 -80t75 -40zM543 165v38q0 65 -25 95.5t-90 45.5l-100 22v-353h10h11q108 0 151 33.5t43 118.5z" />
    <glyph glyph-name="percent" unicode="%" horiz-adv-x="822" 
d="M185 709h54q72 0 98.5 -38.5t26.5 -122.5v-53q0 -84 -26.5 -122.5t-98.5 -38.5h-54q-72 0 -98.5 38.5t-26.5 122.5v53q0 84 26.5 122.5t98.5 38.5zM147 0h-22l275 356l262 344h22zM239 690h-54q-62 0 -83 -34.5t-21 -112.5v-43q0 -78 21 -112.5t83 -34.5h54q62 0 83 34.5
t21 112.5v43q0 78 -21 112.5t-83 34.5zM583 367h54q72 0 98.5 -38.5t26.5 -122.5v-53q0 -84 -26.5 -122.5t-98.5 -38.5h-54q-72 0 -98.5 38.5t-26.5 122.5v53q0 84 26.5 122.5t98.5 38.5zM637 348h-54q-62 0 -83 -34.5t-21 -112.5v-43q0 -78 21 -112.5t83 -34.5h54
q62 0 83 34.5t21 112.5v43q0 78 -21 112.5t-83 34.5z" />
    <glyph glyph-name="ampersand" unicode="&#x26;" horiz-adv-x="760" 
d="M710 396v-15q-59 -2 -90 -2q-22 -170 -78 -278l86 -84q51 0 92 -2v-15h-104l-84 83q-32 -52 -77.5 -69.5t-135.5 -17.5h-54q-108 0 -161.5 45t-53.5 156v26q0 74 44.5 112t123.5 63q-31 33 -44.5 64.5t-13.5 79.5v6q0 85 36 122t119 37h13q84 0 176 -39v-93h-15l-6 84
q-70 29 -157 29h-11q-72 0 -103 -32.5t-31 -107.5v-8q0 -51 16.5 -80.5t65.5 -83.5l265 -261q56 108 75 281h107zM71 218v-16q0 -103 49 -145t145 -42h54q87 0 127.5 16t72.5 66l-288 286q-38 -12 -62 -22.5t-49 -29t-37 -46.5t-12 -67z" />
    <glyph glyph-name="quotesingle" unicode="'" horiz-adv-x="146" 
d="M86 700v-21q0 -96 -16 -213h-10v234h26z" />
    <glyph glyph-name="parenleft" unicode="(" horiz-adv-x="264" 
d="M79 526v-482q0 -67 29 -105.5t106 -77.5l-4 -11q-81 38 -115.5 81t-34.5 113v482q0 70 34.5 113t115.5 81l4 -11q-77 -39 -106 -77.5t-29 -105.5z" />
    <glyph glyph-name="parenright" unicode=")" horiz-adv-x="264" 
d="M185 44v482q0 67 -29 105.5t-106 77.5l4 11q81 -38 115.5 -81t34.5 -113v-482q0 -70 -34.5 -113t-115.5 -81l-4 11q77 39 106 77.5t29 105.5z" />
    <glyph glyph-name="asterisk" unicode="*" horiz-adv-x="357" 
d="M307 493l-9 -15l-27 16l-89 58l5 -107v-31h-17v31l6 107l-90 -58l-27 -16l-9 15l27 15l95 49l-95 49l-27 15l9 15l27 -16l90 -57l-6 106v31h17v-31l-5 -106l89 57l27 16l9 -15l-27 -15l-95 -49l95 -49z" />
    <glyph glyph-name="plus" unicode="+" horiz-adv-x="598" 
d="M70 343v18h219v230h20v-230h219v-18h-219v-230h-20v230h-219z" />
    <glyph glyph-name="comma" unicode="," horiz-adv-x="160" 
d="M61 2v17q0 19 22 14q8 -2 11 -3.5t5.5 -5t2.5 -9.5q0 -46 -53 -117l-7 5q39 59 39 94z" />
    <glyph glyph-name="hyphen" unicode="-" horiz-adv-x="368" 
d="M308 307v-20h-248v20h248z" />
    <glyph glyph-name="period" unicode="." horiz-adv-x="162" 
d="M81 -3q-21 0 -21 19q0 20 21 20t21 -20q0 -19 -21 -19z" />
    <glyph glyph-name="slash" unicode="/" horiz-adv-x="393" 
d="M403 782l-392 -852h-21l392 852h21z" />
    <glyph glyph-name="zero" unicode="0" horiz-adv-x="654" 
d="M349 -8h-44q-106 0 -160.5 56t-54.5 165v273q0 109 54.5 165t160.5 56h44q106 0 160.5 -56t54.5 -165v-273q0 -109 -54.5 -165t-160.5 -56zM305 11h44q95 0 144.5 52.5t49.5 154.5v263q0 102 -49.5 154.5t-144.5 52.5h-44q-95 0 -144.5 -52.5t-49.5 -154.5v-263
q0 -102 49.5 -154.5t144.5 -52.5z" />
    <glyph glyph-name="one" unicode="1" horiz-adv-x="345" 
d="M195 700v-683q28 0 100 -2v-15h-235v15q82 2 114 2v661l-124 -38v16l130 44h15z" />
    <glyph glyph-name="two" unicode="2" horiz-adv-x="608" 
d="M518 157v-157h-428v18q0 126 13.5 178t58.5 83q23 16 55 31.5t92.5 41.5t88.5 39q51 23 71 46.5t20 64.5v33q0 92 -35 122.5t-136 30.5q-113 0 -192 -49l-5 -89h-15v99q94 58 212 58q111 0 151.5 -36t40.5 -135v-34q0 -47 -25 -75t-88 -58q-20 -10 -69 -30.5t-88.5 -38.5
t-60.5 -33q-43 -30 -55.5 -77t-12.5 -172h387l4 139h16z" />
    <glyph glyph-name="three" unicode="3" horiz-adv-x="574" 
d="M484 529v-24q0 -73 -18.5 -109t-54.5 -46q73 -21 73 -132v-48q0 -101 -43 -137.5t-164 -36.5q-72 0 -217 38v109h15l5 -99q133 -29 197 -29q113 0 149.5 30.5t36.5 124.5v48q0 26 -4.5 45.5t-11 33t-21.5 22t-27 13.5t-37 7t-42 2.5t-51 0.5h-93v18h93q36 0 54.5 0.5
t43.5 3t36.5 8.5t25.5 16t20 25.5t10 38t4 53.5v24q0 92 -39 125.5t-147 33.5q-79 0 -182 -37l-5 -111h-15v119q109 48 202 48q118 0 162.5 -39t44.5 -139z" />
    <glyph glyph-name="four" unicode="4" horiz-adv-x="586" 
d="M20 204l388 496h21v-496h105v-14l-105 -4v-169q31 0 107 -2v-15h-235v15q76 2 107 2v169h-388v18zM44 204h364v462z" />
    <glyph glyph-name="five" unicode="5" horiz-adv-x="564" 
d="M487 583h-16l-4 99h-351l-16 -337q50 33 90 44t100 11h80q134 0 134 -142v-68q0 -114 -47 -154t-190 -40q-72 0 -217 38v109h15l5 -99q133 -29 197 -29q131 0 173.5 36t42.5 139v68q0 124 -113 124h-80q-60 0 -99 -10t-91 -44l-20 7l19 365h388v-117z" />
    <glyph glyph-name="six" unicode="6" horiz-adv-x="599" 
d="M335 409h30q103 0 143.5 -40.5t40.5 -141.5v-38q0 -194 -207 -194h-37q-108 0 -161.5 47t-53.5 151v283q0 114 54.5 172.5t160.5 58.5q116 0 214 -34v-99h-15l-6 88q-88 26 -193 26q-95 0 -144.5 -55t-49.5 -162v-131q65 37 111.5 53t112.5 16zM111 323v-125
q0 -97 48 -140.5t146 -43.5h37q186 0 186 175v38q0 91 -36 127.5t-127 36.5h-30q-66 0 -111.5 -15.5t-112.5 -52.5z" />
    <glyph glyph-name="seven" unicode="7" horiz-adv-x="552" 
d="M512 682l-332 -682h-22v13l336 669h-424l-4 -129h-16v147h462v-18z" />
    <glyph glyph-name="eight" unicode="8" horiz-adv-x="664" 
d="M554 543v-27q0 -134 -134 -157q164 -18 164 -164v-19q0 -184 -215 -184h-74q-215 0 -215 184v19q0 146 164 164q-134 23 -134 157v27q0 163 205 163h34q205 0 205 -163zM131 543v-27q0 -76 45 -112t139 -36h34q94 0 139 36t45 112v27q0 74 -44.5 109t-139.5 35h-34
q-95 0 -139.5 -35t-44.5 -109zM563 176v19q0 154 -194 154h-74q-194 0 -194 -154v-19q0 -165 194 -165h74q194 0 194 165z" />
    <glyph glyph-name="nine" unicode="9" horiz-adv-x="599" 
d="M264 293h-30q-103 0 -143.5 40.5t-40.5 141.5v38q0 194 207 194h37q115 0 165 -46.5t50 -153.5v-287q0 -123 -54.5 -173.5t-182.5 -50.5q-79 0 -187 38v109h15l5 -99q89 -29 167 -29q116 0 166 46t50 159v142q-65 -37 -111.5 -53t-112.5 -16zM488 379v128q0 97 -45 139
t-149 42h-37q-186 0 -186 -175v-38q0 -91 36 -127.5t127 -36.5h30q66 0 111.5 15.5t112.5 52.5z" />
    <glyph glyph-name="colon" unicode=":" horiz-adv-x="162" 
d="M81 464q-21 0 -21 19q0 20 21 20t21 -20q0 -19 -21 -19zM81 -3q-21 0 -21 19q0 20 21 20t21 -20q0 -19 -21 -19z" />
    <glyph glyph-name="semicolon" unicode=";" horiz-adv-x="162" 
d="M81 464q-21 0 -21 19q0 20 21 20t21 -20q0 -19 -21 -19zM61 2v17q0 19 22 14q8 -2 11 -3.5t5.5 -5t2.5 -9.5q0 -46 -53 -117l-7 5q39 59 39 94z" />
    <glyph glyph-name="less" unicode="&#x3c;" horiz-adv-x="600" 
d="M520 569l-424 -215v-4l424 -215v-14h-17l-443 226v10l448 229h12v-17z" />
    <glyph glyph-name="equal" unicode="=" horiz-adv-x="554" 
d="M484 480v-20h-414v20h414zM484 245v-20h-414v20h414z" />
    <glyph glyph-name="greater" unicode="&#x3e;" horiz-adv-x="600" 
d="M92 586l448 -229v-10l-443 -226h-17v14l424 215v4l-424 215v17h12z" />
    <glyph glyph-name="question" unicode="?" horiz-adv-x="479" 
d="M25 550v99q55 33 101.5 45.5t107.5 12.5q116 0 155.5 -34.5t39.5 -136.5v-34q0 -49 -15.5 -77t-58.5 -47q-26 -11 -76.5 -33.5t-76.5 -33.5v-138h-10l-8 150l153 66q40 17 55.5 43.5t15.5 69.5v33q0 92 -34.5 122.5t-139.5 30.5q-62 0 -100.5 -10t-88.5 -38l-5 -90h-15z
M196 -3q-21 0 -21 19q0 20 21 20t21 -20q0 -19 -21 -19z" />
    <glyph glyph-name="at" unicode="@" horiz-adv-x="1086" 
d="M735 500l-34 -366q-3 -27 1.5 -43t19.5 -22t23.5 -7t29.5 -1q89 0 144 79t55 208q0 155 -104 249.5t-274 94.5q-218 0 -351 -126.5t-133 -334.5q0 -170 115.5 -274.5t303.5 -104.5q76 0 162 20.5t151 54.5l8 -18q-63 -35 -151 -56.5t-170 -21.5q-199 0 -320 110t-121 290
q0 217 139 349.5t367 132.5q180 0 290 -100.5t110 -264.5q0 -137 -60.5 -221t-160.5 -84q-28 0 -44 2t-32.5 17t-17.5 43q-45 -44 -83.5 -63.5t-105.5 -19.5h-20q-169 0 -152 196l10 123q4 77 50 119t116 42h30q99 0 184 -53l4 51h21zM683 138l25 291q-82 54 -182 54h-32
q-59 0 -98 -38t-45 -109l-9 -120q-5 -89 26.5 -132t106.5 -43h19q64 0 101 19.5t87 67.5z" />
    <glyph glyph-name="A" unicode="A" horiz-adv-x="786" 
d="M410 700l244 -683q30 0 102 -2v-15h-205v15q58 2 83 2l-73 202h-339l-73 -202q26 0 86 -2v-15h-205v15q70 2 99 2l238 665q-21 0 -97 3v15h140zM394 682h-5l-161 -445h327z" />
    <glyph glyph-name="B" unicode="B" horiz-adv-x="680" 
d="M575 537v-19q0 -128 -109 -153q124 -27 124 -153v-29q0 -90 -49.5 -136.5t-145.5 -46.5h-345v15q49 2 99 2v666q-50 0 -99 2v15h330q100 0 147.5 -39.5t47.5 -123.5zM170 374h225q84 0 122 35.5t38 111.5v13q0 76 -42.5 111.5t-132.5 35.5h-210v-307zM570 186v23
q0 147 -175 147h-225v-337h225q175 0 175 167z" />
    <glyph glyph-name="C" unicode="C" horiz-adv-x="660" 
d="M580 126v-12q-24 -59 -79.5 -90.5t-131.5 -31.5h-64q-108 0 -161.5 48.5t-53.5 152.5v283q0 114 54.5 172.5t160.5 58.5h38q148 0 226 -43v-139h-15l-6 128q-35 17 -79.5 25t-71 9t-92.5 1q-95 0 -144.5 -55t-49.5 -162v-273q0 -98 48.5 -142.5t145.5 -44.5h62
q146 0 198 115h15z" />
    <glyph glyph-name="D" unicode="D" horiz-adv-x="740" 
d="M50 700h385q106 0 160.5 -51.5t54.5 -151.5v-294q0 -100 -54.5 -151.5t-160.5 -51.5h-385v15q70 3 99 3v665q-50 0 -99 2v15zM630 206v288q0 92 -49.5 139.5t-145.5 47.5h-265v-662h265q96 0 145.5 47.5t49.5 139.5z" />
    <glyph glyph-name="E" unicode="E" horiz-adv-x="647" 
d="M547 700v-147h-16l-4 129h-362v-314h256v-19h-256v-331h377l4 129h16v-147h-512v15q52 2 94 2v666q-42 0 -94 2v15h497z" />
    <glyph glyph-name="F" unicode="F" horiz-adv-x="622" 
d="M562 700v-147h-16l-4 129h-377v-334h256v-19h-256v-312q26 0 90 -2v-15h-205v15q66 2 94 2v666q-42 0 -94 2v15h512z" />
    <glyph glyph-name="G" unicode="G" horiz-adv-x="705" 
d="M615 330v-157q0 -80 -59 -130.5t-153 -50.5h-78q-235 0 -235 204v280q0 113 60.5 172t174.5 59h28q159 0 241 -43v-139h-15l-6 128q-74 35 -248 35q-103 0 -158.5 -55t-55.5 -162v-275q0 -185 214 -185h78q86 0 139.5 44.5t54.5 117.5v139q-109 0 -272 4v14h290z" />
    <glyph glyph-name="H" unicode="H" horiz-adv-x="790" 
d="M740 700v-15q-68 -2 -95 -2v-666q27 0 95 -2v-15h-205v15q64 2 89 2v332h-454v-332q25 0 85 -2v-15h-205v15q70 2 99 2v666q-29 0 -99 2v15h205v-15q-60 -2 -85 -2v-316h454v316q-25 0 -89 2v15h205z" />
    <glyph glyph-name="I" unicode="I" horiz-adv-x="305" 
d="M255 700v-15q-64 -2 -90 -2v-666q26 0 90 -2v-15h-205v15q66 2 94 2v666q-28 0 -94 2v15h205z" />
    <glyph glyph-name="J" unicode="J" horiz-adv-x="304" 
d="M264 700v-15q-64 -2 -90 -2v-573q0 -92 -14.5 -133.5t-64.5 -91.5q-7 -6 -34 -29l-11 14l26 23q44 44 60.5 88t16.5 129v573q-28 0 -94 2v15h205z" />
    <glyph glyph-name="K" unicode="K" horiz-adv-x="740" 
d="M255 700v-15q-64 -2 -90 -2v-313h194l226 313q-25 0 -85 2v15h205v-15q-70 -2 -97 -2l-231 -321l235 -345q66 0 103 -2v-15h-205v15q56 2 79 2l-229 335h-195v-335q26 0 90 -2v-15h-205v15q66 2 94 2v666q-28 0 -94 2v15h205z" />
    <glyph glyph-name="L" unicode="L" horiz-adv-x="622" 
d="M562 0h-512v15q52 2 94 2v666q-28 0 -94 2v15h205v-15q-64 -2 -90 -2v-665h377l4 139h16v-157z" />
    <glyph glyph-name="M" unicode="M" horiz-adv-x="940" 
d="M890 700v-15q-49 -2 -99 -2v-666q29 0 99 -2v-15h-205v15q60 2 85 2v655l-288 -672h-24l-288 672v-655q25 0 85 -2v-15h-205v15q70 2 99 2v666q-50 0 -99 2v15h129l290 -673h2l290 673h129z" />
    <glyph glyph-name="N" unicode="N" horiz-adv-x="780" 
d="M730 700v-15q-68 -2 -95 -2v-683h-30l-435 674v-657q25 0 85 -2v-15h-205v15q70 2 99 2v666q-50 0 -99 2v15h125l439 -673v656q-25 0 -89 2v15h205z" />
    <glyph glyph-name="O" unicode="O" horiz-adv-x="724" 
d="M399 -8h-74q-106 0 -170.5 61t-64.5 160v273q0 99 64.5 160t170.5 61h74q106 0 170.5 -61t64.5 -160v-273q0 -99 -64.5 -160t-170.5 -61zM325 12h74q95 0 154.5 57t59.5 149v263q0 92 -59.5 149t-154.5 57h-74q-95 0 -154.5 -57t-59.5 -149v-263q0 -92 59.5 -149
t154.5 -57z" />
    <glyph glyph-name="P" unicode="P" horiz-adv-x="650" 
d="M50 700h345q90 0 142.5 -49.5t52.5 -133.5v-59q0 -84 -52 -133t-143 -49h-225v-259q31 0 95 -2v-15h-215v15q68 2 99 2v666q-50 0 -99 2v15zM570 461v53q0 78 -46 122.5t-129 44.5h-225v-387h225q83 0 129 44.5t46 122.5z" />
    <glyph glyph-name="Q" unicode="Q" horiz-adv-x="724" 
d="M325 707h74q106 0 170.5 -61t64.5 -160v-273q0 -99 -64.5 -160t-170.5 -61h-74q-106 0 -170.5 61t-64.5 160v273q0 99 64.5 160t170.5 61zM399 688h-74q-95 0 -154.5 -57.5t-59.5 -149.5v-263q0 -92 59.5 -149.5t154.5 -57.5h74q95 0 154.5 57.5t59.5 149.5v263
q0 92 -59.5 149.5t-154.5 57.5zM311 -89v12q154 32 212 32q51 0 66 -25.5t19 -91.5l-20 -4q-5 64 -13 79q-14 23 -52 23q-56 0 -212 -25z" />
    <glyph glyph-name="R" unicode="R" horiz-adv-x="678" 
d="M50 700h335q90 0 142.5 -49.5t52.5 -133.5v-44q0 -69 -42 -114.5t-116 -55.5q59 -101 140 -286q49 0 96 -2v-15h-117v16q-76 178 -142 285h-229v-284q31 0 95 -2v-15h-215v15q68 2 99 2v666q-50 0 -99 2v15zM170 319h215q83 0 129 43t46 114v38q0 78 -46 122.5t-129 44.5
h-215v-362z" />
    <glyph glyph-name="S" unicode="S" horiz-adv-x="654" 
d="M105 196l6 -130q97 -53 227 -53h11q108 0 151 33.5t43 118.5v38q0 65 -25 95.5t-90 45.5l-227 50q-63 15 -87 46.5t-24 91.5v16q0 85 49.5 122t165.5 37h13q123 0 226 -53v-139h-15l-6 130q-89 43 -207 43h-11q-104 0 -149 -32.5t-45 -107.5v-15q0 -53 21 -80t75 -40
l229 -50q72 -17 100 -52t28 -107v-44q0 -92 -47.5 -129t-167.5 -37h-13q-143 0 -246 63v139h15z" />
    <glyph glyph-name="T" unicode="T" horiz-adv-x="678" 
d="M628 553h-16l-4 128h-257v-664q26 0 90 -2v-15h-205v15q66 2 94 2v664h-260l-4 -128h-16v147h578v-147z" />
    <glyph glyph-name="U" unicode="U" horiz-adv-x="780" 
d="M730 700v-15q-60 -2 -86 -2v-490q0 -99 -54.5 -150t-160.5 -51h-74q-106 0 -160.5 51t-54.5 150v490q-26 0 -90 2v15h205v-15q-66 -2 -94 -2v-485q0 -92 49.5 -139.5t144.5 -47.5h74q95 0 144.5 47.5t49.5 139.5v485q-28 0 -98 2v15h205z" />
    <glyph glyph-name="V" unicode="V" horiz-adv-x="743" 
d="M718 700v-15q-58 -2 -83 -2l-244 -683h-39l-244 683q-25 0 -83 2v15h205v-15q-72 -2 -101 -2l240 -665h5l240 665q-29 0 -101 2v15h205z" />
    <glyph glyph-name="W" unicode="W" horiz-adv-x="1026" 
d="M1001 700v-15q-58 -2 -82 -2l-185 -683h-38l-183 673h-2l-182 -673h-37l-185 683q-24 0 -82 2v15h205v-15q-72 -2 -101 -2l182 -665h1l186 682h30l186 -682h1l184 665q-66 0 -103 2v15h205z" />
    <glyph glyph-name="X" unicode="X" horiz-adv-x="685" 
d="M361 355l218 -338q26 0 86 -2v-15h-205v15q68 2 97 2l-213 327h-2l-213 -327q28 0 96 -2v-15h-205v15q62 2 87 2l218 338l-218 328q-25 0 -87 2v15h205v-15q-68 -2 -96 -2l213 -317h2l213 317q-29 0 -97 2v15h205v-15q-60 -2 -86 -2z" />
    <glyph glyph-name="Y" unicode="Y" horiz-adv-x="703" 
d="M230 700v-15q-66 -2 -94 -2l215 -400h1l215 400q-28 0 -94 2v15h205v-15q-60 -2 -85 -2l-231 -425v-241q26 0 90 -2v-15h-205v15q66 2 94 2v241l-230 425q-24 0 -86 2v15h205z" />
    <glyph glyph-name="Z" unicode="Z" horiz-adv-x="627" 
d="M567 700v-18l-474 -664h449l4 129h16v-147h-492v11q0 6 6 15l468 656h-454l-4 -129h-16v147h497z" />
    <glyph glyph-name="bracketleft" unicode="[" horiz-adv-x="337" 
d="M287 700v-18h-178v-794h178v-18h-197v830h197z" />
    <glyph glyph-name="backslash" unicode="\" horiz-adv-x="393" 
d="M403 -70h-21l-392 852h21z" />
    <glyph glyph-name="bracketright" unicode="]" horiz-adv-x="337" 
d="M247 700v-830h-197v18h178v794h-178v18h197z" />
    <glyph glyph-name="asciicircum" unicode="^" horiz-adv-x="368" 
d="M190 703l148 -198v-11h-9l-143 181h-3l-144 -181h-9v11l148 198h12z" />
    <glyph glyph-name="underscore" unicode="_" horiz-adv-x="550" 
d="M552 -132v-17h-554v17h554z" />
    <glyph glyph-name="grave" unicode="`" horiz-adv-x="500" 
d="M299 593l-9 -7l-97 108l-1 5l18 9z" />
    <glyph glyph-name="a" unicode="a" horiz-adv-x="587" 
d="M472 341v-323q7 0 35 -1t50 -2v-15h-105v86q-65 -51 -110.5 -72.5t-111.5 -21.5h-20q-81 0 -108 24t-27 97v38q0 77 30.5 100.5t104.5 30.5q156 13 242 18v36q0 95 -33.5 127t-117.5 32q-105 0 -180 -29l-4 -78h-15v89q36 15 93.5 25t95.5 10h26q88 0 121.5 -41
t33.5 -130zM212 9h19q60 0 106.5 21.5t114.5 73.5v183q-138 -10 -244 -22q-69 -8 -91 -29.5t-22 -86.5v-31q0 -65 23.5 -87t93.5 -22z" />
    <glyph glyph-name="b" unicode="b" horiz-adv-x="590" 
d="M143 700v-263q68 46 111.5 60.5t113.5 14.5h20q132 0 132 -161v-198q0 -81 -38.5 -121t-106.5 -40h-20q-86 0 -232 12v678l-78 3v15h98zM500 158v188q0 149 -111 149h-22q-65 0 -109.5 -15t-114.5 -61v-399q97 -11 211 -11h19q59 0 93 38t34 111z" />
    <glyph glyph-name="c" unicode="c" horiz-adv-x="528" 
d="M468 89v-12q-19 -42 -64 -63.5t-100 -21.5h-49q-185 0 -185 171v178q0 171 185 171h26q101 0 179 -45v-89h-15l-4 79q-45 23 -82 30.5t-104 7.5q-81 0 -123 -40.5t-42 -118.5v-168q0 -78 42 -118.5t123 -40.5h47q110 0 150 73l3 7h13z" />
    <glyph glyph-name="d" unicode="d" horiz-adv-x="582" 
d="M467 700v-682q7 0 35 -1t50 -2v-15h-105v86q-65 -51 -110.5 -72.5t-111.5 -21.5h-20q-135 0 -135 161v198q0 161 135 161h20q72 0 108.5 -10.5t113.5 -55.5v236q-29 0 -97 3v15h117zM207 9h19q60 0 106.5 21.5t114.5 73.5v324q-80 46 -117 56.5t-104 10.5h-22
q-114 0 -114 -149v-188q0 -149 117 -149z" />
    <glyph glyph-name="e" unicode="e" horiz-adv-x="552" 
d="M265 512h32q185 0 185 -171v-101h-392v-72q0 -159 165 -159h47q110 0 150 73l3 7h13v-12q-19 -42 -64 -63.5t-100 -21.5h-49q-185 0 -185 171v168q0 84 52 132.5t143 48.5zM462 256v80q0 78 -42 118.5t-123 40.5h-32q-83 0 -129 -44t-46 -125v-70h372z" />
    <glyph glyph-name="f" unicode="f" horiz-adv-x="344" 
d="M155 484v-467q25 0 95 -2v-15h-200v15q62 2 85 2v467h-85v14q14 0 42.5 1t42.5 1v70q0 51 15 78.5t57 38.5q40 10 84 18l3 -13q-38 -9 -81 -21q-36 -11 -47 -35t-11 -74v-62h159v-16h-159z" />
    <glyph glyph-name="g" unicode="g" horiz-adv-x="626" 
d="M576 485l-109 -6q38 -30 38 -97v-28q0 -73 -43 -102t-132 -29h-30q-98 0 -141 29q-47 -31 -54 -43q-8 -11 -8 -30v-18q0 -30 23 -40t92 -10h208q75 0 100 -22t25 -88v-30q0 -66 -51 -93.5t-154 -27.5h-120q-99 0 -132 24.5t-33 88.5v20q0 55 76 116q-31 6 -42.5 19.5
t-11.5 41.5v18q0 18 9 32t21 23t42 27q-34 31 -34 94v28q0 73 44.5 101.5t140.5 28.5h30q62 0 97 -12h149v-15zM485 359v18q0 66 -38.5 92t-116.5 26h-30q-86 0 -125.5 -25.5t-39.5 -92.5v-18q0 -68 39.5 -93.5t125.5 -25.5h30q79 0 117 26t38 93zM420 94h-208q-38 0 -65 3
q-72 -54 -72 -114v-20q0 -57 27.5 -76.5t117.5 -19.5h120q93 0 139 24.5t46 84.5v20q0 59 -21 78.5t-84 19.5z" />
    <glyph glyph-name="h" unicode="h" horiz-adv-x="657" 
d="M532 381v-363q34 0 95 -3v-15h-115v376q0 72 -18.5 95.5t-75.5 23.5h-12q-59 0 -118.5 -29.5t-132.5 -85.5v-363q21 0 85 -2v-15h-190v15q64 2 85 2v665l-78 3v15h98v-302q70 55 128.5 84.5t123.5 29.5h10q67 0 91 -26t24 -105z" />
    <glyph glyph-name="i" unicode="i" horiz-adv-x="270" 
d="M142 626q-19 0 -19 17q0 18 19 18t19 -18q0 -17 -19 -17zM155 500v-483q21 0 85 -2v-15h-190v15q64 2 85 2v465l-78 3v15h98z" />
    <glyph glyph-name="j" unicode="j" horiz-adv-x="240" 
d="M131 661q19 0 19 -18q0 -17 -19 -17t-19 17q0 18 19 18zM144 500v-437q0 -60 -15 -93t-64 -82q-7 -6 -34 -29l-11 14l26 23q44 44 61 78.5t17 88.5v419l-78 3v15h98z" />
    <glyph glyph-name="k" unicode="k" horiz-adv-x="602" 
d="M155 700v-416h161l156 199q-16 0 -80 2v15h180v-15q-62 -2 -78 -2l-162 -207l169 -260q11 0 71 -3v-13h-92v15l-166 253h-159v-251q21 0 85 -2v-15h-190v15q64 2 85 2v665l-78 3v15h98z" />
    <glyph glyph-name="l" unicode="l" horiz-adv-x="285" 
d="M155 700v-683q21 0 85 -2v-15h-190v15q64 2 85 2v665l-78 3v15h98z" />
    <glyph glyph-name="m" unicode="m" horiz-adv-x="1015" 
d="M890 381v-363q34 0 95 -3v-15h-115v376q0 72 -18.5 95.5t-75.5 23.5h-12q-59 0 -114.5 -28.5t-127.5 -86.5v-362q34 0 95 -3v-15h-115v376q0 72 -18.5 95.5t-75.5 23.5h-12q-60 0 -115.5 -28t-125.5 -86v-364q21 0 85 -2v-15h-190v15q64 2 85 2v465l-78 3v15h98v-101
q68 57 122.5 85t119.5 28h10q63 0 88 -23t27 -91q69 58 123.5 86t119.5 28h10q67 0 91 -26t24 -105z" />
    <glyph glyph-name="n" unicode="n" horiz-adv-x="657" 
d="M532 381v-363q34 0 95 -3v-15h-115v376q0 72 -18.5 95.5t-75.5 23.5h-12q-59 0 -118.5 -29.5t-132.5 -85.5v-363q21 0 85 -2v-15h-190v15q64 2 85 2v465l-78 3v15h98v-102q70 55 128.5 84.5t123.5 29.5h10q67 0 91 -26t24 -105z" />
    <glyph glyph-name="o" unicode="o" 
d="M315 -8h-60q-185 0 -185 171v178q0 171 185 171h60q185 0 185 -171v-178q0 -171 -185 -171zM255 10h60q165 0 165 158v168q0 158 -165 158h-60q-165 0 -165 -158v-168q0 -158 165 -158z" />
    <glyph glyph-name="p" unicode="p" horiz-adv-x="602" 
d="M387 512h20q65 0 95 -38.5t30 -122.5v-198q0 -161 -132 -161h-20q-70 0 -113.5 14.5t-111.5 60.5v-210q21 0 85 -2v-15h-190v15q64 2 85 2v625l-78 3v15h98v-82q63 50 114 72t118 22zM512 158v188q0 76 -25 112.5t-82 36.5h-19q-61 0 -113 -22.5t-118 -72.5v-315
q70 -46 114.5 -61t109.5 -15h22q111 0 111 149z" />
    <glyph glyph-name="q" unicode="q" horiz-adv-x="572" 
d="M457 500v-643q21 0 85 -2v-15h-190v15q64 2 85 2v210q-68 -47 -107.5 -61t-107.5 -14h-20q-132 0 -132 161v198q0 81 38.5 121t106.5 40h20q76 0 222 -12zM201 9h22q63 0 103 14t111 62v399q-95 11 -201 11h-19q-59 0 -93 -38t-34 -111v-188q0 -149 111 -149z" />
    <glyph glyph-name="r" unicode="r" horiz-adv-x="409" 
d="M155 500v-100q47 59 89.5 80t102.5 21h32v-17h-33q-57 0 -101 -23.5t-90 -83.5v-360q21 0 85 -2v-15h-190v15q64 2 85 2v465l-78 3v15h98z" />
    <glyph glyph-name="s" unicode="s" horiz-adv-x="528" 
d="M75 387v14q0 111 175 111h16q33 0 87.5 -10.5t91.5 -31.5v-90h-15l-4 81q-64 34 -169 34q-86 0 -124 -23.5t-38 -75.5v-9q0 -54 30 -71t144 -40q115 -23 149.5 -44.5t34.5 -86.5v-18q0 -72 -41 -103.5t-124 -31.5h-39q-142 0 -174 63v80h12l4 -74q29 -52 160 -52h37
q77 0 111 28t34 95v18q0 53 -31.5 70.5t-138.5 38.5q-118 23 -153 45t-35 83z" />
    <glyph glyph-name="t" unicode="t" horiz-adv-x="355" 
d="M203 9h8q56 0 94 5v-17q-35 -5 -95 -5h-9q-55 0 -75 27.5t-20 103.5v359h-71v18h59q12 0 12 15v142q11 3 20 3v-160h156v-18h-156v-354q0 -69 16.5 -94t60.5 -25z" />
    <glyph glyph-name="u" unicode="u" horiz-adv-x="660" 
d="M542 500v-482q7 0 36 -1t52 -2v-15h-108v114q-70 -55 -129 -84.5t-123 -29.5h-10q-67 0 -91 26t-24 105v351q-34 0 -95 3v15h115v-364q0 -72 18.5 -95.5t75.5 -23.5h12q59 0 118.5 29.5t132.5 85.5v350q-34 0 -95 3v15h115z" />
    <glyph glyph-name="v" unicode="v" horiz-adv-x="620" 
d="M600 500v-15q-64 -2 -85 -2l-199 -483h-21l-199 483q-18 0 -76 2v15h190v-15q-72 -2 -93 -2l188 -457h1l188 457q-20 0 -84 2v15h190z" />
    <glyph glyph-name="w" unicode="w" horiz-adv-x="863" 
d="M843 500v-15q-64 -2 -83 -2l-149 -483h-24l-160 471l-160 -471h-22l-149 483q-18 0 -76 2v15h190v-15q-70 -2 -92 -2l138 -457h2l159 474h22l159 -474h2l138 457q-21 0 -85 2v15h190z" />
    <glyph glyph-name="x" unicode="x" horiz-adv-x="560" 
d="M286 260l180 -243q18 0 74 -2v-15h-190v15q70 2 91 2l-169 232h-1l-163 -232q63 0 102 -2v-15h-190v15q11 1 33.5 1t33.5 1l171 241l-161 225q-19 0 -77 2v15h190v-15q-66 -2 -88 -2l150 -214h1l153 214q-20 0 -76 2v15h190v-15q-72 -2 -93 -2z" />
    <glyph glyph-name="y" unicode="y" horiz-adv-x="640" 
d="M620 500v-15q-66 -2 -87 -2l-254 -597q19 0 71 -2v-15h-190v15q37 2 95 2l43 104l-205 493q-15 0 -73 2v15h190v-15q-72 -2 -92 -2l193 -461h1l198 461q-18 0 -80 2v15h190z" />
    <glyph glyph-name="z" unicode="z" horiz-adv-x="544" 
d="M478 500v-17l-399 -466h380l13 119h12l-6 -136h-428v10q0 8 8 16l396 457h-366l-7 -121h-13l2 138h408z" />
    <glyph glyph-name="braceleft" unicode="{" horiz-adv-x="336" 
d="M151 526v-482q0 -67 29 -105.5t106 -77.5l-4 -11q-81 38 -115.5 81t-34.5 113v239h-92v18h92v225q0 70 34.5 113t115.5 81l4 -11q-77 -39 -106 -77.5t-29 -105.5z" />
    <glyph glyph-name="bar" unicode="|" horiz-adv-x="219" 
d="M119 778v-896h-19v896h19z" />
    <glyph glyph-name="braceright" unicode="}" horiz-adv-x="336" 
d="M185 44v482q0 67 -29 105.5t-106 77.5l4 11q81 -38 115.5 -81t34.5 -113v-225h92v-18h-92v-239q0 -70 -34.5 -113t-115.5 -81l-4 11q77 39 106 77.5t29 105.5z" />
    <glyph glyph-name="exclamdown" unicode="&#xa1;" horiz-adv-x="202" 
d="M101 630q21 0 21 -19q0 -20 -21 -20t-21 20q0 19 21 19zM90 -73v62l6 465h10l6 -465v-62h-22z" />
    <glyph glyph-name="cent" unicode="&#xa2;" horiz-adv-x="528" 
d="M468 89v-12q-19 -42 -64 -63.5t-100 -21.5h-33v-67h-18v67q-183 2 -183 171v178q0 169 183 171v73h18v-73h10q101 0 179 -45v-89h-15l-4 79q-42 21 -77 29t-93 9v-486h31q110 0 150 73l3 7h13zM90 336v-168q0 -157 163 -159v486q-163 -2 -163 -159z" />
    <glyph glyph-name="sterling" unicode="&#xa3;" horiz-adv-x="597" 
d="M557 0h-512v15q64 52 96 109.5t18 131.5l-6 33h-113v17h110l-31 170q-20 111 27.5 171t147.5 60h58q108 0 186 -43v-139h-15l-6 128q-34 17 -80 25.5t-69.5 9t-73.5 0.5q-90 0 -132 -56.5t-22 -160.5l32 -165h266l-4 -17h-259l5 -24q27 -135 -106 -247h463l4 139h16v-157
z" />
    <glyph glyph-name="yen" unicode="&#xa5;" horiz-adv-x="703" 
d="M678 700v-15q-60 -2 -85 -2l-224 -412h179v-18h-186v-92h186v-18h-186v-126q26 0 90 -2v-15h-205v15q66 2 94 2v126h-191v18h191v92h-191v18h184l-223 412q-24 0 -86 2v15h205v-15q-66 -2 -94 -2l215 -400h1l215 400q-28 0 -94 2v15h205z" />
    <glyph glyph-name="section" unicode="&#xa7;" horiz-adv-x="694" 
d="M247 483l229 -37q74 -13 101 -34.5t27 -67.5v-22q0 -39 -15.5 -63t-57.5 -39q25 -11 34 -32t9 -59v-6q0 -66 -48 -97.5t-167 -31.5h-13q-128 0 -216 53v109h15l6 -100q74 -43 197 -43h11q107 0 150.5 27.5t43.5 82.5v5q0 45 -16 62.5t-70 27.5l-249 37q-74 13 -101 34.5
t-27 67.5v22q0 67 92 101q-29 13 -40.5 34t-11.5 58v6q0 67 42.5 98t152.5 31h13q128 0 216 -53v-109h-15l-6 100q-74 43 -197 43h-11q-102 0 -138 -26.5t-36 -83.5v-5q0 -44 20 -62t76 -28zM111 379v-21q0 -38 24.5 -56t90.5 -29l247 -36q29 -6 36 -9q46 16 59.5 37.5
t13.5 56.5v21q1 38 -23 56t-91 29l-227 36q-28 6 -41 10q-87 -35 -89 -95z" />
    <glyph glyph-name="dieresis" unicode="&#xa8;" horiz-adv-x="500" 
d="M170 626q-19 0 -19 17q0 18 19 18t19 -18q0 -17 -19 -17zM330 626q-19 0 -19 17q0 18 19 18t19 -18q0 -17 -19 -17z" />
    <glyph glyph-name="copyright" unicode="&#xa9;" horiz-adv-x="910" 
d="M455 -15q-172 0 -268.5 96.5t-96.5 268.5t96.5 268.5t268.5 96.5t268.5 -96.5t96.5 -268.5t-96.5 -268.5t-268.5 -96.5zM455 6q160 0 251.5 91t91.5 253t-91.5 253t-251.5 91t-251.5 -91t-91.5 -253t91.5 -253t251.5 -91zM612 239v-12q-24 -45 -57.5 -63.5t-93.5 -18.5
h-24q-155 0 -155 151v88q0 87 38.5 126.5t116.5 39.5h28q66 0 136 -33v-79h-15l-6 68q-31 13 -56.5 18.5t-37.5 6t-49 0.5q-68 0 -101 -35.5t-33 -116.5v-78q0 -137 134 -137h22q58 0 84.5 15t53.5 60h15z" />
    <glyph glyph-name="ordfeminine" unicode="&#xaa;" horiz-adv-x="522" 
d="M381 282v69q-53 -41 -90.5 -58.5t-91.5 -17.5h-16q-68 0 -90.5 20t-22.5 81v32q0 58 22.5 80t90.5 29q86 8 198 15v30q0 79 -26 104.5t-96 25.5q-80 0 -148 -23l-4 -69h-14v80q30 13 78 21t79 8h22q73 0 101 -34.5t28 -108.5v-267q12 -1 35.5 -1t35.5 -1v-15h-91z
M184 293h16q50 0 88.5 16.5t92.5 56.5v152q-98 -6 -200 -18q-55 -6 -73 -25t-18 -69v-26q0 -54 18 -70.5t76 -16.5z" />
    <glyph glyph-name="guillemotleft" unicode="&#xab;" horiz-adv-x="456" 
d="M103 263l168 -181v-10h-10l-186 191v4l186 191h10v-10l-168 -181v-4zM253 263l168 -181v-10h-10l-186 191v4l186 191h10v-10l-168 -181v-4z" />
    <glyph glyph-name="registered" unicode="&#xae;" horiz-adv-x="416" 
d="M208 715q84 0 131 -47.5t47 -130.5q0 -85 -47 -132.5t-131 -47.5t-131 47.5t-47 132.5q0 83 47 130.5t131 47.5zM208 699q-74 0 -117.5 -42.5t-43.5 -119.5q0 -78 43 -120.5t118 -42.5t118 42.5t43 120.5q0 77 -43.5 119.5t-117.5 42.5zM129 636h92q27 0 42 -14t15 -40
v-6q0 -41 -35 -50q18 -26 31 -65q9 0 29 -2v-11h-45v12q-10 36 -33 64h-54v-63h28v-13h-70v14h27v160q-4 0 -13 0.5t-14 0.5v13zM171 622v-84h54q38 0 38 38v6q0 40 -41 40h-51z" />
    <glyph glyph-name="macron" unicode="&#xaf;" horiz-adv-x="500" 
d="M360 629v-19h-220v19h220z" />
    <glyph glyph-name="degree" unicode="&#xb0;" horiz-adv-x="374" 
d="M199 473h-24q-58 0 -81.5 25t-23.5 76v33q0 51 23.5 76t81.5 25h24q58 0 81.5 -25t23.5 -76v-33q0 -51 -23.5 -76t-81.5 -25zM175 492h24q48 0 66 21t18 66v23q0 45 -18 66t-66 21h-24q-48 0 -66 -21t-18 -66v-23q0 -45 18 -66t66 -21z" />
    <glyph glyph-name="twosuperior" unicode="&#xb2;" horiz-adv-x="397" 
d="M337 404v-105h-277v18q0 80 18 114.5t72 55.5q20 8 84 30q44 16 62.5 34.5t18.5 45.5v18q0 45 -22.5 60.5t-85.5 15.5q-80 0 -120 -21l-3 -60h-15v69q55 28 134 28q73 0 102 -20t29 -71v-19q0 -34 -23 -56.5t-76 -41.5q-60 -20 -85 -30q-41 -17 -55.5 -48t-14.5 -104h240
l2 87h15z" />
    <glyph glyph-name="threesuperior" unicode="&#xb3;" horiz-adv-x="360" 
d="M300 604v-9q0 -42 -10.5 -64.5t-38.5 -29.5q28 -7 38.5 -28t10.5 -61v-13q0 -59 -27.5 -80.5t-104.5 -21.5q-53 0 -138 22v74h14l3 -64q73 -16 121 -16q66 0 90 18t24 68v13q0 46 -19 63t-60 17h-104v17h104q41 0 60 19t19 67v9q0 51 -24 69t-90 18q-59 0 -113 -19
l-3 -62h-13v71q63 26 129 26q77 0 104.5 -21.5t27.5 -81.5z" />
    <glyph glyph-name="acute" unicode="&#xb4;" horiz-adv-x="500" 
d="M299 699l-1 -5l-97 -108l-9 7l89 115z" />
    <glyph glyph-name="paragraph" unicode="&#xb6;" horiz-adv-x="511" 
d="M471 685l-78 -3v-772h-20v772h-83v-772h-23v432h-17q-54 0 -89 6.5t-64 24t-42.5 52.5t-14.5 90v12q0 57 13 92.5t42.5 52.5t63.5 22.5t91 5.5h221v-15z" />
    <glyph glyph-name="periodcentered" unicode="&#xb7;" horiz-adv-x="162" 
d="M81 277q-21 0 -21 19q0 20 21 20t21 -20q0 -19 -21 -19z" />
    <glyph glyph-name="cedilla" unicode="&#xb8;" horiz-adv-x="500" 
d="M218 -41h41q35 0 50 -13.5t15 -43.5v-5q0 -26 -17 -41t-47 -16q-41 0 -87 5v10h89q22 0 34.5 11.5t12.5 30.5v5q0 22 -11 32.5t-39 10.5h-64l19 55h11z" />
    <glyph glyph-name="onesuperior" unicode="&#xb9;" horiz-adv-x="315" 
d="M190 708v-393q20 0 90 -2v-14h-215v14q82 2 105 2v371l-115 -37v15l120 44h15z" />
    <glyph glyph-name="ordmasculine" unicode="&#xba;" horiz-adv-x="478" 
d="M264 275h-50q-154 0 -154 143v148q0 143 154 143h50q154 0 154 -143v-148q0 -143 -154 -143zM214 293h50q135 0 135 129v140q0 130 -135 130h-50q-134 0 -134 -130v-140q0 -129 134 -129z" />
    <glyph glyph-name="guillemotright" unicode="&#xbb;" horiz-adv-x="456" 
d="M75 448v10h10l186 -191v-4l-186 -191h-10v10l168 181v4zM225 448v10h10l186 -191v-4l-186 -191h-10v10l168 181v4z" />
    <glyph glyph-name="onequarter" unicode="&#xbc;" horiz-adv-x="792" 
d="M190 708v-393q28 0 100 -2v-14h-235v14q82 2 115 2v371l-115 -37v15l120 44h15zM674 700l-537 -700h-22l275 356l262 344h22zM643 104v-88q17 0 87 -2v-14h-205v14q80 2 98 2v87h-244v16l244 290h20v-290h89v-15h-89zM623 381l-223 -262h223v262z" />
    <glyph glyph-name="onehalf" unicode="&#xbd;" horiz-adv-x="834" 
d="M190 708v-393q28 0 100 -2v-14h-235v14q82 2 115 2v371l-115 -37v15l120 44h15zM127 0h-22l275 356l262 344h22zM774 0h-277v18q0 80 18 114.5t72 55.5q20 8 84 30q44 16 62.5 34.5t18.5 45.5v18q0 45 -22.5 60.5t-85.5 15.5q-80 0 -120 -21l-3 -60h-15v69q55 28 134 28
q73 0 102 -20t29 -71v-19q0 -34 -23 -56.5t-76 -41.5q-60 -20 -85 -30q-41 -17 -55.5 -48t-14.5 -104h240l2 87h15v-105z" />
    <glyph glyph-name="threequarters" unicode="&#xbe;" horiz-adv-x="835" 
d="M300 604v-9q0 -42 -10.5 -64.5t-38.5 -29.5q28 -7 38.5 -28t10.5 -61v-13q0 -59 -27.5 -80.5t-104.5 -21.5q-53 0 -138 22v74h14l3 -64q73 -16 121 -16q66 0 90 18t24 68v13q0 46 -19 63t-60 17h-104v17h104q41 0 60 19t19 67v9q0 51 -24 69t-90 18q-59 0 -113 -19
l-3 -62h-13v71q63 26 129 26q77 0 104.5 -21.5t27.5 -81.5zM709 700l-537 -700h-22l275 356l262 344h22zM686 104v-88q17 0 87 -2v-14h-205v14q80 2 98 2v87h-244v16l244 290h20v-290h89v-15h-89zM666 381l-223 -262h223v262z" />
    <glyph glyph-name="questiondown" unicode="&#xbf;" horiz-adv-x="479" 
d="M283 630q21 0 21 -19q0 -20 -21 -20t-21 20q0 19 21 19zM454 77v-99q-55 -33 -101.5 -45.5t-107.5 -12.5q-116 0 -155.5 34.5t-39.5 136.5v34q0 49 15.5 77t58.5 47q25 11 76 33.5t77 33.5v138h10l8 -150l-153 -66q-40 -17 -55.5 -43.5t-15.5 -69.5v-33
q0 -92 34.5 -122.5t139.5 -30.5q62 0 100.5 10t88.5 38l5 90h15z" />
    <glyph glyph-name="Agrave" unicode="&#xc0;" horiz-adv-x="786" 
d="M416 763l-9 -7l-97 108l-1 5l18 9zM410 700l244 -683q30 0 102 -2v-15h-205v15q58 2 83 2l-73 202h-339l-73 -202q26 0 86 -2v-15h-205v15q70 2 99 2l238 665q-21 0 -97 3v15h140zM389 682l-161 -445h327l-161 445h-5z" />
    <glyph glyph-name="Aacute" unicode="&#xc1;" horiz-adv-x="786" 
d="M466 869l-1 -5l-97 -108l-9 7l89 115zM410 700l244 -683q30 0 102 -2v-15h-205v15q58 2 83 2l-73 202h-339l-73 -202q26 0 86 -2v-15h-205v15q70 2 99 2l238 665q-21 0 -97 3v15h140zM389 682l-161 -445h327l-161 445h-5z" />
    <glyph glyph-name="Acircumflex" unicode="&#xc2;" horiz-adv-x="786" 
d="M499 761l-106 92l-106 -92l-9 7l109 106h12l109 -106zM410 700l244 -683q30 0 102 -2v-15h-205v15q58 2 83 2l-73 202h-339l-73 -202q26 0 86 -2v-15h-205v15q70 2 99 2l238 665q-21 0 -97 3v15h140zM389 682l-161 -445h327l-161 445h-5z" />
    <glyph glyph-name="Atilde" unicode="&#xc3;" horiz-adv-x="786" 
d="M541 856l-64 -66q-20 -22 -36 -22q-9 0 -25 14.5t-37 35.5t-37 31l-91 -81l-7 6l64 66q20 22 36 22q9 0 25 -14t37 -35.5t37 -31.5l91 81zM410 700l244 -683q30 0 102 -2v-15h-205v15q58 2 83 2l-73 202h-339l-73 -202q26 0 86 -2v-15h-205v15q70 2 99 2l238 665
q-21 0 -97 3v15h140zM389 682l-161 -445h327l-161 445h-5z" />
    <glyph glyph-name="Adieresis" unicode="&#xc4;" horiz-adv-x="786" 
d="M313 796q-19 0 -19 17q0 18 19 18t19 -18q0 -17 -19 -17zM473 796q-19 0 -19 17q0 18 19 18t19 -18q0 -17 -19 -17zM410 700l244 -683q30 0 102 -2v-15h-205v15q58 2 83 2l-73 202h-339l-73 -202q26 0 86 -2v-15h-205v15q70 2 99 2l238 665q-21 0 -97 3v15h140zM389 682
l-161 -445h327l-161 445h-5z" />
    <glyph glyph-name="Aring" unicode="&#xc5;" horiz-adv-x="786" 
d="M397 756h-8q-26 0 -42.5 16t-16.5 42v12q0 25 16.5 41t42.5 16h8q26 0 42.5 -16t16.5 -41v-12q0 -26 -16.5 -42t-42.5 -16zM389 770h8q19 0 31.5 12t12.5 32v12q0 19 -12 31t-32 12h-8q-20 0 -32 -12t-12 -31v-12q0 -20 12.5 -32t31.5 -12zM410 700l244 -683q30 0 102 -2
v-15h-205v15q58 2 83 2l-73 202h-339l-73 -202q26 0 86 -2v-15h-205v15q70 2 99 2l238 665q-21 0 -97 3v15h140zM389 682l-161 -445h327l-161 445h-5z" />
    <glyph glyph-name="AE" unicode="&#xc6;" horiz-adv-x="1102" 
d="M620 368h256v-19h-256v-331h377l4 129h16v-147h-512v15q52 2 94 2v202h-329l-117 -202q24 0 82 -2v-15h-205v15q70 2 97 2l389 665q-21 0 -96 3v15h582v-147h-16l-4 129h-362v-314zM599 682h-60l-258 -445h318v445z" />
    <glyph glyph-name="Ccedilla" unicode="&#xc7;" horiz-adv-x="660" 
d="M580 126v-12q-24 -59 -79.5 -90.5t-131.5 -31.5h-60l-6 -33h41q35 0 50 -13.5t15 -43.5v-5q0 -26 -17 -41t-47 -16q-41 0 -87 5v10h89q22 0 34.5 11.5t12.5 30.5v5q0 22 -11 32.5t-39 10.5h-64l16 47q-103 2 -154.5 50.5t-51.5 150.5v283q0 114 54.5 172.5t160.5 58.5h38
q148 0 226 -43v-139h-15l-6 128q-35 17 -79.5 25t-71 9t-92.5 1q-95 0 -144.5 -55t-49.5 -162v-273q0 -98 48.5 -142.5t145.5 -44.5h62q146 0 198 115h15z" />
    <glyph glyph-name="Egrave" unicode="&#xc8;" horiz-adv-x="647" 
d="M342 763l-9 -7l-97 108l-1 5l18 9zM547 553h-16l-4 129h-362v-314h256v-19h-256v-331h377l4 129h16v-147h-512v15q52 2 94 2v666q-42 0 -94 2v15h497v-147z" />
    <glyph glyph-name="Eacute" unicode="&#xc9;" horiz-adv-x="647" 
d="M392 869l-1 -5l-97 -108l-9 7l89 115zM547 553h-16l-4 129h-362v-314h256v-19h-256v-331h377l4 129h16v-147h-512v15q52 2 94 2v666q-42 0 -94 2v15h497v-147z" />
    <glyph glyph-name="Ecircumflex" unicode="&#xca;" horiz-adv-x="647" 
d="M425 761l-106 92l-106 -92l-9 7l109 106h12l109 -106zM547 553h-16l-4 129h-362v-314h256v-19h-256v-331h377l4 129h16v-147h-512v15q52 2 94 2v666q-42 0 -94 2v15h497v-147z" />
    <glyph glyph-name="Edieresis" unicode="&#xcb;" horiz-adv-x="647" 
d="M239 796q-19 0 -19 17q0 18 19 18t19 -18q0 -17 -19 -17zM399 796q-19 0 -19 17q0 18 19 18t19 -18q0 -17 -19 -17zM547 553h-16l-4 129h-362v-314h256v-19h-256v-331h377l4 129h16v-147h-512v15q52 2 94 2v666q-42 0 -94 2v15h497v-147z" />
    <glyph glyph-name="Igrave" unicode="&#xcc;" horiz-adv-x="305" 
d="M176 763l-9 -7l-97 108l-1 5l18 9zM255 700v-15q-64 -2 -90 -2v-666q26 0 90 -2v-15h-205v15q66 2 94 2v666q-28 0 -94 2v15h205z" />
    <glyph glyph-name="Iacute" unicode="&#xcd;" horiz-adv-x="305" 
d="M226 869l-1 -5l-97 -108l-9 7l89 115zM255 700v-15q-64 -2 -90 -2v-666q26 0 90 -2v-15h-205v15q66 2 94 2v666q-28 0 -94 2v15h205z" />
    <glyph glyph-name="Icircumflex" unicode="&#xce;" horiz-adv-x="305" 
d="M259 761l-106 92l-106 -92l-9 7l109 106h12l109 -106zM255 700v-15q-64 -2 -90 -2v-666q26 0 90 -2v-15h-205v15q66 2 94 2v666q-28 0 -94 2v15h205z" />
    <glyph glyph-name="Idieresis" unicode="&#xcf;" horiz-adv-x="305" 
d="M73 796q-19 0 -19 17q0 18 19 18t19 -18q0 -17 -19 -17zM233 796q-19 0 -19 17q0 18 19 18t19 -18q0 -17 -19 -17zM255 700v-15q-64 -2 -90 -2v-666q26 0 90 -2v-15h-205v15q66 2 94 2v666q-28 0 -94 2v15h205z" />
    <glyph glyph-name="Eth" unicode="&#xd0;" horiz-adv-x="740" 
d="M50 700h385q106 0 160.5 -51.5t54.5 -151.5v-294q0 -100 -54.5 -151.5t-160.5 -51.5h-385v15q70 3 99 3v313h-99v19h99v333q-50 0 -99 2v15zM630 206v288q0 92 -49.5 139.5t-145.5 47.5h-265v-331h100v-19h-100v-312h265q96 0 145.5 47.5t49.5 139.5z" />
    <glyph glyph-name="Ntilde" unicode="&#xd1;" horiz-adv-x="780" 
d="M538 856l-64 -66q-20 -22 -36 -22q-9 0 -25 14.5t-37 35.5t-37 31l-91 -81l-7 6l64 66q20 22 36 22q9 0 25 -14t37 -35.5t37 -31.5l91 81zM730 700v-15q-68 -2 -95 -2v-683h-30l-435 674v-657q25 0 85 -2v-15h-205v15q70 2 99 2v666q-50 0 -99 2v15h125l439 -673v656
q-25 0 -89 2v15h205z" />
    <glyph glyph-name="Ograve" unicode="&#xd2;" horiz-adv-x="724" 
d="M385 763l-9 -7l-97 108l-1 5l18 9zM399 -8h-74q-106 0 -170.5 61t-64.5 160v273q0 99 64.5 160t170.5 61h74q106 0 170.5 -61t64.5 -160v-273q0 -99 -64.5 -160t-170.5 -61zM325 12h74q95 0 154.5 57t59.5 149v263q0 92 -59.5 149t-154.5 57h-74q-95 0 -154.5 -57
t-59.5 -149v-263q0 -92 59.5 -149t154.5 -57z" />
    <glyph glyph-name="Oacute" unicode="&#xd3;" horiz-adv-x="724" 
d="M435 869l-1 -5l-97 -108l-9 7l89 115zM399 -8h-74q-106 0 -170.5 61t-64.5 160v273q0 99 64.5 160t170.5 61h74q106 0 170.5 -61t64.5 -160v-273q0 -99 -64.5 -160t-170.5 -61zM325 12h74q95 0 154.5 57t59.5 149v263q0 92 -59.5 149t-154.5 57h-74q-95 0 -154.5 -57
t-59.5 -149v-263q0 -92 59.5 -149t154.5 -57z" />
    <glyph glyph-name="Ocircumflex" unicode="&#xd4;" horiz-adv-x="724" 
d="M468 761l-106 92l-106 -92l-9 7l109 106h12l109 -106zM399 -8h-74q-106 0 -170.5 61t-64.5 160v273q0 99 64.5 160t170.5 61h74q106 0 170.5 -61t64.5 -160v-273q0 -99 -64.5 -160t-170.5 -61zM325 12h74q95 0 154.5 57t59.5 149v263q0 92 -59.5 149t-154.5 57h-74
q-95 0 -154.5 -57t-59.5 -149v-263q0 -92 59.5 -149t154.5 -57z" />
    <glyph glyph-name="Otilde" unicode="&#xd5;" horiz-adv-x="724" 
d="M510 856l-64 -66q-20 -22 -36 -22q-9 0 -25 14.5t-37 35.5t-37 31l-91 -81l-7 6l64 66q20 22 36 22q9 0 25 -14t37 -35.5t37 -31.5l91 81zM399 -8h-74q-106 0 -170.5 61t-64.5 160v273q0 99 64.5 160t170.5 61h74q106 0 170.5 -61t64.5 -160v-273q0 -99 -64.5 -160
t-170.5 -61zM325 12h74q95 0 154.5 57t59.5 149v263q0 92 -59.5 149t-154.5 57h-74q-95 0 -154.5 -57t-59.5 -149v-263q0 -92 59.5 -149t154.5 -57z" />
    <glyph glyph-name="Odieresis" unicode="&#xd6;" horiz-adv-x="724" 
d="M282 796q-19 0 -19 17q0 18 19 18t19 -18q0 -17 -19 -17zM442 796q-19 0 -19 17q0 18 19 18t19 -18q0 -17 -19 -17zM399 -8h-74q-106 0 -170.5 61t-64.5 160v273q0 99 64.5 160t170.5 61h74q106 0 170.5 -61t64.5 -160v-273q0 -99 -64.5 -160t-170.5 -61zM325 12h74
q95 0 154.5 57t59.5 149v263q0 92 -59.5 149t-154.5 57h-74q-95 0 -154.5 -57t-59.5 -149v-263q0 -92 59.5 -149t154.5 -57z" />
    <glyph glyph-name="multiply" unicode="&#xd7;" horiz-adv-x="592" 
d="M103 146l-13 13l193 192l-193 192l15 15l192 -193l192 193l13 -13l-193 -192l193 -192l-15 -15l-192 193z" />
    <glyph glyph-name="Oslash" unicode="&#xd8;" horiz-adv-x="724" 
d="M653 732l-70 -101q51 -57 51 -145v-273q0 -99 -64.5 -160t-170.5 -61h-74q-90 0 -153 46l-51 -73h-21l59 84q-69 61 -69 164v273q0 99 64.5 160t170.5 61h74q107 0 172 -63l61 88h21zM111 481v-263q0 -93 60 -150l387 558q-59 61 -159 61h-74q-95 0 -154.5 -57
t-59.5 -149zM613 218v263q0 77 -43 131l-385 -555q56 -45 140 -45h74q95 0 154.5 57t59.5 149z" />
    <glyph glyph-name="Ugrave" unicode="&#xd9;" horiz-adv-x="780" 
d="M413 763l-9 -7l-97 108l-1 5l18 9zM730 700v-15q-60 -2 -86 -2v-490q0 -99 -54.5 -150t-160.5 -51h-74q-106 0 -160.5 51t-54.5 150v490q-26 0 -90 2v15h205v-15q-66 -2 -94 -2v-485q0 -92 49.5 -139.5t144.5 -47.5h74q95 0 144.5 47.5t49.5 139.5v485q-28 0 -98 2v15
h205z" />
    <glyph glyph-name="Uacute" unicode="&#xda;" horiz-adv-x="780" 
d="M463 869l-1 -5l-97 -108l-9 7l89 115zM730 700v-15q-60 -2 -86 -2v-490q0 -99 -54.5 -150t-160.5 -51h-74q-106 0 -160.5 51t-54.5 150v490q-26 0 -90 2v15h205v-15q-66 -2 -94 -2v-485q0 -92 49.5 -139.5t144.5 -47.5h74q95 0 144.5 47.5t49.5 139.5v485q-28 0 -98 2v15
h205z" />
    <glyph glyph-name="Ucircumflex" unicode="&#xdb;" horiz-adv-x="780" 
d="M496 761l-106 92l-106 -92l-9 7l109 106h12l109 -106zM730 700v-15q-60 -2 -86 -2v-490q0 -99 -54.5 -150t-160.5 -51h-74q-106 0 -160.5 51t-54.5 150v490q-26 0 -90 2v15h205v-15q-66 -2 -94 -2v-485q0 -92 49.5 -139.5t144.5 -47.5h74q95 0 144.5 47.5t49.5 139.5v485
q-28 0 -98 2v15h205z" />
    <glyph glyph-name="Udieresis" unicode="&#xdc;" horiz-adv-x="780" 
d="M310 796q-19 0 -19 17q0 18 19 18t19 -18q0 -17 -19 -17zM470 796q-19 0 -19 17q0 18 19 18t19 -18q0 -17 -19 -17zM730 700v-15q-60 -2 -86 -2v-490q0 -99 -54.5 -150t-160.5 -51h-74q-106 0 -160.5 51t-54.5 150v490q-26 0 -90 2v15h205v-15q-66 -2 -94 -2v-485
q0 -92 49.5 -139.5t144.5 -47.5h74q95 0 144.5 47.5t49.5 139.5v485q-28 0 -98 2v15h205z" />
    <glyph glyph-name="Yacute" unicode="&#xdd;" horiz-adv-x="703" 
d="M425 869l-1 -5l-97 -108l-9 7l89 115zM230 700v-15q-66 -2 -94 -2l215 -400h1l215 400q-28 0 -94 2v15h205v-15q-60 -2 -85 -2l-231 -425v-241q26 0 90 -2v-15h-205v15q66 2 94 2v241l-230 425q-24 0 -86 2v15h205z" />
    <glyph glyph-name="Thorn" unicode="&#xde;" horiz-adv-x="621" 
d="M165 544h201q90 0 142.5 -49.5t52.5 -133.5v-29q0 -84 -52 -133t-143 -49h-201v-150h-115v15q34 2 94 2v666q-60 0 -94 2v15h115v-156zM541 335v23q0 78 -46 122.5t-129 44.5h-201v-357h201q83 0 129 44.5t46 122.5z" />
    <glyph glyph-name="germandbls" unicode="&#xdf;" horiz-adv-x="665" 
d="M550 566v-40q0 -67 -20.5 -101.5t-63.5 -44.5q109 -16 109 -147v-80q0 -77 -42 -117t-123 -40q-94 0 -168 6v12h168q146 0 146 142v76q0 76 -37.5 107t-108.5 31h-104q-22 0 -22 10v5h106q79 0 110 31t31 110v40q0 146 -156 146h-44q-83 0 -129.5 -53t-46.5 -143v-516
h-105v15q32 2 85 2v465l-78 3v15h78v16q0 97 52 155.5t144 58.5h44q175 0 175 -164z" />
    <glyph glyph-name="agrave" unicode="&#xe0;" horiz-adv-x="587" 
d="M348 593l-9 -7l-97 108l-1 5l18 9zM472 341v-323q7 0 35 -1t50 -2v-15h-105v86q-65 -51 -110.5 -72.5t-111.5 -21.5h-20q-81 0 -108 24t-27 97v38q0 77 30.5 100.5t104.5 30.5q156 13 242 18v36q0 95 -33.5 127t-117.5 32q-105 0 -180 -29l-4 -78h-15v89q36 15 93.5 25
t95.5 10h26q88 0 121.5 -41t33.5 -130zM212 9h19q60 0 106.5 21.5t114.5 73.5v183q-138 -10 -244 -22q-69 -8 -91 -29.5t-22 -86.5v-31q0 -65 23.5 -87t93.5 -22z" />
    <glyph glyph-name="aacute" unicode="&#xe1;" horiz-adv-x="587" 
d="M348 699l-1 -5l-97 -108l-9 7l89 115zM472 341v-323q7 0 35 -1t50 -2v-15h-105v86q-65 -51 -110.5 -72.5t-111.5 -21.5h-20q-81 0 -108 24t-27 97v38q0 77 30.5 100.5t104.5 30.5q156 13 242 18v36q0 95 -33.5 127t-117.5 32q-105 0 -180 -29l-4 -78h-15v89
q36 15 93.5 25t95.5 10h26q88 0 121.5 -41t33.5 -130zM212 9h19q60 0 106.5 21.5t114.5 73.5v183q-138 -10 -244 -22q-69 -8 -91 -29.5t-22 -86.5v-31q0 -65 23.5 -87t93.5 -22z" />
    <glyph glyph-name="acircumflex" unicode="&#xe2;" horiz-adv-x="587" 
d="M400 591l-106 92l-106 -92l-9 7l109 106h12l109 -106zM472 341v-323q7 0 35 -1t50 -2v-15h-105v86q-65 -51 -110.5 -72.5t-111.5 -21.5h-20q-81 0 -108 24t-27 97v38q0 77 30.5 100.5t104.5 30.5q156 13 242 18v36q0 95 -33.5 127t-117.5 32q-105 0 -180 -29l-4 -78h-15
v89q36 15 93.5 25t95.5 10h26q88 0 121.5 -41t33.5 -130zM212 9h19q60 0 106.5 21.5t114.5 73.5v183q-138 -10 -244 -22q-69 -8 -91 -29.5t-22 -86.5v-31q0 -65 23.5 -87t93.5 -22z" />
    <glyph glyph-name="atilde" unicode="&#xe3;" horiz-adv-x="587" 
d="M443 706l-64 -66q-20 -22 -36 -22q-9 0 -25 14.5t-37 35.5t-37 31l-91 -81l-7 6l64 66q20 22 36 22q9 0 25 -14t37 -35.5t37 -31.5l91 81zM472 341v-323q7 0 35 -1t50 -2v-15h-105v86q-65 -51 -110.5 -72.5t-111.5 -21.5h-20q-81 0 -108 24t-27 97v38q0 77 30.5 100.5
t104.5 30.5q156 13 242 18v36q0 95 -33.5 127t-117.5 32q-105 0 -180 -29l-4 -78h-15v89q36 15 93.5 25t95.5 10h26q88 0 121.5 -41t33.5 -130zM212 9h19q60 0 106.5 21.5t114.5 73.5v183q-138 -10 -244 -22q-69 -8 -91 -29.5t-22 -86.5v-31q0 -65 23.5 -87t93.5 -22z" />
    <glyph glyph-name="adieresis" unicode="&#xe4;" horiz-adv-x="587" 
d="M214 626q-19 0 -19 17q0 18 19 18t19 -18q0 -17 -19 -17zM374 626q-19 0 -19 17q0 18 19 18t19 -18q0 -17 -19 -17zM472 341v-323q7 0 35 -1t50 -2v-15h-105v86q-65 -51 -110.5 -72.5t-111.5 -21.5h-20q-81 0 -108 24t-27 97v38q0 77 30.5 100.5t104.5 30.5
q156 13 242 18v36q0 95 -33.5 127t-117.5 32q-105 0 -180 -29l-4 -78h-15v89q36 15 93.5 25t95.5 10h26q88 0 121.5 -41t33.5 -130zM212 9h19q60 0 106.5 21.5t114.5 73.5v183q-138 -10 -244 -22q-69 -8 -91 -29.5t-22 -86.5v-31q0 -65 23.5 -87t93.5 -22z" />
    <glyph glyph-name="aring" unicode="&#xe5;" horiz-adv-x="587" 
d="M298 586h-8q-26 0 -42.5 16t-16.5 42v12q0 25 16.5 41t42.5 16h8q26 0 42.5 -16t16.5 -41v-12q0 -26 -16.5 -42t-42.5 -16zM290 600h8q20 0 32 12t12 32v12q0 19 -12 31t-32 12h-8q-20 0 -32 -12t-12 -31v-12q0 -20 12 -32t32 -12zM472 341v-323q7 0 35 -1t50 -2v-15
h-105v86q-65 -51 -110.5 -72.5t-111.5 -21.5h-20q-81 0 -108 24t-27 97v38q0 77 30.5 100.5t104.5 30.5q156 13 242 18v36q0 95 -33.5 127t-117.5 32q-105 0 -180 -29l-4 -78h-15v89q36 15 93.5 25t95.5 10h26q88 0 121.5 -41t33.5 -130zM212 9h19q60 0 106.5 21.5
t114.5 73.5v183q-138 -10 -244 -22q-69 -8 -91 -29.5t-22 -86.5v-31q0 -65 23.5 -87t93.5 -22z" />
    <glyph glyph-name="ae" unicode="&#xe6;" horiz-adv-x="934" 
d="M102 388v89q36 15 93.5 25t95.5 10h16q138 0 159 -103q43 103 181 103h32q185 0 185 -171v-101h-392v-72q0 -159 165 -159h47q110 0 150 73l3 7h13v-12q-19 -42 -64 -63.5t-100 -21.5h-49q-142 0 -175 102q-71 -57 -117.5 -79.5t-114.5 -22.5h-20q-81 0 -108 24t-27 97
v38q0 77 30.5 100.5t104.5 30.5q129 11 242 9v45q0 95 -33.5 127t-117.5 32q-105 0 -180 -29l-4 -78h-15zM844 256v80q0 78 -42 118.5t-123 40.5h-32q-83 0 -129 -44t-46 -125v-70h372zM212 9h19q61 0 108.5 22t118.5 77q-6 26 -6 55v115q-127 0 -244 -13q-69 -8 -91 -29.5
t-22 -86.5v-31q0 -65 23.5 -87t93.5 -22z" />
    <glyph glyph-name="ccedilla" unicode="&#xe7;" horiz-adv-x="528" 
d="M468 89v-12q-19 -42 -64 -63.5t-100 -21.5h-49h-10l-6 -33h41q35 0 50 -13.5t15 -43.5v-5q0 -26 -17 -41t-47 -16q-41 0 -87 5v10h89q22 0 34.5 11.5t12.5 30.5v5q0 22 -11 32.5t-39 10.5h-64l16 48q-162 11 -162 170v178q0 171 185 171h26q101 0 179 -45v-89h-15l-4 79
q-45 23 -82 30.5t-104 7.5q-81 0 -123 -40.5t-42 -118.5v-168q0 -78 42 -118.5t123 -40.5h47q110 0 150 73l3 7h13z" />
    <glyph glyph-name="egrave" unicode="&#xe8;" horiz-adv-x="552" 
d="M285 593l-9 -7l-97 108l-1 5l18 9zM265 512h32q185 0 185 -171v-101h-392v-72q0 -159 165 -159h47q110 0 150 73l3 7h13v-12q-19 -42 -64 -63.5t-100 -21.5h-49q-185 0 -185 171v168q0 84 52 132.5t143 48.5zM462 256v80q0 78 -42 118.5t-123 40.5h-32q-83 0 -129 -44
t-46 -125v-70h372z" />
    <glyph glyph-name="eacute" unicode="&#xe9;" horiz-adv-x="552" 
d="M335 699l-1 -5l-97 -108l-9 7l89 115zM265 512h32q185 0 185 -171v-101h-392v-72q0 -159 165 -159h47q110 0 150 73l3 7h13v-12q-19 -42 -64 -63.5t-100 -21.5h-49q-185 0 -185 171v168q0 84 52 132.5t143 48.5zM462 256v80q0 78 -42 118.5t-123 40.5h-32q-83 0 -129 -44
t-46 -125v-70h372z" />
    <glyph glyph-name="ecircumflex" unicode="&#xea;" horiz-adv-x="552" 
d="M387 591l-106 92l-106 -92l-9 7l109 106h12l109 -106zM265 512h32q185 0 185 -171v-101h-392v-72q0 -159 165 -159h47q110 0 150 73l3 7h13v-12q-19 -42 -64 -63.5t-100 -21.5h-49q-185 0 -185 171v168q0 84 52 132.5t143 48.5zM462 256v80q0 78 -42 118.5t-123 40.5h-32
q-83 0 -129 -44t-46 -125v-70h372z" />
    <glyph glyph-name="edieresis" unicode="&#xeb;" horiz-adv-x="552" 
d="M201 626q-19 0 -19 17q0 18 19 18t19 -18q0 -17 -19 -17zM361 626q-19 0 -19 17q0 18 19 18t19 -18q0 -17 -19 -17zM265 512h32q185 0 185 -171v-101h-392v-72q0 -159 165 -159h47q110 0 150 73l3 7h13v-12q-19 -42 -64 -63.5t-100 -21.5h-49q-185 0 -185 171v168
q0 84 52 132.5t143 48.5zM462 256v80q0 78 -42 118.5t-123 40.5h-32q-83 0 -129 -44t-46 -125v-70h372z" />
    <glyph glyph-name="igrave" unicode="&#xec;" horiz-adv-x="270" 
d="M157 593l-9 -7l-97 108l-1 5l18 9zM155 500v-483q21 0 85 -2v-15h-190v15q64 2 85 2v465l-78 3v15h98z" />
    <glyph glyph-name="iacute" unicode="&#xed;" horiz-adv-x="270" 
d="M196 699l-1 -5l-97 -108l-9 7l89 115zM155 500v-483q21 0 85 -2v-15h-190v15q64 2 85 2v465l-78 3v15h98z" />
    <glyph glyph-name="icircumflex" unicode="&#xee;" horiz-adv-x="270" 
d="M249 591l-106 92l-106 -92l-9 7l109 106h12l109 -106zM155 500v-483q21 0 85 -2v-15h-190v15q64 2 85 2v465l-78 3v15h98z" />
    <glyph glyph-name="idieresis" unicode="&#xef;" horiz-adv-x="270" 
d="M63 626q-19 0 -19 17q0 18 19 18t19 -18q0 -17 -19 -17zM223 626q-19 0 -19 17q0 18 19 18t19 -18q0 -17 -19 -17zM155 500v-483q21 0 85 -2v-15h-190v15q64 2 85 2v465l-78 3v15h98z" />
    <glyph glyph-name="eth" unicode="&#xf0;" horiz-adv-x="584" 
d="M509 675l5 -11q-15 -8 -79 -37q36 -31 50 -69.5t14 -94.5v-267q0 -106 -45 -153t-140 -47h-37q-207 0 -207 194v128q0 101 40.5 141.5t143.5 40.5h20q39 0 73.5 -9t54.5 -19t62 -34q9 -5 14 -8v33q0 53 -13.5 89t-50.5 66q-83 -35 -179 -68l-5 11l169 69q-44 30 -130 60
l5 17q95 -32 146 -68zM478 196v218q-84 47 -116 57q-39 11 -88 11h-20q-91 0 -127 -36.5t-36 -127.5v-128q0 -175 186 -175h37q83 0 123.5 43t40.5 138z" />
    <glyph glyph-name="ntilde" unicode="&#xf1;" horiz-adv-x="657" 
d="M485 706l-64 -66q-20 -22 -36 -22q-9 0 -25 14.5t-37 35.5t-37 31l-91 -81l-7 6l64 66q20 22 36 22q9 0 25 -14t37 -35.5t37 -31.5l91 81zM532 381v-363q34 0 95 -3v-15h-115v376q0 72 -18.5 95.5t-75.5 23.5h-12q-59 0 -118.5 -29.5t-132.5 -85.5v-363q21 0 85 -2v-15
h-190v15q64 2 85 2v465l-78 3v15h98v-102q70 55 128.5 84.5t123.5 29.5h10q67 0 91 -26t24 -105z" />
    <glyph glyph-name="ograve" unicode="&#xf2;" 
d="M289 593l-9 -7l-97 108l-1 5l18 9zM315 -8h-60q-185 0 -185 171v178q0 171 185 171h60q185 0 185 -171v-178q0 -171 -185 -171zM255 10h60q165 0 165 158v168q0 158 -165 158h-60q-165 0 -165 -158v-168q0 -158 165 -158z" />
    <glyph glyph-name="oacute" unicode="&#xf3;" 
d="M349 699l-1 -5l-97 -108l-9 7l89 115zM315 -8h-60q-185 0 -185 171v178q0 171 185 171h60q185 0 185 -171v-178q0 -171 -185 -171zM255 10h60q165 0 165 158v168q0 158 -165 158h-60q-165 0 -165 -158v-168q0 -158 165 -158z" />
    <glyph glyph-name="ocircumflex" unicode="&#xf4;" 
d="M391 591l-106 92l-106 -92l-9 7l109 106h12l109 -106zM315 -8h-60q-185 0 -185 171v178q0 171 185 171h60q185 0 185 -171v-178q0 -171 -185 -171zM255 10h60q165 0 165 158v168q0 158 -165 158h-60q-165 0 -165 -158v-168q0 -158 165 -158z" />
    <glyph glyph-name="otilde" unicode="&#xf5;" 
d="M434 706l-64 -66q-20 -22 -36 -22q-9 0 -25 14.5t-37 35.5t-37 31l-91 -81l-7 6l64 66q20 22 36 22q9 0 25 -14t37 -35.5t37 -31.5l91 81zM315 -8h-60q-185 0 -185 171v178q0 171 185 171h60q185 0 185 -171v-178q0 -171 -185 -171zM255 10h60q165 0 165 158v168
q0 158 -165 158h-60q-165 0 -165 -158v-168q0 -158 165 -158z" />
    <glyph glyph-name="odieresis" unicode="&#xf6;" 
d="M205 626q-19 0 -19 17q0 18 19 18t19 -18q0 -17 -19 -17zM365 626q-19 0 -19 17q0 18 19 18t19 -18q0 -17 -19 -17zM315 -8h-60q-185 0 -185 171v178q0 171 185 171h60q185 0 185 -171v-178q0 -171 -185 -171zM255 10h60q165 0 165 158v168q0 158 -165 158h-60
q-165 0 -165 -158v-168q0 -158 165 -158z" />
    <glyph glyph-name="divide" unicode="&#xf7;" horiz-adv-x="598" 
d="M302 539q-21 0 -21 19q0 20 21 20t21 -20q0 -19 -21 -19zM70 361h458v-18h-458v18zM302 135q-21 0 -21 19q0 20 21 20t21 -20q0 -19 -21 -19z" />
    <glyph glyph-name="oslash" unicode="&#xf8;" 
d="M502 537l-48 -69q46 -44 46 -127v-178q0 -171 -185 -171h-60q-73 0 -116 27l-38 -54h-21l45 64q-55 42 -55 134v178q0 171 185 171h60q80 0 125 -33l41 58h21zM90 336v-168q0 -83 47 -122l292 416q-43 32 -114 32h-60q-165 0 -165 -158zM480 168v168q0 74 -39 115
l-291 -415q41 -26 105 -26h60q165 0 165 158z" />
    <glyph glyph-name="ugrave" unicode="&#xf9;" horiz-adv-x="660" 
d="M332 593l-9 -7l-97 108l-1 5l18 9zM542 500v-482q7 0 36 -1t52 -2v-15h-108v114q-70 -55 -129 -84.5t-123 -29.5h-10q-67 0 -91 26t-24 105v351q-34 0 -95 3v15h115v-364q0 -72 18.5 -95.5t75.5 -23.5h12q59 0 118.5 29.5t132.5 85.5v350q-34 0 -95 3v15h115z" />
    <glyph glyph-name="uacute" unicode="&#xfa;" horiz-adv-x="660" 
d="M392 699l-1 -5l-97 -108l-9 7l89 115zM542 500v-482q7 0 36 -1t52 -2v-15h-108v114q-70 -55 -129 -84.5t-123 -29.5h-10q-67 0 -91 26t-24 105v351q-34 0 -95 3v15h115v-364q0 -72 18.5 -95.5t75.5 -23.5h12q59 0 118.5 29.5t132.5 85.5v350q-34 0 -95 3v15h115z" />
    <glyph glyph-name="ucircumflex" unicode="&#xfb;" horiz-adv-x="660" 
d="M444 591l-106 92l-106 -92l-9 7l109 106h12l109 -106zM542 500v-482q7 0 36 -1t52 -2v-15h-108v114q-70 -55 -129 -84.5t-123 -29.5h-10q-67 0 -91 26t-24 105v351q-34 0 -95 3v15h115v-364q0 -72 18.5 -95.5t75.5 -23.5h12q59 0 118.5 29.5t132.5 85.5v350q-34 0 -95 3
v15h115z" />
    <glyph glyph-name="udieresis" unicode="&#xfc;" horiz-adv-x="660" 
d="M258 626q-19 0 -19 17q0 18 19 18t19 -18q0 -17 -19 -17zM418 626q-19 0 -19 17q0 18 19 18t19 -18q0 -17 -19 -17zM542 500v-482q7 0 36 -1t52 -2v-15h-108v114q-70 -55 -129 -84.5t-123 -29.5h-10q-67 0 -91 26t-24 105v351q-34 0 -95 3v15h115v-364q0 -72 18.5 -95.5
t75.5 -23.5h12q59 0 118.5 29.5t132.5 85.5v350q-34 0 -95 3v15h115z" />
    <glyph glyph-name="yacute" unicode="&#xfd;" horiz-adv-x="640" 
d="M384 699l-1 -5l-97 -108l-9 7l89 115zM620 500v-15q-66 -2 -87 -2l-254 -597q19 0 71 -2v-15h-190v15q37 2 95 2l43 104l-205 493q-15 0 -73 2v15h190v-15q-72 -2 -92 -2l193 -461h1l198 461q-18 0 -80 2v15h190z" />
    <glyph glyph-name="thorn" unicode="&#xfe;" horiz-adv-x="602" 
d="M387 512h20q65 0 95 -38.5t30 -122.5v-198q0 -161 -132 -161h-20q-70 0 -113.5 14.5t-111.5 60.5v-210q21 0 85 -2v-15h-190v15q64 2 85 2v825l-78 3v15h98v-282q63 50 114 72t118 22zM512 158v188q0 76 -25 112.5t-82 36.5h-19q-61 0 -113 -22.5t-118 -72.5v-315
q70 -46 114.5 -61t109.5 -15h22q111 0 111 149z" />
    <glyph glyph-name="ydieresis" unicode="&#xff;" horiz-adv-x="640" 
d="M240 626q-19 0 -19 17q0 18 19 18t19 -18q0 -17 -19 -17zM400 626q-19 0 -19 17q0 18 19 18t19 -18q0 -17 -19 -17zM620 500v-15q-66 -2 -87 -2l-254 -597q19 0 71 -2v-15h-190v15q37 2 95 2l43 104l-205 493q-15 0 -73 2v15h190v-15q-72 -2 -92 -2l193 -461h1l198 461
q-18 0 -80 2v15h190z" />
    <glyph glyph-name="Amacron" unicode="&#x100;" horiz-adv-x="786" 
d="M503 799v-19h-220v19h220zM410 700l244 -683q30 0 102 -2v-15h-205v15q58 2 83 2l-73 202h-339l-73 -202q26 0 86 -2v-15h-205v15q70 2 99 2l238 665q-21 0 -97 3v15h140zM389 682l-161 -445h327l-161 445h-5z" />
    <glyph glyph-name="amacron" unicode="&#x101;" horiz-adv-x="587" 
d="M404 629v-19h-220v19h220zM472 341v-323q7 0 35 -1t50 -2v-15h-105v86q-65 -51 -110.5 -72.5t-111.5 -21.5h-20q-81 0 -108 24t-27 97v38q0 77 30.5 100.5t104.5 30.5q156 13 242 18v36q0 95 -33.5 127t-117.5 32q-105 0 -180 -29l-4 -78h-15v89q36 15 93.5 25t95.5 10
h26q88 0 121.5 -41t33.5 -130zM212 9h19q60 0 106.5 21.5t114.5 73.5v183q-138 -10 -244 -22q-69 -8 -91 -29.5t-22 -86.5v-31q0 -65 23.5 -87t93.5 -22z" />
    <glyph glyph-name="Abreve" unicode="&#x102;" horiz-adv-x="786" 
d="M494 862v-9q0 -97 -101 -97q-102 0 -102 97v9h17v-9q0 -82 85 -82q84 0 84 82v9h17zM410 700l244 -683q30 0 102 -2v-15h-205v15q58 2 83 2l-73 202h-339l-73 -202q26 0 86 -2v-15h-205v15q70 2 99 2l238 665q-21 0 -97 3v15h140zM389 682l-161 -445h327l-161 445h-5z
" />
    <glyph glyph-name="abreve" unicode="&#x103;" horiz-adv-x="587" 
d="M396 692v-9q0 -97 -101 -97q-102 0 -102 97v9h17v-9q0 -82 85 -82q84 0 84 82v9h17zM472 341v-323q7 0 35 -1t50 -2v-15h-105v86q-65 -51 -110.5 -72.5t-111.5 -21.5h-20q-81 0 -108 24t-27 97v38q0 77 30.5 100.5t104.5 30.5q156 13 242 18v36q0 95 -33.5 127t-117.5 32
q-105 0 -180 -29l-4 -78h-15v89q36 15 93.5 25t95.5 10h26q88 0 121.5 -41t33.5 -130zM212 9h19q60 0 106.5 21.5t114.5 73.5v183q-138 -10 -244 -22q-69 -8 -91 -29.5t-22 -86.5v-31q0 -65 23.5 -87t93.5 -22z" />
    <glyph glyph-name="Aogonek" unicode="&#x104;" horiz-adv-x="786" 
d="M756 0h-122q-26 -13 -41 -22t-30 -25.5t-15 -34.5v-4q0 -48 65 -48q42 0 81 27l8 -10q-44 -33 -87 -33h-4q-80 0 -80 64v4q0 46 81 82h-61v15q58 2 83 2l-73 202h-339l-73 -202q26 0 86 -2v-15h-205v15q70 2 99 2l238 665q-21 0 -97 3v15h140l244 -683q30 0 102 -2v-15z
M555 237l-161 445h-5l-161 -445h327z" />
    <glyph glyph-name="aogonek" unicode="&#x105;" horiz-adv-x="587" 
d="M557 0h-84q-26 -13 -41 -22t-30 -25.5t-15 -34.5v-4q0 -48 65 -48q42 0 81 27l8 -10q-44 -33 -87 -33h-4q-80 0 -80 64v4q0 47 82 82v86q-65 -51 -110.5 -72.5t-111.5 -21.5h-20q-81 0 -108 24t-27 97v38q0 77 30.5 100.5t104.5 30.5q156 13 242 18v36q0 95 -33.5 127
t-117.5 32q-105 0 -180 -29l-4 -78h-15v89q36 15 93.5 25t95.5 10h26q88 0 121.5 -41t33.5 -130v-323q7 0 35 -1t50 -2v-15zM212 9h19q60 0 106.5 21.5t114.5 73.5v183q-138 -10 -244 -22q-69 -8 -91 -29.5t-22 -86.5v-31q0 -65 23.5 -87t93.5 -22z" />
    <glyph glyph-name="Cacute" unicode="&#x106;" horiz-adv-x="660" 
d="M406 869l-1 -5l-97 -108l-9 7l89 115zM580 126v-12q-24 -59 -79.5 -90.5t-131.5 -31.5h-64q-108 0 -161.5 48.5t-53.5 152.5v283q0 114 54.5 172.5t160.5 58.5h38q148 0 226 -43v-139h-15l-6 128q-35 17 -79.5 25t-71 9t-92.5 1q-95 0 -144.5 -55t-49.5 -162v-273
q0 -98 48.5 -142.5t145.5 -44.5h62q146 0 198 115h15z" />
    <glyph glyph-name="cacute" unicode="&#x107;" horiz-adv-x="528" 
d="M323 699l-1 -5l-97 -108l-9 7l89 115zM468 89v-12q-19 -42 -64 -63.5t-100 -21.5h-49q-185 0 -185 171v178q0 171 185 171h26q101 0 179 -45v-89h-15l-4 79q-45 23 -82 30.5t-104 7.5q-81 0 -123 -40.5t-42 -118.5v-168q0 -78 42 -118.5t123 -40.5h47q110 0 150 73l3 7
h13z" />
    <glyph glyph-name="Cdotaccent" unicode="&#x10a;" horiz-adv-x="660" 
d="M333 796q-19 0 -19 17q0 18 19 18t19 -18q0 -17 -19 -17zM580 126v-12q-24 -59 -79.5 -90.5t-131.5 -31.5h-64q-108 0 -161.5 48.5t-53.5 152.5v283q0 114 54.5 172.5t160.5 58.5h38q148 0 226 -43v-139h-15l-6 128q-35 17 -79.5 25t-71 9t-92.5 1q-95 0 -144.5 -55
t-49.5 -162v-273q0 -98 48.5 -142.5t145.5 -44.5h62q146 0 198 115h15z" />
    <glyph glyph-name="cdotaccent" unicode="&#x10b;" horiz-adv-x="528" 
d="M269 626q-19 0 -19 17q0 18 19 18t19 -18q0 -17 -19 -17zM468 89v-12q-19 -42 -64 -63.5t-100 -21.5h-49q-185 0 -185 171v178q0 171 185 171h26q101 0 179 -45v-89h-15l-4 79q-45 23 -82 30.5t-104 7.5q-81 0 -123 -40.5t-42 -118.5v-168q0 -78 42 -118.5t123 -40.5h47
q110 0 150 73l3 7h13z" />
    <glyph glyph-name="Ccaron" unicode="&#x10c;" horiz-adv-x="660" 
d="M339 761h-12l-109 106l9 7l106 -92l106 92l9 -7zM580 126v-12q-24 -59 -79.5 -90.5t-131.5 -31.5h-64q-108 0 -161.5 48.5t-53.5 152.5v283q0 114 54.5 172.5t160.5 58.5h38q148 0 226 -43v-139h-15l-6 128q-35 17 -79.5 25t-71 9t-92.5 1q-95 0 -144.5 -55t-49.5 -162
v-273q0 -98 48.5 -142.5t145.5 -44.5h62q146 0 198 115h15z" />
    <glyph glyph-name="ccaron" unicode="&#x10d;" horiz-adv-x="528" 
d="M275 591h-12l-109 106l9 7l106 -92l106 92l9 -7zM468 89v-12q-19 -42 -64 -63.5t-100 -21.5h-49q-185 0 -185 171v178q0 171 185 171h26q101 0 179 -45v-89h-15l-4 79q-45 23 -82 30.5t-104 7.5q-81 0 -123 -40.5t-42 -118.5v-168q0 -78 42 -118.5t123 -40.5h47
q110 0 150 73l3 7h13z" />
    <glyph glyph-name="Dcaron" unicode="&#x10e;" horiz-adv-x="740" 
d="M366 761h-12l-109 106l9 7l106 -92l106 92l9 -7zM50 700h385q106 0 160.5 -51.5t54.5 -151.5v-294q0 -100 -54.5 -151.5t-160.5 -51.5h-385v15q70 3 99 3v665q-50 0 -99 2v15zM630 206v288q0 92 -49.5 139.5t-145.5 47.5h-265v-662h265q96 0 145.5 47.5t49.5 139.5z" />
    <glyph glyph-name="dcaron" unicode="&#x10f;" horiz-adv-x="582" 
d="M467 700v-682q7 0 35 -1t50 -2v-15h-105v86q-65 -51 -110.5 -72.5t-111.5 -21.5h-20q-135 0 -135 161v198q0 161 135 161h20q72 0 108.5 -10.5t113.5 -55.5v236q-29 0 -97 3v15h117zM562 700v-11l-29 -127h-14l24 138h19zM207 9h19q60 0 106.5 21.5t114.5 73.5v324
q-80 46 -117 56.5t-104 10.5h-22q-114 0 -114 -149v-188q0 -149 117 -149z" />
    <glyph glyph-name="Dcroat" unicode="&#x110;" horiz-adv-x="740" 
d="M50 700h385q106 0 160.5 -51.5t54.5 -151.5v-294q0 -100 -54.5 -151.5t-160.5 -51.5h-385v15q70 3 99 3v317h-95v19h95v329q-50 0 -99 2v15zM630 206v288q0 92 -49.5 139.5t-145.5 47.5h-265v-327h104v-19h-104v-316h265q96 0 145.5 47.5t49.5 139.5z" />
    <glyph glyph-name="dcroat" unicode="&#x111;" horiz-adv-x="582" 
d="M467 590v-572q7 0 35 -1t50 -2v-15h-105v86q-65 -51 -110.5 -72.5t-111.5 -21.5h-20q-135 0 -135 161v198q0 161 135 161h20q72 0 108.5 -10.5t113.5 -55.5v144h-127v19h127v91h20v-91h73v-19h-73zM447 104v324q-80 46 -117 56.5t-104 10.5h-22q-114 0 -114 -149v-188
q0 -149 117 -149h19q60 0 106.5 21.5t114.5 73.5z" />
    <glyph glyph-name="Emacron" unicode="&#x112;" horiz-adv-x="647" 
d="M429 799v-19h-220v19h220zM547 553h-16l-4 129h-362v-314h256v-19h-256v-331h377l4 129h16v-147h-512v15q52 2 94 2v666q-42 0 -94 2v15h497v-147z" />
    <glyph glyph-name="emacron" unicode="&#x113;" horiz-adv-x="552" 
d="M391 629v-19h-220v19h220zM265 512h32q185 0 185 -171v-101h-392v-72q0 -159 165 -159h47q110 0 150 73l3 7h13v-12q-19 -42 -64 -63.5t-100 -21.5h-49q-185 0 -185 171v168q0 84 52 132.5t143 48.5zM462 256v80q0 78 -42 118.5t-123 40.5h-32q-83 0 -129 -44t-46 -125
v-70h372z" />
    <glyph glyph-name="Edotaccent" unicode="&#x116;" horiz-adv-x="647" 
d="M319 796q-19 0 -19 17q0 18 19 18t19 -18q0 -17 -19 -17zM547 553h-16l-4 129h-362v-314h256v-19h-256v-331h377l4 129h16v-147h-512v15q52 2 94 2v666q-42 0 -94 2v15h497v-147z" />
    <glyph glyph-name="edotaccent" unicode="&#x117;" horiz-adv-x="552" 
d="M281 626q-19 0 -19 17q0 18 19 18t19 -18q0 -17 -19 -17zM265 512h32q185 0 185 -171v-101h-392v-72q0 -159 165 -159h47q110 0 150 73l3 7h13v-12q-19 -42 -64 -63.5t-100 -21.5h-49q-185 0 -185 171v168q0 84 52 132.5t143 48.5zM462 256v80q0 78 -42 118.5t-123 40.5
h-32q-83 0 -129 -44t-46 -125v-70h372z" />
    <glyph glyph-name="Eogonek" unicode="&#x118;" horiz-adv-x="647" 
d="M562 0h-77q-26 -13 -41 -22t-30 -25.5t-15 -34.5v-4q0 -48 65 -48q42 0 81 27l8 -10q-44 -33 -87 -33h-4q-80 0 -80 64v4q0 46 81 82h-413v15q52 2 94 2v666q-42 0 -94 2v15h497v-147h-16l-4 129h-362v-314h256v-19h-256v-331h377l4 129h16v-147z" />
    <glyph glyph-name="eogonek" unicode="&#x119;" horiz-adv-x="552" 
d="M90 240v-72q0 -159 165 -159h47q110 0 150 73l3 7h13v-12q-19 -42 -64 -63.5t-100 -21.5h-5q-70 -36 -70 -74v-4q0 -48 65 -48q42 0 81 27l8 -10q-44 -33 -87 -33h-4q-80 0 -80 64v4q0 43 64 74h-21q-185 0 -185 171v168q0 84 52 132.5t143 48.5h32q185 0 185 -171v-101
h-392zM90 256h372v80q0 78 -42 118.5t-123 40.5h-32q-83 0 -129 -44t-46 -125v-70z" />
    <glyph glyph-name="Ecaron" unicode="&#x11a;" horiz-adv-x="647" 
d="M325 761h-12l-109 106l9 7l106 -92l106 92l9 -7zM547 553h-16l-4 129h-362v-314h256v-19h-256v-331h377l4 129h16v-147h-512v15q52 2 94 2v666q-42 0 -94 2v15h497v-147z" />
    <glyph glyph-name="ecaron" unicode="&#x11b;" horiz-adv-x="552" 
d="M287 591h-12l-109 106l9 7l106 -92l106 92l9 -7zM265 512h32q185 0 185 -171v-101h-392v-72q0 -159 165 -159h47q110 0 150 73l3 7h13v-12q-19 -42 -64 -63.5t-100 -21.5h-49q-185 0 -185 171v168q0 84 52 132.5t143 48.5zM462 256v80q0 78 -42 118.5t-123 40.5h-32
q-83 0 -129 -44t-46 -125v-70h372z" />
    <glyph glyph-name="Gbreve" unicode="&#x11e;" horiz-adv-x="705" 
d="M456 862v-9q0 -97 -101 -97q-102 0 -102 97v9h17v-9q0 -82 85 -82q84 0 84 82v9h17zM615 330v-157q0 -80 -59 -130.5t-153 -50.5h-78q-235 0 -235 204v280q0 113 60.5 172t174.5 59h28q159 0 241 -43v-139h-15l-6 128q-74 35 -248 35q-103 0 -158.5 -55t-55.5 -162v-275
q0 -185 214 -185h78q86 0 139.5 44.5t54.5 117.5v139q-109 0 -272 4v14h290z" />
    <glyph glyph-name="gbreve" unicode="&#x11f;" horiz-adv-x="626" 
d="M413 692v-9q0 -97 -101 -97q-102 0 -102 97v9h17v-9q0 -82 85 -82q84 0 84 82v9h17zM576 485l-109 -6q38 -30 38 -97v-28q0 -73 -43 -102t-132 -29h-30q-98 0 -141 29q-47 -31 -54 -43q-8 -11 -8 -30v-18q0 -30 23 -40t92 -10h208q75 0 100 -22t25 -88v-30
q0 -66 -51 -93.5t-154 -27.5h-120q-99 0 -132 24.5t-33 88.5v20q0 55 76 116q-31 6 -42.5 19.5t-11.5 41.5v18q0 18 9 32t21 23t42 27q-34 31 -34 94v28q0 73 44.5 101.5t140.5 28.5h30q62 0 97 -12h149v-15zM485 359v18q0 66 -38.5 92t-116.5 26h-30q-86 0 -125.5 -25.5
t-39.5 -92.5v-18q0 -68 39.5 -93.5t125.5 -25.5h30q79 0 117 26t38 93zM420 94h-208q-38 0 -65 3q-72 -54 -72 -114v-20q0 -57 27.5 -76.5t117.5 -19.5h120q93 0 139 24.5t46 84.5v20q0 59 -21 78.5t-84 19.5z" />
    <glyph glyph-name="Gdotaccent" unicode="&#x120;" horiz-adv-x="705" 
d="M355 796q-19 0 -19 17q0 18 19 18t19 -18q0 -17 -19 -17zM615 330v-157q0 -80 -59 -130.5t-153 -50.5h-78q-235 0 -235 204v280q0 113 60.5 172t174.5 59h28q159 0 241 -43v-139h-15l-6 128q-74 35 -248 35q-103 0 -158.5 -55t-55.5 -162v-275q0 -185 214 -185h78
q86 0 139.5 44.5t54.5 117.5v139q-109 0 -272 4v14h290z" />
    <glyph glyph-name="gdotaccent" unicode="&#x121;" horiz-adv-x="626" 
d="M311 626q-19 0 -19 17q0 18 19 18t19 -18q0 -17 -19 -17zM576 485l-109 -6q38 -30 38 -97v-28q0 -73 -43 -102t-132 -29h-30q-98 0 -141 29q-47 -31 -54 -43q-8 -11 -8 -30v-18q0 -30 23 -40t92 -10h208q75 0 100 -22t25 -88v-30q0 -66 -51 -93.5t-154 -27.5h-120
q-99 0 -132 24.5t-33 88.5v20q0 55 76 116q-31 6 -42.5 19.5t-11.5 41.5v18q0 18 9 32t21 23t42 27q-34 31 -34 94v28q0 73 44.5 101.5t140.5 28.5h30q62 0 97 -12h149v-15zM485 359v18q0 66 -38.5 92t-116.5 26h-30q-86 0 -125.5 -25.5t-39.5 -92.5v-18q0 -68 39.5 -93.5
t125.5 -25.5h30q79 0 117 26t38 93zM420 94h-208q-38 0 -65 3q-72 -54 -72 -114v-20q0 -57 27.5 -76.5t117.5 -19.5h120q93 0 139 24.5t46 84.5v20q0 59 -21 78.5t-84 19.5z" />
    <glyph glyph-name="Gcommaaccent" unicode="&#x122;" horiz-adv-x="705" 
d="M615 330v-157q0 -80 -59 -130.5t-153 -50.5h-78q-235 0 -235 204v280q0 113 60.5 172t174.5 59h28q159 0 241 -43v-139h-15l-6 128q-74 35 -248 35q-103 0 -158.5 -55t-55.5 -162v-275q0 -185 214 -185h78q86 0 139.5 44.5t54.5 117.5v139q-109 0 -272 4v14h290zM343 -88
v17q0 19 22 14q8 -2 11 -3.5t5.5 -5t2.5 -9.5q0 -22 -11 -44q-11 -26 -40 -53l-7 5q18 20 27 36.5t9.5 21.5t0.5 16z" />
    <glyph glyph-name="gcommaaccent" unicode="&#x123;" horiz-adv-x="626" 
d="M318 638v-17q0 -19 -22 -14q-8 2 -11 3.5t-5.5 5t-2.5 9.5q0 22 11 44q11 26 40 53l7 -5q-18 -20 -27 -36.5t-9.5 -21.5t-0.5 -16zM576 485l-109 -6q38 -30 38 -97v-28q0 -73 -43 -102t-132 -29h-30q-98 0 -141 29q-47 -31 -54 -43q-8 -11 -8 -30v-18q0 -30 23 -40
t92 -10h208q75 0 100 -22t25 -88v-30q0 -66 -51 -93.5t-154 -27.5h-120q-99 0 -132 24.5t-33 88.5v20q0 55 76 116q-31 6 -42.5 19.5t-11.5 41.5v18q0 18 9 32t21 23t42 27q-34 31 -34 94v28q0 73 44.5 101.5t140.5 28.5h30q62 0 97 -12h149v-15zM485 359v18q0 66 -38.5 92
t-116.5 26h-30q-86 0 -125.5 -25.5t-39.5 -92.5v-18q0 -68 39.5 -93.5t125.5 -25.5h30q79 0 117 26t38 93zM420 94h-208q-38 0 -65 3q-72 -54 -72 -114v-20q0 -57 27.5 -76.5t117.5 -19.5h120q93 0 139 24.5t46 84.5v20q0 59 -21 78.5t-84 19.5z" />
    <glyph glyph-name="Hbar" unicode="&#x126;" horiz-adv-x="790" 
d="M740 700v-15q-68 -2 -95 -2v-177h77v-17h-77v-472q27 0 95 -2v-15h-205v15q64 2 89 2v332h-454v-332q25 0 85 -2v-15h-205v15q70 2 99 2v472h-82v17h82v177q-29 0 -99 2v15h205v-15q-60 -2 -85 -2v-177h454v177q-25 0 -89 2v15h205zM624 489h-454v-122h454v122z" />
    <glyph glyph-name="hbar" unicode="&#x127;" horiz-adv-x="657" 
d="M532 381v-363q34 0 95 -3v-15h-115v376q0 72 -18.5 95.5t-75.5 23.5h-12q-59 0 -118.5 -29.5t-132.5 -85.5v-363q21 0 85 -2v-15h-190v15q64 2 85 2v553h-85v19h85v111h20v-111h115v-19h-115v-172q70 55 128.5 84.5t123.5 29.5h10q67 0 91 -26t24 -105z" />
    <glyph glyph-name="Imacron" unicode="&#x12a;" horiz-adv-x="305" 
d="M263 799v-19h-220v19h220zM255 700v-15q-64 -2 -90 -2v-666q26 0 90 -2v-15h-205v15q66 2 94 2v666q-28 0 -94 2v15h205z" />
    <glyph glyph-name="imacron" unicode="&#x12b;" horiz-adv-x="270" 
d="M253 629v-19h-220v19h220zM155 500v-483q21 0 85 -2v-15h-190v15q64 2 85 2v465l-78 3v15h98z" />
    <glyph glyph-name="Iogonek" unicode="&#x12e;" horiz-adv-x="305" 
d="M255 700v-15q-64 -2 -90 -2v-666q26 0 90 -2v-15h-69q-26 -13 -41 -22t-30 -25.5t-15 -34.5v-4q0 -48 65 -48q42 0 81 27l8 -10q-44 -33 -87 -33h-4q-80 0 -80 64v4q0 46 81 82h-114v15q66 2 94 2v666q-28 0 -94 2v15h205z" />
    <glyph glyph-name="iogonek" unicode="&#x12f;" horiz-adv-x="270" 
d="M143 626q-19 0 -19 17q0 18 19 18t19 -18q0 -17 -19 -17zM240 0h-76q-26 -13 -41 -22t-30 -25.5t-15 -34.5v-4q0 -48 65 -48q42 0 81 27l8 -10q-44 -33 -87 -33h-4q-80 0 -80 64v4q0 46 81 82h-92v15q64 2 85 2v465l-78 3v15h98v-483q21 0 85 -2v-15z" />
    <glyph glyph-name="Idotaccent" unicode="&#x130;" horiz-adv-x="305" 
d="M153 796q-19 0 -19 17q0 18 19 18t19 -18q0 -17 -19 -17zM255 700v-15q-64 -2 -90 -2v-666q26 0 90 -2v-15h-205v15q66 2 94 2v666q-28 0 -94 2v15h205z" />
    <glyph glyph-name="dotlessi" unicode="&#x131;" horiz-adv-x="270" 
d="M155 500v-483q21 0 85 -2v-15h-190v15q64 2 85 2v465l-78 3v15h98z" />
    <glyph glyph-name="IJ" unicode="&#x132;" horiz-adv-x="589" 
d="M255 700v-15q-64 -2 -90 -2v-666q26 0 90 -2v-15h-205v15q66 2 94 2v666q-28 0 -94 2v15h205zM549 700v-15q-64 -2 -90 -2v-573q0 -92 -14.5 -133.5t-64.5 -91.5q-7 -6 -34 -29l-11 14l26 23q44 44 60.5 88t16.5 129v573q-28 0 -94 2v15h205z" />
    <glyph glyph-name="ij" unicode="&#x133;" horiz-adv-x="505" 
d="M142 626q-19 0 -19 17q0 18 19 18t19 -18q0 -17 -19 -17zM396 661q19 0 19 -18q0 -17 -19 -17t-19 17q0 18 19 18zM155 500v-483q21 0 85 -2v-15h-190v15q64 2 85 2v465l-78 3v15h98zM409 500v-437q0 -60 -15 -93t-64 -82q-6 -6 -34 -29l-11 14l26 23q44 44 61 78.5
t17 88.5v419l-78 3v15h98z" />
    <glyph glyph-name="Kcommaaccent" unicode="&#x136;" horiz-adv-x="740" 
d="M255 700v-15q-64 -2 -90 -2v-313h194l226 313q-25 0 -85 2v15h205v-15q-70 -2 -97 -2l-231 -321l235 -345q66 0 103 -2v-15h-205v15q56 2 79 2l-229 335h-195v-335q26 0 90 -2v-15h-205v15q66 2 94 2v666q-28 0 -94 2v15h205zM346 -88v17q0 19 22 14q8 -2 11 -3.5t5.5 -5
t2.5 -9.5q0 -22 -11 -44q-11 -26 -40 -53l-7 5q18 20 27 36.5t9.5 21.5t0.5 16z" />
    <glyph glyph-name="kcommaaccent" unicode="&#x137;" horiz-adv-x="602" 
d="M155 284h161l156 199q-16 0 -80 2v15h180v-15q-62 -2 -78 -2l-162 -207l169 -260q11 0 71 -3v-13h-92v15l-166 253h-159v-251q21 0 85 -2v-15h-190v15q64 2 85 2v665l-78 3v15h98v-416zM294 -88v17q0 19 22 14q8 -2 11 -3.5t5.5 -5t2.5 -9.5q0 -22 -11 -44
q-11 -26 -40 -53l-7 5q18 20 27 36.5t9.5 21.5t0.5 16z" />
    <glyph glyph-name="Lacute" unicode="&#x139;" horiz-adv-x="622" 
d="M228 869l-1 -5l-97 -108l-9 7l89 115zM50 0v15q52 2 94 2v666q-28 0 -94 2v15h205v-15q-64 -2 -90 -2v-665h377l4 139h16v-157h-512z" />
    <glyph glyph-name="lacute" unicode="&#x13a;" horiz-adv-x="285" 
d="M201 899l-1 -5l-97 -108l-9 7l89 115zM155 700v-683q21 0 85 -2v-15h-190v15q64 2 85 2v665l-78 3v15h98z" />
    <glyph glyph-name="Lcommaaccent" unicode="&#x13b;" horiz-adv-x="622" 
d="M50 0v15q52 2 94 2v666q-28 0 -94 2v15h205v-15q-64 -2 -90 -2v-665h377l4 139h16v-157h-512zM287 -88v17q0 19 22 14q8 -2 11 -3.5t5.5 -5t2.5 -9.5q0 -22 -11 -44q-11 -26 -40 -53l-7 5q18 20 27 36.5t9.5 21.5t0.5 16z" />
    <glyph glyph-name="lcommaaccent" unicode="&#x13c;" horiz-adv-x="285" 
d="M155 700v-683q21 0 85 -2v-15h-190v15q64 2 85 2v665l-78 3v15h98zM126 -88v17q0 19 22 14q8 -2 11 -3.5t5.5 -5t2.5 -9.5q0 -22 -11 -44q-11 -26 -40 -53l-7 5q18 20 27 36.5t9.5 21.5t0.5 16z" />
    <glyph glyph-name="Lcaron" unicode="&#x13d;" horiz-adv-x="622" 
d="M50 0v15q52 2 94 2v666q-28 0 -94 2v15h205v-15q-64 -2 -90 -2v-665h377l4 139h16v-157h-512zM377 700v-11l-29 -127h-14l24 138h19z" />
    <glyph glyph-name="lcaron" unicode="&#x13e;" horiz-adv-x="285" 
d="M155 700v-683q21 0 85 -2v-15h-190v15q64 2 85 2v665l-78 3v15h98zM239 700v-11l-29 -127h-14l24 138h19z" />
    <glyph glyph-name="Ldot" unicode="&#x13f;" horiz-adv-x="622" 
d="M50 0v15q52 2 94 2v666q-28 0 -94 2v15h205v-15q-64 -2 -90 -2v-665h377l4 139h16v-157h-512zM384 336q-19 0 -19 17q0 18 19 18t19 -18q0 -17 -19 -17z" />
    <glyph glyph-name="ldot" unicode="&#x140;" horiz-adv-x="285" 
d="M155 700v-683q21 0 85 -2v-15h-190v15q64 2 85 2v665l-78 3v15h98zM243 349q-21 0 -21 19q0 20 21 20t21 -20q0 -19 -21 -19z" />
    <glyph glyph-name="Lslash" unicode="&#x141;" horiz-adv-x="630" 
d="M570 157v-157h-512v15q52 2 94 2v290l-117 -51v20l117 51v356q-28 0 -94 2v15h205v-15q-64 -2 -90 -2v-347l207 90v-20l-207 -90v-298h377l4 139h16z" />
    <glyph glyph-name="lslash" unicode="&#x142;" horiz-adv-x="285" 
d="M155 361v-344q21 0 85 -2v-15h-190v15q64 2 85 2v335l-84 -36v20l84 36v310l-78 3v15h98v-319l83 36v-20z" />
    <glyph glyph-name="Nacute" unicode="&#x143;" horiz-adv-x="780" 
d="M463 869l-1 -5l-97 -108l-9 7l89 115zM730 700v-15q-68 -2 -95 -2v-683h-30l-435 674v-657q25 0 85 -2v-15h-205v15q70 2 99 2v666q-50 0 -99 2v15h125l439 -673v656q-25 0 -89 2v15h205z" />
    <glyph glyph-name="nacute" unicode="&#x144;" horiz-adv-x="657" 
d="M390 699l-1 -5l-97 -108l-9 7l89 115zM532 381v-363q34 0 95 -3v-15h-115v376q0 72 -18.5 95.5t-75.5 23.5h-12q-59 0 -118.5 -29.5t-132.5 -85.5v-363q21 0 85 -2v-15h-190v15q64 2 85 2v465l-78 3v15h98v-102q70 55 128.5 84.5t123.5 29.5h10q67 0 91 -26t24 -105z" />
    <glyph glyph-name="Ncommaaccent" unicode="&#x145;" horiz-adv-x="780" 
d="M730 700v-15q-68 -2 -95 -2v-683h-30l-435 674v-657q25 0 85 -2v-15h-205v15q70 2 99 2v666q-50 0 -99 2v15h125l439 -673v656q-25 0 -89 2v15h205zM378 -88v17q0 19 22 14q8 -2 11 -3.5t5.5 -5t2.5 -9.5q0 -22 -11 -44q-11 -26 -40 -53l-7 5q18 20 27 36.5t9.5 21.5
t0.5 16z" />
    <glyph glyph-name="ncommaaccent" unicode="&#x146;" horiz-adv-x="657" 
d="M532 381v-363q34 0 95 -3v-15h-115v376q0 72 -18.5 95.5t-75.5 23.5h-12q-59 0 -118.5 -29.5t-132.5 -85.5v-363q21 0 85 -2v-15h-190v15q64 2 85 2v465l-78 3v15h98v-102q70 55 128.5 84.5t123.5 29.5h10q67 0 91 -26t24 -105zM324 -88v17q0 19 22 14q8 -2 11 -3.5
t5.5 -5t2.5 -9.5q0 -22 -11 -44q-11 -26 -40 -53l-7 5q18 20 27 36.5t9.5 21.5t0.5 16z" />
    <glyph glyph-name="Ncaron" unicode="&#x147;" horiz-adv-x="780" 
d="M396 761h-12l-109 106l9 7l106 -92l106 92l9 -7zM730 700v-15q-68 -2 -95 -2v-683h-30l-435 674v-657q25 0 85 -2v-15h-205v15q70 2 99 2v666q-50 0 -99 2v15h125l439 -673v656q-25 0 -89 2v15h205z" />
    <glyph glyph-name="ncaron" unicode="&#x148;" horiz-adv-x="657" 
d="M342 591h-12l-109 106l9 7l106 -92l106 92l9 -7zM532 381v-363q34 0 95 -3v-15h-115v376q0 72 -18.5 95.5t-75.5 23.5h-12q-59 0 -118.5 -29.5t-132.5 -85.5v-363q21 0 85 -2v-15h-190v15q64 2 85 2v465l-78 3v15h98v-102q70 55 128.5 84.5t123.5 29.5h10q67 0 91 -26
t24 -105z" />
    <glyph glyph-name="Omacron" unicode="&#x14c;" horiz-adv-x="724" 
d="M472 799v-19h-220v19h220zM399 -8h-74q-106 0 -170.5 61t-64.5 160v273q0 99 64.5 160t170.5 61h74q106 0 170.5 -61t64.5 -160v-273q0 -99 -64.5 -160t-170.5 -61zM325 12h74q95 0 154.5 57t59.5 149v263q0 92 -59.5 149t-154.5 57h-74q-95 0 -154.5 -57t-59.5 -149
v-263q0 -92 59.5 -149t154.5 -57z" />
    <glyph glyph-name="omacron" unicode="&#x14d;" 
d="M395 629v-19h-220v19h220zM315 -8h-60q-185 0 -185 171v178q0 171 185 171h60q185 0 185 -171v-178q0 -171 -185 -171zM255 10h60q165 0 165 158v168q0 158 -165 158h-60q-165 0 -165 -158v-168q0 -158 165 -158z" />
    <glyph glyph-name="Ohungarumlaut" unicode="&#x150;" horiz-adv-x="724" 
d="M410 869l-1 -5l-97 -108l-9 7l89 115zM500 869l-1 -5l-97 -108l-9 7l89 115zM399 -8h-74q-106 0 -170.5 61t-64.5 160v273q0 99 64.5 160t170.5 61h74q106 0 170.5 -61t64.5 -160v-273q0 -99 -64.5 -160t-170.5 -61zM325 12h74q95 0 154.5 57t59.5 149v263
q0 92 -59.5 149t-154.5 57h-74q-95 0 -154.5 -57t-59.5 -149v-263q0 -92 59.5 -149t154.5 -57z" />
    <glyph glyph-name="ohungarumlaut" unicode="&#x151;" 
d="M333 699l-1 -5l-97 -108l-9 7l89 115zM423 699l-1 -5l-97 -108l-9 7l89 115zM315 -8h-60q-185 0 -185 171v178q0 171 185 171h60q185 0 185 -171v-178q0 -171 -185 -171zM255 10h60q165 0 165 158v168q0 158 -165 158h-60q-165 0 -165 -158v-168q0 -158 165 -158z" />
    <glyph glyph-name="OE" unicode="&#x152;" horiz-adv-x="1030" 
d="M548 368h256v-19h-256v-331h377l4 129h16v-147h-640q-105 0 -160 52.5t-55 151.5v293q0 99 54.5 151t160.5 52h625v-147h-16l-4 129h-362v-314zM527 682h-222q-194 0 -194 -185v-293q0 -92 49.5 -139.5t144.5 -46.5h222v664z" />
    <glyph glyph-name="oe" unicode="&#x153;" horiz-adv-x="962" 
d="M500 240v-72q0 -159 165 -159h47q110 0 150 73l3 7h13v-12q-19 -42 -64 -63.5t-100 -21.5h-49q-142 0 -175 102q-33 -102 -175 -102h-60q-185 0 -185 171v178q0 171 185 171h60q147 0 177 -109q19 52 66.5 80.5t116.5 28.5h32q185 0 185 -171v-101h-392zM707 495h-32
q-83 0 -129 -44t-46 -125v-70h372v80q0 78 -42 118.5t-123 40.5zM255 10h60q165 0 165 158v168q0 158 -165 158h-60q-165 0 -165 -158v-168q0 -158 165 -158z" />
    <glyph glyph-name="Racute" unicode="&#x154;" horiz-adv-x="678" 
d="M405 869l-1 -5l-97 -108l-9 7l89 115zM50 700h335q90 0 142.5 -49.5t52.5 -133.5v-44q0 -69 -42 -114.5t-116 -55.5q59 -101 140 -286q49 0 96 -2v-15h-117v16q-76 178 -142 285h-229v-284q31 0 95 -2v-15h-215v15q68 2 99 2v666q-50 0 -99 2v15zM170 319h215
q83 0 129 43t46 114v38q0 78 -46 122.5t-129 44.5h-215v-362z" />
    <glyph glyph-name="racute" unicode="&#x155;" horiz-adv-x="409" 
d="M263 699l-1 -5l-97 -108l-9 7l89 115zM155 500v-100q47 59 89.5 80t102.5 21h32v-17h-33q-57 0 -101 -23.5t-90 -83.5v-360q21 0 85 -2v-15h-190v15q64 2 85 2v465l-78 3v15h98z" />
    <glyph glyph-name="Rcommaaccent" unicode="&#x156;" horiz-adv-x="678" 
d="M50 700h335q90 0 142.5 -49.5t52.5 -133.5v-44q0 -69 -42 -114.5t-116 -55.5q59 -101 140 -286q49 0 96 -2v-15h-117v16q-76 178 -142 285h-229v-284q31 0 95 -2v-15h-215v15q68 2 99 2v666q-50 0 -99 2v15zM170 319h215q83 0 129 43t46 114v38q0 78 -46 122.5t-129 44.5
h-215v-362zM340 -88v17q0 19 22 14q8 -2 11 -3.5t5.5 -5t2.5 -9.5q0 -22 -11 -44q-11 -26 -40 -53l-7 5q18 20 27 36.5t9.5 21.5t0.5 16z" />
    <glyph glyph-name="rcommaaccent" unicode="&#x157;" horiz-adv-x="409" 
d="M155 500v-100q47 59 89.5 80t102.5 21h32v-17h-33q-57 0 -101 -23.5t-90 -83.5v-360q21 0 85 -2v-15h-190v15q64 2 85 2v465l-78 3v15h98zM121 -88v17q0 19 22 14q8 -2 11 -3.5t5.5 -5t2.5 -9.5q0 -22 -11 -44q-11 -26 -40 -53l-7 5q18 20 27 36.5t9.5 21.5t0.5 16z" />
    <glyph glyph-name="Rcaron" unicode="&#x158;" horiz-adv-x="678" 
d="M338 761h-12l-109 106l9 7l106 -92l106 92l9 -7zM50 700h335q90 0 142.5 -49.5t52.5 -133.5v-44q0 -69 -42 -114.5t-116 -55.5q59 -101 140 -286q49 0 96 -2v-15h-117v16q-76 178 -142 285h-229v-284q31 0 95 -2v-15h-215v15q68 2 99 2v666q-50 0 -99 2v15zM170 319h215
q83 0 129 43t46 114v38q0 78 -46 122.5t-129 44.5h-215v-362z" />
    <glyph glyph-name="rcaron" unicode="&#x159;" horiz-adv-x="409" 
d="M216 591h-12l-109 106l9 7l106 -92l106 92l9 -7zM155 500v-100q47 59 89.5 80t102.5 21h32v-17h-33q-57 0 -101 -23.5t-90 -83.5v-360q21 0 85 -2v-15h-190v15q64 2 85 2v465l-78 3v15h98z" />
    <glyph glyph-name="Sacute" unicode="&#x15a;" horiz-adv-x="654" 
d="M400 869l-1 -5l-97 -108l-9 7l89 115zM105 196l6 -130q97 -53 227 -53h11q108 0 151 33.5t43 118.5v38q0 65 -25 95.5t-90 45.5l-227 50q-63 15 -87 46.5t-24 91.5v16q0 85 49.5 122t165.5 37h13q123 0 226 -53v-139h-15l-6 130q-89 43 -207 43h-11q-104 0 -149 -32.5
t-45 -107.5v-15q0 -53 21 -80t75 -40l229 -50q72 -17 100 -52t28 -107v-44q0 -92 -47.5 -129t-167.5 -37h-13q-143 0 -246 63v139h15z" />
    <glyph glyph-name="sacute" unicode="&#x15b;" horiz-adv-x="528" 
d="M313 699l-1 -5l-97 -108l-9 7l89 115zM75 387v14q0 111 175 111h16q33 0 87.5 -10.5t91.5 -31.5v-90h-15l-4 81q-64 34 -169 34q-86 0 -124 -23.5t-38 -75.5v-9q0 -54 30 -71t144 -40q115 -23 149.5 -44.5t34.5 -86.5v-18q0 -72 -41 -103.5t-124 -31.5h-39
q-142 0 -174 63v80h12l4 -74q29 -52 160 -52h37q77 0 111 28t34 95v18q0 53 -31.5 70.5t-138.5 38.5q-118 23 -153 45t-35 83z" />
    <glyph glyph-name="Scedilla" unicode="&#x15e;" horiz-adv-x="654" 
d="M207 413l229 -50q72 -17 100 -52t28 -107v-44q0 -92 -47.5 -129t-167.5 -37h-13l-33 1l-6 -36h41q35 0 50 -13.5t15 -43.5v-5q0 -26 -17 -41t-47 -16q-41 0 -87 5v10h89q22 0 34.5 11.5t12.5 30.5v5q0 22 -11 32.5t-39 10.5h-64l17 50q-114 9 -201 62v139h15l6 -130
q97 -53 227 -53h11q108 0 151 33.5t43 118.5v38q0 65 -25 95.5t-90 45.5l-227 50q-63 15 -87 46.5t-24 91.5v16q0 85 49.5 122t165.5 37h13q123 0 226 -53v-139h-15l-6 130q-89 43 -207 43h-11q-104 0 -149 -32.5t-45 -107.5v-15q0 -53 21 -80t75 -40z" />
    <glyph glyph-name="scedilla" unicode="&#x15f;" horiz-adv-x="528" 
d="M95 396v-9q0 -54 30 -71t144 -40q115 -23 149.5 -44.5t34.5 -86.5v-18q0 -72 -41 -103.5t-124 -31.5h-39h-9l-6 -33h41q35 0 50 -13.5t15 -43.5v-5q0 -26 -17 -41t-47 -16q-41 0 -87 5v10h89q22 0 34.5 11.5t12.5 30.5v5q0 22 -11 32.5t-39 10.5h-64l16 48
q-124 5 -152 62v80h12l4 -74q29 -52 160 -52h37q77 0 111 28t34 95v18q0 53 -31.5 70.5t-138.5 38.5q-118 23 -153 45t-35 83v14q0 111 175 111h16q33 0 87.5 -10.5t91.5 -31.5v-90h-15l-4 81q-64 34 -169 34q-86 0 -124 -23.5t-38 -75.5z" />
    <glyph glyph-name="Scaron" unicode="&#x160;" horiz-adv-x="654" 
d="M333 761h-12l-109 106l9 7l106 -92l106 92l9 -7zM105 196l6 -130q97 -53 227 -53h11q108 0 151 33.5t43 118.5v38q0 65 -25 95.5t-90 45.5l-227 50q-63 15 -87 46.5t-24 91.5v16q0 85 49.5 122t165.5 37h13q123 0 226 -53v-139h-15l-6 130q-89 43 -207 43h-11
q-104 0 -149 -32.5t-45 -107.5v-15q0 -53 21 -80t75 -40l229 -50q72 -17 100 -52t28 -107v-44q0 -92 -47.5 -129t-167.5 -37h-13q-143 0 -246 63v139h15z" />
    <glyph glyph-name="scaron" unicode="&#x161;" horiz-adv-x="528" 
d="M270 591h-12l-109 106l9 7l106 -92l106 92l9 -7zM75 387v14q0 111 175 111h16q33 0 87.5 -10.5t91.5 -31.5v-90h-15l-4 81q-64 34 -169 34q-86 0 -124 -23.5t-38 -75.5v-9q0 -54 30 -71t144 -40q115 -23 149.5 -44.5t34.5 -86.5v-18q0 -72 -41 -103.5t-124 -31.5h-39
q-142 0 -174 63v80h12l4 -74q29 -52 160 -52h37q77 0 111 28t34 95v18q0 53 -31.5 70.5t-138.5 38.5q-118 23 -153 45t-35 83z" />
    <glyph glyph-name="Tcaron" unicode="&#x164;" horiz-adv-x="678" 
d="M345 761h-12l-109 106l9 7l106 -92l106 92l9 -7zM612 553l-4 128h-257v-664q26 0 90 -2v-15h-205v15q66 2 94 2v664h-260l-4 -128h-16v147h578v-147h-16z" />
    <glyph glyph-name="tcaron" unicode="&#x165;" horiz-adv-x="355" 
d="M272 700v-11l-29 -127h-14l24 138h19zM203 9h8q56 0 94 5v-17q-35 -5 -95 -5h-9q-55 0 -75 27.5t-20 103.5v359h-71v18h59q12 0 12 15v142q11 3 20 3v-160h156v-18h-156v-354q0 -69 16.5 -94t60.5 -25z" />
    <glyph glyph-name="Umacron" unicode="&#x16a;" horiz-adv-x="780" 
d="M500 799v-19h-220v19h220zM730 700v-15q-60 -2 -86 -2v-490q0 -99 -54.5 -150t-160.5 -51h-74q-106 0 -160.5 51t-54.5 150v490q-26 0 -90 2v15h205v-15q-66 -2 -94 -2v-485q0 -92 49.5 -139.5t144.5 -47.5h74q95 0 144.5 47.5t49.5 139.5v485q-28 0 -98 2v15h205z" />
    <glyph glyph-name="umacron" unicode="&#x16b;" horiz-adv-x="660" 
d="M448 629v-19h-220v19h220zM542 500v-482q7 0 36 -1t52 -2v-15h-108v114q-70 -55 -129 -84.5t-123 -29.5h-10q-67 0 -91 26t-24 105v351q-34 0 -95 3v15h115v-364q0 -72 18.5 -95.5t75.5 -23.5h12q59 0 118.5 29.5t132.5 85.5v350q-34 0 -95 3v15h115z" />
    <glyph glyph-name="Uring" unicode="&#x16e;" horiz-adv-x="780" 
d="M394 756h-8q-26 0 -42.5 16t-16.5 42v12q0 25 16.5 41t42.5 16h8q26 0 42.5 -16t16.5 -41v-12q0 -26 -16.5 -42t-42.5 -16zM386 770h8q20 0 32 12t12 32v12q0 19 -12 31t-32 12h-8q-20 0 -32 -12t-12 -31v-12q0 -20 12 -32t32 -12zM730 700v-15q-60 -2 -86 -2v-490
q0 -99 -54.5 -150t-160.5 -51h-74q-106 0 -160.5 51t-54.5 150v490q-26 0 -90 2v15h205v-15q-66 -2 -94 -2v-485q0 -92 49.5 -139.5t144.5 -47.5h74q95 0 144.5 47.5t49.5 139.5v485q-28 0 -98 2v15h205z" />
    <glyph glyph-name="uring" unicode="&#x16f;" horiz-adv-x="660" 
d="M342 586h-8q-26 0 -42.5 16t-16.5 42v12q0 25 16.5 41t42.5 16h8q26 0 42.5 -16t16.5 -41v-12q0 -26 -16.5 -42t-42.5 -16zM334 600h8q20 0 32 12t12 32v12q0 19 -12 31t-32 12h-8q-20 0 -32 -12t-12 -31v-12q0 -20 12 -32t32 -12zM542 500v-482q7 0 36 -1t52 -2v-15
h-108v114q-70 -55 -129 -84.5t-123 -29.5h-10q-67 0 -91 26t-24 105v351q-34 0 -95 3v15h115v-364q0 -72 18.5 -95.5t75.5 -23.5h12q59 0 118.5 29.5t132.5 85.5v350q-34 0 -95 3v15h115z" />
    <glyph glyph-name="Uhungarumlaut" unicode="&#x170;" horiz-adv-x="780" 
d="M438 869l-1 -5l-97 -108l-9 7l89 115zM528 869l-1 -5l-97 -108l-9 7l89 115zM730 700v-15q-60 -2 -86 -2v-490q0 -99 -54.5 -150t-160.5 -51h-74q-106 0 -160.5 51t-54.5 150v490q-26 0 -90 2v15h205v-15q-66 -2 -94 -2v-485q0 -92 49.5 -139.5t144.5 -47.5h74
q95 0 144.5 47.5t49.5 139.5v485q-28 0 -98 2v15h205z" />
    <glyph glyph-name="uhungarumlaut" unicode="&#x171;" horiz-adv-x="660" 
d="M386 699l-1 -5l-97 -108l-9 7l89 115zM476 699l-1 -5l-97 -108l-9 7l89 115zM542 500v-482q7 0 36 -1t52 -2v-15h-108v114q-70 -55 -129 -84.5t-123 -29.5h-10q-67 0 -91 26t-24 105v351q-34 0 -95 3v15h115v-364q0 -72 18.5 -95.5t75.5 -23.5h12q59 0 118.5 29.5
t132.5 85.5v350q-34 0 -95 3v15h115z" />
    <glyph glyph-name="Uogonek" unicode="&#x172;" horiz-adv-x="780" 
d="M730 700v-15q-60 -2 -86 -2v-490q0 -99 -54.5 -150t-160.5 -51h-26q-70 -36 -70 -74v-4q0 -48 65 -48q42 0 81 27l8 -10q-44 -33 -87 -33h-4q-80 0 -80 64v4q0 43 64 74h-25q-106 0 -160.5 51t-54.5 150v490q-26 0 -90 2v15h205v-15q-66 -2 -94 -2v-485
q0 -92 49.5 -139.5t144.5 -47.5h74q95 0 144.5 47.5t49.5 139.5v485q-28 0 -98 2v15h205z" />
    <glyph glyph-name="uogonek" unicode="&#x173;" horiz-adv-x="660" 
d="M630 0h-85q-26 -13 -41 -22t-30 -25.5t-15 -34.5v-4q0 -48 65 -48q42 0 81 27l8 -10q-44 -33 -87 -33h-4q-80 0 -80 64v4q0 46 81 82h-1v114q-70 -55 -129 -84.5t-123 -29.5h-10q-67 0 -91 26t-24 105v351q-34 0 -95 3v15h115v-364q0 -72 18.5 -95.5t75.5 -23.5h12
q59 0 118.5 29.5t132.5 85.5v350q-34 0 -95 3v15h115v-482q7 0 36 -1t52 -2v-15z" />
    <glyph glyph-name="Wcircumflex" unicode="&#x174;" horiz-adv-x="1026" 
d="M619 761l-106 92l-106 -92l-9 7l109 106h12l109 -106zM1001 700v-15q-58 -2 -82 -2l-185 -683h-38l-183 673h-2l-182 -673h-37l-185 683q-24 0 -82 2v15h205v-15q-72 -2 -101 -2l182 -665h1l186 682h30l186 -682h1l184 665q-66 0 -103 2v15h205z" />
    <glyph glyph-name="wcircumflex" unicode="&#x175;" horiz-adv-x="863" 
d="M538 591l-106 92l-106 -92l-9 7l109 106h12l109 -106zM843 500v-15q-64 -2 -83 -2l-149 -483h-24l-160 471l-160 -471h-22l-149 483q-18 0 -76 2v15h190v-15q-70 -2 -92 -2l138 -457h2l159 474h22l159 -474h2l138 457q-21 0 -85 2v15h190z" />
    <glyph glyph-name="Ycircumflex" unicode="&#x176;" horiz-adv-x="703" 
d="M458 761l-106 92l-106 -92l-9 7l109 106h12l109 -106zM230 700v-15q-66 -2 -94 -2l215 -400h1l215 400q-28 0 -94 2v15h205v-15q-60 -2 -85 -2l-231 -425v-241q26 0 90 -2v-15h-205v15q66 2 94 2v241l-230 425q-24 0 -86 2v15h205z" />
    <glyph glyph-name="ycircumflex" unicode="&#x177;" horiz-adv-x="640" 
d="M426 591l-106 92l-106 -92l-9 7l109 106h12l109 -106zM620 500v-15q-66 -2 -87 -2l-254 -597q19 0 71 -2v-15h-190v15q37 2 95 2l43 104l-205 493q-15 0 -73 2v15h190v-15q-72 -2 -92 -2l193 -461h1l198 461q-18 0 -80 2v15h190z" />
    <glyph glyph-name="Ydieresis" unicode="&#x178;" horiz-adv-x="703" 
d="M272 796q-19 0 -19 17q0 18 19 18t19 -18q0 -17 -19 -17zM432 796q-19 0 -19 17q0 18 19 18t19 -18q0 -17 -19 -17zM230 700v-15q-66 -2 -94 -2l215 -400h1l215 400q-28 0 -94 2v15h205v-15q-60 -2 -85 -2l-231 -425v-241q26 0 90 -2v-15h-205v15q66 2 94 2v241l-230 425
q-24 0 -86 2v15h205z" />
    <glyph glyph-name="Zacute" unicode="&#x179;" horiz-adv-x="627" 
d="M392 869l-1 -5l-97 -108l-9 7l89 115zM567 682l-474 -664h449l4 129h16v-147h-492v11q0 6 6 15l468 656h-454l-4 -129h-16v147h497v-18z" />
    <glyph glyph-name="zacute" unicode="&#x17a;" horiz-adv-x="544" 
d="M341 699l-1 -5l-97 -108l-9 7l89 115zM478 483l-399 -466h380l13 119h12l-6 -136h-428v10q0 8 8 16l396 457h-366l-7 -121h-13l2 138h408v-17z" />
    <glyph glyph-name="Zdotaccent" unicode="&#x17b;" horiz-adv-x="627" 
d="M319 796q-19 0 -19 17q0 18 19 18t19 -18q0 -17 -19 -17zM567 682l-474 -664h449l4 129h16v-147h-492v11q0 6 6 15l468 656h-454l-4 -129h-16v147h497v-18z" />
    <glyph glyph-name="zdotaccent" unicode="&#x17c;" horiz-adv-x="544" 
d="M277 626q-19 0 -19 17q0 18 19 18t19 -18q0 -17 -19 -17zM478 483l-399 -466h380l13 119h12l-6 -136h-428v10q0 8 8 16l396 457h-366l-7 -121h-13l2 138h408v-17z" />
    <glyph glyph-name="Zcaron" unicode="&#x17d;" horiz-adv-x="627" 
d="M325 761h-12l-109 106l9 7l106 -92l106 92l9 -7zM567 682l-474 -664h449l4 129h16v-147h-492v11q0 6 6 15l468 656h-454l-4 -129h-16v147h497v-18z" />
    <glyph glyph-name="zcaron" unicode="&#x17e;" horiz-adv-x="544" 
d="M283 591h-12l-109 106l9 7l106 -92l106 92l9 -7zM478 483l-399 -466h380l13 119h12l-6 -136h-428v10q0 8 8 16l396 457h-366l-7 -121h-13l2 138h408v-17z" />
    <glyph glyph-name="florin" unicode="&#x192;" horiz-adv-x="447" 
d="M397 420v-16h-152l-46 -309q-8 -53 -24 -80t-58 -37q-40 -10 -84 -18l-3 13q38 9 81 21q35 10 47.5 33.5t20.5 75.5l44 301h-90v14q71 2 93 2l22 150q8 53 24 80t58 37q40 10 84 18l3 -13q-38 -9 -81 -21q-35 -10 -47.5 -33.5t-20.5 -75.5l-21 -142h150z" />
    <glyph glyph-name="Scommaaccent" unicode="&#x218;" horiz-adv-x="654" 
d="M105 196l6 -130q97 -53 227 -53h11q108 0 151 33.5t43 118.5v38q0 65 -25 95.5t-90 45.5l-227 50q-63 15 -87 46.5t-24 91.5v16q0 85 49.5 122t165.5 37h13q123 0 226 -53v-139h-15l-6 130q-89 43 -207 43h-11q-104 0 -149 -32.5t-45 -107.5v-15q0 -53 21 -80t75 -40
l229 -50q72 -17 100 -52t28 -107v-44q0 -92 -47.5 -129t-167.5 -37h-13q-143 0 -246 63v139h15zM315 -88v17q0 19 22 14q8 -2 11 -3.5t5.5 -5t2.5 -9.5q0 -22 -11 -44q-11 -26 -40 -53l-7 5q18 20 27 36.5t9.5 21.5t0.5 16z" />
    <glyph glyph-name="scommaaccent" unicode="&#x219;" horiz-adv-x="528" 
d="M75 387v14q0 111 175 111h16q33 0 87.5 -10.5t91.5 -31.5v-90h-15l-4 81q-64 34 -169 34q-86 0 -124 -23.5t-38 -75.5v-9q0 -54 30 -71t144 -40q115 -23 149.5 -44.5t34.5 -86.5v-18q0 -72 -41 -103.5t-124 -31.5h-39q-142 0 -174 63v80h12l4 -74q29 -52 160 -52h37
q77 0 111 28t34 95v18q0 53 -31.5 70.5t-138.5 38.5q-118 23 -153 45t-35 83zM252 -88v17q0 19 22 14q8 -2 11 -3.5t5.5 -5t2.5 -9.5q0 -22 -11 -44q-11 -26 -40 -53l-7 5q18 20 27 36.5t9.5 21.5t0.5 16z" />
    <glyph glyph-name="uni021A" unicode="&#x21a;" horiz-adv-x="678" 
d="M612 553l-4 128h-257v-664q26 0 90 -2v-15h-205v15q66 2 94 2v664h-260l-4 -128h-16v147h578v-147h-16zM327 -88v17q0 19 22 14q8 -2 11 -3.5t5.5 -5t2.5 -9.5q0 -22 -11 -44q-11 -26 -40 -53l-7 5q18 20 27 36.5t9.5 21.5t0.5 16z" />
    <glyph glyph-name="uni021B" unicode="&#x21b;" horiz-adv-x="355" 
d="M203 9h8q56 0 94 5v-17q-35 -5 -95 -5h-9q-55 0 -75 27.5t-20 103.5v359h-71v18h59q12 0 12 15v142q11 3 20 3v-160h156v-18h-156v-354q0 -69 16.5 -94t60.5 -25zM153 -88v17q0 19 22 14q8 -2 11 -3.5t5.5 -5t2.5 -9.5q0 -22 -11 -44q-11 -26 -40 -53l-7 5q18 20 27 36.5
t9.5 21.5t0.5 16z" />
    <glyph glyph-name="circumflex" unicode="&#x2c6;" horiz-adv-x="500" 
d="M356 591l-106 92l-106 -92l-9 7l109 106h12l109 -106z" />
    <glyph glyph-name="caron" unicode="&#x2c7;" horiz-adv-x="500" 
d="M256 591h-12l-109 106l9 7l106 -92l106 92l9 -7z" />
    <glyph glyph-name="breve" unicode="&#x2d8;" horiz-adv-x="500" 
d="M351 692v-9q0 -97 -101 -97q-102 0 -102 97v9h17v-9q0 -82 85 -82q84 0 84 82v9h17z" />
    <glyph glyph-name="dotaccent" unicode="&#x2d9;" horiz-adv-x="500" 
d="M250 626q-19 0 -19 17q0 18 19 18t19 -18q0 -17 -19 -17z" />
    <glyph glyph-name="ring" unicode="&#x2da;" horiz-adv-x="500" 
d="M254 586h-8q-26 0 -42.5 16t-16.5 42v12q0 25 16.5 41t42.5 16h8q26 0 42.5 -16t16.5 -41v-12q0 -26 -16.5 -42t-42.5 -16zM246 600h8q20 0 32 12t12 32v12q0 19 -12 31t-32 12h-8q-20 0 -32 -12t-12 -31v-12q0 -20 12 -32t32 -12z" />
    <glyph glyph-name="ogonek" unicode="&#x2db;" horiz-adv-x="500" 
d="M263 5h20q-67 -33 -84 -55q-12 -16 -12 -32v-4q0 -48 65 -48q42 0 81 27l8 -10q-44 -33 -87 -33h-4q-80 0 -80 64v4q0 21 16.5 39.5t33 27.5t43.5 20z" />
    <glyph glyph-name="tilde" unicode="&#x2dc;" horiz-adv-x="500" 
d="M398 706l-64 -66q-20 -22 -36 -22q-9 0 -25 14.5t-37 35.5t-37 31l-91 -81l-7 6l64 66q20 22 36 22q9 0 25 -14t37 -35.5t37 -31.5l91 81z" />
    <glyph glyph-name="hungarumlaut" unicode="&#x2dd;" horiz-adv-x="500" 
d="M259 699l-1 -5l-97 -108l-9 7l89 115zM349 699l-1 -5l-97 -108l-9 7l89 115z" />
    <glyph glyph-name="commaaccentcomb" unicode="&#x326;" horiz-adv-x="0" 
d="M231 -88v17q0 19 22 14q8 -2 11 -3.5t5.5 -5t2.5 -9.5q0 -22 -11 -44q-11 -26 -40 -53l-7 5q18 20 27 36.5t9.5 21.5t0.5 16z" />
    <glyph glyph-name="Wgrave" unicode="&#x1e80;" horiz-adv-x="1026" 
d="M536 763l-9 -7l-97 108l-1 5l18 9zM1001 700v-15q-58 -2 -82 -2l-185 -683h-38l-183 673h-2l-182 -673h-37l-185 683q-24 0 -82 2v15h205v-15q-72 -2 -101 -2l182 -665h1l186 682h30l186 -682h1l184 665q-66 0 -103 2v15h205z" />
    <glyph glyph-name="wgrave" unicode="&#x1e81;" horiz-adv-x="863" 
d="M446 593l-9 -7l-97 108l-1 5l18 9zM843 500v-15q-64 -2 -83 -2l-149 -483h-24l-160 471l-160 -471h-22l-149 483q-18 0 -76 2v15h190v-15q-70 -2 -92 -2l138 -457h2l159 474h22l159 -474h2l138 457q-21 0 -85 2v15h190z" />
    <glyph glyph-name="Wacute" unicode="&#x1e82;" horiz-adv-x="1026" 
d="M586 869l-1 -5l-97 -108l-9 7l89 115zM1001 700v-15q-58 -2 -82 -2l-185 -683h-38l-183 673h-2l-182 -673h-37l-185 683q-24 0 -82 2v15h205v-15q-72 -2 -101 -2l182 -665h1l186 682h30l186 -682h1l184 665q-66 0 -103 2v15h205z" />
    <glyph glyph-name="wacute" unicode="&#x1e83;" horiz-adv-x="863" 
d="M496 699l-1 -5l-97 -108l-9 7l89 115zM843 500v-15q-64 -2 -83 -2l-149 -483h-24l-160 471l-160 -471h-22l-149 483q-18 0 -76 2v15h190v-15q-70 -2 -92 -2l138 -457h2l159 474h22l159 -474h2l138 457q-21 0 -85 2v15h190z" />
    <glyph glyph-name="Wdieresis" unicode="&#x1e84;" horiz-adv-x="1026" 
d="M433 796q-19 0 -19 17q0 18 19 18t19 -18q0 -17 -19 -17zM593 796q-19 0 -19 17q0 18 19 18t19 -18q0 -17 -19 -17zM1001 700v-15q-58 -2 -82 -2l-185 -683h-38l-183 673h-2l-182 -673h-37l-185 683q-24 0 -82 2v15h205v-15q-72 -2 -101 -2l182 -665h1l186 682h30
l186 -682h1l184 665q-66 0 -103 2v15h205z" />
    <glyph glyph-name="wdieresis" unicode="&#x1e85;" horiz-adv-x="863" 
d="M352 626q-19 0 -19 17q0 18 19 18t19 -18q0 -17 -19 -17zM512 626q-19 0 -19 17q0 18 19 18t19 -18q0 -17 -19 -17zM843 500v-15q-64 -2 -83 -2l-149 -483h-24l-160 471l-160 -471h-22l-149 483q-18 0 -76 2v15h190v-15q-70 -2 -92 -2l138 -457h2l159 474h22l159 -474h2
l138 457q-21 0 -85 2v15h190z" />
    <glyph glyph-name="Ygrave" unicode="&#x1ef2;" horiz-adv-x="703" 
d="M375 763l-9 -7l-97 108l-1 5l18 9zM230 700v-15q-66 -2 -94 -2l215 -400h1l215 400q-28 0 -94 2v15h205v-15q-60 -2 -85 -2l-231 -425v-241q26 0 90 -2v-15h-205v15q66 2 94 2v241l-230 425q-24 0 -86 2v15h205z" />
    <glyph glyph-name="ygrave" unicode="&#x1ef3;" horiz-adv-x="640" 
d="M334 593l-9 -7l-97 108l-1 5l18 9zM620 500v-15q-66 -2 -87 -2l-254 -597q19 0 71 -2v-15h-190v15q37 2 95 2l43 104l-205 493q-15 0 -73 2v15h190v-15q-72 -2 -92 -2l193 -461h1l198 461q-18 0 -80 2v15h190z" />
    <glyph glyph-name="uni2009" unicode="&#x2009;" horiz-adv-x="100" 
 />
    <glyph glyph-name="uni200A" unicode="&#x200a;" horiz-adv-x="60" 
 />
    <glyph glyph-name="endash" unicode="&#x2013;" horiz-adv-x="518" 
d="M458 307v-20h-398v20h398z" />
    <glyph glyph-name="emdash" unicode="&#x2014;" horiz-adv-x="874" 
d="M814 307v-20h-754v20h754z" />
    <glyph glyph-name="quoteleft" unicode="&#x2018;" horiz-adv-x="160" 
d="M83 600v-17q0 -19 -22 -14q-8 2 -11 3.5t-5.5 5t-2.5 9.5q0 46 53 117l7 -5q-39 -59 -39 -94z" />
    <glyph glyph-name="quoteright" unicode="&#x2019;" horiz-adv-x="160" 
d="M61 672v17q0 19 22 14q8 -2 11 -3.5t5.5 -5t2.5 -9.5q0 -46 -53 -117l-7 5q39 59 39 94z" />
    <glyph glyph-name="quotesinglbase" unicode="&#x201a;" horiz-adv-x="160" 
d="M61 2v17q0 19 22 14q8 -2 11 -3.5t5.5 -5t2.5 -9.5q0 -46 -53 -117l-7 5q39 59 39 94z" />
    <glyph glyph-name="quotedblleft" unicode="&#x201c;" horiz-adv-x="250" 
d="M83 600v-17q0 -19 -22 -14q-8 2 -11 3.5t-5.5 5t-2.5 9.5q0 46 53 117l7 -5q-39 -59 -39 -94zM173 600v-17q0 -19 -22 -14q-8 2 -11 3.5t-5.5 5t-2.5 9.5q0 46 53 117l7 -5q-39 -59 -39 -94z" />
    <glyph glyph-name="quotedblright" unicode="&#x201d;" horiz-adv-x="250" 
d="M61 672v17q0 19 22 14q8 -2 11 -3.5t5.5 -5t2.5 -9.5q0 -46 -53 -117l-7 5q39 59 39 94zM151 672v17q0 19 22 14q8 -2 11 -3.5t5.5 -5t2.5 -9.5q0 -46 -53 -117l-7 5q39 59 39 94z" />
    <glyph glyph-name="quotedblbase" unicode="&#x201e;" horiz-adv-x="250" 
d="M61 2v17q0 19 22 14q8 -2 11 -3.5t5.5 -5t2.5 -9.5q0 -46 -53 -117l-7 5q39 59 39 94zM151 2v17q0 19 22 14q8 -2 11 -3.5t5.5 -5t2.5 -9.5q0 -46 -53 -117l-7 5q39 59 39 94z" />
    <glyph glyph-name="dagger" unicode="&#x2020;" horiz-adv-x="366" 
d="M326 549h-31l-109 6l5 -80v-32l-5 -203h-6l-6 203v32l6 80l-109 -6h-31v17h31l109 -5l-6 108v31h17v-31l-5 -108l109 5h31v-17z" />
    <glyph glyph-name="daggerdbl" unicode="&#x2021;" horiz-adv-x="366" 
d="M186 555l5 -80v-42l-5 -80l109 6h31v-17h-31l-109 5l5 -108v-31h-17v31l6 108l-109 -5h-31v17h31l109 -6l-6 80v42l6 80l-109 -6h-31v17h31l109 -5l-6 108v31h17v-31l-5 -108l109 5h31v-17h-31z" />
    <glyph glyph-name="bullet" unicode="&#x2022;" horiz-adv-x="322" 
d="M161 202q-48 0 -74.5 24t-26.5 67q0 47 26.5 72t74.5 25t74.5 -25t26.5 -72q0 -43 -26.5 -67t-74.5 -24z" />
    <glyph glyph-name="ellipsis" unicode="&#x2026;" horiz-adv-x="382" 
d="M81 36q21 0 21 -20q0 -19 -21 -19t-21 19q0 20 21 20zM189 36q21 0 21 -20q0 -19 -21 -19t-21 19q0 20 21 20zM301 36q21 0 21 -20q0 -19 -21 -19t-21 19q0 20 21 20z" />
    <glyph glyph-name="perthousand" unicode="&#x2030;" horiz-adv-x="1172" 
d="M185 709h54q72 0 98.5 -38.5t26.5 -122.5v-53q0 -84 -26.5 -122.5t-98.5 -38.5h-54q-72 0 -98.5 38.5t-26.5 122.5v53q0 84 26.5 122.5t98.5 38.5zM125 0l275 356l262 344h22l-537 -700h-22zM239 690h-54q-62 0 -83 -34.5t-21 -112.5v-43q0 -78 21 -112.5t83 -34.5h54
q62 0 83 34.5t21 112.5v43q0 78 -21 112.5t-83 34.5zM583 367h54q72 0 98.5 -38.5t26.5 -122.5v-53q0 -84 -26.5 -122.5t-98.5 -38.5h-54q-72 0 -98.5 38.5t-26.5 122.5v53q0 84 26.5 122.5t98.5 38.5zM987 -8h-54q-72 0 -98.5 38.5t-26.5 122.5v53q0 84 26.5 122.5
t98.5 38.5h54q72 0 98.5 -38.5t26.5 -122.5v-53q0 -84 -26.5 -122.5t-98.5 -38.5zM637 348h-54q-62 0 -83 -34.5t-21 -112.5v-43q0 -78 21 -112.5t83 -34.5h54q62 0 83 34.5t21 112.5v43q0 78 -21 112.5t-83 34.5zM933 11h54q62 0 83 34.5t21 112.5v43q0 78 -21 112.5
t-83 34.5h-54q-62 0 -83 -34.5t-21 -112.5v-43q0 -78 21 -112.5t83 -34.5z" />
    <glyph glyph-name="guilsinglleft" unicode="&#x2039;" horiz-adv-x="306" 
d="M78 263l168 -181v-10h-10l-186 191v4l186 191h10v-10l-168 -181v-4z" />
    <glyph glyph-name="guilsinglright" unicode="&#x203a;" horiz-adv-x="306" 
d="M218 267l-168 181v10h10l186 -191v-4l-186 -191h-10v10l168 181v4z" />
    <glyph glyph-name="fraction" unicode="&#x2044;" horiz-adv-x="202" 
d="M379 700l-537 -700h-22l275 356l262 344h22z" />
    <glyph glyph-name="zeroinferior" unicode="&#x2080;" horiz-adv-x="399" 
d="M214 -153h-29q-66 0 -95.5 32.5t-29.5 101.5v143q0 68 29.5 100.5t95.5 32.5h29q66 0 95.5 -32.5t29.5 -100.5v-143q0 -69 -29.5 -101.5t-95.5 -32.5zM185 -135h29q55 0 80 28.5t25 87.5v143q0 58 -25 86.5t-80 28.5h-29q-55 0 -80 -28.5t-25 -86.5v-143q0 -59 25 -87.5
t80 -28.5z" />
    <glyph glyph-name="oneinferior" unicode="&#x2081;" horiz-adv-x="325" 
d="M190 258v-393q28 0 100 -2v-14h-235v14q82 2 115 2v371l-115 -37v15l120 44h15z" />
    <glyph glyph-name="twoinferior" unicode="&#x2082;" horiz-adv-x="397" 
d="M337 -151h-277v18q0 80 18 114.5t72 55.5q20 8 84 30q44 16 62.5 34.5t18.5 45.5v18q0 45 -22.5 60.5t-85.5 15.5q-80 0 -120 -21l-3 -60h-15v69q55 28 134 28q73 0 102 -20t29 -71v-19q0 -34 -23 -56.5t-76 -41.5q-60 -20 -85 -30q-41 -17 -55.5 -48t-14.5 -104h240
l2 87h15v-105z" />
    <glyph glyph-name="threeinferior" unicode="&#x2083;" horiz-adv-x="360" 
d="M300 154v-9q0 -42 -10.5 -64.5t-38.5 -29.5q28 -7 38.5 -28t10.5 -61v-13q0 -59 -27.5 -80.5t-104.5 -21.5q-53 0 -138 22v74h14l3 -64q73 -16 121 -16q66 0 90 18t24 68v13q0 46 -19 63t-60 17h-104v17h104q41 0 60 19t19 67v9q0 51 -24 69t-90 18q-59 0 -113 -19
l-3 -62h-13v71q63 26 129 26q77 0 104.5 -21.5t27.5 -81.5z" />
    <glyph glyph-name="fourinferior" unicode="&#x2084;" horiz-adv-x="433" 
d="M284 -47v-88q17 0 87 -2v-14h-205v14q80 2 98 2v87h-244v16l244 290h20v-290h89v-15h-89zM41 -32h223v262z" />
    <glyph glyph-name="fiveinferior" unicode="&#x2085;" horiz-adv-x="410" 
d="M338 160h-15l-2 72h-222l-9 -185q51 35 137 35h24q57 0 78 -24t21 -88v-9q0 -59 -33.5 -85.5t-106.5 -28.5h-7q-58 0 -143 22v87h14l3 -75q74 -16 126 -16h6q63 1 92 23.5t29 72.5v9q0 55 -16 74.5t-63 19.5h-24q-88 0 -137 -33l-20 4l11 215h257v-90z" />
    <glyph glyph-name="sixinferior" unicode="&#x2086;" horiz-adv-x="417" 
d="M210 82h37q58 0 84 -26.5t26 -86.5v-7q0 -61 -31 -88t-102 -27h-22q-142 0 -142 118v156q0 136 132 136h7q68 0 137 -20v-77h-14l-3 66q-50 14 -127 14q-114 0 -114 -122v-80q61 46 132 44zM78 22v-54q0 -103 124 -103h22q61 0 87 22.5t26 74.5v7q0 52 -20.5 73.5
t-69.5 21.5h-37q-67 0 -132 -42z" />
    <glyph glyph-name="seveninferior" unicode="&#x2087;" horiz-adv-x="332" 
d="M312 232l-203 -383h-18v8l202 375h-256l-3 -72h-14v90h292v-18z" />
    <glyph glyph-name="eightinferior" unicode="&#x2088;" horiz-adv-x="437" 
d="M360 160v-16q0 -69 -73 -85q90 -12 90 -100v-11q0 -53 -32.5 -77t-106.5 -24h-39q-74 0 -106.5 24t-32.5 77v11q0 88 90 100q-73 16 -73 85v16q0 50 31.5 73.5t97.5 23.5h25q66 0 97.5 -23.5t31.5 -73.5zM96 160v-16q0 -39 25.5 -57t80.5 -18h33q55 0 80.5 18t25.5 57v16
q0 79 -111 79h-23q-111 0 -111 -79zM358 -52v11q0 46 -27 67.5t-84 21.5h-57q-57 0 -84 -21.5t-27 -67.5v-11q0 -45 28 -64.5t93 -19.5h37q65 0 93 19.5t28 64.5z" />
    <glyph glyph-name="nineinferior" unicode="&#x2089;" horiz-adv-x="407" 
d="M197 12h-37q-59 0 -84.5 28t-25.5 95v7q0 61 31 88t102 27h22q142 0 142 -118v-156q0 -136 -132 -136h-8q-71 1 -136 20v77h14l3 -66q50 -14 127 -14q114 0 114 122v70q-61 -46 -132 -44zM329 72v64q0 103 -124 103h-22q-61 0 -87 -22.5t-26 -74.5v-7q0 -59 20.5 -82
t69.5 -23h37q67 0 132 42z" />
    <glyph glyph-name="Euro" unicode="&#x20ac;" horiz-adv-x="615" 
d="M509 525l-6 128q-34 17 -78 25.5t-67 9t-78 0.5q-95 0 -144.5 -55t-49.5 -162v-71h332l-4 -17h-328v-78h292l-4 -17h-288v-90q0 -98 48.5 -142.5t145.5 -44.5h42q146 0 198 115h15v-12q-24 -59 -79.5 -90.5t-131.5 -31.5h-44q-108 0 -161.5 48.5t-53.5 152.5v95h-65v17
h65v78h-65v17h65v76q0 114 54.5 172.5t160.5 58.5h18q148 0 226 -43v-139h-15z" />
    <glyph glyph-name="uni2116" unicode="&#x2116;" horiz-adv-x="1290" 
d="M935 703h80q175 0 175 -171v-208q0 -171 -175 -171h-80q-175 0 -175 171v208q0 171 175 171zM730 700v-15q-68 -2 -95 -2v-683h-30l-435 674v-657q25 0 85 -2v-15h-205v15q70 2 99 2v666q-50 0 -99 2v15h125l439 -673v656q-25 0 -89 2v15h205zM1015 686h-80
q-155 0 -155 -159v-198q0 -159 155 -159h80q155 0 155 159v198q0 159 -155 159zM1190 0h-430v18h430v-18z" />
    <glyph glyph-name="trademark" unicode="&#x2122;" horiz-adv-x="697" 
d="M278 632h-16l-2 53h-97v-241q10 0 30 -0.5t30 -0.5v-14h-137v14q10 0 30.5 0.5t30.5 0.5v241h-100l-2 -53h-15v68h248v-68zM667 700v-15q-7 0 -23 -0.5t-23 -0.5v-240q7 0 23 -0.5t23 -0.5v-14h-104v15h41v233l-110 -248h-22l-110 248v-234h41v-14h-104v14q8 0 23.5 0.5
t23.5 0.5v240q-8 0 -23.5 0.5t-23.5 0.5v15h70l112 -246h4l111 246h71z" />
    <glyph glyph-name="oneeighth" unicode="&#x215b;" horiz-adv-x="854" 
d="M190 708v-393q28 0 100 -2v-14h-235v14q82 2 115 2v371l-115 -37v15l120 44h15zM664 700l-537 -700h-22l275 356l262 344h22zM777 311v-16q0 -69 -73 -85q90 -12 90 -100v-11q0 -53 -32.5 -77t-106.5 -24h-39q-74 0 -106.5 24t-32.5 77v11q0 88 90 100q-73 16 -73 85v16
q0 50 31.5 73.5t97.5 23.5h25q66 0 97.5 -23.5t31.5 -73.5zM513 311v-16q0 -39 25.5 -57t80.5 -18h33q55 0 80.5 18t25.5 57v16q0 79 -111 79h-23q-111 0 -111 -79zM775 99v11q0 46 -27 67.5t-84 21.5h-57q-57 0 -84 -21.5t-27 -67.5v-11q0 -45 28 -64.5t93 -19.5h37
q65 0 93 19.5t28 64.5z" />
    <glyph glyph-name="threeeighths" unicode="&#x215c;" horiz-adv-x="889" 
d="M300 604v-9q0 -42 -10.5 -64.5t-38.5 -29.5q28 -7 38.5 -28t10.5 -61v-13q0 -59 -27.5 -80.5t-104.5 -21.5q-53 0 -138 22v74h14l3 -64q73 -16 121 -16q66 0 90 18t24 68v13q0 46 -19 63t-60 17h-104v17h104q41 0 60 19t19 67v9q0 51 -24 69t-90 18q-59 0 -113 -19
l-3 -62h-13v71q63 26 129 26q77 0 104.5 -21.5t27.5 -81.5zM689 700l-537 -700h-22l275 356l262 344h22zM812 311v-16q0 -69 -73 -85q90 -12 90 -100v-11q0 -53 -32.5 -77t-106.5 -24h-39q-74 0 -106.5 24t-32.5 77v11q0 88 90 100q-73 16 -73 85v16q0 50 31.5 73.5
t97.5 23.5h25q66 0 97.5 -23.5t31.5 -73.5zM548 311v-16q0 -39 25.5 -57t80.5 -18h33q55 0 80.5 18t25.5 57v16q0 79 -111 79h-23q-111 0 -111 -79zM810 99v11q0 46 -27 67.5t-84 21.5h-57q-57 0 -84 -21.5t-27 -67.5v-11q0 -45 28 -64.5t93 -19.5h37q65 0 93 19.5t28 64.5z
" />
    <glyph glyph-name="fiveeighths" unicode="&#x215d;" horiz-adv-x="909" 
d="M338 700v-90h-15l-2 72h-222l-9 -185q51 35 137 35h24q57 0 78 -24t21 -88v-9q0 -59 -33.5 -85.5t-106.5 -28.5h-7q-58 0 -143 22v87h14l3 -75q74 -16 126 -16h6q63 1 92 23.5t29 72.5v9q0 55 -16 74.5t-63 19.5h-24q-88 0 -137 -33l-20 4l11 215h257zM709 700l-537 -700
h-22l275 356l262 344h22zM832 311v-16q0 -69 -73 -85q90 -12 90 -100v-11q0 -53 -32.5 -77t-106.5 -24h-39q-74 0 -106.5 24t-32.5 77v11q0 88 90 100q-73 16 -73 85v16q0 50 31.5 73.5t97.5 23.5h25q66 0 97.5 -23.5t31.5 -73.5zM568 311v-16q0 -39 25.5 -57t80.5 -18h33
q55 0 80.5 18t25.5 57v16q0 79 -111 79h-23q-111 0 -111 -79zM830 99v11q0 46 -27 67.5t-84 21.5h-57q-57 0 -84 -21.5t-27 -67.5v-11q0 -45 28 -64.5t93 -19.5h37q65 0 93 19.5t28 64.5z" />
    <glyph glyph-name="seveneighths" unicode="&#x215e;" horiz-adv-x="801" 
d="M312 682l-203 -383h-18v8l202 375h-256l-3 -72h-14v90h292v-18zM591 700l-537 -700h-22l275 356l262 344h22zM724 311v-16q0 -69 -73 -85q90 -12 90 -100v-11q0 -53 -32.5 -77t-106.5 -24h-39q-74 0 -106.5 24t-32.5 77v11q0 88 90 100q-73 16 -73 85v16q0 50 31.5 73.5
t97.5 23.5h25q66 0 97.5 -23.5t31.5 -73.5zM460 311v-16q0 -39 25.5 -57t80.5 -18h33q55 0 80.5 18t25.5 57v16q0 79 -111 79h-23q-111 0 -111 -79zM722 99v11q0 46 -27 67.5t-84 21.5h-57q-57 0 -84 -21.5t-27 -67.5v-11q0 -45 28 -64.5t93 -19.5h37q65 0 93 19.5t28 64.5z
" />
    <glyph glyph-name="arrowleft" unicode="&#x2190;" horiz-adv-x="794" 
d="M764 338h-674l315 -314l-15 -15l-330 329v20l330 329l15 -15l-315 -314h674v-20z" />
    <glyph glyph-name="arrowup" unicode="&#x2191;" horiz-adv-x="798" 
d="M778 374l-15 -15l-314 315v-674h-20v674l-314 -315l-15 15l329 330h20z" />
    <glyph glyph-name="arrowright" unicode="&#x2192;" horiz-adv-x="794" 
d="M704 358l-315 314l15 15l330 -329v-20l-330 -329l-15 15l315 314h-674v20h674z" />
    <glyph glyph-name="arrowdown" unicode="&#x2193;" horiz-adv-x="798" 
d="M409 -4h-20l-329 330l15 15l314 -315v674h20v-674l314 315l15 -15z" />
    <glyph glyph-name="arrowupleft" unicode="&#x2196;" horiz-adv-x="602" 
d="M85 478l477 -476l-14 -14l-477 477v-445h-20v466l13 14h466v-22h-445z" />
    <glyph glyph-name="arrowupright" unicode="&#x2197;" horiz-adv-x="602" 
d="M72 478v22h466l13 -14v-466h-20v445l-477 -477l-14 14l477 476h-445z" />
    <glyph glyph-name="arrowdownright" unicode="&#x2198;" horiz-adv-x="602" 
d="M517 21l-477 476l14 14l477 -477v445h20v-466l-13 -14h-466v22h445z" />
    <glyph glyph-name="arrowdownleft" unicode="&#x2199;" horiz-adv-x="602" 
d="M530 21v-22h-466l-13 14v466h20v-445l477 477l14 -14l-477 -476h445z" />
    <glyph glyph-name="minus" unicode="&#x2212;" horiz-adv-x="598" 
d="M70 361h458v-18h-458v18z" />
    <glyph glyph-name="J.ss01" horiz-adv-x="553" 
d="M518 700v-15q-64 -2 -90 -2v-480q0 -211 -202 -211h-15q-86 0 -132.5 29.5t-58.5 92.5v12h17q13 -64 52.5 -89.5t124.5 -25.5h9q184 0 184 197v475q-73 0 -114 2v15h225z" />
    <glyph glyph-name="K.ss02" horiz-adv-x="740" 
d="M345 411l268 -394q30 0 102 -2v-15h-205v15q56 2 79 2l-258 379l-166 -174v-205q26 0 90 -2v-15h-205v15q66 2 94 2v666q-28 0 -94 2v15h205v-15q-64 -2 -90 -2v-433l415 433q-24 0 -80 2v15h205v-15q-70 -2 -100 -2z" />
    <glyph glyph-name="Kcommaaccent.ss02" horiz-adv-x="740" 
d="M345 411l268 -394q30 0 102 -2v-15h-205v15q56 2 79 2l-258 379l-166 -174v-205q26 0 90 -2v-15h-205v15q66 2 94 2v666q-28 0 -94 2v15h205v-15q-64 -2 -90 -2v-433l415 433q-24 0 -80 2v15h205v-15q-70 -2 -100 -2zM366 -88v17q0 19 22 14q8 -2 11 -3.5t5.5 -5
t2.5 -9.5q0 -22 -11 -44q-11 -26 -40 -53l-7 5q18 20 27 36.5t9.5 21.5t0.5 16z" />
    <glyph glyph-name="Q.ss03" horiz-adv-x="724" 
d="M305 707h114q97 0 156 -60.5t59 -160.5v-273q0 -81 -36 -139t-102 -74q32 -43 108 -117l-12 -13q-74 70 -126 125q-21 -3 -47 -3h-94q-106 0 -170.5 60.5t-64.5 160.5v273q0 100 59 160.5t156 60.5zM419 688h-114q-87 0 -140.5 -57t-53.5 -150v-263q0 -93 59 -150
t155 -57h94q93 0 143.5 56t50.5 151v263q0 93 -53.5 150t-140.5 57z" />
    <glyph glyph-name="R.ss04" horiz-adv-x="668" 
d="M50 700h355q90 0 142.5 -49.5t52.5 -133.5v-54q0 -80 -54.5 -126t-157.5 -46q38 -85 154 -274q58 0 106 -2v-15h-120q-109 174 -163 291h-98v18h128q89 0 137 42.5t48 114.5v48q0 78 -46 122.5t-129 44.5h-235v-664q31 0 95 -2v-15h-215v15q68 2 99 2v666q-50 0 -99 2v15
z" />
    <glyph glyph-name="Racute.ss04" horiz-adv-x="668" 
d="M420 869l-1 -5l-97 -108l-9 7l89 115zM50 700h355q90 0 142.5 -49.5t52.5 -133.5v-54q0 -80 -54.5 -126t-157.5 -46q38 -85 154 -274q58 0 106 -2v-15h-120q-109 174 -163 291h-98v18h128q89 0 137 42.5t48 114.5v48q0 78 -46 122.5t-129 44.5h-235v-664q31 0 95 -2v-15
h-215v15q68 2 99 2v666q-50 0 -99 2v15z" />
    <glyph glyph-name="Rcaron.ss04" horiz-adv-x="668" 
d="M353 761h-12l-109 106l9 7l106 -92l106 92l9 -7zM50 700h355q90 0 142.5 -49.5t52.5 -133.5v-54q0 -80 -54.5 -126t-157.5 -46q38 -85 154 -274q58 0 106 -2v-15h-120q-109 174 -163 291h-98v18h128q89 0 137 42.5t48 114.5v48q0 78 -46 122.5t-129 44.5h-235v-664
q31 0 95 -2v-15h-215v15q68 2 99 2v666q-50 0 -99 2v15z" />
    <glyph glyph-name="Rcommaaccent.ss04" horiz-adv-x="668" 
d="M50 700h355q90 0 142.5 -49.5t52.5 -133.5v-54q0 -80 -54.5 -126t-157.5 -46q38 -85 154 -274q58 0 106 -2v-15h-120q-109 174 -163 291h-98v18h128q89 0 137 42.5t48 114.5v48q0 78 -46 122.5t-129 44.5h-235v-664q31 0 95 -2v-15h-215v15q68 2 99 2v666q-50 0 -99 2v15
zM335 -88v17q0 19 22 14q8 -2 11 -3.5t5.5 -5t2.5 -9.5q0 -22 -11 -44q-11 -26 -40 -53l-7 5q18 20 27 36.5t9.5 21.5t0.5 16z" />
    <glyph glyph-name="a.ss05" horiz-adv-x="582" 
d="M552 500v-15q-22 -1 -50 -2t-35 -1v-464q7 0 35 -1t50 -2v-15h-105v86q-65 -51 -110.5 -72.5t-111.5 -21.5h-20q-135 0 -135 161v188q0 161 135 161h20q71 0 107.5 -9.5t114.5 -48.5v56h105zM207 9h19q60 0 106.5 21.5t114.5 73.5v323q-80 39 -117 48.5t-104 9.5h-22
q-58 0 -86 -35.5t-28 -113.5v-178q0 -149 117 -149z" />
    <glyph glyph-name="aacute.ss05" horiz-adv-x="582" 
d="M333 699l-1 -5l-97 -108l-9 7l89 115zM552 500v-15q-22 -1 -50 -2t-35 -1v-464q7 0 35 -1t50 -2v-15h-105v86q-65 -51 -110.5 -72.5t-111.5 -21.5h-20q-135 0 -135 161v188q0 161 135 161h20q71 0 107.5 -9.5t114.5 -48.5v56h105zM207 9h19q60 0 106.5 21.5t114.5 73.5
v323q-80 39 -117 48.5t-104 9.5h-22q-58 0 -86 -35.5t-28 -113.5v-178q0 -149 117 -149z" />
    <glyph glyph-name="abreve.ss05" horiz-adv-x="582" 
d="M391 692v-9q0 -97 -101 -97q-102 0 -102 97v9h17v-9q0 -82 85 -82q84 0 84 82v9h17zM552 500v-15q-22 -1 -50 -2t-35 -1v-464q7 0 35 -1t50 -2v-15h-105v86q-65 -51 -110.5 -72.5t-111.5 -21.5h-20q-135 0 -135 161v188q0 161 135 161h20q71 0 107.5 -9.5t114.5 -48.5v56
h105zM207 9h19q60 0 106.5 21.5t114.5 73.5v323q-80 39 -117 48.5t-104 9.5h-22q-58 0 -86 -35.5t-28 -113.5v-178q0 -149 117 -149z" />
    <glyph glyph-name="acircumflex.ss05" horiz-adv-x="582" 
d="M395 591l-106 92l-106 -92l-9 7l109 106h12l109 -106zM552 500v-15q-22 -1 -50 -2t-35 -1v-464q7 0 35 -1t50 -2v-15h-105v86q-65 -51 -110.5 -72.5t-111.5 -21.5h-20q-135 0 -135 161v188q0 161 135 161h20q71 0 107.5 -9.5t114.5 -48.5v56h105zM207 9h19
q60 0 106.5 21.5t114.5 73.5v323q-80 39 -117 48.5t-104 9.5h-22q-58 0 -86 -35.5t-28 -113.5v-178q0 -149 117 -149z" />
    <glyph glyph-name="adieresis.ss05" horiz-adv-x="582" 
d="M209 626q-19 0 -19 17q0 18 19 18t19 -18q0 -17 -19 -17zM369 626q-19 0 -19 17q0 18 19 18t19 -18q0 -17 -19 -17zM552 500v-15q-22 -1 -50 -2t-35 -1v-464q7 0 35 -1t50 -2v-15h-105v86q-65 -51 -110.5 -72.5t-111.5 -21.5h-20q-135 0 -135 161v188q0 161 135 161h20
q71 0 107.5 -9.5t114.5 -48.5v56h105zM207 9h19q60 0 106.5 21.5t114.5 73.5v323q-80 39 -117 48.5t-104 9.5h-22q-58 0 -86 -35.5t-28 -113.5v-178q0 -149 117 -149z" />
    <glyph glyph-name="agrave.ss05" horiz-adv-x="582" 
d="M343 593l-9 -7l-97 108l-1 5l18 9zM552 500v-15q-22 -1 -50 -2t-35 -1v-464q7 0 35 -1t50 -2v-15h-105v86q-65 -51 -110.5 -72.5t-111.5 -21.5h-20q-135 0 -135 161v188q0 161 135 161h20q71 0 107.5 -9.5t114.5 -48.5v56h105zM207 9h19q60 0 106.5 21.5t114.5 73.5v323
q-80 39 -117 48.5t-104 9.5h-22q-58 0 -86 -35.5t-28 -113.5v-178q0 -149 117 -149z" />
    <glyph glyph-name="amacron.ss05" horiz-adv-x="582" 
d="M399 629v-19h-220v19h220zM552 500v-15q-22 -1 -50 -2t-35 -1v-464q7 0 35 -1t50 -2v-15h-105v86q-65 -51 -110.5 -72.5t-111.5 -21.5h-20q-135 0 -135 161v188q0 161 135 161h20q71 0 107.5 -9.5t114.5 -48.5v56h105zM207 9h19q60 0 106.5 21.5t114.5 73.5v323
q-80 39 -117 48.5t-104 9.5h-22q-58 0 -86 -35.5t-28 -113.5v-178q0 -149 117 -149z" />
    <glyph glyph-name="aogonek.ss05" horiz-adv-x="582" 
d="M552 500v-15q-22 -1 -50 -2t-35 -1v-464q7 0 35 -1t50 -2v-15h-88q-26 -13 -41 -22t-30 -25.5t-15 -34.5v-4q0 -48 65 -48q42 0 81 27l8 -10q-44 -33 -87 -33h-4q-80 0 -80 64v4q0 47 86 84v84q-65 -51 -110.5 -72.5t-111.5 -21.5h-20q-135 0 -135 161v188q0 161 135 161
h20q71 0 107.5 -9.5t114.5 -48.5v56h105zM207 9h19q60 0 106.5 21.5t114.5 73.5v323q-80 39 -117 48.5t-104 9.5h-22q-58 0 -86 -35.5t-28 -113.5v-178q0 -149 117 -149z" />
    <glyph glyph-name="aring.ss05" horiz-adv-x="582" 
d="M293 586h-8q-26 0 -42.5 16t-16.5 42v12q0 25 16.5 41t42.5 16h8q26 0 42.5 -16t16.5 -41v-12q0 -26 -16.5 -42t-42.5 -16zM285 600h8q19 0 31.5 12t12.5 32v12q0 19 -12 31t-32 12h-8q-20 0 -32 -12t-12 -31v-12q0 -20 12.5 -32t31.5 -12zM552 500v-15q-22 -1 -50 -2
t-35 -1v-464q7 0 35 -1t50 -2v-15h-105v86q-65 -51 -110.5 -72.5t-111.5 -21.5h-20q-135 0 -135 161v188q0 161 135 161h20q71 0 107.5 -9.5t114.5 -48.5v56h105zM207 9h19q60 0 106.5 21.5t114.5 73.5v323q-80 39 -117 48.5t-104 9.5h-22q-58 0 -86 -35.5t-28 -113.5v-178
q0 -149 117 -149z" />
    <glyph glyph-name="atilde.ss05" horiz-adv-x="582" 
d="M418 706l-64 -66q-20 -22 -36 -22q-9 0 -25 14.5t-37 35.5t-37 31l-91 -81l-7 6l64 66q20 22 36 22q9 0 25 -14t37 -35.5t37 -31.5l91 81zM552 500v-15q-22 -1 -50 -2t-35 -1v-464q7 0 35 -1t50 -2v-15h-105v86q-65 -51 -110.5 -72.5t-111.5 -21.5h-20q-135 0 -135 161
v188q0 161 135 161h20q71 0 107.5 -9.5t114.5 -48.5v56h105zM207 9h19q60 0 106.5 21.5t114.5 73.5v323q-80 39 -117 48.5t-104 9.5h-22q-58 0 -86 -35.5t-28 -113.5v-178q0 -149 117 -149z" />
    <glyph glyph-name="g.ss06" horiz-adv-x="575" 
d="M545 485l-78 -3v-469q0 -161 -165 -161h-49q-55 0 -100 21.5t-64 63.5v12h14l3 -7q40 -73 149 -73h47q145 0 145 149v79q-68 -46 -111.5 -60.5t-113.5 -14.5h-20q-132 0 -132 161v168q0 84 30 122.5t95 38.5h20q66 0 117 -16t115 -51v55h98v-15zM201 39h22q65 0 109.5 15
t114.5 61v312q-66 36 -118 52t-113 16h-19q-57 0 -82 -36.5t-25 -112.5v-158q0 -149 111 -149z" />
    <glyph glyph-name="gbreve.ss06" horiz-adv-x="575" 
d="M377 692v-9q0 -97 -101 -97q-102 0 -102 97v9h17v-9q0 -82 85 -82q84 0 84 82v9h17zM467 482v-469q0 -161 -165 -161h-49q-55 0 -100 21.5t-64 63.5v12h14l3 -7q40 -73 149 -73h47q145 0 145 149v79q-68 -46 -111.5 -60.5t-113.5 -14.5h-20q-132 0 -132 161v168
q0 84 30 122.5t95 38.5h20q66 0 117 -16t115 -51v55h98v-15zM201 39h22q65 0 109.5 15t114.5 61v312q-66 36 -118 52t-113 16h-19q-57 0 -82 -36.5t-25 -112.5v-158q0 -149 111 -149z" />
    <glyph glyph-name="gcommaaccent.ss06" horiz-adv-x="575" 
d="M277 648v-17q0 -19 -22 -14q-8 2 -11 3.5t-5.5 5t-2.5 9.5q0 22 11 44q11 26 40 53l7 -5q-18 -20 -27 -36.5t-9.5 -21.5t-0.5 -16zM467 482v-469q0 -161 -165 -161h-49q-55 0 -100 21.5t-64 63.5v12h14l3 -7q40 -73 149 -73h47q145 0 145 149v79q-68 -46 -111.5 -60.5
t-113.5 -14.5h-20q-132 0 -132 161v168q0 84 30 122.5t95 38.5h20q66 0 117 -16t115 -51v55h98v-15zM201 39h22q65 0 109.5 15t114.5 61v312q-66 36 -118 52t-113 16h-19q-57 0 -82 -36.5t-25 -112.5v-158q0 -149 111 -149z" />
    <glyph glyph-name="gdotaccent.ss06" horiz-adv-x="575" 
d="M275 626q-19 0 -19 17q0 18 19 18t19 -18q0 -17 -19 -17zM467 482v-469q0 -161 -165 -161h-49q-55 0 -100 21.5t-64 63.5v12h14l3 -7q40 -73 149 -73h47q145 0 145 149v79q-68 -46 -111.5 -60.5t-113.5 -14.5h-20q-132 0 -132 161v168q0 84 30 122.5t95 38.5h20
q66 0 117 -16t115 -51v55h98v-15zM201 39h22q65 0 109.5 15t114.5 61v312q-66 36 -118 52t-113 16h-19q-57 0 -82 -36.5t-25 -112.5v-158q0 -149 111 -149z" />
    <glyph glyph-name="k.ss07" horiz-adv-x="602" 
d="M155 700v-474l312 257q-15 0 -75 2v15h180v-15q-64 -2 -80 -2l-215 -179l224 -288q51 0 71 -1v-15h-87l-5 15l-218 277l-107 -89v-186q21 0 85 -2v-15h-190v15q64 2 85 2v665l-78 3v15h98z" />
    <glyph glyph-name="kcommaaccent.ss07" horiz-adv-x="602" 
d="M155 226l312 257q-15 0 -75 2v15h180v-15q-64 -2 -80 -2l-215 -179l224 -288q51 0 71 -1v-15h-87l-5 15l-218 277l-107 -89v-186q21 0 85 -2v-15h-190v15q64 2 85 2v665l-78 3v15h98v-474zM294 -88v17q0 19 22 14q8 -2 11 -3.5t5.5 -5t2.5 -9.5q0 -22 -11 -44
q-11 -26 -40 -53l-7 5q18 20 27 36.5t9.5 21.5t0.5 16z" />
    <glyph glyph-name="y.ss08" horiz-adv-x="612" 
d="M542 500v-487q0 -161 -165 -161h-49q-55 0 -100 21.5t-64 63.5v12h14l3 -7q40 -73 149 -73h47q145 0 145 149v79q-68 -46 -111.5 -60.5t-113.5 -14.5h-20q-132 0 -132 161v299q-29 0 -95 3v15h115v-312q0 -149 111 -149h22q65 0 109.5 15t114.5 61v367q-29 0 -95 3v15
h115z" />
    <glyph glyph-name="yacute.ss08" horiz-adv-x="612" 
d="M385 699l-1 -5l-97 -108l-9 7l89 115zM542 500v-487q0 -161 -165 -161h-49q-55 0 -100 21.5t-64 63.5v12h14l3 -7q40 -73 149 -73h47q145 0 145 149v79q-68 -46 -111.5 -60.5t-113.5 -14.5h-20q-132 0 -132 161v299q-29 0 -95 3v15h115v-312q0 -149 111 -149h22
q65 0 109.5 15t114.5 61v367q-29 0 -95 3v15h115z" />
    <glyph glyph-name="ycircumflex.ss08" horiz-adv-x="612" 
d="M447 591l-106 92l-106 -92l-9 7l109 106h12l109 -106zM542 500v-487q0 -161 -165 -161h-49q-55 0 -100 21.5t-64 63.5v12h14l3 -7q40 -73 149 -73h47q145 0 145 149v79q-68 -46 -111.5 -60.5t-113.5 -14.5h-20q-132 0 -132 161v299q-29 0 -95 3v15h115v-312
q0 -149 111 -149h22q65 0 109.5 15t114.5 61v367q-29 0 -95 3v15h115z" />
    <glyph glyph-name="ydieresis.ss08" horiz-adv-x="612" 
d="M261 626q-19 0 -19 17q0 18 19 18t19 -18q0 -17 -19 -17zM421 626q-19 0 -19 17q0 18 19 18t19 -18q0 -17 -19 -17zM542 500v-487q0 -161 -165 -161h-49q-55 0 -100 21.5t-64 63.5v12h14l3 -7q40 -73 149 -73h47q145 0 145 149v79q-68 -46 -111.5 -60.5t-113.5 -14.5h-20
q-132 0 -132 161v299q-29 0 -95 3v15h115v-312q0 -149 111 -149h22q65 0 109.5 15t114.5 61v367q-29 0 -95 3v15h115z" />
    <glyph glyph-name="ygrave.ss08" horiz-adv-x="612" 
d="M345 593l-9 -7l-97 108l-1 5l18 9zM542 500v-487q0 -161 -165 -161h-49q-55 0 -100 21.5t-64 63.5v12h14l3 -7q40 -73 149 -73h47q145 0 145 149v79q-68 -46 -111.5 -60.5t-113.5 -14.5h-20q-132 0 -132 161v299q-29 0 -95 3v15h115v-312q0 -149 111 -149h22
q65 0 109.5 15t114.5 61v367q-29 0 -95 3v15h115z" />
    <glyph glyph-name="i.dot" horiz-adv-x="270" 
d="M143 626q-19 0 -19 17q0 18 19 18t19 -18q0 -17 -19 -17zM155 500v-483q21 0 85 -2v-15h-190v15q64 2 85 2v465l-78 3v15h98z" />
    <glyph glyph-name="f_f_f" horiz-adv-x="932" 
d="M743 484v-467q25 0 95 -2v-15h-200v15q62 2 85 2v467h-274v-467q25 0 95 -2v-15h-200v15q62 2 85 2v467h-274v-467q25 0 95 -2v-15h-200v15q62 2 85 2v467h-85v14q14 0 42.5 1t42.5 1v70q0 51 15 78.5t57 38.5q40 10 84 18l3 -13q-38 -9 -81 -21q-36 -11 -47 -35t-11 -74
v-62h274v70q0 51 15 78.5t57 38.5q40 10 84 18l3 -13q-38 -9 -81 -21q-36 -11 -47 -35t-11 -74v-62h274v70q0 51 15 78.5t57 38.5q40 10 84 18l3 -13q-38 -9 -81 -21q-36 -11 -47 -35t-11 -74v-62h159v-16h-159z" />
    <glyph glyph-name="f_f_j" horiz-adv-x="802" 
d="M706 500v-437q0 -60 -15 -93t-64 -82q-6 -6 -34 -29l-11 14l26 23q44 44 61 78.5t17 88.5v421h-237v-467q25 0 95 -2v-15h-200v15q62 2 85 2v467h-274v-467q25 0 95 -2v-15h-200v15q62 2 85 2v467h-85v14q14 0 42.5 1t42.5 1v70q0 51 15 78.5t57 38.5q40 10 84 18l3 -13
q-38 -9 -81 -21q-36 -11 -47 -35t-11 -74v-62h274v70q0 51 15 78.5t57 38.5q40 10 84 18l3 -13q-38 -9 -81 -21q-36 -11 -47 -35t-11 -74v-62h257zM693 661q19 0 19 -18q0 -17 -19 -17t-19 17q0 18 19 18z" />
    <glyph glyph-name="f_f_t" horiz-adv-x="935" 
d="M783 9h8q56 0 94 5v-17q-35 -5 -95 -5h-9q-55 0 -75 27.5t-20 103.5v359h-237v-465q25 0 95 -2v-15h-200v15q62 2 85 2v467h-274v-467q25 0 95 -2v-15h-200v15q62 2 85 2v467h-85v14q14 0 42.5 1t42.5 1v70q0 51 15 78.5t57 38.5q40 10 84 18l3 -13q-38 -9 -81 -21
q-36 -11 -47 -35t-11 -74v-62l246 -1l28 1v70q0 51 15 78.5t57 38.5q40 10 84 18l3 -13q-38 -9 -81 -21q-36 -11 -47 -35t-11 -74v-62h225q12 0 12 15v142q10 3 20 3v-160h156v-18h-156v-354q0 -69 16.5 -94t60.5 -25z" />
    <glyph glyph-name="f_i" horiz-adv-x="527" 
d="M412 500v-483q21 0 85 -2v-15h-190v15q64 2 85 2v467h-237v-467q25 0 95 -2v-15h-200v15q62 2 85 2v467h-85v14q14 0 42.5 1t42.5 1v70q0 51 15 78.5t57 38.5q40 10 84 18l3 -13q-38 -9 -81 -21q-36 -11 -47 -35t-11 -74v-62h257zM399 626q-19 0 -19 17q0 18 19 18
t19 -18q0 -17 -19 -17z" />
    <glyph glyph-name="f_j" horiz-adv-x="508" 
d="M412 500v-437q0 -60 -15 -93t-64 -82q-7 -6 -34 -29l-11 14l26 23q44 44 61 78.5t17 88.5v421h-237v-467q25 0 95 -2v-15h-200v15q62 2 85 2v467h-85v14q14 0 42.5 1t42.5 1v70q0 51 15 78.5t57 38.5q40 10 84 18l3 -13q-38 -9 -81 -21q-36 -11 -47 -35t-11 -74v-62h257z
M399 661q19 0 19 -18q0 -17 -19 -17t-19 17q0 18 19 18z" />
    <glyph glyph-name="f_l" horiz-adv-x="609" 
d="M155 484v-467q25 0 95 -2v-15h-200v15q62 2 85 2v467h-85v14q14 0 42.5 1t42.5 1v70q0 51 15 78.5t57 38.5q40 10 84 18l3 -13q-38 -9 -81 -21q-36 -11 -47 -35t-11 -74v-62h159v-16h-159zM479 700v-683q21 0 85 -2v-15h-190v15q64 2 85 2v665l-78 3v15h98z" />
    <glyph glyph-name="f_t" horiz-adv-x="641" 
d="M489 9h8q56 0 94 5v-17q-35 -5 -95 -5h-9q-55 0 -75 27.5t-20 103.5v359h-237v-465q25 0 95 -2v-15h-200v15q62 2 85 2v467h-85v14q14 0 42.5 1t42.5 1v70q0 51 15 78.5t57 38.5q40 10 84 18l3 -13q-38 -9 -81 -21q-36 -11 -47 -35t-11 -74v-62h225q12 0 12 15v142
q10 3 20 3v-160h156v-18h-156v-354q0 -69 16.5 -94t60.5 -25z" />
    <glyph glyph-name="three.ss09" horiz-adv-x="574" 
d="M471 700v-18l-233 -302h70q112 0 144 -27.5t32 -114.5v-68q0 -100 -42 -136.5t-160 -37.5h-5q-72 0 -217 38v109h15l5 -99q133 -29 197 -29h6q109 1 144.5 31.5t35.5 123.5v68q0 55 -10.5 79t-42 34.5t-102.5 10.5h-81l-12 19l234 301h-369v18h391z" />
    <glyph glyph-name="zero.tf" 
d="M307 -8h-44q-106 0 -160.5 56t-54.5 165v273q0 109 54.5 165t160.5 56h44q106 0 160.5 -56t54.5 -165v-273q0 -109 -54.5 -165t-160.5 -56zM263 11h44q95 0 144.5 52.5t49.5 154.5v263q0 102 -49.5 154.5t-144.5 52.5h-44q-95 0 -144.5 -52.5t-49.5 -154.5v-263
q0 -102 49.5 -154.5t144.5 -52.5z" />
    <glyph glyph-name="one.tf" 
d="M303 700v-683q74 0 150 -2v-15h-335v15q82 2 164 2v661l-124 -38v16l130 44h15z" />
    <glyph glyph-name="two.tf" 
d="M499 157v-157h-428v18q0 126 13.5 178t58.5 83q23 16 55 31.5t92.5 41.5t88.5 39q51 23 71 46.5t20 64.5v33q0 92 -35 122.5t-136 30.5q-113 0 -192 -49l-5 -89h-15v99q94 58 212 58q111 0 151.5 -36t40.5 -135v-34q0 -47 -25 -75t-88 -58q-20 -10 -69 -30.5t-88.5 -38.5
t-60.5 -33q-43 -30 -55.5 -77t-12.5 -172h387l4 139h16z" />
    <glyph glyph-name="three.tf" 
d="M497 529v-24q0 -73 -18.5 -109t-54.5 -46q73 -21 73 -132v-48q0 -101 -43 -137.5t-164 -36.5q-72 0 -217 38v109h15l5 -99q133 -29 197 -29q113 0 149.5 30.5t36.5 124.5v48q0 26 -4.5 45.5t-11 33t-21.5 22t-27 13.5t-37 7t-42 2.5t-51 0.5h-93v18h93q36 0 54.5 0.5
t43.5 3t36.5 8.5t25.5 16t20 25.5t10 38t4 53.5v24q0 92 -39 125.5t-147 33.5q-79 0 -182 -37l-5 -111h-15v119q109 48 202 48q118 0 162.5 -39t44.5 -139z" />
    <glyph glyph-name="four.tf" 
d="M20 204l388 496h21v-496h105v-14l-105 -4v-169q31 0 107 -2v-15h-235v15q76 2 107 2v169h-388v18zM44 204h364v462z" />
    <glyph glyph-name="five.tf" 
d="M494 583h-16l-4 99h-351l-16 -337q50 33 90 44t100 11h80q134 0 134 -142v-68q0 -114 -47 -154t-190 -40q-72 0 -217 38v109h15l5 -99q133 -29 197 -29q131 0 173.5 36t42.5 139v68q0 124 -113 124h-80q-60 0 -99 -10t-91 -44l-20 7l19 365h388v-117z" />
    <glyph glyph-name="six.tf" 
d="M301 409h30q103 0 143.5 -40.5t40.5 -141.5v-38q0 -194 -207 -194h-37q-108 0 -161.5 47t-53.5 151v283q0 114 54.5 172.5t160.5 58.5q116 0 214 -34v-99h-15l-6 88q-88 26 -193 26q-95 0 -144.5 -55t-49.5 -162v-131q65 37 111.5 53t112.5 16zM77 323v-125
q0 -97 48 -140.5t146 -43.5h37q186 0 186 175v38q0 91 -36 127.5t-127 36.5h-30q-66 0 -111.5 -15.5t-112.5 -52.5z" />
    <glyph glyph-name="seven.tf" 
d="M522 682l-332 -682h-22v13l336 669h-424l-4 -129h-16v147h462v-18z" />
    <glyph glyph-name="eight.tf" 
d="M507 543v-27q0 -134 -134 -157q164 -18 164 -164v-19q0 -184 -215 -184h-74q-215 0 -215 184v19q0 146 164 164q-134 23 -134 157v27q0 163 205 163h34q205 0 205 -163zM84 543v-27q0 -76 45 -112t139 -36h34q94 0 139 36t45 112v27q0 74 -44.5 109t-139.5 35h-34
q-95 0 -139.5 -35t-44.5 -109zM516 176v19q0 154 -194 154h-74q-194 0 -194 -154v-19q0 -165 194 -165h74q194 0 194 165z" />
    <glyph glyph-name="nine.tf" 
d="M269 293h-30q-103 0 -143.5 40.5t-40.5 141.5v38q0 194 207 194h37q115 0 165 -46.5t50 -153.5v-287q0 -123 -54.5 -173.5t-182.5 -50.5q-79 0 -187 38v109h15l5 -99q89 -29 167 -29q116 0 166 46t50 159v145q-63 -38 -110.5 -55t-113.5 -17zM493 379v128q0 97 -45 139
t-149 42h-37q-186 0 -186 -175v-38q0 -91 36 -127.5t127 -36.5h30q66 0 111.5 15.5t112.5 52.5z" />
    <glyph glyph-name="zero.dnom" horiz-adv-x="399" 
d="M214 -2h-29q-66 0 -95.5 32.5t-29.5 101.5v143q0 68 29.5 100.5t95.5 32.5h29q66 0 95.5 -32.5t29.5 -100.5v-143q0 -69 -29.5 -101.5t-95.5 -32.5zM185 16h29q55 0 80 28.5t25 87.5v143q0 58 -25 86.5t-80 28.5h-29q-55 0 -80 -28.5t-25 -86.5v-143q0 -59 25 -87.5
t80 -28.5z" />
    <glyph glyph-name="one.dnom" horiz-adv-x="325" 
d="M190 409v-393q28 0 100 -2v-14h-235v14q82 2 115 2v371l-115 -37v15l120 44h15z" />
    <glyph glyph-name="two.dnom" horiz-adv-x="397" 
d="M337 105v-105h-277v18q0 80 18 114.5t72 55.5q20 8 84 30q44 16 62.5 34.5t18.5 45.5v18q0 45 -22.5 60.5t-85.5 15.5q-80 0 -120 -21l-3 -60h-15v69q55 28 134 28q73 0 102 -20t29 -71v-19q0 -34 -23 -56.5t-76 -41.5q-60 -20 -85 -30q-41 -17 -55.5 -48t-14.5 -104h240
l2 87h15z" />
    <glyph glyph-name="three.dnom" horiz-adv-x="360" 
d="M300 305v-9q0 -42 -10.5 -64.5t-38.5 -29.5q28 -7 38.5 -28t10.5 -61v-13q0 -59 -27.5 -80.5t-104.5 -21.5q-53 0 -138 22v74h14l3 -64q73 -16 121 -16q66 0 90 18t24 68v13q0 46 -19 63t-60 17h-104v17h104q41 0 60 19t19 67v9q0 51 -24 69t-90 18q-59 0 -113 -19
l-3 -62h-13v71q63 26 129 26q77 0 104.5 -21.5t27.5 -81.5z" />
    <glyph glyph-name="four.dnom" horiz-adv-x="433" 
d="M284 104v-88q17 0 87 -2v-14h-205v14q80 2 98 2v87h-244v16l244 290h20v-290h89v-15h-89zM264 381l-223 -262h223v262z" />
    <glyph glyph-name="five.dnom" horiz-adv-x="410" 
d="M338 401v-90h-15l-2 72h-222l-9 -185q51 35 137 35h24q57 0 78 -24t21 -88v-9q0 -59 -33.5 -85.5t-106.5 -28.5h-7q-58 0 -143 22v87h14l3 -75q74 -16 126 -16h6q63 1 92 23.5t29 72.5v9q0 55 -16 74.5t-63 19.5h-24q-88 0 -137 -33l-20 4l11 215h257z" />
    <glyph glyph-name="six.dnom" horiz-adv-x="417" 
d="M210 233h37q58 0 84 -26.5t26 -86.5v-7q0 -61 -31 -88t-102 -27h-22q-142 0 -142 118v156q0 136 132 136h7q68 0 137 -20v-77h-14l-3 66q-50 14 -127 14q-114 0 -114 -122v-80q61 46 132 44zM78 173v-54q0 -103 124 -103h22q61 0 87 22.5t26 74.5v7q0 52 -20.5 73.5
t-69.5 21.5h-37q-67 0 -132 -42z" />
    <glyph glyph-name="seven.dnom" horiz-adv-x="332" 
d="M312 383l-203 -383h-18v8l202 375h-256l-3 -72h-14v90h292v-18z" />
    <glyph glyph-name="eight.dnom" horiz-adv-x="437" 
d="M360 311v-16q0 -69 -73 -85q90 -12 90 -100v-11q0 -53 -32.5 -77t-106.5 -24h-39q-74 0 -106.5 24t-32.5 77v11q0 88 90 100q-73 16 -73 85v16q0 50 31.5 73.5t97.5 23.5h25q66 0 97.5 -23.5t31.5 -73.5zM96 311v-16q0 -39 25.5 -57t80.5 -18h33q55 0 80.5 18t25.5 57v16
q0 79 -111 79h-23q-111 0 -111 -79zM358 99v11q0 46 -27 67.5t-84 21.5h-57q-57 0 -84 -21.5t-27 -67.5v-11q0 -45 28 -64.5t93 -19.5h37q65 0 93 19.5t28 64.5z" />
    <glyph glyph-name="nine.dnom" horiz-adv-x="407" 
d="M197 163h-37q-59 0 -84.5 28t-25.5 95v7q0 61 31 88t102 27h22q142 0 142 -118v-156q0 -136 -132 -136h-8q-71 1 -136 20v77h14l3 -66q50 -14 127 -14q114 0 114 122v70q-61 -46 -132 -44zM329 223v64q0 103 -124 103h-22q-61 0 -87 -22.5t-26 -74.5v-7q0 -59 20.5 -82
t69.5 -23h37q67 0 132 42z" />
    <glyph glyph-name="zero.numr" horiz-adv-x="399" 
d="M214 297h-29q-66 0 -95.5 32.5t-29.5 101.5v143q0 68 29.5 100.5t95.5 32.5h29q66 0 95.5 -32.5t29.5 -100.5v-143q0 -69 -29.5 -101.5t-95.5 -32.5zM185 315h29q55 0 80 28.5t25 87.5v143q0 58 -25 86.5t-80 28.5h-29q-55 0 -80 -28.5t-25 -86.5v-143q0 -59 25 -87.5
t80 -28.5z" />
    <glyph glyph-name="one.numr" horiz-adv-x="325" 
d="M190 708v-393q28 0 100 -2v-14h-235v14q82 2 115 2v371l-115 -37v15l120 44h15z" />
    <glyph glyph-name="two.numr" horiz-adv-x="397" 
d="M337 404v-105h-277v18q0 80 18 114.5t72 55.5q20 8 84 30q44 16 62.5 34.5t18.5 45.5v18q0 45 -22.5 60.5t-85.5 15.5q-80 0 -120 -21l-3 -60h-15v69q55 28 134 28q73 0 102 -20t29 -71v-19q0 -34 -23 -56.5t-76 -41.5q-60 -20 -85 -30q-41 -17 -55.5 -48t-14.5 -104h240
l2 87h15z" />
    <glyph glyph-name="three.numr" horiz-adv-x="360" 
d="M300 604v-9q0 -42 -10.5 -64.5t-38.5 -29.5q28 -7 38.5 -28t10.5 -61v-13q0 -59 -27.5 -80.5t-104.5 -21.5q-53 0 -138 22v74h14l3 -64q73 -16 121 -16q66 0 90 18t24 68v13q0 46 -19 63t-60 17h-104v17h104q41 0 60 19t19 67v9q0 51 -24 69t-90 18q-59 0 -113 -19
l-3 -62h-13v71q63 26 129 26q77 0 104.5 -21.5t27.5 -81.5z" />
    <glyph glyph-name="four.numr" horiz-adv-x="433" 
d="M284 403v-88q17 0 87 -2v-14h-205v14q80 2 98 2v87h-244v16l244 290h20v-290h89v-15h-89zM264 680l-223 -262h223v262z" />
    <glyph glyph-name="five.numr" horiz-adv-x="410" 
d="M338 700v-90h-15l-2 72h-222l-9 -185q51 35 137 35h24q57 0 78 -24t21 -88v-9q0 -59 -33.5 -85.5t-106.5 -28.5h-7q-58 0 -143 22v87h14l3 -75q74 -16 126 -16h6q63 1 92 23.5t29 72.5v9q0 55 -16 74.5t-63 19.5h-24q-88 0 -137 -33l-20 4l11 215h257z" />
    <glyph glyph-name="six.numr" horiz-adv-x="417" 
d="M210 532h37q58 0 84 -26.5t26 -86.5v-7q0 -61 -31 -88t-102 -27h-22q-142 0 -142 118v156q0 136 132 136h7q68 0 137 -20v-77h-14l-3 66q-50 14 -127 14q-114 0 -114 -122v-80q61 46 132 44zM78 472v-54q0 -103 124 -103h22q61 0 87 22.5t26 74.5v7q0 52 -20.5 73.5
t-69.5 21.5h-37q-67 0 -132 -42z" />
    <glyph glyph-name="seven.numr" horiz-adv-x="332" 
d="M312 682l-203 -383h-18v8l202 375h-256l-3 -72h-14v90h292v-18z" />
    <glyph glyph-name="eight.numr" horiz-adv-x="437" 
d="M360 610v-16q0 -69 -73 -85q90 -12 90 -100v-11q0 -53 -32.5 -77t-106.5 -24h-39q-74 0 -106.5 24t-32.5 77v11q0 88 90 100q-73 16 -73 85v16q0 50 31.5 73.5t97.5 23.5h25q66 0 97.5 -23.5t31.5 -73.5zM96 610v-16q0 -39 25.5 -57t80.5 -18h33q55 0 80.5 18t25.5 57v16
q0 79 -111 79h-23q-111 0 -111 -79zM358 398v11q0 46 -27 67.5t-84 21.5h-57q-57 0 -84 -21.5t-27 -67.5v-11q0 -45 28 -64.5t93 -19.5h37q65 0 93 19.5t28 64.5z" />
    <glyph glyph-name="nine.numr" horiz-adv-x="407" 
d="M197 462h-37q-59 0 -84.5 28t-25.5 95v7q0 61 31 88t102 27h22q142 0 142 -118v-156q0 -136 -132 -136h-8q-71 1 -136 20v77h14l3 -66q50 -14 127 -14q114 0 114 122v70q-61 -46 -132 -44zM329 522v64q0 103 -124 103h-22q-61 0 -87 -22.5t-26 -74.5v-7q0 -59 20.5 -82
t69.5 -23h37q67 0 132 42z" />
    <glyph glyph-name="backslash.case" horiz-adv-x="393" 
d="M11 752l392 -852h-21l-392 852h21z" />
    <glyph glyph-name="bullet.case" horiz-adv-x="322" 
d="M161 262q-48 0 -74.5 24t-26.5 67q0 47 26.5 72t74.5 25t74.5 -25t26.5 -72q0 -43 -26.5 -67t-74.5 -24z" />
    <glyph glyph-name="exclamdown.case" horiz-adv-x="202" 
d="M101 703q21 0 21 -19q0 -20 -21 -20t-21 20q0 19 21 19zM90 0v62l6 465h10l6 -465v-62h-22z" />
    <glyph glyph-name="periodcentered.case" horiz-adv-x="162" 
d="M81 337q-21 0 -21 19q0 20 21 20t21 -20q0 -19 -21 -19z" />
    <glyph glyph-name="questiondown.case" horiz-adv-x="479" 
d="M283 703q21 0 21 -19q0 -20 -21 -20t-21 20q0 19 21 19zM454 150v-99q-55 -33 -101.5 -45.5t-107.5 -12.5q-116 0 -155.5 34.5t-39.5 136.5v34q0 49 15.5 77t58.5 47q25 11 76 33.5t77 33.5v138h10l8 -150l-153 -66q-40 -17 -55.5 -43.5t-15.5 -69.5v-33
q0 -92 34.5 -122.5t139.5 -30.5q62 0 100.5 10t88.5 38l5 90h15z" />
    <glyph glyph-name="slash.case" horiz-adv-x="393" 
d="M11 -60h-21l392 852h21z" />
    <glyph glyph-name="numbersign.ss10" horiz-adv-x="499" 
d="M337 430h109v-18h-112l-20 -114h-21l20 114h-157l-20 -114h-21l20 114h-85v18h88l25 148h-93v18h96l18 104h21l-18 -104h157l18 104h21l-18 -104h84v-18h-87zM184 578l-25 -148h157l25 148h-157z" />
    <glyph glyph-name="braceleft.case" horiz-adv-x="336" 
d="M151 583v-482q0 -67 29 -105.5t106 -77.5l-4 -11q-81 38 -115.5 81t-34.5 113v239h-92v18h92v225q0 70 34.5 113t115.5 81l4 -11q-77 -39 -106 -77.5t-29 -105.5z" />
    <glyph glyph-name="braceright.case" horiz-adv-x="336" 
d="M185 101v482q0 67 -29 105.5t-106 77.5l4 11q81 -38 115.5 -81t34.5 -113v-225h92v-18h-92v-239q0 -70 -34.5 -113t-115.5 -81l-4 11q77 39 106 77.5t29 105.5z" />
    <glyph glyph-name="bracketleft.case" horiz-adv-x="337" 
d="M287 742h-178v-794h178v-18h-197v830h197v-18z" />
    <glyph glyph-name="bracketright.case" horiz-adv-x="337" 
d="M247 760v-830h-197v18h178v794h-178v18h197z" />
    <glyph glyph-name="parenleft.case" horiz-adv-x="264" 
d="M79 596v-482q0 -67 29 -105.5t106 -77.5l-4 -11q-81 38 -115.5 81t-34.5 113v482q0 70 34.5 113t115.5 81l4 -11q-77 -39 -106 -77.5t-29 -105.5z" />
    <glyph glyph-name="parenright.case" horiz-adv-x="264" 
d="M185 114v482q0 67 -29 105.5t-106 77.5l4 11q81 -38 115.5 -81t34.5 -113v-482q0 -70 -34.5 -113t-115.5 -81l-4 11q77 39 106 77.5t29 105.5z" />
    <glyph glyph-name="emdash.case" horiz-adv-x="874" 
d="M814 347h-754v20h754v-20z" />
    <glyph glyph-name="endash.case" horiz-adv-x="518" 
d="M458 347h-398v20h398v-20z" />
    <glyph glyph-name="hyphen.case" horiz-adv-x="308" 
d="M308 347h-248v20h248v-20z" />
    <glyph glyph-name="guillemotleft.case" horiz-adv-x="456" 
d="M271 142v-10h-10l-186 191v4l186 191h10v-10l-168 -181v-4zM421 142v-10h-10l-186 191v4l186 191h10v-10l-168 -181v-4z" />
    <glyph glyph-name="guillemotright.case" horiz-adv-x="456" 
d="M243 327l-168 181v10h10l186 -191v-4l-186 -191h-10v10l168 181v4zM393 327l-168 181v10h10l186 -191v-4l-186 -191h-10v10l168 181v4z" />
    <glyph glyph-name="guilsinglleft.case" horiz-adv-x="306" 
d="M246 172v-10h-10l-186 191v4l186 191h10v-10l-168 -181v-4z" />
    <glyph glyph-name="guilsinglright.case" horiz-adv-x="306" 
d="M218 357l-168 181v10h10l186 -191v-4l-186 -191h-10v10l168 181v4z" />
    <glyph glyph-name="florin.tf" 
d="M449 420v-16h-152l-46 -309q-8 -53 -24 -80t-58 -37q-40 -10 -84 -18l-3 13q38 9 81 21q35 10 47.5 33.5t20.5 75.5l44 301h-90v14q71 2 93 2l22 150q8 53 24 80t58 37q40 10 84 18l3 -13q-38 -9 -81 -21q-35 -10 -47.5 -33.5t-20.5 -75.5l-21 -142h150z" />
    <glyph glyph-name="cent.tf" 
d="M488 89v-12q-19 -42 -64 -63.5t-100 -21.5h-32v-67h-18v67q-91 0 -137.5 43.5t-46.5 127.5v178q0 84 46.5 127.5t137.5 43.5v73h18v-73h9q101 0 179 -45v-89h-15l-4 79q-42 21 -76.5 29t-92.5 9v-486h30q110 0 150 73l3 7h13zM110 336v-168q0 -78 42 -118.5t122 -40.5
v486q-80 0 -122 -40.5t-42 -118.5z" />
    <glyph glyph-name="dollar.tf" 
d="M293 385l102 -22q72 -17 100 -52t28 -107v-44q0 -92 -47.5 -129t-167.5 -37h-13h-2v-69h-19v69q-130 4 -225 63v139h15l6 -130q88 -49 204 -53v356l-114 25q-63 15 -87 46.5t-24 91.5v16q0 85 49.5 122t165.5 37h10v71h19v-71q113 -3 210 -53v-139h-15l-6 130
q-83 40 -189 43v-303zM274 389v299h-10q-104 0 -149 -32.5t-45 -107.5v-15q0 -53 21 -80t75 -40zM502 165v38q0 65 -25 95.5t-90 45.5l-94 21v-352h4h11q108 0 151 33.5t43 118.5z" />
    <glyph glyph-name="Euro.tf" 
d="M511 525l-6 128q-34 17 -78 25.5t-67 9t-78 0.5q-95 0 -144.5 -55t-49.5 -162v-71h332l-4 -17h-328v-78h292l-4 -17h-288v-90q0 -98 48.5 -142.5t145.5 -44.5h42q146 0 198 115h15v-12q-24 -59 -79.5 -90.5t-131.5 -31.5h-44q-108 0 -161.5 48.5t-53.5 152.5v95h-65v17
h65v78h-65v17h65v76q0 114 54.5 172.5t160.5 58.5h18q148 0 226 -43v-139h-15z" />
    <glyph glyph-name="sterling.tf" 
d="M540 0h-512v15q64 52 96 109.5t18 131.5l-6 33h-113v17h110l-31 170q-20 111 27.5 171t147.5 60h58q108 0 186 -43v-139h-15l-6 128q-34 17 -80 25.5t-69.5 9t-73.5 0.5q-90 0 -132 -56.5t-22 -160.5l32 -165h266l-4 -17h-259l5 -24q27 -135 -106 -247h463l4 139h16v-157
z" />
    <glyph glyph-name="yen.tf" 
d="M558 700v-15q-60 -2 -85 -2l-175 -412h180v-18h-186v-92h186v-18h-186v-126q26 0 90 -2v-15h-205v15q66 2 94 2v126h-191v18h191v92h-191v18h185l-174 412q-24 0 -86 2v15h205v-15q-66 -2 -94 -2l165 -400h1l165 400q-28 0 -94 2v15h205z" />
    <glyph glyph-name="arrowdown.ss13" horiz-adv-x="814" 
d="M408 75q115 0 195.5 81t80.5 197q0 115 -80.5 196t-195.5 81t-196.5 -81t-81.5 -196t81 -196.5t197 -81.5zM418 203h-20l-133 132l15 15l118 -117v269h20v-269l117 117l15 -15z" />
    <glyph glyph-name="arrowdownleft.ss13" horiz-adv-x="815" 
d="M212 156q81 -82 195 -81.5t196 82.5q81 81 81.5 195.5t-80.5 195.5q-82 82 -196.5 82t-195.5 -81q-82 -82 -82 -197t82 -196zM309 239l-15 14v187h22v-166l190 191l15 -15l-191 -190h166v-21h-187z" />
    <glyph glyph-name="arrowdownright.ss13" horiz-adv-x="815" 
d="M603 156q82 81 82 196t-82 197q-81 81 -195.5 81t-196.5 -82q-81 -81 -80.5 -195.5t81.5 -195.5q82 -82 196 -82.5t195 81.5zM319 260h166l-191 190l15 15l191 -191v166h20v-187l-14 -14h-187v21z" />
    <glyph glyph-name="arrowleft.ss13" horiz-adv-x="814" 
d="M130 352q0 -115 81 -195.5t197 -80.5q115 0 196 80.5t81 195.5t-81 196.5t-196 81.5q-116 0 -197 -81t-81 -197zM258 342v20l132 133l15 -15l-117 -118h269v-20h-269l117 -117l-15 -15z" />
    <glyph glyph-name="arrowright.ss13" horiz-adv-x="814" 
d="M685 352q0 116 -81.5 197t-196.5 81t-196 -81.5t-81 -196.5t81 -195.5t196 -80.5q116 0 197 80.5t81 195.5zM410 225l117 117h-269v20h269l-117 118l15 15l132 -133v-20l-132 -132z" />
    <glyph glyph-name="arrowup.ss13" horiz-adv-x="814" 
d="M408 630q-116 0 -197 -81t-81 -197q0 -115 81.5 -196t196.5 -81t195.5 81t80.5 196q0 116 -80.5 197t-195.5 81zM535 355l-117 117v-269h-20v269l-118 -117l-15 15l133 132h20l132 -132z" />
    <glyph glyph-name="arrowupleft.ss13" horiz-adv-x="815" 
d="M212 549q-82 -81 -82 -196t82 -197q81 -81 195.5 -81t196.5 82q81 81 80.5 195.5t-81.5 195.5q-82 82 -196 82.5t-195 -81.5zM496 445h-166l191 -190l-15 -15l-191 191v-166h-20v187l14 14h187v-21z" />
    <glyph glyph-name="arrowupright.ss13" horiz-adv-x="815" 
d="M603 549q-81 82 -195 81.5t-196 -82.5q-81 -81 -81.5 -195.5t80.5 -195.5q82 -82 196.5 -82t195.5 81q82 82 82 197t-82 196zM506 466l15 -14v-187h-22v166l-190 -191l-15 15l191 190h-166v21h187z" />
    <glyph glyph-name="at.case" horiz-adv-x="1086" 
d="M735 570l-34 -366q-3 -27 1.5 -43t19.5 -22t23.5 -7t29.5 -1q89 0 144 79t55 208q0 155 -104 249.5t-274 94.5q-218 0 -351 -126.5t-133 -334.5q0 -170 115.5 -274.5t303.5 -104.5q76 0 162 20.5t151 54.5l8 -18q-63 -35 -151 -56.5t-170 -21.5q-199 0 -320 110t-121 290
q0 217 139 349.5t367 132.5q180 0 290 -100.5t110 -264.5q0 -137 -60.5 -221t-160.5 -84q-28 0 -44 2t-32.5 17t-17.5 43q-45 -44 -83.5 -63.5t-105.5 -19.5h-20q-169 0 -152 196l10 123q4 77 50 119t116 42h30q99 0 184 -53l4 51h21zM683 208l25 291q-82 54 -182 54h-32
q-59 0 -98 -38t-45 -109l-9 -120q-5 -89 26.5 -132t106.5 -43h19q64 0 101 19.5t87 67.5z" />
    <glyph glyph-name="ampersand.ss11" horiz-adv-x="735" 
d="M695 380v-15q-66 -2 -92 -2v-99q0 -144 -57.5 -206t-196.5 -62h-64q-122 0 -178.5 44.5t-56.5 156.5v16q0 79 51.5 122.5t123.5 44.5q-40 19 -62.5 57.5t-22.5 84.5v26q0 159 175 159h13q82 0 156 -29v-93h-15l-6 84q-54 19 -137 19h-11q-154 0 -154 -140v-28
q0 -57 38 -98.5t97 -41.5h113v-16h-166q-74 0 -123 -38.5t-49 -117.5v-6q0 -104 52 -145.5t162 -41.5h64q130 0 183.5 57t51.5 192v99q-28 0 -94 2v15h205z" />
    <glyph glyph-name="copyright.ss12" horiz-adv-x="436" 
d="M218 357q-84 0 -131 47.5t-47 132.5q0 83 47 130.5t131 47.5t131 -47.5t47 -130.5q0 -85 -47 -132.5t-131 -47.5zM218 374q75 0 118 42.5t43 120.5q0 77 -43.5 119.5t-117.5 42.5t-117.5 -42.5t-43.5 -119.5q0 -78 43 -120.5t118 -42.5zM289 484v-6q-6 -16 -23.5 -27.5
t-42.5 -11.5h-10q-75 0 -75 73v42q0 80 75 80h9q38 0 66 -16v-48h-11l-3 41q-18 9 -62 9q-30 0 -44.5 -16t-14.5 -52v-38q0 -61 60 -61h9q19 0 35.5 8.5t20.5 22.5h11z" />
    <glyph glyph-name="acute.case" horiz-adv-x="500" 
d="M299 869l-1 -5l-97 -108l-9 7l89 115z" />
    <glyph glyph-name="breve.case" horiz-adv-x="500" 
d="M351 862v-9q0 -97 -101 -97q-102 0 -102 97v9h17v-9q0 -82 85 -82q84 0 84 82v9h17z" />
    <glyph glyph-name="caron.case" horiz-adv-x="500" 
d="M256 761h-12l-109 106l9 7l106 -92l106 92l9 -7z" />
    <glyph glyph-name="circumflex.case" horiz-adv-x="500" 
d="M356 761l-106 92l-106 -92l-9 7l109 106h12l109 -106z" />
    <glyph glyph-name="dieresis.case" horiz-adv-x="500" 
d="M170 796q-19 0 -19 17q0 18 19 18t19 -18q0 -17 -19 -17zM330 796q-19 0 -19 17q0 18 19 18t19 -18q0 -17 -19 -17z" />
    <glyph glyph-name="dotaccent.case" horiz-adv-x="500" 
d="M250 796q-19 0 -19 17q0 18 19 18t19 -18q0 -17 -19 -17z" />
    <glyph glyph-name="grave.case" horiz-adv-x="500" 
d="M299 763l-9 -7l-97 108l-1 5l18 9z" />
    <glyph glyph-name="hungarumlaut.case" horiz-adv-x="500" 
d="M259 869l-1 -5l-97 -108l-9 7l89 115zM349 869l-1 -5l-97 -108l-9 7l89 115z" />
    <glyph glyph-name="macron.case" horiz-adv-x="500" 
d="M360 799v-19h-220v19h220z" />
    <glyph glyph-name="ring.case" horiz-adv-x="500" 
d="M254 756h-8q-26 0 -42.5 16t-16.5 42v12q0 25 16.5 41t42.5 16h8q26 0 42.5 -16t16.5 -41v-12q0 -26 -16.5 -42t-42.5 -16zM246 770h8q20 0 32 12t12 32v12q0 19 -12 31t-32 12h-8q-20 0 -32 -12t-12 -31v-12q0 -20 12 -32t32 -12z" />
    <glyph glyph-name="tilde.case" horiz-adv-x="500" 
d="M398 856l-64 -66q-20 -22 -36 -22q-9 0 -25 14.5t-37 35.5t-37 31l-91 -81l-7 6l64 66q20 22 36 22q9 0 25 -14t37 -35.5t37 -31.5l91 81z" />
    <glyph glyph-name="caron.alt" horiz-adv-x="500" 
d="M272 700v-11l-29 -127h-14l24 138h19z" />
    </font>
</defs>
</svg>
