<?xml version="1.0" standalone="no"?>
<!DOCTYPE svg PUBLIC "-//W3C//DTD SVG 1.1//EN" "http://www.w3.org/Graphics/SVG/1.1/DTD/svg11.dtd" >
<svg xmlns="http://www.w3.org/2000/svg" xmlns:xlink="http://www.w3.org/1999/xlink" version="1.1">
<metadata>
Created by FontForge 20150102 at Tue Feb  3 16:01:13 2015
 By uniteet7
Copyright (c) 2012 by Rene Bieder. All rights reserved.
</metadata>
<defs>
<font id="ReneBiederQuadonUltraBold" horiz-adv-x="500" >
  <font-face 
    font-family="ReneBiederQuadonUltraBold"
    font-weight="800"
    font-stretch="normal"
    units-per-em="1000"
    panose-1="0 0 9 0 0 0 0 0 0 0"
    ascent="800"
    descent="-200"
    x-height="531"
    cap-height="700"
    bbox="-157 -264 1353 933"
    underline-thickness="50"
    underline-position="-90"
    unicode-range="U+0020-2212"
  />
<missing-glyph horiz-adv-x="683" 
d="M8 0l-8 9l674 691l9 -8z" />
    <glyph glyph-name="f_f" unicode="ff" horiz-adv-x="807" 
d="M634 414v-290q42 -4 85 -12v-112h-307v112q3 1 62 9v293h-219v-290q42 -4 85 -12v-112h-307v112q3 1 62 9v293h-68v103q53 7 68 8v51q0 60 34.5 100.5t97.5 52.5q31 5 148 19l14 -110q-5 -1 -39.5 -8t-57.5 -14q-37 -10 -37 -57v-28h219v45q0 60 34.5 100.5t97.5 52.5
q31 5 148 19l14 -110q-5 -1 -39.5 -8t-57.5 -14q-37 -10 -37 -57v-28h151v-117h-151z" />
    <glyph glyph-name="f_f_i" unicode="ffi" horiz-adv-x="1081" 
d="M918 589q-38 0 -64 22.5t-26 58.5q0 37 26 60t64 23q39 0 65 -23t26 -60q0 -36 -26 -58.5t-65 -22.5zM999 531v-408q40 -6 62 -11v-112h-283v112q18 5 61 11v291h-205v-290q42 -4 85 -12v-112h-307v112q3 1 62 9v293h-219v-290q42 -4 85 -12v-112h-307v112q3 1 62 9v293
h-68v103q53 7 68 8v51q0 60 34.5 100.5t97.5 52.5q31 5 148 19l14 -110q-5 -1 -39.5 -8t-57.5 -14q-37 -10 -37 -57v-28h219v45q0 60 34.5 100.5t97.5 52.5q31 5 148 19l14 -110q-5 -1 -39.5 -8t-57.5 -14q-37 -10 -37 -57v-28h365z" />
    <glyph glyph-name="f_f_l" unicode="ffl" horiz-adv-x="1119" 
d="M634 531h151v-117h-151v-290q42 -4 85 -12v-112h-307v112q3 1 62 9v293h-219v-290q42 -4 85 -12v-112h-307v112q3 1 62 9v293h-68v103q53 7 68 8v51q0 60 34.5 100.5t97.5 52.5q31 5 148 19l14 -110q-5 -1 -39.5 -8t-57.5 -14q-37 -10 -37 -57v-28h219v45
q0 60 34.5 100.5t97.5 52.5q31 5 148 19l14 -110q-5 -1 -39.5 -8t-57.5 -14q-37 -10 -37 -57v-28zM1032 700v-579q28 -3 62 -9v-112h-284v112q34 6 62 9v457q-43 7 -59 10v112h219z" />
    <glyph glyph-name=".notdef" horiz-adv-x="683" 
d="M8 0l-8 9l674 691l9 -8z" />
    <glyph glyph-name=".null" horiz-adv-x="0" 
 />
    <glyph glyph-name="nonmarkingreturn" horiz-adv-x="333" 
 />
    <glyph glyph-name="space" unicode=" " horiz-adv-x="240" 
 />
    <glyph glyph-name="exclam" unicode="!" horiz-adv-x="251" 
d="M215 700v-123l-42 -343h-94l-42 343v123h178zM126 -6q-91 0 -91 84q0 85 91 85t91 -85q0 -84 -91 -84z" />
    <glyph glyph-name="quotedbl" unicode="&#x22;" horiz-adv-x="388" 
d="M178 700v-83q0 -83 -72 -219h-79v302h151zM361 700v-83q0 -83 -72 -219h-79v302h151z" />
    <glyph glyph-name="numbersign" unicode="#" horiz-adv-x="694" 
d="M554 283h97v-136h-117l-23 -147h-137l23 147h-143l-23 -147h-137l23 147h-100v136h120l22 136h-112v136h132l23 145h137l-23 -145h143l23 145h137l-23 -145h82v-136h-102zM296 419l-22 -136h143l22 136h-143z" />
    <glyph glyph-name="dollar" unicode="$" horiz-adv-x="645" 
d="M349 430l118 -27q77 -19 107.5 -56t30.5 -112v-42q0 -97 -54 -143.5t-172 -50.5v-66h-123v66q-81 5 -209 45v178h139l18 -83q36 -14 96 -16v166l-110 26q-88 25 -119 61.5t-31 121.5v10q0 96 53 142.5t170 51.5v75h122v-76q96 -6 200 -35v-190h-132l-19 87q-31 12 -85 14
v-147zM300 442v135h-1q-47 0 -66 -13t-19 -47v-9q0 -24 11.5 -37.5t38.5 -20.5zM438 187v19q0 31 -16 44t-67 26l-6 1v-154q52 1 70.5 14t18.5 50z" />
    <glyph glyph-name="percent" unicode="%" horiz-adv-x="969" 
d="M498 349l-229 -363h-62l257 363l232 370h62zM192 713h69q87 -1 121 -40t34 -132v-85q-1 -92 -35 -130.5t-120 -38.5h-69q-88 0 -123 38.5t-36 130.5v85q0 94 35 133t124 39zM249 613h-49q-33 0 -44.5 -16t-11.5 -55v-86q0 -38 11.5 -53.5t44.5 -15.5h49q32 0 43.5 15.5
t12.5 53.5v86q0 39 -11.5 55t-44.5 16zM712 413h69q87 -1 121 -40t34 -132v-85q-1 -92 -35 -130.5t-120 -38.5h-69q-88 0 -123 38.5t-36 130.5v85q0 94 35 133t124 39zM769 313h-49q-33 0 -44.5 -16t-11.5 -55v-86q0 -38 11.5 -53.5t44.5 -15.5h49q32 0 43.5 15.5t12.5 53.5
v86q0 39 -11.5 55t-44.5 16z" />
    <glyph glyph-name="ampersand" unicode="&#x26;" horiz-adv-x="715" 
d="M671 428v-119q-61 -8 -82 -9q-13 -71 -34 -116l54 -56q42 -4 86 -9v-119h-169l-42 44q-25 -33 -58.5 -42.5t-115.5 -9.5h-34q-73 0 -117 7t-77 28t-46 59.5t-13 101.5v40q0 138 129 173q-47 61 -47 112v20q0 95 51.5 137t158.5 42h26q77 0 196 -33v-160h-133l-12 56
q-25 11 -58 11h-10q-32 0 -45 -13.5t-13 -45.5v-5q0 -20 6.5 -33.5t24.5 -35.5l152 -156q26 57 38 131h184zM174 243v-32q0 -49 21 -67.5t72 -18.5h35q32 0 48 6t29 24q-29 29 -80.5 82.5t-68.5 70.5q-56 -14 -56 -65z" />
    <glyph glyph-name="quotesingle" unicode="'" horiz-adv-x="205" 
d="M178 700v-83q0 -83 -72 -219h-79v302h151z" />
    <glyph glyph-name="parenleft" unicode="(" horiz-adv-x="294" 
d="M166 525v-475q0 -57 22 -83.5t86 -62.5l-35 -71q-45 17 -69 27.5t-57 30t-49.5 39.5t-28.5 50.5t-12 68.5v478q0 38 12 68.5t29 50.5t49 39t57 30t69 27l35 -71q-64 -36 -86 -62.5t-22 -83.5z" />
    <glyph glyph-name="parenright" unicode=")" horiz-adv-x="303" 
d="M137 50v475q0 57 -22 83.5t-86 62.5l35 71q44 -16 69 -27t57 -30t49 -39t29 -50.5t12 -68.5v-478q0 -38 -12 -68.5t-28.5 -50.5t-49.5 -39.5t-57 -30t-69 -27.5l-35 71q64 36 86 62.5t22 83.5z" />
    <glyph glyph-name="asterisk" unicode="*" horiz-adv-x="414" 
d="M394 454l-46 -77l-49 30l-67 60l20 -89v-57h-90v57l20 90l-67 -61l-49 -30l-46 77l51 30l84 27l-84 26l-51 29l46 78l49 -29l66 -60l-19 87v58h90v-58l-19 -86l66 59l49 29l46 -78l-51 -29l-84 -26l84 -27z" />
    <glyph glyph-name="plus" unicode="+" horiz-adv-x="585" 
d="M37 283v131h187v189h137v-189h187v-131h-187v-189h-137v189h-187z" />
    <glyph glyph-name="comma" unicode="," horiz-adv-x="227" 
d="M27 18l19 90q11 52 64 43q49 -8 70 -23.5t21 -49.5q0 -101 -131 -221l-41 30q34 66 41 112z" />
    <glyph glyph-name="hyphen" unicode="-" horiz-adv-x="381" 
d="M348 374v-130h-315v130h315z" />
    <glyph glyph-name="period" unicode="." horiz-adv-x="235" 
d="M118 -6q-91 0 -91 84q0 85 91 85t91 -85q0 -84 -91 -84z" />
    <glyph glyph-name="slash" unicode="/" horiz-adv-x="458" 
d="M468 782l-392 -852h-93l392 852h93z" />
    <glyph glyph-name="zero" unicode="0" horiz-adv-x="640" 
d="M348 -13h-48q-139 0 -200 59.5t-63 199.5v201q0 143 60.5 204t202.5 61h47q138 0 197 -61t59 -204v-200q-2 -140 -61 -200t-194 -60zM310 129h20q55 0 80.5 26t25.5 84v224q0 59 -25 86t-81 27h-20q-56 0 -81 -27t-25 -86v-224q0 -58 25 -84t81 -26z" />
    <glyph glyph-name="one" unicode="1" horiz-adv-x="435" 
d="M318 707v-577q44 -3 90 -11v-119h-368v119q59 10 111 13v420l-124 -13v120l200 48h91z" />
    <glyph glyph-name="two" unicode="2" horiz-adv-x="591" 
d="M547 207v-207h-507v117q0 72 11 112.5t31 61.5t63 45q42 24 161 75q46 20 64 34.5t18 36.5v28q0 41 -16 55t-61 14q-72 0 -114 -16l-11 -59h-126v168q92 24 143 32t124 8q119 0 170.5 -48.5t51.5 -160.5v-28q0 -78 -32.5 -109t-132.5 -71q-17 -7 -76 -29t-76 -32
q-25 -16 -31.5 -36t-6.5 -75h229l12 84h112z" />
    <glyph glyph-name="three" unicode="3" horiz-adv-x="572" 
d="M535 528v-36q0 -70 -20 -104t-62 -44q42 -9 62 -39.5t20 -95.5v-37q0 -98 -54 -138.5t-184 -40.5q-120 0 -267 29v167h112l12 -62q71 -10 142 -10q50 0 66 14t16 56v29q0 52 -25 62.5t-123 10.5h-82v122h82q100 0 124 11.5t24 68.5v21q0 41 -17.5 56.5t-64.5 15.5
q-55 0 -137 -12l-12 -67h-112v171q156 33 262 33q132 0 185 -41t53 -140z" />
    <glyph glyph-name="four" unicode="4" horiz-adv-x="628" 
d="M10 315l329 385h167v-385h91v-107l-91 -13v-71q49 -5 92 -12v-112h-355v112q59 10 96 12v71h-329v120zM183 315h156v206z" />
    <glyph glyph-name="five" unicode="5" horiz-adv-x="579" 
d="M527 521h-111l-6 52h-218l-8 -164q66 32 136 32h54q86 0 130.5 -35t44.5 -121v-106q0 -100 -54.5 -145t-179.5 -45q-122 0 -288 33v164h112l12 -63q76 -9 148 -9q53 0 73 17t20 60v72q0 60 -59 60h-56q-33 0 -54 -9.5t-52 -32.5l-128 36l13 383h471v-179z" />
    <glyph glyph-name="six" unicode="6" horiz-adv-x="630" 
d="M371 437h44q104 0 147.5 -38.5t43.5 -130.5v-90q0 -98 -58.5 -142t-178.5 -44h-63q-134 0 -201 62.5t-68 195.5v193q0 269 277 269q69 0 119.5 -7t140.5 -25v-168h-139l-19 51q-54 12 -101 12q-111 0 -111 -119v-72q73 42 167 53zM204 284v-59q0 -96 106 -96h57
q42 1 62 17.5t20 55.5v44q0 39 -17.5 56t-57.5 17h-32q-74 0 -138 -35z" />
    <glyph glyph-name="seven" unicode="7" horiz-adv-x="577" 
d="M560 573l-241 -573h-197v28l279 537h-250l-20 -74h-111v209h540v-127z" />
    <glyph glyph-name="eight" unicode="8" horiz-adv-x="661" 
d="M599 537v-45q0 -59 -22.5 -92.5t-74.5 -46.5q67 -13 96.5 -50t29.5 -105v-17q0 -101 -56 -147.5t-180 -46.5h-113q-128 0 -186 46.5t-60 147.5v17q0 68 30.5 104.5t99.5 49.5q-54 14 -77.5 47.5t-23.5 92.5v45q2 89 55.5 130t171.5 41h92q115 0 166.5 -41t51.5 -130z
M210 522v-40q0 -35 19.5 -49t64.5 -14h75q44 0 63 14t19 49v40q0 36 -19 52t-62 17h-76q-44 0 -64 -16t-20 -53zM461 193v42q0 36 -20 53t-65 17h-88q-46 0 -67 -17t-21 -53v-42q0 -39 21 -57.5t67 -18.5h88q44 0 64.5 18.5t20.5 57.5z" />
    <glyph glyph-name="nine" unicode="9" horiz-adv-x="630" 
d="M259 264h-44q-104 0 -148 38.5t-44 129.5v90q0 92 58 141t166 49h90q134 0 194 -63t62 -199v-195q0 -140 -67.5 -203t-217.5 -63q-61 0 -108 7t-142 26v172h152l5 -55q57 -13 92 -13q63 0 91 26.5t28 88.5v62q-33 -14 -49.5 -20t-49.5 -12.5t-68 -6.5zM426 410v66
q0 52 -25.5 77t-81.5 24h-57q-82 0 -82 -79v-43q0 -39 17.5 -56t57.5 -17h33q85 0 138 28z" />
    <glyph glyph-name="colon" unicode=":" horiz-adv-x="235" 
d="M118 368q-91 0 -91 84q0 85 91 85t91 -85q0 -84 -91 -84zM118 -6q-91 0 -91 84q0 85 91 85t91 -85q0 -84 -91 -84z" />
    <glyph glyph-name="semicolon" unicode=";" horiz-adv-x="235" 
d="M118 368q-91 0 -91 84q0 85 91 85t91 -85q0 -84 -91 -84zM27 18l19 90q11 52 64 43q49 -8 70 -23.5t21 -49.5q0 -101 -131 -221l-41 30q34 66 41 112z" />
    <glyph glyph-name="less" unicode="&#x3c;" horiz-adv-x="502" 
d="M469 494l-286 -149v-4l286 -147v-102h-66l-376 205v87l378 206h64v-96z" />
    <glyph glyph-name="equal" unicode="=" horiz-adv-x="550" 
d="M513 525v-132h-476v132h476zM513 293v-132h-476v132h476z" />
    <glyph glyph-name="greater" unicode="&#x3e;" horiz-adv-x="502" 
d="M97 590l378 -206v-87l-376 -205h-66v102l286 147v4l-286 149v96h64z" />
    <glyph glyph-name="question" unicode="?" horiz-adv-x="527" 
d="M15 511v161q95 25 143 32.5t123 7.5q114 0 168.5 -44.5t54.5 -144.5v-21q0 -71 -24 -106t-72 -52q-26 -8 -70.5 -20.5t-62.5 -17.5v-84h-132l-16 167q115 33 159 48q57 20 57 58v21q0 41 -16 55.5t-62 14.5q-65 0 -113 -16l-11 -59h-126zM210 -6q-91 0 -91 84q0 85 91 85
t91 -85q0 -84 -91 -84z" />
    <glyph glyph-name="at" unicode="@" horiz-adv-x="999" 
d="M737 503l-45 -317q-4 -43 7.5 -59.5t44.5 -16.5q65 0 105 61.5t40 171.5q0 151 -86.5 232t-250.5 81q-213 0 -327.5 -119t-114.5 -305q0 -167 100.5 -255.5t278.5 -88.5q160 0 298 69l22 -48q-138 -78 -323 -78q-204 0 -321.5 103.5t-117.5 295.5q0 215 134.5 349
t371.5 134q189 0 294.5 -94.5t105.5 -266.5q0 -145 -69.5 -227t-199.5 -82q-27 0 -42 1.5t-36 6.5t-33.5 18.5t-18.5 35.5q-35 -35 -67.5 -52t-84.5 -17h-15q-68 0 -107.5 44t-28.5 135l15 121q10 75 55 120.5t104 45.5h18q68 0 144 -34l4 35h146zM554 187l21 191
q-42 21 -88 21h-15q-34 0 -52.5 -26t-24.5 -84l-4 -40q-6 -59 8 -81t54 -22h9q44 0 91 34z" />
    <glyph glyph-name="A" unicode="A" horiz-adv-x="802" 
d="M510 700l189 -570q42 -3 86 -11v-119h-338v119q35 6 65 9l-24 75h-203l-16 -74q12 -2 23.5 -5t22.5 -5v-119h-298v119q45 8 82 11l142 442q-14 2 -68 9v119h337zM385 561h-2l-66 -217h136z" />
    <glyph glyph-name="B" unicode="B" horiz-adv-x="677" 
d="M629 500v-8q0 -99 -80 -134q92 -26 92 -153v-12q0 -111 -53 -151.5t-184 -41.5h-374v119q38 6 73 10v441q-5 1 -31.5 4.5t-44.5 6.5v119h362q128 0 184 -47t56 -153zM270 416h109q48 0 67.5 12.5t19.5 48.5v14q0 41 -13.5 57t-58.5 16h-124v-148zM471 216v14
q0 36 -21.5 48t-70.5 12h-109v-154h109q92 0 92 80z" />
    <glyph glyph-name="C" unicode="C" horiz-adv-x="644" 
d="M611 200v-129q-113 -84 -244 -84h-71q-131 0 -192.5 64t-63.5 199v193q0 269 266 269h44q118 0 257 -35v-211h-139l-19 103q-46 8 -135 8q-107 0 -107 -119v-224q0 -52 28 -80t79 -28h44q81 0 114 74h139z" />
    <glyph glyph-name="D" unicode="D" horiz-adv-x="712" 
d="M27 700h392q134 -1 195 -62.5t61 -197.5v-186q-1 -133 -62.5 -193.5t-192.5 -60.5h-390v119q17 3 42.5 6.5t30.5 4.5v440q-41 5 -76 11v119zM509 240v217q0 52 -27.5 79.5t-79.5 27.5h-132v-428h132q51 0 78.5 27t28.5 77z" />
    <glyph glyph-name="E" unicode="E" horiz-adv-x="642" 
d="M598 700v-217h-104l-20 84h-206v-145h168v-143h-168v-146h211l20 84h104v-217h-573v119q55 7 71 10v442l-27 3q-28 4 -47 7v119h571z" />
    <glyph glyph-name="F" unicode="F" horiz-adv-x="630" 
d="M603 700v-217h-104l-20 84h-211v-165h208v-143h-208v-130q10 -1 60 -4.5t64 -5.5v-119h-362v119q27 5 71 10v442q-35 4 -74 10v119h576z" />
    <glyph glyph-name="G" unicode="G" horiz-adv-x="686" 
d="M649 371v-173q0 -48 -17.5 -86t-44.5 -60.5t-61.5 -38t-66 -21t-61.5 -5.5h-96q-134 0 -198 64.5t-64 199.5v172q0 134 72.5 211.5t200.5 77.5h47q30 0 113 -10t156 -25v-215h-139l-19 95q-47 7 -141 7q-55 0 -89 -37.5t-34 -96.5v-192q0 -50 29.5 -76.5t83.5 -26.5h84
q41 0 66.5 20.5t25.5 56.5v20q-78 7 -169 16v123h322z" />
    <glyph glyph-name="H" unicode="H" horiz-adv-x="794" 
d="M767 700v-119q-50 -8 -75 -10v-442q60 -7 75 -10v-119h-301v119q40 6 59 8v153h-255v-153q22 -2 58 -8v-119h-301v119q14 2 76 10v442q-26 2 -76 10v119h301v-119q-36 -6 -58 -8v-153h255v153q-19 2 -59 8v119h301z" />
    <glyph glyph-name="I" unicode="I" horiz-adv-x="368" 
d="M342 700v-119q-51 -8 -74 -10v-442q23 -2 74 -10v-119h-312v119q27 5 71 10v442q-27 2 -74 10v119h315z" />
    <glyph glyph-name="J" unicode="J" horiz-adv-x="383" 
d="M359 700v-119q-48 -8 -73 -10v-456q0 -74 -21 -116.5t-83 -95.5q-35 -28 -91 -63l-71 67q23 26 43 53q34 40 45 71.5t11 84.5v455q-25 2 -75 10v119h315z" />
    <glyph glyph-name="K" unicode="K" horiz-adv-x="767" 
d="M342 700v-119q-51 -8 -74 -10v-156h122l112 158q-18 2 -56 8v119h295v-119q-42 -6 -62 -8l-153 -218l153 -226q48 -6 73 -10v-119h-319v119q8 1 32 2.5t26 1.5l-91 150h-132v-144q23 -2 74 -10v-119h-312v119q27 5 71 10v442q-27 2 -74 10v119h315z" />
    <glyph glyph-name="L" unicode="L" horiz-adv-x="627" 
d="M603 0h-573v119q38 6 71 10v442q-46 5 -74 10v119h338v-119q-45 -9 -97 -12v-436h205l19 101h111v-234z" />
    <glyph glyph-name="M" unicode="M" horiz-adv-x="963" 
d="M936 700v-119q-59 -9 -76 -11v-441q22 -2 73 -10v-119h-292v119q42 6 58 8v370l-182 -497h-105l-152 497v-368q42 -6 65 -10v-119h-295v119q55 8 73 10v440q-22 2 -76 12v119h291l149 -446h2l168 446h299z" />
    <glyph glyph-name="N" unicode="N" horiz-adv-x="795" 
d="M768 700v-119q-24 -5 -75 -11v-570h-172l-271 424v-297q16 -2 58 -8v-119h-278v119q51 8 73 10v440l-76 12v119h231l288 -441v314l-60 8v119h282z" />
    <glyph glyph-name="O" unicode="O" horiz-adv-x="703" 
d="M404 -13h-98q-133 0 -200 72t-69 207v161q0 138 67 211.5t202 73.5h98q132 0 197.5 -73.5t65.5 -211.5v-160q0 -135 -66.5 -207.5t-196.5 -72.5zM316 136h70q61 0 87 26t27 92v189q0 67 -26 94t-88 27h-70q-59 0 -85.5 -29.5t-26.5 -91.5v-189q0 -66 25.5 -92t86.5 -26z
" />
    <glyph glyph-name="P" unicode="P" horiz-adv-x="664" 
d="M27 700h374q126 -1 181 -51t55 -162v-57q0 -105 -55.5 -152.5t-179.5 -47.5h-132v-100q37 -3 82 -11v-119h-322v119q27 4 73 10v441q-5 1 -31.5 4.5t-44.5 6.5v119zM481 452v25q0 45 -22 66t-70 21h-119v-196h119q92 0 92 84z" />
    <glyph glyph-name="Q" unicode="Q" horiz-adv-x="703" 
d="M306 712h98q132 0 197.5 -73.5t65.5 -211.5v-160q0 -135 -66.5 -207.5t-196.5 -72.5h-98q-133 0 -200 72t-69 207v161q0 138 67 211.5t202 73.5zM386 569h-70q-59 0 -85.5 -29.5t-26.5 -91.5v-199q0 -66 25.5 -92t86.5 -26h70q61 0 87 26t27 92v199q0 67 -26 94t-88 27z
M270 -136v66q117 25 220 35q153 14 192 -88l-114 -92q-30 50 -62 64.5t-88 18.5q-56 3 -148 -4z" />
    <glyph glyph-name="R" unicode="R" horiz-adv-x="711" 
d="M27 700h377q128 0 187.5 -48t59.5 -158v-54q0 -65 -25 -105t-75 -77q43 -62 71 -129q6 -1 69 -10v-119h-249v128q-25 79 -39 102h-133v-105l52 -6v-119h-292v119q51 8 73 10v441q-5 1 -31.5 4.5t-44.5 6.5v119zM270 376h132q92 0 92 74v34q0 80 -92 80h-132v-188z" />
    <glyph glyph-name="S" unicode="S" horiz-adv-x="645" 
d="M186 218l18 -85q41 -16 119 -16h16q59 0 79 13t20 52v20q0 31 -16 44.5t-67 27.5l-165 40q-88 26 -119 63.5t-31 124.5v10q0 106 60.5 153t195.5 47h33q124 0 256 -38v-195h-132l-19 89q-33 15 -100 15h-35q-47 0 -66 -13.5t-19 -48.5v-9q0 -25 11.5 -39t38.5 -21
l203 -48q77 -19 107.5 -57t30.5 -115v-43q0 -106 -60.5 -153.5t-195.5 -47.5h-46q-70 0 -119.5 10t-136.5 38v182h139z" />
    <glyph glyph-name="T" unicode="T" horiz-adv-x="694" 
d="M674 471h-115l-10 92h-118v-434q44 -4 83 -10v-119h-331v119q14 2 47 6t34 4v434h-119l-10 -92h-115v229h654v-229z" />
    <glyph glyph-name="U" unicode="U" horiz-adv-x="751" 
d="M728 700v-119q-12 -2 -35 -5t-27 -4v-312q0 -140 -62 -206.5t-194 -66.5h-51q-135 0 -199 66.5t-64 206.5v311q-46 6 -73 10v119h319v-119q-35 -7 -79 -10v-334q0 -51 28 -82t78 -31h37q50 0 78 31t28 82v336q-20 2 -62 8v119h278z" />
    <glyph glyph-name="V" unicode="V" horiz-adv-x="768" 
d="M753 700v-119q-49 -8 -70 -10l-183 -571h-240l-181 572q-33 3 -64 9v119h325v-119q-12 -2 -77 -9l112 -402h21l106 402q-48 4 -77 9v119h328z" />
    <glyph glyph-name="W" unicode="W" horiz-adv-x="1009" 
d="M1000 700v-119q-33 -6 -60 -9l-149 -572h-200l-76 392h-3l-79 -392h-222l-146 573q-12 1 -57 8v119h309v-119q-25 -3 -73 -8l79 -378h13l112 505h130l115 -501h13l85 374q-53 5 -72 8v119h281z" />
    <glyph glyph-name="X" unicode="X" horiz-adv-x="722" 
d="M482 349l171 -223q36 -4 55 -7v-119h-302v119l41 3l-102 149h-1l-75 -145q39 -4 56 -7v-119h-298v119q34 6 64 9l155 218l-179 228q-33 4 -54 7v119h319v-119q-8 -1 -24 -2.5t-24 -2.5l103 -148h2l81 145l-60 8v119h298v-119q-18 -3 -66 -10z" />
    <glyph glyph-name="Y" unicode="Y" horiz-adv-x="714" 
d="M307 700v-119q-34 -4 -50 -5l103 -213h5l102 211q-36 4 -56 7v119h288v-119q-25 -5 -73 -11l-190 -328v-113q25 -2 73 -10v-119h-311v119q27 5 71 10v106l-190 337q-30 3 -64 9v119h292z" />
    <glyph glyph-name="Z" unicode="Z" horiz-adv-x="629" 
d="M596 700v-114l-345 -457h214l20 115h116v-244h-571v103q0 22 16 42l349 428h-229l-21 -103h-115v230h566z" />
    <glyph glyph-name="bracketleft" unicode="[" horiz-adv-x="314" 
d="M294 721v-106h-114v-655h114v-103h-257v864h257z" />
    <glyph glyph-name="backslash" unicode="\" horiz-adv-x="458" 
d="M475 -70h-93l-392 852h93z" />
    <glyph glyph-name="bracketright" unicode="]" horiz-adv-x="314" 
d="M277 721v-864h-257v103h114v655h-114v106h257z" />
    <glyph glyph-name="asciicircum" unicode="^" horiz-adv-x="420" 
d="M248 701l155 -194v-54h-91l-98 120h-4l-97 -120h-96v54l158 194h73z" />
    <glyph glyph-name="underscore" unicode="_" horiz-adv-x="583" 
d="M585 -74v-80h-587v80h587z" />
    <glyph glyph-name="grave" unicode="`" 
d="M361 622l-65 -41l-161 106v22l117 57z" />
    <glyph glyph-name="a" unicode="a" horiz-adv-x="622" 
d="M541 354v-232q22 -3 61 -9v-112h-221v62q-88 -71 -176 -71h-16q-78 0 -112.5 29t-34.5 123v10q0 80 38.5 110t115.5 41q41 6 97 12.5t88 10.5v19q0 45 -19.5 63t-62.5 18q-52 0 -91 -10l-8 -53h-119v153q116 25 237 25h45q86 0 132 -50t46 -139zM262 108h14q26 0 55 17
t50 41v77q-92 -13 -110 -16q-34 -5 -48.5 -18t-14.5 -38v-11q0 -28 12.5 -40t41.5 -12z" />
    <glyph glyph-name="b" unicode="b" horiz-adv-x="633" 
d="M251 700v-207q56 29 90 39.5t86 10.5h16q69 0 111.5 -43t42.5 -126v-186q0 -196 -178 -196h-13q-92 0 -315 13v573q-43 7 -59 10v112h219zM437 217v83q0 68 -13 93.5t-52 25.5h-16q-52 0 -105 -29v-273q50 -6 101 -6h14q41 0 56 22t15 84z" />
    <glyph glyph-name="c" unicode="c" horiz-adv-x="549" 
d="M516 173v-117q-106 -69 -209 -69h-59q-113 0 -162 54t-49 171v112q0 105 59.5 162t161.5 57h51q88 0 201 -29v-185h-120l-14 88q-45 6 -93 6q-44 0 -65 -23.5t-21 -82.5v-116q0 -53 20.5 -70.5t62.5 -17.5h23q63 0 80 44l4 16h129z" />
    <glyph glyph-name="d" unicode="d" horiz-adv-x="624" 
d="M542 700v-578q19 -2 62 -9v-112h-222v73q-50 -40 -91 -61t-91 -21h-16q-68 0 -107.5 47.5t-39.5 148.5v177q0 84 43.5 130t110.5 46h16q53 0 85.5 -10.5t89.5 -40.5v100q-30 7 -65 11v99h225zM264 128h14q48 0 104 38v218q-51 26 -104 26h-15q-38 0 -52 -20.5t-14 -64.5
v-92q0 -63 13.5 -84t53.5 -21z" />
    <glyph glyph-name="e" unicode="e" horiz-adv-x="581" 
d="M281 543h33q118 0 174 -54t56 -168v-127h-352v-12q0 -79 88 -79h38q33 0 52 7.5t27 30.5l5 22h127v-107q-84 -69 -216 -69h-25q-137 0 -194 59t-57 196v69q0 120 60.5 176t183.5 56zM402 306v51q0 37 -25.5 56t-66.5 19h-29q-42 0 -65.5 -20t-23.5 -59v-47h210z" />
    <glyph glyph-name="f" unicode="f" horiz-adv-x="428" 
d="M255 414v-290q42 -4 85 -12v-112h-307v112q3 1 62 9v293h-68v103q53 7 68 8v51q0 60 34.5 100.5t97.5 52.5q31 5 148 19l14 -110q-5 -1 -39.5 -8t-57.5 -14q-37 -10 -37 -57v-28h151v-117h-151z" />
    <glyph glyph-name="g" unicode="g" horiz-adv-x="625" 
d="M605 531v-97q-14 -3 -30 -6t-25 -5q4 -13 4 -46v-40q0 -85 -50 -121t-161 -36h-66q-48 0 -84 15q-1 0 -2 -1q-13 -8 -14 -19v-6q0 -14 14.5 -18.5t46.5 -4.5h203q79 0 115.5 -31.5t36.5 -100.5v-20q0 -182 -248 -182h-105q-127 0 -169.5 20.5t-42.5 76.5v20q0 40 15 68
t55 53q-38 23 -38 71v18q0 54 60 94q-52 37 -52 123v24q0 91 53.5 127t181.5 36h20q81 0 125 -12h157zM405 346v44q0 34 -17 45t-59 11h-16q-46 0 -68 -11.5t-22 -44.5v-44q0 -32 21 -41.5t69 -9.5h6q23 0 36 1t26 6t18.5 15.5t5.5 28.5zM407 25h-160q-40 0 -53 1
q-33 -23 -33 -49v-12q0 -25 12.5 -34t49.5 -9h140q51 0 72 11t21 39v13q0 24 -10 32t-39 8z" />
    <glyph glyph-name="h" unicode="h" horiz-adv-x="686" 
d="M601 122l65 -10v-112h-225v312q0 62 -10 79t-50 17h-12q-47 0 -114 -45v-242q28 -3 62 -9v-112h-284v112q34 6 62 9v457q-43 7 -59 10v112h219v-245q117 88 199 88h12q135 0 135 -144v-277z" />
    <glyph glyph-name="i" unicode="i" horiz-adv-x="337" 
d="M174 589q-38 0 -64 22.5t-26 58.5q0 37 26 60t64 23t64 -23t26 -60q0 -36 -26 -58.5t-64 -22.5zM255 531v-410q28 -3 62 -9v-112h-284v112q34 6 62 9v288q-11 1 -33.5 5t-25.5 4v113h219z" />
    <glyph glyph-name="j" unicode="j" horiz-adv-x="307" 
d="M170 753q39 0 65 -23t26 -60q0 -36 -26 -58.5t-65 -22.5q-38 0 -64 22.5t-26 58.5q0 37 26 60t64 23zM256 531v-432q0 -66 -20 -101.5t-84 -90.5q-52 -42 -91 -66l-64 67q42 52 43 53q35 42 45.5 67t10.5 72v308q-42 6 -63 10v113h223z" />
    <glyph glyph-name="k" unicode="k" horiz-adv-x="671" 
d="M255 700v-360h110l42 73q-6 0 -21.5 2t-24.5 3v113h280v-113q-34 -6 -62 -9l-96 -130l105 -158q13 -2 59 -9v-112h-226v111l-56 96h-110v-86q28 -3 62 -9v-112h-284v112q34 6 62 9v457q-43 7 -59 10v112h219z" />
    <glyph glyph-name="l" unicode="l" horiz-adv-x="342" 
d="M255 700v-579q28 -3 62 -9v-112h-284v112q34 6 62 9v457q-43 7 -59 10v112h219z" />
    <glyph glyph-name="m" unicode="m" horiz-adv-x="1005" 
d="M920 122l65 -10v-112h-225v312q0 62 -10 79t-49 17h-12q-44 0 -105 -43v-243l65 -10v-112h-225v312q0 62 -10 79t-49 17h-12q-41 0 -98 -41v-246q28 -3 62 -9v-112h-284v112q34 6 62 9v288q-11 1 -33.5 5t-25.5 4v113h219v-66q100 78 182 78h13q102 0 124 -90
q115 90 199 90h13q134 0 134 -144v-277z" />
    <glyph glyph-name="n" unicode="n" horiz-adv-x="686" 
d="M601 122l65 -10v-112h-225v312q0 62 -10 79t-50 17h-12q-47 0 -114 -45v-242q28 -3 62 -9v-112h-284v112q34 6 62 9v288q-11 1 -33.5 5t-25.5 4v113h219v-76q117 88 199 88h12q135 0 135 -144v-277z" />
    <glyph glyph-name="o" unicode="o" horiz-adv-x="612" 
d="M330 -13h-40q-133 0 -193 61t-60 192v44q0 135 59.5 197t193.5 62h39q131 0 188.5 -62t57.5 -197v-44q0 -131 -58 -192t-187 -61zM285 105h41q89 0 89 82v152q0 86 -89 86h-41q-88 0 -88 -86v-152q0 -82 88 -82z" />
    <glyph glyph-name="p" unicode="p" horiz-adv-x="637" 
d="M440 543h16q145 0 145 -195v-186q0 -84 -42.5 -127t-111.5 -43h-16q-19 0 -36 1.5t-28 3.5t-29 7t-24.5 7t-29 10t-29.5 11v-98q5 -1 42 -3.5t50 -4.5v-113h-314v113q50 7 62 8v475q-11 1 -33.5 5t-25.5 4v113h219v-59q4 2 20 12t21.5 13t20.5 11.5t23 11.5t22.5 8.5
t25.5 8t24.5 4.5t27.5 2zM441 229v73q0 64 -12 85t-52 21h-14q-50 0 -108 -38v-224q52 -30 105 -30h16q39 0 52 23t13 90z" />
    <glyph glyph-name="q" unicode="q" horiz-adv-x="621" 
d="M539 531v-597q13 -1 62 -8v-113h-304v113q7 0 82 8v98q-9 -3 -29.5 -10.5t-28 -10t-24 -7.5t-28 -7t-28 -3.5t-35.5 -1.5h-16q-68 0 -110.5 43.5t-42.5 126.5v186q0 195 177 195h14q76 0 311 -12zM262 116h15q49 0 102 30v263q-53 5 -98 5h-14q-41 0 -55.5 -21.5
t-14.5 -83.5v-74q0 -68 13 -93.5t52 -25.5z" />
    <glyph glyph-name="r" unicode="r" horiz-adv-x="473" 
d="M255 531v-95q27 35 42.5 52.5t44.5 34.5t61 17h53v-149q-72 -4 -105 -7q-57 -2 -96 -42v-221l72 -9v-112h-294v112q34 6 62 9v288q-11 1 -33.5 5t-25.5 4v113h219z" />
    <glyph glyph-name="s" unicode="s" horiz-adv-x="546" 
d="M35 366v26q0 78 52.5 114.5t161.5 36.5h18q137 0 228 -34v-140h-131l-11 57q-33 11 -87 11q-88 0 -88 -44v-6q0 -21 18 -28.5t81 -18.5q44 -8 73 -13q88 -17 124.5 -49t36.5 -87v-31q0 -90 -51.5 -131.5t-159.5 -41.5h-39q-158 0 -226 55v136h127l5 -44q12 -17 38.5 -26
t50.5 -9h30q75 0 75 52v10q0 24 -28.5 35.5t-133.5 30.5q-95 17 -129.5 49.5t-34.5 89.5z" />
    <glyph glyph-name="t" unicode="t" horiz-adv-x="438" 
d="M299 123h10q62 0 96 1v-88q-32 -21 -83 -35t-97 -14h-12q-62 0 -95 37t-33 108v281h-63v118h47q18 0 24 5.5t6 22.5v107q82 11 146 14v-149h150v-118h-150v-204q0 -54 9.5 -70t44.5 -16z" />
    <glyph glyph-name="u" unicode="u" horiz-adv-x="681" 
d="M597 531v-409q19 -2 63 -9v-112h-223v77q-3 -2 -23.5 -14t-27.5 -16t-26 -14t-30 -14t-28 -10t-32.5 -8t-30.5 -2h-13q-74 0 -104 32t-30 112v265q-49 7 -65 9v113h225v-300q0 -62 9.5 -78.5t49.5 -16.5h12q47 0 114 44v229q-34 5 -65 9v113h225z" />
    <glyph glyph-name="v" unicode="v" horiz-adv-x="647" 
d="M637 531v-113q-46 -9 -74 -11l-162 -407h-169l-158 408q-47 7 -64 10v113h281v-113q-11 -1 -28 -3t-24 -2l86 -280h1l108 277q-14 2 -57 8v113h260z" />
    <glyph glyph-name="w" unicode="w" horiz-adv-x="892" 
d="M879 531v-113q-49 -7 -58 -8l-109 -410h-190l-78 277l-83 -277h-183l-109 410l-56 8v113h250v-113l-50 -6l60 -265h2l109 384h122l116 -384h1l64 263q-9 1 -58 8v113h250z" />
    <glyph glyph-name="x" unicode="x" horiz-adv-x="624" 
d="M432 262l109 -139q30 -3 70 -11v-112h-286v112q14 2 42 4l-77 103h-1l-66 -101l52 -6v-112h-262v112q27 6 55 9l123 142l-109 145q-20 2 -69 10v113h286v-113q-8 -1 -22 -2.5t-20 -1.5l72 -103h1l65 101l-46 6v113h262v-113q-56 -7 -63 -8z" />
    <glyph glyph-name="y" unicode="y" horiz-adv-x="671" 
d="M661 531v-113q-21 -4 -73 -11l-207 -468q16 0 54 -4v-112h-310v112q32 3 103 6l24 49l-185 420q-14 2 -57 8v113h299v-113q-47 -6 -77 -8l99 -263h3l116 263q-5 0 -57 8v113h268z" />
    <glyph glyph-name="z" unicode="z" horiz-adv-x="563" 
d="M531 531v-113l-305 -299h197l21 78h89l-2 -197h-504v99q0 29 26 49l288 268h-194l-10 -69h-90v184h484z" />
    <glyph glyph-name="braceleft" unicode="{" horiz-adv-x="381" 
d="M244 525v-475q0 -57 22 -83.5t86 -62.5l-35 -71q-45 17 -69 27.5t-57 30t-49.5 39.5t-28.5 50.5t-12 68.5v173l-81 16v116l81 16v157q0 38 12 68.5t29 50.5t49 39t57 30t69 27l35 -71q-64 -36 -86 -62.5t-22 -83.5z" />
    <glyph glyph-name="bar" unicode="|" horiz-adv-x="253" 
d="M160 781v-918h-67v918h67z" />
    <glyph glyph-name="braceright" unicode="}" horiz-adv-x="381" 
d="M137 50v475q0 57 -22 83.5t-86 62.5l35 71q44 -16 69 -27t57 -30t49 -39t29 -50.5t12 -68.5v-157l81 -16v-116l-81 -16v-173q0 -38 -12 -68.5t-28.5 -50.5t-49.5 -39.5t-57 -30t-69 -27.5l-35 71q64 36 86 62.5t22 83.5z" />
    <glyph glyph-name="exclamdown" unicode="&#xa1;" horiz-adv-x="251" 
d="M126 630q91 0 91 -84q0 -85 -91 -85t-91 85q0 84 91 84zM37 -76v123l42 343h94l42 -343v-123h-178z" />
    <glyph glyph-name="cent" unicode="&#xa2;" horiz-adv-x="549" 
d="M516 173v-117q-84 -54 -168 -66v-57h-122v55q-100 4 -144.5 58.5t-44.5 165.5v112q0 98 52.5 154.5t142.5 63.5v60h122v-60q68 -5 156 -28v-185h-120l-14 88q-37 5 -68 6v-310q59 2 75 44l4 16h129zM197 317v-116q0 -50 18.5 -68t55.5 -20v310q-38 -3 -56 -27t-18 -79z
" />
    <glyph glyph-name="sterling" unicode="&#xa3;" horiz-adv-x="618" 
d="M595 0h-567v119q21 19 30.5 29t24 29t19 39.5t2.5 44.5l-2 19h-82v92h83l-10 85q-4 58 3 100t29 79t70 56.5t121 19.5h27q111 0 250 -35l-20 -191h-125l-12 81q-36 12 -111 12q-85 0 -68 -111l13 -96h173l-14 -92h-147l2 -20q3 -27 -10.5 -52.5t-27 -38t-43.5 -36.5h261
l20 101h111v-234z" />
    <glyph glyph-name="yen" unicode="&#xa5;" horiz-adv-x="714" 
d="M699 700v-119q-25 -5 -73 -11l-119 -205h106v-59h-140l-29 -51h169v-59h-177v-67q25 -2 73 -10v-119h-311v119q27 5 71 10v67h-169v59h158l-29 51h-129v59h96l-117 207q-30 3 -64 9v119h292v-119q-34 -4 -50 -5l102 -211h7l101 209q-36 4 -56 7v119h288z" />
    <glyph glyph-name="section" unicode="&#xa7;" horiz-adv-x="663" 
d="M280 510l208 -35q81 -13 109.5 -36t28.5 -86v-35q0 -68 -70 -93q21 -23 21 -75v-10q0 -85 -46.5 -118.5t-170.5 -33.5h-26q-111 0 -227 38v139h117l8 -50q38 -19 97 -19h29q44 0 61 11.5t17 36.5v7q0 20 -7.5 27.5t-34.5 12.5l-215 34q-80 13 -109 36.5t-29 85.5v35
q0 62 84 93q-31 24 -31 75v10q0 86 44.5 119t165.5 33h25q115 0 227 -37v-139h-112l-7 48q-12 8 -47.5 14t-66.5 6h-17q-43 0 -57.5 -11t-14.5 -36v-8q0 -19 9 -26.5t37 -12.5zM164 382v-19q0 -20 9.5 -28t39.5 -13l222 -36q20 -2 39 -7q29 12 29 40v19q0 19 -9.5 27
t-39.5 13l-230 39q-7 1 -26 5q-32 -13 -34 -40z" />
    <glyph glyph-name="dieresis" unicode="&#xa8;" 
d="M147 604q-32 0 -53.5 18.5t-21.5 47.5q0 30 21.5 49t53.5 19q31 0 52.5 -19t21.5 -49q0 -29 -21.5 -47.5t-52.5 -18.5zM352 604q-31 0 -52 18.5t-21 47.5q0 30 21 49t52 19q32 0 53.5 -19t21.5 -49q0 -29 -21.5 -47.5t-53.5 -18.5z" />
    <glyph glyph-name="copyright" unicode="&#xa9;" horiz-adv-x="797" 
d="M398 -15q-172 0 -268.5 96.5t-96.5 268.5t96.5 268.5t268.5 96.5t268.5 -96.5t96.5 -268.5t-96.5 -268.5t-268.5 -96.5zM398 32q147 0 230 84.5t83 233.5t-83 233.5t-230 84.5t-229.5 -84.5t-82.5 -233.5t82.5 -233.5t229.5 -84.5zM568 269v-81q-71 -52 -158 -52h-40
q-78 0 -121 43t-45 122v87q0 82 43 125t124 43h35q62 0 158 -23v-126h-89l-12 55q-30 10 -81 10q-71 0 -71 -78v-98q0 -71 71 -71h22q30 0 46 9.5t30 34.5h88z" />
    <glyph glyph-name="ordfeminine" unicode="&#xaa;" horiz-adv-x="479" 
d="M289 295v44q-30 -19 -42 -26t-39.5 -16t-53.5 -9h-12q-61 0 -86.5 18.5t-25.5 88.5v11q0 60 30 87t87 33q97 9 142 10v22q0 36 -14.5 50t-48.5 14q-46 0 -74 -8l-4 -43h-88v116q89 21 179 21h34q65 0 99.5 -38t34.5 -106v-180l48 -6v-83h-166zM195 374h11q40 0 83 29v78
q-86 -7 -95 -9q-21 -3 -33.5 -16t-12.5 -31v-10q0 -25 9.5 -33t37.5 -8z" />
    <glyph glyph-name="guillemotleft" unicode="&#xab;" horiz-adv-x="552" 
d="M185 260l100 -152v-49h-98l-152 201v10l152 201h98v-50l-100 -151v-10zM401 260l100 -152v-49h-98l-152 201v10l152 201h98v-50l-100 -151v-10z" />
    <glyph glyph-name="registered" unicode="&#xae;" horiz-adv-x="423" 
d="M211 715q92 0 143.5 -51.5t51.5 -143.5t-51.5 -143.5t-143.5 -51.5t-143 51.5t-51 143.5t51 143.5t143 51.5zM211 682q-76 0 -117 -41.5t-41 -120.5t41 -120t117 -41q77 0 118 41t41 120t-41 120.5t-118 41.5zM120 623h112q68 0 68 -60v-12q0 -44 -29 -53q12 -18 17 -30
q2 0 7 -1t9 -2t8 -1v-37h-71v14q-9 30 -22 49h-27v-24l16 -2v-37h-87v37l20 3v116q-11 0 -21 3v37zM192 581v-49h32q22 0 22 19v10q0 20 -23 20h-31z" />
    <glyph glyph-name="macron" unicode="&#xaf;" 
d="M388 696v-91h-276v91h276z" />
    <glyph glyph-name="degree" unicode="&#xb0;" horiz-adv-x="435" 
d="M248 360h-60q-151 0 -151 149v52q0 152 151 152h60q150 -1 150 -152v-52q-3 -149 -150 -149zM200 447h34q32 0 46.5 15t16.5 46v54q0 35 -14.5 51.5t-48.5 16.5h-34q-34 0 -49 -16.5t-15 -51.5v-54q0 -32 15 -46.5t49 -14.5z" />
    <glyph glyph-name="twosuperior" unicode="&#xb2;" horiz-adv-x="404" 
d="M368 425v-135h-335v77q0 104 78 139q32 15 86 31q41 12 54.5 20t13.5 24v9q0 19 -9 25.5t-37 6.5q-56 0 -82 -7l-8 -39h-83v110q61 15 93 19t86 4q79 0 112 -24.5t33 -90.5v-11q0 -43 -18 -72t-72 -45q-4 -1 -38 -10t-42 -12q-5 -1 -16 -4.5t-13.5 -4.5t-10.5 -3.5
t-9.5 -4t-6.5 -4.5t-6 -5.5t-3.5 -6.5t-3 -9t-1 -11t-0.5 -14h156l9 48h73z" />
    <glyph glyph-name="threesuperior" unicode="&#xb3;" horiz-adv-x="388" 
d="M355 596v-14q0 -78 -60 -97q32 -5 46 -21.5t14 -54.5v-11q0 -62 -36 -87t-124 -25q-80 0 -172 18v112h78l8 -40q43 -6 88 -6q30 0 41 9t11 32v10q0 23 -12 30t-42 7h-85v77h86q29 0 41 7.5t12 29.5v11q0 24 -11 32.5t-41 8.5q-42 0 -89 -7l-8 -39h-74v111q94 20 169 20
q91 0 125.5 -24t34.5 -89z" />
    <glyph glyph-name="acute" unicode="&#xb4;" 
d="M381 709v-22l-161 -106l-65 41l109 144z" />
    <glyph glyph-name="paragraph" unicode="&#xb6;" horiz-adv-x="609" 
d="M589 700v-119q-37 -8 -69 -13v-658h-114v681h-54v-681h-114v359h-8q-105 0 -157 44.5t-53 151.5v32q0 112 51.5 157.5t158.5 45.5h359z" />
    <glyph glyph-name="periodcentered" unicode="&#xb7;" horiz-adv-x="235" 
d="M118 192q-91 0 -91 84q0 85 91 85t91 -85q0 -84 -91 -84z" />
    <glyph glyph-name="cedilla" unicode="&#xb8;" 
d="M236 -34h40q40 0 59 -15t19 -50v-15q0 -44 -21 -59.5t-72 -16.5q-57 0 -115 15v45h110q24 0 24 21v4q0 20 -24 20h-86l13 85h55z" />
    <glyph glyph-name="onesuperior" unicode="&#xb9;" horiz-adv-x="332" 
d="M240 709v-334q43 -4 67 -7v-78h-266v78q43 7 82 8v239l-91 -12v70l141 36h67z" />
    <glyph glyph-name="ordmasculine" unicode="&#xba;" horiz-adv-x="454" 
d="M245 286h-31q-101 0 -145 42.5t-46 140.5v52q0 100 44.5 144t146.5 44h31q100 0 143 -43.5t43 -144.5v-52q-1 -98 -44.5 -140.5t-141.5 -42.5zM211 373h31q38 0 54 15.5t16 52.5v111q0 38 -16 54.5t-54 16.5h-31q-38 0 -54 -16.5t-16 -54.5v-111q0 -37 16 -52.5t54 -15.5
z" />
    <glyph glyph-name="guillemotright" unicode="&#xbb;" horiz-adv-x="552" 
d="M65 421v50h98l152 -201v-10l-152 -201h-98v49l100 152v10zM280 421v50h98l152 -201v-10l-152 -201h-98v49l100 152v10z" />
    <glyph glyph-name="onequarter" unicode="&#xbc;" horiz-adv-x="831" 
d="M687 719l-260 -370l-229 -363h-62l257 363l232 370h62zM240 709v-334q45 -4 70 -7v-78h-272v78q43 7 85 8v239l-91 -12v70l141 36h67zM731 120v-39q21 -1 65 -7v-74h-253v74q50 6 71 8v37h-210v80l210 214h117v-214h66v-71zM614 334l-116 -135h116v135z" />
    <glyph glyph-name="onehalf" unicode="&#xbd;" horiz-adv-x="870" 
d="M428 349l-229 -363h-62l257 363l232 370h62zM240 709v-334q45 -4 70 -7v-78h-272v78q43 7 85 8v239l-91 -12v70l141 36h67zM834 0h-335v77q0 60 14 92t51 47q35 15 99 30q40 11 54 20t14 25v9q0 19 -9 25.5t-37 6.5q-56 0 -82 -7l-8 -39h-83v110q61 15 93 19t86 4
q79 0 112 -24.5t33 -90.5v-31q0 -70 -90 -97q-3 -1 -37.5 -10.5t-42.5 -12.5q-44 -13 -53.5 -23.5t-9.5 -47.5h149l9 53h73v-135z" />
    <glyph glyph-name="threequarters" unicode="&#xbe;" horiz-adv-x="863" 
d="M713 719l-260 -370l-229 -363h-62l257 363l232 370h62zM355 596v-14q0 -78 -60 -97q32 -5 46 -21.5t14 -54.5v-11q0 -62 -36 -87t-124 -25q-80 0 -172 18v112h78l8 -40q43 -6 88 -6q30 0 41 9t11 32v10q0 23 -12.5 31.5t-41.5 8.5h-85v73h86q29 0 41 8t12 30v11
q0 24 -11 32.5t-41 8.5q-42 0 -89 -7l-8 -39h-74v111q94 20 169 20q91 0 125.5 -24t34.5 -89zM764 120v-39q20 -1 65 -7v-74h-253v74q50 6 71 8v37h-210v80l210 214h117v-214h66v-71zM647 334l-116 -135h116v135z" />
    <glyph glyph-name="questiondown" unicode="&#xbf;" horiz-adv-x="527" 
d="M317 630q91 0 91 -84q0 -85 -91 -85t-91 85q0 84 91 84zM512 113v-161q-95 -25 -143 -32.5t-123 -7.5q-114 0 -168.5 44.5t-54.5 144.5v21q0 71 24 106t72 52q26 8 70.5 20.5t62.5 17.5v84h132l16 -167q-115 -33 -159 -48q-57 -20 -57 -58v-21q0 -41 16 -55.5t62 -14.5
q65 0 113 16l11 59h126z" />
    <glyph glyph-name="Agrave" unicode="&#xc0;" horiz-adv-x="802" 
d="M469 781l-65 -41l-161 106v22l117 57zM510 700l189 -570q42 -3 86 -11v-119h-338v119q35 6 65 9l-24 75h-203l-16 -74q12 -2 23.5 -5t22.5 -5v-119h-298v119q45 8 82 11l142 442q-14 2 -68 9v119h337zM383 561l-66 -217h136l-68 217h-2z" />
    <glyph glyph-name="Aacute" unicode="&#xc1;" horiz-adv-x="802" 
d="M519 869v-22l-166 -110l-69 43l114 149zM510 700l189 -570q42 -3 86 -11v-119h-338v119q35 6 65 9l-24 75h-203l-16 -74q12 -2 23.5 -5t22.5 -5v-119h-298v119q45 8 82 11l142 442q-14 2 -68 9v119h337zM383 561l-66 -217h136l-68 217h-2z" />
    <glyph glyph-name="Acircumflex" unicode="&#xc2;" horiz-adv-x="802" 
d="M505 741l-123 85l-122 -85l-49 43l120 130h103l120 -130zM510 700l189 -570q42 -3 86 -11v-119h-338v119q35 6 65 9l-24 75h-203l-16 -74q12 -2 23.5 -5t22.5 -5v-119h-298v119q45 8 82 11l142 442q-14 2 -68 9v119h337zM383 561l-66 -217h136l-68 217h-2z" />
    <glyph glyph-name="Atilde" unicode="&#xc3;" horiz-adv-x="802" 
d="M577 855l-76 -83q-22 -25 -60 -25q-12 0 -23 4.5t-19 10t-29 22t-42 30.5l-91 -62l-49 43l66 73q33 37 69 37q14 0 26.5 -5t21 -11t29 -22.5t37.5 -28.5l91 59zM510 700l189 -570q42 -3 86 -11v-119h-338v119q35 6 65 9l-24 75h-203l-16 -74q12 -2 23.5 -5t22.5 -5v-119
h-298v119q45 8 82 11l142 442q-14 2 -68 9v119h337zM383 561l-66 -217h136l-68 217h-2z" />
    <glyph glyph-name="Adieresis" unicode="&#xc4;" horiz-adv-x="802" 
d="M272 757q-34 0 -57.5 20.5t-23.5 52.5q0 33 23 53.5t58 20.5t58 -20.5t23 -53.5q0 -32 -23.5 -52.5t-57.5 -20.5zM493 757q-34 0 -57 20.5t-23 52.5q0 33 23 53.5t57 20.5q35 0 58.5 -20.5t23.5 -53.5q0 -32 -23.5 -52.5t-58.5 -20.5zM510 700l189 -570q42 -3 86 -11
v-119h-338v119q35 6 65 9l-24 75h-203l-16 -74q12 -2 23.5 -5t22.5 -5v-119h-298v119q45 8 82 11l142 442q-14 2 -68 9v119h337zM383 561l-66 -217h136l-68 217h-2z" />
    <glyph glyph-name="Aring" unicode="&#xc5;" horiz-adv-x="802" 
d="M402 729h-39q-41 0 -64 22t-23 64v28q0 86 87 86h39q42 0 64.5 -22.5t22.5 -63.5v-28q0 -86 -87 -86zM369 787h26q28 0 31 30v24q0 33 -31 33h-26q-31 0 -31 -33v-24q0 -30 31 -30zM510 700l189 -570q42 -3 86 -11v-119h-338v119q35 6 65 9l-24 75h-203l-16 -74
q12 -2 23.5 -5t22.5 -5v-119h-298v119q45 8 82 11l142 442q-14 2 -68 9v119h337zM383 561l-66 -217h136l-68 217h-2z" />
    <glyph glyph-name="AE" unicode="&#xc6;" horiz-adv-x="1057" 
d="M683 417h168v-133h-168v-151h211l20 84h104v-217h-573v119q55 7 71 10v97h-196l-54 -100q18 -1 56 -7v-119h-305v119q47 8 83 11l241 438q-40 5 -84 13v119h756v-217h-104l-20 84h-206v-150zM516 567h-22l-134 -255h156v255z" />
    <glyph glyph-name="Ccedilla" unicode="&#xc7;" horiz-adv-x="644" 
d="M316 -13l-1 -21h40q40 0 59 -15t19 -50v-15q0 -44 -21 -59.5t-72 -16.5q-57 0 -115 15v45h110q24 0 24 21v4q0 20 -24 20h-86l11 73q-112 8 -165 72t-55 190v193q0 269 266 269h44q118 0 257 -35v-211h-139l-19 103q-46 8 -135 8q-107 0 -107 -119v-224q0 -52 28 -80
t79 -28h44q81 0 114 74h139v-129q-113 -84 -244 -84h-51z" />
    <glyph glyph-name="Egrave" unicode="&#xc8;" horiz-adv-x="642" 
d="M405 781l-65 -41l-161 106v22l117 57zM598 483h-104l-20 84h-206v-145h168v-143h-168v-146h211l20 84h104v-217h-573v119q55 7 71 10v442l-27 3q-28 4 -47 7v119h571v-217z" />
    <glyph glyph-name="Eacute" unicode="&#xc9;" horiz-adv-x="642" 
d="M456 869v-22l-166 -110l-69 43l114 149zM598 483h-104l-20 84h-206v-145h168v-143h-168v-146h211l20 84h104v-217h-573v119q55 7 71 10v442l-27 3q-28 4 -47 7v119h571v-217z" />
    <glyph glyph-name="Ecircumflex" unicode="&#xca;" horiz-adv-x="642" 
d="M442 741l-123 85l-122 -85l-49 43l120 130h103l120 -130zM598 483h-104l-20 84h-206v-145h168v-143h-168v-146h211l20 84h104v-217h-573v119q55 7 71 10v442l-27 3q-28 4 -47 7v119h571v-217z" />
    <glyph glyph-name="Edieresis" unicode="&#xcb;" horiz-adv-x="642" 
d="M209 757q-34 0 -57.5 20.5t-23.5 52.5q0 33 23 53.5t58 20.5t58 -20.5t23 -53.5q0 -32 -23.5 -52.5t-57.5 -20.5zM430 757q-34 0 -57 20.5t-23 52.5q0 33 23 53.5t57 20.5q35 0 58.5 -20.5t23.5 -53.5q0 -32 -23.5 -52.5t-58.5 -20.5zM598 483h-104l-20 84h-206v-145h168
v-143h-168v-146h211l20 84h104v-217h-573v119q55 7 71 10v442l-27 3q-28 4 -47 7v119h571v-217z" />
    <glyph glyph-name="Igrave" unicode="&#xcc;" horiz-adv-x="368" 
d="M270 781l-65 -41l-161 106v22l117 57zM342 700v-119q-51 -8 -74 -10v-442q23 -2 74 -10v-119h-312v119q27 5 71 10v442q-27 2 -74 10v119h315z" />
    <glyph glyph-name="Iacute" unicode="&#xcd;" horiz-adv-x="368" 
d="M321 869v-22l-166 -110l-69 43l114 149zM342 700v-119q-51 -8 -74 -10v-442q23 -2 74 -10v-119h-312v119q27 5 71 10v442q-27 2 -74 10v119h315z" />
    <glyph glyph-name="Icircumflex" unicode="&#xce;" horiz-adv-x="368" 
d="M306 741l-123 85l-122 -85l-49 43l120 130h103l120 -130zM342 700v-119q-51 -8 -74 -10v-442q23 -2 74 -10v-119h-312v119q27 5 71 10v442q-27 2 -74 10v119h315z" />
    <glyph glyph-name="Idieresis" unicode="&#xcf;" horiz-adv-x="368" 
d="M73 757q-34 0 -57.5 20.5t-23.5 52.5q0 33 23 53.5t58 20.5t58 -20.5t23 -53.5q0 -32 -23.5 -52.5t-57.5 -20.5zM294 757q-34 0 -57 20.5t-23 52.5q0 33 23 53.5t57 20.5q35 0 58.5 -20.5t23.5 -53.5q0 -32 -23.5 -52.5t-58.5 -20.5zM342 700v-119q-51 -8 -74 -10v-442
q23 -2 74 -10v-119h-312v119q27 5 71 10v442q-27 2 -74 10v119h315z" />
    <glyph glyph-name="Eth" unicode="&#xd0;" horiz-adv-x="712" 
d="M27 700h392q134 -1 195 -62.5t61 -197.5v-186q-1 -133 -62.5 -193.5t-192.5 -60.5h-390v119q17 3 42.5 6.5t30.5 4.5v168h-74v94h74v178q-41 5 -76 11v119zM509 240v217q0 52 -27.5 79.5t-79.5 27.5h-132v-172h65v-94h-65v-162h132q51 0 78.5 27t28.5 77z" />
    <glyph glyph-name="Ntilde" unicode="&#xd1;" horiz-adv-x="795" 
d="M588 855l-76 -83q-22 -25 -60 -25q-12 0 -23 4.5t-19 10t-29 22t-42 30.5l-91 -62l-49 43l66 73q33 37 69 37q14 0 26.5 -5t21 -11t29 -22.5t37.5 -28.5l91 59zM768 700v-119q-24 -5 -75 -11v-570h-172l-271 424v-297q16 -2 58 -8v-119h-278v119q51 8 73 10v440l-76 12
v119h231l288 -441v314l-60 8v119h282z" />
    <glyph glyph-name="Ograve" unicode="&#xd2;" horiz-adv-x="703" 
d="M438 781l-65 -41l-161 106v22l117 57zM404 -13h-98q-133 0 -200 72t-69 207v161q0 138 67 211.5t202 73.5h98q132 0 197.5 -73.5t65.5 -211.5v-160q0 -135 -66.5 -207.5t-196.5 -72.5zM316 136h70q61 0 87 26t27 92v189q0 67 -26 94t-88 27h-70q-59 0 -85.5 -29.5
t-26.5 -91.5v-189q0 -66 25.5 -92t86.5 -26z" />
    <glyph glyph-name="Oacute" unicode="&#xd3;" horiz-adv-x="703" 
d="M488 869v-22l-166 -110l-69 43l114 149zM404 -13h-98q-133 0 -200 72t-69 207v161q0 138 67 211.5t202 73.5h98q132 0 197.5 -73.5t65.5 -211.5v-160q0 -135 -66.5 -207.5t-196.5 -72.5zM316 136h70q61 0 87 26t27 92v189q0 67 -26 94t-88 27h-70q-59 0 -85.5 -29.5
t-26.5 -91.5v-189q0 -66 25.5 -92t86.5 -26z" />
    <glyph glyph-name="Ocircumflex" unicode="&#xd4;" horiz-adv-x="703" 
d="M474 741l-123 85l-122 -85l-49 43l120 130h103l120 -130zM404 -13h-98q-133 0 -200 72t-69 207v161q0 138 67 211.5t202 73.5h98q132 0 197.5 -73.5t65.5 -211.5v-160q0 -135 -66.5 -207.5t-196.5 -72.5zM316 136h70q61 0 87 26t27 92v189q0 67 -26 94t-88 27h-70
q-59 0 -85.5 -29.5t-26.5 -91.5v-189q0 -66 25.5 -92t86.5 -26z" />
    <glyph glyph-name="Otilde" unicode="&#xd5;" horiz-adv-x="703" 
d="M546 855l-76 -83q-22 -25 -60 -25q-12 0 -23 4.5t-19 10t-29 22t-42 30.5l-91 -62l-49 43l66 73q33 37 69 37q14 0 26.5 -5t21 -11t29 -22.5t37.5 -28.5l91 59zM404 -13h-98q-133 0 -200 72t-69 207v161q0 138 67 211.5t202 73.5h98q132 0 197.5 -73.5t65.5 -211.5v-160
q0 -135 -66.5 -207.5t-196.5 -72.5zM316 136h70q61 0 87 26t27 92v189q0 67 -26 94t-88 27h-70q-59 0 -85.5 -29.5t-26.5 -91.5v-189q0 -66 25.5 -92t86.5 -26z" />
    <glyph glyph-name="Odieresis" unicode="&#xd6;" horiz-adv-x="703" 
d="M241 757q-34 0 -57.5 20.5t-23.5 52.5q0 33 23 53.5t58 20.5t58 -20.5t23 -53.5q0 -32 -23.5 -52.5t-57.5 -20.5zM462 757q-34 0 -57 20.5t-23 52.5q0 33 23 53.5t57 20.5q35 0 58.5 -20.5t23.5 -53.5q0 -32 -23.5 -52.5t-58.5 -20.5zM404 -13h-98q-133 0 -200 72
t-69 207v161q0 138 67 211.5t202 73.5h98q132 0 197.5 -73.5t65.5 -211.5v-160q0 -135 -66.5 -207.5t-196.5 -72.5zM316 136h70q61 0 87 26t27 92v189q0 67 -26 94t-88 27h-70q-59 0 -85.5 -29.5t-26.5 -91.5v-189q0 -66 25.5 -92t86.5 -26z" />
    <glyph glyph-name="multiply" unicode="&#xd7;" horiz-adv-x="575" 
d="M136 108l-85 85l153 151l-154 150l88 89l152 -154l150 154l85 -85l-153 -151l153 -151l-88 -88l-151 154z" />
    <glyph glyph-name="Oslash" unicode="&#xd8;" horiz-adv-x="703" 
d="M672 727l-68 -91q63 -74 63 -209v-160q0 -135 -66.5 -207.5t-196.5 -72.5h-98q-97 0 -160 39l-40 -54h-59l62 83q-70 72 -72 211v161q0 138 67 211.5t202 73.5h98q102 0 164 -44l44 59h60zM204 443v-189q0 -35 8 -62l260 347q-26 25 -86 25h-70q-59 0 -85.5 -29.5
t-26.5 -91.5zM500 254v189q0 30 -4 49l-255 -340q26 -16 75 -16h70q61 0 87 26t27 92z" />
    <glyph glyph-name="Ugrave" unicode="&#xd9;" horiz-adv-x="751" 
d="M470 781l-65 -41l-161 106v22l117 57zM728 700v-119q-12 -2 -35 -5t-27 -4v-312q0 -140 -62 -206.5t-194 -66.5h-51q-135 0 -199 66.5t-64 206.5v311q-46 6 -73 10v119h319v-119q-35 -7 -79 -10v-334q0 -51 28 -82t78 -31h37q50 0 78 31t28 82v336q-20 2 -62 8v119h278z
" />
    <glyph glyph-name="Uacute" unicode="&#xda;" horiz-adv-x="751" 
d="M521 869v-22l-166 -110l-69 43l114 149zM728 700v-119q-12 -2 -35 -5t-27 -4v-312q0 -140 -62 -206.5t-194 -66.5h-51q-135 0 -199 66.5t-64 206.5v311q-46 6 -73 10v119h319v-119q-35 -7 -79 -10v-334q0 -51 28 -82t78 -31h37q50 0 78 31t28 82v336q-20 2 -62 8v119h278
z" />
    <glyph glyph-name="Ucircumflex" unicode="&#xdb;" horiz-adv-x="751" 
d="M507 741l-123 85l-122 -85l-49 43l120 130h103l120 -130zM728 700v-119q-12 -2 -35 -5t-27 -4v-312q0 -140 -62 -206.5t-194 -66.5h-51q-135 0 -199 66.5t-64 206.5v311q-46 6 -73 10v119h319v-119q-35 -7 -79 -10v-334q0 -51 28 -82t78 -31h37q50 0 78 31t28 82v336
q-20 2 -62 8v119h278z" />
    <glyph glyph-name="Udieresis" unicode="&#xdc;" horiz-adv-x="751" 
d="M274 757q-34 0 -57.5 20.5t-23.5 52.5q0 33 23 53.5t58 20.5t58 -20.5t23 -53.5q0 -32 -23.5 -52.5t-57.5 -20.5zM495 757q-34 0 -57 20.5t-23 52.5q0 33 23 53.5t57 20.5q35 0 58.5 -20.5t23.5 -53.5q0 -32 -23.5 -52.5t-58.5 -20.5zM728 700v-119q-12 -2 -35 -5t-27 -4
v-312q0 -140 -62 -206.5t-194 -66.5h-51q-135 0 -199 66.5t-64 206.5v311q-46 6 -73 10v119h319v-119q-35 -7 -79 -10v-334q0 -51 28 -82t78 -31h37q50 0 78 31t28 82v336q-20 2 -62 8v119h278z" />
    <glyph glyph-name="Yacute" unicode="&#xdd;" horiz-adv-x="714" 
d="M498 869v-22l-166 -110l-69 43l114 149zM307 700v-119q-34 -4 -50 -5l103 -213h5l102 211q-36 4 -56 7v119h288v-119q-25 -5 -73 -11l-190 -328v-113q25 -2 73 -10v-119h-311v119q27 5 71 10v106l-190 337q-30 3 -64 9v119h292z" />
    <glyph glyph-name="Thorn" unicode="&#xde;" horiz-adv-x="654" 
d="M268 575h131q128 0 178.5 -41.5t50.5 -151.5v-82q-1 -104 -52 -142t-177 -38h-131v-120h-238v119q35 7 71 10v441q-48 6 -74 11v119h241v-125zM471 321v51q0 41 -13.5 55.5t-58.5 14.5h-131v-188h131q44 0 58 14t14 53z" />
    <glyph glyph-name="germandbls" unicode="&#xdf;" horiz-adv-x="692" 
d="M621 563v-33q0 -124 -92 -149q62 -6 94 -36.5t32 -101.5v-55q0 -106 -39.5 -150.5t-134.5 -44.5q-78 0 -183 32v104h135q62 0 62 63v60q0 37 -17.5 52t-52.5 15h-55q-25 0 -40 12.5t-15 33.5v75l88 9q38 4 54 23.5t16 56.5v10q0 38 -21 55.5t-68 17.5h-33q-96 0 -96 -105
v-507h-222v112q34 6 62 9v287l-59 10v113h59v17q0 96 65.5 140.5t213.5 44.5h53q102 0 148 -43t46 -127z" />
    <glyph glyph-name="agrave" unicode="&#xe0;" horiz-adv-x="622" 
d="M407 622l-65 -41l-161 106v22l117 57zM541 354v-232q22 -3 61 -9v-112h-221v62q-88 -71 -176 -71h-16q-78 0 -112.5 29t-34.5 123v10q0 80 38.5 110t115.5 41q41 6 97 12.5t88 10.5v19q0 45 -19.5 63t-62.5 18q-52 0 -91 -10l-8 -53h-119v153q116 25 237 25h45
q86 0 132 -50t46 -139zM262 108h14q26 0 55 17t50 41v77q-92 -13 -110 -16q-34 -5 -48.5 -18t-14.5 -38v-11q0 -28 12.5 -40t41.5 -12z" />
    <glyph glyph-name="aacute" unicode="&#xe1;" horiz-adv-x="622" 
d="M437 709v-22l-161 -106l-65 41l109 144zM541 354v-232q22 -3 61 -9v-112h-221v62q-88 -71 -176 -71h-16q-78 0 -112.5 29t-34.5 123v10q0 80 38.5 110t115.5 41q41 6 97 12.5t88 10.5v19q0 45 -19.5 63t-62.5 18q-52 0 -91 -10l-8 -53h-119v153q116 25 237 25h45
q86 0 132 -50t46 -139zM262 108h14q26 0 55 17t50 41v77q-92 -13 -110 -16q-34 -5 -48.5 -18t-14.5 -38v-11q0 -28 12.5 -40t41.5 -12z" />
    <glyph glyph-name="acircumflex" unicode="&#xe2;" horiz-adv-x="622" 
d="M429 585l-119 82l-118 -82l-47 41l117 125h97l116 -125zM541 354v-232q22 -3 61 -9v-112h-221v62q-88 -71 -176 -71h-16q-78 0 -112.5 29t-34.5 123v10q0 80 38.5 110t115.5 41q41 6 97 12.5t88 10.5v19q0 45 -19.5 63t-62.5 18q-52 0 -91 -10l-8 -53h-119v153
q116 25 237 25h45q86 0 132 -50t46 -139zM262 108h14q26 0 55 17t50 41v77q-92 -13 -110 -16q-34 -5 -48.5 -18t-14.5 -38v-11q0 -28 12.5 -40t41.5 -12z" />
    <glyph glyph-name="atilde" unicode="&#xe3;" horiz-adv-x="622" 
d="M499 701l-73 -80q-24 -24 -58 -24q-11 0 -25 6.5t-24 14t-29.5 22.5t-30.5 23l-89 -61l-46 41l71 79q24 27 59 27q14 0 29.5 -7t26 -15t28.5 -22.5t26 -20.5l89 58zM541 354v-232q22 -3 61 -9v-112h-221v62q-88 -71 -176 -71h-16q-78 0 -112.5 29t-34.5 123v10
q0 80 38.5 110t115.5 41q41 6 97 12.5t88 10.5v19q0 45 -19.5 63t-62.5 18q-52 0 -91 -10l-8 -53h-119v153q116 25 237 25h45q86 0 132 -50t46 -139zM262 108h14q26 0 55 17t50 41v77q-92 -13 -110 -16q-34 -5 -48.5 -18t-14.5 -38v-11q0 -28 12.5 -40t41.5 -12z" />
    <glyph glyph-name="adieresis" unicode="&#xe4;" horiz-adv-x="622" 
d="M209 604q-32 0 -53.5 18.5t-21.5 47.5q0 30 21.5 49t53.5 19q31 0 52.5 -19t21.5 -49q0 -29 -21.5 -47.5t-52.5 -18.5zM414 604q-31 0 -52 18.5t-21 47.5q0 30 21 49t52 19q32 0 53.5 -19t21.5 -49q0 -29 -21.5 -47.5t-53.5 -18.5zM541 354v-232q22 -3 61 -9v-112h-221
v62q-88 -71 -176 -71h-16q-78 0 -112.5 29t-34.5 123v10q0 80 38.5 110t115.5 41q41 6 97 12.5t88 10.5v19q0 45 -19.5 63t-62.5 18q-52 0 -91 -10l-8 -53h-119v153q116 25 237 25h45q86 0 132 -50t46 -139zM262 108h14q26 0 55 17t50 41v77q-92 -13 -110 -16
q-34 -5 -48.5 -18t-14.5 -38v-11q0 -28 12.5 -40t41.5 -12z" />
    <glyph glyph-name="aring" unicode="&#xe5;" horiz-adv-x="622" 
d="M329 584h-37q-38 0 -59 20.5t-21 59.5v25q0 80 80 80h37q39 0 59.5 -21t20.5 -59v-25q0 -39 -21 -59.5t-59 -20.5zM298 637h24q27 0 30 29v22q0 31 -30 31h-24q-29 0 -29 -31v-22q0 -29 29 -29zM541 354v-232q22 -3 61 -9v-112h-221v62q-88 -71 -176 -71h-16
q-78 0 -112.5 29t-34.5 123v10q0 80 38.5 110t115.5 41q41 6 97 12.5t88 10.5v19q0 45 -19.5 63t-62.5 18q-52 0 -91 -10l-8 -53h-119v153q116 25 237 25h45q86 0 132 -50t46 -139zM262 108h14q26 0 55 17t50 41v77q-92 -13 -110 -16q-34 -5 -48.5 -18t-14.5 -38v-11
q0 -28 12.5 -40t41.5 -12z" />
    <glyph glyph-name="ae" unicode="&#xe6;" horiz-adv-x="925" 
d="M81 365v153q116 25 237 25h42q76 0 108 -45q53 45 157 45h33q124 0 177 -46.5t53 -155.5v-144h-352v-22q0 -76 87 -76h39q64 0 79 42l5 22h127v-107q-84 -69 -206 -69h-59q-165 0 -208 96q-36 -28 -60.5 -44.5t-61.5 -31.5t-73 -15h-16q-41 0 -63.5 3.5t-44 17t-30.5 43
t-9 78.5v20q0 81 40 113t114 38q71 7 185 12v30q0 45 -19.5 63t-62.5 18q-52 0 -91 -10l-8 -53h-119zM741 303v58q0 38 -21 59t-60 21h-31q-42 0 -67.5 -22.5t-25.5 -61.5v-54h205zM262 108h14q50 0 108 40q-3 23 -3 50v31q-97 -9 -132 -18q-3 -1 -9 -2.5l-8 -2t-7 -2
t-6.5 -2.5t-5 -3t-4.5 -3.5l-3 -4.5t-2.5 -6.5t-1 -8t-0.5 -10.5v-6q0 -30 12.5 -41t47.5 -11z" />
    <glyph glyph-name="ccedilla" unicode="&#xe7;" horiz-adv-x="549" 
d="M267 -13l-1 -21h40q40 0 59 -15t19 -50v-15q0 -44 -21 -59.5t-72 -16.5q-57 0 -115 15v45h110q24 0 24 21v4q0 20 -24 20h-86l11 74q-92 8 -133 62t-41 161v112q0 105 59.5 162t161.5 57h51q88 0 201 -29v-185h-120l-14 88q-45 6 -93 6q-44 0 -65 -23.5t-21 -82.5v-116
q0 -53 20.5 -70.5t62.5 -17.5h23q63 0 80 44l4 16h129v-117q-106 -69 -209 -69h-40z" />
    <glyph glyph-name="egrave" unicode="&#xe8;" horiz-adv-x="581" 
d="M377 622l-65 -41l-161 106v22l117 57zM281 543h33q118 0 174 -54t56 -168v-127h-352v-12q0 -79 88 -79h38q33 0 52 7.5t27 30.5l5 22h127v-107q-84 -69 -216 -69h-25q-137 0 -194 59t-57 196v69q0 120 60.5 176t183.5 56zM402 306v51q0 37 -25.5 56t-66.5 19h-29
q-42 0 -65.5 -20t-23.5 -59v-47h210z" />
    <glyph glyph-name="eacute" unicode="&#xe9;" horiz-adv-x="581" 
d="M424 709v-22l-161 -106l-65 41l109 144zM281 543h33q118 0 174 -54t56 -168v-127h-352v-12q0 -79 88 -79h38q33 0 52 7.5t27 30.5l5 22h127v-107q-84 -69 -216 -69h-25q-137 0 -194 59t-57 196v69q0 120 60.5 176t183.5 56zM402 306v51q0 37 -25.5 56t-66.5 19h-29
q-42 0 -65.5 -20t-23.5 -59v-47h210z" />
    <glyph glyph-name="ecircumflex" unicode="&#xea;" horiz-adv-x="581" 
d="M416 585l-119 82l-118 -82l-47 41l117 125h97l116 -125zM281 543h33q118 0 174 -54t56 -168v-127h-352v-12q0 -79 88 -79h38q33 0 52 7.5t27 30.5l5 22h127v-107q-84 -69 -216 -69h-25q-137 0 -194 59t-57 196v69q0 120 60.5 176t183.5 56zM402 306v51q0 37 -25.5 56
t-66.5 19h-29q-42 0 -65.5 -20t-23.5 -59v-47h210z" />
    <glyph glyph-name="edieresis" unicode="&#xeb;" horiz-adv-x="581" 
d="M195 604q-32 0 -53.5 18.5t-21.5 47.5q0 30 21.5 49t53.5 19q31 0 52.5 -19t21.5 -49q0 -29 -21.5 -47.5t-52.5 -18.5zM400 604q-31 0 -52 18.5t-21 47.5q0 30 21 49t52 19q32 0 53.5 -19t21.5 -49q0 -29 -21.5 -47.5t-53.5 -18.5zM281 543h33q118 0 174 -54t56 -168
v-127h-352v-12q0 -79 88 -79h38q33 0 52 7.5t27 30.5l5 22h127v-107q-84 -69 -216 -69h-25q-137 0 -194 59t-57 196v69q0 120 60.5 176t183.5 56zM402 306v51q0 37 -25.5 56t-66.5 19h-29q-42 0 -65.5 -20t-23.5 -59v-47h210z" />
    <glyph glyph-name="igrave" unicode="&#xec;" horiz-adv-x="337" 
d="M254 622l-65 -41l-161 106v22l117 57zM255 531v-410q28 -3 62 -9v-112h-284v112q34 6 62 9v288q-11 1 -33.5 5t-25.5 4v113h219z" />
    <glyph glyph-name="iacute" unicode="&#xed;" horiz-adv-x="337" 
d="M297 709v-22l-161 -106l-65 41l109 144zM255 531v-410q28 -3 62 -9v-112h-284v112q34 6 62 9v288q-11 1 -33.5 5t-25.5 4v113h219z" />
    <glyph glyph-name="icircumflex" unicode="&#xee;" horiz-adv-x="337" 
d="M289 585l-119 82l-118 -82l-47 41l117 125h97l116 -125zM255 531v-410q28 -3 62 -9v-112h-284v112q34 6 62 9v288q-11 1 -33.5 5t-25.5 4v113h219z" />
    <glyph glyph-name="idieresis" unicode="&#xef;" horiz-adv-x="337" 
d="M68 604q-32 0 -53.5 18.5t-21.5 47.5q0 30 21.5 49t53.5 19q31 0 52.5 -19t21.5 -49q0 -29 -21.5 -47.5t-52.5 -18.5zM273 604q-31 0 -52 18.5t-21 47.5q0 30 21 49t52 19q32 0 53.5 -19t21.5 -49q0 -29 -21.5 -47.5t-53.5 -18.5zM255 531v-410q28 -3 62 -9v-112h-284
v112q34 6 62 9v288q-11 1 -33.5 5t-25.5 4v113h219z" />
    <glyph glyph-name="eth" unicode="&#xf0;" horiz-adv-x="621" 
d="M559 700l26 -84q-11 -4 -33 -11.5t-33 -11.5q56 -82 56 -195v-157q-1 -147 -53 -199.5t-193 -52.5h-32q-144 0 -202 52.5t-58 167.5v108q0 91 44.5 134t125.5 43h16q54 0 94 -12t98 -39v15q-2 78 -14 102q-103 -26 -180 -43l-26 83l150 39q-28 22 -83 40l33 53
q98 -11 161 -61zM415 197v144q-68 28 -121 28h-15q-45 0 -63.5 -20.5t-18.5 -69.5v-84q0 -49 21 -66t74 -17h33q50 0 69.5 17t20.5 68z" />
    <glyph glyph-name="ntilde" unicode="&#xf1;" horiz-adv-x="686" 
d="M533 701l-73 -80q-24 -24 -58 -24q-11 0 -25 6.5t-24 14t-29.5 22.5t-30.5 23l-89 -61l-46 41l71 79q24 27 59 27q14 0 29.5 -7t26 -15t28.5 -22.5t26 -20.5l89 58zM666 112v-112h-225v312q0 62 -10 79t-50 17h-12q-47 0 -114 -45v-242q28 -3 62 -9v-112h-284v112
q34 6 62 9v288q-11 1 -33.5 5t-25.5 4v113h219v-76q117 88 199 88h12q135 0 135 -144v-277z" />
    <glyph glyph-name="ograve" unicode="&#xf2;" horiz-adv-x="612" 
d="M386 622l-65 -41l-161 106v22l117 57zM330 -13h-40q-133 0 -193 61t-60 192v44q0 135 59.5 197t193.5 62h39q131 0 188.5 -62t57.5 -197v-44q0 -131 -58 -192t-187 -61zM285 105h41q89 0 89 82v152q0 86 -89 86h-41q-88 0 -88 -86v-152q0 -82 88 -82z" />
    <glyph glyph-name="oacute" unicode="&#xf3;" horiz-adv-x="612" 
d="M436 709v-22l-161 -106l-65 41l109 144zM330 -13h-40q-133 0 -193 61t-60 192v44q0 135 59.5 197t193.5 62h39q131 0 188.5 -62t57.5 -197v-44q0 -131 -58 -192t-187 -61zM285 105h41q89 0 89 82v152q0 86 -89 86h-41q-88 0 -88 -86v-152q0 -82 88 -82z" />
    <glyph glyph-name="ocircumflex" unicode="&#xf4;" horiz-adv-x="612" 
d="M424 585l-119 82l-118 -82l-47 41l117 125h97l116 -125zM330 -13h-40q-133 0 -193 61t-60 192v44q0 135 59.5 197t193.5 62h39q131 0 188.5 -62t57.5 -197v-44q0 -131 -58 -192t-187 -61zM285 105h41q89 0 89 82v152q0 86 -89 86h-41q-88 0 -88 -86v-152q0 -82 88 -82z
" />
    <glyph glyph-name="otilde" unicode="&#xf5;" horiz-adv-x="612" 
d="M494 701l-73 -80q-24 -24 -58 -24q-11 0 -25 6.5t-24 14t-29.5 22.5t-30.5 23l-89 -61l-46 41l71 79q24 27 59 27q14 0 29.5 -7t26 -15t28.5 -22.5t26 -20.5l89 58zM330 -13h-40q-133 0 -193 61t-60 192v44q0 135 59.5 197t193.5 62h39q131 0 188.5 -62t57.5 -197v-44
q0 -131 -58 -192t-187 -61zM285 105h41q89 0 89 82v152q0 86 -89 86h-41q-88 0 -88 -86v-152q0 -82 88 -82z" />
    <glyph glyph-name="odieresis" unicode="&#xf6;" horiz-adv-x="612" 
d="M204 604q-32 0 -53.5 18.5t-21.5 47.5q0 30 21.5 49t53.5 19q31 0 52.5 -19t21.5 -49q0 -29 -21.5 -47.5t-52.5 -18.5zM409 604q-31 0 -52 18.5t-21 47.5q0 30 21 49t52 19q32 0 53.5 -19t21.5 -49q0 -29 -21.5 -47.5t-53.5 -18.5zM330 -13h-40q-133 0 -193 61t-60 192
v44q0 135 59.5 197t193.5 62h39q131 0 188.5 -62t57.5 -197v-44q0 -131 -58 -192t-187 -61zM285 105h41q89 0 89 82v152q0 86 -89 86h-41q-88 0 -88 -86v-152q0 -82 88 -82z" />
    <glyph glyph-name="divide" unicode="&#xf7;" horiz-adv-x="585" 
d="M295 484q-86 0 -86 79q0 80 86 80q85 0 85 -80q0 -79 -85 -79zM37 408h511v-118h-511v118zM295 60q-86 0 -86 79q0 80 86 80q85 0 85 -80q0 -79 -85 -79z" />
    <glyph glyph-name="oslash" unicode="&#xf8;" horiz-adv-x="625" 
d="M589 560l-65 -78q58 -62 58 -198v-44q0 -131 -58 -192t-187 -61h-40q-99 0 -157 33l-40 -48h-60l63 76q-59 62 -59 192v44q0 135 59.5 197t193.5 62h39q95 0 152 -33l42 50h59zM204 339v-152q0 -12 1 -17l194 233q-22 22 -66 22h-41q-88 0 -88 -86zM422 187v152
q0 13 -1 19l-194 -233q23 -20 65 -20h41q89 0 89 82z" />
    <glyph glyph-name="ugrave" unicode="&#xf9;" horiz-adv-x="681" 
d="M405 622l-65 -41l-161 106v22l117 57zM597 531v-409q19 -2 63 -9v-112h-223v77q-3 -2 -23.5 -14t-27.5 -16t-26 -14t-30 -14t-28 -10t-32.5 -8t-30.5 -2h-13q-74 0 -104 32t-30 112v265q-49 7 -65 9v113h225v-300q0 -62 9.5 -78.5t49.5 -16.5h12q47 0 114 44v229
q-34 5 -65 9v113h225z" />
    <glyph glyph-name="uacute" unicode="&#xfa;" horiz-adv-x="681" 
d="M455 709v-22l-161 -106l-65 41l109 144zM597 531v-409q19 -2 63 -9v-112h-223v77q-3 -2 -23.5 -14t-27.5 -16t-26 -14t-30 -14t-28 -10t-32.5 -8t-30.5 -2h-13q-74 0 -104 32t-30 112v265q-49 7 -65 9v113h225v-300q0 -62 9.5 -78.5t49.5 -16.5h12q47 0 114 44v229
q-34 5 -65 9v113h225z" />
    <glyph glyph-name="ucircumflex" unicode="&#xfb;" horiz-adv-x="681" 
d="M447 585l-119 82l-118 -82l-47 41l117 125h97l116 -125zM597 531v-409q19 -2 63 -9v-112h-223v77q-3 -2 -23.5 -14t-27.5 -16t-26 -14t-30 -14t-28 -10t-32.5 -8t-30.5 -2h-13q-74 0 -104 32t-30 112v265q-49 7 -65 9v113h225v-300q0 -62 9.5 -78.5t49.5 -16.5h12
q47 0 114 44v229q-34 5 -65 9v113h225z" />
    <glyph glyph-name="udieresis" unicode="&#xfc;" horiz-adv-x="681" 
d="M227 604q-32 0 -53.5 18.5t-21.5 47.5q0 30 21.5 49t53.5 19q31 0 52.5 -19t21.5 -49q0 -29 -21.5 -47.5t-52.5 -18.5zM432 604q-31 0 -52 18.5t-21 47.5q0 30 21 49t52 19q32 0 53.5 -19t21.5 -49q0 -29 -21.5 -47.5t-53.5 -18.5zM597 531v-409q19 -2 63 -9v-112h-223
v77q-3 -2 -23.5 -14t-27.5 -16t-26 -14t-30 -14t-28 -10t-32.5 -8t-30.5 -2h-13q-74 0 -104 32t-30 112v265q-49 7 -65 9v113h225v-300q0 -62 9.5 -78.5t49.5 -16.5h12q47 0 114 44v229q-34 5 -65 9v113h225z" />
    <glyph glyph-name="yacute" unicode="&#xfd;" horiz-adv-x="671" 
d="M465 709v-22l-161 -106l-65 41l109 144zM661 531v-113q-21 -4 -73 -11l-207 -468q16 0 54 -4v-112h-310v112q32 3 103 6l24 49l-185 420q-14 2 -57 8v113h299v-113q-47 -6 -77 -8l99 -263h3l116 263q-5 0 -57 8v113h268z" />
    <glyph glyph-name="thorn" unicode="&#xfe;" horiz-adv-x="637" 
d="M440 543h16q145 0 145 -195v-186q0 -84 -42.5 -127t-111.5 -43h-16q-52 0 -86 10.5t-90 39.5v-108q13 -1 62 -8v-113h-284v113q50 7 62 8v644q-43 7 -59 10v112h219v-238q50 39 92.5 60t92.5 21zM441 229v73q0 64 -12 85t-52 21h-14q-50 0 -108 -38v-224q52 -30 105 -30
h16q39 0 52 23t13 90z" />
    <glyph glyph-name="ydieresis" unicode="&#xff;" horiz-adv-x="671" 
d="M233 604q-32 0 -53.5 18.5t-21.5 47.5q0 30 21.5 49t53.5 19q31 0 52.5 -19t21.5 -49q0 -29 -21.5 -47.5t-52.5 -18.5zM438 604q-31 0 -52 18.5t-21 47.5q0 30 21 49t52 19q32 0 53.5 -19t21.5 -49q0 -29 -21.5 -47.5t-53.5 -18.5zM661 531v-113q-21 -4 -73 -11
l-207 -468q16 0 54 -4v-112h-310v112q32 3 103 6l24 49l-185 420q-14 2 -57 8v113h299v-113q-47 -6 -77 -8l99 -263h3l116 263q-5 0 -57 8v113h268z" />
    <glyph glyph-name="Amacron" unicode="&#x100;" horiz-adv-x="802" 
d="M536 857v-94h-306v94h306zM510 700l189 -570q42 -3 86 -11v-119h-338v119q35 6 65 9l-24 75h-203l-16 -74q12 -2 23.5 -5t22.5 -5v-119h-298v119q45 8 82 11l142 442q-14 2 -68 9v119h337zM383 561l-66 -217h136l-68 217h-2z" />
    <glyph glyph-name="amacron" unicode="&#x101;" horiz-adv-x="622" 
d="M446 696v-91h-276v91h276zM541 354v-232q22 -3 61 -9v-112h-221v62q-88 -71 -176 -71h-16q-78 0 -112.5 29t-34.5 123v10q0 80 38.5 110t115.5 41q41 6 97 12.5t88 10.5v19q0 45 -19.5 63t-62.5 18q-52 0 -91 -10l-8 -53h-119v153q116 25 237 25h45q86 0 132 -50t46 -139
zM262 108h14q26 0 55 17t50 41v77q-92 -13 -110 -16q-34 -5 -48.5 -18t-14.5 -38v-11q0 -28 12.5 -40t41.5 -12z" />
    <glyph glyph-name="Abreve" unicode="&#x102;" horiz-adv-x="802" 
d="M543 899v-24q0 -62 -42.5 -99t-117.5 -37q-76 0 -118.5 37t-42.5 99v24h92v-5q0 -55 69 -55t69 55v5h91zM510 700l189 -570q42 -3 86 -11v-119h-338v119q35 6 65 9l-24 75h-203l-16 -74q12 -2 23.5 -5t22.5 -5v-119h-298v119q45 8 82 11l142 442q-14 2 -68 9v119h337z
M383 561l-66 -217h136l-68 217h-2z" />
    <glyph glyph-name="abreve" unicode="&#x103;" horiz-adv-x="622" 
d="M466 737v-23q0 -60 -41 -95.5t-113 -35.5q-73 0 -114 35.5t-41 95.5v23h88v-5q0 -54 67 -54t67 54v5h87zM541 354v-232q22 -3 61 -9v-112h-221v62q-88 -71 -176 -71h-16q-78 0 -112.5 29t-34.5 123v10q0 80 38.5 110t115.5 41q41 6 97 12.5t88 10.5v19q0 45 -19.5 63
t-62.5 18q-52 0 -91 -10l-8 -53h-119v153q116 25 237 25h45q86 0 132 -50t46 -139zM262 108h14q26 0 55 17t50 41v77q-92 -13 -110 -16q-34 -5 -48.5 -18t-14.5 -38v-11q0 -28 12.5 -40t41.5 -12z" />
    <glyph glyph-name="Aogonek" unicode="&#x104;" horiz-adv-x="802" 
d="M785 0h-108q-4 -4 -13 -12t-12.5 -11.5t-10 -9.5t-9 -9t-6 -7.5t-4.5 -8t-1 -7.5v-5q0 -23 30 -23q36 0 67 9l22 -45q-59 -44 -111 -44h-20q-83 0 -83 72v18q0 51 83 83h-162v119q35 6 65 9l-24 75h-203l-16 -74q12 -2 23.5 -5t22.5 -5v-119h-298v119q45 8 82 11l142 442
q-14 2 -68 9v119h337l189 -570q42 -3 86 -11v-119zM453 344l-68 217h-2l-66 -217h136z" />
    <glyph glyph-name="aogonek" unicode="&#x105;" horiz-adv-x="622" 
d="M602 1h-87q-5 -4 -14 -12t-12.5 -11.5l-10 -10t-9 -9.5t-6 -7.5t-4.5 -8t-1 -7.5v-5q0 -23 30 -23q36 0 67 9l22 -45q-59 -44 -111 -44h-20q-83 0 -83 72v18q0 52 86 84h-68v62q-88 -71 -176 -71h-16q-78 0 -112.5 29t-34.5 123v10q0 80 38.5 110t115.5 41q41 6 97 12.5
t88 10.5v19q0 45 -19.5 63t-62.5 18q-52 0 -91 -10l-8 -53h-119v153q116 25 237 25h45q86 0 132 -50t46 -139v-232q22 -3 61 -9v-112zM381 166v77q-92 -13 -110 -16q-34 -5 -48.5 -18t-14.5 -38v-11q0 -28 12.5 -40t41.5 -12h14q26 0 55 17t50 41z" />
    <glyph glyph-name="Cacute" unicode="&#x106;" horiz-adv-x="644" 
d="M473 869v-22l-166 -110l-69 43l114 149zM611 200v-129q-113 -84 -244 -84h-71q-131 0 -192.5 64t-63.5 199v193q0 269 266 269h44q118 0 257 -35v-211h-139l-19 103q-46 8 -135 8q-107 0 -107 -119v-224q0 -52 28 -80t79 -28h44q81 0 114 74h139z" />
    <glyph glyph-name="cacute" unicode="&#x107;" horiz-adv-x="549" 
d="M407 709v-22l-161 -106l-65 41l109 144zM516 173v-117q-106 -69 -209 -69h-59q-113 0 -162 54t-49 171v112q0 105 59.5 162t161.5 57h51q88 0 201 -29v-185h-120l-14 88q-45 6 -93 6q-44 0 -65 -23.5t-21 -82.5v-116q0 -53 20.5 -70.5t62.5 -17.5h23q63 0 80 44l4 16h129
z" />
    <glyph glyph-name="Cdotaccent" unicode="&#x10a;" horiz-adv-x="644" 
d="M335 754q-35 0 -59 21t-24 55t24 55.5t59 21.5q36 0 60 -21.5t24 -55.5t-24 -55t-60 -21zM611 200v-129q-113 -84 -244 -84h-71q-131 0 -192.5 64t-63.5 199v193q0 269 266 269h44q118 0 257 -35v-211h-139l-19 103q-46 8 -135 8q-107 0 -107 -119v-224q0 -52 28 -80
t79 -28h44q81 0 114 74h139z" />
    <glyph glyph-name="cdotaccent" unicode="&#x10b;" horiz-adv-x="549" 
d="M280 591q-34 0 -56 19.5t-22 50.5q0 33 22 53.5t56 20.5t56 -20.5t22 -53.5q0 -31 -22 -50.5t-56 -19.5zM516 173v-117q-106 -69 -209 -69h-59q-113 0 -162 54t-49 171v112q0 105 59.5 162t161.5 57h51q88 0 201 -29v-185h-120l-14 88q-45 6 -93 6q-44 0 -65 -23.5
t-21 -82.5v-116q0 -53 20.5 -70.5t62.5 -17.5h23q63 0 80 44l4 16h129z" />
    <glyph glyph-name="Ccaron" unicode="&#x10c;" horiz-adv-x="644" 
d="M385 745h-97l-117 125l47 41l118 -82l119 82l46 -41zM611 200v-129q-113 -84 -244 -84h-71q-131 0 -192.5 64t-63.5 199v193q0 269 266 269h44q118 0 257 -35v-211h-139l-19 103q-46 8 -135 8q-107 0 -107 -119v-224q0 -52 28 -80t79 -28h44q81 0 114 74h139z" />
    <glyph glyph-name="ccaron" unicode="&#x10d;" horiz-adv-x="549" 
d="M330 585h-97l-117 125l47 41l118 -82l119 82l46 -41zM516 173v-117q-106 -69 -209 -69h-59q-113 0 -162 54t-49 171v112q0 105 59.5 162t161.5 57h51q88 0 201 -29v-185h-120l-14 88q-45 6 -93 6q-44 0 -65 -23.5t-21 -82.5v-116q0 -53 20.5 -70.5t62.5 -17.5h23
q63 0 80 44l4 16h129z" />
    <glyph glyph-name="Dcaron" unicode="&#x10e;" horiz-adv-x="712" 
d="M397 745h-97l-117 125l47 41l118 -82l119 82l46 -41zM27 700h392q134 -1 195 -62.5t61 -197.5v-186q-1 -133 -62.5 -193.5t-192.5 -60.5h-390v119q17 3 42.5 6.5t30.5 4.5v440q-41 5 -76 11v119zM509 240v217q0 52 -27.5 79.5t-79.5 27.5h-132v-428h132q51 0 78.5 27
t28.5 77z" />
    <glyph glyph-name="dcaron" unicode="&#x10f;" horiz-adv-x="624" 
d="M542 700v-578q19 -2 62 -9v-112h-222v73q-50 -40 -91 -61t-91 -21h-16q-68 0 -107.5 47.5t-39.5 148.5v177q0 84 43.5 130t110.5 46h16q53 0 85.5 -10.5t89.5 -40.5v100q-30 7 -65 11v99h225zM730 700v-25l-61 -167h-80l17 192h124zM264 128h14q48 0 104 38v218
q-51 26 -104 26h-15q-38 0 -52 -20.5t-14 -64.5v-92q0 -63 13.5 -84t53.5 -21z" />
    <glyph glyph-name="Dcroat" unicode="&#x110;" horiz-adv-x="712" 
d="M27 700h392q134 -1 195 -62.5t61 -197.5v-186q-1 -133 -62.5 -193.5t-192.5 -60.5h-390v119q17 3 42.5 6.5t30.5 4.5v169h-74v94h74v177q-41 5 -76 11v119zM509 240v217q0 52 -27.5 79.5t-79.5 27.5h-132v-171h65v-94h-65v-163h132q51 0 78.5 27t28.5 77z" />
    <glyph glyph-name="dcroat" unicode="&#x111;" horiz-adv-x="624" 
d="M542 567v-445q19 -2 62 -9v-112h-222v73q-50 -40 -91 -61t-91 -21h-16q-68 0 -107.5 47.5t-39.5 148.5v177q0 84 43.5 130t110.5 46h16q53 0 85.5 -10.5t89.5 -40.5v77h-115v91h115v62h160v-62h56v-91h-56zM382 166v218q-51 26 -104 26h-15q-38 0 -52 -20.5t-14 -64.5
v-92q0 -63 13.5 -84t53.5 -21h14q48 0 104 38z" />
    <glyph glyph-name="Emacron" unicode="&#x112;" horiz-adv-x="642" 
d="M473 857v-94h-306v94h306zM598 483h-104l-20 84h-206v-145h168v-143h-168v-146h211l20 84h104v-217h-573v119q55 7 71 10v442l-27 3q-28 4 -47 7v119h571v-217z" />
    <glyph glyph-name="emacron" unicode="&#x113;" horiz-adv-x="581" 
d="M432 696v-91h-276v91h276zM281 543h33q118 0 174 -54t56 -168v-127h-352v-12q0 -79 88 -79h38q33 0 52 7.5t27 30.5l5 22h127v-107q-84 -69 -216 -69h-25q-137 0 -194 59t-57 196v69q0 120 60.5 176t183.5 56zM402 306v51q0 37 -25.5 56t-66.5 19h-29q-42 0 -65.5 -20
t-23.5 -59v-47h210z" />
    <glyph glyph-name="Edotaccent" unicode="&#x116;" horiz-adv-x="642" 
d="M319 754q-35 0 -59 21t-24 55t24 55.5t59 21.5q36 0 60 -21.5t24 -55.5t-24 -55t-60 -21zM598 483h-104l-20 84h-206v-145h168v-143h-168v-146h211l20 84h104v-217h-573v119q55 7 71 10v442l-27 3q-28 4 -47 7v119h571v-217z" />
    <glyph glyph-name="edotaccent" unicode="&#x117;" horiz-adv-x="581" 
d="M297 595q-35 0 -59 21t-24 54q0 35 24 56.5t59 21.5q36 0 60 -21.5t24 -56.5q0 -33 -24 -54t-60 -21zM281 543h33q118 0 174 -54t56 -168v-127h-352v-12q0 -79 88 -79h38q33 0 52 7.5t27 30.5l5 22h127v-107q-84 -69 -216 -69h-25q-137 0 -194 59t-57 196v69
q0 120 60.5 176t183.5 56zM402 306v51q0 37 -25.5 56t-66.5 19h-29q-42 0 -65.5 -20t-23.5 -59v-47h210z" />
    <glyph glyph-name="Eogonek" unicode="&#x118;" horiz-adv-x="642" 
d="M603 0h-79q-4 -4 -13 -12t-12.5 -11.5t-10 -9.5t-9 -9t-6 -7.5t-4.5 -8t-1 -7.5v-5q0 -23 30 -23q36 0 67 9l22 -45q-59 -44 -111 -44h-20q-83 0 -83 72v18q0 51 83 83h-426v119q55 7 71 10v442l-27 3q-28 4 -47 7v119h571v-217h-104l-20 84h-206v-145h168v-143h-168
v-146h211l20 84h104v-217z" />
    <glyph glyph-name="eogonek" unicode="&#x119;" horiz-adv-x="581" 
d="M192 194v-12q0 -79 88 -79h38q33 0 52 7.5t27 30.5l5 22h127v-107q-48 -40 -123 -58q-46 -41 -51 -53q-3 -5 -3 -10v-5q0 -23 30 -23q36 0 67 9l22 -45q-59 -44 -111 -44h-20q-83 0 -83 72v18q0 41 55 70h-24q-137 0 -194 59t-57 196v69q0 120 60.5 176t183.5 56h33
q118 0 174 -54t56 -168v-127h-352zM192 306h210v51q0 37 -25.5 56t-66.5 19h-29q-42 0 -65.5 -20t-23.5 -59v-47z" />
    <glyph glyph-name="Ecaron" unicode="&#x11a;" horiz-adv-x="642" 
d="M369 745h-97l-117 125l47 41l118 -82l119 82l46 -41zM598 483h-104l-20 84h-206v-145h168v-143h-168v-146h211l20 84h104v-217h-573v119q55 7 71 10v442l-27 3q-28 4 -47 7v119h571v-217z" />
    <glyph glyph-name="ecaron" unicode="&#x11b;" horiz-adv-x="581" 
d="M347 585h-97l-117 125l47 41l118 -82l119 82l46 -41zM281 543h33q118 0 174 -54t56 -168v-127h-352v-12q0 -79 88 -79h38q33 0 52 7.5t27 30.5l5 22h127v-107q-84 -69 -216 -69h-25q-137 0 -194 59t-57 196v69q0 120 60.5 176t183.5 56zM402 306v51q0 37 -25.5 56
t-66.5 19h-29q-42 0 -65.5 -20t-23.5 -59v-47h210z" />
    <glyph glyph-name="Gbreve" unicode="&#x11e;" horiz-adv-x="686" 
d="M504 899v-24q0 -62 -42.5 -99t-117.5 -37q-76 0 -118.5 37t-42.5 99v24h92v-5q0 -55 69 -55t69 55v5h91zM649 371v-173q0 -48 -17.5 -86t-44.5 -60.5t-61.5 -38t-66 -21t-61.5 -5.5h-96q-134 0 -198 64.5t-64 199.5v172q0 134 72.5 211.5t200.5 77.5h47q30 0 113 -10
t156 -25v-215h-139l-19 95q-47 7 -141 7q-55 0 -89 -37.5t-34 -96.5v-192q0 -50 29.5 -76.5t83.5 -26.5h84q41 0 66.5 20.5t25.5 56.5v20q-78 7 -169 16v123h322z" />
    <glyph glyph-name="gbreve" unicode="&#x11f;" horiz-adv-x="625" 
d="M466 737v-23q0 -60 -41 -95.5t-113 -35.5q-73 0 -114 35.5t-41 95.5v23h88v-5q0 -54 67 -54t67 54v5h87zM605 531v-97q-14 -3 -30 -6t-25 -5q4 -13 4 -46v-40q0 -85 -50 -121t-161 -36h-66q-48 0 -84 15q-1 0 -2 -1q-13 -8 -14 -19v-6q0 -14 14.5 -18.5t46.5 -4.5h203
q79 0 115.5 -31.5t36.5 -100.5v-20q0 -182 -248 -182h-105q-127 0 -169.5 20.5t-42.5 76.5v20q0 40 15 68t55 53q-38 23 -38 71v18q0 54 60 94q-52 37 -52 123v24q0 91 53.5 127t181.5 36h20q81 0 125 -12h157zM405 346v44q0 34 -17 45t-59 11h-16q-46 0 -68 -11.5
t-22 -44.5v-44q0 -32 21 -41.5t69 -9.5h6q23 0 36 1t26 6t18.5 15.5t5.5 28.5zM407 25h-160q-40 0 -53 1q-33 -23 -33 -49v-12q0 -25 12.5 -34t49.5 -9h140q51 0 72 11t21 39v13q0 24 -10 32t-39 8z" />
    <glyph glyph-name="Gdotaccent" unicode="&#x120;" horiz-adv-x="686" 
d="M343 754q-35 0 -59 21t-24 55t24 55.5t59 21.5q36 0 60 -21.5t24 -55.5t-24 -55t-60 -21zM649 371v-173q0 -48 -17.5 -86t-44.5 -60.5t-61.5 -38t-66 -21t-61.5 -5.5h-96q-134 0 -198 64.5t-64 199.5v172q0 134 72.5 211.5t200.5 77.5h47q30 0 113 -10t156 -25v-215h-139
l-19 95q-47 7 -141 7q-55 0 -89 -37.5t-34 -96.5v-192q0 -50 29.5 -76.5t83.5 -26.5h84q41 0 66.5 20.5t25.5 56.5v20q-78 7 -169 16v123h322z" />
    <glyph glyph-name="gdotaccent" unicode="&#x121;" horiz-adv-x="625" 
d="M311 595q-35 0 -59 21t-24 54q0 35 24 56.5t59 21.5q36 0 60 -21.5t24 -56.5q0 -33 -24 -54t-60 -21zM605 531v-97q-14 -3 -30 -6t-25 -5q4 -13 4 -46v-40q0 -85 -50 -121t-161 -36h-66q-48 0 -84 15q-1 0 -2 -1q-13 -8 -14 -19v-6q0 -14 14.5 -18.5t46.5 -4.5h203
q79 0 115.5 -31.5t36.5 -100.5v-20q0 -182 -248 -182h-105q-127 0 -169.5 20.5t-42.5 76.5v20q0 40 15 68t55 53q-38 23 -38 71v18q0 54 60 94q-52 37 -52 123v24q0 91 53.5 127t181.5 36h20q81 0 125 -12h157zM405 346v44q0 34 -17 45t-59 11h-16q-46 0 -68 -11.5
t-22 -44.5v-44q0 -32 21 -41.5t69 -9.5h6q23 0 36 1t26 6t18.5 15.5t5.5 28.5zM407 25h-160q-40 0 -53 1q-33 -23 -33 -49v-12q0 -25 12.5 -34t49.5 -9h140q51 0 72 11t21 39v13q0 24 -10 32t-39 8z" />
    <glyph glyph-name="Gcommaaccent" unicode="&#x122;" horiz-adv-x="686" 
d="M649 371v-173q0 -48 -17.5 -86t-44.5 -60.5t-61.5 -38t-66 -21t-61.5 -5.5h-96q-134 0 -198 64.5t-64 199.5v172q0 134 72.5 211.5t200.5 77.5h47q30 0 113 -10t156 -25v-215h-139l-19 95q-47 7 -141 7q-55 0 -89 -37.5t-34 -96.5v-192q0 -50 29.5 -76.5t83.5 -26.5h84
q41 0 66.5 20.5t25.5 56.5v20q-78 7 -169 16v123h322zM286 -138l10 54q8 38 46 30q36 -5 50.5 -16t14.5 -36q0 -51 -39 -98q-34 -42 -56 -60l-29 22q29 48 35 90z" />
    <glyph glyph-name="gcommaaccent" unicode="&#x123;" horiz-adv-x="625" 
d="M372 675l-10 -51q-6 -36 -43 -28q-34 5 -47.5 15.5t-13.5 33.5q0 47 37 92q34 41 52 56l28 -21q-27 -43 -33 -84zM605 531v-97q-14 -3 -30 -6t-25 -5q4 -13 4 -46v-40q0 -85 -50 -121t-161 -36h-66q-48 0 -84 15q-1 0 -2 -1q-13 -8 -14 -19v-6q0 -14 14.5 -18.5
t46.5 -4.5h203q79 0 115.5 -31.5t36.5 -100.5v-20q0 -182 -248 -182h-105q-127 0 -169.5 20.5t-42.5 76.5v20q0 40 15 68t55 53q-38 23 -38 71v18q0 54 60 94q-52 37 -52 123v24q0 91 53.5 127t181.5 36h20q81 0 125 -12h157zM405 346v44q0 34 -17 45t-59 11h-16
q-46 0 -68 -11.5t-22 -44.5v-44q0 -32 21 -41.5t69 -9.5h6q23 0 36 1t26 6t18.5 15.5t5.5 28.5zM407 25h-160q-40 0 -53 1q-33 -23 -33 -49v-12q0 -25 12.5 -34t49.5 -9h140q51 0 72 11t21 39v13q0 24 -10 32t-39 8z" />
    <glyph glyph-name="Hbar" unicode="&#x126;" horiz-adv-x="794" 
d="M767 700v-119q-50 -8 -75 -10v-69h63v-35h-63v-338q60 -7 75 -10v-119h-301v119q40 6 59 8v153h-255v-153q22 -2 58 -8v-119h-301v119q14 2 76 10v338h-63v35h63v69q-26 2 -76 10v119h301v-119q-36 -6 -58 -8v-71h255v71q-19 2 -59 8v119h301zM525 467h-255v-47h255v47z
" />
    <glyph glyph-name="hbar" unicode="&#x127;" horiz-adv-x="686" 
d="M601 122l65 -10v-112h-225v312q0 62 -10 79t-50 17h-12q-47 0 -114 -45v-242q28 -3 62 -9v-112h-284v112q34 6 62 9v438h-64v91h64v70h160v-70h108v-91h-108v-104q117 88 199 88h12q135 0 135 -144v-277z" />
    <glyph glyph-name="Imacron" unicode="&#x12a;" horiz-adv-x="368" 
d="M337 857v-94h-306v94h306zM342 700v-119q-51 -8 -74 -10v-442q23 -2 74 -10v-119h-312v119q27 5 71 10v442q-27 2 -74 10v119h315z" />
    <glyph glyph-name="imacron" unicode="&#x12b;" horiz-adv-x="337" 
d="M306 696v-91h-276v91h276zM255 531v-410q28 -3 62 -9v-112h-284v112q34 6 62 9v288q-11 1 -33.5 5t-25.5 4v113h219z" />
    <glyph glyph-name="Iogonek" unicode="&#x12e;" horiz-adv-x="368" 
d="M342 700v-119q-51 -8 -74 -10v-442q23 -2 74 -10v-119h-81q-4 -4 -13 -12t-12.5 -11.5t-10 -9.5t-9 -9t-6 -7.5t-4.5 -8t-1 -7.5v-5q0 -23 30 -23q36 0 67 9l22 -45q-59 -44 -111 -44h-20q-83 0 -83 72v18q0 51 83 83h-163v119q27 5 71 10v442q-27 2 -74 10v119h315z" />
    <glyph glyph-name="iogonek" unicode="&#x12f;" horiz-adv-x="337" 
d="M170 595q-35 0 -59 21t-24 54q0 35 24 56.5t59 21.5q36 0 60 -21.5t24 -56.5q0 -33 -24 -54t-60 -21zM297 -84l22 -45q-59 -44 -111 -44h-20q-83 0 -83 72v18q0 51 83 83h-155v112q34 6 62 9v288q-11 1 -33.5 5t-25.5 4v113h219v-410q28 -3 62 -9v-112h-61q-4 -4 -13 -12
t-12.5 -11.5t-10 -9.5t-9 -9t-6 -7.5t-4.5 -8t-1 -7.5v-5q0 -23 30 -23q36 0 67 9z" />
    <glyph glyph-name="Idotaccent" unicode="&#x130;" horiz-adv-x="368" 
d="M183 754q-35 0 -59 21t-24 55t24 55.5t59 21.5q36 0 60 -21.5t24 -55.5t-24 -55t-60 -21zM342 700v-119q-51 -8 -74 -10v-442q23 -2 74 -10v-119h-312v119q27 5 71 10v442q-27 2 -74 10v119h315z" />
    <glyph glyph-name="dotlessi" unicode="&#x131;" horiz-adv-x="337" 
d="M255 531v-410q28 -3 62 -9v-112h-284v112q34 6 62 9v288q-11 1 -33.5 5t-25.5 4v113h219z" />
    <glyph glyph-name="IJ" unicode="&#x132;" horiz-adv-x="731" 
d="M342 700v-119q-51 -8 -74 -10v-442q23 -2 74 -10v-119h-312v119q27 5 71 10v442q-27 2 -74 10v119h315zM707 700v-119q-48 -8 -73 -10v-456q0 -74 -21 -116.5t-83 -95.5q-35 -28 -91 -63l-71 67q23 26 43 53q34 40 45 71.5t11 84.5v455q-25 2 -75 10v119h315z" />
    <glyph glyph-name="ij" unicode="&#x133;" horiz-adv-x="639" 
d="M174 589q-38 0 -64 22.5t-26 58.5q0 37 26 60t64 23t64 -23t26 -60q0 -36 -26 -58.5t-64 -22.5zM502 753q39 0 65 -23t26 -60q0 -36 -26 -58.5t-65 -22.5q-38 0 -64 22.5t-26 58.5q0 37 26 60t64 23zM255 531v-410q28 -3 62 -9v-112h-284v112q34 6 62 9v288
q-11 1 -33.5 5t-25.5 4v113h219zM588 531v-432q0 -66 -20 -101.5t-84 -90.5q-52 -42 -91 -66l-64 67q42 52 43 53q35 42 45.5 67t10.5 72v308q-42 6 -63 10v113h223z" />
    <glyph glyph-name="Kcommaaccent" unicode="&#x136;" horiz-adv-x="767" 
d="M342 700v-119q-51 -8 -74 -10v-156h122l112 158q-18 2 -56 8v119h295v-119q-42 -6 -62 -8l-153 -218l153 -226q48 -6 73 -10v-119h-319v119q8 1 32 2.5t26 1.5l-91 150h-132v-144q23 -2 74 -10v-119h-312v119q27 5 71 10v442q-27 2 -74 10v119h315zM321 -138l10 54
q8 38 46 30q36 -5 50.5 -16t14.5 -36q0 -51 -39 -98q-34 -42 -56 -60l-29 22q29 48 35 90z" />
    <glyph glyph-name="kcommaaccent" unicode="&#x137;" horiz-adv-x="671" 
d="M255 340h110l42 73q-6 0 -21.5 2t-24.5 3v113h280v-113q-34 -6 -62 -9l-96 -130l105 -158q13 -2 59 -9v-112h-226v111l-56 96h-110v-86q28 -3 62 -9v-112h-284v112q34 6 62 9v457q-43 7 -59 10v112h219v-360zM279 -138l10 54q8 38 46 30q36 -5 50.5 -16t14.5 -36
q0 -51 -39 -98q-34 -42 -56 -60l-29 22q29 48 35 90z" />
    <glyph glyph-name="Lacute" unicode="&#x139;" horiz-adv-x="627" 
d="M325 869v-22l-166 -110l-69 43l114 149zM30 0v119q38 6 71 10v442q-46 5 -74 10v119h338v-119q-45 -9 -97 -12v-436h205l19 101h111v-234h-573z" />
    <glyph glyph-name="lacute" unicode="&#x13a;" horiz-adv-x="342" 
d="M298 876v-22l-161 -106l-65 41l109 144zM255 700v-579q28 -3 62 -9v-112h-284v112q34 6 62 9v457q-43 7 -59 10v112h219z" />
    <glyph glyph-name="Lcommaaccent" unicode="&#x13b;" horiz-adv-x="627" 
d="M30 0v119q38 6 71 10v442q-46 5 -74 10v119h338v-119q-45 -9 -97 -12v-436h205l19 101h111v-234h-573zM252 -138l10 54q8 38 46 30q36 -5 50.5 -16t14.5 -36q0 -51 -39 -98q-34 -42 -56 -60l-29 22q29 48 35 90z" />
    <glyph glyph-name="lcommaaccent" unicode="&#x13c;" horiz-adv-x="342" 
d="M255 700v-579q28 -3 62 -9v-112h-284v112q34 6 62 9v457q-43 7 -59 10v112h219zM111 -138l10 54q8 38 46 30q36 -5 50.5 -16t14.5 -36q0 -51 -39 -98q-34 -42 -56 -60l-29 22q29 48 35 90z" />
    <glyph glyph-name="Lcaron" unicode="&#x13d;" horiz-adv-x="627" 
d="M30 0v119q38 6 71 10v442q-46 5 -74 10v119h338v-119q-45 -9 -97 -12v-436h205l19 101h111v-234h-573zM564 700v-25l-61 -167h-80l17 192h124z" />
    <glyph glyph-name="lcaron" unicode="&#x13e;" horiz-adv-x="342" 
d="M439 701v-25l-61 -167h-80l17 192h124zM255 700v-579q28 -3 62 -9v-112h-284v112q34 6 62 9v457q-43 7 -59 10v112h219z" />
    <glyph glyph-name="Ldot" unicode="&#x13f;" horiz-adv-x="627" 
d="M30 0v119q38 6 71 10v442q-46 5 -74 10v119h338v-119q-45 -9 -97 -12v-436h205l19 101h111v-234h-573zM481 332q-33 0 -55.5 19.5t-22.5 50.5q0 33 22.5 53.5t55.5 20.5q34 0 56.5 -20.5t22.5 -53.5q0 -31 -22.5 -50.5t-56.5 -19.5z" />
    <glyph glyph-name="ldot" unicode="&#x140;" horiz-adv-x="342" 
d="M255 700v-579q28 -3 62 -9v-112h-284v112q34 6 62 9v457q-43 7 -59 10v112h219zM389 285q-91 0 -91 84q0 85 91 85t91 -85q0 -84 -91 -84z" />
    <glyph glyph-name="Lslash" unicode="&#x141;" horiz-adv-x="629" 
d="M606 234v-234h-573v119q38 6 71 10v134l-79 -29v97l79 29v211q-45 5 -74 10v119h338v-119q-45 -9 -97 -12v-149l136 49v-97l-136 -49v-190h205l19 101h111z" />
    <glyph glyph-name="lslash" unicode="&#x142;" horiz-adv-x="342" 
d="M255 372v-251q28 -3 62 -9v-112h-284v112q34 6 62 9v191l-53 -20v97l53 20v169q-43 7 -59 10v112h219v-232l58 22v-96z" />
    <glyph glyph-name="Nacute" unicode="&#x143;" horiz-adv-x="795" 
d="M530 869v-22l-166 -110l-69 43l114 149zM768 700v-119q-24 -5 -75 -11v-570h-172l-271 424v-297q16 -2 58 -8v-119h-278v119q51 8 73 10v440l-76 12v119h231l288 -441v314l-60 8v119h282z" />
    <glyph glyph-name="nacute" unicode="&#x144;" horiz-adv-x="686" 
d="M471 709v-22l-161 -106l-65 41l109 144zM666 112v-112h-225v312q0 62 -10 79t-50 17h-12q-47 0 -114 -45v-242q28 -3 62 -9v-112h-284v112q34 6 62 9v288q-11 1 -33.5 5t-25.5 4v113h219v-76q117 88 199 88h12q135 0 135 -144v-277z" />
    <glyph glyph-name="Ncommaaccent" unicode="&#x145;" horiz-adv-x="795" 
d="M768 700v-119q-24 -5 -75 -11v-570h-172l-271 424v-297q16 -2 58 -8v-119h-278v119q51 8 73 10v440l-76 12v119h231l288 -441v314l-60 8v119h282zM339 -138l10 54q8 38 46 30q36 -5 50.5 -16t14.5 -36q0 -51 -39 -98q-34 -42 -56 -60l-29 22q29 48 35 90z" />
    <glyph glyph-name="ncommaaccent" unicode="&#x146;" horiz-adv-x="686" 
d="M666 112v-112h-225v312q0 62 -10 79t-50 17h-12q-47 0 -114 -45v-242q28 -3 62 -9v-112h-284v112q34 6 62 9v288q-11 1 -33.5 5t-25.5 4v113h219v-76q117 88 199 88h12q135 0 135 -144v-277zM287 -138l10 54q8 38 46 30q36 -5 50.5 -16t14.5 -36q0 -51 -39 -98
q-34 -42 -56 -60l-29 22q29 48 35 90z" />
    <glyph glyph-name="Ncaron" unicode="&#x147;" horiz-adv-x="795" 
d="M443 745h-97l-117 125l47 41l118 -82l119 82l46 -41zM768 700v-119q-24 -5 -75 -11v-570h-172l-271 424v-297q16 -2 58 -8v-119h-278v119q51 8 73 10v440l-76 12v119h231l288 -441v314l-60 8v119h282z" />
    <glyph glyph-name="ncaron" unicode="&#x148;" horiz-adv-x="686" 
d="M394 585h-97l-117 125l47 41l118 -82l119 82l46 -41zM666 112v-112h-225v312q0 62 -10 79t-50 17h-12q-47 0 -114 -45v-242q28 -3 62 -9v-112h-284v112q34 6 62 9v288q-11 1 -33.5 5t-25.5 4v113h219v-76q117 88 199 88h12q135 0 135 -144v-277z" />
    <glyph glyph-name="Omacron" unicode="&#x14c;" horiz-adv-x="703" 
d="M505 857v-94h-306v94h306zM404 -13h-98q-133 0 -200 72t-69 207v161q0 138 67 211.5t202 73.5h98q132 0 197.5 -73.5t65.5 -211.5v-160q0 -135 -66.5 -207.5t-196.5 -72.5zM316 136h70q61 0 87 26t27 92v189q0 67 -26 94t-88 27h-70q-59 0 -85.5 -29.5t-26.5 -91.5v-189
q0 -66 25.5 -92t86.5 -26z" />
    <glyph glyph-name="omacron" unicode="&#x14d;" horiz-adv-x="612" 
d="M441 696v-91h-276v91h276zM330 -13h-40q-133 0 -193 61t-60 192v44q0 135 59.5 197t193.5 62h39q131 0 188.5 -62t57.5 -197v-44q0 -131 -58 -192t-187 -61zM285 105h41q89 0 89 82v152q0 86 -89 86h-41q-88 0 -88 -86v-152q0 -82 88 -82z" />
    <glyph glyph-name="Ohungarumlaut" unicode="&#x150;" horiz-adv-x="703" 
d="M408 884v-20l-140 -119l-59 41l108 143zM575 884v-20l-139 -119l-60 41l110 143zM404 -13h-98q-133 0 -200 72t-69 207v161q0 138 67 211.5t202 73.5h98q132 0 197.5 -73.5t65.5 -211.5v-160q0 -135 -66.5 -207.5t-196.5 -72.5zM316 136h70q61 0 87 26t27 92v189
q0 67 -26 94t-88 27h-70q-59 0 -85.5 -29.5t-26.5 -91.5v-189q0 -66 25.5 -92t86.5 -26z" />
    <glyph glyph-name="ohungarumlaut" unicode="&#x151;" horiz-adv-x="612" 
d="M368 724v-20l-135 -115l-55 39l103 138zM528 724v-20l-133 -115l-57 39l105 138zM330 -13h-40q-133 0 -193 61t-60 192v44q0 135 59.5 197t193.5 62h39q131 0 188.5 -62t57.5 -197v-44q0 -131 -58 -192t-187 -61zM285 105h41q89 0 89 82v152q0 86 -89 86h-41
q-88 0 -88 -86v-152q0 -82 88 -82z" />
    <glyph glyph-name="OE" unicode="&#x152;" horiz-adv-x="969" 
d="M596 422h168v-143h-168v-146h211l19 84h105v-217h-601q-149 0 -220 60.5t-73 182.5v207q0 125 71.5 187.5t221.5 62.5h596v-217h-105l-19 84h-206v-145zM429 564h-89q-72 0 -104 -26.5t-32 -79.5v-219q0 -52 32 -77.5t104 -25.5h89v428z" />
    <glyph glyph-name="oe" unicode="&#x153;" horiz-adv-x="960" 
d="M575 194v-12q0 -79 88 -79h38q33 0 52 7.5t27 30.5l5 22h127v-107q-84 -69 -216 -69h-25q-117 0 -175 42q-58 -42 -166 -42h-40q-133 0 -193 61t-60 192v44q0 135 59.5 197t193.5 62h39q109 0 167 -43q59 43 168 43h33q118 0 174 -54t56 -168v-127h-352zM575 306h210v51
q0 37 -25.5 56t-66.5 19h-29q-42 0 -65.5 -20t-23.5 -59v-47zM415 187v152q0 86 -89 86h-41q-88 0 -88 -86v-152q0 -82 88 -82h41q89 0 89 82z" />
    <glyph glyph-name="Racute" unicode="&#x154;" horiz-adv-x="711" 
d="M490 869v-22l-166 -110l-69 43l114 149zM27 700h377q128 0 187.5 -48t59.5 -158v-54q0 -65 -25 -105t-75 -77q43 -62 71 -129q6 -1 69 -10v-119h-249v128q-25 79 -39 102h-133v-105l52 -6v-119h-292v119q51 8 73 10v441q-5 1 -31.5 4.5t-44.5 6.5v119zM270 376h132
q92 0 92 74v34q0 80 -92 80h-132v-188z" />
    <glyph glyph-name="racute" unicode="&#x155;" horiz-adv-x="473" 
d="M331 709v-22l-161 -106l-65 41l109 144zM255 531v-95q27 35 42.5 52.5t44.5 34.5t61 17h53v-149q-72 -4 -105 -7q-57 -2 -96 -42v-221l72 -9v-112h-294v112q34 6 62 9v288q-11 1 -33.5 5t-25.5 4v113h219z" />
    <glyph glyph-name="Rcommaaccent" unicode="&#x156;" horiz-adv-x="711" 
d="M27 700h377q128 0 187.5 -48t59.5 -158v-54q0 -65 -25 -105t-75 -77q43 -62 71 -129q6 -1 69 -10v-119h-249v128q-25 79 -39 102h-133v-105l52 -6v-119h-292v119q51 8 73 10v441q-5 1 -31.5 4.5t-44.5 6.5v119zM270 376h132q92 0 92 74v34q0 80 -92 80h-132v-188z
M302 -138l10 54q8 38 46 30q36 -5 50.5 -16t14.5 -36q0 -51 -39 -98q-34 -42 -56 -60l-29 22q29 48 35 90z" />
    <glyph glyph-name="rcommaaccent" unicode="&#x157;" horiz-adv-x="473" 
d="M255 531v-95q27 35 42.5 52.5t44.5 34.5t61 17h53v-149q-72 -4 -105 -7q-57 -2 -96 -42v-221l72 -9v-112h-294v112q34 6 62 9v288q-11 1 -33.5 5t-25.5 4v113h219zM108 -138l10 54q8 38 46 30q36 -5 50.5 -16t14.5 -36q0 -51 -39 -98q-34 -42 -56 -60l-29 22q29 48 35 90
z" />
    <glyph glyph-name="Rcaron" unicode="&#x158;" horiz-adv-x="711" 
d="M402 745h-97l-117 125l47 41l118 -82l119 82l46 -41zM27 700h377q128 0 187.5 -48t59.5 -158v-54q0 -65 -25 -105t-75 -77q43 -62 71 -129q6 -1 69 -10v-119h-249v128q-25 79 -39 102h-133v-105l52 -6v-119h-292v119q51 8 73 10v441q-5 1 -31.5 4.5t-44.5 6.5v119z
M270 376h132q92 0 92 74v34q0 80 -92 80h-132v-188z" />
    <glyph glyph-name="rcaron" unicode="&#x159;" horiz-adv-x="473" 
d="M254 585h-97l-117 125l47 41l118 -82l119 82l46 -41zM255 531v-95q27 35 42.5 52.5t44.5 34.5t61 17h53v-149q-72 -4 -105 -7q-57 -2 -96 -42v-221l72 -9v-112h-294v112q34 6 62 9v288q-11 1 -33.5 5t-25.5 4v113h219z" />
    <glyph glyph-name="Sacute" unicode="&#x15a;" horiz-adv-x="645" 
d="M459 869v-22l-166 -110l-69 43l114 149zM186 218l18 -85q41 -16 119 -16h16q59 0 79 13t20 52v20q0 31 -16 44.5t-67 27.5l-165 40q-88 26 -119 63.5t-31 124.5v10q0 106 60.5 153t195.5 47h33q124 0 256 -38v-195h-132l-19 89q-33 15 -100 15h-35q-47 0 -66 -13.5
t-19 -48.5v-9q0 -25 11.5 -39t38.5 -21l203 -48q77 -19 107.5 -57t30.5 -115v-43q0 -106 -60.5 -153.5t-195.5 -47.5h-46q-70 0 -119.5 10t-136.5 38v182h139z" />
    <glyph glyph-name="sacute" unicode="&#x15b;" horiz-adv-x="546" 
d="M398 709v-22l-161 -106l-65 41l109 144zM35 366v26q0 78 52.5 114.5t161.5 36.5h18q137 0 228 -34v-140h-131l-11 57q-33 11 -87 11q-88 0 -88 -44v-6q0 -21 18 -28.5t81 -18.5q44 -8 73 -13q88 -17 124.5 -49t36.5 -87v-31q0 -90 -51.5 -131.5t-159.5 -41.5h-39
q-158 0 -226 55v136h127l5 -44q12 -17 38.5 -26t50.5 -9h30q75 0 75 52v10q0 24 -28.5 35.5t-133.5 30.5q-95 17 -129.5 49.5t-34.5 89.5z" />
    <glyph glyph-name="Scedilla" unicode="&#x15e;" horiz-adv-x="645" 
d="M264 452l203 -48q77 -19 107.5 -57t30.5 -115v-43q0 -106 -60.5 -153.5t-195.5 -47.5h-38l-1 -22h40q40 0 59 -15t19 -50v-15q0 -44 -21 -59.5t-72 -16.5q-57 0 -115 15v45h110q24 0 24 21v4q0 20 -24 20h-86l11 74q-78 4 -208 47v182h139l18 -85q41 -16 119 -16h16
q59 0 79 13t20 52v20q0 31 -16 44.5t-67 27.5l-165 40q-88 26 -119 63.5t-31 124.5v10q0 106 60.5 153t195.5 47h33q124 0 256 -38v-195h-132l-19 89q-33 15 -100 15h-35q-47 0 -66 -13.5t-19 -48.5v-9q0 -25 11.5 -39t38.5 -21z" />
    <glyph glyph-name="scedilla" unicode="&#x15f;" horiz-adv-x="546" 
d="M178 393v-6q0 -21 18 -28.5t81 -18.5q44 -8 73 -13q88 -17 124.5 -49t36.5 -87v-31q0 -90 -51.5 -131.5t-159.5 -41.5h-39l-1 -21h40q40 0 59 -15t19 -50v-15q0 -44 -21 -59.5t-72 -16.5q-57 0 -115 15v45h110q24 0 24 21v4q0 20 -24 20h-86l11 74q-117 10 -170 53v136
h127l5 -44q12 -17 38.5 -26t50.5 -9h30q75 0 75 52v10q0 24 -28.5 35.5t-133.5 30.5q-95 17 -129.5 49.5t-34.5 89.5v26q0 78 52.5 114.5t161.5 36.5h18q137 0 228 -34v-140h-131l-11 57q-33 11 -87 11q-88 0 -88 -44z" />
    <glyph glyph-name="Scaron" unicode="&#x160;" horiz-adv-x="645" 
d="M372 745h-97l-117 125l47 41l118 -82l119 82l46 -41zM186 218l18 -85q41 -16 119 -16h16q59 0 79 13t20 52v20q0 31 -16 44.5t-67 27.5l-165 40q-88 26 -119 63.5t-31 124.5v10q0 106 60.5 153t195.5 47h33q124 0 256 -38v-195h-132l-19 89q-33 15 -100 15h-35
q-47 0 -66 -13.5t-19 -48.5v-9q0 -25 11.5 -39t38.5 -21l203 -48q77 -19 107.5 -57t30.5 -115v-43q0 -106 -60.5 -153.5t-195.5 -47.5h-46q-70 0 -119.5 10t-136.5 38v182h139z" />
    <glyph glyph-name="scaron" unicode="&#x161;" horiz-adv-x="546" 
d="M322 585h-97l-117 125l47 41l118 -82l119 82l46 -41zM35 366v26q0 78 52.5 114.5t161.5 36.5h18q137 0 228 -34v-140h-131l-11 57q-33 11 -87 11q-88 0 -88 -44v-6q0 -21 18 -28.5t81 -18.5q44 -8 73 -13q88 -17 124.5 -49t36.5 -87v-31q0 -90 -51.5 -131.5t-159.5 -41.5
h-39q-158 0 -226 55v136h127l5 -44q12 -17 38.5 -26t50.5 -9h30q75 0 75 52v10q0 24 -28.5 35.5t-133.5 30.5q-95 17 -129.5 49.5t-34.5 89.5z" />
    <glyph glyph-name="Tcaron" unicode="&#x164;" horiz-adv-x="694" 
d="M396 745h-97l-117 125l47 41l118 -82l119 82l46 -41zM559 471l-10 92h-118v-434q44 -4 83 -10v-119h-331v119q14 2 47 6t34 4v434h-119l-10 -92h-115v229h654v-229h-115z" />
    <glyph glyph-name="tcaron" unicode="&#x165;" horiz-adv-x="438" 
d="M449 767v-25l-61 -167h-80l17 192h124zM299 123h10q62 0 96 1v-88q-32 -21 -83 -35t-97 -14h-12q-62 0 -95 37t-33 108v281h-63v118h47q18 0 24 5.5t6 22.5v107q82 11 146 14v-149h150v-118h-150v-204q0 -54 9.5 -70t44.5 -16z" />
    <glyph glyph-name="Umacron" unicode="&#x16a;" horiz-adv-x="751" 
d="M538 857v-94h-306v94h306zM728 700v-119q-12 -2 -35 -5t-27 -4v-312q0 -140 -62 -206.5t-194 -66.5h-51q-135 0 -199 66.5t-64 206.5v311q-46 6 -73 10v119h319v-119q-35 -7 -79 -10v-334q0 -51 28 -82t78 -31h37q50 0 78 31t28 82v336q-20 2 -62 8v119h278z" />
    <glyph glyph-name="umacron" unicode="&#x16b;" horiz-adv-x="681" 
d="M464 696v-91h-276v91h276zM597 531v-409q19 -2 63 -9v-112h-223v77q-3 -2 -23.5 -14t-27.5 -16t-26 -14t-30 -14t-28 -10t-32.5 -8t-30.5 -2h-13q-74 0 -104 32t-30 112v265q-49 7 -65 9v113h225v-300q0 -62 9.5 -78.5t49.5 -16.5h12q47 0 114 44v229q-34 5 -65 9v113
h225z" />
    <glyph glyph-name="Uring" unicode="&#x16e;" horiz-adv-x="751" 
d="M404 729h-39q-41 0 -64 22t-23 64v28q0 86 87 86h39q42 0 64.5 -22.5t22.5 -63.5v-28q0 -86 -87 -86zM371 787h26q28 0 31 30v24q0 33 -31 33h-26q-31 0 -31 -33v-24q0 -30 31 -30zM728 700v-119q-12 -2 -35 -5t-27 -4v-312q0 -140 -62 -206.5t-194 -66.5h-51
q-135 0 -199 66.5t-64 206.5v311q-46 6 -73 10v119h319v-119q-35 -7 -79 -10v-334q0 -51 28 -82t78 -31h37q50 0 78 31t28 82v336q-20 2 -62 8v119h278z" />
    <glyph glyph-name="uring" unicode="&#x16f;" horiz-adv-x="681" 
d="M347 584h-37q-38 0 -59 20.5t-21 59.5v25q0 80 80 80h37q39 0 59.5 -21t20.5 -59v-25q0 -39 -21 -59.5t-59 -20.5zM316 637h24q27 0 30 29v22q0 31 -30 31h-24q-29 0 -29 -31v-22q0 -29 29 -29zM597 531v-409q19 -2 63 -9v-112h-223v77q-3 -2 -23.5 -14t-27.5 -16
t-26 -14t-30 -14t-28 -10t-32.5 -8t-30.5 -2h-13q-74 0 -104 32t-30 112v265q-49 7 -65 9v113h225v-300q0 -62 9.5 -78.5t49.5 -16.5h12q47 0 114 44v229q-34 5 -65 9v113h225z" />
    <glyph glyph-name="Uhungarumlaut" unicode="&#x170;" horiz-adv-x="751" 
d="M440 884v-20l-140 -119l-59 41l108 143zM607 884v-20l-139 -119l-60 41l110 143zM728 700v-119q-12 -2 -35 -5t-27 -4v-312q0 -140 -62 -206.5t-194 -66.5h-51q-135 0 -199 66.5t-64 206.5v311q-46 6 -73 10v119h319v-119q-35 -7 -79 -10v-334q0 -51 28 -82t78 -31h37
q50 0 78 31t28 82v336q-20 2 -62 8v119h278z" />
    <glyph glyph-name="uhungarumlaut" unicode="&#x171;" horiz-adv-x="681" 
d="M391 724v-20l-135 -115l-55 39l103 138zM551 724v-20l-133 -115l-57 39l105 138zM597 531v-409q19 -2 63 -9v-112h-223v77q-3 -2 -23.5 -14t-27.5 -16t-26 -14t-30 -14t-28 -10t-32.5 -8t-30.5 -2h-13q-74 0 -104 32t-30 112v265q-49 7 -65 9v113h225v-300
q0 -62 9.5 -78.5t49.5 -16.5h12q47 0 114 44v229q-34 5 -65 9v113h225z" />
    <glyph glyph-name="Uogonek" unicode="&#x172;" horiz-adv-x="751" 
d="M728 700v-119q-12 -2 -35 -5t-27 -4v-312q0 -136 -58 -202.5t-181 -70.5q-13 -12 -17.5 -16.5t-12 -12.5t-10 -13t-2.5 -10v-5q0 -23 30 -23q36 0 67 9l22 -45q-59 -44 -111 -44h-20q-83 0 -83 72v18q0 41 55 70q-128 4 -188.5 70.5t-60.5 202.5v311q-46 6 -73 10v119
h319v-119q-35 -7 -79 -10v-334q0 -51 28 -82t78 -31h37q50 0 78 31t28 82v336q-20 2 -62 8v119h278z" />
    <glyph glyph-name="uogonek" unicode="&#x173;" horiz-adv-x="681" 
d="M660 1h-84q-5 -4 -14 -12t-12.5 -11.5l-10 -10t-9 -9.5t-6 -7.5t-4.5 -8t-1 -7.5v-5q0 -23 30 -23q36 0 67 9l22 -45q-59 -44 -111 -44h-20q-83 0 -83 72v18q0 52 86 84h-73v77q-3 -2 -23.5 -14t-27.5 -16t-26 -14t-30 -14t-28 -10t-32.5 -8t-30.5 -2h-13q-74 0 -104 32
t-30 112v265q-49 7 -65 9v113h225v-300q0 -62 9.5 -78.5t49.5 -16.5h12q47 0 114 44v229q-34 5 -65 9v113h225v-409q19 -2 63 -9v-112z" />
    <glyph glyph-name="Wcircumflex" unicode="&#x174;" horiz-adv-x="1009" 
d="M640 741l-123 85l-122 -85l-49 43l120 130h103l120 -130zM1000 700v-119q-33 -6 -60 -9l-149 -572h-200l-76 392h-3l-79 -392h-222l-146 573q-12 1 -57 8v119h309v-119q-25 -3 -73 -8l79 -378h13l112 505h130l115 -501h13l85 374q-53 5 -72 8v119h281z" />
    <glyph glyph-name="wcircumflex" unicode="&#x175;" horiz-adv-x="892" 
d="M565 585l-119 82l-118 -82l-47 41l117 125h97l116 -125zM879 531v-113q-49 -7 -58 -8l-109 -410h-190l-78 277l-83 -277h-183l-109 410l-56 8v113h250v-113l-50 -6l60 -265h2l109 384h122l116 -384h1l64 263q-9 1 -58 8v113h250z" />
    <glyph glyph-name="Ycircumflex" unicode="&#x176;" horiz-adv-x="714" 
d="M483 741l-123 85l-122 -85l-49 43l120 130h103l120 -130zM307 700v-119q-34 -4 -50 -5l103 -213h5l102 211q-36 4 -56 7v119h288v-119q-25 -5 -73 -11l-190 -328v-113q25 -2 73 -10v-119h-311v119q27 5 71 10v106l-190 337q-30 3 -64 9v119h292z" />
    <glyph glyph-name="ycircumflex" unicode="&#x177;" horiz-adv-x="671" 
d="M453 585l-119 82l-118 -82l-47 41l117 125h97l116 -125zM661 531v-113q-21 -4 -73 -11l-207 -468q16 0 54 -4v-112h-310v112q32 3 103 6l24 49l-185 420q-14 2 -57 8v113h299v-113q-47 -6 -77 -8l99 -263h3l116 263q-5 0 -57 8v113h268z" />
    <glyph glyph-name="Ydieresis" unicode="&#x178;" horiz-adv-x="714" 
d="M250 757q-34 0 -57.5 20.5t-23.5 52.5q0 33 23 53.5t58 20.5t58 -20.5t23 -53.5q0 -32 -23.5 -52.5t-57.5 -20.5zM471 757q-34 0 -57 20.5t-23 52.5q0 33 23 53.5t57 20.5q35 0 58.5 -20.5t23.5 -53.5q0 -32 -23.5 -52.5t-58.5 -20.5zM307 700v-119q-34 -4 -50 -5
l103 -213h5l102 211q-36 4 -56 7v119h288v-119q-25 -5 -73 -11l-190 -328v-113q25 -2 73 -10v-119h-311v119q27 5 71 10v106l-190 337q-30 3 -64 9v119h292z" />
    <glyph glyph-name="Zacute" unicode="&#x179;" horiz-adv-x="629" 
d="M453 869v-22l-166 -110l-69 43l114 149zM596 586l-345 -457h214l20 115h116v-244h-571v103q0 22 16 42l349 428h-229l-21 -103h-115v230h566v-114z" />
    <glyph glyph-name="zacute" unicode="&#x17a;" horiz-adv-x="563" 
d="M420 709v-22l-161 -106l-65 41l109 144zM531 418l-305 -299h197l21 78h89l-2 -197h-504v99q0 29 26 49l288 268h-194l-10 -69h-90v184h484v-113z" />
    <glyph glyph-name="Zdotaccent" unicode="&#x17b;" horiz-adv-x="629" 
d="M315 754q-35 0 -59 21t-24 55t24 55.5t59 21.5q36 0 60 -21.5t24 -55.5t-24 -55t-60 -21zM596 586l-345 -457h214l20 115h116v-244h-571v103q0 22 16 42l349 428h-229l-21 -103h-115v230h566v-114z" />
    <glyph glyph-name="zdotaccent" unicode="&#x17c;" horiz-adv-x="563" 
d="M289 595q-35 0 -59 21t-24 54q0 35 24 56.5t59 21.5q36 0 60 -21.5t24 -56.5q0 -33 -24 -54t-60 -21zM531 418l-305 -299h197l21 78h89l-2 -197h-504v99q0 29 26 49l288 268h-194l-10 -69h-90v184h484v-113z" />
    <glyph glyph-name="Zcaron" unicode="&#x17d;" horiz-adv-x="629" 
d="M365 745h-97l-117 125l47 41l118 -82l119 82l46 -41zM596 586l-345 -457h214l20 115h116v-244h-571v103q0 22 16 42l349 428h-229l-21 -103h-115v230h566v-114z" />
    <glyph glyph-name="zcaron" unicode="&#x17e;" horiz-adv-x="563" 
d="M339 585h-97l-117 125l47 41l118 -82l119 82l46 -41zM531 418l-305 -299h197l21 78h89l-2 -197h-504v99q0 29 26 49l288 268h-194l-10 -69h-90v184h484v-113z" />
    <glyph glyph-name="florin" unicode="&#x192;" horiz-adv-x="506" 
d="M463 451v-124h-141l-30 -192q-12 -71 -42 -105t-94 -47q-23 -5 -44 -7t-46.5 -2.5t-33.5 -0.5l-19 87q27 7 49 13q34 10 44 21t16 36l31 197h-69v110q63 8 89 11l17 108q12 72 41.5 106t93.5 47q32 6 154 19l14 -110q-30 -8 -78 -22q-34 -10 -44.5 -21t-15.5 -36l-13 -88
h121z" />
    <glyph glyph-name="Scommaaccent" unicode="&#x218;" horiz-adv-x="645" 
d="M186 218l18 -85q41 -16 119 -16h16q59 0 79 13t20 52v20q0 31 -16 44.5t-67 27.5l-165 40q-88 26 -119 63.5t-31 124.5v10q0 106 60.5 153t195.5 47h33q124 0 256 -38v-195h-132l-19 89q-33 15 -100 15h-35q-47 0 -66 -13.5t-19 -48.5v-9q0 -25 11.5 -39t38.5 -21
l203 -48q77 -19 107.5 -57t30.5 -115v-43q0 -106 -60.5 -153.5t-195.5 -47.5h-46q-70 0 -119.5 10t-136.5 38v182h139zM265 -138l10 54q8 38 46 30q36 -5 50.5 -16t14.5 -36q0 -51 -39 -98q-34 -42 -56 -60l-29 22q29 48 35 90z" />
    <glyph glyph-name="scommaaccent" unicode="&#x219;" horiz-adv-x="546" 
d="M35 366v26q0 78 52.5 114.5t161.5 36.5h18q137 0 228 -34v-140h-131l-11 57q-33 11 -87 11q-88 0 -88 -44v-6q0 -21 18 -28.5t81 -18.5q44 -8 73 -13q88 -17 124.5 -49t36.5 -87v-31q0 -90 -51.5 -131.5t-159.5 -41.5h-39q-158 0 -226 55v136h127l5 -44q12 -17 38.5 -26
t50.5 -9h30q75 0 75 52v10q0 24 -28.5 35.5t-133.5 30.5q-95 17 -129.5 49.5t-34.5 89.5zM215 -138l10 54q8 38 46 30q36 -5 50.5 -16t14.5 -36q0 -51 -39 -98q-34 -42 -56 -60l-29 22q29 48 35 90z" />
    <glyph glyph-name="uni021A" unicode="&#x21a;" horiz-adv-x="694" 
d="M559 471l-10 92h-118v-434q44 -4 83 -10v-119h-331v119q14 2 47 6t34 4v434h-119l-10 -92h-115v229h654v-229h-115zM289 -138l10 54q8 38 46 30q36 -5 50.5 -16t14.5 -36q0 -51 -39 -98q-34 -42 -56 -60l-29 22q29 48 35 90z" />
    <glyph glyph-name="uni021B" unicode="&#x21b;" horiz-adv-x="438" 
d="M299 123h10q62 0 96 1v-88q-32 -21 -83 -35t-97 -14h-12q-62 0 -95 37t-33 108v281h-63v118h47q18 0 24 5.5t6 22.5v107q82 11 146 14v-149h150v-118h-150v-204q0 -54 9.5 -70t44.5 -16zM157 -138l10 54q8 38 46 30q36 -5 50.5 -16t14.5 -36q0 -51 -39 -98
q-34 -42 -56 -60l-29 22q29 48 35 90z" />
    <glyph glyph-name="circumflex" unicode="&#x2c6;" 
d="M368 585l-119 82l-118 -82l-47 41l117 125h97l116 -125z" />
    <glyph glyph-name="caron" unicode="&#x2c7;" 
d="M299 585h-97l-117 125l47 41l118 -82l119 82l46 -41z" />
    <glyph glyph-name="breve" unicode="&#x2d8;" 
d="M404 737v-23q0 -60 -41 -95.5t-113 -35.5q-73 0 -114 35.5t-41 95.5v23h88v-5q0 -54 67 -54t67 54v5h87z" />
    <glyph glyph-name="dotaccent" unicode="&#x2d9;" 
d="M249 595q-35 0 -59 21t-24 54q0 35 24 56.5t59 21.5q36 0 60 -21.5t24 -56.5q0 -33 -24 -54t-60 -21z" />
    <glyph glyph-name="ring" unicode="&#x2da;" 
d="M268 577h-37q-38 0 -59 20.5t-21 59.5v25q0 80 80 80h37q39 0 59.5 -21t20.5 -59v-25q0 -39 -21 -59.5t-59 -20.5zM237 630h24q27 0 30 29v22q0 31 -30 31h-24q-29 0 -29 -31v-22q0 -29 29 -29z" />
    <glyph glyph-name="ogonek" unicode="&#x2db;" 
d="M256 8h54q-7 -7 -21 -19t-19 -17t-12.5 -13t-10 -13.5t-2.5 -10.5v-5q0 -23 30 -23q36 0 67 9l22 -45q-59 -44 -111 -44h-20q-83 0 -83 72v18q0 58 106 91z" />
    <glyph glyph-name="tilde" unicode="&#x2dc;" 
d="M440 701l-73 -80q-24 -24 -58 -24q-11 0 -25 6.5t-24 14t-29.5 22.5t-30.5 23l-89 -61l-46 41l71 79q24 27 59 27q14 0 29.5 -7t26 -15t28.5 -22.5t26 -20.5l89 58z" />
    <glyph glyph-name="hungarumlaut" unicode="&#x2dd;" 
d="M265 724v-20l-135 -115l-55 39l103 138zM425 724v-20l-133 -115l-57 39l105 138z" />
    <glyph glyph-name="commaaccentcomb" unicode="&#x326;" horiz-adv-x="0" 
d="M184 -138l10 54q8 38 46 30q36 -5 50.5 -16t14.5 -36q0 -51 -39 -98q-34 -42 -56 -60l-29 22q29 48 35 90z" />
    <glyph glyph-name="Wgrave" unicode="&#x1e80;" horiz-adv-x="1009" 
d="M603 781l-65 -41l-161 106v22l117 57zM1000 700v-119q-33 -6 -60 -9l-149 -572h-200l-76 392h-3l-79 -392h-222l-146 573q-12 1 -57 8v119h309v-119q-25 -3 -73 -8l79 -378h13l112 505h130l115 -501h13l85 374q-53 5 -72 8v119h281z" />
    <glyph glyph-name="wgrave" unicode="&#x1e81;" horiz-adv-x="892" 
d="M529 622l-65 -41l-161 106v22l117 57zM879 531v-113q-49 -7 -58 -8l-109 -410h-190l-78 277l-83 -277h-183l-109 410l-56 8v113h250v-113l-50 -6l60 -265h2l109 384h122l116 -384h1l64 263q-9 1 -58 8v113h250z" />
    <glyph glyph-name="Wacute" unicode="&#x1e82;" horiz-adv-x="1009" 
d="M654 869v-22l-166 -110l-69 43l114 149zM1000 700v-119q-33 -6 -60 -9l-149 -572h-200l-76 392h-3l-79 -392h-222l-146 573q-12 1 -57 8v119h309v-119q-25 -3 -73 -8l79 -378h13l112 505h130l115 -501h13l85 374q-53 5 -72 8v119h281z" />
    <glyph glyph-name="wacute" unicode="&#x1e83;" horiz-adv-x="892" 
d="M576 709v-22l-161 -106l-65 41l109 144zM879 531v-113q-49 -7 -58 -8l-109 -410h-190l-78 277l-83 -277h-183l-109 410l-56 8v113h250v-113l-50 -6l60 -265h2l109 384h122l116 -384h1l64 263q-9 1 -58 8v113h250z" />
    <glyph glyph-name="Wdieresis" unicode="&#x1e84;" horiz-adv-x="1009" 
d="M407 757q-34 0 -57.5 20.5t-23.5 52.5q0 33 23 53.5t58 20.5t58 -20.5t23 -53.5q0 -32 -23.5 -52.5t-57.5 -20.5zM628 757q-34 0 -57 20.5t-23 52.5q0 33 23 53.5t57 20.5q35 0 58.5 -20.5t23.5 -53.5q0 -32 -23.5 -52.5t-58.5 -20.5zM1000 700v-119q-33 -6 -60 -9
l-149 -572h-200l-76 392h-3l-79 -392h-222l-146 573q-12 1 -57 8v119h309v-119q-25 -3 -73 -8l79 -378h13l112 505h130l115 -501h13l85 374q-53 5 -72 8v119h281z" />
    <glyph glyph-name="wdieresis" unicode="&#x1e85;" horiz-adv-x="892" 
d="M344 604q-32 0 -53.5 18.5t-21.5 47.5q0 30 21.5 49t53.5 19q31 0 52.5 -19t21.5 -49q0 -29 -21.5 -47.5t-52.5 -18.5zM549 604q-31 0 -52 18.5t-21 47.5q0 30 21 49t52 19q32 0 53.5 -19t21.5 -49q0 -29 -21.5 -47.5t-53.5 -18.5zM879 531v-113q-49 -7 -58 -8l-109 -410
h-190l-78 277l-83 -277h-183l-109 410l-56 8v113h250v-113l-50 -6l60 -265h2l109 384h122l116 -384h1l64 263q-9 1 -58 8v113h250z" />
    <glyph glyph-name="Ygrave" unicode="&#x1ef2;" horiz-adv-x="714" 
d="M447 781l-65 -41l-161 106v22l117 57zM307 700v-119q-34 -4 -50 -5l103 -213h5l102 211q-36 4 -56 7v119h288v-119q-25 -5 -73 -11l-190 -328v-113q25 -2 73 -10v-119h-311v119q27 5 71 10v106l-190 337q-30 3 -64 9v119h292z" />
    <glyph glyph-name="ygrave" unicode="&#x1ef3;" horiz-adv-x="671" 
d="M418 622l-65 -41l-161 106v22l117 57zM661 531v-113q-21 -4 -73 -11l-207 -468q16 0 54 -4v-112h-310v112q32 3 103 6l24 49l-185 420q-14 2 -57 8v113h299v-113q-47 -6 -77 -8l99 -263h3l116 263q-5 0 -57 8v113h268z" />
    <glyph glyph-name="uni2009" unicode="&#x2009;" horiz-adv-x="80" 
 />
    <glyph glyph-name="uni200A" unicode="&#x200a;" horiz-adv-x="420" 
 />
    <glyph glyph-name="endash" unicode="&#x2013;" horiz-adv-x="466" 
d="M433 371v-124h-400v124h400z" />
    <glyph glyph-name="emdash" unicode="&#x2014;" horiz-adv-x="679" 
d="M646 371v-124h-613v124h613z" />
    <glyph glyph-name="quoteleft" unicode="&#x2018;" horiz-adv-x="219" 
d="M187 552l-19 -88q-9 -50 -62 -41q-47 7 -67.5 22t-20.5 48q0 98 127 214l40 -29q-33 -64 -40 -108z" />
    <glyph glyph-name="quoteright" unicode="&#x2019;" horiz-adv-x="219" 
d="M26 579l19 88q9 50 62 41q47 -7 67.5 -22t20.5 -48q0 -98 -127 -214l-40 29q33 64 40 108z" />
    <glyph glyph-name="quotesinglbase" unicode="&#x201a;" horiz-adv-x="235" 
d="M27 18l19 90q11 52 64 43q49 -8 70 -23.5t21 -49.5q0 -101 -131 -221l-41 30q34 66 41 112z" />
    <glyph glyph-name="quotedblleft" unicode="&#x201c;" horiz-adv-x="409" 
d="M190 548l-19 -90q-11 -52 -64 -43q-49 8 -70 23.5t-21 49.5q0 101 131 221l41 -30q-34 -66 -41 -112zM378 548l-19 -90q-11 -52 -64 -43q-49 8 -70 23.5t-21 49.5q0 101 131 221l41 -30q-34 -66 -41 -112z" />
    <glyph glyph-name="quotedblright" unicode="&#x201d;" horiz-adv-x="409" 
d="M22 575l19 90q11 52 64 43q49 -8 70 -23.5t21 -49.5q0 -101 -131 -221l-41 30q34 66 41 112zM210 575l19 90q11 52 64 43q49 -8 70 -23.5t21 -49.5q0 -101 -131 -221l-41 30q34 66 41 112z" />
    <glyph glyph-name="quotedblbase" unicode="&#x201e;" horiz-adv-x="417" 
d="M27 18l19 90q11 52 64 43q49 -8 70 -23.5t21 -49.5q0 -101 -131 -221l-41 30q34 66 41 112zM217 18l19 90q11 52 64 43q49 -8 70 -23.5t21 -49.5q0 -101 -131 -221l-41 30q34 66 41 112z" />
    <glyph glyph-name="dagger" unicode="&#x2020;" horiz-adv-x="419" 
d="M399 453h-58l-111 37l37 -102v-43l-46 -309h-23l-47 309v43l38 103l-112 -38h-57v116h57l111 -37l-37 110v58h116v-58l-37 -110l111 37h58v-116z" />
    <glyph glyph-name="daggerdbl" unicode="&#x2021;" horiz-adv-x="419" 
d="M230 490l37 -102v-51l-37 -102l111 37h58v-116h-58l-111 37l37 -110v-58h-116v58l37 111l-111 -38h-57v116h57l112 -37l-38 102v51l38 103l-112 -38h-57v116h57l111 -37l-37 110v58h116v-58l-37 -110l111 37h58v-116h-58z" />
    <glyph glyph-name="bullet" unicode="&#x2022;" horiz-adv-x="321" 
d="M206 149q-112 0 -165.5 49t-53.5 152q0 105 53.5 155t165.5 50q110 0 164 -50.5t54 -154.5q0 -102 -54 -151.5t-164 -49.5z" />
    <glyph glyph-name="ellipsis" unicode="&#x2026;" horiz-adv-x="682" 
d="M118 163q91 0 91 -85q0 -84 -91 -84t-91 84q0 85 91 85zM341 163q91 0 91 -85q0 -84 -91 -84t-91 84q0 85 91 85zM565 163q91 0 91 -85q0 -84 -91 -84t-91 84q0 85 91 85z" />
    <glyph glyph-name="perthousand" unicode="&#x2030;" horiz-adv-x="1386" 
d="M269 -14h-62l257 363l232 370h62l-260 -370zM192 713h69q87 -1 121 -40t34 -132v-85q-1 -92 -35 -130.5t-120 -38.5h-69q-88 0 -123 38.5t-36 130.5v85q0 94 35 133t124 39zM249 613h-49q-33 0 -44.5 -16t-11.5 -55v-86q0 -38 11.5 -53.5t44.5 -15.5h49q32 0 43.5 15.5
t12.5 53.5v86q0 39 -11.5 55t-44.5 16zM712 413h69q87 -1 121 -40t34 -132v-85q-1 -92 -35 -130.5t-120 -38.5h-69q-88 0 -123 38.5t-36 130.5v85q0 94 35 133t124 39zM1198 -13h-69q-89 0 -123.5 38.5t-36.5 130.5v85q0 94 35 133t125 39h69q87 -1 121 -40t34 -132v-85
q-2 -92 -35.5 -130.5t-119.5 -38.5zM769 313h-49q-33 0 -44.5 -16t-11.5 -55v-86q0 -38 11.5 -53.5t44.5 -15.5h49q32 0 43.5 15.5t12.5 53.5v86q0 39 -11.5 55t-44.5 16zM1136 87h50q32 0 43.5 15.5t12.5 53.5v86q0 39 -11.5 55t-44.5 16h-50q-33 0 -44.5 -16t-11.5 -55
v-86q0 -38 11.5 -53.5t44.5 -15.5z" />
    <glyph glyph-name="guilsinglleft" unicode="&#x2039;" horiz-adv-x="307" 
d="M177 260l100 -152v-49h-98l-152 201v10l152 201h98v-50l-100 -151v-10z" />
    <glyph glyph-name="guilsinglright" unicode="&#x203a;" horiz-adv-x="307" 
d="M126 270l-100 151v50h98l152 -201v-10l-152 -201h-98v49l100 152v10z" />
    <glyph glyph-name="fraction" unicode="&#x2044;" horiz-adv-x="231" 
d="M394 719l-260 -370l-229 -363h-62l257 363l232 370h62z" />
    <glyph glyph-name="zeroinferior" unicode="&#x2080;" horiz-adv-x="435" 
d="M246 -127h-66q-83 0 -117.5 34.5t-36.5 118.5v112q0 85 35 121t119 36h66q82 -1 115.5 -36.5t33.5 -120.5v-112q-2 -83 -35.5 -118t-113.5 -35zM198 -42h25q33 0 46.5 15.5t13.5 53.5v112q0 38 -13.5 54t-46.5 16h-25q-33 0 -46.5 -16t-13.5 -54v-112q0 -38 13.5 -53.5
t46.5 -15.5z" />
    <glyph glyph-name="oneinferior" unicode="&#x2081;" horiz-adv-x="335" 
d="M237 296v-334q45 -4 70 -7v-78h-272v78q43 7 85 8v239l-91 -12v70l141 36h67z" />
    <glyph glyph-name="twoinferior" unicode="&#x2082;" horiz-adv-x="404" 
d="M365 -123h-335v77q0 60 14 92t51 47q35 15 99 30q40 11 54 20t14 25v9q0 19 -9 25.5t-37 6.5q-56 0 -82 -7l-8 -39h-83v110q61 15 93 19t86 4q79 0 112 -24.5t33 -90.5v-31q0 -70 -90 -97q-3 -1 -37.5 -10.5t-42.5 -12.5q-44 -13 -53.5 -23.5t-9.5 -47.5h149l9 53h73
v-135z" />
    <glyph glyph-name="threeinferior" unicode="&#x2083;" horiz-adv-x="388" 
d="M352 183v-14q0 -78 -60 -97q32 -5 46 -21.5t14 -54.5v-11q0 -62 -36 -87t-124 -25q-80 0 -172 18v112h78l8 -40q43 -6 88 -6q30 0 41 9t11 32v10q0 23 -12.5 31.5t-41.5 8.5h-85v73h86q29 0 41 8t12 30v11q0 24 -11 32.5t-41 8.5q-42 0 -89 -7l-8 -39h-74v111
q94 20 169 20q91 0 125.5 -24t34.5 -89z" />
    <glyph glyph-name="fourinferior" unicode="&#x2084;" horiz-adv-x="436" 
d="M337 -3v-39q20 -1 65 -7v-74h-253v74q50 6 71 8v37h-210v80l210 214h117v-214h66v-71zM104 76h116v135z" />
    <glyph glyph-name="fiveinferior" unicode="&#x2085;" horiz-adv-x="412" 
d="M362 166h-74l-5 37h-141l-4 -88q50 17 89 17h32q60 0 88.5 -24t28.5 -86v-30q0 -119 -146 -119h-19q-71 0 -181 20v114h74l5 -44q38 -6 77 -6h26q54 1 54 44v22q0 23 -9 33t-31 10h-30q-40 0 -74 -26l-85 23l8 224h317v-121z" />
    <glyph glyph-name="sixinferior" unicode="&#x2086;" horiz-adv-x="434" 
d="M240 128h37q64 0 92.5 -28t28.5 -87v-13q0 -127 -153 -127h-43q-175 0 -175 163v94q0 81 43 125t120 44h21q64 0 167 -20v-113h-91l-12 37q-33 6 -67 6q-68 0 -68 -71v-25q61 15 100 15zM140 42v-29q0 -56 68 -54h32q51 0 51 46v16q0 43 -43 43h-30q-34 0 -78 -22z" />
    <glyph glyph-name="seveninferior" unicode="&#x2087;" horiz-adv-x="367" 
d="M357 203l-152 -326h-135v18l175 308h-149l-13 -49h-73v133h347v-84z" />
    <glyph glyph-name="eightinferior" unicode="&#x2088;" horiz-adv-x="434" 
d="M384 188v-15q0 -68 -60 -85q77 -16 77 -90v-10q0 -63 -35 -89t-117 -26h-63q-85 0 -121.5 26t-37.5 89v10q0 73 80 90q-62 16 -62 85v15q1 57 35 82t110 25h54q74 0 107 -25t33 -82zM146 178v-18q0 -20 11.5 -28.5t38.5 -8.5h39q26 0 37 8.5t11 28.5v18q0 40 -50 40h-36
q-27 0 -39 -9t-12 -31zM289 -4v17q0 22 -12 32t-38 10h-47q-28 0 -40 -10t-12 -32v-17q0 -23 12.5 -32.5t42.5 -8.5h40q29 0 41.5 9.5t12.5 31.5z" />
    <glyph glyph-name="nineinferior" unicode="&#x2089;" horiz-adv-x="422" 
d="M179 31h-35q-64 0 -92 25t-28 85v39q0 119 144 119h55q85 0 125 -37.5t41 -120.5v-103q0 -165 -164 -165h-16q-59 0 -164 20v102h92l6 -36q27 -7 68 -7q68 0 68 72v38q-43 -31 -100 -31zM279 127v39q0 50 -68 48h-33q-27 0 -38.5 -11t-11.5 -35v-12q0 -25 10 -36t33 -11
h27q53 0 81 18z" />
    <glyph glyph-name="Euro" unicode="&#x20ac;" horiz-adv-x="622" 
d="M466 500l-6 64q-34 15 -118 15q-51 0 -84 -34.5t-33 -88.5v-17h225l-15 -66h-210v-46h196l-15 -66h-181v-34q1 -105 107 -103h25q83 0 113 69h116v-108q-102 -98 -221 -98h-51q-255 0 -255 236v38h-52v66h51v46h-51v66h51v9q0 128 70 196t197 68h24q126 0 236 -35v-177
h-119z" />
    <glyph glyph-name="uni2116" unicode="&#x2116;" horiz-adv-x="1344" 
d="M1010 704h42q107 0 156 -52t49 -168v-53q0 -113 -49 -164t-155 -51h-43q-109 0 -159.5 51t-50.5 164v53q0 116 50 168t160 52zM768 700v-119q-24 -5 -75 -11v-570h-172l-271 424v-297q16 -2 58 -8v-119h-278v119q51 8 73 10v440l-76 12v119h231l288 -441v314l-60 8v119
h282zM1048 589h-40q-38 0 -54 -20t-16 -63v-93q0 -41 15.5 -57.5t54.5 -16.5h40q40 0 56 16.5t16 57.5v93q0 43 -16.5 63t-55.5 20zM1248 0h-444v125h444v-125z" />
    <glyph glyph-name="trademark" unicode="&#x2122;" horiz-adv-x="697" 
d="M284 599h-47l-7 41h-43v-148q24 -2 37 -4v-59h-145v59q12 2 34 4v148h-43l-7 -41h-46v101h267v-101zM680 700v-55q-5 0 -15.5 -1.5t-16.5 -2.5v-149q20 -2 31 -4v-59h-129v59l25 3v138l-67 -200h-45l-68 200v-138l25 -3v-59h-122v59q11 2 33 4v149q-22 2 -34 4v55h127
l61 -161h2l60 161h133z" />
    <glyph glyph-name="oneeighth" unicode="&#x215b;" horiz-adv-x="871" 
d="M682 719l-260 -370l-229 -363h-62l257 363l232 370h62zM240 709v-334q45 -4 70 -7v-78h-272v78q43 7 85 8v239l-91 -12v70l141 36h67zM824 311v-15q0 -68 -60 -85q77 -17 77 -90v-10q0 -63 -35 -89t-117 -26h-63q-85 0 -121.5 26t-37.5 89v10q0 73 80 90q-62 15 -62 85
v15q1 57 35 82t110 25h54q74 0 107 -25t33 -82zM586 301v-18q0 -20 11.5 -28.5t38.5 -8.5h39q26 0 37 8.5t11 28.5v18q0 40 -50 40h-36q-27 0 -39 -9t-12 -31zM729 119v17q0 22 -12 32t-38 10h-47q-28 0 -40 -10t-12 -32v-17q0 -23 12.5 -32.5t42.5 -8.5h40q29 0 41.5 9.5
t12.5 31.5z" />
    <glyph glyph-name="threeeighths" unicode="&#x215c;" horiz-adv-x="900" 
d="M709 719l-260 -370l-229 -363h-62l257 363l232 370h62zM355 596v-14q0 -78 -60 -97q32 -5 46 -21.5t14 -54.5v-11q0 -62 -36 -87t-124 -25q-80 0 -172 18v112h78l8 -40q43 -6 88 -6q30 0 41 9t11 32v10q0 23 -12.5 31.5t-41.5 8.5h-85v73h86q29 0 41 8t12 30v11
q0 24 -11 32.5t-41 8.5q-42 0 -89 -7l-8 -39h-74v111q94 20 169 20q91 0 125.5 -24t34.5 -89zM852 311v-15q0 -68 -60 -85q77 -17 77 -90v-10q0 -63 -35 -89t-117 -26h-63q-85 0 -121.5 26t-37.5 89v10q0 73 80 90q-62 15 -62 85v15q1 57 35 82t110 25h54q74 0 107 -25
t33 -82zM614 301v-18q0 -20 11.5 -28.5t38.5 -8.5h39q26 0 37 8.5t11 28.5v18q0 40 -50 40h-36q-27 0 -39 -9t-12 -31zM757 119v17q0 22 -12 32t-38 10h-47q-28 0 -40 -10t-12 -32v-17q0 -23 12.5 -32.5t42.5 -8.5h40q29 0 41.5 9.5t12.5 31.5z" />
    <glyph glyph-name="fiveeighths" unicode="&#x215d;" horiz-adv-x="909" 
d="M719 719l-260 -370l-229 -363h-62l257 363l232 370h62zM365 700v-121h-74l-5 37h-141l-4 -88q50 17 89 17h32q60 0 88.5 -24t28.5 -86v-30q0 -119 -146 -119h-19q-71 0 -181 20v114h74l5 -44q38 -6 77 -6h26q54 2 54 44v22q0 23 -9 33t-31 10h-30q-40 0 -74 -26l-85 23
l8 224h317zM862 311v-15q0 -68 -60 -85q77 -17 77 -90v-10q0 -63 -35 -89t-117 -26h-63q-85 0 -121.5 26t-37.5 89v10q0 73 80 90q-62 15 -62 85v15q1 57 35 82t110 25h54q74 0 107 -25t33 -82zM624 301v-18q0 -20 11.5 -28.5t38.5 -8.5h39q26 0 37 8.5t11 28.5v18
q0 40 -50 40h-36q-27 0 -39 -9t-12 -31zM767 119v17q0 22 -12 32t-38 10h-47q-28 0 -40 -10t-12 -32v-17q0 -23 12.5 -32.5t42.5 -8.5h40q29 0 41.5 9.5t12.5 31.5z" />
    <glyph glyph-name="seveneighths" unicode="&#x215e;" horiz-adv-x="817" 
d="M623 719l-260 -370l-229 -363h-62l257 363l232 370h62zM357 616l-152 -326h-135v18l175 308h-149l-13 -49h-73v133h347v-84zM770 311v-15q0 -68 -60 -85q77 -17 77 -90v-10q0 -63 -35 -89t-117 -26h-63q-85 0 -121.5 26t-37.5 89v10q0 73 80 90q-62 15 -62 85v15
q1 57 35 82t110 25h54q74 0 107 -25t33 -82zM532 301v-18q0 -20 11.5 -28.5t38.5 -8.5h39q26 0 37 8.5t11 28.5v18q0 40 -50 40h-36q-27 0 -39 -9t-12 -31zM675 119v17q0 22 -12 32t-38 10h-47q-28 0 -40 -10t-12 -32v-17q0 -23 12.5 -32.5t42.5 -8.5h40q29 0 41.5 9.5
t12.5 31.5z" />
    <glyph glyph-name="arrowleft" unicode="&#x2190;" horiz-adv-x="755" 
d="M738 282h-481l206 -195l-96 -95l-340 341v44l340 341l96 -96l-202 -192h477v-148z" />
    <glyph glyph-name="arrowup" unicode="&#x2191;" horiz-adv-x="779" 
d="M766 371l-96 -96l-195 206v-481h-148v478l-192 -203l-95 96l341 340h44z" />
    <glyph glyph-name="arrowright" unicode="&#x2192;" horiz-adv-x="755" 
d="M494 430l-202 192l95 96l341 -341v-44l-341 -341l-95 95l205 195h-480v148h477z" />
    <glyph glyph-name="arrowdown" unicode="&#x2193;" horiz-adv-x="779" 
d="M412 -11h-44l-341 340l95 96l192 -203v478h148v-481l195 206l96 -96z" />
    <glyph glyph-name="arrowupleft" unicode="&#x2196;" horiz-adv-x="662" 
d="M271 472l358 -357l-105 -105l-360 360l8 -283h-135v482l31 31h482v-135z" />
    <glyph glyph-name="arrowupright" unicode="&#x2197;" horiz-adv-x="662" 
d="M112 451v135h482l31 -31v-482h-135l8 283l-360 -360l-105 105l358 357z" />
    <glyph glyph-name="arrowdownright" unicode="&#x2198;" horiz-adv-x="662" 
d="M391 128l-358 357l105 105l360 -360l-8 283h135v-482l-31 -31h-482v135z" />
    <glyph glyph-name="arrowdownleft" unicode="&#x2199;" horiz-adv-x="662" 
d="M550 135v-135h-482l-31 31v482h135l-8 -283l360 360l105 -105l-358 -357z" />
    <glyph glyph-name="minus" unicode="&#x2212;" horiz-adv-x="585" 
d="M37 414h511v-131h-511v131z" />
    <glyph glyph-name="J.ss01" horiz-adv-x="578" 
d="M557 700v-119q-51 -8 -74 -10v-301q0 -158 -51 -219.5t-167 -61.5h-28q-133 0 -224 76v128h146q11 -39 28 -54t54 -15h12q41 0 52 24.5t11 87.5v335q-77 6 -101 10v119h342z" />
    <glyph glyph-name="K.ss02" horiz-adv-x="767" 
d="M484 401l179 -273q73 -6 89 -9v-119h-299v106q7 1 21 2.5t20 1.5l-124 199l-102 -96v-84q23 -2 74 -10v-119h-312v119q27 5 71 10v442q-27 2 -74 10v119h315v-119q-51 -8 -74 -10v-213l231 216q-5 1 -34 3t-39 4v119h315v-119q-20 -3 -58 -7z" />
    <glyph glyph-name="Kcommaaccent.ss02" horiz-adv-x="767" 
d="M484 401l179 -273q73 -6 89 -9v-119h-299v106q7 1 21 2.5t20 1.5l-124 199l-102 -96v-84q23 -2 74 -10v-119h-312v119q27 5 71 10v442q-27 2 -74 10v119h315v-119q-51 -8 -74 -10v-213l231 216q-5 1 -34 3t-39 4v119h315v-119q-20 -3 -58 -7zM328 -138l10 54q8 38 46 30
q36 -5 50.5 -16t14.5 -36q0 -51 -39 -98q-34 -42 -56 -60l-29 22q29 48 35 90z" />
    <glyph glyph-name="Q.ss03" horiz-adv-x="703" 
d="M300 712h111q121 0 188.5 -74t67.5 -205v-173q0 -82 -25.5 -144.5t-73.5 -89.5q18 -29 87 -110l-71 -67q-119 80 -171 139q-4 0 -14 -0.5t-15 -0.5h-84q-124 0 -193.5 72t-69.5 201v173q0 131 69.5 205t193.5 74zM393 569h-83q-48 0 -77 -34.5t-29 -91.5v-189
q0 -56 29 -89.5t77 -33.5h83q48 0 77.5 34t29.5 89v189q0 57 -29.5 91.5t-77.5 34.5z" />
    <glyph glyph-name="R.ss04" horiz-adv-x="721" 
d="M27 700h394q127 0 181.5 -47.5t54.5 -158.5v-47q0 -167 -142 -177q35 -66 94 -142q3 0 39 -3.5t53 -5.5v-119h-198q-83 117 -133 270h-48v113h94q46 0 59.5 13.5t15.5 50.5v37q0 80 -92 80h-129v-438q41 -4 58 -7v-119h-298v119q21 3 73 10v441q-5 1 -31.5 4.5t-44.5 6.5
v119z" />
    <glyph glyph-name="Racute.ss04" horiz-adv-x="721" 
d="M501 869v-22l-166 -110l-69 43l114 149zM27 700h394q127 0 181.5 -47.5t54.5 -158.5v-47q0 -167 -142 -177q35 -66 94 -142q3 0 39 -3.5t53 -5.5v-119h-198q-83 117 -133 270h-48v113h94q46 0 59.5 13.5t15.5 50.5v37q0 80 -92 80h-129v-438q41 -4 58 -7v-119h-298v119
q21 3 73 10v441q-5 1 -31.5 4.5t-44.5 6.5v119z" />
    <glyph glyph-name="Rcaron.ss04" horiz-adv-x="721" 
d="M414 745h-97l-117 125l47 41l118 -82l119 82l46 -41zM27 700h394q127 0 181.5 -47.5t54.5 -158.5v-47q0 -167 -142 -177q35 -66 94 -142q3 0 39 -3.5t53 -5.5v-119h-198q-83 117 -133 270h-48v113h94q46 0 59.5 13.5t15.5 50.5v37q0 80 -92 80h-129v-438q41 -4 58 -7
v-119h-298v119q21 3 73 10v441q-5 1 -31.5 4.5t-44.5 6.5v119z" />
    <glyph glyph-name="Rcommaaccent.ss04" horiz-adv-x="721" 
d="M27 700h394q127 0 181.5 -47.5t54.5 -158.5v-47q0 -167 -142 -177q35 -66 94 -142q3 0 39 -3.5t53 -5.5v-119h-198q-83 117 -133 270h-48v113h94q46 0 59.5 13.5t15.5 50.5v37q0 80 -92 80h-129v-438q41 -4 58 -7v-119h-298v119q21 3 73 10v441q-5 1 -31.5 4.5t-44.5 6.5
v119zM307 -138l10 54q8 38 46 30q36 -5 50.5 -16t14.5 -36q0 -51 -39 -98q-34 -42 -56 -60l-29 22q29 48 35 90z" />
    <glyph glyph-name="a.ss05" horiz-adv-x="619" 
d="M599 531v-113q-43 -7 -62 -9v-287q19 -2 62 -9v-113h-222v59q-3 -2 -22 -13t-24.5 -14l-22 -12t-26 -12t-24.5 -8t-29 -6.5t-29 -1.5h-16q-68 0 -107.5 47.5t-39.5 148.5v182q0 83 42.5 124t111.5 41h16q50 0 83.5 -11t86.5 -39v46h222zM264 128h14q44 0 99 36v218
q-32 15 -50 19.5t-49 4.5h-15q-38 0 -52 -21t-14 -82v-70q0 -63 13.5 -84t53.5 -21z" />
    <glyph glyph-name="aacute.ss05" horiz-adv-x="619" 
d="M430 709v-22l-161 -106l-65 41l109 144zM599 531v-113q-43 -7 -62 -9v-287q19 -2 62 -9v-113h-222v59q-3 -2 -22 -13t-24.5 -14l-22 -12t-26 -12t-24.5 -8t-29 -6.5t-29 -1.5h-16q-68 0 -107.5 47.5t-39.5 148.5v182q0 83 42.5 124t111.5 41h16q50 0 83.5 -11t86.5 -39
v46h222zM264 128h14q44 0 99 36v218q-32 15 -50 19.5t-49 4.5h-15q-38 0 -52 -21t-14 -82v-70q0 -63 13.5 -84t53.5 -21z" />
    <glyph glyph-name="abreve.ss05" horiz-adv-x="619" 
d="M462 737v-23q0 -60 -41 -95.5t-113 -35.5q-73 0 -114 35.5t-41 95.5v23h88v-5q0 -54 67 -54t67 54v5h87zM599 531v-113q-43 -7 -62 -9v-287q19 -2 62 -9v-113h-222v59q-3 -2 -22 -13t-24.5 -14l-22 -12t-26 -12t-24.5 -8t-29 -6.5t-29 -1.5h-16q-68 0 -107.5 47.5
t-39.5 148.5v182q0 83 42.5 124t111.5 41h16q50 0 83.5 -11t86.5 -39v46h222zM264 128h14q44 0 99 36v218q-32 15 -50 19.5t-49 4.5h-15q-38 0 -52 -21t-14 -82v-70q0 -63 13.5 -84t53.5 -21z" />
    <glyph glyph-name="acircumflex.ss05" horiz-adv-x="619" 
d="M426 585l-119 82l-118 -82l-47 41l117 125h97l116 -125zM599 531v-113q-43 -7 -62 -9v-287q19 -2 62 -9v-113h-222v59q-3 -2 -22 -13t-24.5 -14l-22 -12t-26 -12t-24.5 -8t-29 -6.5t-29 -1.5h-16q-68 0 -107.5 47.5t-39.5 148.5v182q0 83 42.5 124t111.5 41h16
q50 0 83.5 -11t86.5 -39v46h222zM264 128h14q44 0 99 36v218q-32 15 -50 19.5t-49 4.5h-15q-38 0 -52 -21t-14 -82v-70q0 -63 13.5 -84t53.5 -21z" />
    <glyph glyph-name="adieresis.ss05" horiz-adv-x="619" 
d="M205 604q-32 0 -53.5 18.5t-21.5 47.5q0 30 21.5 49t53.5 19q31 0 52.5 -19t21.5 -49q0 -29 -21.5 -47.5t-52.5 -18.5zM410 604q-31 0 -52 18.5t-21 47.5q0 30 21 49t52 19q32 0 53.5 -19t21.5 -49q0 -29 -21.5 -47.5t-53.5 -18.5zM599 531v-113q-43 -7 -62 -9v-287
q19 -2 62 -9v-113h-222v59q-3 -2 -22 -13t-24.5 -14l-22 -12t-26 -12t-24.5 -8t-29 -6.5t-29 -1.5h-16q-68 0 -107.5 47.5t-39.5 148.5v182q0 83 42.5 124t111.5 41h16q50 0 83.5 -11t86.5 -39v46h222zM264 128h14q44 0 99 36v218q-32 15 -50 19.5t-49 4.5h-15
q-38 0 -52 -21t-14 -82v-70q0 -63 13.5 -84t53.5 -21z" />
    <glyph glyph-name="agrave.ss05" horiz-adv-x="619" 
d="M404 622l-65 -41l-161 106v22l117 57zM599 531v-113q-43 -7 -62 -9v-287q19 -2 62 -9v-113h-222v59q-3 -2 -22 -13t-24.5 -14l-22 -12t-26 -12t-24.5 -8t-29 -6.5t-29 -1.5h-16q-68 0 -107.5 47.5t-39.5 148.5v182q0 83 42.5 124t111.5 41h16q50 0 83.5 -11t86.5 -39v46
h222zM264 128h14q44 0 99 36v218q-32 15 -50 19.5t-49 4.5h-15q-38 0 -52 -21t-14 -82v-70q0 -63 13.5 -84t53.5 -21z" />
    <glyph glyph-name="amacron.ss05" horiz-adv-x="619" 
d="M442 696v-91h-276v91h276zM599 531v-113q-43 -7 -62 -9v-287q19 -2 62 -9v-113h-222v59q-3 -2 -22 -13t-24.5 -14l-22 -12t-26 -12t-24.5 -8t-29 -6.5t-29 -1.5h-16q-68 0 -107.5 47.5t-39.5 148.5v182q0 83 42.5 124t111.5 41h16q50 0 83.5 -11t86.5 -39v46h222z
M264 128h14q44 0 99 36v218q-32 15 -50 19.5t-49 4.5h-15q-38 0 -52 -21t-14 -82v-70q0 -63 13.5 -84t53.5 -21z" />
    <glyph glyph-name="aogonek.ss05" horiz-adv-x="619" 
d="M599 531v-113q-43 -7 -62 -9v-287q19 -2 62 -9v-113h-86q-4 -4 -13 -12t-12.5 -11.5t-10 -9.5t-9 -9t-6 -7.5t-4.5 -8t-1 -7.5v-5q0 -23 30 -23q36 0 67 9l22 -45q-59 -44 -111 -44h-20q-83 0 -83 72v18q0 51 83 83h-68v59q-3 -2 -22 -13t-24.5 -14l-22 -12t-26 -12
t-24.5 -8t-29 -6.5t-29 -1.5h-16q-68 0 -107.5 47.5t-39.5 148.5v182q0 83 42.5 124t111.5 41h16q50 0 83.5 -11t86.5 -39v46h222zM377 164v218q-32 15 -50 19.5t-49 4.5h-15q-38 0 -52 -21t-14 -82v-70q0 -63 13.5 -84t53.5 -21h14q44 0 99 36z" />
    <glyph glyph-name="aring.ss05" horiz-adv-x="619" 
d="M326 584h-37q-38 0 -59 20.5t-21 59.5v25q0 80 80 80h37q39 0 59.5 -21t20.5 -59v-25q0 -39 -21 -59.5t-59 -20.5zM295 637h24q27 0 30 29v22q0 31 -30 31h-24q-29 0 -29 -31v-22q0 -29 29 -29zM599 531v-113q-43 -7 -62 -9v-287q19 -2 62 -9v-113h-222v59q-3 -2 -22 -13
t-24.5 -14l-22 -12t-26 -12t-24.5 -8t-29 -6.5t-29 -1.5h-16q-68 0 -107.5 47.5t-39.5 148.5v182q0 83 42.5 124t111.5 41h16q50 0 83.5 -11t86.5 -39v46h222zM264 128h14q44 0 99 36v218q-32 15 -50 19.5t-49 4.5h-15q-38 0 -52 -21t-14 -82v-70q0 -63 13.5 -84t53.5 -21z
" />
    <glyph glyph-name="atilde.ss05" horiz-adv-x="619" 
d="M489 701l-73 -80q-24 -24 -58 -24q-11 0 -25 6.5t-24 14t-29.5 22.5t-30.5 23l-89 -61l-46 41l71 79q24 27 59 27q14 0 29.5 -7t26 -15t28.5 -22.5t26 -20.5l89 58zM599 531v-113q-43 -7 -62 -9v-287q19 -2 62 -9v-113h-222v59q-3 -2 -22 -13t-24.5 -14l-22 -12t-26 -12
t-24.5 -8t-29 -6.5t-29 -1.5h-16q-68 0 -107.5 47.5t-39.5 148.5v182q0 83 42.5 124t111.5 41h16q50 0 83.5 -11t86.5 -39v46h222zM264 128h14q44 0 99 36v218q-32 15 -50 19.5t-49 4.5h-15q-38 0 -52 -21t-14 -82v-70q0 -63 13.5 -84t53.5 -21z" />
    <glyph glyph-name="g.ss06" horiz-adv-x="612" 
d="M595 531v-113q-8 -1 -26 -3.5t-27 -4.5v-392q0 -100 -57 -150.5t-167 -50.5h-52q-126 0 -210 69v97h130l4 -16q18 -35 79 -35h37q76 0 76 79v66q-88 -56 -189 -56h-16q-74 0 -107 36.5t-33 117.5v200q0 84 41 124.5t110 40.5h16q35 0 68.5 -9t54 -18.5t55.5 -28.5v47h213
zM262 156h15q53 0 105 32v194q-52 28 -107 28h-15q-36 0 -49.5 -21t-13.5 -81v-59q0 -54 13 -73.5t52 -19.5z" />
    <glyph glyph-name="gbreve.ss06" horiz-adv-x="612" 
d="M456 737v-23q0 -60 -41 -95.5t-113 -35.5q-73 0 -114 35.5t-41 95.5v23h88v-5q0 -54 67 -54t67 54v5h87zM595 531v-113q-8 -1 -26 -3.5t-27 -4.5v-392q0 -100 -57 -150.5t-167 -50.5h-52q-126 0 -210 69v97h130l4 -16q18 -35 79 -35h37q76 0 76 79v66q-88 -56 -189 -56
h-16q-74 0 -107 36.5t-33 117.5v200q0 84 41 124.5t110 40.5h16q35 0 68.5 -9t54 -18.5t55.5 -28.5v47h213zM262 156h15q53 0 105 32v194q-52 28 -107 28h-15q-36 0 -49.5 -21t-13.5 -81v-59q0 -54 13 -73.5t52 -19.5z" />
    <glyph glyph-name="gcommaaccent.ss06" horiz-adv-x="612" 
d="M351 678l-9 -51q-8 -34 -43 -28q-34 5 -47.5 15.5t-13.5 33.5q0 48 36 92q34 41 53 56l27 -20q-28 -47 -33 -85zM595 531v-113q-8 -1 -26 -3.5t-27 -4.5v-392q0 -100 -57 -150.5t-167 -50.5h-52q-126 0 -210 69v97h130l4 -16q18 -35 79 -35h37q76 0 76 79v66
q-88 -56 -189 -56h-16q-74 0 -107 36.5t-33 117.5v200q0 84 41 124.5t110 40.5h16q35 0 68.5 -9t54 -18.5t55.5 -28.5v47h213zM262 156h15q53 0 105 32v194q-52 28 -107 28h-15q-36 0 -49.5 -21t-13.5 -81v-59q0 -54 13 -73.5t52 -19.5z" />
    <glyph glyph-name="gdotaccent.ss06" horiz-adv-x="612" 
d="M301 595q-35 0 -59 21t-24 54q0 35 24 56.5t59 21.5q36 0 60 -21.5t24 -56.5q0 -33 -24 -54t-60 -21zM595 531v-113q-8 -1 -26 -3.5t-27 -4.5v-392q0 -100 -57 -150.5t-167 -50.5h-52q-126 0 -210 69v97h130l4 -16q18 -35 79 -35h37q76 0 76 79v66q-88 -56 -189 -56h-16
q-74 0 -107 36.5t-33 117.5v200q0 84 41 124.5t110 40.5h16q35 0 68.5 -9t54 -18.5t55.5 -28.5v47h213zM262 156h15q53 0 105 32v194q-52 28 -107 28h-15q-36 0 -49.5 -21t-13.5 -81v-59q0 -54 13 -73.5t52 -19.5z" />
    <glyph glyph-name="k.ss07" horiz-adv-x="671" 
d="M255 700v-405l164 115q-9 1 -58 8v113h280v-113l-60 -8l-133 -97l140 -192q13 -2 59 -9v-112h-226v109l-96 129l-70 -51v-66q28 -3 62 -9v-112h-284v112q34 6 62 9v457q-43 7 -59 10v112h219z" />
    <glyph glyph-name="kcommaaccent.ss07" horiz-adv-x="671" 
d="M255 295l164 115q-9 1 -58 8v113h280v-113l-60 -8l-133 -97l140 -192q13 -2 59 -9v-112h-226v109l-96 129l-70 -51v-66q28 -3 62 -9v-112h-284v112q34 6 62 9v457q-43 7 -59 10v112h219v-405zM279 -138l10 54q8 38 46 30q36 -5 50.5 -16t14.5 -36q0 -51 -39 -98
q-34 -42 -56 -60l-29 22q29 48 35 90z" />
    <glyph glyph-name="y.ss08" horiz-adv-x="634" 
d="M597 531v-503q0 -211 -224 -211h-32q-146 0 -230 69v97h130l4 -16q18 -35 99 -35h17q76 0 76 89v39q-113 -39 -189 -39h-16q-74 0 -107 36.5t-33 117.5v234q-28 3 -65 9v113h225v-282q0 -54 13 -73.5t52 -19.5h15q53 0 105 32v221l-65 9v113h225z" />
    <glyph glyph-name="yacute.ss08" horiz-adv-x="634" 
d="M452 709v-22l-161 -106l-65 41l109 144zM597 531v-503q0 -211 -224 -211h-32q-146 0 -230 69v97h130l4 -16q18 -35 99 -35h17q76 0 76 89v39q-113 -39 -189 -39h-16q-74 0 -107 36.5t-33 117.5v234q-28 3 -65 9v113h225v-282q0 -54 13 -73.5t52 -19.5h15q53 0 105 32v221
l-65 9v113h225z" />
    <glyph glyph-name="ycircumflex.ss08" horiz-adv-x="634" 
d="M447 585l-119 82l-118 -82l-47 41l117 125h97l116 -125zM597 531v-503q0 -211 -224 -211h-32q-146 0 -230 69v97h130l4 -16q18 -35 99 -35h17q76 0 76 89v39q-113 -39 -189 -39h-16q-74 0 -107 36.5t-33 117.5v234q-28 3 -65 9v113h225v-282q0 -54 13 -73.5t52 -19.5h15
q53 0 105 32v221l-65 9v113h225z" />
    <glyph glyph-name="ydieresis.ss08" horiz-adv-x="634" 
d="M226 604q-32 0 -53.5 18.5t-21.5 47.5q0 30 21.5 49t53.5 19q31 0 52.5 -19t21.5 -49q0 -29 -21.5 -47.5t-52.5 -18.5zM431 604q-31 0 -52 18.5t-21 47.5q0 30 21 49t52 19q32 0 53.5 -19t21.5 -49q0 -29 -21.5 -47.5t-53.5 -18.5zM597 531v-503q0 -211 -224 -211h-32
q-146 0 -230 69v97h130l4 -16q18 -35 99 -35h17q76 0 76 89v39q-113 -39 -189 -39h-16q-74 0 -107 36.5t-33 117.5v234q-28 3 -65 9v113h225v-282q0 -54 13 -73.5t52 -19.5h15q53 0 105 32v221l-65 9v113h225z" />
    <glyph glyph-name="ygrave.ss08" horiz-adv-x="634" 
d="M408 622l-65 -41l-161 106v22l117 57zM597 531v-503q0 -211 -224 -211h-32q-146 0 -230 69v97h130l4 -16q18 -35 99 -35h17q76 0 76 89v39q-113 -39 -189 -39h-16q-74 0 -107 36.5t-33 117.5v234q-28 3 -65 9v113h225v-282q0 -54 13 -73.5t52 -19.5h15q53 0 105 32v221
l-65 9v113h225z" />
    <glyph glyph-name="i.dot" horiz-adv-x="337" 
d="M170 595q-35 0 -59 21t-24 54q0 35 24 56.5t59 21.5q36 0 60 -21.5t24 -56.5q0 -33 -24 -54t-60 -21zM255 531v-410q28 -3 62 -9v-112h-284v112q34 6 62 9v288q-11 1 -33.5 5t-25.5 4v113h219z" />
    <glyph glyph-name="f_f_f" horiz-adv-x="1185" 
d="M1012 414v-290q42 -4 85 -12v-112h-307v112q3 1 62 9v293h-218v-290q42 -4 85 -12v-112h-307v112q3 1 62 9v293h-219v-290q42 -4 85 -12v-112h-307v112q3 1 62 9v293h-68v103q53 7 68 8v51q0 60 34.5 100.5t97.5 52.5q31 5 148 19l14 -110q-5 -1 -39.5 -8t-57.5 -14
q-37 -10 -37 -57v-28h219v45q0 60 34.5 100.5t97.5 52.5q31 5 148 19l14 -110q-5 -1 -39.5 -8t-57.5 -14q-37 -10 -37 -57v-28h218v45q0 60 34.5 100.5t97.5 52.5q31 5 148 19l14 -110q-5 -1 -39.5 -8t-57.5 -14q-37 -10 -37 -57v-28h151v-117h-151z" />
    <glyph glyph-name="f_f_j" horiz-adv-x="1050" 
d="M914 589q-38 0 -64.5 22.5t-26.5 58.5q0 37 26 60t65 23q38 0 64 -23t26 -60q0 -36 -26 -58.5t-64 -22.5zM999 531v-432q0 -66 -20.5 -104t-83.5 -91q-35 -28 -91 -63l-64 67q24 28 43 53q33 40 44.5 68t11.5 71v314h-205v-290q42 -4 85 -12v-112h-307v112q3 1 62 9v293
h-219v-290q42 -4 85 -12v-112h-307v112q3 1 62 9v293h-68v103q53 7 68 8v51q0 60 34.5 100.5t97.5 52.5q31 5 148 19l14 -110q-5 -1 -39.5 -8t-57.5 -14q-37 -10 -37 -57v-28h219v45q0 60 34.5 100.5t97.5 52.5q31 5 148 19l14 -110q-5 -1 -39.5 -8t-57.5 -14
q-37 -10 -37 -57v-28h365z" />
    <glyph glyph-name="f_f_t" horiz-adv-x="1170" 
d="M1030 123h10q62 0 96 1v-88q-32 -21 -83 -35t-97 -14h-12q-62 0 -95 37t-33 108v280h-182v-288q42 -4 85 -12v-112h-307v112q3 1 62 9v293h-219v-290q42 -4 85 -12v-112h-307v112q3 1 62 9v293h-68v103q53 7 68 8v51q0 60 34.5 100.5t97.5 52.5q31 5 148 19l14 -110
q-5 -1 -39.5 -8t-57.5 -14q-37 -10 -37 -57v-28h219v45q0 60 34.5 100.5t97.5 52.5q31 5 148 19l14 -110q-5 -1 -39.5 -8t-57.5 -14q-37 -10 -37 -57v-28h166q18 0 24 5.5t6 22.5v107q82 11 146 14v-149h150v-118h-150v-204q0 -54 9.5 -70t44.5 -16z" />
    <glyph glyph-name="f_i" horiz-adv-x="702" 
d="M540 589q-38 0 -64.5 22.5t-26.5 58.5q0 37 26 60t65 23q38 0 64 -23t26 -60q0 -36 -26 -58.5t-64 -22.5zM621 531v-408q43 -6 61 -11v-112h-283v112q23 5 62 11v291h-206v-290q42 -4 85 -12v-112h-307v112q3 1 62 9v293h-68v103q53 7 68 8v51q0 60 34.5 100.5t97.5 52.5
q31 5 148 19l14 -110q-5 -1 -39.5 -8t-57.5 -14q-37 -10 -37 -57v-28h366z" />
    <glyph glyph-name="f_j" horiz-adv-x="671" 
d="M535 589q-38 0 -64 22.5t-26 58.5q0 37 26 60t64 23t64 -23t26 -60q0 -36 -26 -58.5t-64 -22.5zM621 531v-432q0 -65 -20.5 -103.5t-84.5 -91.5q-29 -24 -90 -63l-65 67q25 29 44 53q32 40 44 68.5t12 70.5v314h-206v-290q42 -4 85 -12v-112h-307v112q3 1 62 9v293h-68
v103q53 7 68 8v51q0 60 34.5 100.5t97.5 52.5q31 5 148 19l14 -110q-5 -1 -39.5 -8t-57.5 -14q-37 -10 -37 -57v-28h366z" />
    <glyph glyph-name="f_l" horiz-adv-x="750" 
d="M255 414v-290q42 -4 85 -12v-112h-307v112q3 1 62 9v293h-68v103q53 7 68 8v51q0 60 34.5 100.5t97.5 52.5q31 5 148 19l14 -110q-5 -1 -39.5 -8t-57.5 -14q-37 -10 -37 -57v-28h151v-117h-151zM663 700v-579q28 -3 62 -9v-112h-284v112q34 6 62 9v457q-43 7 -59 10v112
h219z" />
    <glyph glyph-name="f_t" horiz-adv-x="792" 
d="M652 123h10q62 0 96 1v-88q-32 -21 -83 -35t-97 -14h-12q-62 0 -95 37t-33 108v280h-183v-288q42 -4 85 -12v-112h-307v112q3 1 62 9v293h-68v103q53 7 68 8v51q0 60 34.5 100.5t97.5 52.5q31 5 148 19l14 -110q-5 -1 -39.5 -8t-57.5 -14q-37 -10 -37 -57v-28h167
q18 0 24 5.5t6 22.5v107q82 11 146 14v-149h150v-118h-150v-204q0 -54 9.5 -70t44.5 -16z" />
    <glyph glyph-name="three.ss09" horiz-adv-x="555" 
d="M507 700v-135l-167 -168h34q87 0 116 -36t29 -132v-57q0 -95 -52.5 -137t-169.5 -42h-17q-107 0 -253 29v167h112l12 -62q47 -10 79 -10h51q48 0 64.5 14.5t16.5 55.5v36q0 49 -15 61t-76 12h-96l-37 75l192 190h-286v139h463z" />
    <glyph glyph-name="zero.tf" horiz-adv-x="623" 
d="M339 -13h-48q-139 0 -200 59.5t-63 199.5v201q0 143 60.5 204t202.5 61h47q139 0 198 -61t59 -204v-200q-3 -140 -62 -200t-194 -60zM301 124h20q55 0 80.5 26t26.5 84v229q0 59 -25.5 86t-81.5 27h-20q-56 0 -81 -27t-25 -86v-229q0 -58 25 -84t81 -26z" />
    <glyph glyph-name="one.tf" horiz-adv-x="623" 
d="M401 707v-574q103 -5 147 -14v-119h-469v119q57 11 155 14v419l-125 -13v120l201 48h91z" />
    <glyph glyph-name="two.tf" horiz-adv-x="623" 
d="M566 207v-207h-507v117q0 72 11 112.5t31 61.5t63 45q42 24 161 75q46 20 64 34.5t18 36.5v28q0 41 -16 55t-61 14q-72 0 -114 -16l-11 -59h-126v168q92 24 143 32t124 8q119 0 170.5 -48.5t51.5 -160.5v-28q0 -78 -32.5 -109t-132.5 -71q-16 -7 -50.5 -20.5t-56.5 -23
t-35 -17.5q-25 -16 -31.5 -36t-6.5 -75h219l12 84h112z" />
    <glyph glyph-name="three.tf" horiz-adv-x="623" 
d="M566 528v-36q0 -70 -20.5 -104t-62.5 -44q42 -9 62.5 -39.5t20.5 -95.5v-37q0 -98 -54.5 -138.5t-184.5 -40.5q-120 0 -267 29v167h113l11 -62q71 -10 142 -10q50 0 66.5 14t16.5 56v29q0 52 -25 62.5t-123 10.5h-83v122h83q99 0 123.5 11.5t24.5 68.5v21q0 41 -18 56.5
t-65 15.5q-55 0 -137 -12l-11 -67h-113v171q156 33 262 33q132 0 185.5 -41t53.5 -140z" />
    <glyph glyph-name="four.tf" horiz-adv-x="623" 
d="M10 315l329 385h167v-385h91v-107l-91 -13v-71q49 -5 92 -12v-112h-355v112q59 10 96 12v71h-329v120zM153 315h186v226z" />
    <glyph glyph-name="five.tf" horiz-adv-x="623" 
d="M529 521h-111l-6 52h-218l-8 -164q66 32 136 32h54q86 0 130.5 -35t44.5 -121v-106q0 -101 -54 -145.5t-180 -44.5q-120 0 -288 33v164h112l12 -63q76 -9 148 -9q53 0 73 17t20 60v72q0 29 -15 44.5t-43 15.5h-56q-33 0 -54.5 -9.5t-52.5 -32.5l-128 36l13 383h471v-179z
" />
    <glyph glyph-name="six.tf" horiz-adv-x="623" 
d="M361 437h44q104 0 147.5 -38.5t43.5 -130.5v-90q0 -98 -58.5 -142t-178.5 -44h-63q-134 0 -201 62.5t-68 195.5v193q0 269 277 269q69 0 119.5 -7t140.5 -25v-168h-139l-19 51q-54 12 -101 12q-111 0 -111 -119v-72q6 3 26.5 12t31 13t29.5 10.5t38.5 10.5t41.5 7z
M194 284v-59q0 -104 106 -102h57q82 2 82 79v44q0 39 -17.5 56t-57.5 17h-32q-74 0 -138 -35z" />
    <glyph glyph-name="seven.tf" horiz-adv-x="623" 
d="M581 573l-240 -573h-198v28l280 545h-251l-19 -82h-112v209h540v-127z" />
    <glyph glyph-name="eight.tf" horiz-adv-x="623" 
d="M570 537v-45q0 -59 -22.5 -92.5t-74.5 -46.5q67 -13 96.5 -50t29.5 -105v-17q0 -101 -56 -147.5t-180 -46.5h-93q-128 0 -186 46.5t-60 147.5v17q0 68 30.5 104.5t99.5 49.5q-54 14 -77.5 47.5t-23.5 92.5v45q2 89 55.5 130t171.5 41h72q115 0 166.5 -41t51.5 -130z
M201 522v-40q0 -36 20 -52t64 -16h55q43 0 62.5 16t19.5 52v40q0 36 -19 52t-62 17h-56q-44 0 -64 -16t-20 -53zM432 198v37q0 36 -20 53t-65 17h-68q-46 0 -67 -17t-21 -53v-37q0 -39 21 -57.5t67 -18.5h68q44 0 64.5 18.5t20.5 57.5z" />
    <glyph glyph-name="nine.tf" horiz-adv-x="623" 
d="M260 264h-44q-104 0 -147.5 38.5t-43.5 129.5v90q0 92 58 141t166 49h90q134 0 194 -63t62 -199v-195q0 -140 -67.5 -203t-217.5 -63q-43 0 -84 4.5t-70 9.5t-97 19v172h153l5 -55q55 -13 92 -13q63 0 91 26.5t28 88.5v63q-7 -2 -23.5 -9t-24.5 -10t-24.5 -8t-29 -7
t-30 -4t-36.5 -2zM428 410v66q0 52 -25.5 77t-81.5 24h-57q-82 0 -82 -79v-43q0 -39 17.5 -56t57.5 -17h33q85 0 138 28z" />
    <glyph glyph-name="zero.dnom" horiz-adv-x="435" 
d="M253 -4h-66q-83 0 -117.5 34.5t-36.5 118.5v112q0 85 35 121t119 36h66q82 -1 115.5 -36.5t33.5 -120.5v-112q-2 -83 -35.5 -118t-113.5 -35zM205 81h25q33 0 46.5 15.5t13.5 53.5v112q0 38 -13.5 54t-46.5 16h-25q-33 0 -46.5 -16t-13.5 -54v-112q0 -38 13.5 -53.5
t46.5 -15.5z" />
    <glyph glyph-name="one.dnom" horiz-adv-x="335" 
d="M240 419v-334q45 -4 70 -7v-78h-272v78q43 7 85 8v239l-91 -12v70l141 36h67z" />
    <glyph glyph-name="two.dnom" horiz-adv-x="404" 
d="M368 135v-135h-335v77q0 60 14 92t51 47q35 15 99 30q40 11 54 20t14 25v9q0 19 -9 25.5t-37 6.5q-56 0 -82 -7l-8 -39h-83v110q61 15 93 19t86 4q79 0 112 -24.5t33 -90.5v-31q0 -70 -90 -97q-3 -1 -37.5 -10.5t-42.5 -12.5q-44 -13 -53.5 -23.5t-9.5 -47.5h149l9 53h73
z" />
    <glyph glyph-name="three.dnom" horiz-adv-x="388" 
d="M355 306v-14q0 -78 -60 -97q32 -5 46 -21.5t14 -54.5v-11q0 -62 -36 -87t-124 -25q-80 0 -172 18v112h78l8 -40q43 -6 88 -6q30 0 41 9t11 32v10q0 23 -12.5 31.5t-41.5 8.5h-85v73h86q29 0 41 8t12 30v11q0 24 -11 32.5t-41 8.5q-42 0 -89 -7l-8 -39h-74v111
q94 20 169 20q91 0 125.5 -24t34.5 -89z" />
    <glyph glyph-name="four.dnom" horiz-adv-x="436" 
d="M337 120v-39q21 -1 65 -7v-74h-253v74q50 6 71 8v37h-210v80l210 214h117v-214h66v-71zM220 334l-116 -135h116v135z" />
    <glyph glyph-name="five.dnom" horiz-adv-x="412" 
d="M365 410v-121h-74l-5 37h-141l-4 -88q50 17 89 17h32q60 0 88.5 -24t28.5 -86v-30q0 -119 -146 -119h-19q-71 0 -181 20v114h74l5 -44q38 -6 77 -6h26q54 2 54 44v22q0 23 -9 33t-31 10h-30q-40 0 -74 -26l-85 23l8 224h317z" />
    <glyph glyph-name="six.dnom" horiz-adv-x="434" 
d="M243 251h37q64 0 92.5 -28t28.5 -87v-13q0 -127 -153 -127h-43q-175 0 -175 163v94q0 81 43 125t120 44h21q64 0 167 -20v-113h-91l-12 37q-33 6 -67 6q-68 0 -68 -71v-25q61 15 100 15zM143 165v-29q0 -56 68 -54h32q51 0 51 46v16q0 43 -43 43h-30q-34 0 -78 -22z" />
    <glyph glyph-name="seven.dnom" horiz-adv-x="367" 
d="M357 326l-152 -326h-135v18l175 308h-149l-13 -49h-73v133h347v-84z" />
    <glyph glyph-name="eight.dnom" horiz-adv-x="434" 
d="M387 311v-15q0 -68 -60 -85q77 -17 77 -90v-10q0 -63 -35 -89t-117 -26h-63q-85 0 -121.5 26t-37.5 89v10q0 73 80 90q-62 15 -62 85v15q1 57 35 82t110 25h54q74 0 107 -25t33 -82zM149 301v-18q0 -20 11.5 -28.5t38.5 -8.5h39q26 0 37 8.5t11 28.5v18q0 40 -50 40h-36
q-27 0 -39 -9t-12 -31zM292 119v17q0 22 -12 32t-38 10h-47q-28 0 -40 -10t-12 -32v-17q0 -23 12.5 -32.5t42.5 -8.5h40q29 0 41.5 9.5t12.5 31.5z" />
    <glyph glyph-name="nine.dnom" horiz-adv-x="422" 
d="M182 154h-35q-64 0 -92 25t-28 85v39q0 119 144 119h55q85 0 125 -37.5t41 -120.5v-103q0 -165 -164 -165h-16q-59 0 -164 20v102h92l6 -36q27 -7 68 -7q68 0 68 72v38q-43 -31 -100 -31zM282 250v39q0 50 -68 48h-33q-27 0 -38.5 -11t-11.5 -35v-12q0 -25 10 -36t33 -11
h27q53 0 81 18z" />
    <glyph glyph-name="zero.numr" horiz-adv-x="435" 
d="M253 286h-66q-83 0 -117.5 34.5t-36.5 118.5v112q0 85 35 121t119 36h66q82 -1 115.5 -36.5t33.5 -120.5v-112q-2 -83 -35.5 -118t-113.5 -35zM205 371h25q33 0 46.5 15.5t13.5 53.5v112q0 38 -13.5 54t-46.5 16h-25q-33 0 -46.5 -16t-13.5 -54v-112q0 -38 13.5 -53.5
t46.5 -15.5z" />
    <glyph glyph-name="one.numr" horiz-adv-x="335" 
d="M240 709v-334q45 -4 70 -7v-78h-272v78q43 7 85 8v239l-91 -12v70l141 36h67z" />
    <glyph glyph-name="two.numr" horiz-adv-x="404" 
d="M368 425v-135h-335v77q0 60 14 92t51 47q35 15 99 30q40 11 54 20t14 25v9q0 19 -9 25.5t-37 6.5q-56 0 -82 -7l-8 -39h-83v110q61 15 93 19t86 4q79 0 112 -24.5t33 -90.5v-31q0 -70 -90 -97q-3 -1 -37.5 -10.5t-42.5 -12.5q-44 -13 -53.5 -23.5t-9.5 -47.5h149l9 53h73
z" />
    <glyph glyph-name="three.numr" horiz-adv-x="388" 
d="M355 596v-14q0 -78 -60 -97q32 -5 46 -21.5t14 -54.5v-11q0 -62 -36 -87t-124 -25q-80 0 -172 18v112h78l8 -40q43 -6 88 -6q30 0 41 9t11 32v10q0 23 -12.5 31.5t-41.5 8.5h-85v73h86q29 0 41 8t12 30v11q0 24 -11 32.5t-41 8.5q-42 0 -89 -7l-8 -39h-74v111
q94 20 169 20q91 0 125.5 -24t34.5 -89z" />
    <glyph glyph-name="four.numr" horiz-adv-x="436" 
d="M337 410v-39q21 -1 65 -7v-74h-253v74q50 6 71 8v37h-210v80l210 214h117v-214h66v-71zM220 624l-116 -135h116v135z" />
    <glyph glyph-name="five.numr" horiz-adv-x="412" 
d="M365 700v-121h-74l-5 37h-141l-4 -88q50 17 89 17h32q60 0 88.5 -24t28.5 -86v-30q0 -119 -146 -119h-19q-71 0 -181 20v114h74l5 -44q38 -6 77 -6h26q54 2 54 44v22q0 23 -9 33t-31 10h-30q-40 0 -74 -26l-85 23l8 224h317z" />
    <glyph glyph-name="six.numr" horiz-adv-x="434" 
d="M243 541h37q64 0 92.5 -28t28.5 -87v-13q0 -127 -153 -127h-43q-175 0 -175 163v94q0 81 43 125t120 44h21q64 0 167 -20v-113h-91l-12 37q-33 6 -67 6q-68 0 -68 -71v-25q61 15 100 15zM143 455v-29q0 -56 68 -54h32q51 0 51 46v16q0 43 -43 43h-30q-34 0 -78 -22z" />
    <glyph glyph-name="seven.numr" horiz-adv-x="367" 
d="M357 616l-152 -326h-135v18l175 308h-149l-13 -49h-73v133h347v-84z" />
    <glyph glyph-name="eight.numr" horiz-adv-x="434" 
d="M387 601v-15q0 -68 -60 -85q77 -17 77 -90v-10q0 -63 -35 -89t-117 -26h-63q-85 0 -121.5 26t-37.5 89v10q0 73 80 90q-62 15 -62 85v15q1 57 35 82t110 25h54q74 0 107 -25t33 -82zM149 591v-18q0 -20 11.5 -28.5t38.5 -8.5h39q26 0 37 8.5t11 28.5v18q0 40 -50 40h-36
q-27 0 -39 -9t-12 -31zM292 409v17q0 22 -12 32t-38 10h-47q-28 0 -40 -10t-12 -32v-17q0 -23 12.5 -32.5t42.5 -8.5h40q29 0 41.5 9.5t12.5 31.5z" />
    <glyph glyph-name="nine.numr" horiz-adv-x="422" 
d="M182 444h-35q-64 0 -92 25t-28 85v39q0 119 144 119h55q85 0 125 -37.5t41 -120.5v-103q0 -165 -164 -165h-16q-59 0 -164 20v102h92l6 -36q27 -7 68 -7q68 0 68 72v38q-43 -31 -100 -31zM282 540v39q0 50 -68 48h-33q-27 0 -38.5 -11t-11.5 -35v-12q0 -25 10 -36t33 -11
h27q53 0 81 18z" />
    <glyph glyph-name="backslash.case" horiz-adv-x="458" 
d="M83 768l392 -852h-93l-392 852h93z" />
    <glyph glyph-name="bullet.case" horiz-adv-x="321" 
d="M206 209q-112 0 -165.5 49t-53.5 152q0 105 53.5 155t165.5 50q110 0 164 -50.5t54 -154.5q0 -102 -54 -151.5t-164 -49.5z" />
    <glyph glyph-name="exclamdown.case" horiz-adv-x="246" 
d="M121 706q91 0 91 -84q0 -85 -91 -85t-91 85q0 84 91 84zM32 0v123l42 343h94l42 -343v-123h-178z" />
    <glyph glyph-name="periodcentered.case" horiz-adv-x="235" 
d="M118 257q-91 0 -91 84q0 85 91 85t91 -85q0 -84 -91 -84z" />
    <glyph glyph-name="questiondown.case" horiz-adv-x="527" 
d="M317 706q91 0 91 -84q0 -85 -91 -85t-91 85q0 84 91 84zM512 189v-161q-95 -25 -143 -32.5t-123 -7.5q-114 0 -168.5 44.5t-54.5 144.5v21q0 71 24 106t72 52q26 8 70.5 20.5t62.5 17.5v84h132l16 -167q-115 -33 -159 -48q-57 -20 -57 -58v-21q0 -41 16 -55.5t62 -14.5
q65 0 113 16l11 59h126z" />
    <glyph glyph-name="slash.case" horiz-adv-x="458" 
d="M76 -67h-93l392 852h93z" />
    <glyph glyph-name="numbersign.ss10" horiz-adv-x="534" 
d="M416 429h73v-105h-88l-14 -91h-107l14 91h-89l-14 -91h-107l14 91h-75v105h90l12 74h-81v106h96l14 91h107l-14 -91h89l14 91h106l-13 -91h61v-106h-76zM232 503l-12 -74h89l12 74h-89z" />
    <glyph glyph-name="braceleft.case" horiz-adv-x="381" 
d="M244 584v-475q0 -57 22 -83.5t86 -62.5l-35 -71q-45 17 -69 27.5t-57 30t-49.5 39.5t-28.5 50.5t-12 68.5v173l-81 16v116l81 16v157q0 38 12 68.5t29 50.5t49 39t57 30t69 27l35 -71q-64 -36 -86 -62.5t-22 -83.5z" />
    <glyph glyph-name="braceright.case" horiz-adv-x="381" 
d="M137 109v475q0 57 -22 83.5t-86 62.5l35 71q44 -16 69 -27t57 -30t49 -39t29 -50.5t12 -68.5v-157l81 -16v-116l-81 -16v-173q0 -38 -12 -68.5t-28.5 -50.5t-49.5 -39.5t-57 -30t-69 -27.5l-35 71q64 36 86 62.5t22 83.5z" />
    <glyph glyph-name="bracketleft.case" horiz-adv-x="314" 
d="M294 675h-114v-655h114v-103h-257v864h257v-106z" />
    <glyph glyph-name="bracketright.case" horiz-adv-x="314" 
d="M277 781v-864h-257v103h114v655h-114v106h257z" />
    <glyph glyph-name="parenleft.case" horiz-adv-x="294" 
d="M166 588v-475q0 -57 22 -83.5t86 -62.5l-35 -71q-45 17 -69 27.5t-57 30t-49.5 39.5t-28.5 50.5t-12 68.5v478q0 38 12 68.5t29 50.5t49 39t57 30t69 27l35 -71q-64 -36 -86 -62.5t-22 -83.5z" />
    <glyph glyph-name="parenright.case" horiz-adv-x="303" 
d="M137 113v475q0 57 -22 83.5t-86 62.5l35 71q44 -16 69 -27t57 -30t49 -39t29 -50.5t12 -68.5v-478q0 -38 -12 -68.5t-28.5 -50.5t-49.5 -39.5t-57 -30t-69 -27.5l-35 71q64 36 86 62.5t22 83.5z" />
    <glyph glyph-name="emdash.case" horiz-adv-x="679" 
d="M646 287h-613v124h613v-124z" />
    <glyph glyph-name="endash.case" horiz-adv-x="466" 
d="M433 287h-400v124h400v-124z" />
    <glyph glyph-name="hyphen.case" horiz-adv-x="361" 
d="M348 284h-315v130h315v-130z" />
    <glyph glyph-name="guillemotleft.case" horiz-adv-x="552" 
d="M285 168v-49h-98l-152 201v10l152 201h98v-50l-100 -151v-10zM501 168v-49h-98l-152 201v10l152 201h98v-50l-100 -151v-10z" />
    <glyph glyph-name="guillemotright.case" horiz-adv-x="552" 
d="M165 330l-100 151v50h98l152 -201v-10l-152 -201h-98v49l100 152v10zM380 330l-100 151v50h98l152 -201v-10l-152 -201h-98v49l100 152v10z" />
    <glyph glyph-name="guilsinglleft.case" horiz-adv-x="307" 
d="M277 195v-49h-98l-152 201v10l152 201h98v-50l-100 -151v-10z" />
    <glyph glyph-name="guilsinglright.case" horiz-adv-x="307" 
d="M126 357l-100 151v50h98l152 -201v-10l-152 -201h-98v49l100 152v10z" />
    <glyph glyph-name="florin.tf" horiz-adv-x="623" 
d="M512 451v-124h-141l-30 -192q-12 -71 -41.5 -105t-93.5 -47q-23 -5 -44 -7t-46.5 -2.5t-33.5 -0.5l-19 87q28 7 48 13q35 10 44.5 21t15.5 36l31 197h-69v110q69 9 89 11l17 108q12 71 42 105.5t94 47.5q28 5 153 19l14 -110q-39 -10 -77 -22q-34 -10 -45 -21.5
t-15 -35.5l-14 -88h121z" />
    <glyph glyph-name="cent.tf" horiz-adv-x="623" 
d="M547 173v-117q-84 -54 -168 -66v-57h-122v55q-100 4 -144.5 58.5t-44.5 165.5v112q0 98 52.5 154.5t142.5 63.5v60h122v-60q68 -5 156 -28v-185h-120l-14 88q-37 5 -68 6v-310q59 2 75 44l4 16h129zM228 317v-116q0 -50 18.5 -68t55.5 -20v310q-38 -3 -56 -27t-18 -79z
" />
    <glyph glyph-name="dollar.tf" horiz-adv-x="623" 
d="M341 430l116 -27q77 -19 107.5 -56t30.5 -112v-42q0 -96 -53 -142.5t-171 -51.5v-66h-122v66q-80 4 -212 45v178h139l18 -83q37 -14 98 -16v166l-112 26q-88 25 -119 61.5t-31 121.5v10q0 97 53.5 143.5t171.5 51.5v74h123v-76q94 -6 197 -35v-190h-132l-19 87
q-29 12 -83 14v-147zM292 441v136h-3q-47 0 -66 -13t-19 -47v-9q0 -24 11.5 -37.5t38.5 -20.5zM428 187v19q0 31 -16 44t-67 26l-4 1v-154q51 2 69 15t18 49z" />
    <glyph glyph-name="Euro.tf" horiz-adv-x="623" 
d="M472 500l-6 64q-34 15 -128 15q-107 0 -107 -103v-37h225l-15 -66h-210v-46h196l-15 -66h-181v-34q1 -105 107 -103h25q83 0 113 69h116v-108q-102 -98 -221 -98h-51q-255 0 -255 236v38h-52v66h51v46h-51v66h51v29q0 127 64.5 185.5t192.5 58.5h34q126 0 236 -35v-177
h-119z" />
    <glyph glyph-name="sterling.tf" horiz-adv-x="623" 
d="M593 0h-567v119q21 19 30.5 29t24 29t19 39.5t2.5 44.5l-2 19h-82v92h83l-10 85q-4 58 3 100t29 79t70 56.5t121 19.5h27q111 0 250 -35l-20 -191h-126l-12 81q-36 12 -110 12q-85 0 -69 -111l14 -96h173l-15 -92h-153l2 -20q3 -27 -8 -51.5t-25 -39t-41 -36.5h261
l19 101h112v-234z" />
    <glyph glyph-name="yen.tf" horiz-adv-x="623" 
d="M613 700v-119q-70 -11 -73 -11l-96 -205h119v-59h-147l-23 -51h170v-59h-177v-67q25 -2 73 -10v-119h-311v119q34 6 71 9v68h-169v59h160l-23 51h-137v59h110l-94 207q-34 3 -64 9v119h271v-119q-35 -4 -50 -5l89 -211h1l98 209q-35 4 -57 7v119h259z" />
    <glyph glyph-name="arrowdown.ss13" horiz-adv-x="785" 
d="M393 75q115 0 195.5 81t80.5 197q0 115 -80.5 196t-195.5 81t-196.5 -81t-81.5 -196t81.5 -196.5t196.5 -81.5zM405 190h-24l-147 147l45 45l78 -82v202h70v-204l79 84l45 -45z" />
    <glyph glyph-name="arrowdownleft.ss13" horiz-adv-x="785" 
d="M195 150q81 -81 195.5 -80.5t196.5 82.5q81 81 81.5 195t-81.5 196q-82 81 -196.5 81t-195.5 -81q-82 -82 -82 -196.5t82 -196.5zM285 224l-17 16v208h63l-2 -113l142 143l50 -50l-144 -144l115 3v-63h-207z" />
    <glyph glyph-name="arrowdownright.ss13" horiz-adv-x="786" 
d="M576 150q82 82 82 196.5t-82 196.5q-81 81 -195.5 81t-196.5 -81q-82 -82 -81.5 -196t81.5 -195q82 -82 196.5 -82.5t195.5 80.5zM279 287l115 -3l-144 144l50 50l142 -143l-2 113h63v-208l-17 -16h-207v63z" />
    <glyph glyph-name="arrowleft.ss13" horiz-adv-x="785" 
d="M115 351q0 -115 81 -195.5t197 -80.5q115 0 196 80.5t81 195.5t-81 196.5t-196 81.5t-196.5 -81.5t-81.5 -196.5zM230 339v24l147 147l45 -45l-82 -78h202v-70h-204l84 -79l-45 -45z" />
    <glyph glyph-name="arrowright.ss13" horiz-adv-x="785" 
d="M670 351q0 115 -81 196.5t-197 81.5q-115 0 -196 -81.5t-81 -196.5t81 -195.5t196 -80.5q116 0 197 80.5t81 195.5zM363 238l84 79h-204v70h202l-82 78l45 45l147 -147v-24l-147 -146z" />
    <glyph glyph-name="arrowup.ss13" horiz-adv-x="785" 
d="M393 630q-115 0 -196.5 -81t-81.5 -197q0 -115 81.5 -196t196.5 -81t195.5 81t80.5 196q0 116 -80.5 197t-195.5 81zM506 323l-79 84v-204h-70v202l-78 -82l-45 45l147 147h24l146 -147z" />
    <glyph glyph-name="arrowupleft.ss13" horiz-adv-x="786" 
d="M195 554q-82 -82 -82 -196.5t82 -196.5q81 -81 195.5 -81t196.5 81q82 82 81.5 196t-81.5 195q-82 82 -196.5 82.5t-195.5 -80.5zM492 417l-115 3l144 -144l-50 -50l-142 143l2 -113h-63v208l17 16h207v-63z" />
    <glyph glyph-name="arrowupright.ss13" horiz-adv-x="786" 
d="M576 554q-81 81 -195.5 80.5t-196.5 -82.5q-81 -81 -81.5 -195t81.5 -196q82 -81 196.5 -81t195.5 81q82 82 82 196.5t-82 196.5zM486 480l17 -16v-208h-63l2 113l-142 -143l-50 50l144 144l-115 -3v63h207z" />
    <glyph glyph-name="at.case" horiz-adv-x="999" 
d="M737 567l-45 -318q-4 -43 7.5 -59.5t44.5 -16.5q65 0 105 61.5t40 172.5q0 151 -86.5 231.5t-250.5 80.5q-213 0 -327.5 -118.5t-114.5 -305.5q0 -167 100.5 -255.5t278.5 -88.5q160 0 298 69l22 -48q-138 -78 -323 -78q-204 0 -321.5 103.5t-117.5 296.5
q0 214 134.5 348t371.5 134q189 0 294.5 -94.5t105.5 -266.5q0 -145 -69.5 -227t-199.5 -82q-27 0 -42.5 1.5t-36 6.5t-33.5 19t-18 36q-35 -36 -67.5 -53t-84.5 -17h-15q-69 0 -108.5 44t-27.5 136l15 139q9 73 53 110t106 37h18q68 0 144 -34l4 36h146zM554 251l21 190
q-42 21 -88 21h-15q-35 0 -52.5 -21t-24.5 -78l-4 -51q-6 -59 8 -81t54 -22h9q46 0 91 34z" />
    <glyph glyph-name="ampersand.ss11" horiz-adv-x="759" 
d="M742 427v-115q-6 -1 -42.5 -4.5t-56.5 -4.5v-38q0 -141 -63.5 -207t-204.5 -66h-66q-156 0 -221 47.5t-65 168.5v17q0 134 118 155q-49 45 -49 137v16q0 95 51.5 137t158.5 42h19q63 0 176 -30v-160h-113l-10 56q-26 8 -63 8h-20q-65 0 -65 -60v-27q0 -32 19 -52t52 -20
h77v-115h-117q-83 0 -83 -78v-23q0 -49 22 -67.5t78 -18.5h92q77 0 109 32t32 106v41q-12 1 -80 8v115h315z" />
    <glyph glyph-name="copyright.ss12" horiz-adv-x="429" 
d="M215 325q-92 0 -143.5 51.5t-51.5 143.5t51.5 143.5t143.5 51.5t143 -51.5t51 -143.5t-51 -143.5t-143 -51.5zM215 359q76 0 117 41t41 120t-41 120.5t-117 41.5q-77 0 -118 -41.5t-41 -120.5t41 -120t118 -41zM299 486v-43q-38 -27 -77 -27h-18q-38 0 -60 22t-23 61v42
q0 40 22 61.5t61 21.5h15q27 0 80 -12v-69h-48l-6 29q-13 5 -34 5q-32 0 -32 -38v-40q0 -32 33 -32h5q28 0 34 19h48z" />
    <glyph glyph-name="acute.case" 
d="M385 869v-22l-166 -110l-69 43l114 149z" />
    <glyph glyph-name="breve.case" 
d="M410 899v-24q0 -62 -42.5 -99t-117.5 -37q-76 0 -118.5 37t-42.5 99v24h92v-5q0 -55 69 -55t69 55v5h91z" />
    <glyph glyph-name="caron.case" 
d="M299 745h-97l-117 125l47 41l118 -82l119 82l46 -41z" />
    <glyph glyph-name="circumflex.case" 
d="M372 741l-123 85l-122 -85l-49 43l120 130h103l120 -130z" />
    <glyph glyph-name="dieresis.case" 
d="M139 757q-34 0 -57.5 20.5t-23.5 52.5q0 33 23 53.5t58 20.5t58 -20.5t23 -53.5q0 -32 -23.5 -52.5t-57.5 -20.5zM360 757q-34 0 -57 20.5t-23 52.5q0 33 23 53.5t57 20.5q35 0 58.5 -20.5t23.5 -53.5q0 -32 -23.5 -52.5t-58.5 -20.5z" />
    <glyph glyph-name="dotaccent.case" 
d="M249 754q-35 0 -59 21t-24 55t24 55.5t59 21.5q36 0 60 -21.5t24 -55.5t-24 -55t-60 -21z" />
    <glyph glyph-name="grave.case" 
d="M361 781l-65 -41l-161 106v22l117 57z" />
    <glyph glyph-name="hungarumlaut.case" 
d="M266 884v-20l-140 -119l-59 41l108 143zM433 884v-20l-139 -119l-60 41l110 143z" />
    <glyph glyph-name="macron.case" 
d="M403 857v-94h-306v94h306z" />
    <glyph glyph-name="ring.case" 
d="M269 729h-39q-41 0 -64 22t-23 64v28q0 86 87 86h39q42 0 64.5 -22.5t22.5 -63.5v-28q0 -86 -87 -86zM236 787h26q28 0 31 30v24q0 33 -31 33h-26q-31 0 -31 -33v-24q0 -30 31 -30z" />
    <glyph glyph-name="tilde.case" 
d="M447 855l-76 -83q-22 -25 -60 -25q-12 0 -23 4.5t-19 10t-29 22t-42 30.5l-91 -62l-49 43l66 73q33 37 69 37q14 0 26.5 -5t21 -11t29 -22.5t37.5 -28.5l91 59z" />
    <glyph glyph-name="caron.alt" 
d="M331 767v-25l-61 -167h-80l17 192h124z" />
    </font>
</defs>
</svg>
